<?xml version="1.0" encoding="UTF-8" standalone="no"?>
<!DOCTYPE svg PUBLIC "-//W3C//DTD SVG 1.1//EN"
 "http://www.w3.org/Graphics/SVG/1.1/DTD/svg11.dtd">
<!-- Generated by graphviz version 12.1.2 (20240928.0832)
 -->
<!-- Title: G Pages: 1 -->
<svg width="513pt" height="501pt"
 viewBox="0.00 0.00 513.00 500.50" xmlns="http://www.w3.org/2000/svg" xmlns:xlink="http://www.w3.org/1999/xlink">
<g id="graph0" class="graph" transform="scale(1 1) rotate(0) translate(4 496.5)">
<title>G</title>
<polygon fill="white" stroke="none" points="-4,4 -4,-496.5 509,-496.5 509,4 -4,4"/>
<text text-anchor="middle" x="252.5" y="-475.2" font-family="Times,serif" font-size="14.00">((I ^ (tanh(I) ^ sqrt(t))) &#45; (sech((I + (t / (0.2 * y)))) * sech((x + (y + (2 ^ I)))))), depth = 6</text>
<!-- 25 -->
<g id="node1" class="node">
<title>25</title>
<ellipse fill="none" stroke="black" cx="144.5" cy="-450" rx="27" ry="18"/>
<text text-anchor="middle" x="144.5" y="-444.95" font-family="Times,serif" font-size="14.00">&#45;</text>
</g>
<!-- 7 -->
<g id="node2" class="node">
<title>7</title>
<ellipse fill="none" stroke="black" cx="108.5" cy="-378" rx="27" ry="18"/>
<text text-anchor="middle" x="108.5" y="-372.95" font-family="Times,serif" font-size="14.00">^</text>
</g>
<!-- 25&#45;&#45;7 -->
<g id="edge1" class="edge">
<title>25&#45;&#45;7</title>
<path fill="none" stroke="black" d="M136.15,-432.76C130.33,-421.46 122.61,-406.44 116.8,-395.15"/>
</g>
<!-- 24 -->
<g id="node9" class="node">
<title>24</title>
<ellipse fill="none" stroke="black" cx="215.5" cy="-378" rx="27" ry="18"/>
<text text-anchor="middle" x="215.5" y="-372.95" font-family="Times,serif" font-size="14.00">*</text>
</g>
<!-- 25&#45;&#45;24 -->
<g id="edge8" class="edge">
<title>25&#45;&#45;24</title>
<path fill="none" stroke="black" d="M159.21,-434.5C171.4,-422.48 188.63,-405.49 200.81,-393.49"/>
</g>
<!-- 1 -->
<g id="node3" class="node">
<title>1</title>
<ellipse fill="none" stroke="black" cx="36.5" cy="-306" rx="27" ry="18"/>
<text text-anchor="middle" x="36.5" y="-300.95" font-family="Times,serif" font-size="14.00">I</text>
</g>
<!-- 7&#45;&#45;1 -->
<g id="edge2" class="edge">
<title>7&#45;&#45;1</title>
<path fill="none" stroke="black" d="M93.58,-362.5C81.22,-350.48 63.75,-333.49 51.4,-321.49"/>
</g>
<!-- 6 -->
<g id="node4" class="node">
<title>6</title>
<ellipse fill="none" stroke="black" cx="108.5" cy="-306" rx="27" ry="18"/>
<text text-anchor="middle" x="108.5" y="-300.95" font-family="Times,serif" font-size="14.00">^</text>
</g>
<!-- 7&#45;&#45;6 -->
<g id="edge3" class="edge">
<title>7&#45;&#45;6</title>
<path fill="none" stroke="black" d="M108.5,-359.7C108.5,-348.85 108.5,-334.92 108.5,-324.1"/>
</g>
<!-- 3 -->
<g id="node5" class="node">
<title>3</title>
<ellipse fill="none" stroke="black" cx="36.5" cy="-234" rx="27" ry="18"/>
<text text-anchor="middle" x="36.5" y="-228.95" font-family="Times,serif" font-size="14.00">tanh</text>
</g>
<!-- 6&#45;&#45;3 -->
<g id="edge4" class="edge">
<title>6&#45;&#45;3</title>
<path fill="none" stroke="black" d="M93.58,-290.5C81.22,-278.48 63.75,-261.49 51.4,-249.49"/>
</g>
<!-- 5 -->
<g id="node7" class="node">
<title>5</title>
<ellipse fill="none" stroke="black" cx="108.5" cy="-234" rx="27" ry="18"/>
<text text-anchor="middle" x="108.5" y="-228.95" font-family="Times,serif" font-size="14.00">sqrt</text>
</g>
<!-- 6&#45;&#45;5 -->
<g id="edge6" class="edge">
<title>6&#45;&#45;5</title>
<path fill="none" stroke="black" d="M108.5,-287.7C108.5,-276.85 108.5,-262.92 108.5,-252.1"/>
</g>
<!-- 2 -->
<g id="node6" class="node">
<title>2</title>
<ellipse fill="none" stroke="black" cx="36.5" cy="-162" rx="27" ry="18"/>
<text text-anchor="middle" x="36.5" y="-156.95" font-family="Times,serif" font-size="14.00">I</text>
</g>
<!-- 3&#45;&#45;2 -->
<g id="edge5" class="edge">
<title>3&#45;&#45;2</title>
<path fill="none" stroke="black" d="M36.5,-215.7C36.5,-204.85 36.5,-190.92 36.5,-180.1"/>
</g>
<!-- 4 -->
<g id="node8" class="node">
<title>4</title>
<ellipse fill="none" stroke="black" cx="108.5" cy="-162" rx="27" ry="18"/>
<text text-anchor="middle" x="108.5" y="-156.95" font-family="Times,serif" font-size="14.00">t</text>
</g>
<!-- 5&#45;&#45;4 -->
<g id="edge7" class="edge">
<title>5&#45;&#45;4</title>
<path fill="none" stroke="black" d="M108.5,-215.7C108.5,-204.85 108.5,-190.92 108.5,-180.1"/>
</g>
<!-- 15 -->
<g id="node10" class="node">
<title>15</title>
<ellipse fill="none" stroke="black" cx="215.5" cy="-306" rx="27.3" ry="18"/>
<text text-anchor="middle" x="215.5" y="-300.95" font-family="Times,serif" font-size="14.00">sech</text>
</g>
<!-- 24&#45;&#45;15 -->
<g id="edge9" class="edge">
<title>24&#45;&#45;15</title>
<path fill="none" stroke="black" d="M215.5,-359.7C215.5,-348.85 215.5,-334.92 215.5,-324.1"/>
</g>
<!-- 23 -->
<g id="node18" class="node">
<title>23</title>
<ellipse fill="none" stroke="black" cx="306.5" cy="-306" rx="27.3" ry="18"/>
<text text-anchor="middle" x="306.5" y="-300.95" font-family="Times,serif" font-size="14.00">sech</text>
</g>
<!-- 24&#45;&#45;23 -->
<g id="edge17" class="edge">
<title>24&#45;&#45;23</title>
<path fill="none" stroke="black" d="M232.62,-363.83C248.78,-351.4 272.91,-332.84 289.15,-320.35"/>
</g>
<!-- 14 -->
<g id="node11" class="node">
<title>14</title>
<ellipse fill="none" stroke="black" cx="215.5" cy="-234" rx="27" ry="18"/>
<text text-anchor="middle" x="215.5" y="-228.95" font-family="Times,serif" font-size="14.00">+</text>
</g>
<!-- 15&#45;&#45;14 -->
<g id="edge10" class="edge">
<title>15&#45;&#45;14</title>
<path fill="none" stroke="black" d="M215.5,-287.7C215.5,-276.85 215.5,-262.92 215.5,-252.1"/>
</g>
<!-- 8 -->
<g id="node12" class="node">
<title>8</title>
<ellipse fill="none" stroke="black" cx="180.5" cy="-162" rx="27" ry="18"/>
<text text-anchor="middle" x="180.5" y="-156.95" font-family="Times,serif" font-size="14.00">I</text>
</g>
<!-- 14&#45;&#45;8 -->
<g id="edge11" class="edge">
<title>14&#45;&#45;8</title>
<path fill="none" stroke="black" d="M207.21,-216.41C201.63,-205.25 194.3,-190.6 188.73,-179.47"/>
</g>
<!-- 13 -->
<g id="node13" class="node">
<title>13</title>
<ellipse fill="none" stroke="black" cx="252.5" cy="-162" rx="27" ry="18"/>
<text text-anchor="middle" x="252.5" y="-156.95" font-family="Times,serif" font-size="14.00">/</text>
</g>
<!-- 14&#45;&#45;13 -->
<g id="edge12" class="edge">
<title>14&#45;&#45;13</title>
<path fill="none" stroke="black" d="M224.08,-216.76C230.06,-205.46 238,-190.44 243.96,-179.15"/>
</g>
<!-- 9 -->
<g id="node14" class="node">
<title>9</title>
<ellipse fill="none" stroke="black" cx="198.5" cy="-90" rx="27" ry="18"/>
<text text-anchor="middle" x="198.5" y="-84.95" font-family="Times,serif" font-size="14.00">t</text>
</g>
<!-- 13&#45;&#45;9 -->
<g id="edge13" class="edge">
<title>13&#45;&#45;9</title>
<path fill="none" stroke="black" d="M240.52,-145.46C231.57,-133.86 219.39,-118.08 210.45,-106.49"/>
</g>
<!-- 12 -->
<g id="node15" class="node">
<title>12</title>
<ellipse fill="none" stroke="black" cx="270.5" cy="-90" rx="27" ry="18"/>
<text text-anchor="middle" x="270.5" y="-84.95" font-family="Times,serif" font-size="14.00">*</text>
</g>
<!-- 13&#45;&#45;12 -->
<g id="edge14" class="edge">
<title>13&#45;&#45;12</title>
<path fill="none" stroke="black" d="M256.86,-144.05C259.69,-133.05 263.36,-118.76 266.18,-107.79"/>
</g>
<!-- 10 -->
<g id="node16" class="node">
<title>10</title>
<ellipse fill="none" stroke="black" cx="252.5" cy="-18" rx="27" ry="18"/>
<text text-anchor="middle" x="252.5" y="-12.95" font-family="Times,serif" font-size="14.00">0.2</text>
</g>
<!-- 12&#45;&#45;10 -->
<g id="edge15" class="edge">
<title>12&#45;&#45;10</title>
<path fill="none" stroke="black" d="M266.14,-72.05C263.31,-61.05 259.64,-46.76 256.82,-35.79"/>
</g>
<!-- 11 -->
<g id="node17" class="node">
<title>11</title>
<ellipse fill="none" stroke="black" cx="324.5" cy="-18" rx="27" ry="18"/>
<text text-anchor="middle" x="324.5" y="-12.95" font-family="Times,serif" font-size="14.00">y</text>
</g>
<!-- 12&#45;&#45;11 -->
<g id="edge16" class="edge">
<title>12&#45;&#45;11</title>
<path fill="none" stroke="black" d="M282.48,-73.46C291.43,-61.86 303.61,-46.08 312.55,-34.49"/>
</g>
<!-- 22 -->
<g id="node19" class="node">
<title>22</title>
<ellipse fill="none" stroke="black" cx="324.5" cy="-234" rx="27" ry="18"/>
<text text-anchor="middle" x="324.5" y="-228.95" font-family="Times,serif" font-size="14.00">+</text>
</g>
<!-- 23&#45;&#45;22 -->
<g id="edge18" class="edge">
<title>23&#45;&#45;22</title>
<path fill="none" stroke="black" d="M310.86,-288.05C313.69,-277.05 317.36,-262.76 320.18,-251.79"/>
</g>
<!-- 16 -->
<g id="node20" class="node">
<title>16</title>
<ellipse fill="none" stroke="black" cx="324.5" cy="-162" rx="27" ry="18"/>
<text text-anchor="middle" x="324.5" y="-156.95" font-family="Times,serif" font-size="14.00">x</text>
</g>
<!-- 22&#45;&#45;16 -->
<g id="edge19" class="edge">
<title>22&#45;&#45;16</title>
<path fill="none" stroke="black" d="M324.5,-215.7C324.5,-204.85 324.5,-190.92 324.5,-180.1"/>
</g>
<!-- 21 -->
<g id="node21" class="node">
<title>21</title>
<ellipse fill="none" stroke="black" cx="396.5" cy="-162" rx="27" ry="18"/>
<text text-anchor="middle" x="396.5" y="-156.95" font-family="Times,serif" font-size="14.00">+</text>
</g>
<!-- 22&#45;&#45;21 -->
<g id="edge20" class="edge">
<title>22&#45;&#45;21</title>
<path fill="none" stroke="black" d="M339.42,-218.5C351.78,-206.48 369.25,-189.49 381.6,-177.49"/>
</g>
<!-- 17 -->
<g id="node22" class="node">
<title>17</title>
<ellipse fill="none" stroke="black" cx="378.5" cy="-90" rx="27" ry="18"/>
<text text-anchor="middle" x="378.5" y="-84.95" font-family="Times,serif" font-size="14.00">y</text>
</g>
<!-- 21&#45;&#45;17 -->
<g id="edge21" class="edge">
<title>21&#45;&#45;17</title>
<path fill="none" stroke="black" d="M392.14,-144.05C389.31,-133.05 385.64,-118.76 382.82,-107.79"/>
</g>
<!-- 20 -->
<g id="node23" class="node">
<title>20</title>
<ellipse fill="none" stroke="black" cx="450.5" cy="-90" rx="27" ry="18"/>
<text text-anchor="middle" x="450.5" y="-84.95" font-family="Times,serif" font-size="14.00">^</text>
</g>
<!-- 21&#45;&#45;20 -->
<g id="edge22" class="edge">
<title>21&#45;&#45;20</title>
<path fill="none" stroke="black" d="M408.48,-145.46C417.43,-133.86 429.61,-118.08 438.55,-106.49"/>
</g>
<!-- 18 -->
<g id="node24" class="node">
<title>18</title>
<ellipse fill="none" stroke="black" cx="396.5" cy="-18" rx="27" ry="18"/>
<text text-anchor="middle" x="396.5" y="-12.95" font-family="Times,serif" font-size="14.00">2</text>
</g>
<!-- 20&#45;&#45;18 -->
<g id="edge23" class="edge">
<title>20&#45;&#45;18</title>
<path fill="none" stroke="black" d="M438.52,-73.46C429.57,-61.86 417.39,-46.08 408.45,-34.49"/>
</g>
<!-- 19 -->
<g id="node25" class="node">
<title>19</title>
<ellipse fill="none" stroke="black" cx="468.5" cy="-18" rx="27" ry="18"/>
<text text-anchor="middle" x="468.5" y="-12.95" font-family="Times,serif" font-size="14.00">I</text>
</g>
<!-- 20&#45;&#45;19 -->
<g id="edge24" class="edge">
<title>20&#45;&#45;19</title>
<path fill="none" stroke="black" d="M454.86,-72.05C457.69,-61.05 461.36,-46.76 464.18,-35.79"/>
</g>
</g>
</svg>
