<?xml version="1.0" encoding="utf-8" standalone="no"?>
<!DOCTYPE svg PUBLIC "-//W3C//DTD SVG 1.1//EN"
  "http://www.w3.org/Graphics/SVG/1.1/DTD/svg11.dtd">
<svg xmlns:xlink="http://www.w3.org/1999/xlink" width="720pt" height="432pt" viewBox="0 0 720 432" xmlns="http://www.w3.org/2000/svg" version="1.1">
 <metadata>
  <rdf:RDF xmlns:dc="http://purl.org/dc/elements/1.1/" xmlns:cc="http://creativecommons.org/ns#" xmlns:rdf="http://www.w3.org/1999/02/22-rdf-syntax-ns#">
   <cc:Work>
    <dc:type rdf:resource="http://purl.org/dc/dcmitype/StillImage"/>
    <dc:date>2024-12-31T23:34:01.887732</dc:date>
    <dc:format>image/svg+xml</dc:format>
    <dc:creator>
     <cc:Agent>
      <dc:title>Matplotlib v3.7.2, https://matplotlib.org/</dc:title>
     </cc:Agent>
    </dc:creator>
   </cc:Work>
  </rdf:RDF>
 </metadata>
 <defs>
  <style type="text/css">*{stroke-linejoin: round; stroke-linecap: butt}</style>
 </defs>
 <g id="figure_1">
  <g id="patch_1">
   <path d="M 0 432 
L 720 432 
L 720 0 
L 0 0 
z
" style="fill: #ffffff"/>
  </g>
  <g id="axes_1">
   <g id="patch_2">
    <path d="M 90 384.48 
L 648 384.48 
L 648 51.84 
L 90 51.84 
z
" style="fill: #ffffff"/>
   </g>
   <g id="matplotlib.axis_1">
    <g id="xtick_1">
     <g id="line2d_1">
      <path d="M 115.363636 384.48 
L 115.363636 51.84 
" clip-path="url(#pdbe853c7c5)" style="fill: none; stroke: #b0b0b0; stroke-width: 0.8; stroke-linecap: square"/>
     </g>
     <g id="line2d_2">
      <defs>
       <path id="m84c640360f" d="M 0 0 
L 0 3.5 
" style="stroke: #000000; stroke-width: 0.8"/>
      </defs>
      <g>
       <use xlink:href="#m84c640360f" x="115.363636" y="384.48" style="stroke: #000000; stroke-width: 0.8"/>
      </g>
     </g>
     <g id="text_1">
      <!-- 0.00 -->
      <g transform="translate(104.230824 399.078438) scale(0.1 -0.1)">
       <defs>
        <path id="DejaVuSans-30" d="M 2034 4250 
Q 1547 4250 1301 3770 
Q 1056 3291 1056 2328 
Q 1056 1369 1301 889 
Q 1547 409 2034 409 
Q 2525 409 2770 889 
Q 3016 1369 3016 2328 
Q 3016 3291 2770 3770 
Q 2525 4250 2034 4250 
z
M 2034 4750 
Q 2819 4750 3233 4129 
Q 3647 3509 3647 2328 
Q 3647 1150 3233 529 
Q 2819 -91 2034 -91 
Q 1250 -91 836 529 
Q 422 1150 422 2328 
Q 422 3509 836 4129 
Q 1250 4750 2034 4750 
z
" transform="scale(0.015625)"/>
        <path id="DejaVuSans-2e" d="M 684 794 
L 1344 794 
L 1344 0 
L 684 0 
L 684 794 
z
" transform="scale(0.015625)"/>
       </defs>
       <use xlink:href="#DejaVuSans-30"/>
       <use xlink:href="#DejaVuSans-2e" x="63.623047"/>
       <use xlink:href="#DejaVuSans-30" x="95.410156"/>
       <use xlink:href="#DejaVuSans-30" x="159.033203"/>
      </g>
     </g>
    </g>
    <g id="xtick_2">
     <g id="line2d_3">
      <path d="M 178.772727 384.48 
L 178.772727 51.84 
" clip-path="url(#pdbe853c7c5)" style="fill: none; stroke: #b0b0b0; stroke-width: 0.8; stroke-linecap: square"/>
     </g>
     <g id="line2d_4">
      <g>
       <use xlink:href="#m84c640360f" x="178.772727" y="384.48" style="stroke: #000000; stroke-width: 0.8"/>
      </g>
     </g>
     <g id="text_2">
      <!-- 0.25 -->
      <g transform="translate(167.639915 399.078438) scale(0.1 -0.1)">
       <defs>
        <path id="DejaVuSans-32" d="M 1228 531 
L 3431 531 
L 3431 0 
L 469 0 
L 469 531 
Q 828 903 1448 1529 
Q 2069 2156 2228 2338 
Q 2531 2678 2651 2914 
Q 2772 3150 2772 3378 
Q 2772 3750 2511 3984 
Q 2250 4219 1831 4219 
Q 1534 4219 1204 4116 
Q 875 4013 500 3803 
L 500 4441 
Q 881 4594 1212 4672 
Q 1544 4750 1819 4750 
Q 2544 4750 2975 4387 
Q 3406 4025 3406 3419 
Q 3406 3131 3298 2873 
Q 3191 2616 2906 2266 
Q 2828 2175 2409 1742 
Q 1991 1309 1228 531 
z
" transform="scale(0.015625)"/>
        <path id="DejaVuSans-35" d="M 691 4666 
L 3169 4666 
L 3169 4134 
L 1269 4134 
L 1269 2991 
Q 1406 3038 1543 3061 
Q 1681 3084 1819 3084 
Q 2600 3084 3056 2656 
Q 3513 2228 3513 1497 
Q 3513 744 3044 326 
Q 2575 -91 1722 -91 
Q 1428 -91 1123 -41 
Q 819 9 494 109 
L 494 744 
Q 775 591 1075 516 
Q 1375 441 1709 441 
Q 2250 441 2565 725 
Q 2881 1009 2881 1497 
Q 2881 1984 2565 2268 
Q 2250 2553 1709 2553 
Q 1456 2553 1204 2497 
Q 953 2441 691 2322 
L 691 4666 
z
" transform="scale(0.015625)"/>
       </defs>
       <use xlink:href="#DejaVuSans-30"/>
       <use xlink:href="#DejaVuSans-2e" x="63.623047"/>
       <use xlink:href="#DejaVuSans-32" x="95.410156"/>
       <use xlink:href="#DejaVuSans-35" x="159.033203"/>
      </g>
     </g>
    </g>
    <g id="xtick_3">
     <g id="line2d_5">
      <path d="M 242.181818 384.48 
L 242.181818 51.84 
" clip-path="url(#pdbe853c7c5)" style="fill: none; stroke: #b0b0b0; stroke-width: 0.8; stroke-linecap: square"/>
     </g>
     <g id="line2d_6">
      <g>
       <use xlink:href="#m84c640360f" x="242.181818" y="384.48" style="stroke: #000000; stroke-width: 0.8"/>
      </g>
     </g>
     <g id="text_3">
      <!-- 0.50 -->
      <g transform="translate(231.049006 399.078438) scale(0.1 -0.1)">
       <use xlink:href="#DejaVuSans-30"/>
       <use xlink:href="#DejaVuSans-2e" x="63.623047"/>
       <use xlink:href="#DejaVuSans-35" x="95.410156"/>
       <use xlink:href="#DejaVuSans-30" x="159.033203"/>
      </g>
     </g>
    </g>
    <g id="xtick_4">
     <g id="line2d_7">
      <path d="M 305.590909 384.48 
L 305.590909 51.84 
" clip-path="url(#pdbe853c7c5)" style="fill: none; stroke: #b0b0b0; stroke-width: 0.8; stroke-linecap: square"/>
     </g>
     <g id="line2d_8">
      <g>
       <use xlink:href="#m84c640360f" x="305.590909" y="384.48" style="stroke: #000000; stroke-width: 0.8"/>
      </g>
     </g>
     <g id="text_4">
      <!-- 0.75 -->
      <g transform="translate(294.458097 399.078438) scale(0.1 -0.1)">
       <defs>
        <path id="DejaVuSans-37" d="M 525 4666 
L 3525 4666 
L 3525 4397 
L 1831 0 
L 1172 0 
L 2766 4134 
L 525 4134 
L 525 4666 
z
" transform="scale(0.015625)"/>
       </defs>
       <use xlink:href="#DejaVuSans-30"/>
       <use xlink:href="#DejaVuSans-2e" x="63.623047"/>
       <use xlink:href="#DejaVuSans-37" x="95.410156"/>
       <use xlink:href="#DejaVuSans-35" x="159.033203"/>
      </g>
     </g>
    </g>
    <g id="xtick_5">
     <g id="line2d_9">
      <path d="M 369 384.48 
L 369 51.84 
" clip-path="url(#pdbe853c7c5)" style="fill: none; stroke: #b0b0b0; stroke-width: 0.8; stroke-linecap: square"/>
     </g>
     <g id="line2d_10">
      <g>
       <use xlink:href="#m84c640360f" x="369" y="384.48" style="stroke: #000000; stroke-width: 0.8"/>
      </g>
     </g>
     <g id="text_5">
      <!-- 1.00 -->
      <g transform="translate(357.867188 399.078438) scale(0.1 -0.1)">
       <defs>
        <path id="DejaVuSans-31" d="M 794 531 
L 1825 531 
L 1825 4091 
L 703 3866 
L 703 4441 
L 1819 4666 
L 2450 4666 
L 2450 531 
L 3481 531 
L 3481 0 
L 794 0 
L 794 531 
z
" transform="scale(0.015625)"/>
       </defs>
       <use xlink:href="#DejaVuSans-31"/>
       <use xlink:href="#DejaVuSans-2e" x="63.623047"/>
       <use xlink:href="#DejaVuSans-30" x="95.410156"/>
       <use xlink:href="#DejaVuSans-30" x="159.033203"/>
      </g>
     </g>
    </g>
    <g id="xtick_6">
     <g id="line2d_11">
      <path d="M 432.409091 384.48 
L 432.409091 51.84 
" clip-path="url(#pdbe853c7c5)" style="fill: none; stroke: #b0b0b0; stroke-width: 0.8; stroke-linecap: square"/>
     </g>
     <g id="line2d_12">
      <g>
       <use xlink:href="#m84c640360f" x="432.409091" y="384.48" style="stroke: #000000; stroke-width: 0.8"/>
      </g>
     </g>
     <g id="text_6">
      <!-- 1.25 -->
      <g transform="translate(421.276278 399.078438) scale(0.1 -0.1)">
       <use xlink:href="#DejaVuSans-31"/>
       <use xlink:href="#DejaVuSans-2e" x="63.623047"/>
       <use xlink:href="#DejaVuSans-32" x="95.410156"/>
       <use xlink:href="#DejaVuSans-35" x="159.033203"/>
      </g>
     </g>
    </g>
    <g id="xtick_7">
     <g id="line2d_13">
      <path d="M 495.818182 384.48 
L 495.818182 51.84 
" clip-path="url(#pdbe853c7c5)" style="fill: none; stroke: #b0b0b0; stroke-width: 0.8; stroke-linecap: square"/>
     </g>
     <g id="line2d_14">
      <g>
       <use xlink:href="#m84c640360f" x="495.818182" y="384.48" style="stroke: #000000; stroke-width: 0.8"/>
      </g>
     </g>
     <g id="text_7">
      <!-- 1.50 -->
      <g transform="translate(484.685369 399.078438) scale(0.1 -0.1)">
       <use xlink:href="#DejaVuSans-31"/>
       <use xlink:href="#DejaVuSans-2e" x="63.623047"/>
       <use xlink:href="#DejaVuSans-35" x="95.410156"/>
       <use xlink:href="#DejaVuSans-30" x="159.033203"/>
      </g>
     </g>
    </g>
    <g id="xtick_8">
     <g id="line2d_15">
      <path d="M 559.227273 384.48 
L 559.227273 51.84 
" clip-path="url(#pdbe853c7c5)" style="fill: none; stroke: #b0b0b0; stroke-width: 0.8; stroke-linecap: square"/>
     </g>
     <g id="line2d_16">
      <g>
       <use xlink:href="#m84c640360f" x="559.227273" y="384.48" style="stroke: #000000; stroke-width: 0.8"/>
      </g>
     </g>
     <g id="text_8">
      <!-- 1.75 -->
      <g transform="translate(548.09446 399.078438) scale(0.1 -0.1)">
       <use xlink:href="#DejaVuSans-31"/>
       <use xlink:href="#DejaVuSans-2e" x="63.623047"/>
       <use xlink:href="#DejaVuSans-37" x="95.410156"/>
       <use xlink:href="#DejaVuSans-35" x="159.033203"/>
      </g>
     </g>
    </g>
    <g id="xtick_9">
     <g id="line2d_17">
      <path d="M 622.636364 384.48 
L 622.636364 51.84 
" clip-path="url(#pdbe853c7c5)" style="fill: none; stroke: #b0b0b0; stroke-width: 0.8; stroke-linecap: square"/>
     </g>
     <g id="line2d_18">
      <g>
       <use xlink:href="#m84c640360f" x="622.636364" y="384.48" style="stroke: #000000; stroke-width: 0.8"/>
      </g>
     </g>
     <g id="text_9">
      <!-- 2.00 -->
      <g transform="translate(611.503551 399.078438) scale(0.1 -0.1)">
       <use xlink:href="#DejaVuSans-32"/>
       <use xlink:href="#DejaVuSans-2e" x="63.623047"/>
       <use xlink:href="#DejaVuSans-30" x="95.410156"/>
       <use xlink:href="#DejaVuSans-30" x="159.033203"/>
      </g>
     </g>
    </g>
    <g id="text_10">
     <!-- Time (t) -->
     <g transform="translate(349.315625 412.756563) scale(0.1 -0.1)">
      <defs>
       <path id="DejaVuSans-54" d="M -19 4666 
L 3928 4666 
L 3928 4134 
L 2272 4134 
L 2272 0 
L 1638 0 
L 1638 4134 
L -19 4134 
L -19 4666 
z
" transform="scale(0.015625)"/>
       <path id="DejaVuSans-69" d="M 603 3500 
L 1178 3500 
L 1178 0 
L 603 0 
L 603 3500 
z
M 603 4863 
L 1178 4863 
L 1178 4134 
L 603 4134 
L 603 4863 
z
" transform="scale(0.015625)"/>
       <path id="DejaVuSans-6d" d="M 3328 2828 
Q 3544 3216 3844 3400 
Q 4144 3584 4550 3584 
Q 5097 3584 5394 3201 
Q 5691 2819 5691 2113 
L 5691 0 
L 5113 0 
L 5113 2094 
Q 5113 2597 4934 2840 
Q 4756 3084 4391 3084 
Q 3944 3084 3684 2787 
Q 3425 2491 3425 1978 
L 3425 0 
L 2847 0 
L 2847 2094 
Q 2847 2600 2669 2842 
Q 2491 3084 2119 3084 
Q 1678 3084 1418 2786 
Q 1159 2488 1159 1978 
L 1159 0 
L 581 0 
L 581 3500 
L 1159 3500 
L 1159 2956 
Q 1356 3278 1631 3431 
Q 1906 3584 2284 3584 
Q 2666 3584 2933 3390 
Q 3200 3197 3328 2828 
z
" transform="scale(0.015625)"/>
       <path id="DejaVuSans-65" d="M 3597 1894 
L 3597 1613 
L 953 1613 
Q 991 1019 1311 708 
Q 1631 397 2203 397 
Q 2534 397 2845 478 
Q 3156 559 3463 722 
L 3463 178 
Q 3153 47 2828 -22 
Q 2503 -91 2169 -91 
Q 1331 -91 842 396 
Q 353 884 353 1716 
Q 353 2575 817 3079 
Q 1281 3584 2069 3584 
Q 2775 3584 3186 3129 
Q 3597 2675 3597 1894 
z
M 3022 2063 
Q 3016 2534 2758 2815 
Q 2500 3097 2075 3097 
Q 1594 3097 1305 2825 
Q 1016 2553 972 2059 
L 3022 2063 
z
" transform="scale(0.015625)"/>
       <path id="DejaVuSans-20" transform="scale(0.015625)"/>
       <path id="DejaVuSans-28" d="M 1984 4856 
Q 1566 4138 1362 3434 
Q 1159 2731 1159 2009 
Q 1159 1288 1364 580 
Q 1569 -128 1984 -844 
L 1484 -844 
Q 1016 -109 783 600 
Q 550 1309 550 2009 
Q 550 2706 781 3412 
Q 1013 4119 1484 4856 
L 1984 4856 
z
" transform="scale(0.015625)"/>
       <path id="DejaVuSans-74" d="M 1172 4494 
L 1172 3500 
L 2356 3500 
L 2356 3053 
L 1172 3053 
L 1172 1153 
Q 1172 725 1289 603 
Q 1406 481 1766 481 
L 2356 481 
L 2356 0 
L 1766 0 
Q 1100 0 847 248 
Q 594 497 594 1153 
L 594 3053 
L 172 3053 
L 172 3500 
L 594 3500 
L 594 4494 
L 1172 4494 
z
" transform="scale(0.015625)"/>
       <path id="DejaVuSans-29" d="M 513 4856 
L 1013 4856 
Q 1481 4119 1714 3412 
Q 1947 2706 1947 2009 
Q 1947 1309 1714 600 
Q 1481 -109 1013 -844 
L 513 -844 
Q 928 -128 1133 580 
Q 1338 1288 1338 2009 
Q 1338 2731 1133 3434 
Q 928 4138 513 4856 
z
" transform="scale(0.015625)"/>
      </defs>
      <use xlink:href="#DejaVuSans-54"/>
      <use xlink:href="#DejaVuSans-69" x="57.958984"/>
      <use xlink:href="#DejaVuSans-6d" x="85.742188"/>
      <use xlink:href="#DejaVuSans-65" x="183.154297"/>
      <use xlink:href="#DejaVuSans-20" x="244.677734"/>
      <use xlink:href="#DejaVuSans-28" x="276.464844"/>
      <use xlink:href="#DejaVuSans-74" x="315.478516"/>
      <use xlink:href="#DejaVuSans-29" x="354.6875"/>
     </g>
    </g>
   </g>
   <g id="matplotlib.axis_2">
    <g id="ytick_1">
     <g id="line2d_19">
      <path d="M 90 350.90801 
L 648 350.90801 
" clip-path="url(#pdbe853c7c5)" style="fill: none; stroke: #b0b0b0; stroke-width: 0.8; stroke-linecap: square"/>
     </g>
     <g id="line2d_20">
      <defs>
       <path id="m40c358c866" d="M 0 0 
L -3.5 0 
" style="stroke: #000000; stroke-width: 0.8"/>
      </defs>
      <g>
       <use xlink:href="#m40c358c866" x="90" y="350.90801" style="stroke: #000000; stroke-width: 0.8"/>
      </g>
     </g>
     <g id="text_11">
      <!-- 2.85 -->
      <g transform="translate(60.734375 354.707229) scale(0.1 -0.1)">
       <defs>
        <path id="DejaVuSans-38" d="M 2034 2216 
Q 1584 2216 1326 1975 
Q 1069 1734 1069 1313 
Q 1069 891 1326 650 
Q 1584 409 2034 409 
Q 2484 409 2743 651 
Q 3003 894 3003 1313 
Q 3003 1734 2745 1975 
Q 2488 2216 2034 2216 
z
M 1403 2484 
Q 997 2584 770 2862 
Q 544 3141 544 3541 
Q 544 4100 942 4425 
Q 1341 4750 2034 4750 
Q 2731 4750 3128 4425 
Q 3525 4100 3525 3541 
Q 3525 3141 3298 2862 
Q 3072 2584 2669 2484 
Q 3125 2378 3379 2068 
Q 3634 1759 3634 1313 
Q 3634 634 3220 271 
Q 2806 -91 2034 -91 
Q 1263 -91 848 271 
Q 434 634 434 1313 
Q 434 1759 690 2068 
Q 947 2378 1403 2484 
z
M 1172 3481 
Q 1172 3119 1398 2916 
Q 1625 2713 2034 2713 
Q 2441 2713 2670 2916 
Q 2900 3119 2900 3481 
Q 2900 3844 2670 4047 
Q 2441 4250 2034 4250 
Q 1625 4250 1398 4047 
Q 1172 3844 1172 3481 
z
" transform="scale(0.015625)"/>
       </defs>
       <use xlink:href="#DejaVuSans-32"/>
       <use xlink:href="#DejaVuSans-2e" x="63.623047"/>
       <use xlink:href="#DejaVuSans-38" x="95.410156"/>
       <use xlink:href="#DejaVuSans-35" x="159.033203"/>
      </g>
     </g>
    </g>
    <g id="ytick_2">
     <g id="line2d_21">
      <path d="M 90 312.18001 
L 648 312.18001 
" clip-path="url(#pdbe853c7c5)" style="fill: none; stroke: #b0b0b0; stroke-width: 0.8; stroke-linecap: square"/>
     </g>
     <g id="line2d_22">
      <g>
       <use xlink:href="#m40c358c866" x="90" y="312.18001" style="stroke: #000000; stroke-width: 0.8"/>
      </g>
     </g>
     <g id="text_12">
      <!-- 2.90 -->
      <g transform="translate(60.734375 315.979229) scale(0.1 -0.1)">
       <defs>
        <path id="DejaVuSans-39" d="M 703 97 
L 703 672 
Q 941 559 1184 500 
Q 1428 441 1663 441 
Q 2288 441 2617 861 
Q 2947 1281 2994 2138 
Q 2813 1869 2534 1725 
Q 2256 1581 1919 1581 
Q 1219 1581 811 2004 
Q 403 2428 403 3163 
Q 403 3881 828 4315 
Q 1253 4750 1959 4750 
Q 2769 4750 3195 4129 
Q 3622 3509 3622 2328 
Q 3622 1225 3098 567 
Q 2575 -91 1691 -91 
Q 1453 -91 1209 -44 
Q 966 3 703 97 
z
M 1959 2075 
Q 2384 2075 2632 2365 
Q 2881 2656 2881 3163 
Q 2881 3666 2632 3958 
Q 2384 4250 1959 4250 
Q 1534 4250 1286 3958 
Q 1038 3666 1038 3163 
Q 1038 2656 1286 2365 
Q 1534 2075 1959 2075 
z
" transform="scale(0.015625)"/>
       </defs>
       <use xlink:href="#DejaVuSans-32"/>
       <use xlink:href="#DejaVuSans-2e" x="63.623047"/>
       <use xlink:href="#DejaVuSans-39" x="95.410156"/>
       <use xlink:href="#DejaVuSans-30" x="159.033203"/>
      </g>
     </g>
    </g>
    <g id="ytick_3">
     <g id="line2d_23">
      <path d="M 90 273.452009 
L 648 273.452009 
" clip-path="url(#pdbe853c7c5)" style="fill: none; stroke: #b0b0b0; stroke-width: 0.8; stroke-linecap: square"/>
     </g>
     <g id="line2d_24">
      <g>
       <use xlink:href="#m40c358c866" x="90" y="273.452009" style="stroke: #000000; stroke-width: 0.8"/>
      </g>
     </g>
     <g id="text_13">
      <!-- 2.95 -->
      <g transform="translate(60.734375 277.251228) scale(0.1 -0.1)">
       <use xlink:href="#DejaVuSans-32"/>
       <use xlink:href="#DejaVuSans-2e" x="63.623047"/>
       <use xlink:href="#DejaVuSans-39" x="95.410156"/>
       <use xlink:href="#DejaVuSans-35" x="159.033203"/>
      </g>
     </g>
    </g>
    <g id="ytick_4">
     <g id="line2d_25">
      <path d="M 90 234.724009 
L 648 234.724009 
" clip-path="url(#pdbe853c7c5)" style="fill: none; stroke: #b0b0b0; stroke-width: 0.8; stroke-linecap: square"/>
     </g>
     <g id="line2d_26">
      <g>
       <use xlink:href="#m40c358c866" x="90" y="234.724009" style="stroke: #000000; stroke-width: 0.8"/>
      </g>
     </g>
     <g id="text_14">
      <!-- 3.00 -->
      <g transform="translate(60.734375 238.523227) scale(0.1 -0.1)">
       <defs>
        <path id="DejaVuSans-33" d="M 2597 2516 
Q 3050 2419 3304 2112 
Q 3559 1806 3559 1356 
Q 3559 666 3084 287 
Q 2609 -91 1734 -91 
Q 1441 -91 1130 -33 
Q 819 25 488 141 
L 488 750 
Q 750 597 1062 519 
Q 1375 441 1716 441 
Q 2309 441 2620 675 
Q 2931 909 2931 1356 
Q 2931 1769 2642 2001 
Q 2353 2234 1838 2234 
L 1294 2234 
L 1294 2753 
L 1863 2753 
Q 2328 2753 2575 2939 
Q 2822 3125 2822 3475 
Q 2822 3834 2567 4026 
Q 2313 4219 1838 4219 
Q 1578 4219 1281 4162 
Q 984 4106 628 3988 
L 628 4550 
Q 988 4650 1302 4700 
Q 1616 4750 1894 4750 
Q 2613 4750 3031 4423 
Q 3450 4097 3450 3541 
Q 3450 3153 3228 2886 
Q 3006 2619 2597 2516 
z
" transform="scale(0.015625)"/>
       </defs>
       <use xlink:href="#DejaVuSans-33"/>
       <use xlink:href="#DejaVuSans-2e" x="63.623047"/>
       <use xlink:href="#DejaVuSans-30" x="95.410156"/>
       <use xlink:href="#DejaVuSans-30" x="159.033203"/>
      </g>
     </g>
    </g>
    <g id="ytick_5">
     <g id="line2d_27">
      <path d="M 90 195.996008 
L 648 195.996008 
" clip-path="url(#pdbe853c7c5)" style="fill: none; stroke: #b0b0b0; stroke-width: 0.8; stroke-linecap: square"/>
     </g>
     <g id="line2d_28">
      <g>
       <use xlink:href="#m40c358c866" x="90" y="195.996008" style="stroke: #000000; stroke-width: 0.8"/>
      </g>
     </g>
     <g id="text_15">
      <!-- 3.05 -->
      <g transform="translate(60.734375 199.795227) scale(0.1 -0.1)">
       <use xlink:href="#DejaVuSans-33"/>
       <use xlink:href="#DejaVuSans-2e" x="63.623047"/>
       <use xlink:href="#DejaVuSans-30" x="95.410156"/>
       <use xlink:href="#DejaVuSans-35" x="159.033203"/>
      </g>
     </g>
    </g>
    <g id="ytick_6">
     <g id="line2d_29">
      <path d="M 90 157.268007 
L 648 157.268007 
" clip-path="url(#pdbe853c7c5)" style="fill: none; stroke: #b0b0b0; stroke-width: 0.8; stroke-linecap: square"/>
     </g>
     <g id="line2d_30">
      <g>
       <use xlink:href="#m40c358c866" x="90" y="157.268007" style="stroke: #000000; stroke-width: 0.8"/>
      </g>
     </g>
     <g id="text_16">
      <!-- 3.10 -->
      <g transform="translate(60.734375 161.067226) scale(0.1 -0.1)">
       <use xlink:href="#DejaVuSans-33"/>
       <use xlink:href="#DejaVuSans-2e" x="63.623047"/>
       <use xlink:href="#DejaVuSans-31" x="95.410156"/>
       <use xlink:href="#DejaVuSans-30" x="159.033203"/>
      </g>
     </g>
    </g>
    <g id="ytick_7">
     <g id="line2d_31">
      <path d="M 90 118.540007 
L 648 118.540007 
" clip-path="url(#pdbe853c7c5)" style="fill: none; stroke: #b0b0b0; stroke-width: 0.8; stroke-linecap: square"/>
     </g>
     <g id="line2d_32">
      <g>
       <use xlink:href="#m40c358c866" x="90" y="118.540007" style="stroke: #000000; stroke-width: 0.8"/>
      </g>
     </g>
     <g id="text_17">
      <!-- 3.15 -->
      <g transform="translate(60.734375 122.339225) scale(0.1 -0.1)">
       <use xlink:href="#DejaVuSans-33"/>
       <use xlink:href="#DejaVuSans-2e" x="63.623047"/>
       <use xlink:href="#DejaVuSans-31" x="95.410156"/>
       <use xlink:href="#DejaVuSans-35" x="159.033203"/>
      </g>
     </g>
    </g>
    <g id="ytick_8">
     <g id="line2d_33">
      <path d="M 90 79.812006 
L 648 79.812006 
" clip-path="url(#pdbe853c7c5)" style="fill: none; stroke: #b0b0b0; stroke-width: 0.8; stroke-linecap: square"/>
     </g>
     <g id="line2d_34">
      <g>
       <use xlink:href="#m40c358c866" x="90" y="79.812006" style="stroke: #000000; stroke-width: 0.8"/>
      </g>
     </g>
     <g id="text_18">
      <!-- 3.20 -->
      <g transform="translate(60.734375 83.611225) scale(0.1 -0.1)">
       <use xlink:href="#DejaVuSans-33"/>
       <use xlink:href="#DejaVuSans-2e" x="63.623047"/>
       <use xlink:href="#DejaVuSans-32" x="95.410156"/>
       <use xlink:href="#DejaVuSans-30" x="159.033203"/>
      </g>
     </g>
    </g>
    <g id="text_19">
     <!-- $\theta(t)$ -->
     <g transform="translate(54.654688 227.11) rotate(-90) scale(0.1 -0.1)">
      <defs>
       <path id="DejaVuSans-Oblique-3b8" d="M 2913 2219 
L 925 2219 
Q 791 1284 928 888 
Q 1100 400 1566 400 
Q 2034 400 2391 891 
Q 2703 1322 2913 2219 
z
M 3009 2750 
Q 3094 3638 2984 3950 
Q 2813 4444 2353 4444 
Q 1875 4444 1525 3956 
Q 1250 3563 1034 2750 
L 3009 2750 
z
M 2444 4913 
Q 3194 4913 3494 4250 
Q 3794 3591 3566 2422 
Q 3341 1256 2781 594 
Q 2225 -72 1475 -72 
Q 722 -72 425 594 
Q 128 1256 353 2422 
Q 581 3591 1134 4250 
Q 1691 4913 2444 4913 
z
" transform="scale(0.015625)"/>
       <path id="DejaVuSans-Oblique-74" d="M 2706 3500 
L 2619 3053 
L 1472 3053 
L 1100 1153 
Q 1081 1047 1072 975 
Q 1063 903 1063 863 
Q 1063 663 1183 572 
Q 1303 481 1569 481 
L 2150 481 
L 2053 0 
L 1503 0 
Q 991 0 739 200 
Q 488 400 488 806 
Q 488 878 497 964 
Q 506 1050 525 1153 
L 897 3053 
L 409 3053 
L 500 3500 
L 978 3500 
L 1172 4494 
L 1747 4494 
L 1556 3500 
L 2706 3500 
z
" transform="scale(0.015625)"/>
      </defs>
      <use xlink:href="#DejaVuSans-Oblique-3b8" transform="translate(0 0.234375)"/>
      <use xlink:href="#DejaVuSans-28" transform="translate(61.181641 0.234375)"/>
      <use xlink:href="#DejaVuSans-Oblique-74" transform="translate(100.195312 0.234375)"/>
      <use xlink:href="#DejaVuSans-29" transform="translate(139.404297 0.234375)"/>
     </g>
    </g>
   </g>
   <g id="line2d_35">
    <path d="M 115.363636 66.96 
L 116.379197 67.034939 
L 117.902539 67.428054 
L 119.42588 68.156977 
L 120.949222 69.219003 
L 122.472563 70.610069 
L 123.995905 72.325066 
L 125.519247 74.357838 
L 127.042588 76.701183 
L 129.07371 80.294349 
L 131.104832 84.402411 
L 133.135954 88.999613 
L 135.674857 95.389377 
L 138.213759 102.433732 
L 140.752662 110.073269 
L 143.799345 119.930856 
L 147.353808 132.164132 
L 152.431613 150.501647 
L 163.095004 189.279899 
L 167.157248 203.110061 
L 170.711712 214.380011 
L 173.758395 223.258353 
L 176.297297 230.01102 
L 178.8362 236.102911 
L 180.867322 240.45601 
L 182.898444 244.310911 
L 184.929566 247.635832 
L 186.452907 249.763184 
L 187.976249 251.562505 
L 189.49959 253.025964 
L 191.022932 254.157482 
L 192.546274 254.95666 
L 194.069615 255.423602 
L 195.592957 255.559251 
L 197.116298 255.365386 
L 198.63964 254.844622 
L 200.162981 254.000412 
L 201.686323 252.837046 
L 203.209664 251.359651 
L 204.733006 249.574189 
L 206.256347 247.48746 
L 208.287469 244.249839 
L 210.318591 240.510724 
L 212.349713 236.293177 
L 214.380835 231.622904 
L 216.919738 225.191862 
L 219.45864 218.159117 
L 222.505324 209.02127 
L 226.059787 197.561951 
L 230.629812 181.920265 
L 244.339885 134.220694 
L 247.894349 122.94436 
L 250.941032 114.008582 
L 253.479934 107.179765 
L 256.018837 100.987081 
L 258.049959 96.53317 
L 260.081081 92.555201 
L 262.112203 89.078955 
L 264.143325 86.127288 
L 265.666667 84.269897 
L 267.190008 82.726191 
L 268.71335 81.502578 
L 270.236691 80.604543 
L 271.760033 80.036648 
L 273.283374 79.802529 
L 274.298935 79.833259 
L 275.314496 80.014134 
L 276.837838 80.56778 
L 278.361179 81.460652 
L 279.884521 82.692382 
L 281.407862 84.261679 
L 282.931204 86.16633 
L 284.454545 88.402563 
L 286.485667 91.882874 
L 288.51679 95.907034 
L 290.547912 100.445373 
L 292.579034 105.466892 
L 295.117936 112.373899 
L 297.656839 119.91923 
L 300.703522 129.718439 
L 304.257985 142.017987 
L 308.320229 156.958103 
L 313.905815 178.441341 
L 323.045864 213.635439 
L 327.108108 228.298064 
L 330.154791 238.553463 
L 333.201474 248.049202 
L 335.740377 255.290716 
L 338.279279 261.852327 
L 340.310401 266.573909 
L 342.341523 270.799002 
L 344.372645 274.505872 
L 346.403767 277.676146 
L 347.927109 279.692554 
L 349.45045 281.393521 
L 350.973792 282.775021 
L 352.497133 283.834087 
L 354.020475 284.568819 
L 355.543817 284.978379 
L 357.067158 285.062993 
L 358.5905 284.823952 
L 360.113841 284.263609 
L 361.637183 283.385381 
L 363.160524 282.193748 
L 364.683866 280.694255 
L 366.207207 278.893511 
L 367.730549 276.799185 
L 369.761671 273.565323 
L 371.792793 269.848838 
L 373.823915 265.67627 
L 376.362817 259.854207 
L 378.90172 253.431682 
L 381.948403 245.055763 
L 385.502867 234.552789 
L 390.072891 220.26026 
L 403.275184 178.393226 
L 406.829648 168.084329 
L 409.876331 159.918435 
L 412.415233 153.697667 
L 414.954136 148.097687 
L 416.985258 144.12102 
L 419.01638 140.638113 
L 421.047502 137.679453 
L 422.570844 135.813821 
L 424.094185 134.259589 
L 425.617527 133.023349 
L 427.140868 132.110692 
L 428.66421 131.526219 
L 430.187551 131.273533 
L 431.203112 131.290731 
L 432.218673 131.457096 
L 433.742015 131.987001 
L 435.265356 132.853517 
L 436.788698 134.055934 
L 438.312039 135.592547 
L 439.835381 137.460656 
L 441.358722 139.656566 
L 442.882064 142.175587 
L 444.913186 146.026927 
L 446.944308 150.426234 
L 448.97543 155.354131 
L 451.006552 160.788099 
L 453.545455 168.252819 
L 456.084357 176.410898 
L 459.13104 187.02416 
L 462.685504 200.380346 
L 466.747748 216.647045 
L 472.333333 240.08134 
L 482.488943 282.892938 
L 486.551188 298.986916 
L 490.105651 312.178374 
L 493.152334 322.668942 
L 496.199017 332.291586 
L 498.73792 339.578346 
L 501.276822 346.147497 
L 503.307944 350.857399 
L 505.339066 355.061775 
L 507.370188 358.744135 
L 509.40131 361.890458 
L 510.924652 363.891388 
L 512.447993 365.580292 
L 513.971335 366.953992 
L 515.494676 368.010094 
L 517.018018 368.746983 
L 518.54136 369.163829 
L 520.064701 369.260581 
L 521.588043 369.037838 
L 523.111384 368.498604 
L 524.634726 367.654078 
L 526.158067 366.516971 
L 527.681409 365.100265 
L 529.20475 363.417219 
L 531.235872 360.782277 
L 533.266994 357.73076 
L 535.298116 354.296365 
L 537.837019 349.517684 
L 540.375921 344.264231 
L 543.422604 337.434238 
L 546.977068 328.902614 
L 552.054873 316.063767 
L 560.687142 294.170986 
L 564.241605 285.783603 
L 567.288288 279.165833 
L 569.827191 274.17736 
L 571.858313 270.600084 
L 573.889435 267.444628 
L 575.920557 264.759505 
L 577.443898 263.063214 
L 578.96724 261.647476 
L 580.490581 260.522789 
L 582.013923 259.698587 
L 583.537265 259.183241 
L 585.060606 258.984064 
L 586.583948 259.107304 
L 588.107289 259.55815 
L 589.630631 260.340727 
L 591.153972 261.4581 
L 592.677314 262.912273 
L 594.200655 264.704185 
L 595.723997 266.833719 
L 597.247338 269.29969 
L 599.27846 273.10697 
L 601.309582 277.499999 
L 603.340704 282.467167 
L 605.371826 287.993511 
L 607.910729 295.659553 
L 610.449631 304.127286 
L 612.988534 313.345366 
L 616.035217 325.313117 
L 619.0819 338.156757 
L 622.636364 354.066407 
L 622.636364 354.066407 
" clip-path="url(#pdbe853c7c5)" style="fill: none; stroke: #1f77b4; stroke-width: 1.5; stroke-linecap: square"/>
   </g>
   <g id="line2d_36">
    <path d="M 115.363636 66.96 
L 116.379197 67.035152 
L 117.902539 67.429377 
L 119.42588 68.16036 
L 120.949222 69.225352 
L 122.472563 70.620233 
L 123.995905 72.339834 
L 125.519247 74.377938 
L 127.042588 76.727277 
L 129.07371 80.329349 
L 131.104832 84.447211 
L 133.135954 89.054932 
L 135.674857 95.458578 
L 138.213759 102.517284 
L 140.752662 110.178394 
L 143.799345 120.078522 
L 147.353808 132.369138 
L 152.431613 150.774303 
L 162.587224 187.759341 
L 166.649468 201.63101 
L 170.203931 212.949648 
L 173.250614 221.88662 
L 175.789517 228.706598 
L 178.328419 234.889204 
L 180.359541 239.336639 
L 182.390663 243.30982 
L 184.421785 246.781691 
L 186.452907 249.726668 
L 187.976249 251.575066 
L 189.49959 253.103866 
L 191.022932 254.303905 
L 192.546274 255.166488 
L 194.069615 255.683385 
L 195.085176 255.832083 
L 196.100737 255.821498 
L 197.116298 255.649366 
L 198.131859 255.313458 
L 199.655201 254.508424 
L 201.178542 253.352553 
L 202.701884 251.857958 
L 204.225225 250.036992 
L 205.748567 247.902245 
L 207.779689 244.590029 
L 209.810811 240.773904 
L 211.841933 236.485708 
L 214.380835 230.511346 
L 216.919738 223.915695 
L 219.966421 215.275536 
L 223.013104 205.957174 
L 226.567568 194.393489 
L 231.137592 178.74355 
L 245.863227 127.542182 
L 249.41769 116.271216 
L 252.464373 107.333189 
L 255.003276 100.516905 
L 257.542179 94.376415 
L 259.573301 90.015585 
L 261.604423 86.199597 
L 263.127764 83.725004 
L 264.651106 81.59098 
L 266.174447 79.79756 
L 267.697789 78.345183 
L 269.22113 77.233644 
L 270.744472 76.462095 
L 272.267813 76.029047 
L 273.791155 75.932368 
L 275.314496 76.169285 
L 276.837838 76.73638 
L 278.361179 77.629596 
L 279.884521 78.84423 
L 281.407862 80.374939 
L 282.931204 82.215739 
L 284.454545 84.36 
L 286.485667 87.678407 
L 288.51679 91.504293 
L 290.547912 95.816616 
L 292.579034 100.592308 
L 295.117936 107.175103 
L 297.656839 114.389058 
L 300.703522 123.796302 
L 303.750205 133.917596 
L 307.304668 146.466674 
L 311.874693 163.44826 
L 325.584767 215.141419 
L 329.13923 227.340778 
L 332.185913 236.93025 
L 334.724816 244.193783 
L 337.263718 250.75894 
L 339.29484 255.473778 
L 341.325962 259.686232 
L 343.357084 263.376587 
L 345.388206 266.528118 
L 346.911548 268.529788 
L 348.434889 270.215888 
L 349.958231 271.582675 
L 351.481572 272.627345 
L 353.004914 273.348046 
L 354.528256 273.743866 
L 356.051597 273.814843 
L 357.574939 273.561958 
L 359.09828 272.987139 
L 360.621622 272.093258 
L 362.144963 270.884136 
L 363.668305 269.364535 
L 365.191646 267.540166 
L 366.714988 265.417684 
L 368.74611 262.137252 
L 370.777232 258.361098 
L 372.808354 254.112842 
L 375.347256 248.179452 
L 377.886159 241.608741 
L 380.425061 234.466544 
L 383.471744 225.245031 
L 387.026208 213.768022 
L 392.104013 196.510064 
L 401.244062 165.291384 
L 405.306306 152.289844 
L 408.352989 143.224758 
L 411.399672 134.907485 
L 413.938575 128.63959 
L 416.477477 123.044329 
L 418.5086 119.09127 
L 420.539722 115.63152 
L 422.570844 112.687891 
L 424.094185 110.830846 
L 425.617527 109.282437 
L 427.140868 108.048852 
L 428.66421 107.135294 
L 430.187551 106.545985 
L 431.710893 106.284166 
L 433.234234 106.352095 
L 434.757576 106.751047 
L 436.280917 107.481315 
L 437.804259 108.542213 
L 439.3276 109.932067 
L 440.850942 111.648227 
L 442.374283 113.687057 
L 443.897625 116.043939 
L 445.928747 119.671378 
L 447.959869 123.838188 
L 449.990991 128.525277 
L 452.022113 133.710448 
L 454.561016 140.853501 
L 457.099918 148.678811 
L 460.146601 158.88709 
L 463.701065 171.74545 
L 467.763309 187.326075 
L 475.380016 217.670353 
L 481.473382 241.585496 
L 485.535627 256.713499 
L 489.09009 269.124656 
L 492.136773 278.995864 
L 494.675676 286.595273 
L 497.214578 293.560646 
L 499.753481 299.835844 
L 501.784603 304.323924 
L 503.815725 308.312045 
L 505.846847 311.777039 
L 507.370188 314.019476 
L 508.89353 315.947051 
L 510.416871 317.551816 
L 511.940213 318.826352 
L 513.463554 319.763758 
L 514.986896 320.357658 
L 516.002457 320.559842 
L 517.018018 320.605138 
L 518.033579 320.492045 
L 519.04914 320.218953 
L 520.572482 319.510717 
L 522.095823 318.456589 
L 523.619165 317.071204 
L 525.142506 315.36932 
L 526.665848 313.365812 
L 528.69697 310.251219 
L 530.728092 306.662972 
L 532.759214 302.637338 
L 535.298116 297.04609 
L 537.837019 290.901139 
L 540.883702 282.899651 
L 544.438165 272.861974 
L 549.00819 259.164446 
L 564.241605 212.679657 
L 567.796069 202.93098 
L 570.842752 195.276953 
L 573.381654 189.506156 
L 575.412776 185.349336 
L 577.443898 181.649604 
L 579.47502 178.45201 
L 580.998362 176.410656 
L 582.521704 174.696608 
L 584.045045 173.329293 
L 585.568387 172.314332 
L 587.091728 171.629866 
L 588.61507 171.279078 
L 589.630631 171.232389 
L 590.646192 171.336386 
L 591.661753 171.591647 
L 593.185094 172.258913 
L 594.708436 173.267674 
L 596.231777 174.617237 
L 597.755119 176.305849 
L 599.27846 178.3307 
L 600.801802 180.687919 
L 602.832924 184.339225 
L 604.864046 188.557911 
L 606.895168 193.32602 
L 608.92629 198.622244 
L 611.465192 205.947314 
L 614.004095 214.003298 
L 617.050778 224.545058 
L 620.097461 235.921651 
L 622.636364 245.937565 
L 622.636364 245.937565 
" clip-path="url(#pdbe853c7c5)" style="fill: none; stroke: #ff7f0e; stroke-width: 1.5; stroke-linecap: square"/>
   </g>
   <g id="line2d_37">
    <path d="M 115.363636 66.96 
L 116.379197 67.034939 
L 117.902539 67.428053 
L 119.42588 68.156976 
L 120.949222 69.219 
L 122.472563 70.610064 
L 123.995905 72.325059 
L 125.519247 74.357829 
L 127.042588 76.701171 
L 129.07371 80.294333 
L 131.104832 84.402391 
L 133.135954 88.99959 
L 135.674857 95.389348 
L 138.213759 102.433698 
L 140.752662 110.073218 
L 143.799345 119.930755 
L 147.353808 132.16396 
L 152.431613 150.501406 
L 163.095004 189.279814 
L 167.157248 203.110142 
L 170.711712 214.380259 
L 173.758395 223.258736 
L 176.297297 230.011493 
L 178.8362 236.103435 
L 180.867322 240.456536 
L 182.898444 244.311392 
L 184.929566 247.636209 
L 186.452907 249.763437 
L 187.976249 251.562588 
L 189.49959 253.025972 
L 191.022932 254.157512 
L 192.546274 254.956768 
L 194.069615 255.423836 
L 195.592957 255.559648 
L 197.116298 255.365975 
L 198.63964 254.845427 
L 200.162981 254.001448 
L 201.686323 252.838322 
L 203.209664 251.36117 
L 204.733006 249.575951 
L 206.256347 247.489461 
L 208.287469 244.252146 
L 210.318591 240.513317 
L 212.349713 236.296032 
L 214.380835 231.625998 
L 216.919738 225.195223 
L 219.45864 218.162716 
L 222.505324 209.025136 
L 226.059787 197.566143 
L 230.629812 181.925012 
L 244.339885 134.228131 
L 247.894349 122.952563 
L 250.941032 114.017401 
L 253.479934 107.189016 
L 256.018837 100.996664 
L 258.049959 96.542939 
L 260.081081 92.565088 
L 262.112203 89.088897 
L 264.143325 86.137237 
L 265.666667 84.279831 
L 267.190008 82.736102 
L 268.71335 81.512472 
L 270.236691 80.61444 
L 271.760033 80.046582 
L 273.283374 79.812553 
L 274.298935 79.843381 
L 275.314496 80.024392 
L 276.837838 80.578327 
L 278.361179 81.471612 
L 279.884521 82.703905 
L 281.407862 84.273941 
L 282.931204 86.179548 
L 284.454545 88.416606 
L 286.485667 91.897246 
L 288.51679 95.921083 
L 290.547912 100.45867 
L 292.579034 105.479206 
L 295.117936 112.384906 
L 297.656839 119.929088 
L 300.703522 129.72739 
L 304.257985 142.026766 
L 308.320229 156.967909 
L 313.905815 178.453998 
L 323.045864 213.649909 
L 327.108108 228.308018 
L 330.662572 240.201625 
L 333.709255 249.558014 
L 336.248157 256.668252 
L 338.78706 263.086648 
L 340.818182 267.686204 
L 342.849304 271.783582 
L 344.880426 275.357906 
L 346.911548 278.391652 
L 348.434889 280.30356 
L 349.958231 281.898617 
L 351.481572 283.173146 
L 353.004914 284.124533 
L 354.528256 284.751224 
L 356.051597 285.052727 
L 357.574939 285.029612 
L 359.09828 284.68351 
L 360.621622 284.017114 
L 362.144963 283.034177 
L 363.668305 281.739517 
L 365.191646 280.13901 
L 366.714988 278.239595 
L 368.238329 276.049274 
L 370.269451 272.692141 
L 372.300573 268.85849 
L 374.331695 264.571935 
L 376.870598 258.620793 
L 379.4095 252.090665 
L 382.456183 243.611733 
L 386.010647 233.021713 
L 390.580672 218.665546 
L 402.767404 179.945846 
L 406.321867 169.527987 
L 409.36855 161.2435 
L 411.907453 154.907882 
L 414.446355 149.180191 
L 416.477477 145.093334 
L 418.5086 141.493902 
L 420.539722 138.408161 
L 422.063063 136.441682 
L 423.586405 134.782622 
L 425.109746 133.438231 
L 426.633088 132.414738 
L 428.156429 131.717353 
L 429.679771 131.350266 
L 431.203112 131.316647 
L 432.218673 131.480598 
L 433.742015 132.007034 
L 435.265356 132.870405 
L 436.788698 134.070143 
L 438.312039 135.60466 
L 439.835381 137.471345 
L 441.358722 139.66657 
L 442.882064 142.185688 
L 444.913186 146.0384 
L 446.944308 150.440471 
L 448.97543 155.372421 
L 451.006552 160.811548 
L 453.545455 168.283873 
L 456.084357 176.450202 
L 459.13104 187.072983 
L 462.685504 200.437367 
L 466.747748 216.705104 
L 472.333333 240.147051 
L 481.981163 280.867065 
L 486.043407 297.064299 
L 489.597871 310.383525 
L 492.644554 321.010546 
L 495.691237 330.79278 
L 498.230139 338.228406 
L 500.769042 344.95883 
L 502.800164 349.805131 
L 504.831286 354.15098 
L 506.862408 357.978334 
L 508.89353 361.271453 
L 510.416871 363.382529 
L 511.940213 365.180673 
L 513.463554 366.661794 
L 514.986896 367.82253 
L 516.510238 368.660246 
L 518.033579 369.173039 
L 519.556921 369.36 
L 521.080262 369.22615 
L 522.603604 368.781564 
L 524.126945 368.036851 
L 525.650287 367.003004 
L 527.173628 365.691403 
L 528.69697 364.113815 
L 530.728092 361.617662 
L 532.759214 358.700159 
L 534.790336 355.392397 
L 537.329238 350.758231 
L 539.868141 345.630645 
L 542.914824 338.923254 
L 546.469287 330.491704 
L 551.039312 319.01431 
L 561.194922 293.24382 
L 564.749386 284.945248 
L 567.288288 279.490112 
L 569.827191 274.542696 
L 571.858313 271.020034 
L 573.889435 267.922296 
L 575.920557 265.270192 
L 577.443898 263.591904 
L 578.96724 262.192939 
L 580.490581 261.083793 
L 582.013923 260.27391 
L 583.537265 259.771683 
L 585.060606 259.584452 
L 586.583948 259.718504 
L 588.107289 260.179075 
L 589.630631 260.970347 
L 591.153972 262.095451 
L 592.677314 263.556464 
L 594.200655 265.354414 
L 595.723997 267.489272 
L 597.247338 269.959961 
L 599.27846 273.77278 
L 601.309582 278.170759 
L 603.340704 283.142608 
L 605.371826 288.673715 
L 607.910729 296.346407 
L 610.449631 304.822317 
L 612.988534 314.050979 
L 616.035217 326.035942 
L 619.0819 338.9034 
L 622.636364 354.851759 
L 622.636364 354.851759 
" clip-path="url(#pdbe853c7c5)" style="fill: none; stroke: #2ca02c; stroke-width: 1.5; stroke-linecap: square"/>
   </g>
   <g id="patch_3">
    <path d="M 90 384.48 
L 90 51.84 
" style="fill: none; stroke: #000000; stroke-width: 0.8; stroke-linejoin: miter; stroke-linecap: square"/>
   </g>
   <g id="patch_4">
    <path d="M 648 384.48 
L 648 51.84 
" style="fill: none; stroke: #000000; stroke-width: 0.8; stroke-linejoin: miter; stroke-linecap: square"/>
   </g>
   <g id="patch_5">
    <path d="M 90 384.48 
L 648 384.48 
" style="fill: none; stroke: #000000; stroke-width: 0.8; stroke-linejoin: miter; stroke-linecap: square"/>
   </g>
   <g id="patch_6">
    <path d="M 90 51.84 
L 648 51.84 
" style="fill: none; stroke: #000000; stroke-width: 0.8; stroke-linejoin: miter; stroke-linecap: square"/>
   </g>
   <g id="text_20">
    <!-- Simulation: A=1.0, $\omega$=10.0, l=8.2, $\theta_0$=3.2165926535897933 -->
    <g transform="translate(186.06 45.84) scale(0.12 -0.12)">
     <defs>
      <path id="DejaVuSans-53" d="M 3425 4513 
L 3425 3897 
Q 3066 4069 2747 4153 
Q 2428 4238 2131 4238 
Q 1616 4238 1336 4038 
Q 1056 3838 1056 3469 
Q 1056 3159 1242 3001 
Q 1428 2844 1947 2747 
L 2328 2669 
Q 3034 2534 3370 2195 
Q 3706 1856 3706 1288 
Q 3706 609 3251 259 
Q 2797 -91 1919 -91 
Q 1588 -91 1214 -16 
Q 841 59 441 206 
L 441 856 
Q 825 641 1194 531 
Q 1563 422 1919 422 
Q 2459 422 2753 634 
Q 3047 847 3047 1241 
Q 3047 1584 2836 1778 
Q 2625 1972 2144 2069 
L 1759 2144 
Q 1053 2284 737 2584 
Q 422 2884 422 3419 
Q 422 4038 858 4394 
Q 1294 4750 2059 4750 
Q 2388 4750 2728 4690 
Q 3069 4631 3425 4513 
z
" transform="scale(0.015625)"/>
      <path id="DejaVuSans-75" d="M 544 1381 
L 544 3500 
L 1119 3500 
L 1119 1403 
Q 1119 906 1312 657 
Q 1506 409 1894 409 
Q 2359 409 2629 706 
Q 2900 1003 2900 1516 
L 2900 3500 
L 3475 3500 
L 3475 0 
L 2900 0 
L 2900 538 
Q 2691 219 2414 64 
Q 2138 -91 1772 -91 
Q 1169 -91 856 284 
Q 544 659 544 1381 
z
M 1991 3584 
L 1991 3584 
z
" transform="scale(0.015625)"/>
      <path id="DejaVuSans-6c" d="M 603 4863 
L 1178 4863 
L 1178 0 
L 603 0 
L 603 4863 
z
" transform="scale(0.015625)"/>
      <path id="DejaVuSans-61" d="M 2194 1759 
Q 1497 1759 1228 1600 
Q 959 1441 959 1056 
Q 959 750 1161 570 
Q 1363 391 1709 391 
Q 2188 391 2477 730 
Q 2766 1069 2766 1631 
L 2766 1759 
L 2194 1759 
z
M 3341 1997 
L 3341 0 
L 2766 0 
L 2766 531 
Q 2569 213 2275 61 
Q 1981 -91 1556 -91 
Q 1019 -91 701 211 
Q 384 513 384 1019 
Q 384 1609 779 1909 
Q 1175 2209 1959 2209 
L 2766 2209 
L 2766 2266 
Q 2766 2663 2505 2880 
Q 2244 3097 1772 3097 
Q 1472 3097 1187 3025 
Q 903 2953 641 2809 
L 641 3341 
Q 956 3463 1253 3523 
Q 1550 3584 1831 3584 
Q 2591 3584 2966 3190 
Q 3341 2797 3341 1997 
z
" transform="scale(0.015625)"/>
      <path id="DejaVuSans-6f" d="M 1959 3097 
Q 1497 3097 1228 2736 
Q 959 2375 959 1747 
Q 959 1119 1226 758 
Q 1494 397 1959 397 
Q 2419 397 2687 759 
Q 2956 1122 2956 1747 
Q 2956 2369 2687 2733 
Q 2419 3097 1959 3097 
z
M 1959 3584 
Q 2709 3584 3137 3096 
Q 3566 2609 3566 1747 
Q 3566 888 3137 398 
Q 2709 -91 1959 -91 
Q 1206 -91 779 398 
Q 353 888 353 1747 
Q 353 2609 779 3096 
Q 1206 3584 1959 3584 
z
" transform="scale(0.015625)"/>
      <path id="DejaVuSans-6e" d="M 3513 2113 
L 3513 0 
L 2938 0 
L 2938 2094 
Q 2938 2591 2744 2837 
Q 2550 3084 2163 3084 
Q 1697 3084 1428 2787 
Q 1159 2491 1159 1978 
L 1159 0 
L 581 0 
L 581 3500 
L 1159 3500 
L 1159 2956 
Q 1366 3272 1645 3428 
Q 1925 3584 2291 3584 
Q 2894 3584 3203 3211 
Q 3513 2838 3513 2113 
z
" transform="scale(0.015625)"/>
      <path id="DejaVuSans-3a" d="M 750 794 
L 1409 794 
L 1409 0 
L 750 0 
L 750 794 
z
M 750 3309 
L 1409 3309 
L 1409 2516 
L 750 2516 
L 750 3309 
z
" transform="scale(0.015625)"/>
      <path id="DejaVuSans-41" d="M 2188 4044 
L 1331 1722 
L 3047 1722 
L 2188 4044 
z
M 1831 4666 
L 2547 4666 
L 4325 0 
L 3669 0 
L 3244 1197 
L 1141 1197 
L 716 0 
L 50 0 
L 1831 4666 
z
" transform="scale(0.015625)"/>
      <path id="DejaVuSans-3d" d="M 678 2906 
L 4684 2906 
L 4684 2381 
L 678 2381 
L 678 2906 
z
M 678 1631 
L 4684 1631 
L 4684 1100 
L 678 1100 
L 678 1631 
z
" transform="scale(0.015625)"/>
      <path id="DejaVuSans-2c" d="M 750 794 
L 1409 794 
L 1409 256 
L 897 -744 
L 494 -744 
L 750 256 
L 750 794 
z
" transform="scale(0.015625)"/>
      <path id="DejaVuSans-Oblique-3c9" d="M 1369 -91 
Q 72 -91 434 1766 
Q 575 2500 1256 3500 
L 1875 3500 
Q 1231 2500 1088 1750 
Q 819 397 1519 397 
Q 2166 397 2478 2078 
L 3009 2078 
Q 2669 388 3316 397 
Q 4013 403 4275 1750 
Q 4419 2500 4169 3500 
L 4788 3500 
Q 5075 2500 4934 1766 
Q 4578 -94 3278 -91 
Q 2428 -88 2503 844 
Q 2194 -91 1369 -91 
z
" transform="scale(0.015625)"/>
      <path id="DejaVuSans-36" d="M 2113 2584 
Q 1688 2584 1439 2293 
Q 1191 2003 1191 1497 
Q 1191 994 1439 701 
Q 1688 409 2113 409 
Q 2538 409 2786 701 
Q 3034 994 3034 1497 
Q 3034 2003 2786 2293 
Q 2538 2584 2113 2584 
z
M 3366 4563 
L 3366 3988 
Q 3128 4100 2886 4159 
Q 2644 4219 2406 4219 
Q 1781 4219 1451 3797 
Q 1122 3375 1075 2522 
Q 1259 2794 1537 2939 
Q 1816 3084 2150 3084 
Q 2853 3084 3261 2657 
Q 3669 2231 3669 1497 
Q 3669 778 3244 343 
Q 2819 -91 2113 -91 
Q 1303 -91 875 529 
Q 447 1150 447 2328 
Q 447 3434 972 4092 
Q 1497 4750 2381 4750 
Q 2619 4750 2861 4703 
Q 3103 4656 3366 4563 
z
" transform="scale(0.015625)"/>
     </defs>
     <use xlink:href="#DejaVuSans-53" transform="translate(0 0.234375)"/>
     <use xlink:href="#DejaVuSans-69" transform="translate(63.476562 0.234375)"/>
     <use xlink:href="#DejaVuSans-6d" transform="translate(91.259766 0.234375)"/>
     <use xlink:href="#DejaVuSans-75" transform="translate(188.671875 0.234375)"/>
     <use xlink:href="#DejaVuSans-6c" transform="translate(252.050781 0.234375)"/>
     <use xlink:href="#DejaVuSans-61" transform="translate(279.833984 0.234375)"/>
     <use xlink:href="#DejaVuSans-74" transform="translate(341.113281 0.234375)"/>
     <use xlink:href="#DejaVuSans-69" transform="translate(380.322266 0.234375)"/>
     <use xlink:href="#DejaVuSans-6f" transform="translate(408.105469 0.234375)"/>
     <use xlink:href="#DejaVuSans-6e" transform="translate(469.287109 0.234375)"/>
     <use xlink:href="#DejaVuSans-3a" transform="translate(532.666016 0.234375)"/>
     <use xlink:href="#DejaVuSans-20" transform="translate(566.357422 0.234375)"/>
     <use xlink:href="#DejaVuSans-41" transform="translate(598.144531 0.234375)"/>
     <use xlink:href="#DejaVuSans-3d" transform="translate(666.552734 0.234375)"/>
     <use xlink:href="#DejaVuSans-31" transform="translate(750.341797 0.234375)"/>
     <use xlink:href="#DejaVuSans-2e" transform="translate(813.964844 0.234375)"/>
     <use xlink:href="#DejaVuSans-30" transform="translate(845.751953 0.234375)"/>
     <use xlink:href="#DejaVuSans-2c" transform="translate(909.375 0.234375)"/>
     <use xlink:href="#DejaVuSans-20" transform="translate(941.162109 0.234375)"/>
     <use xlink:href="#DejaVuSans-Oblique-3c9" transform="translate(972.949219 0.234375)"/>
     <use xlink:href="#DejaVuSans-3d" transform="translate(1056.689453 0.234375)"/>
     <use xlink:href="#DejaVuSans-31" transform="translate(1140.478516 0.234375)"/>
     <use xlink:href="#DejaVuSans-30" transform="translate(1204.101562 0.234375)"/>
     <use xlink:href="#DejaVuSans-2e" transform="translate(1267.724609 0.234375)"/>
     <use xlink:href="#DejaVuSans-30" transform="translate(1299.511719 0.234375)"/>
     <use xlink:href="#DejaVuSans-2c" transform="translate(1363.134766 0.234375)"/>
     <use xlink:href="#DejaVuSans-20" transform="translate(1394.921875 0.234375)"/>
     <use xlink:href="#DejaVuSans-6c" transform="translate(1426.708984 0.234375)"/>
     <use xlink:href="#DejaVuSans-3d" transform="translate(1454.492188 0.234375)"/>
     <use xlink:href="#DejaVuSans-38" transform="translate(1538.28125 0.234375)"/>
     <use xlink:href="#DejaVuSans-2e" transform="translate(1601.904297 0.234375)"/>
     <use xlink:href="#DejaVuSans-32" transform="translate(1628.191406 0.234375)"/>
     <use xlink:href="#DejaVuSans-2c" transform="translate(1691.814453 0.234375)"/>
     <use xlink:href="#DejaVuSans-20" transform="translate(1723.601562 0.234375)"/>
     <use xlink:href="#DejaVuSans-Oblique-3b8" transform="translate(1755.388672 0.234375)"/>
     <use xlink:href="#DejaVuSans-30" transform="translate(1816.570312 -16.171875) scale(0.7)"/>
     <use xlink:href="#DejaVuSans-3d" transform="translate(1863.84082 0.234375)"/>
     <use xlink:href="#DejaVuSans-33" transform="translate(1947.629883 0.234375)"/>
     <use xlink:href="#DejaVuSans-2e" transform="translate(2011.25293 0.234375)"/>
     <use xlink:href="#DejaVuSans-32" transform="translate(2037.540039 0.234375)"/>
     <use xlink:href="#DejaVuSans-31" transform="translate(2101.163086 0.234375)"/>
     <use xlink:href="#DejaVuSans-36" transform="translate(2164.786133 0.234375)"/>
     <use xlink:href="#DejaVuSans-35" transform="translate(2228.40918 0.234375)"/>
     <use xlink:href="#DejaVuSans-39" transform="translate(2286.532227 0.234375)"/>
     <use xlink:href="#DejaVuSans-32" transform="translate(2348.405273 0.234375)"/>
     <use xlink:href="#DejaVuSans-36" transform="translate(2412.02832 0.234375)"/>
     <use xlink:href="#DejaVuSans-35" transform="translate(2475.651367 0.234375)"/>
     <use xlink:href="#DejaVuSans-33" transform="translate(2539.274414 0.234375)"/>
     <use xlink:href="#DejaVuSans-35" transform="translate(2602.897461 0.234375)"/>
     <use xlink:href="#DejaVuSans-38" transform="translate(2666.520508 0.234375)"/>
     <use xlink:href="#DejaVuSans-39" transform="translate(2730.143555 0.234375)"/>
     <use xlink:href="#DejaVuSans-37" transform="translate(2793.766602 0.234375)"/>
     <use xlink:href="#DejaVuSans-39" transform="translate(2857.389648 0.234375)"/>
     <use xlink:href="#DejaVuSans-33" transform="translate(2921.012695 0.234375)"/>
     <use xlink:href="#DejaVuSans-33" transform="translate(2984.635742 0.234375)"/>
    </g>
   </g>
   <g id="legend_1">
    <g id="patch_7">
     <path d="M 540.596875 103.874375 
L 641 103.874375 
Q 643 103.874375 643 101.874375 
L 643 58.84 
Q 643 56.84 641 56.84 
L 540.596875 56.84 
Q 538.596875 56.84 538.596875 58.84 
L 538.596875 101.874375 
Q 538.596875 103.874375 540.596875 103.874375 
z
" style="fill: #ffffff; opacity: 0.8; stroke: #cccccc; stroke-linejoin: miter"/>
    </g>
    <g id="line2d_38">
     <path d="M 542.596875 64.938437 
L 552.596875 64.938437 
L 562.596875 64.938437 
" style="fill: none; stroke: #1f77b4; stroke-width: 1.5; stroke-linecap: square"/>
    </g>
    <g id="text_21">
     <!-- Original -->
     <g transform="translate(570.596875 68.438437) scale(0.1 -0.1)">
      <defs>
       <path id="DejaVuSans-4f" d="M 2522 4238 
Q 1834 4238 1429 3725 
Q 1025 3213 1025 2328 
Q 1025 1447 1429 934 
Q 1834 422 2522 422 
Q 3209 422 3611 934 
Q 4013 1447 4013 2328 
Q 4013 3213 3611 3725 
Q 3209 4238 2522 4238 
z
M 2522 4750 
Q 3503 4750 4090 4092 
Q 4678 3434 4678 2328 
Q 4678 1225 4090 567 
Q 3503 -91 2522 -91 
Q 1538 -91 948 565 
Q 359 1222 359 2328 
Q 359 3434 948 4092 
Q 1538 4750 2522 4750 
z
" transform="scale(0.015625)"/>
       <path id="DejaVuSans-72" d="M 2631 2963 
Q 2534 3019 2420 3045 
Q 2306 3072 2169 3072 
Q 1681 3072 1420 2755 
Q 1159 2438 1159 1844 
L 1159 0 
L 581 0 
L 581 3500 
L 1159 3500 
L 1159 2956 
Q 1341 3275 1631 3429 
Q 1922 3584 2338 3584 
Q 2397 3584 2469 3576 
Q 2541 3569 2628 3553 
L 2631 2963 
z
" transform="scale(0.015625)"/>
       <path id="DejaVuSans-67" d="M 2906 1791 
Q 2906 2416 2648 2759 
Q 2391 3103 1925 3103 
Q 1463 3103 1205 2759 
Q 947 2416 947 1791 
Q 947 1169 1205 825 
Q 1463 481 1925 481 
Q 2391 481 2648 825 
Q 2906 1169 2906 1791 
z
M 3481 434 
Q 3481 -459 3084 -895 
Q 2688 -1331 1869 -1331 
Q 1566 -1331 1297 -1286 
Q 1028 -1241 775 -1147 
L 775 -588 
Q 1028 -725 1275 -790 
Q 1522 -856 1778 -856 
Q 2344 -856 2625 -561 
Q 2906 -266 2906 331 
L 2906 616 
Q 2728 306 2450 153 
Q 2172 0 1784 0 
Q 1141 0 747 490 
Q 353 981 353 1791 
Q 353 2603 747 3093 
Q 1141 3584 1784 3584 
Q 2172 3584 2450 3431 
Q 2728 3278 2906 2969 
L 2906 3500 
L 3481 3500 
L 3481 434 
z
" transform="scale(0.015625)"/>
      </defs>
      <use xlink:href="#DejaVuSans-4f"/>
      <use xlink:href="#DejaVuSans-72" x="78.710938"/>
      <use xlink:href="#DejaVuSans-69" x="119.824219"/>
      <use xlink:href="#DejaVuSans-67" x="147.607422"/>
      <use xlink:href="#DejaVuSans-69" x="211.083984"/>
      <use xlink:href="#DejaVuSans-6e" x="238.867188"/>
      <use xlink:href="#DejaVuSans-61" x="302.246094"/>
      <use xlink:href="#DejaVuSans-6c" x="363.525391"/>
     </g>
    </g>
    <g id="line2d_39">
     <path d="M 542.596875 79.616562 
L 552.596875 79.616562 
L 562.596875 79.616562 
" style="fill: none; stroke: #ff7f0e; stroke-width: 1.5; stroke-linecap: square"/>
    </g>
    <g id="text_22">
     <!-- First-Order -->
     <g transform="translate(570.596875 83.116562) scale(0.1 -0.1)">
      <defs>
       <path id="DejaVuSans-46" d="M 628 4666 
L 3309 4666 
L 3309 4134 
L 1259 4134 
L 1259 2759 
L 3109 2759 
L 3109 2228 
L 1259 2228 
L 1259 0 
L 628 0 
L 628 4666 
z
" transform="scale(0.015625)"/>
       <path id="DejaVuSans-73" d="M 2834 3397 
L 2834 2853 
Q 2591 2978 2328 3040 
Q 2066 3103 1784 3103 
Q 1356 3103 1142 2972 
Q 928 2841 928 2578 
Q 928 2378 1081 2264 
Q 1234 2150 1697 2047 
L 1894 2003 
Q 2506 1872 2764 1633 
Q 3022 1394 3022 966 
Q 3022 478 2636 193 
Q 2250 -91 1575 -91 
Q 1294 -91 989 -36 
Q 684 19 347 128 
L 347 722 
Q 666 556 975 473 
Q 1284 391 1588 391 
Q 1994 391 2212 530 
Q 2431 669 2431 922 
Q 2431 1156 2273 1281 
Q 2116 1406 1581 1522 
L 1381 1569 
Q 847 1681 609 1914 
Q 372 2147 372 2553 
Q 372 3047 722 3315 
Q 1072 3584 1716 3584 
Q 2034 3584 2315 3537 
Q 2597 3491 2834 3397 
z
" transform="scale(0.015625)"/>
       <path id="DejaVuSans-2d" d="M 313 2009 
L 1997 2009 
L 1997 1497 
L 313 1497 
L 313 2009 
z
" transform="scale(0.015625)"/>
       <path id="DejaVuSans-64" d="M 2906 2969 
L 2906 4863 
L 3481 4863 
L 3481 0 
L 2906 0 
L 2906 525 
Q 2725 213 2448 61 
Q 2172 -91 1784 -91 
Q 1150 -91 751 415 
Q 353 922 353 1747 
Q 353 2572 751 3078 
Q 1150 3584 1784 3584 
Q 2172 3584 2448 3432 
Q 2725 3281 2906 2969 
z
M 947 1747 
Q 947 1113 1208 752 
Q 1469 391 1925 391 
Q 2381 391 2643 752 
Q 2906 1113 2906 1747 
Q 2906 2381 2643 2742 
Q 2381 3103 1925 3103 
Q 1469 3103 1208 2742 
Q 947 2381 947 1747 
z
" transform="scale(0.015625)"/>
      </defs>
      <use xlink:href="#DejaVuSans-46"/>
      <use xlink:href="#DejaVuSans-69" x="50.269531"/>
      <use xlink:href="#DejaVuSans-72" x="78.052734"/>
      <use xlink:href="#DejaVuSans-73" x="119.166016"/>
      <use xlink:href="#DejaVuSans-74" x="171.265625"/>
      <use xlink:href="#DejaVuSans-2d" x="210.474609"/>
      <use xlink:href="#DejaVuSans-4f" x="249.308594"/>
      <use xlink:href="#DejaVuSans-72" x="328.019531"/>
      <use xlink:href="#DejaVuSans-64" x="367.382812"/>
      <use xlink:href="#DejaVuSans-65" x="430.859375"/>
      <use xlink:href="#DejaVuSans-72" x="492.382812"/>
     </g>
    </g>
    <g id="line2d_40">
     <path d="M 542.596875 94.294687 
L 552.596875 94.294687 
L 562.596875 94.294687 
" style="fill: none; stroke: #2ca02c; stroke-width: 1.5; stroke-linecap: square"/>
    </g>
    <g id="text_23">
     <!-- Second Order -->
     <g transform="translate(570.596875 97.794687) scale(0.1 -0.1)">
      <defs>
       <path id="DejaVuSans-63" d="M 3122 3366 
L 3122 2828 
Q 2878 2963 2633 3030 
Q 2388 3097 2138 3097 
Q 1578 3097 1268 2742 
Q 959 2388 959 1747 
Q 959 1106 1268 751 
Q 1578 397 2138 397 
Q 2388 397 2633 464 
Q 2878 531 3122 666 
L 3122 134 
Q 2881 22 2623 -34 
Q 2366 -91 2075 -91 
Q 1284 -91 818 406 
Q 353 903 353 1747 
Q 353 2603 823 3093 
Q 1294 3584 2113 3584 
Q 2378 3584 2631 3529 
Q 2884 3475 3122 3366 
z
" transform="scale(0.015625)"/>
      </defs>
      <use xlink:href="#DejaVuSans-53"/>
      <use xlink:href="#DejaVuSans-65" x="63.476562"/>
      <use xlink:href="#DejaVuSans-63" x="125"/>
      <use xlink:href="#DejaVuSans-6f" x="179.980469"/>
      <use xlink:href="#DejaVuSans-6e" x="241.162109"/>
      <use xlink:href="#DejaVuSans-64" x="304.541016"/>
      <use xlink:href="#DejaVuSans-20" x="368.017578"/>
      <use xlink:href="#DejaVuSans-4f" x="399.804688"/>
      <use xlink:href="#DejaVuSans-72" x="478.515625"/>
      <use xlink:href="#DejaVuSans-64" x="517.878906"/>
      <use xlink:href="#DejaVuSans-65" x="581.355469"/>
      <use xlink:href="#DejaVuSans-72" x="642.878906"/>
     </g>
    </g>
   </g>
  </g>
 </g>
 <defs>
  <clipPath id="pdbe853c7c5">
   <rect x="90" y="51.84" width="558" height="332.64"/>
  </clipPath>
 </defs>
</svg>
