<?xml version="1.0" encoding="utf-8" standalone="no"?>
<!DOCTYPE svg PUBLIC "-//W3C//DTD SVG 1.1//EN"
  "http://www.w3.org/Graphics/SVG/1.1/DTD/svg11.dtd">
<svg xmlns:xlink="http://www.w3.org/1999/xlink" width="720pt" height="432pt" viewBox="0 0 720 432" xmlns="http://www.w3.org/2000/svg" version="1.1">
 <metadata>
  <rdf:RDF xmlns:dc="http://purl.org/dc/elements/1.1/" xmlns:cc="http://creativecommons.org/ns#" xmlns:rdf="http://www.w3.org/1999/02/22-rdf-syntax-ns#">
   <cc:Work>
    <dc:type rdf:resource="http://purl.org/dc/dcmitype/StillImage"/>
    <dc:date>2024-12-31T23:34:27.905602</dc:date>
    <dc:format>image/svg+xml</dc:format>
    <dc:creator>
     <cc:Agent>
      <dc:title>Matplotlib v3.7.2, https://matplotlib.org/</dc:title>
     </cc:Agent>
    </dc:creator>
   </cc:Work>
  </rdf:RDF>
 </metadata>
 <defs>
  <style type="text/css">*{stroke-linejoin: round; stroke-linecap: butt}</style>
 </defs>
 <g id="figure_1">
  <g id="patch_1">
   <path d="M 0 432 
L 720 432 
L 720 0 
L 0 0 
z
" style="fill: #ffffff"/>
  </g>
  <g id="axes_1">
   <g id="patch_2">
    <path d="M 90 384.48 
L 648 384.48 
L 648 51.84 
L 90 51.84 
z
" style="fill: #ffffff"/>
   </g>
   <g id="matplotlib.axis_1">
    <g id="xtick_1">
     <g id="line2d_1">
      <path d="M 115.363636 384.48 
L 115.363636 51.84 
" clip-path="url(#p51918535a7)" style="fill: none; stroke: #b0b0b0; stroke-width: 0.8; stroke-linecap: square"/>
     </g>
     <g id="line2d_2">
      <defs>
       <path id="m5ed3007e46" d="M 0 0 
L 0 3.5 
" style="stroke: #000000; stroke-width: 0.8"/>
      </defs>
      <g>
       <use xlink:href="#m5ed3007e46" x="115.363636" y="384.48" style="stroke: #000000; stroke-width: 0.8"/>
      </g>
     </g>
     <g id="text_1">
      <!-- 0.00 -->
      <g transform="translate(104.230824 399.078438) scale(0.1 -0.1)">
       <defs>
        <path id="DejaVuSans-30" d="M 2034 4250 
Q 1547 4250 1301 3770 
Q 1056 3291 1056 2328 
Q 1056 1369 1301 889 
Q 1547 409 2034 409 
Q 2525 409 2770 889 
Q 3016 1369 3016 2328 
Q 3016 3291 2770 3770 
Q 2525 4250 2034 4250 
z
M 2034 4750 
Q 2819 4750 3233 4129 
Q 3647 3509 3647 2328 
Q 3647 1150 3233 529 
Q 2819 -91 2034 -91 
Q 1250 -91 836 529 
Q 422 1150 422 2328 
Q 422 3509 836 4129 
Q 1250 4750 2034 4750 
z
" transform="scale(0.015625)"/>
        <path id="DejaVuSans-2e" d="M 684 794 
L 1344 794 
L 1344 0 
L 684 0 
L 684 794 
z
" transform="scale(0.015625)"/>
       </defs>
       <use xlink:href="#DejaVuSans-30"/>
       <use xlink:href="#DejaVuSans-2e" x="63.623047"/>
       <use xlink:href="#DejaVuSans-30" x="95.410156"/>
       <use xlink:href="#DejaVuSans-30" x="159.033203"/>
      </g>
     </g>
    </g>
    <g id="xtick_2">
     <g id="line2d_3">
      <path d="M 178.772727 384.48 
L 178.772727 51.84 
" clip-path="url(#p51918535a7)" style="fill: none; stroke: #b0b0b0; stroke-width: 0.8; stroke-linecap: square"/>
     </g>
     <g id="line2d_4">
      <g>
       <use xlink:href="#m5ed3007e46" x="178.772727" y="384.48" style="stroke: #000000; stroke-width: 0.8"/>
      </g>
     </g>
     <g id="text_2">
      <!-- 0.25 -->
      <g transform="translate(167.639915 399.078438) scale(0.1 -0.1)">
       <defs>
        <path id="DejaVuSans-32" d="M 1228 531 
L 3431 531 
L 3431 0 
L 469 0 
L 469 531 
Q 828 903 1448 1529 
Q 2069 2156 2228 2338 
Q 2531 2678 2651 2914 
Q 2772 3150 2772 3378 
Q 2772 3750 2511 3984 
Q 2250 4219 1831 4219 
Q 1534 4219 1204 4116 
Q 875 4013 500 3803 
L 500 4441 
Q 881 4594 1212 4672 
Q 1544 4750 1819 4750 
Q 2544 4750 2975 4387 
Q 3406 4025 3406 3419 
Q 3406 3131 3298 2873 
Q 3191 2616 2906 2266 
Q 2828 2175 2409 1742 
Q 1991 1309 1228 531 
z
" transform="scale(0.015625)"/>
        <path id="DejaVuSans-35" d="M 691 4666 
L 3169 4666 
L 3169 4134 
L 1269 4134 
L 1269 2991 
Q 1406 3038 1543 3061 
Q 1681 3084 1819 3084 
Q 2600 3084 3056 2656 
Q 3513 2228 3513 1497 
Q 3513 744 3044 326 
Q 2575 -91 1722 -91 
Q 1428 -91 1123 -41 
Q 819 9 494 109 
L 494 744 
Q 775 591 1075 516 
Q 1375 441 1709 441 
Q 2250 441 2565 725 
Q 2881 1009 2881 1497 
Q 2881 1984 2565 2268 
Q 2250 2553 1709 2553 
Q 1456 2553 1204 2497 
Q 953 2441 691 2322 
L 691 4666 
z
" transform="scale(0.015625)"/>
       </defs>
       <use xlink:href="#DejaVuSans-30"/>
       <use xlink:href="#DejaVuSans-2e" x="63.623047"/>
       <use xlink:href="#DejaVuSans-32" x="95.410156"/>
       <use xlink:href="#DejaVuSans-35" x="159.033203"/>
      </g>
     </g>
    </g>
    <g id="xtick_3">
     <g id="line2d_5">
      <path d="M 242.181818 384.48 
L 242.181818 51.84 
" clip-path="url(#p51918535a7)" style="fill: none; stroke: #b0b0b0; stroke-width: 0.8; stroke-linecap: square"/>
     </g>
     <g id="line2d_6">
      <g>
       <use xlink:href="#m5ed3007e46" x="242.181818" y="384.48" style="stroke: #000000; stroke-width: 0.8"/>
      </g>
     </g>
     <g id="text_3">
      <!-- 0.50 -->
      <g transform="translate(231.049006 399.078438) scale(0.1 -0.1)">
       <use xlink:href="#DejaVuSans-30"/>
       <use xlink:href="#DejaVuSans-2e" x="63.623047"/>
       <use xlink:href="#DejaVuSans-35" x="95.410156"/>
       <use xlink:href="#DejaVuSans-30" x="159.033203"/>
      </g>
     </g>
    </g>
    <g id="xtick_4">
     <g id="line2d_7">
      <path d="M 305.590909 384.48 
L 305.590909 51.84 
" clip-path="url(#p51918535a7)" style="fill: none; stroke: #b0b0b0; stroke-width: 0.8; stroke-linecap: square"/>
     </g>
     <g id="line2d_8">
      <g>
       <use xlink:href="#m5ed3007e46" x="305.590909" y="384.48" style="stroke: #000000; stroke-width: 0.8"/>
      </g>
     </g>
     <g id="text_4">
      <!-- 0.75 -->
      <g transform="translate(294.458097 399.078438) scale(0.1 -0.1)">
       <defs>
        <path id="DejaVuSans-37" d="M 525 4666 
L 3525 4666 
L 3525 4397 
L 1831 0 
L 1172 0 
L 2766 4134 
L 525 4134 
L 525 4666 
z
" transform="scale(0.015625)"/>
       </defs>
       <use xlink:href="#DejaVuSans-30"/>
       <use xlink:href="#DejaVuSans-2e" x="63.623047"/>
       <use xlink:href="#DejaVuSans-37" x="95.410156"/>
       <use xlink:href="#DejaVuSans-35" x="159.033203"/>
      </g>
     </g>
    </g>
    <g id="xtick_5">
     <g id="line2d_9">
      <path d="M 369 384.48 
L 369 51.84 
" clip-path="url(#p51918535a7)" style="fill: none; stroke: #b0b0b0; stroke-width: 0.8; stroke-linecap: square"/>
     </g>
     <g id="line2d_10">
      <g>
       <use xlink:href="#m5ed3007e46" x="369" y="384.48" style="stroke: #000000; stroke-width: 0.8"/>
      </g>
     </g>
     <g id="text_5">
      <!-- 1.00 -->
      <g transform="translate(357.867188 399.078438) scale(0.1 -0.1)">
       <defs>
        <path id="DejaVuSans-31" d="M 794 531 
L 1825 531 
L 1825 4091 
L 703 3866 
L 703 4441 
L 1819 4666 
L 2450 4666 
L 2450 531 
L 3481 531 
L 3481 0 
L 794 0 
L 794 531 
z
" transform="scale(0.015625)"/>
       </defs>
       <use xlink:href="#DejaVuSans-31"/>
       <use xlink:href="#DejaVuSans-2e" x="63.623047"/>
       <use xlink:href="#DejaVuSans-30" x="95.410156"/>
       <use xlink:href="#DejaVuSans-30" x="159.033203"/>
      </g>
     </g>
    </g>
    <g id="xtick_6">
     <g id="line2d_11">
      <path d="M 432.409091 384.48 
L 432.409091 51.84 
" clip-path="url(#p51918535a7)" style="fill: none; stroke: #b0b0b0; stroke-width: 0.8; stroke-linecap: square"/>
     </g>
     <g id="line2d_12">
      <g>
       <use xlink:href="#m5ed3007e46" x="432.409091" y="384.48" style="stroke: #000000; stroke-width: 0.8"/>
      </g>
     </g>
     <g id="text_6">
      <!-- 1.25 -->
      <g transform="translate(421.276278 399.078438) scale(0.1 -0.1)">
       <use xlink:href="#DejaVuSans-31"/>
       <use xlink:href="#DejaVuSans-2e" x="63.623047"/>
       <use xlink:href="#DejaVuSans-32" x="95.410156"/>
       <use xlink:href="#DejaVuSans-35" x="159.033203"/>
      </g>
     </g>
    </g>
    <g id="xtick_7">
     <g id="line2d_13">
      <path d="M 495.818182 384.48 
L 495.818182 51.84 
" clip-path="url(#p51918535a7)" style="fill: none; stroke: #b0b0b0; stroke-width: 0.8; stroke-linecap: square"/>
     </g>
     <g id="line2d_14">
      <g>
       <use xlink:href="#m5ed3007e46" x="495.818182" y="384.48" style="stroke: #000000; stroke-width: 0.8"/>
      </g>
     </g>
     <g id="text_7">
      <!-- 1.50 -->
      <g transform="translate(484.685369 399.078438) scale(0.1 -0.1)">
       <use xlink:href="#DejaVuSans-31"/>
       <use xlink:href="#DejaVuSans-2e" x="63.623047"/>
       <use xlink:href="#DejaVuSans-35" x="95.410156"/>
       <use xlink:href="#DejaVuSans-30" x="159.033203"/>
      </g>
     </g>
    </g>
    <g id="xtick_8">
     <g id="line2d_15">
      <path d="M 559.227273 384.48 
L 559.227273 51.84 
" clip-path="url(#p51918535a7)" style="fill: none; stroke: #b0b0b0; stroke-width: 0.8; stroke-linecap: square"/>
     </g>
     <g id="line2d_16">
      <g>
       <use xlink:href="#m5ed3007e46" x="559.227273" y="384.48" style="stroke: #000000; stroke-width: 0.8"/>
      </g>
     </g>
     <g id="text_8">
      <!-- 1.75 -->
      <g transform="translate(548.09446 399.078438) scale(0.1 -0.1)">
       <use xlink:href="#DejaVuSans-31"/>
       <use xlink:href="#DejaVuSans-2e" x="63.623047"/>
       <use xlink:href="#DejaVuSans-37" x="95.410156"/>
       <use xlink:href="#DejaVuSans-35" x="159.033203"/>
      </g>
     </g>
    </g>
    <g id="xtick_9">
     <g id="line2d_17">
      <path d="M 622.636364 384.48 
L 622.636364 51.84 
" clip-path="url(#p51918535a7)" style="fill: none; stroke: #b0b0b0; stroke-width: 0.8; stroke-linecap: square"/>
     </g>
     <g id="line2d_18">
      <g>
       <use xlink:href="#m5ed3007e46" x="622.636364" y="384.48" style="stroke: #000000; stroke-width: 0.8"/>
      </g>
     </g>
     <g id="text_9">
      <!-- 2.00 -->
      <g transform="translate(611.503551 399.078438) scale(0.1 -0.1)">
       <use xlink:href="#DejaVuSans-32"/>
       <use xlink:href="#DejaVuSans-2e" x="63.623047"/>
       <use xlink:href="#DejaVuSans-30" x="95.410156"/>
       <use xlink:href="#DejaVuSans-30" x="159.033203"/>
      </g>
     </g>
    </g>
    <g id="text_10">
     <!-- Time (t) -->
     <g transform="translate(349.315625 412.756563) scale(0.1 -0.1)">
      <defs>
       <path id="DejaVuSans-54" d="M -19 4666 
L 3928 4666 
L 3928 4134 
L 2272 4134 
L 2272 0 
L 1638 0 
L 1638 4134 
L -19 4134 
L -19 4666 
z
" transform="scale(0.015625)"/>
       <path id="DejaVuSans-69" d="M 603 3500 
L 1178 3500 
L 1178 0 
L 603 0 
L 603 3500 
z
M 603 4863 
L 1178 4863 
L 1178 4134 
L 603 4134 
L 603 4863 
z
" transform="scale(0.015625)"/>
       <path id="DejaVuSans-6d" d="M 3328 2828 
Q 3544 3216 3844 3400 
Q 4144 3584 4550 3584 
Q 5097 3584 5394 3201 
Q 5691 2819 5691 2113 
L 5691 0 
L 5113 0 
L 5113 2094 
Q 5113 2597 4934 2840 
Q 4756 3084 4391 3084 
Q 3944 3084 3684 2787 
Q 3425 2491 3425 1978 
L 3425 0 
L 2847 0 
L 2847 2094 
Q 2847 2600 2669 2842 
Q 2491 3084 2119 3084 
Q 1678 3084 1418 2786 
Q 1159 2488 1159 1978 
L 1159 0 
L 581 0 
L 581 3500 
L 1159 3500 
L 1159 2956 
Q 1356 3278 1631 3431 
Q 1906 3584 2284 3584 
Q 2666 3584 2933 3390 
Q 3200 3197 3328 2828 
z
" transform="scale(0.015625)"/>
       <path id="DejaVuSans-65" d="M 3597 1894 
L 3597 1613 
L 953 1613 
Q 991 1019 1311 708 
Q 1631 397 2203 397 
Q 2534 397 2845 478 
Q 3156 559 3463 722 
L 3463 178 
Q 3153 47 2828 -22 
Q 2503 -91 2169 -91 
Q 1331 -91 842 396 
Q 353 884 353 1716 
Q 353 2575 817 3079 
Q 1281 3584 2069 3584 
Q 2775 3584 3186 3129 
Q 3597 2675 3597 1894 
z
M 3022 2063 
Q 3016 2534 2758 2815 
Q 2500 3097 2075 3097 
Q 1594 3097 1305 2825 
Q 1016 2553 972 2059 
L 3022 2063 
z
" transform="scale(0.015625)"/>
       <path id="DejaVuSans-20" transform="scale(0.015625)"/>
       <path id="DejaVuSans-28" d="M 1984 4856 
Q 1566 4138 1362 3434 
Q 1159 2731 1159 2009 
Q 1159 1288 1364 580 
Q 1569 -128 1984 -844 
L 1484 -844 
Q 1016 -109 783 600 
Q 550 1309 550 2009 
Q 550 2706 781 3412 
Q 1013 4119 1484 4856 
L 1984 4856 
z
" transform="scale(0.015625)"/>
       <path id="DejaVuSans-74" d="M 1172 4494 
L 1172 3500 
L 2356 3500 
L 2356 3053 
L 1172 3053 
L 1172 1153 
Q 1172 725 1289 603 
Q 1406 481 1766 481 
L 2356 481 
L 2356 0 
L 1766 0 
Q 1100 0 847 248 
Q 594 497 594 1153 
L 594 3053 
L 172 3053 
L 172 3500 
L 594 3500 
L 594 4494 
L 1172 4494 
z
" transform="scale(0.015625)"/>
       <path id="DejaVuSans-29" d="M 513 4856 
L 1013 4856 
Q 1481 4119 1714 3412 
Q 1947 2706 1947 2009 
Q 1947 1309 1714 600 
Q 1481 -109 1013 -844 
L 513 -844 
Q 928 -128 1133 580 
Q 1338 1288 1338 2009 
Q 1338 2731 1133 3434 
Q 928 4138 513 4856 
z
" transform="scale(0.015625)"/>
      </defs>
      <use xlink:href="#DejaVuSans-54"/>
      <use xlink:href="#DejaVuSans-69" x="57.958984"/>
      <use xlink:href="#DejaVuSans-6d" x="85.742188"/>
      <use xlink:href="#DejaVuSans-65" x="183.154297"/>
      <use xlink:href="#DejaVuSans-20" x="244.677734"/>
      <use xlink:href="#DejaVuSans-28" x="276.464844"/>
      <use xlink:href="#DejaVuSans-74" x="315.478516"/>
      <use xlink:href="#DejaVuSans-29" x="354.6875"/>
     </g>
    </g>
   </g>
   <g id="matplotlib.axis_2">
    <g id="ytick_1">
     <g id="line2d_19">
      <path d="M 90 342.712815 
L 648 342.712815 
" clip-path="url(#p51918535a7)" style="fill: none; stroke: #b0b0b0; stroke-width: 0.8; stroke-linecap: square"/>
     </g>
     <g id="line2d_20">
      <defs>
       <path id="mc326b4352e" d="M 0 0 
L -3.5 0 
" style="stroke: #000000; stroke-width: 0.8"/>
      </defs>
      <g>
       <use xlink:href="#mc326b4352e" x="90" y="342.712815" style="stroke: #000000; stroke-width: 0.8"/>
      </g>
     </g>
     <g id="text_11">
      <!-- 3.05 -->
      <g transform="translate(60.734375 346.512033) scale(0.1 -0.1)">
       <defs>
        <path id="DejaVuSans-33" d="M 2597 2516 
Q 3050 2419 3304 2112 
Q 3559 1806 3559 1356 
Q 3559 666 3084 287 
Q 2609 -91 1734 -91 
Q 1441 -91 1130 -33 
Q 819 25 488 141 
L 488 750 
Q 750 597 1062 519 
Q 1375 441 1716 441 
Q 2309 441 2620 675 
Q 2931 909 2931 1356 
Q 2931 1769 2642 2001 
Q 2353 2234 1838 2234 
L 1294 2234 
L 1294 2753 
L 1863 2753 
Q 2328 2753 2575 2939 
Q 2822 3125 2822 3475 
Q 2822 3834 2567 4026 
Q 2313 4219 1838 4219 
Q 1578 4219 1281 4162 
Q 984 4106 628 3988 
L 628 4550 
Q 988 4650 1302 4700 
Q 1616 4750 1894 4750 
Q 2613 4750 3031 4423 
Q 3450 4097 3450 3541 
Q 3450 3153 3228 2886 
Q 3006 2619 2597 2516 
z
" transform="scale(0.015625)"/>
       </defs>
       <use xlink:href="#DejaVuSans-33"/>
       <use xlink:href="#DejaVuSans-2e" x="63.623047"/>
       <use xlink:href="#DejaVuSans-30" x="95.410156"/>
       <use xlink:href="#DejaVuSans-35" x="159.033203"/>
      </g>
     </g>
    </g>
    <g id="ytick_2">
     <g id="line2d_21">
      <path d="M 90 287.808287 
L 648 287.808287 
" clip-path="url(#p51918535a7)" style="fill: none; stroke: #b0b0b0; stroke-width: 0.8; stroke-linecap: square"/>
     </g>
     <g id="line2d_22">
      <g>
       <use xlink:href="#mc326b4352e" x="90" y="287.808287" style="stroke: #000000; stroke-width: 0.8"/>
      </g>
     </g>
     <g id="text_12">
      <!-- 3.10 -->
      <g transform="translate(60.734375 291.607506) scale(0.1 -0.1)">
       <use xlink:href="#DejaVuSans-33"/>
       <use xlink:href="#DejaVuSans-2e" x="63.623047"/>
       <use xlink:href="#DejaVuSans-31" x="95.410156"/>
       <use xlink:href="#DejaVuSans-30" x="159.033203"/>
      </g>
     </g>
    </g>
    <g id="ytick_3">
     <g id="line2d_23">
      <path d="M 90 232.90376 
L 648 232.90376 
" clip-path="url(#p51918535a7)" style="fill: none; stroke: #b0b0b0; stroke-width: 0.8; stroke-linecap: square"/>
     </g>
     <g id="line2d_24">
      <g>
       <use xlink:href="#mc326b4352e" x="90" y="232.90376" style="stroke: #000000; stroke-width: 0.8"/>
      </g>
     </g>
     <g id="text_13">
      <!-- 3.15 -->
      <g transform="translate(60.734375 236.702979) scale(0.1 -0.1)">
       <use xlink:href="#DejaVuSans-33"/>
       <use xlink:href="#DejaVuSans-2e" x="63.623047"/>
       <use xlink:href="#DejaVuSans-31" x="95.410156"/>
       <use xlink:href="#DejaVuSans-35" x="159.033203"/>
      </g>
     </g>
    </g>
    <g id="ytick_4">
     <g id="line2d_25">
      <path d="M 90 177.999233 
L 648 177.999233 
" clip-path="url(#p51918535a7)" style="fill: none; stroke: #b0b0b0; stroke-width: 0.8; stroke-linecap: square"/>
     </g>
     <g id="line2d_26">
      <g>
       <use xlink:href="#mc326b4352e" x="90" y="177.999233" style="stroke: #000000; stroke-width: 0.8"/>
      </g>
     </g>
     <g id="text_14">
      <!-- 3.20 -->
      <g transform="translate(60.734375 181.798451) scale(0.1 -0.1)">
       <use xlink:href="#DejaVuSans-33"/>
       <use xlink:href="#DejaVuSans-2e" x="63.623047"/>
       <use xlink:href="#DejaVuSans-32" x="95.410156"/>
       <use xlink:href="#DejaVuSans-30" x="159.033203"/>
      </g>
     </g>
    </g>
    <g id="ytick_5">
     <g id="line2d_27">
      <path d="M 90 123.094705 
L 648 123.094705 
" clip-path="url(#p51918535a7)" style="fill: none; stroke: #b0b0b0; stroke-width: 0.8; stroke-linecap: square"/>
     </g>
     <g id="line2d_28">
      <g>
       <use xlink:href="#mc326b4352e" x="90" y="123.094705" style="stroke: #000000; stroke-width: 0.8"/>
      </g>
     </g>
     <g id="text_15">
      <!-- 3.25 -->
      <g transform="translate(60.734375 126.893924) scale(0.1 -0.1)">
       <use xlink:href="#DejaVuSans-33"/>
       <use xlink:href="#DejaVuSans-2e" x="63.623047"/>
       <use xlink:href="#DejaVuSans-32" x="95.410156"/>
       <use xlink:href="#DejaVuSans-35" x="159.033203"/>
      </g>
     </g>
    </g>
    <g id="ytick_6">
     <g id="line2d_29">
      <path d="M 90 68.190178 
L 648 68.190178 
" clip-path="url(#p51918535a7)" style="fill: none; stroke: #b0b0b0; stroke-width: 0.8; stroke-linecap: square"/>
     </g>
     <g id="line2d_30">
      <g>
       <use xlink:href="#mc326b4352e" x="90" y="68.190178" style="stroke: #000000; stroke-width: 0.8"/>
      </g>
     </g>
     <g id="text_16">
      <!-- 3.30 -->
      <g transform="translate(60.734375 71.989397) scale(0.1 -0.1)">
       <use xlink:href="#DejaVuSans-33"/>
       <use xlink:href="#DejaVuSans-2e" x="63.623047"/>
       <use xlink:href="#DejaVuSans-33" x="95.410156"/>
       <use xlink:href="#DejaVuSans-30" x="159.033203"/>
      </g>
     </g>
    </g>
    <g id="text_17">
     <!-- $\theta(t)$ -->
     <g transform="translate(54.654688 227.11) rotate(-90) scale(0.1 -0.1)">
      <defs>
       <path id="DejaVuSans-Oblique-3b8" d="M 2913 2219 
L 925 2219 
Q 791 1284 928 888 
Q 1100 400 1566 400 
Q 2034 400 2391 891 
Q 2703 1322 2913 2219 
z
M 3009 2750 
Q 3094 3638 2984 3950 
Q 2813 4444 2353 4444 
Q 1875 4444 1525 3956 
Q 1250 3563 1034 2750 
L 3009 2750 
z
M 2444 4913 
Q 3194 4913 3494 4250 
Q 3794 3591 3566 2422 
Q 3341 1256 2781 594 
Q 2225 -72 1475 -72 
Q 722 -72 425 594 
Q 128 1256 353 2422 
Q 581 3591 1134 4250 
Q 1691 4913 2444 4913 
z
" transform="scale(0.015625)"/>
       <path id="DejaVuSans-Oblique-74" d="M 2706 3500 
L 2619 3053 
L 1472 3053 
L 1100 1153 
Q 1081 1047 1072 975 
Q 1063 903 1063 863 
Q 1063 663 1183 572 
Q 1303 481 1569 481 
L 2150 481 
L 2053 0 
L 1503 0 
Q 991 0 739 200 
Q 488 400 488 806 
Q 488 878 497 964 
Q 506 1050 525 1153 
L 897 3053 
L 409 3053 
L 500 3500 
L 978 3500 
L 1172 4494 
L 1747 4494 
L 1556 3500 
L 2706 3500 
z
" transform="scale(0.015625)"/>
      </defs>
      <use xlink:href="#DejaVuSans-Oblique-3b8" transform="translate(0 0.234375)"/>
      <use xlink:href="#DejaVuSans-28" transform="translate(61.181641 0.234375)"/>
      <use xlink:href="#DejaVuSans-Oblique-74" transform="translate(100.195312 0.234375)"/>
      <use xlink:href="#DejaVuSans-29" transform="translate(139.404297 0.234375)"/>
     </g>
    </g>
   </g>
   <g id="line2d_31">
    <path d="M 115.363636 104.874469 
L 116.379197 104.979652 
L 117.394758 105.295033 
L 118.410319 105.820201 
L 119.42588 106.554505 
L 120.441441 107.49664 
L 121.964783 109.29591 
L 123.488124 111.552411 
L 125.011466 114.257987 
L 126.534808 117.403015 
L 128.058149 120.976398 
L 130.089271 126.385307 
L 132.120393 132.499373 
L 134.151515 139.280093 
L 136.690418 148.627296 
L 139.22932 158.854322 
L 142.276003 172.180892 
L 145.830467 188.91419 
L 150.400491 211.709409 
L 164.618346 283.818815 
L 168.172809 300.360049 
L 171.219492 313.578515 
L 173.758395 323.777302 
L 176.297297 333.125054 
L 178.8362 341.523616 
L 180.867322 347.495356 
L 182.898444 352.752197 
L 184.421785 356.19834 
L 185.945127 359.198217 
L 187.468468 361.733692 
L 188.99181 363.788612 
L 190.515152 365.364844 
L 191.530713 366.150439 
L 192.546274 366.723687 
L 193.561835 367.084711 
L 194.577396 367.23387 
L 195.592957 367.171758 
L 196.608518 366.899204 
L 197.624079 366.417273 
L 198.63964 365.727265 
L 199.655201 364.830717 
L 201.178542 363.102568 
L 202.701884 360.920712 
L 204.225225 358.29331 
L 205.748567 355.229717 
L 207.271908 351.740479 
L 209.30303 346.446502 
L 211.334152 340.447942 
L 213.365274 333.779682 
L 215.904177 324.56183 
L 218.443079 314.442002 
L 221.489762 301.239134 
L 224.536446 287.049879 
L 228.59869 266.940044 
L 234.184275 237.967506 
L 241.800983 198.497827 
L 245.863227 178.542325 
L 249.41769 162.252818 
L 252.464373 149.416956 
L 255.003276 139.652103 
L 257.542179 130.83266 
L 259.573301 124.512917 
L 261.604423 118.887613 
L 263.635545 113.989569 
L 265.158886 110.810681 
L 266.682228 108.067597 
L 268.205569 105.769519 
L 269.728911 103.924323 
L 271.252252 102.53856 
L 272.267813 101.872591 
L 273.283374 101.414382 
L 274.298935 101.164892 
L 275.314496 101.124815 
L 276.330057 101.294586 
L 277.345618 101.674375 
L 278.361179 102.264093 
L 279.37674 103.063386 
L 280.392301 104.07164 
L 281.915643 105.973832 
L 283.438984 108.340087 
L 284.962326 111.165013 
L 286.485667 114.442279 
L 288.009009 118.159028 
L 290.040131 123.763858 
L 292.071253 130.065944 
L 294.102375 137.015449 
L 296.641278 146.534868 
L 299.18018 156.883636 
L 302.226863 170.248364 
L 305.781327 186.907328 
L 310.351351 209.537193 
L 325.584767 286.156371 
L 329.13923 302.256171 
L 332.185913 314.911612 
L 334.724816 324.485104 
L 337.263718 333.106277 
L 339.29484 339.260201 
L 341.325962 344.710887 
L 343.357084 349.424073 
L 344.880426 352.457143 
L 346.403767 355.048201 
L 347.927109 357.188241 
L 349.45045 358.869815 
L 350.466011 359.733187 
L 351.481572 360.388784 
L 352.497133 360.835551 
L 353.512695 361.072743 
L 354.528256 361.09992 
L 355.543817 360.916951 
L 356.559378 360.524012 
L 357.574939 359.921586 
L 358.5905 359.110464 
L 359.606061 358.091746 
L 361.129402 356.177582 
L 362.652744 353.805604 
L 364.176085 350.983408 
L 365.699427 347.720153 
L 367.222768 344.02655 
L 369.25389 338.453746 
L 371.285012 332.171259 
L 373.316134 325.217397 
L 375.855037 315.647272 
L 378.393939 305.191268 
L 381.440622 291.603193 
L 384.995086 274.569786 
L 389.565111 251.388474 
L 404.290745 175.557815 
L 407.845209 158.854206 
L 410.891892 145.534772 
L 413.430794 135.281139 
L 415.969697 125.907597 
L 418.000819 119.110327 
L 420.031941 112.991153 
L 422.063063 107.599013 
L 423.586405 104.060744 
L 425.109746 100.976678 
L 426.633088 98.352872 
L 428.156429 96.192956 
L 429.679771 94.500212 
L 430.695332 93.632318 
L 431.710893 92.973298 
L 432.726454 92.523214 
L 433.742015 92.281885 
L 434.757576 92.248887 
L 435.773137 92.423555 
L 436.788698 92.804982 
L 437.804259 93.392015 
L 438.81982 94.183262 
L 440.343161 95.749388 
L 441.866503 97.764712 
L 443.389844 100.22146 
L 444.913186 103.110631 
L 446.436527 106.421995 
L 448.467649 111.473914 
L 450.498771 117.225334 
L 452.529894 123.641818 
L 455.068796 132.538927 
L 457.607699 142.331676 
L 460.654382 155.133829 
L 463.701065 168.913061 
L 467.763309 188.460051 
L 473.348894 216.621619 
L 480.965602 254.902976 
L 485.027846 274.188016 
L 488.074529 287.710778 
L 491.121212 300.199888 
L 493.660115 309.686366 
L 496.199017 318.234921 
L 498.230139 324.341982 
L 500.261261 329.757047 
L 502.292383 334.446237 
L 503.815725 337.468752 
L 505.339066 340.055186 
L 506.862408 342.195879 
L 508.385749 343.882494 
L 509.40131 344.751121 
L 510.416871 345.41304 
L 511.432432 345.866761 
L 512.447993 346.111057 
L 513.463554 346.14496 
L 514.479115 345.967764 
L 515.494676 345.579027 
L 516.510238 344.978566 
L 517.525799 344.16646 
L 518.54136 343.143049 
L 520.064701 341.213124 
L 521.588043 338.812315 
L 523.111384 335.94508 
L 524.634726 332.616987 
L 526.158067 328.838602 
L 528.189189 323.132846 
L 530.220311 316.706821 
L 532.251433 309.608763 
L 534.790336 299.866824 
L 537.329238 289.252245 
L 540.375921 275.508303 
L 543.930385 258.319908 
L 547.992629 237.528774 
L 554.593776 202.325555 
L 561.702703 164.637532 
L 565.764947 144.281523 
L 568.81163 130.009801 
L 571.858313 116.85975 
L 574.397215 106.868365 
L 576.936118 97.843526 
L 578.96724 91.374453 
L 580.998362 85.61229 
L 583.029484 80.588503 
L 584.552826 77.32148 
L 586.076167 74.494457 
L 587.599509 72.115467 
L 589.12285 70.191045 
L 590.646192 68.726228 
L 591.661753 68.006829 
L 592.677314 67.493983 
L 593.692875 67.188073 
L 594.708436 67.089186 
L 595.723997 67.197114 
L 596.739558 67.511353 
L 597.755119 68.031102 
L 598.77068 68.755267 
L 599.786241 69.682455 
L 601.309582 71.450135 
L 602.832924 73.663809 
L 604.356265 76.315037 
L 605.879607 79.393882 
L 607.402948 82.888907 
L 609.43407 88.173763 
L 611.465192 94.140535 
L 613.496314 100.74969 
L 616.035217 109.846605 
L 618.57412 119.780886 
L 621.620803 132.653895 
L 622.636364 137.142546 
L 622.636364 137.142546 
" clip-path="url(#p51918535a7)" style="fill: none; stroke: #1f77b4; stroke-width: 1.5; stroke-linecap: square"/>
   </g>
   <g id="line2d_32">
    <path d="M 115.363636 104.874469 
L 116.379197 104.980486 
L 117.394758 105.298364 
L 118.410319 105.827692 
L 119.42588 106.567804 
L 120.441441 107.517353 
L 121.964783 109.330662 
L 123.488124 111.604564 
L 125.011466 114.330733 
L 126.534808 117.499359 
L 128.058149 121.099146 
L 130.089271 126.547253 
L 132.120393 132.704574 
L 134.151515 139.532011 
L 136.690418 148.941497 
L 139.22932 159.235042 
L 142.276003 172.667162 
L 145.830467 189.543994 
L 150.400491 212.519619 
L 164.110565 282.434764 
L 167.665029 299.110026 
L 170.711712 312.463937 
L 173.758395 324.769198 
L 176.297297 334.106024 
L 178.8362 342.515057 
L 180.867322 348.518728 
L 182.898444 353.835963 
L 184.929566 358.429054 
L 186.452907 361.377155 
L 187.976249 363.883614 
L 189.49959 365.934854 
L 191.022932 367.517968 
L 192.038493 368.307234 
L 193.054054 368.879527 
L 194.069615 369.231515 
L 195.085176 369.36 
L 196.100737 369.261914 
L 197.116298 368.934194 
L 198.131859 368.373323 
L 199.14742 367.582427 
L 200.162981 366.5665 
L 201.686323 364.631764 
L 203.209664 362.219473 
L 204.733006 359.347322 
L 206.256347 356.033344 
L 208.287469 350.959217 
L 210.318591 345.176784 
L 212.349713 338.731579 
L 214.888616 329.814133 
L 217.427518 320.027325 
L 220.474201 307.270851 
L 223.520885 293.571473 
L 227.583129 274.143999 
L 232.660934 248.603557 
L 244.847666 186.742373 
L 248.402129 169.956669 
L 251.448812 156.5007 
L 253.987715 146.116226 
L 256.526618 136.627255 
L 258.55774 129.772055 
L 260.588862 123.647637 
L 262.619984 118.325818 
L 264.143325 114.893761 
L 265.666667 111.943482 
L 267.190008 109.475521 
L 268.71335 107.489531 
L 270.236691 105.984274 
L 271.252252 105.246829 
L 272.267813 104.721267 
L 273.283374 104.406561 
L 274.298935 104.301509 
L 275.314496 104.404736 
L 276.330057 104.714688 
L 277.345618 105.229635 
L 278.361179 105.947675 
L 279.37674 106.866728 
L 280.900082 108.617221 
L 282.423423 110.80652 
L 283.946765 113.425382 
L 285.470106 116.463672 
L 286.993448 119.910367 
L 289.02457 125.120539 
L 291.055692 131.004787 
L 293.086814 137.529599 
L 295.625717 146.530809 
L 298.164619 156.398828 
L 301.211302 169.265908 
L 304.257985 183.101729 
L 307.812449 200.237109 
L 312.382473 223.377117 
L 325.076986 288.351984 
L 328.63145 304.985804 
L 331.678133 318.074224 
L 334.217035 327.943627 
L 336.755938 336.812362 
L 338.78706 343.145653 
L 340.818182 348.76583 
L 342.849304 353.644102 
L 344.372645 356.800991 
L 345.895987 359.517846 
L 347.419328 361.787194 
L 348.94267 363.602902 
L 350.466011 364.960168 
L 351.481572 365.608559 
L 352.497133 366.050934 
L 353.512695 366.286863 
L 354.528256 366.316176 
L 355.543817 366.138968 
L 356.559378 365.755599 
L 357.574939 365.166692 
L 358.5905 364.373133 
L 359.606061 363.376073 
L 361.129402 361.502085 
L 362.652744 359.179352 
L 364.176085 356.415096 
L 365.699427 353.217877 
L 367.222768 349.597589 
L 369.25389 344.132035 
L 371.285012 337.964792 
L 373.316134 331.130397 
L 375.855037 321.708668 
L 378.393939 311.390358 
L 381.440622 297.959785 
L 384.995086 281.080095 
L 389.05733 260.599242 
L 397.689599 215.40816 
L 402.767404 189.525406 
L 406.321867 172.424606 
L 409.36855 158.740968 
L 411.907453 148.174665 
L 414.446355 138.476871 
L 416.985258 129.737389 
L 419.01638 123.489265 
L 421.047502 117.94076 
L 423.078624 113.122974 
L 424.601966 110.00539 
L 426.125307 107.32357 
L 427.648649 105.085753 
L 429.17199 103.298781 
L 430.695332 101.9681 
L 431.710893 101.336533 
L 432.726454 100.910448 
L 433.742015 100.690426 
L 434.757576 100.676772 
L 435.773137 100.869515 
L 436.788698 101.268409 
L 437.804259 101.872933 
L 438.81982 102.682289 
L 440.343161 104.277962 
L 441.866503 106.327246 
L 443.389844 108.823963 
L 444.913186 111.760541 
L 446.436527 115.128011 
L 448.467649 120.270134 
L 450.498771 126.13128 
L 452.529894 132.678618 
L 455.068796 141.770594 
L 457.607699 151.79381 
L 460.146601 162.659134 
L 463.193284 176.669934 
L 467.255528 196.562147 
L 473.856675 230.355518 
L 480.457821 263.845085 
L 484.520066 283.348095 
L 488.074529 299.280611 
L 491.121212 311.872918 
L 493.660115 321.492221 
L 496.199017 330.224223 
L 498.230139 336.516885 
L 500.261261 342.152076 
L 502.292383 347.09418 
L 503.815725 350.325935 
L 505.339066 353.136175 
L 506.862408 355.512702 
L 508.385749 357.444129 
L 509.909091 358.919876 
L 510.924652 359.645693 
L 511.940213 360.161931 
L 512.955774 360.466054 
L 513.971335 360.555685 
L 514.986896 360.428608 
L 516.002457 360.082766 
L 517.018018 359.516261 
L 518.033579 358.727357 
L 519.04914 357.714476 
L 520.572482 355.772118 
L 522.095823 353.32283 
L 523.619165 350.384741 
L 525.142506 346.980039 
L 527.173628 341.753154 
L 529.20475 335.78956 
L 531.235872 329.14278 
L 533.774775 319.955678 
L 536.313677 309.891292 
L 539.36036 296.806525 
L 542.914824 280.387453 
L 546.977068 260.467939 
L 553.070434 229.232998 
L 561.702703 184.930359 
L 565.764947 165.187758 
L 569.31941 149.013784 
L 572.366093 136.225337 
L 574.904996 126.483219 
L 577.443898 117.70072 
L 579.47502 111.446786 
L 581.506143 105.946532 
L 583.029484 102.353582 
L 584.552826 99.246312 
L 586.076167 96.622026 
L 587.599509 94.457755 
L 589.12285 92.75932 
L 590.138411 91.888082 
L 591.153972 91.226833 
L 592.169533 90.776221 
L 593.185094 90.536599 
L 594.200655 90.508025 
L 595.216216 90.690258 
L 596.231777 91.082762 
L 597.247338 91.684704 
L 598.262899 92.494957 
L 599.27846 93.512094 
L 600.801802 95.421862 
L 602.325143 97.786118 
L 603.848485 100.596303 
L 605.371826 103.842356 
L 607.402948 108.828247 
L 609.43407 114.53674 
L 611.465192 120.931542 
L 613.496314 127.971621 
L 616.035217 137.608955 
L 618.57412 148.082844 
L 621.620803 161.598103 
L 622.636364 166.298723 
L 622.636364 166.298723 
" clip-path="url(#p51918535a7)" style="fill: none; stroke: #ff7f0e; stroke-width: 1.5; stroke-linecap: square"/>
   </g>
   <g id="line2d_33">
    <path d="M 115.363636 104.874469 
L 116.379197 104.979651 
L 117.394758 105.295029 
L 118.410319 105.820191 
L 119.42588 106.554487 
L 120.441441 107.496613 
L 121.964783 109.295865 
L 123.488124 111.552344 
L 125.011466 114.257894 
L 126.534808 117.402893 
L 128.058149 120.976244 
L 130.089271 126.385106 
L 132.120393 132.499121 
L 134.151515 139.279787 
L 136.690418 148.626919 
L 139.22932 158.853872 
L 142.276003 172.180315 
L 145.830467 188.913428 
L 150.400491 211.708417 
L 164.618346 283.81767 
L 168.172809 300.359001 
L 171.219492 313.57756 
L 173.758395 323.776413 
L 176.297297 333.1242 
L 178.8362 341.522746 
L 180.867322 347.494419 
L 182.898444 352.75113 
L 184.421785 356.197125 
L 185.945127 359.196803 
L 187.468468 361.732022 
L 188.99181 363.786703 
L 190.515152 365.362856 
L 191.530713 366.148437 
L 192.546274 366.721697 
L 193.561835 367.082756 
L 194.577396 367.231968 
L 195.592957 367.169926 
L 196.608518 366.897455 
L 197.624079 366.415616 
L 198.63964 365.725708 
L 199.655201 364.829263 
L 201.178542 363.101273 
L 202.701884 360.919574 
L 204.225225 358.292321 
L 205.748567 355.228862 
L 207.271908 351.73974 
L 209.30303 346.445887 
L 211.334152 340.447407 
L 213.365274 333.779183 
L 215.904177 324.561316 
L 218.443079 314.441415 
L 221.489762 301.238406 
L 224.536446 287.048993 
L 228.59869 266.939025 
L 234.184275 237.966771 
L 241.800983 198.497757 
L 245.863227 178.542566 
L 249.41769 162.253435 
L 252.464373 149.417862 
L 255.003276 139.65318 
L 257.542179 130.833818 
L 259.573301 124.514069 
L 261.604423 118.888696 
L 263.635545 113.990525 
L 265.158886 110.811508 
L 266.682228 108.068273 
L 268.205569 105.770028 
L 269.728911 103.92466 
L 271.252252 102.538728 
L 272.267813 101.872654 
L 273.283374 101.414351 
L 274.298935 101.164781 
L 275.314496 101.124644 
L 276.330057 101.294378 
L 277.345618 101.67416 
L 278.361179 102.263904 
L 279.37674 103.063263 
L 280.392301 104.071628 
L 281.915643 105.974087 
L 283.438984 108.340747 
L 284.962326 111.16624 
L 286.485667 114.444226 
L 288.009009 118.161298 
L 290.040131 123.765976 
L 292.071253 130.067421 
L 294.102375 137.015964 
L 296.641278 146.533954 
L 299.18018 156.881266 
L 302.226863 170.244477 
L 305.781327 186.902271 
L 310.351351 209.531832 
L 325.584767 286.154381 
L 329.13923 302.252572 
L 332.185913 314.904363 
L 334.724816 324.476531 
L 337.263718 333.097721 
L 339.29484 339.251876 
L 341.325962 344.702902 
L 343.357084 349.416469 
L 344.880426 352.449816 
L 346.403767 355.04112 
L 347.927109 357.181357 
L 349.45045 358.863063 
L 350.466011 359.726481 
L 351.481572 360.382086 
L 352.497133 360.828823 
L 353.512695 361.065943 
L 354.528256 361.093005 
L 355.543817 360.909879 
L 356.559378 360.51674 
L 357.574939 359.914071 
L 358.5905 359.102666 
L 359.606061 358.083625 
L 361.129402 356.168909 
L 362.652744 353.796306 
L 364.176085 350.973428 
L 365.699427 347.709447 
L 367.222768 344.015096 
L 369.25389 338.441299 
L 371.285012 332.15788 
L 373.316134 325.203218 
L 375.855037 315.632401 
L 378.393939 305.175838 
L 381.440622 291.581534 
L 384.995086 274.550693 
L 389.565111 251.37967 
L 404.290745 175.554374 
L 407.845209 158.84072 
L 410.891892 145.511581 
L 413.430794 135.25089 
L 415.969697 125.873111 
L 418.000819 119.075898 
L 420.031941 112.961189 
L 422.063063 107.579313 
L 423.586405 104.053405 
L 425.109746 100.979439 
L 426.633088 98.361727 
L 428.156429 96.205217 
L 429.679771 94.513601 
L 430.695332 93.645387 
L 431.710893 92.985316 
L 432.726454 92.533553 
L 433.742015 92.290013 
L 434.757576 92.254367 
L 435.773137 92.426037 
L 436.788698 92.804196 
L 437.804259 93.387769 
L 438.81982 94.175436 
L 440.343161 95.736109 
L 441.866503 97.746059 
L 443.389844 100.197687 
L 444.913186 103.082142 
L 446.436527 106.389318 
L 448.467649 111.436632 
L 450.498771 117.184706 
L 452.529894 123.599176 
L 455.068796 132.495612 
L 457.607699 142.289537 
L 460.654382 155.094949 
L 463.701065 168.878405 
L 467.763309 188.429841 
L 473.856675 219.173603 
L 480.965602 254.860695 
L 485.027846 274.142335 
L 488.074529 287.660029 
L 491.121212 300.143621 
L 493.660115 309.625987 
L 496.199017 318.171381 
L 498.230139 324.276795 
L 500.261261 329.691076 
L 502.292383 334.380336 
L 503.815725 337.403419 
L 505.339066 339.990799 
L 506.862408 342.132734 
L 508.385749 343.820779 
L 509.40131 344.690402 
L 510.416871 345.353301 
L 511.432432 345.807937 
L 512.447993 346.053029 
L 513.463554 346.087554 
L 514.479115 345.910743 
L 515.494676 345.522087 
L 516.510238 344.921333 
L 517.525799 344.108483 
L 518.54136 343.083799 
L 520.064701 341.150785 
L 521.588043 338.745198 
L 523.111384 335.87117 
L 524.634726 332.534588 
L 526.158067 328.750019 
L 528.189189 323.039616 
L 530.220311 316.612104 
L 532.251433 309.514786 
L 534.790336 299.775647 
L 537.329238 289.164677 
L 540.375921 275.424579 
L 543.930385 258.238251 
L 547.992629 237.444755 
L 554.593776 202.226872 
L 561.702703 164.517706 
L 565.764947 144.156276 
L 568.81163 129.888857 
L 571.858313 116.74555 
L 574.397215 106.753774 
L 576.936118 97.728298 
L 578.96724 91.258498 
L 580.998362 85.495394 
L 583.029484 80.470434 
L 584.552826 77.202376 
L 586.076167 74.374184 
L 587.599509 71.993893 
L 589.12285 70.068043 
L 590.646192 68.601679 
L 591.661753 67.881186 
L 592.677314 67.3672 
L 593.692875 67.060107 
L 594.708436 66.96 
L 595.723997 67.066674 
L 596.739558 67.379631 
L 597.755119 67.898076 
L 598.77068 68.62092 
L 599.786241 69.546778 
L 601.309582 71.312458 
L 602.832924 73.524153 
L 604.356265 76.173448 
L 605.879607 79.250438 
L 607.402948 82.743718 
L 609.43407 88.02648 
L 611.465192 93.991505 
L 613.496314 100.599358 
L 616.035217 109.69543 
L 618.57412 119.629945 
L 621.620803 132.504995 
L 622.636364 136.994823 
L 622.636364 136.994823 
" clip-path="url(#p51918535a7)" style="fill: none; stroke: #2ca02c; stroke-width: 1.5; stroke-linecap: square"/>
   </g>
   <g id="patch_3">
    <path d="M 90 384.48 
L 90 51.84 
" style="fill: none; stroke: #000000; stroke-width: 0.8; stroke-linejoin: miter; stroke-linecap: square"/>
   </g>
   <g id="patch_4">
    <path d="M 648 384.48 
L 648 51.84 
" style="fill: none; stroke: #000000; stroke-width: 0.8; stroke-linejoin: miter; stroke-linecap: square"/>
   </g>
   <g id="patch_5">
    <path d="M 90 384.48 
L 648 384.48 
" style="fill: none; stroke: #000000; stroke-width: 0.8; stroke-linejoin: miter; stroke-linecap: square"/>
   </g>
   <g id="patch_6">
    <path d="M 90 51.84 
L 648 51.84 
" style="fill: none; stroke: #000000; stroke-width: 0.8; stroke-linejoin: miter; stroke-linecap: square"/>
   </g>
   <g id="text_18">
    <!-- Simulation: A=1.0, $\omega$=10.0, l=8.2, $\theta_0$=3.266592653589793 -->
    <g transform="translate(189.9 45.84) scale(0.12 -0.12)">
     <defs>
      <path id="DejaVuSans-53" d="M 3425 4513 
L 3425 3897 
Q 3066 4069 2747 4153 
Q 2428 4238 2131 4238 
Q 1616 4238 1336 4038 
Q 1056 3838 1056 3469 
Q 1056 3159 1242 3001 
Q 1428 2844 1947 2747 
L 2328 2669 
Q 3034 2534 3370 2195 
Q 3706 1856 3706 1288 
Q 3706 609 3251 259 
Q 2797 -91 1919 -91 
Q 1588 -91 1214 -16 
Q 841 59 441 206 
L 441 856 
Q 825 641 1194 531 
Q 1563 422 1919 422 
Q 2459 422 2753 634 
Q 3047 847 3047 1241 
Q 3047 1584 2836 1778 
Q 2625 1972 2144 2069 
L 1759 2144 
Q 1053 2284 737 2584 
Q 422 2884 422 3419 
Q 422 4038 858 4394 
Q 1294 4750 2059 4750 
Q 2388 4750 2728 4690 
Q 3069 4631 3425 4513 
z
" transform="scale(0.015625)"/>
      <path id="DejaVuSans-75" d="M 544 1381 
L 544 3500 
L 1119 3500 
L 1119 1403 
Q 1119 906 1312 657 
Q 1506 409 1894 409 
Q 2359 409 2629 706 
Q 2900 1003 2900 1516 
L 2900 3500 
L 3475 3500 
L 3475 0 
L 2900 0 
L 2900 538 
Q 2691 219 2414 64 
Q 2138 -91 1772 -91 
Q 1169 -91 856 284 
Q 544 659 544 1381 
z
M 1991 3584 
L 1991 3584 
z
" transform="scale(0.015625)"/>
      <path id="DejaVuSans-6c" d="M 603 4863 
L 1178 4863 
L 1178 0 
L 603 0 
L 603 4863 
z
" transform="scale(0.015625)"/>
      <path id="DejaVuSans-61" d="M 2194 1759 
Q 1497 1759 1228 1600 
Q 959 1441 959 1056 
Q 959 750 1161 570 
Q 1363 391 1709 391 
Q 2188 391 2477 730 
Q 2766 1069 2766 1631 
L 2766 1759 
L 2194 1759 
z
M 3341 1997 
L 3341 0 
L 2766 0 
L 2766 531 
Q 2569 213 2275 61 
Q 1981 -91 1556 -91 
Q 1019 -91 701 211 
Q 384 513 384 1019 
Q 384 1609 779 1909 
Q 1175 2209 1959 2209 
L 2766 2209 
L 2766 2266 
Q 2766 2663 2505 2880 
Q 2244 3097 1772 3097 
Q 1472 3097 1187 3025 
Q 903 2953 641 2809 
L 641 3341 
Q 956 3463 1253 3523 
Q 1550 3584 1831 3584 
Q 2591 3584 2966 3190 
Q 3341 2797 3341 1997 
z
" transform="scale(0.015625)"/>
      <path id="DejaVuSans-6f" d="M 1959 3097 
Q 1497 3097 1228 2736 
Q 959 2375 959 1747 
Q 959 1119 1226 758 
Q 1494 397 1959 397 
Q 2419 397 2687 759 
Q 2956 1122 2956 1747 
Q 2956 2369 2687 2733 
Q 2419 3097 1959 3097 
z
M 1959 3584 
Q 2709 3584 3137 3096 
Q 3566 2609 3566 1747 
Q 3566 888 3137 398 
Q 2709 -91 1959 -91 
Q 1206 -91 779 398 
Q 353 888 353 1747 
Q 353 2609 779 3096 
Q 1206 3584 1959 3584 
z
" transform="scale(0.015625)"/>
      <path id="DejaVuSans-6e" d="M 3513 2113 
L 3513 0 
L 2938 0 
L 2938 2094 
Q 2938 2591 2744 2837 
Q 2550 3084 2163 3084 
Q 1697 3084 1428 2787 
Q 1159 2491 1159 1978 
L 1159 0 
L 581 0 
L 581 3500 
L 1159 3500 
L 1159 2956 
Q 1366 3272 1645 3428 
Q 1925 3584 2291 3584 
Q 2894 3584 3203 3211 
Q 3513 2838 3513 2113 
z
" transform="scale(0.015625)"/>
      <path id="DejaVuSans-3a" d="M 750 794 
L 1409 794 
L 1409 0 
L 750 0 
L 750 794 
z
M 750 3309 
L 1409 3309 
L 1409 2516 
L 750 2516 
L 750 3309 
z
" transform="scale(0.015625)"/>
      <path id="DejaVuSans-41" d="M 2188 4044 
L 1331 1722 
L 3047 1722 
L 2188 4044 
z
M 1831 4666 
L 2547 4666 
L 4325 0 
L 3669 0 
L 3244 1197 
L 1141 1197 
L 716 0 
L 50 0 
L 1831 4666 
z
" transform="scale(0.015625)"/>
      <path id="DejaVuSans-3d" d="M 678 2906 
L 4684 2906 
L 4684 2381 
L 678 2381 
L 678 2906 
z
M 678 1631 
L 4684 1631 
L 4684 1100 
L 678 1100 
L 678 1631 
z
" transform="scale(0.015625)"/>
      <path id="DejaVuSans-2c" d="M 750 794 
L 1409 794 
L 1409 256 
L 897 -744 
L 494 -744 
L 750 256 
L 750 794 
z
" transform="scale(0.015625)"/>
      <path id="DejaVuSans-Oblique-3c9" d="M 1369 -91 
Q 72 -91 434 1766 
Q 575 2500 1256 3500 
L 1875 3500 
Q 1231 2500 1088 1750 
Q 819 397 1519 397 
Q 2166 397 2478 2078 
L 3009 2078 
Q 2669 388 3316 397 
Q 4013 403 4275 1750 
Q 4419 2500 4169 3500 
L 4788 3500 
Q 5075 2500 4934 1766 
Q 4578 -94 3278 -91 
Q 2428 -88 2503 844 
Q 2194 -91 1369 -91 
z
" transform="scale(0.015625)"/>
      <path id="DejaVuSans-38" d="M 2034 2216 
Q 1584 2216 1326 1975 
Q 1069 1734 1069 1313 
Q 1069 891 1326 650 
Q 1584 409 2034 409 
Q 2484 409 2743 651 
Q 3003 894 3003 1313 
Q 3003 1734 2745 1975 
Q 2488 2216 2034 2216 
z
M 1403 2484 
Q 997 2584 770 2862 
Q 544 3141 544 3541 
Q 544 4100 942 4425 
Q 1341 4750 2034 4750 
Q 2731 4750 3128 4425 
Q 3525 4100 3525 3541 
Q 3525 3141 3298 2862 
Q 3072 2584 2669 2484 
Q 3125 2378 3379 2068 
Q 3634 1759 3634 1313 
Q 3634 634 3220 271 
Q 2806 -91 2034 -91 
Q 1263 -91 848 271 
Q 434 634 434 1313 
Q 434 1759 690 2068 
Q 947 2378 1403 2484 
z
M 1172 3481 
Q 1172 3119 1398 2916 
Q 1625 2713 2034 2713 
Q 2441 2713 2670 2916 
Q 2900 3119 2900 3481 
Q 2900 3844 2670 4047 
Q 2441 4250 2034 4250 
Q 1625 4250 1398 4047 
Q 1172 3844 1172 3481 
z
" transform="scale(0.015625)"/>
      <path id="DejaVuSans-36" d="M 2113 2584 
Q 1688 2584 1439 2293 
Q 1191 2003 1191 1497 
Q 1191 994 1439 701 
Q 1688 409 2113 409 
Q 2538 409 2786 701 
Q 3034 994 3034 1497 
Q 3034 2003 2786 2293 
Q 2538 2584 2113 2584 
z
M 3366 4563 
L 3366 3988 
Q 3128 4100 2886 4159 
Q 2644 4219 2406 4219 
Q 1781 4219 1451 3797 
Q 1122 3375 1075 2522 
Q 1259 2794 1537 2939 
Q 1816 3084 2150 3084 
Q 2853 3084 3261 2657 
Q 3669 2231 3669 1497 
Q 3669 778 3244 343 
Q 2819 -91 2113 -91 
Q 1303 -91 875 529 
Q 447 1150 447 2328 
Q 447 3434 972 4092 
Q 1497 4750 2381 4750 
Q 2619 4750 2861 4703 
Q 3103 4656 3366 4563 
z
" transform="scale(0.015625)"/>
      <path id="DejaVuSans-39" d="M 703 97 
L 703 672 
Q 941 559 1184 500 
Q 1428 441 1663 441 
Q 2288 441 2617 861 
Q 2947 1281 2994 2138 
Q 2813 1869 2534 1725 
Q 2256 1581 1919 1581 
Q 1219 1581 811 2004 
Q 403 2428 403 3163 
Q 403 3881 828 4315 
Q 1253 4750 1959 4750 
Q 2769 4750 3195 4129 
Q 3622 3509 3622 2328 
Q 3622 1225 3098 567 
Q 2575 -91 1691 -91 
Q 1453 -91 1209 -44 
Q 966 3 703 97 
z
M 1959 2075 
Q 2384 2075 2632 2365 
Q 2881 2656 2881 3163 
Q 2881 3666 2632 3958 
Q 2384 4250 1959 4250 
Q 1534 4250 1286 3958 
Q 1038 3666 1038 3163 
Q 1038 2656 1286 2365 
Q 1534 2075 1959 2075 
z
" transform="scale(0.015625)"/>
     </defs>
     <use xlink:href="#DejaVuSans-53" transform="translate(0 0.234375)"/>
     <use xlink:href="#DejaVuSans-69" transform="translate(63.476562 0.234375)"/>
     <use xlink:href="#DejaVuSans-6d" transform="translate(91.259766 0.234375)"/>
     <use xlink:href="#DejaVuSans-75" transform="translate(188.671875 0.234375)"/>
     <use xlink:href="#DejaVuSans-6c" transform="translate(252.050781 0.234375)"/>
     <use xlink:href="#DejaVuSans-61" transform="translate(279.833984 0.234375)"/>
     <use xlink:href="#DejaVuSans-74" transform="translate(341.113281 0.234375)"/>
     <use xlink:href="#DejaVuSans-69" transform="translate(380.322266 0.234375)"/>
     <use xlink:href="#DejaVuSans-6f" transform="translate(408.105469 0.234375)"/>
     <use xlink:href="#DejaVuSans-6e" transform="translate(469.287109 0.234375)"/>
     <use xlink:href="#DejaVuSans-3a" transform="translate(532.666016 0.234375)"/>
     <use xlink:href="#DejaVuSans-20" transform="translate(566.357422 0.234375)"/>
     <use xlink:href="#DejaVuSans-41" transform="translate(598.144531 0.234375)"/>
     <use xlink:href="#DejaVuSans-3d" transform="translate(666.552734 0.234375)"/>
     <use xlink:href="#DejaVuSans-31" transform="translate(750.341797 0.234375)"/>
     <use xlink:href="#DejaVuSans-2e" transform="translate(813.964844 0.234375)"/>
     <use xlink:href="#DejaVuSans-30" transform="translate(845.751953 0.234375)"/>
     <use xlink:href="#DejaVuSans-2c" transform="translate(909.375 0.234375)"/>
     <use xlink:href="#DejaVuSans-20" transform="translate(941.162109 0.234375)"/>
     <use xlink:href="#DejaVuSans-Oblique-3c9" transform="translate(972.949219 0.234375)"/>
     <use xlink:href="#DejaVuSans-3d" transform="translate(1056.689453 0.234375)"/>
     <use xlink:href="#DejaVuSans-31" transform="translate(1140.478516 0.234375)"/>
     <use xlink:href="#DejaVuSans-30" transform="translate(1204.101562 0.234375)"/>
     <use xlink:href="#DejaVuSans-2e" transform="translate(1267.724609 0.234375)"/>
     <use xlink:href="#DejaVuSans-30" transform="translate(1299.511719 0.234375)"/>
     <use xlink:href="#DejaVuSans-2c" transform="translate(1363.134766 0.234375)"/>
     <use xlink:href="#DejaVuSans-20" transform="translate(1394.921875 0.234375)"/>
     <use xlink:href="#DejaVuSans-6c" transform="translate(1426.708984 0.234375)"/>
     <use xlink:href="#DejaVuSans-3d" transform="translate(1454.492188 0.234375)"/>
     <use xlink:href="#DejaVuSans-38" transform="translate(1538.28125 0.234375)"/>
     <use xlink:href="#DejaVuSans-2e" transform="translate(1601.904297 0.234375)"/>
     <use xlink:href="#DejaVuSans-32" transform="translate(1628.191406 0.234375)"/>
     <use xlink:href="#DejaVuSans-2c" transform="translate(1691.814453 0.234375)"/>
     <use xlink:href="#DejaVuSans-20" transform="translate(1723.601562 0.234375)"/>
     <use xlink:href="#DejaVuSans-Oblique-3b8" transform="translate(1755.388672 0.234375)"/>
     <use xlink:href="#DejaVuSans-30" transform="translate(1816.570312 -16.171875) scale(0.7)"/>
     <use xlink:href="#DejaVuSans-3d" transform="translate(1863.84082 0.234375)"/>
     <use xlink:href="#DejaVuSans-33" transform="translate(1947.629883 0.234375)"/>
     <use xlink:href="#DejaVuSans-2e" transform="translate(2011.25293 0.234375)"/>
     <use xlink:href="#DejaVuSans-32" transform="translate(2037.540039 0.234375)"/>
     <use xlink:href="#DejaVuSans-36" transform="translate(2101.163086 0.234375)"/>
     <use xlink:href="#DejaVuSans-36" transform="translate(2164.786133 0.234375)"/>
     <use xlink:href="#DejaVuSans-35" transform="translate(2228.40918 0.234375)"/>
     <use xlink:href="#DejaVuSans-39" transform="translate(2286.532227 0.234375)"/>
     <use xlink:href="#DejaVuSans-32" transform="translate(2348.405273 0.234375)"/>
     <use xlink:href="#DejaVuSans-36" transform="translate(2412.02832 0.234375)"/>
     <use xlink:href="#DejaVuSans-35" transform="translate(2475.651367 0.234375)"/>
     <use xlink:href="#DejaVuSans-33" transform="translate(2539.274414 0.234375)"/>
     <use xlink:href="#DejaVuSans-35" transform="translate(2602.897461 0.234375)"/>
     <use xlink:href="#DejaVuSans-38" transform="translate(2666.520508 0.234375)"/>
     <use xlink:href="#DejaVuSans-39" transform="translate(2730.143555 0.234375)"/>
     <use xlink:href="#DejaVuSans-37" transform="translate(2793.766602 0.234375)"/>
     <use xlink:href="#DejaVuSans-39" transform="translate(2857.389648 0.234375)"/>
     <use xlink:href="#DejaVuSans-33" transform="translate(2921.012695 0.234375)"/>
    </g>
   </g>
   <g id="legend_1">
    <g id="patch_7">
     <path d="M 97 103.874375 
L 197.403125 103.874375 
Q 199.403125 103.874375 199.403125 101.874375 
L 199.403125 58.84 
Q 199.403125 56.84 197.403125 56.84 
L 97 56.84 
Q 95 56.84 95 58.84 
L 95 101.874375 
Q 95 103.874375 97 103.874375 
z
" style="fill: #ffffff; opacity: 0.8; stroke: #cccccc; stroke-linejoin: miter"/>
    </g>
    <g id="line2d_34">
     <path d="M 99 64.938437 
L 109 64.938437 
L 119 64.938437 
" style="fill: none; stroke: #1f77b4; stroke-width: 1.5; stroke-linecap: square"/>
    </g>
    <g id="text_19">
     <!-- Original -->
     <g transform="translate(127 68.438437) scale(0.1 -0.1)">
      <defs>
       <path id="DejaVuSans-4f" d="M 2522 4238 
Q 1834 4238 1429 3725 
Q 1025 3213 1025 2328 
Q 1025 1447 1429 934 
Q 1834 422 2522 422 
Q 3209 422 3611 934 
Q 4013 1447 4013 2328 
Q 4013 3213 3611 3725 
Q 3209 4238 2522 4238 
z
M 2522 4750 
Q 3503 4750 4090 4092 
Q 4678 3434 4678 2328 
Q 4678 1225 4090 567 
Q 3503 -91 2522 -91 
Q 1538 -91 948 565 
Q 359 1222 359 2328 
Q 359 3434 948 4092 
Q 1538 4750 2522 4750 
z
" transform="scale(0.015625)"/>
       <path id="DejaVuSans-72" d="M 2631 2963 
Q 2534 3019 2420 3045 
Q 2306 3072 2169 3072 
Q 1681 3072 1420 2755 
Q 1159 2438 1159 1844 
L 1159 0 
L 581 0 
L 581 3500 
L 1159 3500 
L 1159 2956 
Q 1341 3275 1631 3429 
Q 1922 3584 2338 3584 
Q 2397 3584 2469 3576 
Q 2541 3569 2628 3553 
L 2631 2963 
z
" transform="scale(0.015625)"/>
       <path id="DejaVuSans-67" d="M 2906 1791 
Q 2906 2416 2648 2759 
Q 2391 3103 1925 3103 
Q 1463 3103 1205 2759 
Q 947 2416 947 1791 
Q 947 1169 1205 825 
Q 1463 481 1925 481 
Q 2391 481 2648 825 
Q 2906 1169 2906 1791 
z
M 3481 434 
Q 3481 -459 3084 -895 
Q 2688 -1331 1869 -1331 
Q 1566 -1331 1297 -1286 
Q 1028 -1241 775 -1147 
L 775 -588 
Q 1028 -725 1275 -790 
Q 1522 -856 1778 -856 
Q 2344 -856 2625 -561 
Q 2906 -266 2906 331 
L 2906 616 
Q 2728 306 2450 153 
Q 2172 0 1784 0 
Q 1141 0 747 490 
Q 353 981 353 1791 
Q 353 2603 747 3093 
Q 1141 3584 1784 3584 
Q 2172 3584 2450 3431 
Q 2728 3278 2906 2969 
L 2906 3500 
L 3481 3500 
L 3481 434 
z
" transform="scale(0.015625)"/>
      </defs>
      <use xlink:href="#DejaVuSans-4f"/>
      <use xlink:href="#DejaVuSans-72" x="78.710938"/>
      <use xlink:href="#DejaVuSans-69" x="119.824219"/>
      <use xlink:href="#DejaVuSans-67" x="147.607422"/>
      <use xlink:href="#DejaVuSans-69" x="211.083984"/>
      <use xlink:href="#DejaVuSans-6e" x="238.867188"/>
      <use xlink:href="#DejaVuSans-61" x="302.246094"/>
      <use xlink:href="#DejaVuSans-6c" x="363.525391"/>
     </g>
    </g>
    <g id="line2d_35">
     <path d="M 99 79.616562 
L 109 79.616562 
L 119 79.616562 
" style="fill: none; stroke: #ff7f0e; stroke-width: 1.5; stroke-linecap: square"/>
    </g>
    <g id="text_20">
     <!-- First-Order -->
     <g transform="translate(127 83.116562) scale(0.1 -0.1)">
      <defs>
       <path id="DejaVuSans-46" d="M 628 4666 
L 3309 4666 
L 3309 4134 
L 1259 4134 
L 1259 2759 
L 3109 2759 
L 3109 2228 
L 1259 2228 
L 1259 0 
L 628 0 
L 628 4666 
z
" transform="scale(0.015625)"/>
       <path id="DejaVuSans-73" d="M 2834 3397 
L 2834 2853 
Q 2591 2978 2328 3040 
Q 2066 3103 1784 3103 
Q 1356 3103 1142 2972 
Q 928 2841 928 2578 
Q 928 2378 1081 2264 
Q 1234 2150 1697 2047 
L 1894 2003 
Q 2506 1872 2764 1633 
Q 3022 1394 3022 966 
Q 3022 478 2636 193 
Q 2250 -91 1575 -91 
Q 1294 -91 989 -36 
Q 684 19 347 128 
L 347 722 
Q 666 556 975 473 
Q 1284 391 1588 391 
Q 1994 391 2212 530 
Q 2431 669 2431 922 
Q 2431 1156 2273 1281 
Q 2116 1406 1581 1522 
L 1381 1569 
Q 847 1681 609 1914 
Q 372 2147 372 2553 
Q 372 3047 722 3315 
Q 1072 3584 1716 3584 
Q 2034 3584 2315 3537 
Q 2597 3491 2834 3397 
z
" transform="scale(0.015625)"/>
       <path id="DejaVuSans-2d" d="M 313 2009 
L 1997 2009 
L 1997 1497 
L 313 1497 
L 313 2009 
z
" transform="scale(0.015625)"/>
       <path id="DejaVuSans-64" d="M 2906 2969 
L 2906 4863 
L 3481 4863 
L 3481 0 
L 2906 0 
L 2906 525 
Q 2725 213 2448 61 
Q 2172 -91 1784 -91 
Q 1150 -91 751 415 
Q 353 922 353 1747 
Q 353 2572 751 3078 
Q 1150 3584 1784 3584 
Q 2172 3584 2448 3432 
Q 2725 3281 2906 2969 
z
M 947 1747 
Q 947 1113 1208 752 
Q 1469 391 1925 391 
Q 2381 391 2643 752 
Q 2906 1113 2906 1747 
Q 2906 2381 2643 2742 
Q 2381 3103 1925 3103 
Q 1469 3103 1208 2742 
Q 947 2381 947 1747 
z
" transform="scale(0.015625)"/>
      </defs>
      <use xlink:href="#DejaVuSans-46"/>
      <use xlink:href="#DejaVuSans-69" x="50.269531"/>
      <use xlink:href="#DejaVuSans-72" x="78.052734"/>
      <use xlink:href="#DejaVuSans-73" x="119.166016"/>
      <use xlink:href="#DejaVuSans-74" x="171.265625"/>
      <use xlink:href="#DejaVuSans-2d" x="210.474609"/>
      <use xlink:href="#DejaVuSans-4f" x="249.308594"/>
      <use xlink:href="#DejaVuSans-72" x="328.019531"/>
      <use xlink:href="#DejaVuSans-64" x="367.382812"/>
      <use xlink:href="#DejaVuSans-65" x="430.859375"/>
      <use xlink:href="#DejaVuSans-72" x="492.382812"/>
     </g>
    </g>
    <g id="line2d_36">
     <path d="M 99 94.294687 
L 109 94.294687 
L 119 94.294687 
" style="fill: none; stroke: #2ca02c; stroke-width: 1.5; stroke-linecap: square"/>
    </g>
    <g id="text_21">
     <!-- Second Order -->
     <g transform="translate(127 97.794687) scale(0.1 -0.1)">
      <defs>
       <path id="DejaVuSans-63" d="M 3122 3366 
L 3122 2828 
Q 2878 2963 2633 3030 
Q 2388 3097 2138 3097 
Q 1578 3097 1268 2742 
Q 959 2388 959 1747 
Q 959 1106 1268 751 
Q 1578 397 2138 397 
Q 2388 397 2633 464 
Q 2878 531 3122 666 
L 3122 134 
Q 2881 22 2623 -34 
Q 2366 -91 2075 -91 
Q 1284 -91 818 406 
Q 353 903 353 1747 
Q 353 2603 823 3093 
Q 1294 3584 2113 3584 
Q 2378 3584 2631 3529 
Q 2884 3475 3122 3366 
z
" transform="scale(0.015625)"/>
      </defs>
      <use xlink:href="#DejaVuSans-53"/>
      <use xlink:href="#DejaVuSans-65" x="63.476562"/>
      <use xlink:href="#DejaVuSans-63" x="125"/>
      <use xlink:href="#DejaVuSans-6f" x="179.980469"/>
      <use xlink:href="#DejaVuSans-6e" x="241.162109"/>
      <use xlink:href="#DejaVuSans-64" x="304.541016"/>
      <use xlink:href="#DejaVuSans-20" x="368.017578"/>
      <use xlink:href="#DejaVuSans-4f" x="399.804688"/>
      <use xlink:href="#DejaVuSans-72" x="478.515625"/>
      <use xlink:href="#DejaVuSans-64" x="517.878906"/>
      <use xlink:href="#DejaVuSans-65" x="581.355469"/>
      <use xlink:href="#DejaVuSans-72" x="642.878906"/>
     </g>
    </g>
   </g>
  </g>
 </g>
 <defs>
  <clipPath id="p51918535a7">
   <rect x="90" y="51.84" width="558" height="332.64"/>
  </clipPath>
 </defs>
</svg>
