<?xml version="1.0" encoding="utf-8" standalone="no"?>
<!DOCTYPE svg PUBLIC "-//W3C//DTD SVG 1.1//EN"
  "http://www.w3.org/Graphics/SVG/1.1/DTD/svg11.dtd">
<svg xmlns:xlink="http://www.w3.org/1999/xlink" width="720pt" height="432pt" viewBox="0 0 720 432" xmlns="http://www.w3.org/2000/svg" version="1.1">
 <metadata>
  <rdf:RDF xmlns:dc="http://purl.org/dc/elements/1.1/" xmlns:cc="http://creativecommons.org/ns#" xmlns:rdf="http://www.w3.org/1999/02/22-rdf-syntax-ns#">
   <cc:Work>
    <dc:type rdf:resource="http://purl.org/dc/dcmitype/StillImage"/>
    <dc:date>2024-12-31T23:33:36.902490</dc:date>
    <dc:format>image/svg+xml</dc:format>
    <dc:creator>
     <cc:Agent>
      <dc:title>Matplotlib v3.7.2, https://matplotlib.org/</dc:title>
     </cc:Agent>
    </dc:creator>
   </cc:Work>
  </rdf:RDF>
 </metadata>
 <defs>
  <style type="text/css">*{stroke-linejoin: round; stroke-linecap: butt}</style>
 </defs>
 <g id="figure_1">
  <g id="patch_1">
   <path d="M 0 432 
L 720 432 
L 720 0 
L 0 0 
z
" style="fill: #ffffff"/>
  </g>
  <g id="axes_1">
   <g id="patch_2">
    <path d="M 90 384.48 
L 648 384.48 
L 648 51.84 
L 90 51.84 
z
" style="fill: #ffffff"/>
   </g>
   <g id="matplotlib.axis_1">
    <g id="xtick_1">
     <g id="line2d_1">
      <path d="M 115.363636 384.48 
L 115.363636 51.84 
" clip-path="url(#p9a88d77a48)" style="fill: none; stroke: #b0b0b0; stroke-width: 0.8; stroke-linecap: square"/>
     </g>
     <g id="line2d_2">
      <defs>
       <path id="ma606b01cf9" d="M 0 0 
L 0 3.5 
" style="stroke: #000000; stroke-width: 0.8"/>
      </defs>
      <g>
       <use xlink:href="#ma606b01cf9" x="115.363636" y="384.48" style="stroke: #000000; stroke-width: 0.8"/>
      </g>
     </g>
     <g id="text_1">
      <!-- 0.00 -->
      <g transform="translate(104.230824 399.078438) scale(0.1 -0.1)">
       <defs>
        <path id="DejaVuSans-30" d="M 2034 4250 
Q 1547 4250 1301 3770 
Q 1056 3291 1056 2328 
Q 1056 1369 1301 889 
Q 1547 409 2034 409 
Q 2525 409 2770 889 
Q 3016 1369 3016 2328 
Q 3016 3291 2770 3770 
Q 2525 4250 2034 4250 
z
M 2034 4750 
Q 2819 4750 3233 4129 
Q 3647 3509 3647 2328 
Q 3647 1150 3233 529 
Q 2819 -91 2034 -91 
Q 1250 -91 836 529 
Q 422 1150 422 2328 
Q 422 3509 836 4129 
Q 1250 4750 2034 4750 
z
" transform="scale(0.015625)"/>
        <path id="DejaVuSans-2e" d="M 684 794 
L 1344 794 
L 1344 0 
L 684 0 
L 684 794 
z
" transform="scale(0.015625)"/>
       </defs>
       <use xlink:href="#DejaVuSans-30"/>
       <use xlink:href="#DejaVuSans-2e" x="63.623047"/>
       <use xlink:href="#DejaVuSans-30" x="95.410156"/>
       <use xlink:href="#DejaVuSans-30" x="159.033203"/>
      </g>
     </g>
    </g>
    <g id="xtick_2">
     <g id="line2d_3">
      <path d="M 178.772727 384.48 
L 178.772727 51.84 
" clip-path="url(#p9a88d77a48)" style="fill: none; stroke: #b0b0b0; stroke-width: 0.8; stroke-linecap: square"/>
     </g>
     <g id="line2d_4">
      <g>
       <use xlink:href="#ma606b01cf9" x="178.772727" y="384.48" style="stroke: #000000; stroke-width: 0.8"/>
      </g>
     </g>
     <g id="text_2">
      <!-- 0.25 -->
      <g transform="translate(167.639915 399.078438) scale(0.1 -0.1)">
       <defs>
        <path id="DejaVuSans-32" d="M 1228 531 
L 3431 531 
L 3431 0 
L 469 0 
L 469 531 
Q 828 903 1448 1529 
Q 2069 2156 2228 2338 
Q 2531 2678 2651 2914 
Q 2772 3150 2772 3378 
Q 2772 3750 2511 3984 
Q 2250 4219 1831 4219 
Q 1534 4219 1204 4116 
Q 875 4013 500 3803 
L 500 4441 
Q 881 4594 1212 4672 
Q 1544 4750 1819 4750 
Q 2544 4750 2975 4387 
Q 3406 4025 3406 3419 
Q 3406 3131 3298 2873 
Q 3191 2616 2906 2266 
Q 2828 2175 2409 1742 
Q 1991 1309 1228 531 
z
" transform="scale(0.015625)"/>
        <path id="DejaVuSans-35" d="M 691 4666 
L 3169 4666 
L 3169 4134 
L 1269 4134 
L 1269 2991 
Q 1406 3038 1543 3061 
Q 1681 3084 1819 3084 
Q 2600 3084 3056 2656 
Q 3513 2228 3513 1497 
Q 3513 744 3044 326 
Q 2575 -91 1722 -91 
Q 1428 -91 1123 -41 
Q 819 9 494 109 
L 494 744 
Q 775 591 1075 516 
Q 1375 441 1709 441 
Q 2250 441 2565 725 
Q 2881 1009 2881 1497 
Q 2881 1984 2565 2268 
Q 2250 2553 1709 2553 
Q 1456 2553 1204 2497 
Q 953 2441 691 2322 
L 691 4666 
z
" transform="scale(0.015625)"/>
       </defs>
       <use xlink:href="#DejaVuSans-30"/>
       <use xlink:href="#DejaVuSans-2e" x="63.623047"/>
       <use xlink:href="#DejaVuSans-32" x="95.410156"/>
       <use xlink:href="#DejaVuSans-35" x="159.033203"/>
      </g>
     </g>
    </g>
    <g id="xtick_3">
     <g id="line2d_5">
      <path d="M 242.181818 384.48 
L 242.181818 51.84 
" clip-path="url(#p9a88d77a48)" style="fill: none; stroke: #b0b0b0; stroke-width: 0.8; stroke-linecap: square"/>
     </g>
     <g id="line2d_6">
      <g>
       <use xlink:href="#ma606b01cf9" x="242.181818" y="384.48" style="stroke: #000000; stroke-width: 0.8"/>
      </g>
     </g>
     <g id="text_3">
      <!-- 0.50 -->
      <g transform="translate(231.049006 399.078438) scale(0.1 -0.1)">
       <use xlink:href="#DejaVuSans-30"/>
       <use xlink:href="#DejaVuSans-2e" x="63.623047"/>
       <use xlink:href="#DejaVuSans-35" x="95.410156"/>
       <use xlink:href="#DejaVuSans-30" x="159.033203"/>
      </g>
     </g>
    </g>
    <g id="xtick_4">
     <g id="line2d_7">
      <path d="M 305.590909 384.48 
L 305.590909 51.84 
" clip-path="url(#p9a88d77a48)" style="fill: none; stroke: #b0b0b0; stroke-width: 0.8; stroke-linecap: square"/>
     </g>
     <g id="line2d_8">
      <g>
       <use xlink:href="#ma606b01cf9" x="305.590909" y="384.48" style="stroke: #000000; stroke-width: 0.8"/>
      </g>
     </g>
     <g id="text_4">
      <!-- 0.75 -->
      <g transform="translate(294.458097 399.078438) scale(0.1 -0.1)">
       <defs>
        <path id="DejaVuSans-37" d="M 525 4666 
L 3525 4666 
L 3525 4397 
L 1831 0 
L 1172 0 
L 2766 4134 
L 525 4134 
L 525 4666 
z
" transform="scale(0.015625)"/>
       </defs>
       <use xlink:href="#DejaVuSans-30"/>
       <use xlink:href="#DejaVuSans-2e" x="63.623047"/>
       <use xlink:href="#DejaVuSans-37" x="95.410156"/>
       <use xlink:href="#DejaVuSans-35" x="159.033203"/>
      </g>
     </g>
    </g>
    <g id="xtick_5">
     <g id="line2d_9">
      <path d="M 369 384.48 
L 369 51.84 
" clip-path="url(#p9a88d77a48)" style="fill: none; stroke: #b0b0b0; stroke-width: 0.8; stroke-linecap: square"/>
     </g>
     <g id="line2d_10">
      <g>
       <use xlink:href="#ma606b01cf9" x="369" y="384.48" style="stroke: #000000; stroke-width: 0.8"/>
      </g>
     </g>
     <g id="text_5">
      <!-- 1.00 -->
      <g transform="translate(357.867188 399.078438) scale(0.1 -0.1)">
       <defs>
        <path id="DejaVuSans-31" d="M 794 531 
L 1825 531 
L 1825 4091 
L 703 3866 
L 703 4441 
L 1819 4666 
L 2450 4666 
L 2450 531 
L 3481 531 
L 3481 0 
L 794 0 
L 794 531 
z
" transform="scale(0.015625)"/>
       </defs>
       <use xlink:href="#DejaVuSans-31"/>
       <use xlink:href="#DejaVuSans-2e" x="63.623047"/>
       <use xlink:href="#DejaVuSans-30" x="95.410156"/>
       <use xlink:href="#DejaVuSans-30" x="159.033203"/>
      </g>
     </g>
    </g>
    <g id="xtick_6">
     <g id="line2d_11">
      <path d="M 432.409091 384.48 
L 432.409091 51.84 
" clip-path="url(#p9a88d77a48)" style="fill: none; stroke: #b0b0b0; stroke-width: 0.8; stroke-linecap: square"/>
     </g>
     <g id="line2d_12">
      <g>
       <use xlink:href="#ma606b01cf9" x="432.409091" y="384.48" style="stroke: #000000; stroke-width: 0.8"/>
      </g>
     </g>
     <g id="text_6">
      <!-- 1.25 -->
      <g transform="translate(421.276278 399.078438) scale(0.1 -0.1)">
       <use xlink:href="#DejaVuSans-31"/>
       <use xlink:href="#DejaVuSans-2e" x="63.623047"/>
       <use xlink:href="#DejaVuSans-32" x="95.410156"/>
       <use xlink:href="#DejaVuSans-35" x="159.033203"/>
      </g>
     </g>
    </g>
    <g id="xtick_7">
     <g id="line2d_13">
      <path d="M 495.818182 384.48 
L 495.818182 51.84 
" clip-path="url(#p9a88d77a48)" style="fill: none; stroke: #b0b0b0; stroke-width: 0.8; stroke-linecap: square"/>
     </g>
     <g id="line2d_14">
      <g>
       <use xlink:href="#ma606b01cf9" x="495.818182" y="384.48" style="stroke: #000000; stroke-width: 0.8"/>
      </g>
     </g>
     <g id="text_7">
      <!-- 1.50 -->
      <g transform="translate(484.685369 399.078438) scale(0.1 -0.1)">
       <use xlink:href="#DejaVuSans-31"/>
       <use xlink:href="#DejaVuSans-2e" x="63.623047"/>
       <use xlink:href="#DejaVuSans-35" x="95.410156"/>
       <use xlink:href="#DejaVuSans-30" x="159.033203"/>
      </g>
     </g>
    </g>
    <g id="xtick_8">
     <g id="line2d_15">
      <path d="M 559.227273 384.48 
L 559.227273 51.84 
" clip-path="url(#p9a88d77a48)" style="fill: none; stroke: #b0b0b0; stroke-width: 0.8; stroke-linecap: square"/>
     </g>
     <g id="line2d_16">
      <g>
       <use xlink:href="#ma606b01cf9" x="559.227273" y="384.48" style="stroke: #000000; stroke-width: 0.8"/>
      </g>
     </g>
     <g id="text_8">
      <!-- 1.75 -->
      <g transform="translate(548.09446 399.078438) scale(0.1 -0.1)">
       <use xlink:href="#DejaVuSans-31"/>
       <use xlink:href="#DejaVuSans-2e" x="63.623047"/>
       <use xlink:href="#DejaVuSans-37" x="95.410156"/>
       <use xlink:href="#DejaVuSans-35" x="159.033203"/>
      </g>
     </g>
    </g>
    <g id="xtick_9">
     <g id="line2d_17">
      <path d="M 622.636364 384.48 
L 622.636364 51.84 
" clip-path="url(#p9a88d77a48)" style="fill: none; stroke: #b0b0b0; stroke-width: 0.8; stroke-linecap: square"/>
     </g>
     <g id="line2d_18">
      <g>
       <use xlink:href="#ma606b01cf9" x="622.636364" y="384.48" style="stroke: #000000; stroke-width: 0.8"/>
      </g>
     </g>
     <g id="text_9">
      <!-- 2.00 -->
      <g transform="translate(611.503551 399.078438) scale(0.1 -0.1)">
       <use xlink:href="#DejaVuSans-32"/>
       <use xlink:href="#DejaVuSans-2e" x="63.623047"/>
       <use xlink:href="#DejaVuSans-30" x="95.410156"/>
       <use xlink:href="#DejaVuSans-30" x="159.033203"/>
      </g>
     </g>
    </g>
    <g id="text_10">
     <!-- Time (t) -->
     <g transform="translate(349.315625 412.756563) scale(0.1 -0.1)">
      <defs>
       <path id="DejaVuSans-54" d="M -19 4666 
L 3928 4666 
L 3928 4134 
L 2272 4134 
L 2272 0 
L 1638 0 
L 1638 4134 
L -19 4134 
L -19 4666 
z
" transform="scale(0.015625)"/>
       <path id="DejaVuSans-69" d="M 603 3500 
L 1178 3500 
L 1178 0 
L 603 0 
L 603 3500 
z
M 603 4863 
L 1178 4863 
L 1178 4134 
L 603 4134 
L 603 4863 
z
" transform="scale(0.015625)"/>
       <path id="DejaVuSans-6d" d="M 3328 2828 
Q 3544 3216 3844 3400 
Q 4144 3584 4550 3584 
Q 5097 3584 5394 3201 
Q 5691 2819 5691 2113 
L 5691 0 
L 5113 0 
L 5113 2094 
Q 5113 2597 4934 2840 
Q 4756 3084 4391 3084 
Q 3944 3084 3684 2787 
Q 3425 2491 3425 1978 
L 3425 0 
L 2847 0 
L 2847 2094 
Q 2847 2600 2669 2842 
Q 2491 3084 2119 3084 
Q 1678 3084 1418 2786 
Q 1159 2488 1159 1978 
L 1159 0 
L 581 0 
L 581 3500 
L 1159 3500 
L 1159 2956 
Q 1356 3278 1631 3431 
Q 1906 3584 2284 3584 
Q 2666 3584 2933 3390 
Q 3200 3197 3328 2828 
z
" transform="scale(0.015625)"/>
       <path id="DejaVuSans-65" d="M 3597 1894 
L 3597 1613 
L 953 1613 
Q 991 1019 1311 708 
Q 1631 397 2203 397 
Q 2534 397 2845 478 
Q 3156 559 3463 722 
L 3463 178 
Q 3153 47 2828 -22 
Q 2503 -91 2169 -91 
Q 1331 -91 842 396 
Q 353 884 353 1716 
Q 353 2575 817 3079 
Q 1281 3584 2069 3584 
Q 2775 3584 3186 3129 
Q 3597 2675 3597 1894 
z
M 3022 2063 
Q 3016 2534 2758 2815 
Q 2500 3097 2075 3097 
Q 1594 3097 1305 2825 
Q 1016 2553 972 2059 
L 3022 2063 
z
" transform="scale(0.015625)"/>
       <path id="DejaVuSans-20" transform="scale(0.015625)"/>
       <path id="DejaVuSans-28" d="M 1984 4856 
Q 1566 4138 1362 3434 
Q 1159 2731 1159 2009 
Q 1159 1288 1364 580 
Q 1569 -128 1984 -844 
L 1484 -844 
Q 1016 -109 783 600 
Q 550 1309 550 2009 
Q 550 2706 781 3412 
Q 1013 4119 1484 4856 
L 1984 4856 
z
" transform="scale(0.015625)"/>
       <path id="DejaVuSans-74" d="M 1172 4494 
L 1172 3500 
L 2356 3500 
L 2356 3053 
L 1172 3053 
L 1172 1153 
Q 1172 725 1289 603 
Q 1406 481 1766 481 
L 2356 481 
L 2356 0 
L 1766 0 
Q 1100 0 847 248 
Q 594 497 594 1153 
L 594 3053 
L 172 3053 
L 172 3500 
L 594 3500 
L 594 4494 
L 1172 4494 
z
" transform="scale(0.015625)"/>
       <path id="DejaVuSans-29" d="M 513 4856 
L 1013 4856 
Q 1481 4119 1714 3412 
Q 1947 2706 1947 2009 
Q 1947 1309 1714 600 
Q 1481 -109 1013 -844 
L 513 -844 
Q 928 -128 1133 580 
Q 1338 1288 1338 2009 
Q 1338 2731 1133 3434 
Q 928 4138 513 4856 
z
" transform="scale(0.015625)"/>
      </defs>
      <use xlink:href="#DejaVuSans-54"/>
      <use xlink:href="#DejaVuSans-69" x="57.958984"/>
      <use xlink:href="#DejaVuSans-6d" x="85.742188"/>
      <use xlink:href="#DejaVuSans-65" x="183.154297"/>
      <use xlink:href="#DejaVuSans-20" x="244.677734"/>
      <use xlink:href="#DejaVuSans-28" x="276.464844"/>
      <use xlink:href="#DejaVuSans-74" x="315.478516"/>
      <use xlink:href="#DejaVuSans-29" x="354.6875"/>
     </g>
    </g>
   </g>
   <g id="matplotlib.axis_2">
    <g id="ytick_1">
     <g id="line2d_19">
      <path d="M 90 354.12269 
L 648 354.12269 
" clip-path="url(#p9a88d77a48)" style="fill: none; stroke: #b0b0b0; stroke-width: 0.8; stroke-linecap: square"/>
     </g>
     <g id="line2d_20">
      <defs>
       <path id="m0d58f5dea4" d="M 0 0 
L -3.5 0 
" style="stroke: #000000; stroke-width: 0.8"/>
      </defs>
      <g>
       <use xlink:href="#m0d58f5dea4" x="90" y="354.12269" style="stroke: #000000; stroke-width: 0.8"/>
      </g>
     </g>
     <g id="text_11">
      <!-- 2.5 -->
      <g transform="translate(67.096875 357.921908) scale(0.1 -0.1)">
       <use xlink:href="#DejaVuSans-32"/>
       <use xlink:href="#DejaVuSans-2e" x="63.623047"/>
       <use xlink:href="#DejaVuSans-35" x="95.410156"/>
      </g>
     </g>
    </g>
    <g id="ytick_2">
     <g id="line2d_21">
      <path d="M 90 311.043504 
L 648 311.043504 
" clip-path="url(#p9a88d77a48)" style="fill: none; stroke: #b0b0b0; stroke-width: 0.8; stroke-linecap: square"/>
     </g>
     <g id="line2d_22">
      <g>
       <use xlink:href="#m0d58f5dea4" x="90" y="311.043504" style="stroke: #000000; stroke-width: 0.8"/>
      </g>
     </g>
     <g id="text_12">
      <!-- 2.6 -->
      <g transform="translate(67.096875 314.842722) scale(0.1 -0.1)">
       <defs>
        <path id="DejaVuSans-36" d="M 2113 2584 
Q 1688 2584 1439 2293 
Q 1191 2003 1191 1497 
Q 1191 994 1439 701 
Q 1688 409 2113 409 
Q 2538 409 2786 701 
Q 3034 994 3034 1497 
Q 3034 2003 2786 2293 
Q 2538 2584 2113 2584 
z
M 3366 4563 
L 3366 3988 
Q 3128 4100 2886 4159 
Q 2644 4219 2406 4219 
Q 1781 4219 1451 3797 
Q 1122 3375 1075 2522 
Q 1259 2794 1537 2939 
Q 1816 3084 2150 3084 
Q 2853 3084 3261 2657 
Q 3669 2231 3669 1497 
Q 3669 778 3244 343 
Q 2819 -91 2113 -91 
Q 1303 -91 875 529 
Q 447 1150 447 2328 
Q 447 3434 972 4092 
Q 1497 4750 2381 4750 
Q 2619 4750 2861 4703 
Q 3103 4656 3366 4563 
z
" transform="scale(0.015625)"/>
       </defs>
       <use xlink:href="#DejaVuSans-32"/>
       <use xlink:href="#DejaVuSans-2e" x="63.623047"/>
       <use xlink:href="#DejaVuSans-36" x="95.410156"/>
      </g>
     </g>
    </g>
    <g id="ytick_3">
     <g id="line2d_23">
      <path d="M 90 267.964318 
L 648 267.964318 
" clip-path="url(#p9a88d77a48)" style="fill: none; stroke: #b0b0b0; stroke-width: 0.8; stroke-linecap: square"/>
     </g>
     <g id="line2d_24">
      <g>
       <use xlink:href="#m0d58f5dea4" x="90" y="267.964318" style="stroke: #000000; stroke-width: 0.8"/>
      </g>
     </g>
     <g id="text_13">
      <!-- 2.7 -->
      <g transform="translate(67.096875 271.763536) scale(0.1 -0.1)">
       <use xlink:href="#DejaVuSans-32"/>
       <use xlink:href="#DejaVuSans-2e" x="63.623047"/>
       <use xlink:href="#DejaVuSans-37" x="95.410156"/>
      </g>
     </g>
    </g>
    <g id="ytick_4">
     <g id="line2d_25">
      <path d="M 90 224.885131 
L 648 224.885131 
" clip-path="url(#p9a88d77a48)" style="fill: none; stroke: #b0b0b0; stroke-width: 0.8; stroke-linecap: square"/>
     </g>
     <g id="line2d_26">
      <g>
       <use xlink:href="#m0d58f5dea4" x="90" y="224.885131" style="stroke: #000000; stroke-width: 0.8"/>
      </g>
     </g>
     <g id="text_14">
      <!-- 2.8 -->
      <g transform="translate(67.096875 228.68435) scale(0.1 -0.1)">
       <defs>
        <path id="DejaVuSans-38" d="M 2034 2216 
Q 1584 2216 1326 1975 
Q 1069 1734 1069 1313 
Q 1069 891 1326 650 
Q 1584 409 2034 409 
Q 2484 409 2743 651 
Q 3003 894 3003 1313 
Q 3003 1734 2745 1975 
Q 2488 2216 2034 2216 
z
M 1403 2484 
Q 997 2584 770 2862 
Q 544 3141 544 3541 
Q 544 4100 942 4425 
Q 1341 4750 2034 4750 
Q 2731 4750 3128 4425 
Q 3525 4100 3525 3541 
Q 3525 3141 3298 2862 
Q 3072 2584 2669 2484 
Q 3125 2378 3379 2068 
Q 3634 1759 3634 1313 
Q 3634 634 3220 271 
Q 2806 -91 2034 -91 
Q 1263 -91 848 271 
Q 434 634 434 1313 
Q 434 1759 690 2068 
Q 947 2378 1403 2484 
z
M 1172 3481 
Q 1172 3119 1398 2916 
Q 1625 2713 2034 2713 
Q 2441 2713 2670 2916 
Q 2900 3119 2900 3481 
Q 2900 3844 2670 4047 
Q 2441 4250 2034 4250 
Q 1625 4250 1398 4047 
Q 1172 3844 1172 3481 
z
" transform="scale(0.015625)"/>
       </defs>
       <use xlink:href="#DejaVuSans-32"/>
       <use xlink:href="#DejaVuSans-2e" x="63.623047"/>
       <use xlink:href="#DejaVuSans-38" x="95.410156"/>
      </g>
     </g>
    </g>
    <g id="ytick_5">
     <g id="line2d_27">
      <path d="M 90 181.805945 
L 648 181.805945 
" clip-path="url(#p9a88d77a48)" style="fill: none; stroke: #b0b0b0; stroke-width: 0.8; stroke-linecap: square"/>
     </g>
     <g id="line2d_28">
      <g>
       <use xlink:href="#m0d58f5dea4" x="90" y="181.805945" style="stroke: #000000; stroke-width: 0.8"/>
      </g>
     </g>
     <g id="text_15">
      <!-- 2.9 -->
      <g transform="translate(67.096875 185.605164) scale(0.1 -0.1)">
       <defs>
        <path id="DejaVuSans-39" d="M 703 97 
L 703 672 
Q 941 559 1184 500 
Q 1428 441 1663 441 
Q 2288 441 2617 861 
Q 2947 1281 2994 2138 
Q 2813 1869 2534 1725 
Q 2256 1581 1919 1581 
Q 1219 1581 811 2004 
Q 403 2428 403 3163 
Q 403 3881 828 4315 
Q 1253 4750 1959 4750 
Q 2769 4750 3195 4129 
Q 3622 3509 3622 2328 
Q 3622 1225 3098 567 
Q 2575 -91 1691 -91 
Q 1453 -91 1209 -44 
Q 966 3 703 97 
z
M 1959 2075 
Q 2384 2075 2632 2365 
Q 2881 2656 2881 3163 
Q 2881 3666 2632 3958 
Q 2384 4250 1959 4250 
Q 1534 4250 1286 3958 
Q 1038 3666 1038 3163 
Q 1038 2656 1286 2365 
Q 1534 2075 1959 2075 
z
" transform="scale(0.015625)"/>
       </defs>
       <use xlink:href="#DejaVuSans-32"/>
       <use xlink:href="#DejaVuSans-2e" x="63.623047"/>
       <use xlink:href="#DejaVuSans-39" x="95.410156"/>
      </g>
     </g>
    </g>
    <g id="ytick_6">
     <g id="line2d_29">
      <path d="M 90 138.726759 
L 648 138.726759 
" clip-path="url(#p9a88d77a48)" style="fill: none; stroke: #b0b0b0; stroke-width: 0.8; stroke-linecap: square"/>
     </g>
     <g id="line2d_30">
      <g>
       <use xlink:href="#m0d58f5dea4" x="90" y="138.726759" style="stroke: #000000; stroke-width: 0.8"/>
      </g>
     </g>
     <g id="text_16">
      <!-- 3.0 -->
      <g transform="translate(67.096875 142.525978) scale(0.1 -0.1)">
       <defs>
        <path id="DejaVuSans-33" d="M 2597 2516 
Q 3050 2419 3304 2112 
Q 3559 1806 3559 1356 
Q 3559 666 3084 287 
Q 2609 -91 1734 -91 
Q 1441 -91 1130 -33 
Q 819 25 488 141 
L 488 750 
Q 750 597 1062 519 
Q 1375 441 1716 441 
Q 2309 441 2620 675 
Q 2931 909 2931 1356 
Q 2931 1769 2642 2001 
Q 2353 2234 1838 2234 
L 1294 2234 
L 1294 2753 
L 1863 2753 
Q 2328 2753 2575 2939 
Q 2822 3125 2822 3475 
Q 2822 3834 2567 4026 
Q 2313 4219 1838 4219 
Q 1578 4219 1281 4162 
Q 984 4106 628 3988 
L 628 4550 
Q 988 4650 1302 4700 
Q 1616 4750 1894 4750 
Q 2613 4750 3031 4423 
Q 3450 4097 3450 3541 
Q 3450 3153 3228 2886 
Q 3006 2619 2597 2516 
z
" transform="scale(0.015625)"/>
       </defs>
       <use xlink:href="#DejaVuSans-33"/>
       <use xlink:href="#DejaVuSans-2e" x="63.623047"/>
       <use xlink:href="#DejaVuSans-30" x="95.410156"/>
      </g>
     </g>
    </g>
    <g id="ytick_7">
     <g id="line2d_31">
      <path d="M 90 95.647573 
L 648 95.647573 
" clip-path="url(#p9a88d77a48)" style="fill: none; stroke: #b0b0b0; stroke-width: 0.8; stroke-linecap: square"/>
     </g>
     <g id="line2d_32">
      <g>
       <use xlink:href="#m0d58f5dea4" x="90" y="95.647573" style="stroke: #000000; stroke-width: 0.8"/>
      </g>
     </g>
     <g id="text_17">
      <!-- 3.1 -->
      <g transform="translate(67.096875 99.446792) scale(0.1 -0.1)">
       <use xlink:href="#DejaVuSans-33"/>
       <use xlink:href="#DejaVuSans-2e" x="63.623047"/>
       <use xlink:href="#DejaVuSans-31" x="95.410156"/>
      </g>
     </g>
    </g>
    <g id="ytick_8">
     <g id="line2d_33">
      <path d="M 90 52.568387 
L 648 52.568387 
" clip-path="url(#p9a88d77a48)" style="fill: none; stroke: #b0b0b0; stroke-width: 0.8; stroke-linecap: square"/>
     </g>
     <g id="line2d_34">
      <g>
       <use xlink:href="#m0d58f5dea4" x="90" y="52.568387" style="stroke: #000000; stroke-width: 0.8"/>
      </g>
     </g>
     <g id="text_18">
      <!-- 3.2 -->
      <g transform="translate(67.096875 56.367606) scale(0.1 -0.1)">
       <use xlink:href="#DejaVuSans-33"/>
       <use xlink:href="#DejaVuSans-2e" x="63.623047"/>
       <use xlink:href="#DejaVuSans-32" x="95.410156"/>
      </g>
     </g>
    </g>
    <g id="text_19">
     <!-- $\theta(t)$ -->
     <g transform="translate(61.017187 227.11) rotate(-90) scale(0.1 -0.1)">
      <defs>
       <path id="DejaVuSans-Oblique-3b8" d="M 2913 2219 
L 925 2219 
Q 791 1284 928 888 
Q 1100 400 1566 400 
Q 2034 400 2391 891 
Q 2703 1322 2913 2219 
z
M 3009 2750 
Q 3094 3638 2984 3950 
Q 2813 4444 2353 4444 
Q 1875 4444 1525 3956 
Q 1250 3563 1034 2750 
L 3009 2750 
z
M 2444 4913 
Q 3194 4913 3494 4250 
Q 3794 3591 3566 2422 
Q 3341 1256 2781 594 
Q 2225 -72 1475 -72 
Q 722 -72 425 594 
Q 128 1256 353 2422 
Q 581 3591 1134 4250 
Q 1691 4913 2444 4913 
z
" transform="scale(0.015625)"/>
       <path id="DejaVuSans-Oblique-74" d="M 2706 3500 
L 2619 3053 
L 1472 3053 
L 1100 1153 
Q 1081 1047 1072 975 
Q 1063 903 1063 863 
Q 1063 663 1183 572 
Q 1303 481 1569 481 
L 2150 481 
L 2053 0 
L 1503 0 
Q 991 0 739 200 
Q 488 400 488 806 
Q 488 878 497 964 
Q 506 1050 525 1153 
L 897 3053 
L 409 3053 
L 500 3500 
L 978 3500 
L 1172 4494 
L 1747 4494 
L 1556 3500 
L 2706 3500 
z
" transform="scale(0.015625)"/>
      </defs>
      <use xlink:href="#DejaVuSans-Oblique-3b8" transform="translate(0 0.234375)"/>
      <use xlink:href="#DejaVuSans-28" transform="translate(61.181641 0.234375)"/>
      <use xlink:href="#DejaVuSans-Oblique-74" transform="translate(100.195312 0.234375)"/>
      <use xlink:href="#DejaVuSans-29" transform="translate(139.404297 0.234375)"/>
     </g>
    </g>
   </g>
   <g id="line2d_35">
    <path d="M 115.363636 66.96 
L 116.886978 67.054464 
L 118.410319 67.337556 
L 119.933661 67.808425 
L 121.457002 68.465239 
L 123.488124 69.625883 
L 125.519247 71.105153 
L 127.550369 72.893719 
L 129.581491 74.980398 
L 131.612613 77.352159 
L 134.151515 80.694905 
L 136.690418 84.426563 
L 139.737101 89.367149 
L 142.783784 94.759738 
L 146.338247 101.501747 
L 151.416052 111.691419 
L 164.618346 138.522404 
L 168.68059 146.119766 
L 172.235053 152.261701 
L 175.281736 157.061958 
L 177.820639 160.683694 
L 180.359541 163.921767 
L 182.390663 166.211988 
L 184.421785 168.216221 
L 186.452907 169.917435 
L 188.484029 171.299192 
L 190.515152 172.355425 
L 192.038493 172.935568 
L 193.561835 173.333817 
L 195.085176 173.550534 
L 196.608518 173.586542 
L 198.131859 173.443123 
L 199.655201 173.122022 
L 201.178542 172.62544 
L 203.209664 171.695035 
L 205.240786 170.465044 
L 207.271908 168.944511 
L 209.30303 167.143935 
L 211.334152 165.075269 
L 213.873055 162.133004 
L 216.411957 158.822296 
L 218.95086 155.176085 
L 221.997543 150.409401 
L 225.552007 144.397859 
L 230.122031 136.148409 
L 244.847666 109.066364 
L 248.402129 103.201612 
L 251.448812 98.598726 
L 253.987715 95.118568 
L 256.526618 92.002533 
L 259.06552 89.284787 
L 261.096642 87.417792 
L 263.127764 85.838762 
L 265.158886 84.559724 
L 267.190008 83.59109 
L 268.71335 83.073667 
L 270.236691 82.738935 
L 271.760033 82.589495 
L 273.283374 82.627433 
L 274.806716 82.854323 
L 276.330057 83.27123 
L 277.853399 83.878703 
L 279.37674 84.676781 
L 281.407862 86.036488 
L 283.438984 87.731162 
L 285.470106 89.750765 
L 287.501229 92.08077 
L 289.532351 94.705777 
L 292.071253 98.377088 
L 294.610156 102.450428 
L 297.656839 107.81896 
L 300.703522 113.649949 
L 304.257985 120.944453 
L 308.320229 129.78499 
L 314.413595 143.653616 
L 323.045864 163.315226 
L 327.108108 172.033579 
L 330.662572 179.173265 
L 333.709255 184.839658 
L 336.755938 190.017286 
L 339.29484 193.917131 
L 341.833743 197.409501 
L 344.372645 200.470554 
L 346.403767 202.595628 
L 348.434889 204.424187 
L 350.466011 205.95009 
L 352.497133 207.168995 
L 354.528256 208.078354 
L 356.559378 208.677419 
L 358.082719 208.92365 
L 359.606061 208.997 
L 361.129402 208.899143 
L 363.160524 208.506303 
L 365.191646 207.820037 
L 367.222768 206.849033 
L 369.25389 205.603775 
L 371.285012 204.096544 
L 373.316134 202.341418 
L 375.855037 199.821272 
L 378.393939 196.963959 
L 381.440622 193.158532 
L 384.995086 188.310463 
L 389.565111 181.641698 
L 402.259623 162.792177 
L 405.814087 158.000904 
L 408.86077 154.242066 
L 411.399672 151.412808 
L 413.938575 148.90495 
L 415.969697 147.15851 
L 418.000819 145.666185 
L 420.031941 144.449048 
L 422.063063 143.527899 
L 423.586405 143.043638 
L 425.109746 142.744807 
L 426.633088 142.633861 
L 428.156429 142.71182 
L 429.679771 142.97928 
L 431.203112 143.436406 
L 432.726454 144.082936 
L 434.249795 144.918175 
L 436.280917 146.323375 
L 438.312039 148.058168 
L 440.343161 150.117348 
L 442.374283 152.494354 
L 444.405405 155.181268 
L 446.944308 158.961457 
L 449.48321 163.190186 
L 452.022113 167.843041 
L 455.068796 173.947046 
L 458.115479 180.567489 
L 461.669943 188.862197 
L 465.732187 198.960298 
L 470.809992 212.239867 
L 485.027846 249.888931 
L 489.09009 259.900898 
L 492.644554 268.136663 
L 496.199017 275.783432 
L 499.2457 281.808544 
L 502.292383 287.301325 
L 504.831286 291.447914 
L 507.370188 295.186898 
L 509.909091 298.507339 
L 512.447993 301.402202 
L 514.479115 303.409436 
L 516.510238 305.14241 
L 518.54136 306.60291 
L 520.572482 307.794325 
L 522.603604 308.721637 
L 524.634726 309.391427 
L 526.665848 309.811876 
L 528.69697 309.992758 
L 530.728092 309.945448 
L 532.759214 309.683201 
L 534.790336 309.222983 
L 537.329238 308.397829 
L 539.868141 307.330028 
L 542.914824 305.78264 
L 546.469287 303.697358 
L 551.547093 300.410114 
L 558.65602 295.797712 
L 562.210483 293.761139 
L 565.257166 292.290674 
L 567.796069 291.316585 
L 570.334971 290.611785 
L 572.366093 290.268895 
L 574.397215 290.142653 
L 576.428337 290.249932 
L 578.459459 290.605894 
L 580.490581 291.223991 
L 582.521704 292.115962 
L 584.552826 293.291834 
L 586.583948 294.759925 
L 588.61507 296.52684 
L 590.646192 298.597474 
L 592.677314 300.975009 
L 594.708436 303.660918 
L 597.247338 307.451425 
L 599.786241 311.718942 
L 602.325143 316.45157 
L 604.864046 321.631321 
L 607.910729 328.407776 
L 610.957412 335.75641 
L 614.511876 344.988771 
L 618.066339 354.847724 
L 622.128583 366.755619 
L 622.636364 368.284566 
L 622.636364 368.284566 
" clip-path="url(#p9a88d77a48)" style="fill: none; stroke: #1f77b4; stroke-width: 1.5; stroke-linecap: square"/>
   </g>
   <g id="line2d_36">
    <path d="M 115.363636 66.96 
L 116.886978 67.054493 
L 118.410319 67.337674 
L 119.933661 67.808688 
L 121.457002 68.465696 
L 123.488124 69.626657 
L 125.519247 71.106294 
L 127.550369 72.895261 
L 129.581491 74.982364 
L 131.612613 77.354563 
L 134.151515 80.697871 
L 136.690418 84.430111 
L 139.737101 89.37276 
L 142.783784 94.778187 
L 146.338247 101.543208 
L 151.416052 111.762864 
L 163.602785 136.583308 
L 167.665029 144.256017 
L 171.219492 150.485902 
L 174.266175 155.38127 
L 176.805078 159.099208 
L 179.34398 162.452054 
L 181.882883 165.407745 
L 183.914005 167.466063 
L 185.945127 169.236423 
L 187.976249 170.70515 
L 190.007371 171.859379 
L 191.530713 172.511382 
L 193.054054 172.9749 
L 194.577396 173.245406 
L 196.100737 173.31863 
L 197.624079 173.190164 
L 199.14742 172.85944 
L 200.670762 172.332657 
L 202.194103 171.616475 
L 204.225225 170.378714 
L 206.256347 168.832826 
L 208.287469 166.995722 
L 210.318591 164.884739 
L 212.857494 161.88797 
L 215.396396 158.526686 
L 218.443079 154.063696 
L 221.489762 149.194027 
L 225.044226 143.088943 
L 229.614251 134.740338 
L 236.723178 121.184199 
L 243.324324 108.72875 
L 247.386568 101.495645 
L 250.941032 95.629333 
L 253.987715 91.056031 
L 256.526618 87.6348 
L 259.06552 84.625055 
L 261.096642 82.550184 
L 263.127764 80.801349 
L 265.158886 79.38967 
L 267.190008 78.315544 
L 268.71335 77.73182 
L 270.236691 77.338069 
L 271.760033 77.133714 
L 273.283374 77.117811 
L 274.806716 77.289051 
L 276.330057 77.645757 
L 277.853399 78.185888 
L 279.884521 79.187176 
L 281.915643 80.503508 
L 283.946765 82.127009 
L 285.977887 84.048644 
L 288.009009 86.258222 
L 290.547912 89.407716 
L 293.086814 92.964598 
L 295.625717 96.901338 
L 298.6724 102.083898 
L 301.719083 107.711767 
L 305.273546 114.755155 
L 309.33579 123.297351 
L 315.429156 136.703028 
L 323.553645 154.574716 
L 327.615889 162.9772 
L 330.662572 168.83173 
L 333.709255 174.192709 
L 336.248157 178.254543 
L 338.78706 181.916045 
L 341.325962 185.151099 
L 343.357084 187.417154 
L 345.388206 189.386698 
L 347.419328 191.051999 
L 349.45045 192.406996 
L 351.481572 193.447298 
L 353.512695 194.170186 
L 355.036036 194.503356 
L 356.559378 194.65753 
L 358.082719 194.633412 
L 359.606061 194.432234 
L 361.129402 194.055756 
L 363.160524 193.285129 
L 365.191646 192.213875 
L 367.222768 190.850554 
L 369.25389 189.205395 
L 371.285012 187.290298 
L 373.823915 184.53766 
L 376.362817 181.41475 
L 378.90172 177.955824 
L 381.948403 173.415836 
L 385.502867 167.67687 
L 390.072891 159.804143 
L 402.767404 137.594121 
L 406.321867 131.935091 
L 409.36855 127.481372 
L 411.907453 124.10863 
L 414.446355 121.086191 
L 416.985258 118.449399 
L 419.01638 116.638705 
L 421.047502 115.108854 
L 423.078624 113.872144 
L 425.109746 112.939151 
L 426.633088 112.444113 
L 428.156429 112.128037 
L 429.679771 111.99348 
L 431.203112 112.042459 
L 432.726454 112.276443 
L 434.249795 112.69636 
L 435.773137 113.302593 
L 437.296478 114.094983 
L 439.3276 115.439782 
L 441.358722 117.111038 
L 443.389844 119.103856 
L 445.420966 121.411627 
L 447.452088 124.026021 
L 449.990991 127.709729 
L 452.529894 131.833306 
L 455.068796 136.369153 
L 458.115479 142.312958 
L 461.162162 148.746002 
L 465.224406 157.911338 
L 470.302211 169.976438 
L 482.996724 200.426328 
L 487.058968 209.532885 
L 490.613432 217.009356 
L 493.660115 222.970161 
L 496.706798 228.454284 
L 499.2457 232.620013 
L 501.784603 236.38618 
L 504.323505 239.725053 
L 506.354627 242.071217 
L 508.385749 244.115341 
L 510.416871 245.846151 
L 512.447993 247.253243 
L 514.479115 248.327078 
L 516.002457 248.908505 
L 517.525799 249.294241 
L 519.04914 249.48105 
L 520.572482 249.471384 
L 522.095823 249.273177 
L 523.619165 248.894537 
L 525.650287 248.123145 
L 527.681409 247.065079 
L 529.712531 245.740108 
L 531.743653 244.168213 
L 534.282555 241.886888 
L 536.821458 239.29121 
L 539.868141 235.818393 
L 543.422604 231.362783 
L 547.484848 225.878053 
L 554.085995 216.50618 
L 560.687142 207.234444 
L 564.749386 201.919124 
L 567.796069 198.266169 
L 570.334971 195.505322 
L 572.873874 193.052345 
L 574.904996 191.343692 
L 576.936118 189.887295 
L 578.96724 188.708044 
L 580.998362 187.83104 
L 582.521704 187.386856 
L 584.045045 187.137675 
L 585.568387 187.092743 
L 587.091728 187.240245 
L 588.61507 187.57711 
L 590.138411 188.105305 
L 591.661753 188.82621 
L 593.185094 189.740617 
L 595.216216 191.261104 
L 597.247338 193.12476 
L 599.27846 195.328596 
L 601.309582 197.867766 
L 603.340704 200.735571 
L 605.879607 204.769257 
L 608.418509 209.282144 
L 610.957412 214.248915 
L 614.004095 220.765827 
L 617.050778 227.832933 
L 620.605242 236.679933 
L 622.636364 241.980884 
L 622.636364 241.980884 
" clip-path="url(#p9a88d77a48)" style="fill: none; stroke: #ff7f0e; stroke-width: 1.5; stroke-linecap: square"/>
   </g>
   <g id="line2d_37">
    <path d="M 115.363636 66.96 
L 116.886978 67.054464 
L 118.410319 67.337556 
L 119.933661 67.808425 
L 121.457002 68.465239 
L 123.488124 69.625882 
L 125.519247 71.105153 
L 127.550369 72.893719 
L 129.581491 74.980398 
L 131.612613 77.352159 
L 134.151515 80.694905 
L 136.690418 84.426563 
L 139.737101 89.367144 
L 142.783784 94.759688 
L 146.338247 101.501618 
L 151.416052 111.691204 
L 164.618346 138.522497 
L 168.68059 146.120107 
L 172.235053 152.262275 
L 175.281736 157.062714 
L 177.820639 160.684564 
L 180.359541 163.922695 
L 182.390663 166.212907 
L 184.421785 168.217065 
L 186.452907 169.918123 
L 188.484029 171.299647 
L 190.515152 172.355917 
L 192.038493 172.936181 
L 193.561835 173.334619 
L 195.085176 173.55158 
L 196.608518 173.587877 
L 198.131859 173.444783 
L 199.655201 173.124032 
L 201.178542 172.627822 
L 203.209664 171.697928 
L 205.240786 170.468457 
L 207.271908 168.94844 
L 209.30303 167.148367 
L 211.334152 165.080186 
L 213.873055 162.138496 
L 216.411957 158.828328 
L 218.95086 155.182629 
L 221.997543 150.416541 
L 225.552007 144.405711 
L 230.122031 136.157331 
L 244.847666 109.080154 
L 248.402129 103.216656 
L 251.448812 98.614791 
L 253.987715 95.135387 
L 256.526618 92.019989 
L 259.06552 89.302755 
L 261.096642 87.436089 
L 263.127764 85.857327 
L 265.158886 84.578519 
L 267.190008 83.610104 
L 268.71335 83.092858 
L 270.236691 82.758334 
L 271.760033 82.609151 
L 273.283374 82.647419 
L 274.806716 82.874736 
L 276.330057 83.292191 
L 277.853399 83.900364 
L 279.37674 84.699323 
L 281.407862 86.060547 
L 283.438984 87.756746 
L 285.470106 89.776984 
L 287.501229 92.10696 
L 289.532351 94.731513 
L 292.071253 98.401967 
L 294.610156 102.474436 
L 297.656839 107.842258 
L 300.703522 113.673173 
L 304.257985 120.968565 
L 308.320229 129.811296 
L 314.413595 143.684204 
L 323.045864 163.345934 
L 327.108108 172.061725 
L 330.662572 179.201907 
L 333.709255 184.868427 
L 336.755938 190.046126 
L 339.29484 193.946108 
L 341.833743 197.438763 
L 344.372645 200.500306 
L 346.403767 202.625944 
L 348.434889 204.455233 
L 350.466011 205.982031 
L 352.497133 207.201992 
L 354.528256 208.112554 
L 356.559378 208.712947 
L 358.082719 208.96024 
L 359.606061 209.03469 
L 361.129402 208.937954 
L 363.160524 208.546608 
L 365.191646 207.861784 
L 367.222768 206.892106 
L 369.25389 205.64799 
L 371.285012 204.141637 
L 373.316134 202.387042 
L 375.855037 199.864168 
L 378.393939 197.006332 
L 381.440622 193.204853 
L 384.995086 188.365028 
L 389.565111 181.708471 
L 402.767404 162.169052 
L 406.321867 157.432051 
L 409.36855 153.732629 
L 411.907453 150.962724 
L 414.446355 148.523982 
L 416.477477 146.840499 
L 418.5086 145.418559 
L 420.539722 144.279875 
L 422.570844 143.445966 
L 424.094185 143.030181 
L 425.617527 142.795776 
L 427.140868 142.745099 
L 428.66421 142.880003 
L 430.187551 143.20184 
L 431.710893 143.711464 
L 433.234234 144.409226 
L 435.265356 145.631906 
L 437.296478 147.186997 
L 439.3276 149.07118 
L 441.358722 151.279557 
L 443.389844 153.805647 
L 445.420966 156.641387 
L 447.959869 160.606663 
L 450.498771 165.018271 
L 453.037674 169.850035 
L 456.084357 176.160197 
L 459.13104 182.972691 
L 462.685504 191.465328 
L 466.747748 201.740597 
L 472.841114 217.854296 
L 483.504505 246.134956 
L 488.074529 257.567296 
L 492.136773 267.092046 
L 495.691237 274.818881 
L 498.73792 280.927329 
L 501.784603 286.516511 
L 504.323505 290.752488 
L 506.862408 294.58785 
L 509.40131 298.010093 
L 511.940213 301.010228 
L 513.971335 303.102625 
L 516.002457 304.920124 
L 518.033579 306.462983 
L 520.064701 307.732903 
L 522.095823 308.733023 
L 524.126945 309.467875 
L 526.158067 309.935309 
L 528.189189 310.145597 
L 530.220311 310.119224 
L 532.251433 309.876651 
L 534.282555 309.438324 
L 536.821458 308.646248 
L 539.36036 307.620069 
L 542.407043 306.135676 
L 545.961507 304.141894 
L 551.039312 301.011075 
L 558.65602 296.325059 
L 562.210483 294.402006 
L 565.257166 293.002038 
L 567.796069 292.062451 
L 570.334971 291.371179 
L 572.366093 291.023314 
L 574.397215 290.879548 
L 576.428337 290.959928 
L 578.459459 291.284482 
L 580.490581 291.873219 
L 582.521704 292.746131 
L 584.552826 293.923186 
L 586.583948 295.421081 
L 588.61507 297.227019 
L 590.646192 299.338491 
L 592.677314 301.756659 
L 594.708436 304.481142 
L 597.247338 308.314419 
L 599.786241 312.616039 
L 602.325143 317.375077 
L 604.864046 322.576844 
L 607.910729 329.377108 
L 610.957412 336.749053 
L 614.511876 346.009222 
L 618.066339 355.895495 
L 622.128583 367.828771 
L 622.636364 369.36 
L 622.636364 369.36 
" clip-path="url(#p9a88d77a48)" style="fill: none; stroke: #2ca02c; stroke-width: 1.5; stroke-linecap: square"/>
   </g>
   <g id="patch_3">
    <path d="M 90 384.48 
L 90 51.84 
" style="fill: none; stroke: #000000; stroke-width: 0.8; stroke-linejoin: miter; stroke-linecap: square"/>
   </g>
   <g id="patch_4">
    <path d="M 648 384.48 
L 648 51.84 
" style="fill: none; stroke: #000000; stroke-width: 0.8; stroke-linejoin: miter; stroke-linecap: square"/>
   </g>
   <g id="patch_5">
    <path d="M 90 384.48 
L 648 384.48 
" style="fill: none; stroke: #000000; stroke-width: 0.8; stroke-linejoin: miter; stroke-linecap: square"/>
   </g>
   <g id="patch_6">
    <path d="M 90 51.84 
L 648 51.84 
" style="fill: none; stroke: #000000; stroke-width: 0.8; stroke-linejoin: miter; stroke-linecap: square"/>
   </g>
   <g id="text_20">
    <!-- Simulation: A=1.0, $\omega$=10.0, l=8.2, $\theta_0$=3.166592653589793 -->
    <g transform="translate(189.54 45.84) scale(0.12 -0.12)">
     <defs>
      <path id="DejaVuSans-53" d="M 3425 4513 
L 3425 3897 
Q 3066 4069 2747 4153 
Q 2428 4238 2131 4238 
Q 1616 4238 1336 4038 
Q 1056 3838 1056 3469 
Q 1056 3159 1242 3001 
Q 1428 2844 1947 2747 
L 2328 2669 
Q 3034 2534 3370 2195 
Q 3706 1856 3706 1288 
Q 3706 609 3251 259 
Q 2797 -91 1919 -91 
Q 1588 -91 1214 -16 
Q 841 59 441 206 
L 441 856 
Q 825 641 1194 531 
Q 1563 422 1919 422 
Q 2459 422 2753 634 
Q 3047 847 3047 1241 
Q 3047 1584 2836 1778 
Q 2625 1972 2144 2069 
L 1759 2144 
Q 1053 2284 737 2584 
Q 422 2884 422 3419 
Q 422 4038 858 4394 
Q 1294 4750 2059 4750 
Q 2388 4750 2728 4690 
Q 3069 4631 3425 4513 
z
" transform="scale(0.015625)"/>
      <path id="DejaVuSans-75" d="M 544 1381 
L 544 3500 
L 1119 3500 
L 1119 1403 
Q 1119 906 1312 657 
Q 1506 409 1894 409 
Q 2359 409 2629 706 
Q 2900 1003 2900 1516 
L 2900 3500 
L 3475 3500 
L 3475 0 
L 2900 0 
L 2900 538 
Q 2691 219 2414 64 
Q 2138 -91 1772 -91 
Q 1169 -91 856 284 
Q 544 659 544 1381 
z
M 1991 3584 
L 1991 3584 
z
" transform="scale(0.015625)"/>
      <path id="DejaVuSans-6c" d="M 603 4863 
L 1178 4863 
L 1178 0 
L 603 0 
L 603 4863 
z
" transform="scale(0.015625)"/>
      <path id="DejaVuSans-61" d="M 2194 1759 
Q 1497 1759 1228 1600 
Q 959 1441 959 1056 
Q 959 750 1161 570 
Q 1363 391 1709 391 
Q 2188 391 2477 730 
Q 2766 1069 2766 1631 
L 2766 1759 
L 2194 1759 
z
M 3341 1997 
L 3341 0 
L 2766 0 
L 2766 531 
Q 2569 213 2275 61 
Q 1981 -91 1556 -91 
Q 1019 -91 701 211 
Q 384 513 384 1019 
Q 384 1609 779 1909 
Q 1175 2209 1959 2209 
L 2766 2209 
L 2766 2266 
Q 2766 2663 2505 2880 
Q 2244 3097 1772 3097 
Q 1472 3097 1187 3025 
Q 903 2953 641 2809 
L 641 3341 
Q 956 3463 1253 3523 
Q 1550 3584 1831 3584 
Q 2591 3584 2966 3190 
Q 3341 2797 3341 1997 
z
" transform="scale(0.015625)"/>
      <path id="DejaVuSans-6f" d="M 1959 3097 
Q 1497 3097 1228 2736 
Q 959 2375 959 1747 
Q 959 1119 1226 758 
Q 1494 397 1959 397 
Q 2419 397 2687 759 
Q 2956 1122 2956 1747 
Q 2956 2369 2687 2733 
Q 2419 3097 1959 3097 
z
M 1959 3584 
Q 2709 3584 3137 3096 
Q 3566 2609 3566 1747 
Q 3566 888 3137 398 
Q 2709 -91 1959 -91 
Q 1206 -91 779 398 
Q 353 888 353 1747 
Q 353 2609 779 3096 
Q 1206 3584 1959 3584 
z
" transform="scale(0.015625)"/>
      <path id="DejaVuSans-6e" d="M 3513 2113 
L 3513 0 
L 2938 0 
L 2938 2094 
Q 2938 2591 2744 2837 
Q 2550 3084 2163 3084 
Q 1697 3084 1428 2787 
Q 1159 2491 1159 1978 
L 1159 0 
L 581 0 
L 581 3500 
L 1159 3500 
L 1159 2956 
Q 1366 3272 1645 3428 
Q 1925 3584 2291 3584 
Q 2894 3584 3203 3211 
Q 3513 2838 3513 2113 
z
" transform="scale(0.015625)"/>
      <path id="DejaVuSans-3a" d="M 750 794 
L 1409 794 
L 1409 0 
L 750 0 
L 750 794 
z
M 750 3309 
L 1409 3309 
L 1409 2516 
L 750 2516 
L 750 3309 
z
" transform="scale(0.015625)"/>
      <path id="DejaVuSans-41" d="M 2188 4044 
L 1331 1722 
L 3047 1722 
L 2188 4044 
z
M 1831 4666 
L 2547 4666 
L 4325 0 
L 3669 0 
L 3244 1197 
L 1141 1197 
L 716 0 
L 50 0 
L 1831 4666 
z
" transform="scale(0.015625)"/>
      <path id="DejaVuSans-3d" d="M 678 2906 
L 4684 2906 
L 4684 2381 
L 678 2381 
L 678 2906 
z
M 678 1631 
L 4684 1631 
L 4684 1100 
L 678 1100 
L 678 1631 
z
" transform="scale(0.015625)"/>
      <path id="DejaVuSans-2c" d="M 750 794 
L 1409 794 
L 1409 256 
L 897 -744 
L 494 -744 
L 750 256 
L 750 794 
z
" transform="scale(0.015625)"/>
      <path id="DejaVuSans-Oblique-3c9" d="M 1369 -91 
Q 72 -91 434 1766 
Q 575 2500 1256 3500 
L 1875 3500 
Q 1231 2500 1088 1750 
Q 819 397 1519 397 
Q 2166 397 2478 2078 
L 3009 2078 
Q 2669 388 3316 397 
Q 4013 403 4275 1750 
Q 4419 2500 4169 3500 
L 4788 3500 
Q 5075 2500 4934 1766 
Q 4578 -94 3278 -91 
Q 2428 -88 2503 844 
Q 2194 -91 1369 -91 
z
" transform="scale(0.015625)"/>
     </defs>
     <use xlink:href="#DejaVuSans-53" transform="translate(0 0.234375)"/>
     <use xlink:href="#DejaVuSans-69" transform="translate(63.476562 0.234375)"/>
     <use xlink:href="#DejaVuSans-6d" transform="translate(91.259766 0.234375)"/>
     <use xlink:href="#DejaVuSans-75" transform="translate(188.671875 0.234375)"/>
     <use xlink:href="#DejaVuSans-6c" transform="translate(252.050781 0.234375)"/>
     <use xlink:href="#DejaVuSans-61" transform="translate(279.833984 0.234375)"/>
     <use xlink:href="#DejaVuSans-74" transform="translate(341.113281 0.234375)"/>
     <use xlink:href="#DejaVuSans-69" transform="translate(380.322266 0.234375)"/>
     <use xlink:href="#DejaVuSans-6f" transform="translate(408.105469 0.234375)"/>
     <use xlink:href="#DejaVuSans-6e" transform="translate(469.287109 0.234375)"/>
     <use xlink:href="#DejaVuSans-3a" transform="translate(532.666016 0.234375)"/>
     <use xlink:href="#DejaVuSans-20" transform="translate(566.357422 0.234375)"/>
     <use xlink:href="#DejaVuSans-41" transform="translate(598.144531 0.234375)"/>
     <use xlink:href="#DejaVuSans-3d" transform="translate(666.552734 0.234375)"/>
     <use xlink:href="#DejaVuSans-31" transform="translate(750.341797 0.234375)"/>
     <use xlink:href="#DejaVuSans-2e" transform="translate(813.964844 0.234375)"/>
     <use xlink:href="#DejaVuSans-30" transform="translate(845.751953 0.234375)"/>
     <use xlink:href="#DejaVuSans-2c" transform="translate(909.375 0.234375)"/>
     <use xlink:href="#DejaVuSans-20" transform="translate(941.162109 0.234375)"/>
     <use xlink:href="#DejaVuSans-Oblique-3c9" transform="translate(972.949219 0.234375)"/>
     <use xlink:href="#DejaVuSans-3d" transform="translate(1056.689453 0.234375)"/>
     <use xlink:href="#DejaVuSans-31" transform="translate(1140.478516 0.234375)"/>
     <use xlink:href="#DejaVuSans-30" transform="translate(1204.101562 0.234375)"/>
     <use xlink:href="#DejaVuSans-2e" transform="translate(1267.724609 0.234375)"/>
     <use xlink:href="#DejaVuSans-30" transform="translate(1299.511719 0.234375)"/>
     <use xlink:href="#DejaVuSans-2c" transform="translate(1363.134766 0.234375)"/>
     <use xlink:href="#DejaVuSans-20" transform="translate(1394.921875 0.234375)"/>
     <use xlink:href="#DejaVuSans-6c" transform="translate(1426.708984 0.234375)"/>
     <use xlink:href="#DejaVuSans-3d" transform="translate(1454.492188 0.234375)"/>
     <use xlink:href="#DejaVuSans-38" transform="translate(1538.28125 0.234375)"/>
     <use xlink:href="#DejaVuSans-2e" transform="translate(1601.904297 0.234375)"/>
     <use xlink:href="#DejaVuSans-32" transform="translate(1628.191406 0.234375)"/>
     <use xlink:href="#DejaVuSans-2c" transform="translate(1691.814453 0.234375)"/>
     <use xlink:href="#DejaVuSans-20" transform="translate(1723.601562 0.234375)"/>
     <use xlink:href="#DejaVuSans-Oblique-3b8" transform="translate(1755.388672 0.234375)"/>
     <use xlink:href="#DejaVuSans-30" transform="translate(1816.570312 -16.171875) scale(0.7)"/>
     <use xlink:href="#DejaVuSans-3d" transform="translate(1863.84082 0.234375)"/>
     <use xlink:href="#DejaVuSans-33" transform="translate(1947.629883 0.234375)"/>
     <use xlink:href="#DejaVuSans-2e" transform="translate(2011.25293 0.234375)"/>
     <use xlink:href="#DejaVuSans-31" transform="translate(2043.040039 0.234375)"/>
     <use xlink:href="#DejaVuSans-36" transform="translate(2106.663086 0.234375)"/>
     <use xlink:href="#DejaVuSans-36" transform="translate(2170.286133 0.234375)"/>
     <use xlink:href="#DejaVuSans-35" transform="translate(2233.90918 0.234375)"/>
     <use xlink:href="#DejaVuSans-39" transform="translate(2292.032227 0.234375)"/>
     <use xlink:href="#DejaVuSans-32" transform="translate(2353.905273 0.234375)"/>
     <use xlink:href="#DejaVuSans-36" transform="translate(2417.52832 0.234375)"/>
     <use xlink:href="#DejaVuSans-35" transform="translate(2481.151367 0.234375)"/>
     <use xlink:href="#DejaVuSans-33" transform="translate(2544.774414 0.234375)"/>
     <use xlink:href="#DejaVuSans-35" transform="translate(2608.397461 0.234375)"/>
     <use xlink:href="#DejaVuSans-38" transform="translate(2672.020508 0.234375)"/>
     <use xlink:href="#DejaVuSans-39" transform="translate(2735.643555 0.234375)"/>
     <use xlink:href="#DejaVuSans-37" transform="translate(2799.266602 0.234375)"/>
     <use xlink:href="#DejaVuSans-39" transform="translate(2862.889648 0.234375)"/>
     <use xlink:href="#DejaVuSans-33" transform="translate(2926.512695 0.234375)"/>
    </g>
   </g>
   <g id="legend_1">
    <g id="patch_7">
     <path d="M 540.596875 103.874375 
L 641 103.874375 
Q 643 103.874375 643 101.874375 
L 643 58.84 
Q 643 56.84 641 56.84 
L 540.596875 56.84 
Q 538.596875 56.84 538.596875 58.84 
L 538.596875 101.874375 
Q 538.596875 103.874375 540.596875 103.874375 
z
" style="fill: #ffffff; opacity: 0.8; stroke: #cccccc; stroke-linejoin: miter"/>
    </g>
    <g id="line2d_38">
     <path d="M 542.596875 64.938437 
L 552.596875 64.938437 
L 562.596875 64.938437 
" style="fill: none; stroke: #1f77b4; stroke-width: 1.5; stroke-linecap: square"/>
    </g>
    <g id="text_21">
     <!-- Original -->
     <g transform="translate(570.596875 68.438437) scale(0.1 -0.1)">
      <defs>
       <path id="DejaVuSans-4f" d="M 2522 4238 
Q 1834 4238 1429 3725 
Q 1025 3213 1025 2328 
Q 1025 1447 1429 934 
Q 1834 422 2522 422 
Q 3209 422 3611 934 
Q 4013 1447 4013 2328 
Q 4013 3213 3611 3725 
Q 3209 4238 2522 4238 
z
M 2522 4750 
Q 3503 4750 4090 4092 
Q 4678 3434 4678 2328 
Q 4678 1225 4090 567 
Q 3503 -91 2522 -91 
Q 1538 -91 948 565 
Q 359 1222 359 2328 
Q 359 3434 948 4092 
Q 1538 4750 2522 4750 
z
" transform="scale(0.015625)"/>
       <path id="DejaVuSans-72" d="M 2631 2963 
Q 2534 3019 2420 3045 
Q 2306 3072 2169 3072 
Q 1681 3072 1420 2755 
Q 1159 2438 1159 1844 
L 1159 0 
L 581 0 
L 581 3500 
L 1159 3500 
L 1159 2956 
Q 1341 3275 1631 3429 
Q 1922 3584 2338 3584 
Q 2397 3584 2469 3576 
Q 2541 3569 2628 3553 
L 2631 2963 
z
" transform="scale(0.015625)"/>
       <path id="DejaVuSans-67" d="M 2906 1791 
Q 2906 2416 2648 2759 
Q 2391 3103 1925 3103 
Q 1463 3103 1205 2759 
Q 947 2416 947 1791 
Q 947 1169 1205 825 
Q 1463 481 1925 481 
Q 2391 481 2648 825 
Q 2906 1169 2906 1791 
z
M 3481 434 
Q 3481 -459 3084 -895 
Q 2688 -1331 1869 -1331 
Q 1566 -1331 1297 -1286 
Q 1028 -1241 775 -1147 
L 775 -588 
Q 1028 -725 1275 -790 
Q 1522 -856 1778 -856 
Q 2344 -856 2625 -561 
Q 2906 -266 2906 331 
L 2906 616 
Q 2728 306 2450 153 
Q 2172 0 1784 0 
Q 1141 0 747 490 
Q 353 981 353 1791 
Q 353 2603 747 3093 
Q 1141 3584 1784 3584 
Q 2172 3584 2450 3431 
Q 2728 3278 2906 2969 
L 2906 3500 
L 3481 3500 
L 3481 434 
z
" transform="scale(0.015625)"/>
      </defs>
      <use xlink:href="#DejaVuSans-4f"/>
      <use xlink:href="#DejaVuSans-72" x="78.710938"/>
      <use xlink:href="#DejaVuSans-69" x="119.824219"/>
      <use xlink:href="#DejaVuSans-67" x="147.607422"/>
      <use xlink:href="#DejaVuSans-69" x="211.083984"/>
      <use xlink:href="#DejaVuSans-6e" x="238.867188"/>
      <use xlink:href="#DejaVuSans-61" x="302.246094"/>
      <use xlink:href="#DejaVuSans-6c" x="363.525391"/>
     </g>
    </g>
    <g id="line2d_39">
     <path d="M 542.596875 79.616562 
L 552.596875 79.616562 
L 562.596875 79.616562 
" style="fill: none; stroke: #ff7f0e; stroke-width: 1.5; stroke-linecap: square"/>
    </g>
    <g id="text_22">
     <!-- First-Order -->
     <g transform="translate(570.596875 83.116562) scale(0.1 -0.1)">
      <defs>
       <path id="DejaVuSans-46" d="M 628 4666 
L 3309 4666 
L 3309 4134 
L 1259 4134 
L 1259 2759 
L 3109 2759 
L 3109 2228 
L 1259 2228 
L 1259 0 
L 628 0 
L 628 4666 
z
" transform="scale(0.015625)"/>
       <path id="DejaVuSans-73" d="M 2834 3397 
L 2834 2853 
Q 2591 2978 2328 3040 
Q 2066 3103 1784 3103 
Q 1356 3103 1142 2972 
Q 928 2841 928 2578 
Q 928 2378 1081 2264 
Q 1234 2150 1697 2047 
L 1894 2003 
Q 2506 1872 2764 1633 
Q 3022 1394 3022 966 
Q 3022 478 2636 193 
Q 2250 -91 1575 -91 
Q 1294 -91 989 -36 
Q 684 19 347 128 
L 347 722 
Q 666 556 975 473 
Q 1284 391 1588 391 
Q 1994 391 2212 530 
Q 2431 669 2431 922 
Q 2431 1156 2273 1281 
Q 2116 1406 1581 1522 
L 1381 1569 
Q 847 1681 609 1914 
Q 372 2147 372 2553 
Q 372 3047 722 3315 
Q 1072 3584 1716 3584 
Q 2034 3584 2315 3537 
Q 2597 3491 2834 3397 
z
" transform="scale(0.015625)"/>
       <path id="DejaVuSans-2d" d="M 313 2009 
L 1997 2009 
L 1997 1497 
L 313 1497 
L 313 2009 
z
" transform="scale(0.015625)"/>
       <path id="DejaVuSans-64" d="M 2906 2969 
L 2906 4863 
L 3481 4863 
L 3481 0 
L 2906 0 
L 2906 525 
Q 2725 213 2448 61 
Q 2172 -91 1784 -91 
Q 1150 -91 751 415 
Q 353 922 353 1747 
Q 353 2572 751 3078 
Q 1150 3584 1784 3584 
Q 2172 3584 2448 3432 
Q 2725 3281 2906 2969 
z
M 947 1747 
Q 947 1113 1208 752 
Q 1469 391 1925 391 
Q 2381 391 2643 752 
Q 2906 1113 2906 1747 
Q 2906 2381 2643 2742 
Q 2381 3103 1925 3103 
Q 1469 3103 1208 2742 
Q 947 2381 947 1747 
z
" transform="scale(0.015625)"/>
      </defs>
      <use xlink:href="#DejaVuSans-46"/>
      <use xlink:href="#DejaVuSans-69" x="50.269531"/>
      <use xlink:href="#DejaVuSans-72" x="78.052734"/>
      <use xlink:href="#DejaVuSans-73" x="119.166016"/>
      <use xlink:href="#DejaVuSans-74" x="171.265625"/>
      <use xlink:href="#DejaVuSans-2d" x="210.474609"/>
      <use xlink:href="#DejaVuSans-4f" x="249.308594"/>
      <use xlink:href="#DejaVuSans-72" x="328.019531"/>
      <use xlink:href="#DejaVuSans-64" x="367.382812"/>
      <use xlink:href="#DejaVuSans-65" x="430.859375"/>
      <use xlink:href="#DejaVuSans-72" x="492.382812"/>
     </g>
    </g>
    <g id="line2d_40">
     <path d="M 542.596875 94.294687 
L 552.596875 94.294687 
L 562.596875 94.294687 
" style="fill: none; stroke: #2ca02c; stroke-width: 1.5; stroke-linecap: square"/>
    </g>
    <g id="text_23">
     <!-- Second Order -->
     <g transform="translate(570.596875 97.794687) scale(0.1 -0.1)">
      <defs>
       <path id="DejaVuSans-63" d="M 3122 3366 
L 3122 2828 
Q 2878 2963 2633 3030 
Q 2388 3097 2138 3097 
Q 1578 3097 1268 2742 
Q 959 2388 959 1747 
Q 959 1106 1268 751 
Q 1578 397 2138 397 
Q 2388 397 2633 464 
Q 2878 531 3122 666 
L 3122 134 
Q 2881 22 2623 -34 
Q 2366 -91 2075 -91 
Q 1284 -91 818 406 
Q 353 903 353 1747 
Q 353 2603 823 3093 
Q 1294 3584 2113 3584 
Q 2378 3584 2631 3529 
Q 2884 3475 3122 3366 
z
" transform="scale(0.015625)"/>
      </defs>
      <use xlink:href="#DejaVuSans-53"/>
      <use xlink:href="#DejaVuSans-65" x="63.476562"/>
      <use xlink:href="#DejaVuSans-63" x="125"/>
      <use xlink:href="#DejaVuSans-6f" x="179.980469"/>
      <use xlink:href="#DejaVuSans-6e" x="241.162109"/>
      <use xlink:href="#DejaVuSans-64" x="304.541016"/>
      <use xlink:href="#DejaVuSans-20" x="368.017578"/>
      <use xlink:href="#DejaVuSans-4f" x="399.804688"/>
      <use xlink:href="#DejaVuSans-72" x="478.515625"/>
      <use xlink:href="#DejaVuSans-64" x="517.878906"/>
      <use xlink:href="#DejaVuSans-65" x="581.355469"/>
      <use xlink:href="#DejaVuSans-72" x="642.878906"/>
     </g>
    </g>
   </g>
  </g>
 </g>
 <defs>
  <clipPath id="p9a88d77a48">
   <rect x="90" y="51.84" width="558" height="332.64"/>
  </clipPath>
 </defs>
</svg>
