<?xml version="1.0" encoding="utf-8" standalone="no"?>
<!DOCTYPE svg PUBLIC "-//W3C//DTD SVG 1.1//EN"
  "http://www.w3.org/Graphics/SVG/1.1/DTD/svg11.dtd">
<svg xmlns:xlink="http://www.w3.org/1999/xlink" width="720pt" height="432pt" viewBox="0 0 720 432" xmlns="http://www.w3.org/2000/svg" version="1.1">
 <metadata>
  <rdf:RDF xmlns:dc="http://purl.org/dc/elements/1.1/" xmlns:cc="http://creativecommons.org/ns#" xmlns:rdf="http://www.w3.org/1999/02/22-rdf-syntax-ns#">
   <cc:Work>
    <dc:type rdf:resource="http://purl.org/dc/dcmitype/StillImage"/>
    <dc:date>2024-12-31T23:34:19.318950</dc:date>
    <dc:format>image/svg+xml</dc:format>
    <dc:creator>
     <cc:Agent>
      <dc:title>Matplotlib v3.7.2, https://matplotlib.org/</dc:title>
     </cc:Agent>
    </dc:creator>
   </cc:Work>
  </rdf:RDF>
 </metadata>
 <defs>
  <style type="text/css">*{stroke-linejoin: round; stroke-linecap: butt}</style>
 </defs>
 <g id="figure_1">
  <g id="patch_1">
   <path d="M 0 432 
L 720 432 
L 720 0 
L 0 0 
z
" style="fill: #ffffff"/>
  </g>
  <g id="axes_1">
   <g id="patch_2">
    <path d="M 90 384.48 
L 648 384.48 
L 648 51.84 
L 90 51.84 
z
" style="fill: #ffffff"/>
   </g>
   <g id="matplotlib.axis_1">
    <g id="xtick_1">
     <g id="line2d_1">
      <path d="M 115.363636 384.48 
L 115.363636 51.84 
" clip-path="url(#p24f62ece22)" style="fill: none; stroke: #b0b0b0; stroke-width: 0.8; stroke-linecap: square"/>
     </g>
     <g id="line2d_2">
      <defs>
       <path id="mfcc971be71" d="M 0 0 
L 0 3.5 
" style="stroke: #000000; stroke-width: 0.8"/>
      </defs>
      <g>
       <use xlink:href="#mfcc971be71" x="115.363636" y="384.48" style="stroke: #000000; stroke-width: 0.8"/>
      </g>
     </g>
     <g id="text_1">
      <!-- 0.00 -->
      <g transform="translate(104.230824 399.078438) scale(0.1 -0.1)">
       <defs>
        <path id="DejaVuSans-30" d="M 2034 4250 
Q 1547 4250 1301 3770 
Q 1056 3291 1056 2328 
Q 1056 1369 1301 889 
Q 1547 409 2034 409 
Q 2525 409 2770 889 
Q 3016 1369 3016 2328 
Q 3016 3291 2770 3770 
Q 2525 4250 2034 4250 
z
M 2034 4750 
Q 2819 4750 3233 4129 
Q 3647 3509 3647 2328 
Q 3647 1150 3233 529 
Q 2819 -91 2034 -91 
Q 1250 -91 836 529 
Q 422 1150 422 2328 
Q 422 3509 836 4129 
Q 1250 4750 2034 4750 
z
" transform="scale(0.015625)"/>
        <path id="DejaVuSans-2e" d="M 684 794 
L 1344 794 
L 1344 0 
L 684 0 
L 684 794 
z
" transform="scale(0.015625)"/>
       </defs>
       <use xlink:href="#DejaVuSans-30"/>
       <use xlink:href="#DejaVuSans-2e" x="63.623047"/>
       <use xlink:href="#DejaVuSans-30" x="95.410156"/>
       <use xlink:href="#DejaVuSans-30" x="159.033203"/>
      </g>
     </g>
    </g>
    <g id="xtick_2">
     <g id="line2d_3">
      <path d="M 178.772727 384.48 
L 178.772727 51.84 
" clip-path="url(#p24f62ece22)" style="fill: none; stroke: #b0b0b0; stroke-width: 0.8; stroke-linecap: square"/>
     </g>
     <g id="line2d_4">
      <g>
       <use xlink:href="#mfcc971be71" x="178.772727" y="384.48" style="stroke: #000000; stroke-width: 0.8"/>
      </g>
     </g>
     <g id="text_2">
      <!-- 0.25 -->
      <g transform="translate(167.639915 399.078438) scale(0.1 -0.1)">
       <defs>
        <path id="DejaVuSans-32" d="M 1228 531 
L 3431 531 
L 3431 0 
L 469 0 
L 469 531 
Q 828 903 1448 1529 
Q 2069 2156 2228 2338 
Q 2531 2678 2651 2914 
Q 2772 3150 2772 3378 
Q 2772 3750 2511 3984 
Q 2250 4219 1831 4219 
Q 1534 4219 1204 4116 
Q 875 4013 500 3803 
L 500 4441 
Q 881 4594 1212 4672 
Q 1544 4750 1819 4750 
Q 2544 4750 2975 4387 
Q 3406 4025 3406 3419 
Q 3406 3131 3298 2873 
Q 3191 2616 2906 2266 
Q 2828 2175 2409 1742 
Q 1991 1309 1228 531 
z
" transform="scale(0.015625)"/>
        <path id="DejaVuSans-35" d="M 691 4666 
L 3169 4666 
L 3169 4134 
L 1269 4134 
L 1269 2991 
Q 1406 3038 1543 3061 
Q 1681 3084 1819 3084 
Q 2600 3084 3056 2656 
Q 3513 2228 3513 1497 
Q 3513 744 3044 326 
Q 2575 -91 1722 -91 
Q 1428 -91 1123 -41 
Q 819 9 494 109 
L 494 744 
Q 775 591 1075 516 
Q 1375 441 1709 441 
Q 2250 441 2565 725 
Q 2881 1009 2881 1497 
Q 2881 1984 2565 2268 
Q 2250 2553 1709 2553 
Q 1456 2553 1204 2497 
Q 953 2441 691 2322 
L 691 4666 
z
" transform="scale(0.015625)"/>
       </defs>
       <use xlink:href="#DejaVuSans-30"/>
       <use xlink:href="#DejaVuSans-2e" x="63.623047"/>
       <use xlink:href="#DejaVuSans-32" x="95.410156"/>
       <use xlink:href="#DejaVuSans-35" x="159.033203"/>
      </g>
     </g>
    </g>
    <g id="xtick_3">
     <g id="line2d_5">
      <path d="M 242.181818 384.48 
L 242.181818 51.84 
" clip-path="url(#p24f62ece22)" style="fill: none; stroke: #b0b0b0; stroke-width: 0.8; stroke-linecap: square"/>
     </g>
     <g id="line2d_6">
      <g>
       <use xlink:href="#mfcc971be71" x="242.181818" y="384.48" style="stroke: #000000; stroke-width: 0.8"/>
      </g>
     </g>
     <g id="text_3">
      <!-- 0.50 -->
      <g transform="translate(231.049006 399.078438) scale(0.1 -0.1)">
       <use xlink:href="#DejaVuSans-30"/>
       <use xlink:href="#DejaVuSans-2e" x="63.623047"/>
       <use xlink:href="#DejaVuSans-35" x="95.410156"/>
       <use xlink:href="#DejaVuSans-30" x="159.033203"/>
      </g>
     </g>
    </g>
    <g id="xtick_4">
     <g id="line2d_7">
      <path d="M 305.590909 384.48 
L 305.590909 51.84 
" clip-path="url(#p24f62ece22)" style="fill: none; stroke: #b0b0b0; stroke-width: 0.8; stroke-linecap: square"/>
     </g>
     <g id="line2d_8">
      <g>
       <use xlink:href="#mfcc971be71" x="305.590909" y="384.48" style="stroke: #000000; stroke-width: 0.8"/>
      </g>
     </g>
     <g id="text_4">
      <!-- 0.75 -->
      <g transform="translate(294.458097 399.078438) scale(0.1 -0.1)">
       <defs>
        <path id="DejaVuSans-37" d="M 525 4666 
L 3525 4666 
L 3525 4397 
L 1831 0 
L 1172 0 
L 2766 4134 
L 525 4134 
L 525 4666 
z
" transform="scale(0.015625)"/>
       </defs>
       <use xlink:href="#DejaVuSans-30"/>
       <use xlink:href="#DejaVuSans-2e" x="63.623047"/>
       <use xlink:href="#DejaVuSans-37" x="95.410156"/>
       <use xlink:href="#DejaVuSans-35" x="159.033203"/>
      </g>
     </g>
    </g>
    <g id="xtick_5">
     <g id="line2d_9">
      <path d="M 369 384.48 
L 369 51.84 
" clip-path="url(#p24f62ece22)" style="fill: none; stroke: #b0b0b0; stroke-width: 0.8; stroke-linecap: square"/>
     </g>
     <g id="line2d_10">
      <g>
       <use xlink:href="#mfcc971be71" x="369" y="384.48" style="stroke: #000000; stroke-width: 0.8"/>
      </g>
     </g>
     <g id="text_5">
      <!-- 1.00 -->
      <g transform="translate(357.867188 399.078438) scale(0.1 -0.1)">
       <defs>
        <path id="DejaVuSans-31" d="M 794 531 
L 1825 531 
L 1825 4091 
L 703 3866 
L 703 4441 
L 1819 4666 
L 2450 4666 
L 2450 531 
L 3481 531 
L 3481 0 
L 794 0 
L 794 531 
z
" transform="scale(0.015625)"/>
       </defs>
       <use xlink:href="#DejaVuSans-31"/>
       <use xlink:href="#DejaVuSans-2e" x="63.623047"/>
       <use xlink:href="#DejaVuSans-30" x="95.410156"/>
       <use xlink:href="#DejaVuSans-30" x="159.033203"/>
      </g>
     </g>
    </g>
    <g id="xtick_6">
     <g id="line2d_11">
      <path d="M 432.409091 384.48 
L 432.409091 51.84 
" clip-path="url(#p24f62ece22)" style="fill: none; stroke: #b0b0b0; stroke-width: 0.8; stroke-linecap: square"/>
     </g>
     <g id="line2d_12">
      <g>
       <use xlink:href="#mfcc971be71" x="432.409091" y="384.48" style="stroke: #000000; stroke-width: 0.8"/>
      </g>
     </g>
     <g id="text_6">
      <!-- 1.25 -->
      <g transform="translate(421.276278 399.078438) scale(0.1 -0.1)">
       <use xlink:href="#DejaVuSans-31"/>
       <use xlink:href="#DejaVuSans-2e" x="63.623047"/>
       <use xlink:href="#DejaVuSans-32" x="95.410156"/>
       <use xlink:href="#DejaVuSans-35" x="159.033203"/>
      </g>
     </g>
    </g>
    <g id="xtick_7">
     <g id="line2d_13">
      <path d="M 495.818182 384.48 
L 495.818182 51.84 
" clip-path="url(#p24f62ece22)" style="fill: none; stroke: #b0b0b0; stroke-width: 0.8; stroke-linecap: square"/>
     </g>
     <g id="line2d_14">
      <g>
       <use xlink:href="#mfcc971be71" x="495.818182" y="384.48" style="stroke: #000000; stroke-width: 0.8"/>
      </g>
     </g>
     <g id="text_7">
      <!-- 1.50 -->
      <g transform="translate(484.685369 399.078438) scale(0.1 -0.1)">
       <use xlink:href="#DejaVuSans-31"/>
       <use xlink:href="#DejaVuSans-2e" x="63.623047"/>
       <use xlink:href="#DejaVuSans-35" x="95.410156"/>
       <use xlink:href="#DejaVuSans-30" x="159.033203"/>
      </g>
     </g>
    </g>
    <g id="xtick_8">
     <g id="line2d_15">
      <path d="M 559.227273 384.48 
L 559.227273 51.84 
" clip-path="url(#p24f62ece22)" style="fill: none; stroke: #b0b0b0; stroke-width: 0.8; stroke-linecap: square"/>
     </g>
     <g id="line2d_16">
      <g>
       <use xlink:href="#mfcc971be71" x="559.227273" y="384.48" style="stroke: #000000; stroke-width: 0.8"/>
      </g>
     </g>
     <g id="text_8">
      <!-- 1.75 -->
      <g transform="translate(548.09446 399.078438) scale(0.1 -0.1)">
       <use xlink:href="#DejaVuSans-31"/>
       <use xlink:href="#DejaVuSans-2e" x="63.623047"/>
       <use xlink:href="#DejaVuSans-37" x="95.410156"/>
       <use xlink:href="#DejaVuSans-35" x="159.033203"/>
      </g>
     </g>
    </g>
    <g id="xtick_9">
     <g id="line2d_17">
      <path d="M 622.636364 384.48 
L 622.636364 51.84 
" clip-path="url(#p24f62ece22)" style="fill: none; stroke: #b0b0b0; stroke-width: 0.8; stroke-linecap: square"/>
     </g>
     <g id="line2d_18">
      <g>
       <use xlink:href="#mfcc971be71" x="622.636364" y="384.48" style="stroke: #000000; stroke-width: 0.8"/>
      </g>
     </g>
     <g id="text_9">
      <!-- 2.00 -->
      <g transform="translate(611.503551 399.078438) scale(0.1 -0.1)">
       <use xlink:href="#DejaVuSans-32"/>
       <use xlink:href="#DejaVuSans-2e" x="63.623047"/>
       <use xlink:href="#DejaVuSans-30" x="95.410156"/>
       <use xlink:href="#DejaVuSans-30" x="159.033203"/>
      </g>
     </g>
    </g>
    <g id="text_10">
     <!-- Time (t) -->
     <g transform="translate(349.315625 412.756563) scale(0.1 -0.1)">
      <defs>
       <path id="DejaVuSans-54" d="M -19 4666 
L 3928 4666 
L 3928 4134 
L 2272 4134 
L 2272 0 
L 1638 0 
L 1638 4134 
L -19 4134 
L -19 4666 
z
" transform="scale(0.015625)"/>
       <path id="DejaVuSans-69" d="M 603 3500 
L 1178 3500 
L 1178 0 
L 603 0 
L 603 3500 
z
M 603 4863 
L 1178 4863 
L 1178 4134 
L 603 4134 
L 603 4863 
z
" transform="scale(0.015625)"/>
       <path id="DejaVuSans-6d" d="M 3328 2828 
Q 3544 3216 3844 3400 
Q 4144 3584 4550 3584 
Q 5097 3584 5394 3201 
Q 5691 2819 5691 2113 
L 5691 0 
L 5113 0 
L 5113 2094 
Q 5113 2597 4934 2840 
Q 4756 3084 4391 3084 
Q 3944 3084 3684 2787 
Q 3425 2491 3425 1978 
L 3425 0 
L 2847 0 
L 2847 2094 
Q 2847 2600 2669 2842 
Q 2491 3084 2119 3084 
Q 1678 3084 1418 2786 
Q 1159 2488 1159 1978 
L 1159 0 
L 581 0 
L 581 3500 
L 1159 3500 
L 1159 2956 
Q 1356 3278 1631 3431 
Q 1906 3584 2284 3584 
Q 2666 3584 2933 3390 
Q 3200 3197 3328 2828 
z
" transform="scale(0.015625)"/>
       <path id="DejaVuSans-65" d="M 3597 1894 
L 3597 1613 
L 953 1613 
Q 991 1019 1311 708 
Q 1631 397 2203 397 
Q 2534 397 2845 478 
Q 3156 559 3463 722 
L 3463 178 
Q 3153 47 2828 -22 
Q 2503 -91 2169 -91 
Q 1331 -91 842 396 
Q 353 884 353 1716 
Q 353 2575 817 3079 
Q 1281 3584 2069 3584 
Q 2775 3584 3186 3129 
Q 3597 2675 3597 1894 
z
M 3022 2063 
Q 3016 2534 2758 2815 
Q 2500 3097 2075 3097 
Q 1594 3097 1305 2825 
Q 1016 2553 972 2059 
L 3022 2063 
z
" transform="scale(0.015625)"/>
       <path id="DejaVuSans-20" transform="scale(0.015625)"/>
       <path id="DejaVuSans-28" d="M 1984 4856 
Q 1566 4138 1362 3434 
Q 1159 2731 1159 2009 
Q 1159 1288 1364 580 
Q 1569 -128 1984 -844 
L 1484 -844 
Q 1016 -109 783 600 
Q 550 1309 550 2009 
Q 550 2706 781 3412 
Q 1013 4119 1484 4856 
L 1984 4856 
z
" transform="scale(0.015625)"/>
       <path id="DejaVuSans-74" d="M 1172 4494 
L 1172 3500 
L 2356 3500 
L 2356 3053 
L 1172 3053 
L 1172 1153 
Q 1172 725 1289 603 
Q 1406 481 1766 481 
L 2356 481 
L 2356 0 
L 1766 0 
Q 1100 0 847 248 
Q 594 497 594 1153 
L 594 3053 
L 172 3053 
L 172 3500 
L 594 3500 
L 594 4494 
L 1172 4494 
z
" transform="scale(0.015625)"/>
       <path id="DejaVuSans-29" d="M 513 4856 
L 1013 4856 
Q 1481 4119 1714 3412 
Q 1947 2706 1947 2009 
Q 1947 1309 1714 600 
Q 1481 -109 1013 -844 
L 513 -844 
Q 928 -128 1133 580 
Q 1338 1288 1338 2009 
Q 1338 2731 1133 3434 
Q 928 4138 513 4856 
z
" transform="scale(0.015625)"/>
      </defs>
      <use xlink:href="#DejaVuSans-54"/>
      <use xlink:href="#DejaVuSans-69" x="57.958984"/>
      <use xlink:href="#DejaVuSans-6d" x="85.742188"/>
      <use xlink:href="#DejaVuSans-65" x="183.154297"/>
      <use xlink:href="#DejaVuSans-20" x="244.677734"/>
      <use xlink:href="#DejaVuSans-28" x="276.464844"/>
      <use xlink:href="#DejaVuSans-74" x="315.478516"/>
      <use xlink:href="#DejaVuSans-29" x="354.6875"/>
     </g>
    </g>
   </g>
   <g id="matplotlib.axis_2">
    <g id="ytick_1">
     <g id="line2d_19">
      <path d="M 90 368.932075 
L 648 368.932075 
" clip-path="url(#p24f62ece22)" style="fill: none; stroke: #b0b0b0; stroke-width: 0.8; stroke-linecap: square"/>
     </g>
     <g id="line2d_20">
      <defs>
       <path id="mc6f990828c" d="M 0 0 
L -3.5 0 
" style="stroke: #000000; stroke-width: 0.8"/>
      </defs>
      <g>
       <use xlink:href="#mc6f990828c" x="90" y="368.932075" style="stroke: #000000; stroke-width: 0.8"/>
      </g>
     </g>
     <g id="text_11">
      <!-- −400 -->
      <g transform="translate(55.532812 372.731294) scale(0.1 -0.1)">
       <defs>
        <path id="DejaVuSans-2212" d="M 678 2272 
L 4684 2272 
L 4684 1741 
L 678 1741 
L 678 2272 
z
" transform="scale(0.015625)"/>
        <path id="DejaVuSans-34" d="M 2419 4116 
L 825 1625 
L 2419 1625 
L 2419 4116 
z
M 2253 4666 
L 3047 4666 
L 3047 1625 
L 3713 1625 
L 3713 1100 
L 3047 1100 
L 3047 0 
L 2419 0 
L 2419 1100 
L 313 1100 
L 313 1709 
L 2253 4666 
z
" transform="scale(0.015625)"/>
       </defs>
       <use xlink:href="#DejaVuSans-2212"/>
       <use xlink:href="#DejaVuSans-34" x="83.789062"/>
       <use xlink:href="#DejaVuSans-30" x="147.412109"/>
       <use xlink:href="#DejaVuSans-30" x="211.035156"/>
      </g>
     </g>
    </g>
    <g id="ytick_2">
     <g id="line2d_21">
      <path d="M 90 331.26967 
L 648 331.26967 
" clip-path="url(#p24f62ece22)" style="fill: none; stroke: #b0b0b0; stroke-width: 0.8; stroke-linecap: square"/>
     </g>
     <g id="line2d_22">
      <g>
       <use xlink:href="#mc6f990828c" x="90" y="331.26967" style="stroke: #000000; stroke-width: 0.8"/>
      </g>
     </g>
     <g id="text_12">
      <!-- −300 -->
      <g transform="translate(55.532812 335.068889) scale(0.1 -0.1)">
       <defs>
        <path id="DejaVuSans-33" d="M 2597 2516 
Q 3050 2419 3304 2112 
Q 3559 1806 3559 1356 
Q 3559 666 3084 287 
Q 2609 -91 1734 -91 
Q 1441 -91 1130 -33 
Q 819 25 488 141 
L 488 750 
Q 750 597 1062 519 
Q 1375 441 1716 441 
Q 2309 441 2620 675 
Q 2931 909 2931 1356 
Q 2931 1769 2642 2001 
Q 2353 2234 1838 2234 
L 1294 2234 
L 1294 2753 
L 1863 2753 
Q 2328 2753 2575 2939 
Q 2822 3125 2822 3475 
Q 2822 3834 2567 4026 
Q 2313 4219 1838 4219 
Q 1578 4219 1281 4162 
Q 984 4106 628 3988 
L 628 4550 
Q 988 4650 1302 4700 
Q 1616 4750 1894 4750 
Q 2613 4750 3031 4423 
Q 3450 4097 3450 3541 
Q 3450 3153 3228 2886 
Q 3006 2619 2597 2516 
z
" transform="scale(0.015625)"/>
       </defs>
       <use xlink:href="#DejaVuSans-2212"/>
       <use xlink:href="#DejaVuSans-33" x="83.789062"/>
       <use xlink:href="#DejaVuSans-30" x="147.412109"/>
       <use xlink:href="#DejaVuSans-30" x="211.035156"/>
      </g>
     </g>
    </g>
    <g id="ytick_3">
     <g id="line2d_23">
      <path d="M 90 293.607266 
L 648 293.607266 
" clip-path="url(#p24f62ece22)" style="fill: none; stroke: #b0b0b0; stroke-width: 0.8; stroke-linecap: square"/>
     </g>
     <g id="line2d_24">
      <g>
       <use xlink:href="#mc6f990828c" x="90" y="293.607266" style="stroke: #000000; stroke-width: 0.8"/>
      </g>
     </g>
     <g id="text_13">
      <!-- −200 -->
      <g transform="translate(55.532812 297.406485) scale(0.1 -0.1)">
       <use xlink:href="#DejaVuSans-2212"/>
       <use xlink:href="#DejaVuSans-32" x="83.789062"/>
       <use xlink:href="#DejaVuSans-30" x="147.412109"/>
       <use xlink:href="#DejaVuSans-30" x="211.035156"/>
      </g>
     </g>
    </g>
    <g id="ytick_4">
     <g id="line2d_25">
      <path d="M 90 255.944861 
L 648 255.944861 
" clip-path="url(#p24f62ece22)" style="fill: none; stroke: #b0b0b0; stroke-width: 0.8; stroke-linecap: square"/>
     </g>
     <g id="line2d_26">
      <g>
       <use xlink:href="#mc6f990828c" x="90" y="255.944861" style="stroke: #000000; stroke-width: 0.8"/>
      </g>
     </g>
     <g id="text_14">
      <!-- −100 -->
      <g transform="translate(55.532812 259.74408) scale(0.1 -0.1)">
       <use xlink:href="#DejaVuSans-2212"/>
       <use xlink:href="#DejaVuSans-31" x="83.789062"/>
       <use xlink:href="#DejaVuSans-30" x="147.412109"/>
       <use xlink:href="#DejaVuSans-30" x="211.035156"/>
      </g>
     </g>
    </g>
    <g id="ytick_5">
     <g id="line2d_27">
      <path d="M 90 218.282457 
L 648 218.282457 
" clip-path="url(#p24f62ece22)" style="fill: none; stroke: #b0b0b0; stroke-width: 0.8; stroke-linecap: square"/>
     </g>
     <g id="line2d_28">
      <g>
       <use xlink:href="#mc6f990828c" x="90" y="218.282457" style="stroke: #000000; stroke-width: 0.8"/>
      </g>
     </g>
     <g id="text_15">
      <!-- 0 -->
      <g transform="translate(76.6375 222.081675) scale(0.1 -0.1)">
       <use xlink:href="#DejaVuSans-30"/>
      </g>
     </g>
    </g>
    <g id="ytick_6">
     <g id="line2d_29">
      <path d="M 90 180.620052 
L 648 180.620052 
" clip-path="url(#p24f62ece22)" style="fill: none; stroke: #b0b0b0; stroke-width: 0.8; stroke-linecap: square"/>
     </g>
     <g id="line2d_30">
      <g>
       <use xlink:href="#mc6f990828c" x="90" y="180.620052" style="stroke: #000000; stroke-width: 0.8"/>
      </g>
     </g>
     <g id="text_16">
      <!-- 100 -->
      <g transform="translate(63.9125 184.419271) scale(0.1 -0.1)">
       <use xlink:href="#DejaVuSans-31"/>
       <use xlink:href="#DejaVuSans-30" x="63.623047"/>
       <use xlink:href="#DejaVuSans-30" x="127.246094"/>
      </g>
     </g>
    </g>
    <g id="ytick_7">
     <g id="line2d_31">
      <path d="M 90 142.957648 
L 648 142.957648 
" clip-path="url(#p24f62ece22)" style="fill: none; stroke: #b0b0b0; stroke-width: 0.8; stroke-linecap: square"/>
     </g>
     <g id="line2d_32">
      <g>
       <use xlink:href="#mc6f990828c" x="90" y="142.957648" style="stroke: #000000; stroke-width: 0.8"/>
      </g>
     </g>
     <g id="text_17">
      <!-- 200 -->
      <g transform="translate(63.9125 146.756866) scale(0.1 -0.1)">
       <use xlink:href="#DejaVuSans-32"/>
       <use xlink:href="#DejaVuSans-30" x="63.623047"/>
       <use xlink:href="#DejaVuSans-30" x="127.246094"/>
      </g>
     </g>
    </g>
    <g id="ytick_8">
     <g id="line2d_33">
      <path d="M 90 105.295243 
L 648 105.295243 
" clip-path="url(#p24f62ece22)" style="fill: none; stroke: #b0b0b0; stroke-width: 0.8; stroke-linecap: square"/>
     </g>
     <g id="line2d_34">
      <g>
       <use xlink:href="#mc6f990828c" x="90" y="105.295243" style="stroke: #000000; stroke-width: 0.8"/>
      </g>
     </g>
     <g id="text_18">
      <!-- 300 -->
      <g transform="translate(63.9125 109.094462) scale(0.1 -0.1)">
       <use xlink:href="#DejaVuSans-33"/>
       <use xlink:href="#DejaVuSans-30" x="63.623047"/>
       <use xlink:href="#DejaVuSans-30" x="127.246094"/>
      </g>
     </g>
    </g>
    <g id="ytick_9">
     <g id="line2d_35">
      <path d="M 90 67.632838 
L 648 67.632838 
" clip-path="url(#p24f62ece22)" style="fill: none; stroke: #b0b0b0; stroke-width: 0.8; stroke-linecap: square"/>
     </g>
     <g id="line2d_36">
      <g>
       <use xlink:href="#mc6f990828c" x="90" y="67.632838" style="stroke: #000000; stroke-width: 0.8"/>
      </g>
     </g>
     <g id="text_19">
      <!-- 400 -->
      <g transform="translate(63.9125 71.432057) scale(0.1 -0.1)">
       <use xlink:href="#DejaVuSans-34"/>
       <use xlink:href="#DejaVuSans-30" x="63.623047"/>
       <use xlink:href="#DejaVuSans-30" x="127.246094"/>
      </g>
     </g>
    </g>
    <g id="text_20">
     <!-- $\theta(t)$ -->
     <g transform="translate(49.453125 227.11) rotate(-90) scale(0.1 -0.1)">
      <defs>
       <path id="DejaVuSans-Oblique-3b8" d="M 2913 2219 
L 925 2219 
Q 791 1284 928 888 
Q 1100 400 1566 400 
Q 2034 400 2391 891 
Q 2703 1322 2913 2219 
z
M 3009 2750 
Q 3094 3638 2984 3950 
Q 2813 4444 2353 4444 
Q 1875 4444 1525 3956 
Q 1250 3563 1034 2750 
L 3009 2750 
z
M 2444 4913 
Q 3194 4913 3494 4250 
Q 3794 3591 3566 2422 
Q 3341 1256 2781 594 
Q 2225 -72 1475 -72 
Q 722 -72 425 594 
Q 128 1256 353 2422 
Q 581 3591 1134 4250 
Q 1691 4913 2444 4913 
z
" transform="scale(0.015625)"/>
       <path id="DejaVuSans-Oblique-74" d="M 2706 3500 
L 2619 3053 
L 1472 3053 
L 1100 1153 
Q 1081 1047 1072 975 
Q 1063 903 1063 863 
Q 1063 663 1183 572 
Q 1303 481 1569 481 
L 2150 481 
L 2053 0 
L 1503 0 
Q 991 0 739 200 
Q 488 400 488 806 
Q 488 878 497 964 
Q 506 1050 525 1153 
L 897 3053 
L 409 3053 
L 500 3500 
L 978 3500 
L 1172 4494 
L 1747 4494 
L 1556 3500 
L 2706 3500 
z
" transform="scale(0.015625)"/>
      </defs>
      <use xlink:href="#DejaVuSans-Oblique-3b8" transform="translate(0 0.234375)"/>
      <use xlink:href="#DejaVuSans-28" transform="translate(61.181641 0.234375)"/>
      <use xlink:href="#DejaVuSans-Oblique-74" transform="translate(100.195312 0.234375)"/>
      <use xlink:href="#DejaVuSans-29" transform="translate(139.404297 0.234375)"/>
     </g>
    </g>
   </g>
   <g id="line2d_37">
    <path d="M 115.363636 217.052179 
L 125.519247 217.158198 
L 137.705979 217.526369 
L 194.069615 219.526463 
L 204.733006 219.540499 
L 215.904177 219.32681 
L 233.676495 218.715776 
L 255.511057 217.819084 
L 273.283374 217.053505 
L 283.946765 216.860271 
L 296.641278 216.861563 
L 312.890254 217.101123 
L 336.248157 217.438485 
L 350.466011 217.41141 
L 362.144963 217.180418 
L 373.316134 216.729809 
L 415.969697 214.78504 
L 427.140868 214.498663 
L 439.3276 214.413374 
L 452.022113 214.542502 
L 465.224406 214.902998 
L 492.136773 215.921039 
L 506.354627 216.687334 
L 518.033579 217.232895 
L 530.220311 217.550267 
L 574.397215 218.30792 
L 585.568387 218.248942 
L 596.231777 217.971474 
L 622.636364 217.067586 
L 622.636364 217.067586 
" clip-path="url(#p24f62ece22)" style="fill: none; stroke: #1f77b4; stroke-width: 1.5; stroke-linecap: square"/>
   </g>
   <g id="line2d_38">
    <path d="M 115.363636 217.052179 
L 125.519247 217.158582 
L 136.690418 217.501288 
L 150.908272 218.175321 
L 177.820639 219.498119 
L 189.49959 219.811709 
L 200.162981 219.878258 
L 211.334152 219.718947 
L 224.536446 219.296577 
L 259.06552 218.06477 
L 269.728911 217.982059 
L 279.884521 218.120423 
L 290.547912 218.497142 
L 302.734644 219.166664 
L 323.045864 220.55879 
L 338.78706 221.534693 
L 350.466011 222.039538 
L 361.637183 222.299515 
L 373.316134 222.34584 
L 389.05733 222.16077 
L 411.399672 221.919868 
L 422.570844 222.033558 
L 432.218673 222.347886 
L 441.866503 222.879826 
L 452.022113 223.666487 
L 463.193284 224.759725 
L 479.44226 226.60699 
L 501.276822 229.063511 
L 514.479115 230.317209 
L 527.681409 231.34647 
L 544.945946 232.443764 
L 562.210483 233.608144 
L 573.381654 234.591091 
L 583.029484 235.666898 
L 591.661753 236.846745 
L 599.786241 238.168209 
L 607.910729 239.707311 
L 617.050778 241.675455 
L 622.636364 242.98682 
L 622.636364 242.98682 
" clip-path="url(#p24f62ece22)" style="fill: none; stroke: #ff7f0e; stroke-width: 1.5; stroke-linecap: square"/>
   </g>
   <g id="line2d_39">
    <path d="M 115.363636 217.052179 
L 126.027027 217.168805 
L 138.213759 217.544661 
L 170.711712 218.857334 
L 174.266175 219.270659 
L 177.312858 219.843773 
L 179.34398 220.421957 
L 180.867322 221.023285 
L 182.390663 221.836882 
L 183.914005 222.97021 
L 184.929566 223.996694 
L 185.945127 225.342886 
L 186.960688 227.131826 
L 187.976249 229.58279 
L 188.99181 233.076605 
L 190.007371 238.230807 
L 190.515152 241.7306 
L 191.022932 246.128143 
L 191.530713 251.733266 
L 192.038493 258.93409 
L 192.546274 268.220868 
L 193.054054 280.255722 
L 193.561835 295.65667 
L 195.592957 369.36 
L 196.100737 368.569689 
L 196.608518 354.688554 
L 198.131859 293.402218 
L 199.14742 266.08668 
L 200.162981 249.048148 
L 201.178542 237.590681 
L 202.701884 224.689172 
L 205.748567 201.838694 
L 206.256347 198.821478 
L 206.764128 196.481457 
L 207.271908 194.992971 
L 207.779689 194.484838 
L 208.287469 195.004162 
L 208.79525 196.496111 
L 209.30303 198.828319 
L 210.318591 205.185087 
L 212.857494 224.006849 
L 214.380835 236.17801 
L 215.396396 246.070076 
L 216.411957 258.838252 
L 217.427518 275.441859 
L 218.95086 303.905534 
L 219.45864 310.544286 
L 219.966421 313.285368 
L 220.474201 311.249966 
L 220.981982 304.600143 
L 221.997543 282.516168 
L 225.044226 208.721476 
L 226.567568 175.17842 
L 227.075348 167.244032 
L 227.583129 162.713053 
L 228.090909 162.352346 
L 228.59869 166.104856 
L 229.10647 173.177975 
L 230.122031 192.844722 
L 233.676495 267.953288 
L 234.184275 275.634428 
L 234.692056 280.217521 
L 235.199836 280.770315 
L 235.707617 277.073128 
L 236.215397 269.652051 
L 237.230958 247.922135 
L 241.293202 151.252431 
L 241.800983 143.69017 
L 242.308763 139.868694 
L 242.816544 140.290676 
L 243.324324 144.651715 
L 243.832105 151.960058 
L 245.355446 180.884454 
L 247.894349 228.134153 
L 248.90991 245.87877 
L 249.41769 253.226764 
L 249.925471 258.469867 
L 250.433251 260.764953 
L 250.941032 259.662195 
L 251.448812 255.341101 
L 251.956593 248.454855 
L 252.972154 230.447737 
L 255.511057 180.373304 
L 256.526618 155.446261 
L 258.55774 97.400682 
L 259.06552 91.447251 
L 259.573301 93.444087 
L 260.081081 102.349365 
L 262.112203 151.357383 
L 262.619984 158.945544 
L 263.127764 164.076096 
L 263.635545 166.86436 
L 264.143325 167.378888 
L 264.651106 165.634578 
L 265.158886 161.484163 
L 265.666667 154.665836 
L 266.174447 144.94062 
L 266.682228 132.11152 
L 268.205569 83.896832 
L 268.71335 74.702685 
L 269.22113 74.618128 
L 269.728911 83.825145 
L 271.252252 129.644281 
L 271.760033 140.754091 
L 272.267813 148.223873 
L 272.775594 152.111855 
L 273.283374 152.503317 
L 273.791155 149.421657 
L 274.298935 142.730446 
L 274.806716 132.343457 
L 275.822277 101.931205 
L 276.330057 85.63665 
L 276.837838 74.024085 
L 277.345618 71.367162 
L 277.853399 78.948724 
L 278.86896 111.221833 
L 279.884521 140.269669 
L 280.392301 149.80693 
L 280.900082 155.987134 
L 281.407862 159.0247 
L 281.915643 159.100273 
L 282.423423 156.235123 
L 282.931204 150.365295 
L 283.438984 141.395673 
L 284.454545 114.835514 
L 285.470106 87.147381 
L 285.977887 81.374891 
L 286.485667 84.846775 
L 286.993448 96.462114 
L 289.02457 158.089777 
L 290.040131 178.355116 
L 291.055692 193.023381 
L 292.579034 210.611182 
L 295.117936 237.527371 
L 295.625717 241.791068 
L 296.133497 245.026796 
L 296.641278 246.924657 
L 297.149058 247.315781 
L 297.656839 246.187091 
L 298.164619 243.678098 
L 299.18018 235.616167 
L 301.211302 215.085423 
L 303.750205 187.731227 
L 306.289107 157.620059 
L 306.796888 153.591463 
L 307.304668 151.443846 
L 307.812449 151.597096 
L 308.320229 154.193827 
L 308.82801 159.044501 
L 309.843571 173.505753 
L 312.382473 217.90328 
L 314.413595 253.096973 
L 315.429156 267.00534 
L 315.936937 271.427318 
L 316.444717 273.530257 
L 316.952498 273.152208 
L 317.460278 270.476745 
L 317.968059 265.929012 
L 318.98362 253.395116 
L 323.553645 190.573978 
L 324.061425 184.885188 
L 324.569206 180.457924 
L 325.076986 177.809409 
L 325.584767 177.316869 
L 326.092547 179.087019 
L 326.600328 182.907446 
L 327.615889 194.982486 
L 330.154791 232.675054 
L 331.678133 257.806826 
L 332.693694 278.332581 
L 334.217035 313.115946 
L 334.724816 322.010418 
L 335.232596 326.951205 
L 335.740377 326.853236 
L 336.248157 322.015631 
L 337.263718 304.605128 
L 338.279279 287.663019 
L 338.78706 281.630317 
L 339.29484 277.613322 
L 339.802621 275.707047 
L 340.310401 275.941437 
L 340.818182 278.424809 
L 341.325962 283.274981 
L 341.833743 290.563733 
L 342.341523 300.30848 
L 344.372645 346.318389 
L 344.880426 348.987844 
L 345.388206 344.801683 
L 345.895987 335.472028 
L 346.911548 312.782809 
L 347.419328 303.79779 
L 347.927109 297.776429 
L 348.434889 295.05783 
L 348.94267 295.742055 
L 349.45045 299.904848 
L 349.958231 307.478362 
L 350.973792 330.808742 
L 351.481572 343.527379 
L 351.989353 353.107325 
L 352.497133 356.447858 
L 353.004914 352.314065 
L 353.512695 342.244955 
L 354.528256 317.427186 
L 355.036036 307.658178 
L 355.543817 301.18625 
L 356.051597 298.319248 
L 356.559378 299.131887 
L 357.067158 303.534316 
L 357.574939 311.450416 
L 359.606061 353.223064 
L 360.113841 353.655189 
L 360.621622 346.881371 
L 362.652744 299.706144 
L 363.160524 292.733337 
L 363.668305 288.852109 
L 364.176085 288.012425 
L 364.683866 290.159586 
L 365.191646 295.212206 
L 365.699427 302.91749 
L 367.222768 333.733871 
L 367.730549 340.239031 
L 368.238329 341.09871 
L 368.74611 335.751079 
L 369.25389 325.50109 
L 370.777232 288.307929 
L 371.792793 270.116154 
L 372.300573 263.59298 
L 372.808354 258.546692 
L 373.316134 254.776054 
L 373.823915 252.099761 
L 374.331695 250.402554 
L 374.839476 249.598974 
L 375.347256 249.626955 
L 375.855037 250.44793 
L 376.362817 252.056805 
L 376.870598 254.47326 
L 377.378378 257.709739 
L 378.393939 266.636028 
L 379.917281 284.552139 
L 380.932842 294.936692 
L 381.440622 297.569256 
L 381.948403 297.740499 
L 382.456183 295.207925 
L 382.963964 290.094396 
L 383.979525 274.391686 
L 389.05733 184.150869 
L 389.565111 176.906841 
L 390.072891 171.279116 
L 390.580672 167.873676 
L 391.088452 167.062593 
L 391.596233 168.859496 
L 392.104013 172.903784 
L 393.119574 185.565861 
L 395.658477 224.446582 
L 397.689599 254.251832 
L 398.197379 259.82835 
L 398.70516 263.576509 
L 399.21294 264.995245 
L 399.720721 263.805856 
L 400.228501 260.085828 
L 400.736282 254.232085 
L 401.751843 238.638145 
L 405.306306 175.982143 
L 407.337428 139.740554 
L 407.845209 133.774352 
L 408.352989 130.552294 
L 408.86077 130.431414 
L 409.36855 133.231352 
L 409.876331 138.238145 
L 411.907453 163.071418 
L 412.415233 167.73654 
L 412.923014 171.348157 
L 413.430794 173.872218 
L 413.938575 175.28788 
L 414.446355 175.580451 
L 414.954136 174.731214 
L 415.461916 172.636421 
L 415.969697 169.172945 
L 416.477477 164.213491 
L 416.985258 157.626593 
L 418.000819 139.135575 
L 419.524161 104.334672 
L 420.031941 96.614473 
L 420.539722 94.112782 
L 421.047502 97.333386 
L 421.555283 105.072573 
L 423.078624 133.249512 
L 423.586405 139.234987 
L 424.094185 142.473138 
L 424.601966 142.789749 
L 425.109746 140.114514 
L 425.617527 134.441116 
L 426.125307 125.76081 
L 428.156429 82.995395 
L 428.66421 81.578448 
L 429.17199 86.877199 
L 430.187551 108.43787 
L 430.695332 119.104143 
L 431.203112 127.25849 
L 431.710893 132.164136 
L 432.218673 133.525628 
L 432.726454 131.307931 
L 433.234234 125.50989 
L 433.742015 116.477446 
L 435.265356 83.380674 
L 435.773137 78.97703 
L 436.280917 81.522458 
L 436.788698 90.138681 
L 438.312039 124.434889 
L 438.81982 131.773909 
L 439.3276 135.781886 
L 439.835381 136.358914 
L 440.343161 133.532534 
L 440.850942 127.486471 
L 441.866503 107.883634 
L 442.374283 97.083667 
L 442.882064 88.857317 
L 443.389844 85.655411 
L 443.897625 88.859195 
L 444.405405 97.765469 
L 445.928747 133.641139 
L 446.436527 142.708507 
L 446.944308 149.283872 
L 447.452088 153.369543 
L 447.959869 155.043623 
L 448.467649 154.405076 
L 448.97543 151.526413 
L 449.48321 146.487709 
L 449.990991 139.505761 
L 451.514333 113.328995 
L 452.022113 107.447802 
L 452.529894 105.819949 
L 453.037674 109.087337 
L 453.545455 116.73694 
L 455.068796 150.583402 
L 456.084357 171.096228 
L 457.099918 187.781113 
L 459.13104 215.594578 
L 461.162162 241.521901 
L 461.669943 246.810794 
L 462.177723 250.880758 
L 462.685504 253.372964 
L 463.193284 254.055851 
L 463.701065 252.873533 
L 464.208845 249.997675 
L 465.224406 240.566564 
L 467.255528 216.451671 
L 470.809992 174.004093 
L 471.317772 169.435764 
L 471.825553 166.200971 
L 472.333333 164.718656 
L 472.841114 165.25724 
L 473.348894 167.836211 
L 473.856675 172.252058 
L 474.872236 185.070787 
L 476.903358 216.458052 
L 479.950041 263.82872 
L 480.965602 276.194746 
L 481.473382 280.242264 
L 481.981163 282.380672 
L 482.488943 282.486447 
L 482.996724 280.713306 
L 483.504505 277.426799 
L 484.520066 268.109775 
L 486.043407 253.141799 
L 487.058968 244.690456 
L 488.074529 237.685098 
L 489.597871 229.167477 
L 492.136773 217.149457 
L 494.675676 205.813027 
L 495.691237 202.271295 
L 496.199017 201.014364 
L 496.706798 200.198054 
L 497.214578 199.874074 
L 497.722359 200.074284 
L 498.230139 200.793063 
L 498.73792 201.993145 
L 499.753481 205.567295 
L 501.276822 212.530699 
L 504.323505 227.626133 
L 505.339066 233.555257 
L 506.354627 241.180089 
L 506.862408 246.11317 
L 507.370188 252.203733 
L 507.877969 259.858077 
L 508.385749 269.610897 
L 508.89353 282.113459 
L 509.909091 317.143566 
L 510.924652 357.81889 
L 511.432432 368.777998 
L 511.940213 366.403571 
L 512.447993 351.895076 
L 513.971335 293.321649 
L 514.479115 279.388118 
L 514.986896 268.830513 
L 515.494676 261.059697 
L 516.002457 255.584489 
L 516.510238 251.997647 
L 517.018018 249.992089 
L 517.525799 249.447522 
L 518.033579 250.325742 
L 518.54136 252.670378 
L 519.04914 256.643869 
L 519.556921 262.519462 
L 520.064701 270.645367 
L 520.572482 281.530949 
L 521.080262 295.663154 
L 522.603604 349.879318 
L 523.111384 360.586956 
L 523.619165 359.68915 
L 524.126945 347.322706 
L 526.158067 271.970493 
L 527.173628 245.299157 
L 529.712531 189.915831 
L 530.220311 180.914768 
L 530.728092 174.656901 
L 531.235872 172.212368 
L 531.743653 174.107476 
L 532.251433 179.926732 
L 533.266994 198.671887 
L 535.805897 253.822545 
L 537.329238 293.509249 
L 537.837019 306.670091 
L 538.344799 316.831258 
L 538.85258 321.523644 
L 539.36036 319.098065 
L 539.868141 309.906494 
L 540.883702 279.905646 
L 543.930385 183.155848 
L 544.438165 169.156441 
L 544.945946 158.505871 
L 545.453726 153.282621 
L 545.961507 154.634248 
L 546.469287 162.059647 
L 547.484848 187.916515 
L 550.531532 276.910626 
L 551.039312 287.931587 
L 551.547093 294.113445 
L 552.054873 293.815292 
L 552.562654 286.983433 
L 553.070434 275.130903 
L 554.593776 227.152044 
L 556.624898 161.335363 
L 557.132678 147.814262 
L 557.640459 138.486403 
L 558.148239 135.199457 
L 558.65602 138.536775 
L 559.1638 147.4754 
L 560.179361 174.164572 
L 563.226044 260.086383 
L 563.733825 270.680569 
L 564.241605 276.669659 
L 564.749386 276.641844 
L 565.257166 270.435679 
L 565.764947 259.345049 
L 567.288288 215.066328 
L 569.31941 151.411305 
L 570.334971 119.645085 
L 570.842752 108.652165 
L 571.350532 104.491637 
L 571.858313 108.086055 
L 572.366093 118.058121 
L 574.904996 182.502935 
L 576.428337 210.716884 
L 578.459459 245.089835 
L 578.96724 251.351378 
L 579.47502 255.138473 
L 579.982801 255.744471 
L 580.490581 253.023241 
L 580.998362 247.422275 
L 582.013923 231.212921 
L 584.552826 184.235984 
L 585.568387 159.013747 
L 586.583948 122.832047 
L 587.599509 80.175891 
L 588.107289 67.042318 
L 588.61507 66.96 
L 589.12285 80.053404 
L 590.646192 140.171988 
L 591.153972 155.166208 
L 591.661753 166.849268 
L 592.169533 175.820436 
L 592.677314 182.717336 
L 593.185094 188.025912 
L 593.692875 192.117231 
L 594.708436 197.770063 
L 595.216216 199.651421 
L 595.723997 201.03776 
L 596.231777 202.005503 
L 596.739558 202.60296 
L 597.247338 202.852709 
L 597.755119 202.765801 
L 598.262899 202.342073 
L 598.77068 201.565912 
L 599.27846 200.402189 
L 599.786241 198.796597 
L 600.294021 196.672313 
L 600.801802 193.924472 
L 601.309582 190.402333 
L 601.817363 185.892325 
L 602.325143 180.114869 
L 602.832924 172.724512 
L 603.340704 163.296144 
L 603.848485 151.339611 
L 604.864046 119.344772 
L 605.879607 86.319453 
L 606.387387 79.325873 
L 606.895168 83.458872 
L 607.402948 97.37389 
L 609.43407 170.879865 
L 610.957412 212.626459 
L 612.480753 251.197478 
L 612.988534 261.082674 
L 613.496314 266.997602 
L 614.004095 267.650478 
L 614.511876 262.951125 
L 615.019656 254.081506 
L 616.035217 230.071515 
L 618.57412 163.704436 
L 619.589681 135.25255 
L 620.097461 123.871911 
L 620.605242 117.57058 
L 621.113022 118.299837 
L 621.620803 126.083794 
L 622.128583 139.242692 
L 622.636364 155.353428 
L 622.636364 155.353428 
" clip-path="url(#p24f62ece22)" style="fill: none; stroke: #2ca02c; stroke-width: 1.5; stroke-linecap: square"/>
   </g>
   <g id="patch_3">
    <path d="M 90 384.48 
L 90 51.84 
" style="fill: none; stroke: #000000; stroke-width: 0.8; stroke-linejoin: miter; stroke-linecap: square"/>
   </g>
   <g id="patch_4">
    <path d="M 648 384.48 
L 648 51.84 
" style="fill: none; stroke: #000000; stroke-width: 0.8; stroke-linejoin: miter; stroke-linecap: square"/>
   </g>
   <g id="patch_5">
    <path d="M 90 384.48 
L 648 384.48 
" style="fill: none; stroke: #000000; stroke-width: 0.8; stroke-linejoin: miter; stroke-linecap: square"/>
   </g>
   <g id="patch_6">
    <path d="M 90 51.84 
L 648 51.84 
" style="fill: none; stroke: #000000; stroke-width: 0.8; stroke-linejoin: miter; stroke-linecap: square"/>
   </g>
   <g id="text_21">
    <!-- Simulation: A=10.0, $\omega$=10.0, l=2.8, $\theta_0$=3.266592653589793 -->
    <g transform="translate(185.88 45.84) scale(0.12 -0.12)">
     <defs>
      <path id="DejaVuSans-53" d="M 3425 4513 
L 3425 3897 
Q 3066 4069 2747 4153 
Q 2428 4238 2131 4238 
Q 1616 4238 1336 4038 
Q 1056 3838 1056 3469 
Q 1056 3159 1242 3001 
Q 1428 2844 1947 2747 
L 2328 2669 
Q 3034 2534 3370 2195 
Q 3706 1856 3706 1288 
Q 3706 609 3251 259 
Q 2797 -91 1919 -91 
Q 1588 -91 1214 -16 
Q 841 59 441 206 
L 441 856 
Q 825 641 1194 531 
Q 1563 422 1919 422 
Q 2459 422 2753 634 
Q 3047 847 3047 1241 
Q 3047 1584 2836 1778 
Q 2625 1972 2144 2069 
L 1759 2144 
Q 1053 2284 737 2584 
Q 422 2884 422 3419 
Q 422 4038 858 4394 
Q 1294 4750 2059 4750 
Q 2388 4750 2728 4690 
Q 3069 4631 3425 4513 
z
" transform="scale(0.015625)"/>
      <path id="DejaVuSans-75" d="M 544 1381 
L 544 3500 
L 1119 3500 
L 1119 1403 
Q 1119 906 1312 657 
Q 1506 409 1894 409 
Q 2359 409 2629 706 
Q 2900 1003 2900 1516 
L 2900 3500 
L 3475 3500 
L 3475 0 
L 2900 0 
L 2900 538 
Q 2691 219 2414 64 
Q 2138 -91 1772 -91 
Q 1169 -91 856 284 
Q 544 659 544 1381 
z
M 1991 3584 
L 1991 3584 
z
" transform="scale(0.015625)"/>
      <path id="DejaVuSans-6c" d="M 603 4863 
L 1178 4863 
L 1178 0 
L 603 0 
L 603 4863 
z
" transform="scale(0.015625)"/>
      <path id="DejaVuSans-61" d="M 2194 1759 
Q 1497 1759 1228 1600 
Q 959 1441 959 1056 
Q 959 750 1161 570 
Q 1363 391 1709 391 
Q 2188 391 2477 730 
Q 2766 1069 2766 1631 
L 2766 1759 
L 2194 1759 
z
M 3341 1997 
L 3341 0 
L 2766 0 
L 2766 531 
Q 2569 213 2275 61 
Q 1981 -91 1556 -91 
Q 1019 -91 701 211 
Q 384 513 384 1019 
Q 384 1609 779 1909 
Q 1175 2209 1959 2209 
L 2766 2209 
L 2766 2266 
Q 2766 2663 2505 2880 
Q 2244 3097 1772 3097 
Q 1472 3097 1187 3025 
Q 903 2953 641 2809 
L 641 3341 
Q 956 3463 1253 3523 
Q 1550 3584 1831 3584 
Q 2591 3584 2966 3190 
Q 3341 2797 3341 1997 
z
" transform="scale(0.015625)"/>
      <path id="DejaVuSans-6f" d="M 1959 3097 
Q 1497 3097 1228 2736 
Q 959 2375 959 1747 
Q 959 1119 1226 758 
Q 1494 397 1959 397 
Q 2419 397 2687 759 
Q 2956 1122 2956 1747 
Q 2956 2369 2687 2733 
Q 2419 3097 1959 3097 
z
M 1959 3584 
Q 2709 3584 3137 3096 
Q 3566 2609 3566 1747 
Q 3566 888 3137 398 
Q 2709 -91 1959 -91 
Q 1206 -91 779 398 
Q 353 888 353 1747 
Q 353 2609 779 3096 
Q 1206 3584 1959 3584 
z
" transform="scale(0.015625)"/>
      <path id="DejaVuSans-6e" d="M 3513 2113 
L 3513 0 
L 2938 0 
L 2938 2094 
Q 2938 2591 2744 2837 
Q 2550 3084 2163 3084 
Q 1697 3084 1428 2787 
Q 1159 2491 1159 1978 
L 1159 0 
L 581 0 
L 581 3500 
L 1159 3500 
L 1159 2956 
Q 1366 3272 1645 3428 
Q 1925 3584 2291 3584 
Q 2894 3584 3203 3211 
Q 3513 2838 3513 2113 
z
" transform="scale(0.015625)"/>
      <path id="DejaVuSans-3a" d="M 750 794 
L 1409 794 
L 1409 0 
L 750 0 
L 750 794 
z
M 750 3309 
L 1409 3309 
L 1409 2516 
L 750 2516 
L 750 3309 
z
" transform="scale(0.015625)"/>
      <path id="DejaVuSans-41" d="M 2188 4044 
L 1331 1722 
L 3047 1722 
L 2188 4044 
z
M 1831 4666 
L 2547 4666 
L 4325 0 
L 3669 0 
L 3244 1197 
L 1141 1197 
L 716 0 
L 50 0 
L 1831 4666 
z
" transform="scale(0.015625)"/>
      <path id="DejaVuSans-3d" d="M 678 2906 
L 4684 2906 
L 4684 2381 
L 678 2381 
L 678 2906 
z
M 678 1631 
L 4684 1631 
L 4684 1100 
L 678 1100 
L 678 1631 
z
" transform="scale(0.015625)"/>
      <path id="DejaVuSans-2c" d="M 750 794 
L 1409 794 
L 1409 256 
L 897 -744 
L 494 -744 
L 750 256 
L 750 794 
z
" transform="scale(0.015625)"/>
      <path id="DejaVuSans-Oblique-3c9" d="M 1369 -91 
Q 72 -91 434 1766 
Q 575 2500 1256 3500 
L 1875 3500 
Q 1231 2500 1088 1750 
Q 819 397 1519 397 
Q 2166 397 2478 2078 
L 3009 2078 
Q 2669 388 3316 397 
Q 4013 403 4275 1750 
Q 4419 2500 4169 3500 
L 4788 3500 
Q 5075 2500 4934 1766 
Q 4578 -94 3278 -91 
Q 2428 -88 2503 844 
Q 2194 -91 1369 -91 
z
" transform="scale(0.015625)"/>
      <path id="DejaVuSans-38" d="M 2034 2216 
Q 1584 2216 1326 1975 
Q 1069 1734 1069 1313 
Q 1069 891 1326 650 
Q 1584 409 2034 409 
Q 2484 409 2743 651 
Q 3003 894 3003 1313 
Q 3003 1734 2745 1975 
Q 2488 2216 2034 2216 
z
M 1403 2484 
Q 997 2584 770 2862 
Q 544 3141 544 3541 
Q 544 4100 942 4425 
Q 1341 4750 2034 4750 
Q 2731 4750 3128 4425 
Q 3525 4100 3525 3541 
Q 3525 3141 3298 2862 
Q 3072 2584 2669 2484 
Q 3125 2378 3379 2068 
Q 3634 1759 3634 1313 
Q 3634 634 3220 271 
Q 2806 -91 2034 -91 
Q 1263 -91 848 271 
Q 434 634 434 1313 
Q 434 1759 690 2068 
Q 947 2378 1403 2484 
z
M 1172 3481 
Q 1172 3119 1398 2916 
Q 1625 2713 2034 2713 
Q 2441 2713 2670 2916 
Q 2900 3119 2900 3481 
Q 2900 3844 2670 4047 
Q 2441 4250 2034 4250 
Q 1625 4250 1398 4047 
Q 1172 3844 1172 3481 
z
" transform="scale(0.015625)"/>
      <path id="DejaVuSans-36" d="M 2113 2584 
Q 1688 2584 1439 2293 
Q 1191 2003 1191 1497 
Q 1191 994 1439 701 
Q 1688 409 2113 409 
Q 2538 409 2786 701 
Q 3034 994 3034 1497 
Q 3034 2003 2786 2293 
Q 2538 2584 2113 2584 
z
M 3366 4563 
L 3366 3988 
Q 3128 4100 2886 4159 
Q 2644 4219 2406 4219 
Q 1781 4219 1451 3797 
Q 1122 3375 1075 2522 
Q 1259 2794 1537 2939 
Q 1816 3084 2150 3084 
Q 2853 3084 3261 2657 
Q 3669 2231 3669 1497 
Q 3669 778 3244 343 
Q 2819 -91 2113 -91 
Q 1303 -91 875 529 
Q 447 1150 447 2328 
Q 447 3434 972 4092 
Q 1497 4750 2381 4750 
Q 2619 4750 2861 4703 
Q 3103 4656 3366 4563 
z
" transform="scale(0.015625)"/>
      <path id="DejaVuSans-39" d="M 703 97 
L 703 672 
Q 941 559 1184 500 
Q 1428 441 1663 441 
Q 2288 441 2617 861 
Q 2947 1281 2994 2138 
Q 2813 1869 2534 1725 
Q 2256 1581 1919 1581 
Q 1219 1581 811 2004 
Q 403 2428 403 3163 
Q 403 3881 828 4315 
Q 1253 4750 1959 4750 
Q 2769 4750 3195 4129 
Q 3622 3509 3622 2328 
Q 3622 1225 3098 567 
Q 2575 -91 1691 -91 
Q 1453 -91 1209 -44 
Q 966 3 703 97 
z
M 1959 2075 
Q 2384 2075 2632 2365 
Q 2881 2656 2881 3163 
Q 2881 3666 2632 3958 
Q 2384 4250 1959 4250 
Q 1534 4250 1286 3958 
Q 1038 3666 1038 3163 
Q 1038 2656 1286 2365 
Q 1534 2075 1959 2075 
z
" transform="scale(0.015625)"/>
     </defs>
     <use xlink:href="#DejaVuSans-53" transform="translate(0 0.234375)"/>
     <use xlink:href="#DejaVuSans-69" transform="translate(63.476562 0.234375)"/>
     <use xlink:href="#DejaVuSans-6d" transform="translate(91.259766 0.234375)"/>
     <use xlink:href="#DejaVuSans-75" transform="translate(188.671875 0.234375)"/>
     <use xlink:href="#DejaVuSans-6c" transform="translate(252.050781 0.234375)"/>
     <use xlink:href="#DejaVuSans-61" transform="translate(279.833984 0.234375)"/>
     <use xlink:href="#DejaVuSans-74" transform="translate(341.113281 0.234375)"/>
     <use xlink:href="#DejaVuSans-69" transform="translate(380.322266 0.234375)"/>
     <use xlink:href="#DejaVuSans-6f" transform="translate(408.105469 0.234375)"/>
     <use xlink:href="#DejaVuSans-6e" transform="translate(469.287109 0.234375)"/>
     <use xlink:href="#DejaVuSans-3a" transform="translate(532.666016 0.234375)"/>
     <use xlink:href="#DejaVuSans-20" transform="translate(566.357422 0.234375)"/>
     <use xlink:href="#DejaVuSans-41" transform="translate(598.144531 0.234375)"/>
     <use xlink:href="#DejaVuSans-3d" transform="translate(666.552734 0.234375)"/>
     <use xlink:href="#DejaVuSans-31" transform="translate(750.341797 0.234375)"/>
     <use xlink:href="#DejaVuSans-30" transform="translate(813.964844 0.234375)"/>
     <use xlink:href="#DejaVuSans-2e" transform="translate(877.587891 0.234375)"/>
     <use xlink:href="#DejaVuSans-30" transform="translate(909.375 0.234375)"/>
     <use xlink:href="#DejaVuSans-2c" transform="translate(972.998047 0.234375)"/>
     <use xlink:href="#DejaVuSans-20" transform="translate(1004.785156 0.234375)"/>
     <use xlink:href="#DejaVuSans-Oblique-3c9" transform="translate(1036.572266 0.234375)"/>
     <use xlink:href="#DejaVuSans-3d" transform="translate(1120.3125 0.234375)"/>
     <use xlink:href="#DejaVuSans-31" transform="translate(1204.101562 0.234375)"/>
     <use xlink:href="#DejaVuSans-30" transform="translate(1267.724609 0.234375)"/>
     <use xlink:href="#DejaVuSans-2e" transform="translate(1331.347656 0.234375)"/>
     <use xlink:href="#DejaVuSans-30" transform="translate(1363.134766 0.234375)"/>
     <use xlink:href="#DejaVuSans-2c" transform="translate(1426.757812 0.234375)"/>
     <use xlink:href="#DejaVuSans-20" transform="translate(1458.544922 0.234375)"/>
     <use xlink:href="#DejaVuSans-6c" transform="translate(1490.332031 0.234375)"/>
     <use xlink:href="#DejaVuSans-3d" transform="translate(1518.115234 0.234375)"/>
     <use xlink:href="#DejaVuSans-32" transform="translate(1601.904297 0.234375)"/>
     <use xlink:href="#DejaVuSans-2e" transform="translate(1665.527344 0.234375)"/>
     <use xlink:href="#DejaVuSans-38" transform="translate(1694.689453 0.234375)"/>
     <use xlink:href="#DejaVuSans-2c" transform="translate(1758.3125 0.234375)"/>
     <use xlink:href="#DejaVuSans-20" transform="translate(1790.099609 0.234375)"/>
     <use xlink:href="#DejaVuSans-Oblique-3b8" transform="translate(1821.886719 0.234375)"/>
     <use xlink:href="#DejaVuSans-30" transform="translate(1883.068359 -16.171875) scale(0.7)"/>
     <use xlink:href="#DejaVuSans-3d" transform="translate(1930.338867 0.234375)"/>
     <use xlink:href="#DejaVuSans-33" transform="translate(2014.12793 0.234375)"/>
     <use xlink:href="#DejaVuSans-2e" transform="translate(2077.750977 0.234375)"/>
     <use xlink:href="#DejaVuSans-32" transform="translate(2104.038086 0.234375)"/>
     <use xlink:href="#DejaVuSans-36" transform="translate(2167.661133 0.234375)"/>
     <use xlink:href="#DejaVuSans-36" transform="translate(2231.28418 0.234375)"/>
     <use xlink:href="#DejaVuSans-35" transform="translate(2294.907227 0.234375)"/>
     <use xlink:href="#DejaVuSans-39" transform="translate(2353.030273 0.234375)"/>
     <use xlink:href="#DejaVuSans-32" transform="translate(2414.90332 0.234375)"/>
     <use xlink:href="#DejaVuSans-36" transform="translate(2478.526367 0.234375)"/>
     <use xlink:href="#DejaVuSans-35" transform="translate(2542.149414 0.234375)"/>
     <use xlink:href="#DejaVuSans-33" transform="translate(2605.772461 0.234375)"/>
     <use xlink:href="#DejaVuSans-35" transform="translate(2669.395508 0.234375)"/>
     <use xlink:href="#DejaVuSans-38" transform="translate(2733.018555 0.234375)"/>
     <use xlink:href="#DejaVuSans-39" transform="translate(2796.641602 0.234375)"/>
     <use xlink:href="#DejaVuSans-37" transform="translate(2860.264648 0.234375)"/>
     <use xlink:href="#DejaVuSans-39" transform="translate(2923.887695 0.234375)"/>
     <use xlink:href="#DejaVuSans-33" transform="translate(2987.510742 0.234375)"/>
    </g>
   </g>
   <g id="legend_1">
    <g id="patch_7">
     <path d="M 97 103.874375 
L 197.403125 103.874375 
Q 199.403125 103.874375 199.403125 101.874375 
L 199.403125 58.84 
Q 199.403125 56.84 197.403125 56.84 
L 97 56.84 
Q 95 56.84 95 58.84 
L 95 101.874375 
Q 95 103.874375 97 103.874375 
z
" style="fill: #ffffff; opacity: 0.8; stroke: #cccccc; stroke-linejoin: miter"/>
    </g>
    <g id="line2d_40">
     <path d="M 99 64.938437 
L 109 64.938437 
L 119 64.938437 
" style="fill: none; stroke: #1f77b4; stroke-width: 1.5; stroke-linecap: square"/>
    </g>
    <g id="text_22">
     <!-- Original -->
     <g transform="translate(127 68.438437) scale(0.1 -0.1)">
      <defs>
       <path id="DejaVuSans-4f" d="M 2522 4238 
Q 1834 4238 1429 3725 
Q 1025 3213 1025 2328 
Q 1025 1447 1429 934 
Q 1834 422 2522 422 
Q 3209 422 3611 934 
Q 4013 1447 4013 2328 
Q 4013 3213 3611 3725 
Q 3209 4238 2522 4238 
z
M 2522 4750 
Q 3503 4750 4090 4092 
Q 4678 3434 4678 2328 
Q 4678 1225 4090 567 
Q 3503 -91 2522 -91 
Q 1538 -91 948 565 
Q 359 1222 359 2328 
Q 359 3434 948 4092 
Q 1538 4750 2522 4750 
z
" transform="scale(0.015625)"/>
       <path id="DejaVuSans-72" d="M 2631 2963 
Q 2534 3019 2420 3045 
Q 2306 3072 2169 3072 
Q 1681 3072 1420 2755 
Q 1159 2438 1159 1844 
L 1159 0 
L 581 0 
L 581 3500 
L 1159 3500 
L 1159 2956 
Q 1341 3275 1631 3429 
Q 1922 3584 2338 3584 
Q 2397 3584 2469 3576 
Q 2541 3569 2628 3553 
L 2631 2963 
z
" transform="scale(0.015625)"/>
       <path id="DejaVuSans-67" d="M 2906 1791 
Q 2906 2416 2648 2759 
Q 2391 3103 1925 3103 
Q 1463 3103 1205 2759 
Q 947 2416 947 1791 
Q 947 1169 1205 825 
Q 1463 481 1925 481 
Q 2391 481 2648 825 
Q 2906 1169 2906 1791 
z
M 3481 434 
Q 3481 -459 3084 -895 
Q 2688 -1331 1869 -1331 
Q 1566 -1331 1297 -1286 
Q 1028 -1241 775 -1147 
L 775 -588 
Q 1028 -725 1275 -790 
Q 1522 -856 1778 -856 
Q 2344 -856 2625 -561 
Q 2906 -266 2906 331 
L 2906 616 
Q 2728 306 2450 153 
Q 2172 0 1784 0 
Q 1141 0 747 490 
Q 353 981 353 1791 
Q 353 2603 747 3093 
Q 1141 3584 1784 3584 
Q 2172 3584 2450 3431 
Q 2728 3278 2906 2969 
L 2906 3500 
L 3481 3500 
L 3481 434 
z
" transform="scale(0.015625)"/>
      </defs>
      <use xlink:href="#DejaVuSans-4f"/>
      <use xlink:href="#DejaVuSans-72" x="78.710938"/>
      <use xlink:href="#DejaVuSans-69" x="119.824219"/>
      <use xlink:href="#DejaVuSans-67" x="147.607422"/>
      <use xlink:href="#DejaVuSans-69" x="211.083984"/>
      <use xlink:href="#DejaVuSans-6e" x="238.867188"/>
      <use xlink:href="#DejaVuSans-61" x="302.246094"/>
      <use xlink:href="#DejaVuSans-6c" x="363.525391"/>
     </g>
    </g>
    <g id="line2d_41">
     <path d="M 99 79.616562 
L 109 79.616562 
L 119 79.616562 
" style="fill: none; stroke: #ff7f0e; stroke-width: 1.5; stroke-linecap: square"/>
    </g>
    <g id="text_23">
     <!-- First-Order -->
     <g transform="translate(127 83.116562) scale(0.1 -0.1)">
      <defs>
       <path id="DejaVuSans-46" d="M 628 4666 
L 3309 4666 
L 3309 4134 
L 1259 4134 
L 1259 2759 
L 3109 2759 
L 3109 2228 
L 1259 2228 
L 1259 0 
L 628 0 
L 628 4666 
z
" transform="scale(0.015625)"/>
       <path id="DejaVuSans-73" d="M 2834 3397 
L 2834 2853 
Q 2591 2978 2328 3040 
Q 2066 3103 1784 3103 
Q 1356 3103 1142 2972 
Q 928 2841 928 2578 
Q 928 2378 1081 2264 
Q 1234 2150 1697 2047 
L 1894 2003 
Q 2506 1872 2764 1633 
Q 3022 1394 3022 966 
Q 3022 478 2636 193 
Q 2250 -91 1575 -91 
Q 1294 -91 989 -36 
Q 684 19 347 128 
L 347 722 
Q 666 556 975 473 
Q 1284 391 1588 391 
Q 1994 391 2212 530 
Q 2431 669 2431 922 
Q 2431 1156 2273 1281 
Q 2116 1406 1581 1522 
L 1381 1569 
Q 847 1681 609 1914 
Q 372 2147 372 2553 
Q 372 3047 722 3315 
Q 1072 3584 1716 3584 
Q 2034 3584 2315 3537 
Q 2597 3491 2834 3397 
z
" transform="scale(0.015625)"/>
       <path id="DejaVuSans-2d" d="M 313 2009 
L 1997 2009 
L 1997 1497 
L 313 1497 
L 313 2009 
z
" transform="scale(0.015625)"/>
       <path id="DejaVuSans-64" d="M 2906 2969 
L 2906 4863 
L 3481 4863 
L 3481 0 
L 2906 0 
L 2906 525 
Q 2725 213 2448 61 
Q 2172 -91 1784 -91 
Q 1150 -91 751 415 
Q 353 922 353 1747 
Q 353 2572 751 3078 
Q 1150 3584 1784 3584 
Q 2172 3584 2448 3432 
Q 2725 3281 2906 2969 
z
M 947 1747 
Q 947 1113 1208 752 
Q 1469 391 1925 391 
Q 2381 391 2643 752 
Q 2906 1113 2906 1747 
Q 2906 2381 2643 2742 
Q 2381 3103 1925 3103 
Q 1469 3103 1208 2742 
Q 947 2381 947 1747 
z
" transform="scale(0.015625)"/>
      </defs>
      <use xlink:href="#DejaVuSans-46"/>
      <use xlink:href="#DejaVuSans-69" x="50.269531"/>
      <use xlink:href="#DejaVuSans-72" x="78.052734"/>
      <use xlink:href="#DejaVuSans-73" x="119.166016"/>
      <use xlink:href="#DejaVuSans-74" x="171.265625"/>
      <use xlink:href="#DejaVuSans-2d" x="210.474609"/>
      <use xlink:href="#DejaVuSans-4f" x="249.308594"/>
      <use xlink:href="#DejaVuSans-72" x="328.019531"/>
      <use xlink:href="#DejaVuSans-64" x="367.382812"/>
      <use xlink:href="#DejaVuSans-65" x="430.859375"/>
      <use xlink:href="#DejaVuSans-72" x="492.382812"/>
     </g>
    </g>
    <g id="line2d_42">
     <path d="M 99 94.294687 
L 109 94.294687 
L 119 94.294687 
" style="fill: none; stroke: #2ca02c; stroke-width: 1.5; stroke-linecap: square"/>
    </g>
    <g id="text_24">
     <!-- Second Order -->
     <g transform="translate(127 97.794687) scale(0.1 -0.1)">
      <defs>
       <path id="DejaVuSans-63" d="M 3122 3366 
L 3122 2828 
Q 2878 2963 2633 3030 
Q 2388 3097 2138 3097 
Q 1578 3097 1268 2742 
Q 959 2388 959 1747 
Q 959 1106 1268 751 
Q 1578 397 2138 397 
Q 2388 397 2633 464 
Q 2878 531 3122 666 
L 3122 134 
Q 2881 22 2623 -34 
Q 2366 -91 2075 -91 
Q 1284 -91 818 406 
Q 353 903 353 1747 
Q 353 2603 823 3093 
Q 1294 3584 2113 3584 
Q 2378 3584 2631 3529 
Q 2884 3475 3122 3366 
z
" transform="scale(0.015625)"/>
      </defs>
      <use xlink:href="#DejaVuSans-53"/>
      <use xlink:href="#DejaVuSans-65" x="63.476562"/>
      <use xlink:href="#DejaVuSans-63" x="125"/>
      <use xlink:href="#DejaVuSans-6f" x="179.980469"/>
      <use xlink:href="#DejaVuSans-6e" x="241.162109"/>
      <use xlink:href="#DejaVuSans-64" x="304.541016"/>
      <use xlink:href="#DejaVuSans-20" x="368.017578"/>
      <use xlink:href="#DejaVuSans-4f" x="399.804688"/>
      <use xlink:href="#DejaVuSans-72" x="478.515625"/>
      <use xlink:href="#DejaVuSans-64" x="517.878906"/>
      <use xlink:href="#DejaVuSans-65" x="581.355469"/>
      <use xlink:href="#DejaVuSans-72" x="642.878906"/>
     </g>
    </g>
   </g>
  </g>
 </g>
 <defs>
  <clipPath id="p24f62ece22">
   <rect x="90" y="51.84" width="558" height="332.64"/>
  </clipPath>
 </defs>
</svg>
