<?xml version="1.0" encoding="utf-8" standalone="no"?>
<!DOCTYPE svg PUBLIC "-//W3C//DTD SVG 1.1//EN"
  "http://www.w3.org/Graphics/SVG/1.1/DTD/svg11.dtd">
<svg xmlns:xlink="http://www.w3.org/1999/xlink" width="720pt" height="432pt" viewBox="0 0 720 432" xmlns="http://www.w3.org/2000/svg" version="1.1">
 <metadata>
  <rdf:RDF xmlns:dc="http://purl.org/dc/elements/1.1/" xmlns:cc="http://creativecommons.org/ns#" xmlns:rdf="http://www.w3.org/1999/02/22-rdf-syntax-ns#">
   <cc:Work>
    <dc:type rdf:resource="http://purl.org/dc/dcmitype/StillImage"/>
    <dc:date>2024-12-31T23:33:01.386597</dc:date>
    <dc:format>image/svg+xml</dc:format>
    <dc:creator>
     <cc:Agent>
      <dc:title>Matplotlib v3.7.2, https://matplotlib.org/</dc:title>
     </cc:Agent>
    </dc:creator>
   </cc:Work>
  </rdf:RDF>
 </metadata>
 <defs>
  <style type="text/css">*{stroke-linejoin: round; stroke-linecap: butt}</style>
 </defs>
 <g id="figure_1">
  <g id="patch_1">
   <path d="M 0 432 
L 720 432 
L 720 0 
L 0 0 
z
" style="fill: #ffffff"/>
  </g>
  <g id="axes_1">
   <g id="patch_2">
    <path d="M 90 384.48 
L 648 384.48 
L 648 51.84 
L 90 51.84 
z
" style="fill: #ffffff"/>
   </g>
   <g id="matplotlib.axis_1">
    <g id="xtick_1">
     <g id="line2d_1">
      <path d="M 115.363636 384.48 
L 115.363636 51.84 
" clip-path="url(#p895322a74e)" style="fill: none; stroke: #b0b0b0; stroke-width: 0.8; stroke-linecap: square"/>
     </g>
     <g id="line2d_2">
      <defs>
       <path id="mac0284faca" d="M 0 0 
L 0 3.5 
" style="stroke: #000000; stroke-width: 0.8"/>
      </defs>
      <g>
       <use xlink:href="#mac0284faca" x="115.363636" y="384.48" style="stroke: #000000; stroke-width: 0.8"/>
      </g>
     </g>
     <g id="text_1">
      <!-- 0.00 -->
      <g transform="translate(104.230824 399.078438) scale(0.1 -0.1)">
       <defs>
        <path id="DejaVuSans-30" d="M 2034 4250 
Q 1547 4250 1301 3770 
Q 1056 3291 1056 2328 
Q 1056 1369 1301 889 
Q 1547 409 2034 409 
Q 2525 409 2770 889 
Q 3016 1369 3016 2328 
Q 3016 3291 2770 3770 
Q 2525 4250 2034 4250 
z
M 2034 4750 
Q 2819 4750 3233 4129 
Q 3647 3509 3647 2328 
Q 3647 1150 3233 529 
Q 2819 -91 2034 -91 
Q 1250 -91 836 529 
Q 422 1150 422 2328 
Q 422 3509 836 4129 
Q 1250 4750 2034 4750 
z
" transform="scale(0.015625)"/>
        <path id="DejaVuSans-2e" d="M 684 794 
L 1344 794 
L 1344 0 
L 684 0 
L 684 794 
z
" transform="scale(0.015625)"/>
       </defs>
       <use xlink:href="#DejaVuSans-30"/>
       <use xlink:href="#DejaVuSans-2e" x="63.623047"/>
       <use xlink:href="#DejaVuSans-30" x="95.410156"/>
       <use xlink:href="#DejaVuSans-30" x="159.033203"/>
      </g>
     </g>
    </g>
    <g id="xtick_2">
     <g id="line2d_3">
      <path d="M 178.772727 384.48 
L 178.772727 51.84 
" clip-path="url(#p895322a74e)" style="fill: none; stroke: #b0b0b0; stroke-width: 0.8; stroke-linecap: square"/>
     </g>
     <g id="line2d_4">
      <g>
       <use xlink:href="#mac0284faca" x="178.772727" y="384.48" style="stroke: #000000; stroke-width: 0.8"/>
      </g>
     </g>
     <g id="text_2">
      <!-- 0.25 -->
      <g transform="translate(167.639915 399.078438) scale(0.1 -0.1)">
       <defs>
        <path id="DejaVuSans-32" d="M 1228 531 
L 3431 531 
L 3431 0 
L 469 0 
L 469 531 
Q 828 903 1448 1529 
Q 2069 2156 2228 2338 
Q 2531 2678 2651 2914 
Q 2772 3150 2772 3378 
Q 2772 3750 2511 3984 
Q 2250 4219 1831 4219 
Q 1534 4219 1204 4116 
Q 875 4013 500 3803 
L 500 4441 
Q 881 4594 1212 4672 
Q 1544 4750 1819 4750 
Q 2544 4750 2975 4387 
Q 3406 4025 3406 3419 
Q 3406 3131 3298 2873 
Q 3191 2616 2906 2266 
Q 2828 2175 2409 1742 
Q 1991 1309 1228 531 
z
" transform="scale(0.015625)"/>
        <path id="DejaVuSans-35" d="M 691 4666 
L 3169 4666 
L 3169 4134 
L 1269 4134 
L 1269 2991 
Q 1406 3038 1543 3061 
Q 1681 3084 1819 3084 
Q 2600 3084 3056 2656 
Q 3513 2228 3513 1497 
Q 3513 744 3044 326 
Q 2575 -91 1722 -91 
Q 1428 -91 1123 -41 
Q 819 9 494 109 
L 494 744 
Q 775 591 1075 516 
Q 1375 441 1709 441 
Q 2250 441 2565 725 
Q 2881 1009 2881 1497 
Q 2881 1984 2565 2268 
Q 2250 2553 1709 2553 
Q 1456 2553 1204 2497 
Q 953 2441 691 2322 
L 691 4666 
z
" transform="scale(0.015625)"/>
       </defs>
       <use xlink:href="#DejaVuSans-30"/>
       <use xlink:href="#DejaVuSans-2e" x="63.623047"/>
       <use xlink:href="#DejaVuSans-32" x="95.410156"/>
       <use xlink:href="#DejaVuSans-35" x="159.033203"/>
      </g>
     </g>
    </g>
    <g id="xtick_3">
     <g id="line2d_5">
      <path d="M 242.181818 384.48 
L 242.181818 51.84 
" clip-path="url(#p895322a74e)" style="fill: none; stroke: #b0b0b0; stroke-width: 0.8; stroke-linecap: square"/>
     </g>
     <g id="line2d_6">
      <g>
       <use xlink:href="#mac0284faca" x="242.181818" y="384.48" style="stroke: #000000; stroke-width: 0.8"/>
      </g>
     </g>
     <g id="text_3">
      <!-- 0.50 -->
      <g transform="translate(231.049006 399.078438) scale(0.1 -0.1)">
       <use xlink:href="#DejaVuSans-30"/>
       <use xlink:href="#DejaVuSans-2e" x="63.623047"/>
       <use xlink:href="#DejaVuSans-35" x="95.410156"/>
       <use xlink:href="#DejaVuSans-30" x="159.033203"/>
      </g>
     </g>
    </g>
    <g id="xtick_4">
     <g id="line2d_7">
      <path d="M 305.590909 384.48 
L 305.590909 51.84 
" clip-path="url(#p895322a74e)" style="fill: none; stroke: #b0b0b0; stroke-width: 0.8; stroke-linecap: square"/>
     </g>
     <g id="line2d_8">
      <g>
       <use xlink:href="#mac0284faca" x="305.590909" y="384.48" style="stroke: #000000; stroke-width: 0.8"/>
      </g>
     </g>
     <g id="text_4">
      <!-- 0.75 -->
      <g transform="translate(294.458097 399.078438) scale(0.1 -0.1)">
       <defs>
        <path id="DejaVuSans-37" d="M 525 4666 
L 3525 4666 
L 3525 4397 
L 1831 0 
L 1172 0 
L 2766 4134 
L 525 4134 
L 525 4666 
z
" transform="scale(0.015625)"/>
       </defs>
       <use xlink:href="#DejaVuSans-30"/>
       <use xlink:href="#DejaVuSans-2e" x="63.623047"/>
       <use xlink:href="#DejaVuSans-37" x="95.410156"/>
       <use xlink:href="#DejaVuSans-35" x="159.033203"/>
      </g>
     </g>
    </g>
    <g id="xtick_5">
     <g id="line2d_9">
      <path d="M 369 384.48 
L 369 51.84 
" clip-path="url(#p895322a74e)" style="fill: none; stroke: #b0b0b0; stroke-width: 0.8; stroke-linecap: square"/>
     </g>
     <g id="line2d_10">
      <g>
       <use xlink:href="#mac0284faca" x="369" y="384.48" style="stroke: #000000; stroke-width: 0.8"/>
      </g>
     </g>
     <g id="text_5">
      <!-- 1.00 -->
      <g transform="translate(357.867188 399.078438) scale(0.1 -0.1)">
       <defs>
        <path id="DejaVuSans-31" d="M 794 531 
L 1825 531 
L 1825 4091 
L 703 3866 
L 703 4441 
L 1819 4666 
L 2450 4666 
L 2450 531 
L 3481 531 
L 3481 0 
L 794 0 
L 794 531 
z
" transform="scale(0.015625)"/>
       </defs>
       <use xlink:href="#DejaVuSans-31"/>
       <use xlink:href="#DejaVuSans-2e" x="63.623047"/>
       <use xlink:href="#DejaVuSans-30" x="95.410156"/>
       <use xlink:href="#DejaVuSans-30" x="159.033203"/>
      </g>
     </g>
    </g>
    <g id="xtick_6">
     <g id="line2d_11">
      <path d="M 432.409091 384.48 
L 432.409091 51.84 
" clip-path="url(#p895322a74e)" style="fill: none; stroke: #b0b0b0; stroke-width: 0.8; stroke-linecap: square"/>
     </g>
     <g id="line2d_12">
      <g>
       <use xlink:href="#mac0284faca" x="432.409091" y="384.48" style="stroke: #000000; stroke-width: 0.8"/>
      </g>
     </g>
     <g id="text_6">
      <!-- 1.25 -->
      <g transform="translate(421.276278 399.078438) scale(0.1 -0.1)">
       <use xlink:href="#DejaVuSans-31"/>
       <use xlink:href="#DejaVuSans-2e" x="63.623047"/>
       <use xlink:href="#DejaVuSans-32" x="95.410156"/>
       <use xlink:href="#DejaVuSans-35" x="159.033203"/>
      </g>
     </g>
    </g>
    <g id="xtick_7">
     <g id="line2d_13">
      <path d="M 495.818182 384.48 
L 495.818182 51.84 
" clip-path="url(#p895322a74e)" style="fill: none; stroke: #b0b0b0; stroke-width: 0.8; stroke-linecap: square"/>
     </g>
     <g id="line2d_14">
      <g>
       <use xlink:href="#mac0284faca" x="495.818182" y="384.48" style="stroke: #000000; stroke-width: 0.8"/>
      </g>
     </g>
     <g id="text_7">
      <!-- 1.50 -->
      <g transform="translate(484.685369 399.078438) scale(0.1 -0.1)">
       <use xlink:href="#DejaVuSans-31"/>
       <use xlink:href="#DejaVuSans-2e" x="63.623047"/>
       <use xlink:href="#DejaVuSans-35" x="95.410156"/>
       <use xlink:href="#DejaVuSans-30" x="159.033203"/>
      </g>
     </g>
    </g>
    <g id="xtick_8">
     <g id="line2d_15">
      <path d="M 559.227273 384.48 
L 559.227273 51.84 
" clip-path="url(#p895322a74e)" style="fill: none; stroke: #b0b0b0; stroke-width: 0.8; stroke-linecap: square"/>
     </g>
     <g id="line2d_16">
      <g>
       <use xlink:href="#mac0284faca" x="559.227273" y="384.48" style="stroke: #000000; stroke-width: 0.8"/>
      </g>
     </g>
     <g id="text_8">
      <!-- 1.75 -->
      <g transform="translate(548.09446 399.078438) scale(0.1 -0.1)">
       <use xlink:href="#DejaVuSans-31"/>
       <use xlink:href="#DejaVuSans-2e" x="63.623047"/>
       <use xlink:href="#DejaVuSans-37" x="95.410156"/>
       <use xlink:href="#DejaVuSans-35" x="159.033203"/>
      </g>
     </g>
    </g>
    <g id="xtick_9">
     <g id="line2d_17">
      <path d="M 622.636364 384.48 
L 622.636364 51.84 
" clip-path="url(#p895322a74e)" style="fill: none; stroke: #b0b0b0; stroke-width: 0.8; stroke-linecap: square"/>
     </g>
     <g id="line2d_18">
      <g>
       <use xlink:href="#mac0284faca" x="622.636364" y="384.48" style="stroke: #000000; stroke-width: 0.8"/>
      </g>
     </g>
     <g id="text_9">
      <!-- 2.00 -->
      <g transform="translate(611.503551 399.078438) scale(0.1 -0.1)">
       <use xlink:href="#DejaVuSans-32"/>
       <use xlink:href="#DejaVuSans-2e" x="63.623047"/>
       <use xlink:href="#DejaVuSans-30" x="95.410156"/>
       <use xlink:href="#DejaVuSans-30" x="159.033203"/>
      </g>
     </g>
    </g>
    <g id="text_10">
     <!-- Time (t) -->
     <g transform="translate(349.315625 412.756563) scale(0.1 -0.1)">
      <defs>
       <path id="DejaVuSans-54" d="M -19 4666 
L 3928 4666 
L 3928 4134 
L 2272 4134 
L 2272 0 
L 1638 0 
L 1638 4134 
L -19 4134 
L -19 4666 
z
" transform="scale(0.015625)"/>
       <path id="DejaVuSans-69" d="M 603 3500 
L 1178 3500 
L 1178 0 
L 603 0 
L 603 3500 
z
M 603 4863 
L 1178 4863 
L 1178 4134 
L 603 4134 
L 603 4863 
z
" transform="scale(0.015625)"/>
       <path id="DejaVuSans-6d" d="M 3328 2828 
Q 3544 3216 3844 3400 
Q 4144 3584 4550 3584 
Q 5097 3584 5394 3201 
Q 5691 2819 5691 2113 
L 5691 0 
L 5113 0 
L 5113 2094 
Q 5113 2597 4934 2840 
Q 4756 3084 4391 3084 
Q 3944 3084 3684 2787 
Q 3425 2491 3425 1978 
L 3425 0 
L 2847 0 
L 2847 2094 
Q 2847 2600 2669 2842 
Q 2491 3084 2119 3084 
Q 1678 3084 1418 2786 
Q 1159 2488 1159 1978 
L 1159 0 
L 581 0 
L 581 3500 
L 1159 3500 
L 1159 2956 
Q 1356 3278 1631 3431 
Q 1906 3584 2284 3584 
Q 2666 3584 2933 3390 
Q 3200 3197 3328 2828 
z
" transform="scale(0.015625)"/>
       <path id="DejaVuSans-65" d="M 3597 1894 
L 3597 1613 
L 953 1613 
Q 991 1019 1311 708 
Q 1631 397 2203 397 
Q 2534 397 2845 478 
Q 3156 559 3463 722 
L 3463 178 
Q 3153 47 2828 -22 
Q 2503 -91 2169 -91 
Q 1331 -91 842 396 
Q 353 884 353 1716 
Q 353 2575 817 3079 
Q 1281 3584 2069 3584 
Q 2775 3584 3186 3129 
Q 3597 2675 3597 1894 
z
M 3022 2063 
Q 3016 2534 2758 2815 
Q 2500 3097 2075 3097 
Q 1594 3097 1305 2825 
Q 1016 2553 972 2059 
L 3022 2063 
z
" transform="scale(0.015625)"/>
       <path id="DejaVuSans-20" transform="scale(0.015625)"/>
       <path id="DejaVuSans-28" d="M 1984 4856 
Q 1566 4138 1362 3434 
Q 1159 2731 1159 2009 
Q 1159 1288 1364 580 
Q 1569 -128 1984 -844 
L 1484 -844 
Q 1016 -109 783 600 
Q 550 1309 550 2009 
Q 550 2706 781 3412 
Q 1013 4119 1484 4856 
L 1984 4856 
z
" transform="scale(0.015625)"/>
       <path id="DejaVuSans-74" d="M 1172 4494 
L 1172 3500 
L 2356 3500 
L 2356 3053 
L 1172 3053 
L 1172 1153 
Q 1172 725 1289 603 
Q 1406 481 1766 481 
L 2356 481 
L 2356 0 
L 1766 0 
Q 1100 0 847 248 
Q 594 497 594 1153 
L 594 3053 
L 172 3053 
L 172 3500 
L 594 3500 
L 594 4494 
L 1172 4494 
z
" transform="scale(0.015625)"/>
       <path id="DejaVuSans-29" d="M 513 4856 
L 1013 4856 
Q 1481 4119 1714 3412 
Q 1947 2706 1947 2009 
Q 1947 1309 1714 600 
Q 1481 -109 1013 -844 
L 513 -844 
Q 928 -128 1133 580 
Q 1338 1288 1338 2009 
Q 1338 2731 1133 3434 
Q 928 4138 513 4856 
z
" transform="scale(0.015625)"/>
      </defs>
      <use xlink:href="#DejaVuSans-54"/>
      <use xlink:href="#DejaVuSans-69" x="57.958984"/>
      <use xlink:href="#DejaVuSans-6d" x="85.742188"/>
      <use xlink:href="#DejaVuSans-65" x="183.154297"/>
      <use xlink:href="#DejaVuSans-20" x="244.677734"/>
      <use xlink:href="#DejaVuSans-28" x="276.464844"/>
      <use xlink:href="#DejaVuSans-74" x="315.478516"/>
      <use xlink:href="#DejaVuSans-29" x="354.6875"/>
     </g>
    </g>
   </g>
   <g id="matplotlib.axis_2">
    <g id="ytick_1">
     <g id="line2d_19">
      <path d="M 90 381.811359 
L 648 381.811359 
" clip-path="url(#p895322a74e)" style="fill: none; stroke: #b0b0b0; stroke-width: 0.8; stroke-linecap: square"/>
     </g>
     <g id="line2d_20">
      <defs>
       <path id="mb46a4ea0a4" d="M 0 0 
L -3.5 0 
" style="stroke: #000000; stroke-width: 0.8"/>
      </defs>
      <g>
       <use xlink:href="#mb46a4ea0a4" x="90" y="381.811359" style="stroke: #000000; stroke-width: 0.8"/>
      </g>
     </g>
     <g id="text_11">
      <!-- −2500 -->
      <g transform="translate(49.170313 385.610578) scale(0.1 -0.1)">
       <defs>
        <path id="DejaVuSans-2212" d="M 678 2272 
L 4684 2272 
L 4684 1741 
L 678 1741 
L 678 2272 
z
" transform="scale(0.015625)"/>
       </defs>
       <use xlink:href="#DejaVuSans-2212"/>
       <use xlink:href="#DejaVuSans-32" x="83.789062"/>
       <use xlink:href="#DejaVuSans-35" x="147.412109"/>
       <use xlink:href="#DejaVuSans-30" x="211.035156"/>
       <use xlink:href="#DejaVuSans-30" x="274.658203"/>
      </g>
     </g>
    </g>
    <g id="ytick_2">
     <g id="line2d_21">
      <path d="M 90 327.515092 
L 648 327.515092 
" clip-path="url(#p895322a74e)" style="fill: none; stroke: #b0b0b0; stroke-width: 0.8; stroke-linecap: square"/>
     </g>
     <g id="line2d_22">
      <g>
       <use xlink:href="#mb46a4ea0a4" x="90" y="327.515092" style="stroke: #000000; stroke-width: 0.8"/>
      </g>
     </g>
     <g id="text_12">
      <!-- −2000 -->
      <g transform="translate(49.170313 331.31431) scale(0.1 -0.1)">
       <use xlink:href="#DejaVuSans-2212"/>
       <use xlink:href="#DejaVuSans-32" x="83.789062"/>
       <use xlink:href="#DejaVuSans-30" x="147.412109"/>
       <use xlink:href="#DejaVuSans-30" x="211.035156"/>
       <use xlink:href="#DejaVuSans-30" x="274.658203"/>
      </g>
     </g>
    </g>
    <g id="ytick_3">
     <g id="line2d_23">
      <path d="M 90 273.218824 
L 648 273.218824 
" clip-path="url(#p895322a74e)" style="fill: none; stroke: #b0b0b0; stroke-width: 0.8; stroke-linecap: square"/>
     </g>
     <g id="line2d_24">
      <g>
       <use xlink:href="#mb46a4ea0a4" x="90" y="273.218824" style="stroke: #000000; stroke-width: 0.8"/>
      </g>
     </g>
     <g id="text_13">
      <!-- −1500 -->
      <g transform="translate(49.170313 277.018043) scale(0.1 -0.1)">
       <use xlink:href="#DejaVuSans-2212"/>
       <use xlink:href="#DejaVuSans-31" x="83.789062"/>
       <use xlink:href="#DejaVuSans-35" x="147.412109"/>
       <use xlink:href="#DejaVuSans-30" x="211.035156"/>
       <use xlink:href="#DejaVuSans-30" x="274.658203"/>
      </g>
     </g>
    </g>
    <g id="ytick_4">
     <g id="line2d_25">
      <path d="M 90 218.922556 
L 648 218.922556 
" clip-path="url(#p895322a74e)" style="fill: none; stroke: #b0b0b0; stroke-width: 0.8; stroke-linecap: square"/>
     </g>
     <g id="line2d_26">
      <g>
       <use xlink:href="#mb46a4ea0a4" x="90" y="218.922556" style="stroke: #000000; stroke-width: 0.8"/>
      </g>
     </g>
     <g id="text_14">
      <!-- −1000 -->
      <g transform="translate(49.170313 222.721775) scale(0.1 -0.1)">
       <use xlink:href="#DejaVuSans-2212"/>
       <use xlink:href="#DejaVuSans-31" x="83.789062"/>
       <use xlink:href="#DejaVuSans-30" x="147.412109"/>
       <use xlink:href="#DejaVuSans-30" x="211.035156"/>
       <use xlink:href="#DejaVuSans-30" x="274.658203"/>
      </g>
     </g>
    </g>
    <g id="ytick_5">
     <g id="line2d_27">
      <path d="M 90 164.626289 
L 648 164.626289 
" clip-path="url(#p895322a74e)" style="fill: none; stroke: #b0b0b0; stroke-width: 0.8; stroke-linecap: square"/>
     </g>
     <g id="line2d_28">
      <g>
       <use xlink:href="#mb46a4ea0a4" x="90" y="164.626289" style="stroke: #000000; stroke-width: 0.8"/>
      </g>
     </g>
     <g id="text_15">
      <!-- −500 -->
      <g transform="translate(55.532812 168.425508) scale(0.1 -0.1)">
       <use xlink:href="#DejaVuSans-2212"/>
       <use xlink:href="#DejaVuSans-35" x="83.789062"/>
       <use xlink:href="#DejaVuSans-30" x="147.412109"/>
       <use xlink:href="#DejaVuSans-30" x="211.035156"/>
      </g>
     </g>
    </g>
    <g id="ytick_6">
     <g id="line2d_29">
      <path d="M 90 110.330021 
L 648 110.330021 
" clip-path="url(#p895322a74e)" style="fill: none; stroke: #b0b0b0; stroke-width: 0.8; stroke-linecap: square"/>
     </g>
     <g id="line2d_30">
      <g>
       <use xlink:href="#mb46a4ea0a4" x="90" y="110.330021" style="stroke: #000000; stroke-width: 0.8"/>
      </g>
     </g>
     <g id="text_16">
      <!-- 0 -->
      <g transform="translate(76.6375 114.12924) scale(0.1 -0.1)">
       <use xlink:href="#DejaVuSans-30"/>
      </g>
     </g>
    </g>
    <g id="ytick_7">
     <g id="line2d_31">
      <path d="M 90 56.033754 
L 648 56.033754 
" clip-path="url(#p895322a74e)" style="fill: none; stroke: #b0b0b0; stroke-width: 0.8; stroke-linecap: square"/>
     </g>
     <g id="line2d_32">
      <g>
       <use xlink:href="#mb46a4ea0a4" x="90" y="56.033754" style="stroke: #000000; stroke-width: 0.8"/>
      </g>
     </g>
     <g id="text_17">
      <!-- 500 -->
      <g transform="translate(63.9125 59.832972) scale(0.1 -0.1)">
       <use xlink:href="#DejaVuSans-35"/>
       <use xlink:href="#DejaVuSans-30" x="63.623047"/>
       <use xlink:href="#DejaVuSans-30" x="127.246094"/>
      </g>
     </g>
    </g>
    <g id="text_18">
     <!-- $\theta(t)$ -->
     <g transform="translate(43.090625 227.11) rotate(-90) scale(0.1 -0.1)">
      <defs>
       <path id="DejaVuSans-Oblique-3b8" d="M 2913 2219 
L 925 2219 
Q 791 1284 928 888 
Q 1100 400 1566 400 
Q 2034 400 2391 891 
Q 2703 1322 2913 2219 
z
M 3009 2750 
Q 3094 3638 2984 3950 
Q 2813 4444 2353 4444 
Q 1875 4444 1525 3956 
Q 1250 3563 1034 2750 
L 3009 2750 
z
M 2444 4913 
Q 3194 4913 3494 4250 
Q 3794 3591 3566 2422 
Q 3341 1256 2781 594 
Q 2225 -72 1475 -72 
Q 722 -72 425 594 
Q 128 1256 353 2422 
Q 581 3591 1134 4250 
Q 1691 4913 2444 4913 
z
" transform="scale(0.015625)"/>
       <path id="DejaVuSans-Oblique-74" d="M 2706 3500 
L 2619 3053 
L 1472 3053 
L 1100 1153 
Q 1081 1047 1072 975 
Q 1063 903 1063 863 
Q 1063 663 1183 572 
Q 1303 481 1569 481 
L 2150 481 
L 2053 0 
L 1503 0 
Q 991 0 739 200 
Q 488 400 488 806 
Q 488 878 497 964 
Q 506 1050 525 1153 
L 897 3053 
L 409 3053 
L 500 3500 
L 978 3500 
L 1172 4494 
L 1747 4494 
L 1556 3500 
L 2706 3500 
z
" transform="scale(0.015625)"/>
      </defs>
      <use xlink:href="#DejaVuSans-Oblique-3b8" transform="translate(0 0.234375)"/>
      <use xlink:href="#DejaVuSans-28" transform="translate(61.181641 0.234375)"/>
      <use xlink:href="#DejaVuSans-Oblique-74" transform="translate(100.195312 0.234375)"/>
      <use xlink:href="#DejaVuSans-29" transform="translate(139.404297 0.234375)"/>
     </g>
    </g>
   </g>
   <g id="line2d_33">
    <path d="M 115.363636 109.991583 
L 127.042588 110.100607 
L 149.892711 110.389648 
L 195.592957 110.516477 
L 219.45864 110.456607 
L 256.018837 110.728173 
L 279.884521 111.039479 
L 292.071253 110.887097 
L 315.936937 110.528474 
L 339.802621 110.367126 
L 354.528256 110.542201 
L 368.238329 110.629446 
L 383.979525 110.467242 
L 426.633088 110.020445 
L 439.835381 110.179194 
L 454.561016 110.314188 
L 471.317772 110.202911 
L 498.73792 109.81417 
L 512.955774 109.5978 
L 525.142506 109.653749 
L 580.490581 110.335952 
L 593.692875 110.131078 
L 606.895168 109.974444 
L 620.097461 110.057816 
L 622.636364 110.092913 
L 622.636364 110.092913 
" clip-path="url(#p895322a74e)" style="fill: none; stroke: #1f77b4; stroke-width: 1.5; stroke-linecap: square"/>
   </g>
   <g id="line2d_34">
    <path d="M 115.363636 109.991583 
L 127.042588 110.104951 
L 139.737101 110.459348 
L 157.509419 111.207517 
L 180.867322 112.161196 
L 194.577396 112.481282 
L 207.779689 112.564985 
L 223.520885 112.431703 
L 252.464373 112.142866 
L 264.143325 112.274317 
L 274.806716 112.619131 
L 284.962326 113.168855 
L 295.625717 113.963494 
L 307.304668 115.054231 
L 322.030303 116.668841 
L 375.347256 122.953633 
L 389.05733 124.745137 
L 399.21294 126.291793 
L 407.845209 127.834099 
L 415.461916 129.415509 
L 422.570844 131.109466 
L 429.679771 133.039279 
L 436.280917 135.061756 
L 442.882064 137.322214 
L 449.48321 139.834218 
L 455.576577 142.386524 
L 461.669943 145.166098 
L 468.271089 148.430804 
L 474.872236 151.959854 
L 481.473382 155.758423 
L 487.566749 159.512332 
L 493.660115 163.515178 
L 499.753481 167.78132 
L 505.846847 172.328408 
L 511.432432 176.761203 
L 517.018018 181.466193 
L 522.603604 186.464265 
L 528.189189 191.77863 
L 533.266994 196.905783 
L 538.344799 202.336265 
L 543.422604 208.099822 
L 547.992629 213.60309 
L 552.562654 219.430029 
L 557.132678 225.604958 
L 561.702703 232.153145 
L 566.272727 239.100806 
L 570.842752 246.475102 
L 575.412776 254.304146 
L 579.982801 262.616996 
L 584.552826 271.443659 
L 589.12285 280.815091 
L 593.185094 289.628357 
L 597.247338 298.920287 
L 601.309582 308.714506 
L 605.371826 319.035233 
L 609.43407 329.907278 
L 613.496314 341.356045 
L 617.558559 353.407525 
L 621.620803 366.088305 
L 622.636364 369.36 
L 622.636364 369.36 
" clip-path="url(#p895322a74e)" style="fill: none; stroke: #ff7f0e; stroke-width: 1.5; stroke-linecap: square"/>
   </g>
   <g id="line2d_35">
    <path d="M 115.363636 109.991583 
L 127.042588 110.100501 
L 142.783784 110.26697 
L 160.556102 110.081438 
L 192.546274 109.791773 
L 208.79525 110.042049 
L 223.013104 109.991514 
L 246.878788 109.635371 
L 252.972154 109.372993 
L 256.018837 109.043346 
L 258.049959 108.60143 
L 259.573301 107.999392 
L 260.588862 107.328823 
L 261.604423 106.242805 
L 262.112203 105.435312 
L 262.619984 104.334987 
L 263.127764 102.806377 
L 263.635545 100.618188 
L 264.143325 97.392418 
L 264.651106 92.593827 
L 265.158886 85.620162 
L 266.174447 69.557603 
L 266.682228 69.844255 
L 268.205569 91.616115 
L 268.71335 95.158356 
L 269.22113 96.545242 
L 269.728911 95.989729 
L 270.236691 93.384589 
L 270.744472 88.306364 
L 271.760033 71.389766 
L 272.267813 66.96 
L 272.775594 71.58468 
L 273.791155 88.191565 
L 274.298935 92.908639 
L 274.806716 94.998559 
L 275.314496 94.792066 
L 275.822277 92.207691 
L 276.330057 86.895465 
L 277.345618 70.073532 
L 277.853399 67.198604 
L 278.361179 73.179015 
L 279.37674 89.723786 
L 279.884521 94.34414 
L 280.392301 96.64759 
L 280.900082 97.046434 
L 281.407862 95.607223 
L 281.915643 92.131194 
L 282.423423 86.165567 
L 283.438984 70.38302 
L 283.946765 69.544864 
L 284.454545 76.41598 
L 285.470106 92.559096 
L 285.977887 97.667609 
L 286.485667 101.273894 
L 287.501229 106.201526 
L 289.532351 114.052834 
L 290.040131 115.636608 
L 290.547912 116.640489 
L 291.055692 116.842911 
L 291.563473 116.194683 
L 292.071253 114.861564 
L 293.594595 109.294272 
L 295.117936 103.055885 
L 295.625717 100.349918 
L 296.133497 96.984743 
L 297.149058 87.94315 
L 297.656839 83.450975 
L 298.164619 81.237765 
L 298.6724 82.776581 
L 299.18018 87.306886 
L 300.703522 103.503479 
L 302.226863 117.702975 
L 302.734644 121.504401 
L 303.242424 123.397314 
L 303.750205 122.637462 
L 304.257985 119.63195 
L 305.781327 106.308354 
L 307.304668 92.623885 
L 307.812449 89.623037 
L 308.320229 89.150415 
L 308.82801 91.595538 
L 309.843571 101.361902 
L 311.874693 122.501659 
L 312.382473 126.01763 
L 312.890254 126.946157 
L 313.398034 124.95434 
L 314.413595 116.127081 
L 316.444717 96.765524 
L 316.952498 93.879878 
L 317.460278 93.674442 
L 317.968059 96.281574 
L 318.98362 105.886265 
L 321.014742 126.715541 
L 321.522523 130.312745 
L 322.030303 131.408613 
L 322.538084 129.68503 
L 323.553645 121.44387 
L 325.584767 103.759413 
L 326.092547 99.927709 
L 326.600328 97.480552 
L 327.108108 97.363497 
L 327.615889 99.650289 
L 328.63145 107.943689 
L 330.154791 122.007004 
L 331.678133 137.987316 
L 332.185913 139.715227 
L 332.693694 137.579836 
L 334.217035 124.024511 
L 334.724816 120.899627 
L 335.232596 118.617651 
L 335.740377 116.985543 
L 336.248157 115.833233 
L 336.755938 115.051782 
L 337.263718 114.561897 
L 337.771499 114.318849 
L 338.279279 114.307968 
L 338.78706 114.53068 
L 339.29484 115.013387 
L 339.802621 115.815318 
L 340.310401 117.036559 
L 340.818182 118.849198 
L 341.325962 121.543736 
L 341.833743 125.534541 
L 342.341523 131.339956 
L 343.357084 146.811569 
L 343.864865 149.712773 
L 344.372645 145.252146 
L 345.388206 130.962933 
L 345.895987 126.765647 
L 346.403767 124.849651 
L 346.911548 125.018286 
L 347.419328 127.313934 
L 347.927109 132.063928 
L 348.94267 147.798559 
L 349.45045 151.960439 
L 349.958231 147.985307 
L 350.973792 132.721879 
L 351.481572 128.458146 
L 351.989353 126.956035 
L 352.497133 128.058434 
L 353.004914 131.910918 
L 353.512695 138.670617 
L 354.020475 147.159108 
L 354.528256 152.503346 
L 355.036036 149.541234 
L 356.051597 133.647327 
L 356.559378 128.805254 
L 357.067158 126.769402 
L 357.574939 127.313156 
L 358.082719 130.494257 
L 358.5905 136.520711 
L 359.606061 151.221453 
L 360.113841 150.294887 
L 361.637183 128.613565 
L 362.144963 125.200655 
L 362.652744 123.933766 
L 363.160524 124.582041 
L 363.668305 127.231485 
L 364.176085 132.146732 
L 365.191646 146.674392 
L 365.699427 149.44346 
L 366.207207 144.845289 
L 367.222768 129.329807 
L 367.730549 123.866638 
L 368.238329 119.989419 
L 369.25389 114.909577 
L 371.285012 107.572778 
L 372.300573 104.490995 
L 372.808354 103.601995 
L 373.316134 103.407241 
L 373.823915 103.935367 
L 374.331695 105.061391 
L 375.347256 108.265856 
L 377.378378 115.431853 
L 378.393939 120.138278 
L 379.4095 126.814083 
L 380.425061 133.693755 
L 380.932842 134.819123 
L 381.440622 133.278034 
L 381.948403 129.63094 
L 384.487305 107.432923 
L 385.502867 99.597145 
L 386.010647 97.226821 
L 386.518428 96.904101 
L 387.026208 98.68109 
L 388.041769 105.788386 
L 390.580672 125.279424 
L 391.088452 127.344522 
L 391.596233 127.270281 
L 392.104013 125.01664 
L 393.119574 116.903293 
L 395.150696 98.826941 
L 395.658477 95.184406 
L 396.166257 93.099979 
L 396.674038 93.214436 
L 397.181818 95.381332 
L 398.197379 102.783323 
L 400.228501 118.674628 
L 400.736282 121.774509 
L 401.244062 123.339305 
L 401.751843 122.768473 
L 402.259623 120.247967 
L 403.275184 112.342174 
L 406.321867 87.150521 
L 406.829648 85.973044 
L 407.337428 87.280132 
L 408.352989 94.041005 
L 409.36855 100.58396 
L 410.384111 105.444643 
L 412.415233 113.621065 
L 412.923014 115.418453 
L 413.430794 116.760943 
L 413.938575 117.360215 
L 414.446355 117.060442 
L 414.954136 115.925239 
L 415.969697 112.184287 
L 418.000819 103.410826 
L 418.5086 100.519771 
L 419.01638 96.732266 
L 419.524161 91.565876 
L 421.047502 72.078789 
L 421.555283 73.646124 
L 423.078624 92.045496 
L 423.586405 94.925256 
L 424.094185 95.850587 
L 424.601966 94.923543 
L 425.109746 91.966013 
L 425.617527 86.658658 
L 426.633088 71.473607 
L 427.140868 69.107743 
L 427.648649 74.14382 
L 428.66421 88.163192 
L 429.17199 91.649777 
L 429.679771 92.461393 
L 430.187551 90.645727 
L 430.695332 86.030239 
L 431.710893 70.821346 
L 432.218673 67.902428 
L 432.726454 72.834116 
L 433.742015 87.403562 
L 434.249795 90.954895 
L 434.757576 91.636095 
L 435.265356 89.508525 
L 435.773137 84.44982 
L 436.788698 69.592573 
L 437.296478 68.531766 
L 437.804259 74.802076 
L 438.312039 82.936395 
L 438.81982 89.022254 
L 439.3276 92.310365 
L 439.835381 93.007775 
L 440.343161 91.204031 
L 440.850942 86.765697 
L 441.866503 72.319993 
L 442.374283 69.384154 
L 442.882064 73.949014 
L 443.897625 89.058622 
L 444.405405 93.818898 
L 444.913186 96.496125 
L 445.420966 97.458571 
L 445.928747 96.875576 
L 446.436527 94.696523 
L 446.944308 90.688967 
L 448.467649 73.120542 
L 448.97543 74.560857 
L 451.006552 99.655459 
L 452.022113 107.023267 
L 453.545455 116.744406 
L 454.053235 119.028797 
L 454.561016 119.883153 
L 455.068796 119.023066 
L 455.576577 116.75595 
L 457.099918 107.257725 
L 458.115479 100.298591 
L 460.146601 84.06706 
L 460.654382 84.19594 
L 461.162162 87.52124 
L 464.716626 122.812153 
L 465.224406 124.593824 
L 465.732187 123.45707 
L 466.239967 119.96162 
L 468.271089 100.490963 
L 469.28665 91.788044 
L 469.794431 90.095811 
L 470.302211 91.437395 
L 470.809992 95.314485 
L 472.841114 117.185747 
L 473.348894 122.430337 
L 473.856675 126.508613 
L 474.364455 128.144472 
L 474.872236 126.720861 
L 475.380016 122.929022 
L 478.426699 94.776147 
L 478.93448 94.101553 
L 479.44226 96.401683 
L 480.457821 105.957075 
L 482.488943 127.381962 
L 482.996724 131.498148 
L 483.504505 133.149109 
L 484.012285 131.708994 
L 484.520066 127.997876 
L 487.058968 106.092185 
L 487.566749 102.103095 
L 488.074529 99.011931 
L 488.58231 97.78232 
L 489.09009 98.951353 
L 489.597871 102.034468 
L 491.121212 114.66361 
L 492.136773 124.259756 
L 493.660115 141.215355 
L 494.167895 141.954417 
L 494.675676 138.389218 
L 495.691237 127.81888 
L 496.199017 123.953615 
L 496.706798 121.331532 
L 497.214578 119.764273 
L 497.722359 119.085366 
L 498.230139 119.229477 
L 498.73792 120.236147 
L 499.2457 122.26152 
L 499.753481 125.610344 
L 500.261261 130.65764 
L 501.276822 144.66555 
L 501.784603 148.291288 
L 502.292383 145.489798 
L 503.307944 132.579033 
L 503.815725 128.402319 
L 504.323505 126.52651 
L 504.831286 126.862965 
L 505.339066 129.475256 
L 505.846847 134.585144 
L 506.862408 148.821936 
L 507.370188 150.450624 
L 507.877969 145.303568 
L 508.385749 137.927804 
L 508.89353 132.259545 
L 509.40131 129.373275 
L 509.909091 129.285682 
L 510.416871 132.019903 
L 510.924652 137.633628 
L 511.432432 145.272782 
L 511.940213 151.164978 
L 512.447993 150.37798 
L 513.971335 131.343905 
L 514.479115 129.437434 
L 514.986896 130.443188 
L 515.494676 134.408203 
L 516.510238 148.56796 
L 517.018018 151.643137 
L 517.525799 147.37228 
L 518.54136 132.983446 
L 519.04914 129.13185 
L 519.556921 128.00705 
L 520.064701 129.492568 
L 520.572482 133.65416 
L 521.588043 147.413353 
L 522.095823 150.222612 
L 522.603604 145.949068 
L 523.619165 131.489658 
L 524.126945 126.994439 
L 524.634726 124.664688 
L 525.142506 124.210561 
L 525.650287 125.550685 
L 526.158067 128.792635 
L 526.665848 134.069331 
L 527.681409 146.189029 
L 528.189189 146.348513 
L 528.69697 140.857591 
L 529.712531 127.12961 
L 530.220311 122.268562 
L 531.235872 115.654142 
L 533.266994 105.765203 
L 533.774775 103.666205 
L 534.282555 102.224503 
L 534.790336 101.780272 
L 535.298116 102.450225 
L 535.805897 104.033607 
L 537.329238 110.859767 
L 538.85258 118.458064 
L 539.868141 125.136025 
L 540.883702 132.160818 
L 541.391482 133.758441 
L 541.899263 132.873101 
L 542.407043 129.73389 
L 545.961507 99.320492 
L 546.469287 96.81272 
L 546.977068 96.400579 
L 547.484848 98.176492 
L 548.50041 105.445817 
L 551.039312 125.213601 
L 551.547093 127.051126 
L 552.054873 126.646469 
L 552.562654 124.096207 
L 553.578215 115.661137 
L 555.609337 97.443079 
L 556.117117 94.000692 
L 556.624898 92.328035 
L 557.132678 92.92459 
L 557.640459 95.478358 
L 559.1638 107.209829 
L 560.687142 119.016903 
L 561.194922 121.930331 
L 561.702703 123.157871 
L 562.210483 122.203215 
L 562.718264 119.397288 
L 564.241605 107.093948 
L 566.780508 85.876153 
L 567.288288 84.982494 
L 567.796069 86.688071 
L 569.827191 100.307207 
L 570.842752 104.708714 
L 572.366093 109.709847 
L 573.889435 114.304703 
L 574.397215 115.449769 
L 574.904996 116.107156 
L 575.412776 116.137826 
L 575.920557 115.530338 
L 576.428337 114.397849 
L 577.951679 109.678701 
L 579.47502 104.416817 
L 579.982801 102.116797 
L 580.490581 99.085076 
L 580.998362 94.851076 
L 581.506143 88.826033 
L 582.521704 72.883219 
L 583.029484 69.977629 
L 583.537265 74.646257 
L 584.552826 89.418626 
L 585.060606 93.808046 
L 585.568387 95.975283 
L 586.076167 96.201773 
L 586.583948 94.48687 
L 587.091728 90.543088 
L 587.599509 83.974261 
L 588.61507 68.451103 
L 589.12285 69.288151 
L 590.646192 90.668965 
L 591.153972 93.465458 
L 591.661753 93.722768 
L 592.169533 91.462559 
L 592.677314 86.416272 
L 593.692875 70.126818 
L 594.200655 67.238912 
L 594.708436 72.943109 
L 595.723997 88.806876 
L 596.231777 92.941864 
L 596.739558 94.487986 
L 597.247338 93.656932 
L 597.755119 90.345916 
L 598.262899 84.256817 
L 599.27846 68.919965 
L 599.786241 69.318496 
L 601.309582 91.76128 
L 601.817363 95.716955 
L 602.325143 97.706289 
L 602.832924 98.093455 
L 603.340704 96.945796 
L 603.848485 94.120052 
L 604.356265 89.2404 
L 605.371826 74.594529 
L 605.879607 70.928706 
L 606.387387 74.673884 
L 607.402948 90.512959 
L 607.910729 96.560317 
L 608.92629 104.94369 
L 610.449631 115.091243 
L 610.957412 117.924569 
L 611.465192 119.594812 
L 611.972973 119.560525 
L 612.480753 117.833531 
L 613.496314 111.756687 
L 615.019656 101.461049 
L 616.035217 92.400081 
L 617.050778 82.492168 
L 617.558559 81.058594 
L 618.066339 83.760213 
L 621.620803 122.412439 
L 622.128583 124.640858 
L 622.636364 123.621794 
L 622.636364 123.621794 
" clip-path="url(#p895322a74e)" style="fill: none; stroke: #2ca02c; stroke-width: 1.5; stroke-linecap: square"/>
   </g>
   <g id="patch_3">
    <path d="M 90 384.48 
L 90 51.84 
" style="fill: none; stroke: #000000; stroke-width: 0.8; stroke-linejoin: miter; stroke-linecap: square"/>
   </g>
   <g id="patch_4">
    <path d="M 648 384.48 
L 648 51.84 
" style="fill: none; stroke: #000000; stroke-width: 0.8; stroke-linejoin: miter; stroke-linecap: square"/>
   </g>
   <g id="patch_5">
    <path d="M 90 384.48 
L 648 384.48 
" style="fill: none; stroke: #000000; stroke-width: 0.8; stroke-linejoin: miter; stroke-linecap: square"/>
   </g>
   <g id="patch_6">
    <path d="M 90 51.84 
L 648 51.84 
" style="fill: none; stroke: #000000; stroke-width: 0.8; stroke-linejoin: miter; stroke-linecap: square"/>
   </g>
   <g id="text_19">
    <!-- Simulation: A=10.0, $\omega$=10.0, l=1.0, $\theta_0$=3.116592653589793 -->
    <g transform="translate(185.4 45.84) scale(0.12 -0.12)">
     <defs>
      <path id="DejaVuSans-53" d="M 3425 4513 
L 3425 3897 
Q 3066 4069 2747 4153 
Q 2428 4238 2131 4238 
Q 1616 4238 1336 4038 
Q 1056 3838 1056 3469 
Q 1056 3159 1242 3001 
Q 1428 2844 1947 2747 
L 2328 2669 
Q 3034 2534 3370 2195 
Q 3706 1856 3706 1288 
Q 3706 609 3251 259 
Q 2797 -91 1919 -91 
Q 1588 -91 1214 -16 
Q 841 59 441 206 
L 441 856 
Q 825 641 1194 531 
Q 1563 422 1919 422 
Q 2459 422 2753 634 
Q 3047 847 3047 1241 
Q 3047 1584 2836 1778 
Q 2625 1972 2144 2069 
L 1759 2144 
Q 1053 2284 737 2584 
Q 422 2884 422 3419 
Q 422 4038 858 4394 
Q 1294 4750 2059 4750 
Q 2388 4750 2728 4690 
Q 3069 4631 3425 4513 
z
" transform="scale(0.015625)"/>
      <path id="DejaVuSans-75" d="M 544 1381 
L 544 3500 
L 1119 3500 
L 1119 1403 
Q 1119 906 1312 657 
Q 1506 409 1894 409 
Q 2359 409 2629 706 
Q 2900 1003 2900 1516 
L 2900 3500 
L 3475 3500 
L 3475 0 
L 2900 0 
L 2900 538 
Q 2691 219 2414 64 
Q 2138 -91 1772 -91 
Q 1169 -91 856 284 
Q 544 659 544 1381 
z
M 1991 3584 
L 1991 3584 
z
" transform="scale(0.015625)"/>
      <path id="DejaVuSans-6c" d="M 603 4863 
L 1178 4863 
L 1178 0 
L 603 0 
L 603 4863 
z
" transform="scale(0.015625)"/>
      <path id="DejaVuSans-61" d="M 2194 1759 
Q 1497 1759 1228 1600 
Q 959 1441 959 1056 
Q 959 750 1161 570 
Q 1363 391 1709 391 
Q 2188 391 2477 730 
Q 2766 1069 2766 1631 
L 2766 1759 
L 2194 1759 
z
M 3341 1997 
L 3341 0 
L 2766 0 
L 2766 531 
Q 2569 213 2275 61 
Q 1981 -91 1556 -91 
Q 1019 -91 701 211 
Q 384 513 384 1019 
Q 384 1609 779 1909 
Q 1175 2209 1959 2209 
L 2766 2209 
L 2766 2266 
Q 2766 2663 2505 2880 
Q 2244 3097 1772 3097 
Q 1472 3097 1187 3025 
Q 903 2953 641 2809 
L 641 3341 
Q 956 3463 1253 3523 
Q 1550 3584 1831 3584 
Q 2591 3584 2966 3190 
Q 3341 2797 3341 1997 
z
" transform="scale(0.015625)"/>
      <path id="DejaVuSans-6f" d="M 1959 3097 
Q 1497 3097 1228 2736 
Q 959 2375 959 1747 
Q 959 1119 1226 758 
Q 1494 397 1959 397 
Q 2419 397 2687 759 
Q 2956 1122 2956 1747 
Q 2956 2369 2687 2733 
Q 2419 3097 1959 3097 
z
M 1959 3584 
Q 2709 3584 3137 3096 
Q 3566 2609 3566 1747 
Q 3566 888 3137 398 
Q 2709 -91 1959 -91 
Q 1206 -91 779 398 
Q 353 888 353 1747 
Q 353 2609 779 3096 
Q 1206 3584 1959 3584 
z
" transform="scale(0.015625)"/>
      <path id="DejaVuSans-6e" d="M 3513 2113 
L 3513 0 
L 2938 0 
L 2938 2094 
Q 2938 2591 2744 2837 
Q 2550 3084 2163 3084 
Q 1697 3084 1428 2787 
Q 1159 2491 1159 1978 
L 1159 0 
L 581 0 
L 581 3500 
L 1159 3500 
L 1159 2956 
Q 1366 3272 1645 3428 
Q 1925 3584 2291 3584 
Q 2894 3584 3203 3211 
Q 3513 2838 3513 2113 
z
" transform="scale(0.015625)"/>
      <path id="DejaVuSans-3a" d="M 750 794 
L 1409 794 
L 1409 0 
L 750 0 
L 750 794 
z
M 750 3309 
L 1409 3309 
L 1409 2516 
L 750 2516 
L 750 3309 
z
" transform="scale(0.015625)"/>
      <path id="DejaVuSans-41" d="M 2188 4044 
L 1331 1722 
L 3047 1722 
L 2188 4044 
z
M 1831 4666 
L 2547 4666 
L 4325 0 
L 3669 0 
L 3244 1197 
L 1141 1197 
L 716 0 
L 50 0 
L 1831 4666 
z
" transform="scale(0.015625)"/>
      <path id="DejaVuSans-3d" d="M 678 2906 
L 4684 2906 
L 4684 2381 
L 678 2381 
L 678 2906 
z
M 678 1631 
L 4684 1631 
L 4684 1100 
L 678 1100 
L 678 1631 
z
" transform="scale(0.015625)"/>
      <path id="DejaVuSans-2c" d="M 750 794 
L 1409 794 
L 1409 256 
L 897 -744 
L 494 -744 
L 750 256 
L 750 794 
z
" transform="scale(0.015625)"/>
      <path id="DejaVuSans-Oblique-3c9" d="M 1369 -91 
Q 72 -91 434 1766 
Q 575 2500 1256 3500 
L 1875 3500 
Q 1231 2500 1088 1750 
Q 819 397 1519 397 
Q 2166 397 2478 2078 
L 3009 2078 
Q 2669 388 3316 397 
Q 4013 403 4275 1750 
Q 4419 2500 4169 3500 
L 4788 3500 
Q 5075 2500 4934 1766 
Q 4578 -94 3278 -91 
Q 2428 -88 2503 844 
Q 2194 -91 1369 -91 
z
" transform="scale(0.015625)"/>
      <path id="DejaVuSans-33" d="M 2597 2516 
Q 3050 2419 3304 2112 
Q 3559 1806 3559 1356 
Q 3559 666 3084 287 
Q 2609 -91 1734 -91 
Q 1441 -91 1130 -33 
Q 819 25 488 141 
L 488 750 
Q 750 597 1062 519 
Q 1375 441 1716 441 
Q 2309 441 2620 675 
Q 2931 909 2931 1356 
Q 2931 1769 2642 2001 
Q 2353 2234 1838 2234 
L 1294 2234 
L 1294 2753 
L 1863 2753 
Q 2328 2753 2575 2939 
Q 2822 3125 2822 3475 
Q 2822 3834 2567 4026 
Q 2313 4219 1838 4219 
Q 1578 4219 1281 4162 
Q 984 4106 628 3988 
L 628 4550 
Q 988 4650 1302 4700 
Q 1616 4750 1894 4750 
Q 2613 4750 3031 4423 
Q 3450 4097 3450 3541 
Q 3450 3153 3228 2886 
Q 3006 2619 2597 2516 
z
" transform="scale(0.015625)"/>
      <path id="DejaVuSans-36" d="M 2113 2584 
Q 1688 2584 1439 2293 
Q 1191 2003 1191 1497 
Q 1191 994 1439 701 
Q 1688 409 2113 409 
Q 2538 409 2786 701 
Q 3034 994 3034 1497 
Q 3034 2003 2786 2293 
Q 2538 2584 2113 2584 
z
M 3366 4563 
L 3366 3988 
Q 3128 4100 2886 4159 
Q 2644 4219 2406 4219 
Q 1781 4219 1451 3797 
Q 1122 3375 1075 2522 
Q 1259 2794 1537 2939 
Q 1816 3084 2150 3084 
Q 2853 3084 3261 2657 
Q 3669 2231 3669 1497 
Q 3669 778 3244 343 
Q 2819 -91 2113 -91 
Q 1303 -91 875 529 
Q 447 1150 447 2328 
Q 447 3434 972 4092 
Q 1497 4750 2381 4750 
Q 2619 4750 2861 4703 
Q 3103 4656 3366 4563 
z
" transform="scale(0.015625)"/>
      <path id="DejaVuSans-39" d="M 703 97 
L 703 672 
Q 941 559 1184 500 
Q 1428 441 1663 441 
Q 2288 441 2617 861 
Q 2947 1281 2994 2138 
Q 2813 1869 2534 1725 
Q 2256 1581 1919 1581 
Q 1219 1581 811 2004 
Q 403 2428 403 3163 
Q 403 3881 828 4315 
Q 1253 4750 1959 4750 
Q 2769 4750 3195 4129 
Q 3622 3509 3622 2328 
Q 3622 1225 3098 567 
Q 2575 -91 1691 -91 
Q 1453 -91 1209 -44 
Q 966 3 703 97 
z
M 1959 2075 
Q 2384 2075 2632 2365 
Q 2881 2656 2881 3163 
Q 2881 3666 2632 3958 
Q 2384 4250 1959 4250 
Q 1534 4250 1286 3958 
Q 1038 3666 1038 3163 
Q 1038 2656 1286 2365 
Q 1534 2075 1959 2075 
z
" transform="scale(0.015625)"/>
      <path id="DejaVuSans-38" d="M 2034 2216 
Q 1584 2216 1326 1975 
Q 1069 1734 1069 1313 
Q 1069 891 1326 650 
Q 1584 409 2034 409 
Q 2484 409 2743 651 
Q 3003 894 3003 1313 
Q 3003 1734 2745 1975 
Q 2488 2216 2034 2216 
z
M 1403 2484 
Q 997 2584 770 2862 
Q 544 3141 544 3541 
Q 544 4100 942 4425 
Q 1341 4750 2034 4750 
Q 2731 4750 3128 4425 
Q 3525 4100 3525 3541 
Q 3525 3141 3298 2862 
Q 3072 2584 2669 2484 
Q 3125 2378 3379 2068 
Q 3634 1759 3634 1313 
Q 3634 634 3220 271 
Q 2806 -91 2034 -91 
Q 1263 -91 848 271 
Q 434 634 434 1313 
Q 434 1759 690 2068 
Q 947 2378 1403 2484 
z
M 1172 3481 
Q 1172 3119 1398 2916 
Q 1625 2713 2034 2713 
Q 2441 2713 2670 2916 
Q 2900 3119 2900 3481 
Q 2900 3844 2670 4047 
Q 2441 4250 2034 4250 
Q 1625 4250 1398 4047 
Q 1172 3844 1172 3481 
z
" transform="scale(0.015625)"/>
     </defs>
     <use xlink:href="#DejaVuSans-53" transform="translate(0 0.234375)"/>
     <use xlink:href="#DejaVuSans-69" transform="translate(63.476562 0.234375)"/>
     <use xlink:href="#DejaVuSans-6d" transform="translate(91.259766 0.234375)"/>
     <use xlink:href="#DejaVuSans-75" transform="translate(188.671875 0.234375)"/>
     <use xlink:href="#DejaVuSans-6c" transform="translate(252.050781 0.234375)"/>
     <use xlink:href="#DejaVuSans-61" transform="translate(279.833984 0.234375)"/>
     <use xlink:href="#DejaVuSans-74" transform="translate(341.113281 0.234375)"/>
     <use xlink:href="#DejaVuSans-69" transform="translate(380.322266 0.234375)"/>
     <use xlink:href="#DejaVuSans-6f" transform="translate(408.105469 0.234375)"/>
     <use xlink:href="#DejaVuSans-6e" transform="translate(469.287109 0.234375)"/>
     <use xlink:href="#DejaVuSans-3a" transform="translate(532.666016 0.234375)"/>
     <use xlink:href="#DejaVuSans-20" transform="translate(566.357422 0.234375)"/>
     <use xlink:href="#DejaVuSans-41" transform="translate(598.144531 0.234375)"/>
     <use xlink:href="#DejaVuSans-3d" transform="translate(666.552734 0.234375)"/>
     <use xlink:href="#DejaVuSans-31" transform="translate(750.341797 0.234375)"/>
     <use xlink:href="#DejaVuSans-30" transform="translate(813.964844 0.234375)"/>
     <use xlink:href="#DejaVuSans-2e" transform="translate(877.587891 0.234375)"/>
     <use xlink:href="#DejaVuSans-30" transform="translate(909.375 0.234375)"/>
     <use xlink:href="#DejaVuSans-2c" transform="translate(972.998047 0.234375)"/>
     <use xlink:href="#DejaVuSans-20" transform="translate(1004.785156 0.234375)"/>
     <use xlink:href="#DejaVuSans-Oblique-3c9" transform="translate(1036.572266 0.234375)"/>
     <use xlink:href="#DejaVuSans-3d" transform="translate(1120.3125 0.234375)"/>
     <use xlink:href="#DejaVuSans-31" transform="translate(1204.101562 0.234375)"/>
     <use xlink:href="#DejaVuSans-30" transform="translate(1267.724609 0.234375)"/>
     <use xlink:href="#DejaVuSans-2e" transform="translate(1331.347656 0.234375)"/>
     <use xlink:href="#DejaVuSans-30" transform="translate(1363.134766 0.234375)"/>
     <use xlink:href="#DejaVuSans-2c" transform="translate(1426.757812 0.234375)"/>
     <use xlink:href="#DejaVuSans-20" transform="translate(1458.544922 0.234375)"/>
     <use xlink:href="#DejaVuSans-6c" transform="translate(1490.332031 0.234375)"/>
     <use xlink:href="#DejaVuSans-3d" transform="translate(1518.115234 0.234375)"/>
     <use xlink:href="#DejaVuSans-31" transform="translate(1601.904297 0.234375)"/>
     <use xlink:href="#DejaVuSans-2e" transform="translate(1665.527344 0.234375)"/>
     <use xlink:href="#DejaVuSans-30" transform="translate(1697.314453 0.234375)"/>
     <use xlink:href="#DejaVuSans-2c" transform="translate(1760.9375 0.234375)"/>
     <use xlink:href="#DejaVuSans-20" transform="translate(1792.724609 0.234375)"/>
     <use xlink:href="#DejaVuSans-Oblique-3b8" transform="translate(1824.511719 0.234375)"/>
     <use xlink:href="#DejaVuSans-30" transform="translate(1885.693359 -16.171875) scale(0.7)"/>
     <use xlink:href="#DejaVuSans-3d" transform="translate(1932.963867 0.234375)"/>
     <use xlink:href="#DejaVuSans-33" transform="translate(2016.75293 0.234375)"/>
     <use xlink:href="#DejaVuSans-2e" transform="translate(2080.375977 0.234375)"/>
     <use xlink:href="#DejaVuSans-31" transform="translate(2112.163086 0.234375)"/>
     <use xlink:href="#DejaVuSans-31" transform="translate(2175.786133 0.234375)"/>
     <use xlink:href="#DejaVuSans-36" transform="translate(2239.40918 0.234375)"/>
     <use xlink:href="#DejaVuSans-35" transform="translate(2303.032227 0.234375)"/>
     <use xlink:href="#DejaVuSans-39" transform="translate(2361.155273 0.234375)"/>
     <use xlink:href="#DejaVuSans-32" transform="translate(2423.02832 0.234375)"/>
     <use xlink:href="#DejaVuSans-36" transform="translate(2486.651367 0.234375)"/>
     <use xlink:href="#DejaVuSans-35" transform="translate(2550.274414 0.234375)"/>
     <use xlink:href="#DejaVuSans-33" transform="translate(2613.897461 0.234375)"/>
     <use xlink:href="#DejaVuSans-35" transform="translate(2677.520508 0.234375)"/>
     <use xlink:href="#DejaVuSans-38" transform="translate(2741.143555 0.234375)"/>
     <use xlink:href="#DejaVuSans-39" transform="translate(2804.766602 0.234375)"/>
     <use xlink:href="#DejaVuSans-37" transform="translate(2868.389648 0.234375)"/>
     <use xlink:href="#DejaVuSans-39" transform="translate(2932.012695 0.234375)"/>
     <use xlink:href="#DejaVuSans-33" transform="translate(2995.635742 0.234375)"/>
    </g>
   </g>
   <g id="legend_1">
    <g id="patch_7">
     <path d="M 97 103.874375 
L 197.403125 103.874375 
Q 199.403125 103.874375 199.403125 101.874375 
L 199.403125 58.84 
Q 199.403125 56.84 197.403125 56.84 
L 97 56.84 
Q 95 56.84 95 58.84 
L 95 101.874375 
Q 95 103.874375 97 103.874375 
z
" style="fill: #ffffff; opacity: 0.8; stroke: #cccccc; stroke-linejoin: miter"/>
    </g>
    <g id="line2d_36">
     <path d="M 99 64.938437 
L 109 64.938437 
L 119 64.938437 
" style="fill: none; stroke: #1f77b4; stroke-width: 1.5; stroke-linecap: square"/>
    </g>
    <g id="text_20">
     <!-- Original -->
     <g transform="translate(127 68.438437) scale(0.1 -0.1)">
      <defs>
       <path id="DejaVuSans-4f" d="M 2522 4238 
Q 1834 4238 1429 3725 
Q 1025 3213 1025 2328 
Q 1025 1447 1429 934 
Q 1834 422 2522 422 
Q 3209 422 3611 934 
Q 4013 1447 4013 2328 
Q 4013 3213 3611 3725 
Q 3209 4238 2522 4238 
z
M 2522 4750 
Q 3503 4750 4090 4092 
Q 4678 3434 4678 2328 
Q 4678 1225 4090 567 
Q 3503 -91 2522 -91 
Q 1538 -91 948 565 
Q 359 1222 359 2328 
Q 359 3434 948 4092 
Q 1538 4750 2522 4750 
z
" transform="scale(0.015625)"/>
       <path id="DejaVuSans-72" d="M 2631 2963 
Q 2534 3019 2420 3045 
Q 2306 3072 2169 3072 
Q 1681 3072 1420 2755 
Q 1159 2438 1159 1844 
L 1159 0 
L 581 0 
L 581 3500 
L 1159 3500 
L 1159 2956 
Q 1341 3275 1631 3429 
Q 1922 3584 2338 3584 
Q 2397 3584 2469 3576 
Q 2541 3569 2628 3553 
L 2631 2963 
z
" transform="scale(0.015625)"/>
       <path id="DejaVuSans-67" d="M 2906 1791 
Q 2906 2416 2648 2759 
Q 2391 3103 1925 3103 
Q 1463 3103 1205 2759 
Q 947 2416 947 1791 
Q 947 1169 1205 825 
Q 1463 481 1925 481 
Q 2391 481 2648 825 
Q 2906 1169 2906 1791 
z
M 3481 434 
Q 3481 -459 3084 -895 
Q 2688 -1331 1869 -1331 
Q 1566 -1331 1297 -1286 
Q 1028 -1241 775 -1147 
L 775 -588 
Q 1028 -725 1275 -790 
Q 1522 -856 1778 -856 
Q 2344 -856 2625 -561 
Q 2906 -266 2906 331 
L 2906 616 
Q 2728 306 2450 153 
Q 2172 0 1784 0 
Q 1141 0 747 490 
Q 353 981 353 1791 
Q 353 2603 747 3093 
Q 1141 3584 1784 3584 
Q 2172 3584 2450 3431 
Q 2728 3278 2906 2969 
L 2906 3500 
L 3481 3500 
L 3481 434 
z
" transform="scale(0.015625)"/>
      </defs>
      <use xlink:href="#DejaVuSans-4f"/>
      <use xlink:href="#DejaVuSans-72" x="78.710938"/>
      <use xlink:href="#DejaVuSans-69" x="119.824219"/>
      <use xlink:href="#DejaVuSans-67" x="147.607422"/>
      <use xlink:href="#DejaVuSans-69" x="211.083984"/>
      <use xlink:href="#DejaVuSans-6e" x="238.867188"/>
      <use xlink:href="#DejaVuSans-61" x="302.246094"/>
      <use xlink:href="#DejaVuSans-6c" x="363.525391"/>
     </g>
    </g>
    <g id="line2d_37">
     <path d="M 99 79.616562 
L 109 79.616562 
L 119 79.616562 
" style="fill: none; stroke: #ff7f0e; stroke-width: 1.5; stroke-linecap: square"/>
    </g>
    <g id="text_21">
     <!-- First-Order -->
     <g transform="translate(127 83.116562) scale(0.1 -0.1)">
      <defs>
       <path id="DejaVuSans-46" d="M 628 4666 
L 3309 4666 
L 3309 4134 
L 1259 4134 
L 1259 2759 
L 3109 2759 
L 3109 2228 
L 1259 2228 
L 1259 0 
L 628 0 
L 628 4666 
z
" transform="scale(0.015625)"/>
       <path id="DejaVuSans-73" d="M 2834 3397 
L 2834 2853 
Q 2591 2978 2328 3040 
Q 2066 3103 1784 3103 
Q 1356 3103 1142 2972 
Q 928 2841 928 2578 
Q 928 2378 1081 2264 
Q 1234 2150 1697 2047 
L 1894 2003 
Q 2506 1872 2764 1633 
Q 3022 1394 3022 966 
Q 3022 478 2636 193 
Q 2250 -91 1575 -91 
Q 1294 -91 989 -36 
Q 684 19 347 128 
L 347 722 
Q 666 556 975 473 
Q 1284 391 1588 391 
Q 1994 391 2212 530 
Q 2431 669 2431 922 
Q 2431 1156 2273 1281 
Q 2116 1406 1581 1522 
L 1381 1569 
Q 847 1681 609 1914 
Q 372 2147 372 2553 
Q 372 3047 722 3315 
Q 1072 3584 1716 3584 
Q 2034 3584 2315 3537 
Q 2597 3491 2834 3397 
z
" transform="scale(0.015625)"/>
       <path id="DejaVuSans-2d" d="M 313 2009 
L 1997 2009 
L 1997 1497 
L 313 1497 
L 313 2009 
z
" transform="scale(0.015625)"/>
       <path id="DejaVuSans-64" d="M 2906 2969 
L 2906 4863 
L 3481 4863 
L 3481 0 
L 2906 0 
L 2906 525 
Q 2725 213 2448 61 
Q 2172 -91 1784 -91 
Q 1150 -91 751 415 
Q 353 922 353 1747 
Q 353 2572 751 3078 
Q 1150 3584 1784 3584 
Q 2172 3584 2448 3432 
Q 2725 3281 2906 2969 
z
M 947 1747 
Q 947 1113 1208 752 
Q 1469 391 1925 391 
Q 2381 391 2643 752 
Q 2906 1113 2906 1747 
Q 2906 2381 2643 2742 
Q 2381 3103 1925 3103 
Q 1469 3103 1208 2742 
Q 947 2381 947 1747 
z
" transform="scale(0.015625)"/>
      </defs>
      <use xlink:href="#DejaVuSans-46"/>
      <use xlink:href="#DejaVuSans-69" x="50.269531"/>
      <use xlink:href="#DejaVuSans-72" x="78.052734"/>
      <use xlink:href="#DejaVuSans-73" x="119.166016"/>
      <use xlink:href="#DejaVuSans-74" x="171.265625"/>
      <use xlink:href="#DejaVuSans-2d" x="210.474609"/>
      <use xlink:href="#DejaVuSans-4f" x="249.308594"/>
      <use xlink:href="#DejaVuSans-72" x="328.019531"/>
      <use xlink:href="#DejaVuSans-64" x="367.382812"/>
      <use xlink:href="#DejaVuSans-65" x="430.859375"/>
      <use xlink:href="#DejaVuSans-72" x="492.382812"/>
     </g>
    </g>
    <g id="line2d_38">
     <path d="M 99 94.294687 
L 109 94.294687 
L 119 94.294687 
" style="fill: none; stroke: #2ca02c; stroke-width: 1.5; stroke-linecap: square"/>
    </g>
    <g id="text_22">
     <!-- Second Order -->
     <g transform="translate(127 97.794687) scale(0.1 -0.1)">
      <defs>
       <path id="DejaVuSans-63" d="M 3122 3366 
L 3122 2828 
Q 2878 2963 2633 3030 
Q 2388 3097 2138 3097 
Q 1578 3097 1268 2742 
Q 959 2388 959 1747 
Q 959 1106 1268 751 
Q 1578 397 2138 397 
Q 2388 397 2633 464 
Q 2878 531 3122 666 
L 3122 134 
Q 2881 22 2623 -34 
Q 2366 -91 2075 -91 
Q 1284 -91 818 406 
Q 353 903 353 1747 
Q 353 2603 823 3093 
Q 1294 3584 2113 3584 
Q 2378 3584 2631 3529 
Q 2884 3475 3122 3366 
z
" transform="scale(0.015625)"/>
      </defs>
      <use xlink:href="#DejaVuSans-53"/>
      <use xlink:href="#DejaVuSans-65" x="63.476562"/>
      <use xlink:href="#DejaVuSans-63" x="125"/>
      <use xlink:href="#DejaVuSans-6f" x="179.980469"/>
      <use xlink:href="#DejaVuSans-6e" x="241.162109"/>
      <use xlink:href="#DejaVuSans-64" x="304.541016"/>
      <use xlink:href="#DejaVuSans-20" x="368.017578"/>
      <use xlink:href="#DejaVuSans-4f" x="399.804688"/>
      <use xlink:href="#DejaVuSans-72" x="478.515625"/>
      <use xlink:href="#DejaVuSans-64" x="517.878906"/>
      <use xlink:href="#DejaVuSans-65" x="581.355469"/>
      <use xlink:href="#DejaVuSans-72" x="642.878906"/>
     </g>
    </g>
   </g>
  </g>
 </g>
 <defs>
  <clipPath id="p895322a74e">
   <rect x="90" y="51.84" width="558" height="332.64"/>
  </clipPath>
 </defs>
</svg>
