<?xml version="1.0" encoding="utf-8" standalone="no"?>
<!DOCTYPE svg PUBLIC "-//W3C//DTD SVG 1.1//EN"
  "http://www.w3.org/Graphics/SVG/1.1/DTD/svg11.dtd">
<svg xmlns:xlink="http://www.w3.org/1999/xlink" width="720pt" height="432pt" viewBox="0 0 720 432" xmlns="http://www.w3.org/2000/svg" version="1.1">
 <metadata>
  <rdf:RDF xmlns:dc="http://purl.org/dc/elements/1.1/" xmlns:cc="http://creativecommons.org/ns#" xmlns:rdf="http://www.w3.org/1999/02/22-rdf-syntax-ns#">
   <cc:Work>
    <dc:type rdf:resource="http://purl.org/dc/dcmitype/StillImage"/>
    <dc:date>2024-12-31T23:34:19.061965</dc:date>
    <dc:format>image/svg+xml</dc:format>
    <dc:creator>
     <cc:Agent>
      <dc:title>Matplotlib v3.7.2, https://matplotlib.org/</dc:title>
     </cc:Agent>
    </dc:creator>
   </cc:Work>
  </rdf:RDF>
 </metadata>
 <defs>
  <style type="text/css">*{stroke-linejoin: round; stroke-linecap: butt}</style>
 </defs>
 <g id="figure_1">
  <g id="patch_1">
   <path d="M 0 432 
L 720 432 
L 720 0 
L 0 0 
z
" style="fill: #ffffff"/>
  </g>
  <g id="axes_1">
   <g id="patch_2">
    <path d="M 90 384.48 
L 648 384.48 
L 648 51.84 
L 90 51.84 
z
" style="fill: #ffffff"/>
   </g>
   <g id="matplotlib.axis_1">
    <g id="xtick_1">
     <g id="line2d_1">
      <path d="M 115.363636 384.48 
L 115.363636 51.84 
" clip-path="url(#p4739eed068)" style="fill: none; stroke: #b0b0b0; stroke-width: 0.8; stroke-linecap: square"/>
     </g>
     <g id="line2d_2">
      <defs>
       <path id="m22aeae8e69" d="M 0 0 
L 0 3.5 
" style="stroke: #000000; stroke-width: 0.8"/>
      </defs>
      <g>
       <use xlink:href="#m22aeae8e69" x="115.363636" y="384.48" style="stroke: #000000; stroke-width: 0.8"/>
      </g>
     </g>
     <g id="text_1">
      <!-- 0.00 -->
      <g transform="translate(104.230824 399.078438) scale(0.1 -0.1)">
       <defs>
        <path id="DejaVuSans-30" d="M 2034 4250 
Q 1547 4250 1301 3770 
Q 1056 3291 1056 2328 
Q 1056 1369 1301 889 
Q 1547 409 2034 409 
Q 2525 409 2770 889 
Q 3016 1369 3016 2328 
Q 3016 3291 2770 3770 
Q 2525 4250 2034 4250 
z
M 2034 4750 
Q 2819 4750 3233 4129 
Q 3647 3509 3647 2328 
Q 3647 1150 3233 529 
Q 2819 -91 2034 -91 
Q 1250 -91 836 529 
Q 422 1150 422 2328 
Q 422 3509 836 4129 
Q 1250 4750 2034 4750 
z
" transform="scale(0.015625)"/>
        <path id="DejaVuSans-2e" d="M 684 794 
L 1344 794 
L 1344 0 
L 684 0 
L 684 794 
z
" transform="scale(0.015625)"/>
       </defs>
       <use xlink:href="#DejaVuSans-30"/>
       <use xlink:href="#DejaVuSans-2e" x="63.623047"/>
       <use xlink:href="#DejaVuSans-30" x="95.410156"/>
       <use xlink:href="#DejaVuSans-30" x="159.033203"/>
      </g>
     </g>
    </g>
    <g id="xtick_2">
     <g id="line2d_3">
      <path d="M 178.772727 384.48 
L 178.772727 51.84 
" clip-path="url(#p4739eed068)" style="fill: none; stroke: #b0b0b0; stroke-width: 0.8; stroke-linecap: square"/>
     </g>
     <g id="line2d_4">
      <g>
       <use xlink:href="#m22aeae8e69" x="178.772727" y="384.48" style="stroke: #000000; stroke-width: 0.8"/>
      </g>
     </g>
     <g id="text_2">
      <!-- 0.25 -->
      <g transform="translate(167.639915 399.078438) scale(0.1 -0.1)">
       <defs>
        <path id="DejaVuSans-32" d="M 1228 531 
L 3431 531 
L 3431 0 
L 469 0 
L 469 531 
Q 828 903 1448 1529 
Q 2069 2156 2228 2338 
Q 2531 2678 2651 2914 
Q 2772 3150 2772 3378 
Q 2772 3750 2511 3984 
Q 2250 4219 1831 4219 
Q 1534 4219 1204 4116 
Q 875 4013 500 3803 
L 500 4441 
Q 881 4594 1212 4672 
Q 1544 4750 1819 4750 
Q 2544 4750 2975 4387 
Q 3406 4025 3406 3419 
Q 3406 3131 3298 2873 
Q 3191 2616 2906 2266 
Q 2828 2175 2409 1742 
Q 1991 1309 1228 531 
z
" transform="scale(0.015625)"/>
        <path id="DejaVuSans-35" d="M 691 4666 
L 3169 4666 
L 3169 4134 
L 1269 4134 
L 1269 2991 
Q 1406 3038 1543 3061 
Q 1681 3084 1819 3084 
Q 2600 3084 3056 2656 
Q 3513 2228 3513 1497 
Q 3513 744 3044 326 
Q 2575 -91 1722 -91 
Q 1428 -91 1123 -41 
Q 819 9 494 109 
L 494 744 
Q 775 591 1075 516 
Q 1375 441 1709 441 
Q 2250 441 2565 725 
Q 2881 1009 2881 1497 
Q 2881 1984 2565 2268 
Q 2250 2553 1709 2553 
Q 1456 2553 1204 2497 
Q 953 2441 691 2322 
L 691 4666 
z
" transform="scale(0.015625)"/>
       </defs>
       <use xlink:href="#DejaVuSans-30"/>
       <use xlink:href="#DejaVuSans-2e" x="63.623047"/>
       <use xlink:href="#DejaVuSans-32" x="95.410156"/>
       <use xlink:href="#DejaVuSans-35" x="159.033203"/>
      </g>
     </g>
    </g>
    <g id="xtick_3">
     <g id="line2d_5">
      <path d="M 242.181818 384.48 
L 242.181818 51.84 
" clip-path="url(#p4739eed068)" style="fill: none; stroke: #b0b0b0; stroke-width: 0.8; stroke-linecap: square"/>
     </g>
     <g id="line2d_6">
      <g>
       <use xlink:href="#m22aeae8e69" x="242.181818" y="384.48" style="stroke: #000000; stroke-width: 0.8"/>
      </g>
     </g>
     <g id="text_3">
      <!-- 0.50 -->
      <g transform="translate(231.049006 399.078438) scale(0.1 -0.1)">
       <use xlink:href="#DejaVuSans-30"/>
       <use xlink:href="#DejaVuSans-2e" x="63.623047"/>
       <use xlink:href="#DejaVuSans-35" x="95.410156"/>
       <use xlink:href="#DejaVuSans-30" x="159.033203"/>
      </g>
     </g>
    </g>
    <g id="xtick_4">
     <g id="line2d_7">
      <path d="M 305.590909 384.48 
L 305.590909 51.84 
" clip-path="url(#p4739eed068)" style="fill: none; stroke: #b0b0b0; stroke-width: 0.8; stroke-linecap: square"/>
     </g>
     <g id="line2d_8">
      <g>
       <use xlink:href="#m22aeae8e69" x="305.590909" y="384.48" style="stroke: #000000; stroke-width: 0.8"/>
      </g>
     </g>
     <g id="text_4">
      <!-- 0.75 -->
      <g transform="translate(294.458097 399.078438) scale(0.1 -0.1)">
       <defs>
        <path id="DejaVuSans-37" d="M 525 4666 
L 3525 4666 
L 3525 4397 
L 1831 0 
L 1172 0 
L 2766 4134 
L 525 4134 
L 525 4666 
z
" transform="scale(0.015625)"/>
       </defs>
       <use xlink:href="#DejaVuSans-30"/>
       <use xlink:href="#DejaVuSans-2e" x="63.623047"/>
       <use xlink:href="#DejaVuSans-37" x="95.410156"/>
       <use xlink:href="#DejaVuSans-35" x="159.033203"/>
      </g>
     </g>
    </g>
    <g id="xtick_5">
     <g id="line2d_9">
      <path d="M 369 384.48 
L 369 51.84 
" clip-path="url(#p4739eed068)" style="fill: none; stroke: #b0b0b0; stroke-width: 0.8; stroke-linecap: square"/>
     </g>
     <g id="line2d_10">
      <g>
       <use xlink:href="#m22aeae8e69" x="369" y="384.48" style="stroke: #000000; stroke-width: 0.8"/>
      </g>
     </g>
     <g id="text_5">
      <!-- 1.00 -->
      <g transform="translate(357.867188 399.078438) scale(0.1 -0.1)">
       <defs>
        <path id="DejaVuSans-31" d="M 794 531 
L 1825 531 
L 1825 4091 
L 703 3866 
L 703 4441 
L 1819 4666 
L 2450 4666 
L 2450 531 
L 3481 531 
L 3481 0 
L 794 0 
L 794 531 
z
" transform="scale(0.015625)"/>
       </defs>
       <use xlink:href="#DejaVuSans-31"/>
       <use xlink:href="#DejaVuSans-2e" x="63.623047"/>
       <use xlink:href="#DejaVuSans-30" x="95.410156"/>
       <use xlink:href="#DejaVuSans-30" x="159.033203"/>
      </g>
     </g>
    </g>
    <g id="xtick_6">
     <g id="line2d_11">
      <path d="M 432.409091 384.48 
L 432.409091 51.84 
" clip-path="url(#p4739eed068)" style="fill: none; stroke: #b0b0b0; stroke-width: 0.8; stroke-linecap: square"/>
     </g>
     <g id="line2d_12">
      <g>
       <use xlink:href="#m22aeae8e69" x="432.409091" y="384.48" style="stroke: #000000; stroke-width: 0.8"/>
      </g>
     </g>
     <g id="text_6">
      <!-- 1.25 -->
      <g transform="translate(421.276278 399.078438) scale(0.1 -0.1)">
       <use xlink:href="#DejaVuSans-31"/>
       <use xlink:href="#DejaVuSans-2e" x="63.623047"/>
       <use xlink:href="#DejaVuSans-32" x="95.410156"/>
       <use xlink:href="#DejaVuSans-35" x="159.033203"/>
      </g>
     </g>
    </g>
    <g id="xtick_7">
     <g id="line2d_13">
      <path d="M 495.818182 384.48 
L 495.818182 51.84 
" clip-path="url(#p4739eed068)" style="fill: none; stroke: #b0b0b0; stroke-width: 0.8; stroke-linecap: square"/>
     </g>
     <g id="line2d_14">
      <g>
       <use xlink:href="#m22aeae8e69" x="495.818182" y="384.48" style="stroke: #000000; stroke-width: 0.8"/>
      </g>
     </g>
     <g id="text_7">
      <!-- 1.50 -->
      <g transform="translate(484.685369 399.078438) scale(0.1 -0.1)">
       <use xlink:href="#DejaVuSans-31"/>
       <use xlink:href="#DejaVuSans-2e" x="63.623047"/>
       <use xlink:href="#DejaVuSans-35" x="95.410156"/>
       <use xlink:href="#DejaVuSans-30" x="159.033203"/>
      </g>
     </g>
    </g>
    <g id="xtick_8">
     <g id="line2d_15">
      <path d="M 559.227273 384.48 
L 559.227273 51.84 
" clip-path="url(#p4739eed068)" style="fill: none; stroke: #b0b0b0; stroke-width: 0.8; stroke-linecap: square"/>
     </g>
     <g id="line2d_16">
      <g>
       <use xlink:href="#m22aeae8e69" x="559.227273" y="384.48" style="stroke: #000000; stroke-width: 0.8"/>
      </g>
     </g>
     <g id="text_8">
      <!-- 1.75 -->
      <g transform="translate(548.09446 399.078438) scale(0.1 -0.1)">
       <use xlink:href="#DejaVuSans-31"/>
       <use xlink:href="#DejaVuSans-2e" x="63.623047"/>
       <use xlink:href="#DejaVuSans-37" x="95.410156"/>
       <use xlink:href="#DejaVuSans-35" x="159.033203"/>
      </g>
     </g>
    </g>
    <g id="xtick_9">
     <g id="line2d_17">
      <path d="M 622.636364 384.48 
L 622.636364 51.84 
" clip-path="url(#p4739eed068)" style="fill: none; stroke: #b0b0b0; stroke-width: 0.8; stroke-linecap: square"/>
     </g>
     <g id="line2d_18">
      <g>
       <use xlink:href="#m22aeae8e69" x="622.636364" y="384.48" style="stroke: #000000; stroke-width: 0.8"/>
      </g>
     </g>
     <g id="text_9">
      <!-- 2.00 -->
      <g transform="translate(611.503551 399.078438) scale(0.1 -0.1)">
       <use xlink:href="#DejaVuSans-32"/>
       <use xlink:href="#DejaVuSans-2e" x="63.623047"/>
       <use xlink:href="#DejaVuSans-30" x="95.410156"/>
       <use xlink:href="#DejaVuSans-30" x="159.033203"/>
      </g>
     </g>
    </g>
    <g id="text_10">
     <!-- Time (t) -->
     <g transform="translate(349.315625 412.756563) scale(0.1 -0.1)">
      <defs>
       <path id="DejaVuSans-54" d="M -19 4666 
L 3928 4666 
L 3928 4134 
L 2272 4134 
L 2272 0 
L 1638 0 
L 1638 4134 
L -19 4134 
L -19 4666 
z
" transform="scale(0.015625)"/>
       <path id="DejaVuSans-69" d="M 603 3500 
L 1178 3500 
L 1178 0 
L 603 0 
L 603 3500 
z
M 603 4863 
L 1178 4863 
L 1178 4134 
L 603 4134 
L 603 4863 
z
" transform="scale(0.015625)"/>
       <path id="DejaVuSans-6d" d="M 3328 2828 
Q 3544 3216 3844 3400 
Q 4144 3584 4550 3584 
Q 5097 3584 5394 3201 
Q 5691 2819 5691 2113 
L 5691 0 
L 5113 0 
L 5113 2094 
Q 5113 2597 4934 2840 
Q 4756 3084 4391 3084 
Q 3944 3084 3684 2787 
Q 3425 2491 3425 1978 
L 3425 0 
L 2847 0 
L 2847 2094 
Q 2847 2600 2669 2842 
Q 2491 3084 2119 3084 
Q 1678 3084 1418 2786 
Q 1159 2488 1159 1978 
L 1159 0 
L 581 0 
L 581 3500 
L 1159 3500 
L 1159 2956 
Q 1356 3278 1631 3431 
Q 1906 3584 2284 3584 
Q 2666 3584 2933 3390 
Q 3200 3197 3328 2828 
z
" transform="scale(0.015625)"/>
       <path id="DejaVuSans-65" d="M 3597 1894 
L 3597 1613 
L 953 1613 
Q 991 1019 1311 708 
Q 1631 397 2203 397 
Q 2534 397 2845 478 
Q 3156 559 3463 722 
L 3463 178 
Q 3153 47 2828 -22 
Q 2503 -91 2169 -91 
Q 1331 -91 842 396 
Q 353 884 353 1716 
Q 353 2575 817 3079 
Q 1281 3584 2069 3584 
Q 2775 3584 3186 3129 
Q 3597 2675 3597 1894 
z
M 3022 2063 
Q 3016 2534 2758 2815 
Q 2500 3097 2075 3097 
Q 1594 3097 1305 2825 
Q 1016 2553 972 2059 
L 3022 2063 
z
" transform="scale(0.015625)"/>
       <path id="DejaVuSans-20" transform="scale(0.015625)"/>
       <path id="DejaVuSans-28" d="M 1984 4856 
Q 1566 4138 1362 3434 
Q 1159 2731 1159 2009 
Q 1159 1288 1364 580 
Q 1569 -128 1984 -844 
L 1484 -844 
Q 1016 -109 783 600 
Q 550 1309 550 2009 
Q 550 2706 781 3412 
Q 1013 4119 1484 4856 
L 1984 4856 
z
" transform="scale(0.015625)"/>
       <path id="DejaVuSans-74" d="M 1172 4494 
L 1172 3500 
L 2356 3500 
L 2356 3053 
L 1172 3053 
L 1172 1153 
Q 1172 725 1289 603 
Q 1406 481 1766 481 
L 2356 481 
L 2356 0 
L 1766 0 
Q 1100 0 847 248 
Q 594 497 594 1153 
L 594 3053 
L 172 3053 
L 172 3500 
L 594 3500 
L 594 4494 
L 1172 4494 
z
" transform="scale(0.015625)"/>
       <path id="DejaVuSans-29" d="M 513 4856 
L 1013 4856 
Q 1481 4119 1714 3412 
Q 1947 2706 1947 2009 
Q 1947 1309 1714 600 
Q 1481 -109 1013 -844 
L 513 -844 
Q 928 -128 1133 580 
Q 1338 1288 1338 2009 
Q 1338 2731 1133 3434 
Q 928 4138 513 4856 
z
" transform="scale(0.015625)"/>
      </defs>
      <use xlink:href="#DejaVuSans-54"/>
      <use xlink:href="#DejaVuSans-69" x="57.958984"/>
      <use xlink:href="#DejaVuSans-6d" x="85.742188"/>
      <use xlink:href="#DejaVuSans-65" x="183.154297"/>
      <use xlink:href="#DejaVuSans-20" x="244.677734"/>
      <use xlink:href="#DejaVuSans-28" x="276.464844"/>
      <use xlink:href="#DejaVuSans-74" x="315.478516"/>
      <use xlink:href="#DejaVuSans-29" x="354.6875"/>
     </g>
    </g>
   </g>
   <g id="matplotlib.axis_2">
    <g id="ytick_1">
     <g id="line2d_19">
      <path d="M 90 356.734339 
L 648 356.734339 
" clip-path="url(#p4739eed068)" style="fill: none; stroke: #b0b0b0; stroke-width: 0.8; stroke-linecap: square"/>
     </g>
     <g id="line2d_20">
      <defs>
       <path id="m5e81d78d93" d="M 0 0 
L -3.5 0 
" style="stroke: #000000; stroke-width: 0.8"/>
      </defs>
      <g>
       <use xlink:href="#m5e81d78d93" x="90" y="356.734339" style="stroke: #000000; stroke-width: 0.8"/>
      </g>
     </g>
     <g id="text_11">
      <!-- −150 -->
      <g transform="translate(55.532812 360.533558) scale(0.1 -0.1)">
       <defs>
        <path id="DejaVuSans-2212" d="M 678 2272 
L 4684 2272 
L 4684 1741 
L 678 1741 
L 678 2272 
z
" transform="scale(0.015625)"/>
       </defs>
       <use xlink:href="#DejaVuSans-2212"/>
       <use xlink:href="#DejaVuSans-31" x="83.789062"/>
       <use xlink:href="#DejaVuSans-35" x="147.412109"/>
       <use xlink:href="#DejaVuSans-30" x="211.035156"/>
      </g>
     </g>
    </g>
    <g id="ytick_2">
     <g id="line2d_21">
      <path d="M 90 309.695461 
L 648 309.695461 
" clip-path="url(#p4739eed068)" style="fill: none; stroke: #b0b0b0; stroke-width: 0.8; stroke-linecap: square"/>
     </g>
     <g id="line2d_22">
      <g>
       <use xlink:href="#m5e81d78d93" x="90" y="309.695461" style="stroke: #000000; stroke-width: 0.8"/>
      </g>
     </g>
     <g id="text_12">
      <!-- −100 -->
      <g transform="translate(55.532812 313.494679) scale(0.1 -0.1)">
       <use xlink:href="#DejaVuSans-2212"/>
       <use xlink:href="#DejaVuSans-31" x="83.789062"/>
       <use xlink:href="#DejaVuSans-30" x="147.412109"/>
       <use xlink:href="#DejaVuSans-30" x="211.035156"/>
      </g>
     </g>
    </g>
    <g id="ytick_3">
     <g id="line2d_23">
      <path d="M 90 262.656582 
L 648 262.656582 
" clip-path="url(#p4739eed068)" style="fill: none; stroke: #b0b0b0; stroke-width: 0.8; stroke-linecap: square"/>
     </g>
     <g id="line2d_24">
      <g>
       <use xlink:href="#m5e81d78d93" x="90" y="262.656582" style="stroke: #000000; stroke-width: 0.8"/>
      </g>
     </g>
     <g id="text_13">
      <!-- −50 -->
      <g transform="translate(61.895313 266.455801) scale(0.1 -0.1)">
       <use xlink:href="#DejaVuSans-2212"/>
       <use xlink:href="#DejaVuSans-35" x="83.789062"/>
       <use xlink:href="#DejaVuSans-30" x="147.412109"/>
      </g>
     </g>
    </g>
    <g id="ytick_4">
     <g id="line2d_25">
      <path d="M 90 215.617704 
L 648 215.617704 
" clip-path="url(#p4739eed068)" style="fill: none; stroke: #b0b0b0; stroke-width: 0.8; stroke-linecap: square"/>
     </g>
     <g id="line2d_26">
      <g>
       <use xlink:href="#m5e81d78d93" x="90" y="215.617704" style="stroke: #000000; stroke-width: 0.8"/>
      </g>
     </g>
     <g id="text_14">
      <!-- 0 -->
      <g transform="translate(76.6375 219.416922) scale(0.1 -0.1)">
       <use xlink:href="#DejaVuSans-30"/>
      </g>
     </g>
    </g>
    <g id="ytick_5">
     <g id="line2d_27">
      <path d="M 90 168.578825 
L 648 168.578825 
" clip-path="url(#p4739eed068)" style="fill: none; stroke: #b0b0b0; stroke-width: 0.8; stroke-linecap: square"/>
     </g>
     <g id="line2d_28">
      <g>
       <use xlink:href="#m5e81d78d93" x="90" y="168.578825" style="stroke: #000000; stroke-width: 0.8"/>
      </g>
     </g>
     <g id="text_15">
      <!-- 50 -->
      <g transform="translate(70.275 172.378044) scale(0.1 -0.1)">
       <use xlink:href="#DejaVuSans-35"/>
       <use xlink:href="#DejaVuSans-30" x="63.623047"/>
      </g>
     </g>
    </g>
    <g id="ytick_6">
     <g id="line2d_29">
      <path d="M 90 121.539946 
L 648 121.539946 
" clip-path="url(#p4739eed068)" style="fill: none; stroke: #b0b0b0; stroke-width: 0.8; stroke-linecap: square"/>
     </g>
     <g id="line2d_30">
      <g>
       <use xlink:href="#m5e81d78d93" x="90" y="121.539946" style="stroke: #000000; stroke-width: 0.8"/>
      </g>
     </g>
     <g id="text_16">
      <!-- 100 -->
      <g transform="translate(63.9125 125.339165) scale(0.1 -0.1)">
       <use xlink:href="#DejaVuSans-31"/>
       <use xlink:href="#DejaVuSans-30" x="63.623047"/>
       <use xlink:href="#DejaVuSans-30" x="127.246094"/>
      </g>
     </g>
    </g>
    <g id="ytick_7">
     <g id="line2d_31">
      <path d="M 90 74.501068 
L 648 74.501068 
" clip-path="url(#p4739eed068)" style="fill: none; stroke: #b0b0b0; stroke-width: 0.8; stroke-linecap: square"/>
     </g>
     <g id="line2d_32">
      <g>
       <use xlink:href="#m5e81d78d93" x="90" y="74.501068" style="stroke: #000000; stroke-width: 0.8"/>
      </g>
     </g>
     <g id="text_17">
      <!-- 150 -->
      <g transform="translate(63.9125 78.300287) scale(0.1 -0.1)">
       <use xlink:href="#DejaVuSans-31"/>
       <use xlink:href="#DejaVuSans-35" x="63.623047"/>
       <use xlink:href="#DejaVuSans-30" x="127.246094"/>
      </g>
     </g>
    </g>
    <g id="text_18">
     <!-- $\theta(t)$ -->
     <g transform="translate(49.453125 227.11) rotate(-90) scale(0.1 -0.1)">
      <defs>
       <path id="DejaVuSans-Oblique-3b8" d="M 2913 2219 
L 925 2219 
Q 791 1284 928 888 
Q 1100 400 1566 400 
Q 2034 400 2391 891 
Q 2703 1322 2913 2219 
z
M 3009 2750 
Q 3094 3638 2984 3950 
Q 2813 4444 2353 4444 
Q 1875 4444 1525 3956 
Q 1250 3563 1034 2750 
L 3009 2750 
z
M 2444 4913 
Q 3194 4913 3494 4250 
Q 3794 3591 3566 2422 
Q 3341 1256 2781 594 
Q 2225 -72 1475 -72 
Q 722 -72 425 594 
Q 128 1256 353 2422 
Q 581 3591 1134 4250 
Q 1691 4913 2444 4913 
z
" transform="scale(0.015625)"/>
       <path id="DejaVuSans-Oblique-74" d="M 2706 3500 
L 2619 3053 
L 1472 3053 
L 1100 1153 
Q 1081 1047 1072 975 
Q 1063 903 1063 863 
Q 1063 663 1183 572 
Q 1303 481 1569 481 
L 2150 481 
L 2053 0 
L 1503 0 
Q 991 0 739 200 
Q 488 400 488 806 
Q 488 878 497 964 
Q 506 1050 525 1153 
L 897 3053 
L 409 3053 
L 500 3500 
L 978 3500 
L 1172 4494 
L 1747 4494 
L 1556 3500 
L 2706 3500 
z
" transform="scale(0.015625)"/>
      </defs>
      <use xlink:href="#DejaVuSans-Oblique-3b8" transform="translate(0 0.234375)"/>
      <use xlink:href="#DejaVuSans-28" transform="translate(61.181641 0.234375)"/>
      <use xlink:href="#DejaVuSans-Oblique-74" transform="translate(100.195312 0.234375)"/>
      <use xlink:href="#DejaVuSans-29" transform="translate(139.404297 0.234375)"/>
     </g>
    </g>
   </g>
   <g id="line2d_33">
    <path d="M 115.363636 212.544566 
L 125.519247 212.653359 
L 136.182637 212.994706 
L 148.369369 213.618019 
L 197.624079 216.599735 
L 224.536446 218.275862 
L 235.199836 218.660559 
L 245.355446 218.801046 
L 256.018837 218.720155 
L 267.190008 218.401917 
L 279.884521 217.80249 
L 306.289107 216.257817 
L 326.092547 214.968535 
L 359.09828 212.638244 
L 369.25389 212.256376 
L 380.425061 212.065519 
L 392.611794 212.079654 
L 406.321867 212.323193 
L 424.094185 212.885502 
L 454.561016 213.862921 
L 491.628993 214.93146 
L 502.800164 215.541421 
L 513.971335 216.388762 
L 553.070434 219.588123 
L 581.506143 221.620216 
L 593.692875 222.226289 
L 606.895168 222.654764 
L 622.636364 222.985654 
L 622.636364 222.985654 
" clip-path="url(#p4739eed068)" style="fill: none; stroke: #1f77b4; stroke-width: 1.5; stroke-linecap: square"/>
   </g>
   <g id="line2d_34">
    <path d="M 115.363636 212.544566 
L 125.519247 212.654004 
L 136.182637 212.997187 
L 147.353808 213.584426 
L 160.048321 214.47657 
L 177.312858 215.930081 
L 206.256347 218.382474 
L 219.45864 219.254934 
L 231.137592 219.811928 
L 242.308763 220.131229 
L 253.987715 220.237664 
L 266.174447 220.118434 
L 280.392301 219.743423 
L 329.647011 218.219825 
L 340.818182 218.233942 
L 350.973792 218.470444 
L 360.621622 218.916569 
L 370.269451 219.590603 
L 379.917281 220.49474 
L 389.565111 221.621557 
L 399.720721 223.029418 
L 410.891892 224.806467 
L 424.601966 227.22982 
L 443.897625 230.892395 
L 475.887797 236.968267 
L 492.136773 239.806446 
L 514.986896 243.539619 
L 537.837019 247.332876 
L 550.531532 249.664334 
L 560.687142 251.743175 
L 569.827191 253.836841 
L 577.951679 255.920084 
L 585.568387 258.099385 
L 593.185094 260.518454 
L 600.294021 263.009728 
L 607.402948 265.741414 
L 614.511876 268.725558 
L 621.113022 271.730943 
L 622.636364 272.457207 
L 622.636364 272.457207 
" clip-path="url(#p4739eed068)" style="fill: none; stroke: #ff7f0e; stroke-width: 1.5; stroke-linecap: square"/>
   </g>
   <g id="line2d_35">
    <path d="M 115.363636 212.544566 
L 125.519247 212.653357 
L 136.182637 212.994685 
L 148.369369 213.617582 
L 184.421785 215.604325 
L 194.069615 216.224989 
L 199.655201 216.779616 
L 204.225225 217.441559 
L 207.779689 218.169701 
L 210.826372 219.021525 
L 213.365274 219.95563 
L 215.396396 220.90688 
L 217.427518 222.11021 
L 218.95086 223.230087 
L 220.474201 224.598445 
L 221.997543 226.272207 
L 223.520885 228.341656 
L 225.044226 230.953149 
L 226.059787 233.092936 
L 227.075348 235.636268 
L 228.090909 238.671355 
L 229.10647 242.323317 
L 230.122031 246.762881 
L 231.137592 252.206007 
L 232.153153 258.913926 
L 233.168714 267.193144 
L 234.184275 277.397566 
L 235.199836 289.904472 
L 236.215397 304.885637 
L 238.246519 340.165259 
L 239.26208 356.512767 
L 239.769861 362.819095 
L 240.277641 367.227133 
L 240.785422 369.36 
L 241.293202 369.010702 
L 241.800983 366.190594 
L 242.308763 361.148104 
L 243.324324 346.274244 
L 246.371007 294.356376 
L 247.386568 280.712787 
L 248.402129 269.38599 
L 249.41769 260.053302 
L 250.433251 252.311312 
L 251.448812 245.807019 
L 252.972154 237.709737 
L 254.495495 230.881131 
L 256.526618 222.84324 
L 262.619984 200.210137 
L 264.143325 195.081427 
L 265.666667 190.784736 
L 266.682228 188.620736 
L 267.697789 187.157523 
L 268.205569 186.713589 
L 268.71335 186.46959 
L 269.22113 186.428446 
L 269.728911 186.590731 
L 270.236691 186.951951 
L 270.744472 187.503868 
L 271.760033 189.137898 
L 272.775594 191.391128 
L 274.298935 195.63943 
L 276.330057 202.228958 
L 282.423423 223.367103 
L 285.470106 234.475393 
L 288.009009 244.576585 
L 292.071253 261.221643 
L 293.086814 264.698765 
L 294.102375 267.441599 
L 294.610156 268.460496 
L 295.117936 269.20796 
L 295.625717 269.659635 
L 296.133497 269.793532 
L 296.641278 269.59052 
L 297.149058 269.041301 
L 297.656839 268.146299 
L 298.164619 266.911477 
L 299.18018 263.473525 
L 300.195741 258.884338 
L 301.719083 250.382366 
L 303.750205 237.25056 
L 309.843571 195.126812 
L 314.921376 160.306047 
L 316.444717 151.178355 
L 317.460278 146.006794 
L 318.475839 141.871851 
L 319.4914 138.979731 
L 319.999181 138.033324 
L 320.506962 137.426996 
L 321.014742 137.155328 
L 321.522523 137.204374 
L 322.030303 137.551666 
L 322.538084 138.166212 
L 323.553645 140.055601 
L 324.569206 142.598822 
L 328.123669 152.495787 
L 329.13923 154.660718 
L 330.154791 156.243606 
L 330.662572 156.785243 
L 331.170352 157.14606 
L 331.678133 157.315962 
L 332.185913 157.285266 
L 332.693694 157.044712 
L 333.201474 156.585452 
L 333.709255 155.899059 
L 334.217035 154.977647 
L 335.232596 152.396092 
L 336.248157 148.764183 
L 337.263718 144.027312 
L 338.279279 138.162367 
L 339.29484 131.205859 
L 340.818182 119.072388 
L 343.357084 98.384847 
L 344.372645 92.290389 
L 344.880426 90.104006 
L 345.388206 88.574231 
L 345.895987 87.740748 
L 346.403767 87.625363 
L 346.911548 88.244422 
L 347.419328 89.580152 
L 347.927109 91.545458 
L 348.94267 96.879025 
L 351.481572 112.139134 
L 352.497133 116.784763 
L 353.004914 118.517341 
L 353.512695 119.803261 
L 354.020475 120.618617 
L 354.528256 120.947646 
L 355.036036 120.772582 
L 355.543817 120.084022 
L 356.051597 118.881946 
L 356.559378 117.175717 
L 357.574939 112.33519 
L 358.5905 105.825087 
L 362.144963 80.03717 
L 362.652744 77.832006 
L 363.160524 76.415112 
L 363.668305 75.87334 
L 364.176085 76.250174 
L 364.683866 77.527433 
L 365.191646 79.635154 
L 366.207207 85.807956 
L 369.761671 111.642808 
L 370.777232 116.430181 
L 371.285012 118.09944 
L 371.792793 119.257797 
L 372.300573 119.894507 
L 372.808354 120.007777 
L 373.316134 119.604771 
L 373.823915 118.701607 
L 374.331695 117.321886 
L 374.839476 115.488158 
L 375.855037 110.610437 
L 377.378378 101.268415 
L 378.90172 91.937577 
L 379.917281 87.49819 
L 380.425061 86.200209 
L 380.932842 85.656495 
L 381.440622 85.921361 
L 381.948403 87.013392 
L 382.456183 88.903954 
L 382.963964 91.516964 
L 383.979525 98.434862 
L 385.502867 111.181479 
L 387.533989 127.91528 
L 388.54955 134.937823 
L 389.565111 140.757445 
L 390.580672 145.326134 
L 391.596233 148.656491 
L 392.611794 150.809358 
L 393.119574 151.466155 
L 393.627355 151.853967 
L 394.135135 151.982035 
L 394.642916 151.860514 
L 395.150696 151.500482 
L 395.658477 150.913931 
L 396.674038 149.113847 
L 397.689599 146.574589 
L 399.21294 141.730586 
L 401.751843 133.122569 
L 402.767404 130.519874 
L 403.275184 129.603725 
L 403.782965 129.006775 
L 404.290745 128.764365 
L 404.798526 128.902664 
L 405.306306 129.438667 
L 405.814087 130.380198 
L 406.321867 131.72782 
L 407.337428 135.582243 
L 408.352989 140.799026 
L 409.876331 150.540789 
L 412.415233 169.175931 
L 419.01638 218.279655 
L 422.570844 243.906171 
L 424.094185 253.612062 
L 425.109746 259.080436 
L 426.125307 263.392829 
L 426.633088 265.034056 
L 427.140868 266.296776 
L 427.648649 267.165421 
L 428.156429 267.633649 
L 428.66421 267.704348 
L 429.17199 267.389634 
L 429.679771 266.710854 
L 430.187551 265.694727 
L 431.203112 262.76276 
L 432.218673 258.867263 
L 433.742015 251.829414 
L 437.296478 233.64074 
L 443.897625 200.416496 
L 446.436527 188.467875 
L 447.452088 184.405045 
L 448.467649 181.07052 
L 449.48321 178.709438 
L 449.990991 177.963378 
L 450.498771 177.534588 
L 451.006552 177.436494 
L 451.514333 177.674869 
L 452.022113 178.247833 
L 452.529894 179.145853 
L 453.545455 181.840666 
L 454.561016 185.554898 
L 456.084357 192.53856 
L 458.115479 203.269759 
L 463.701065 234.39359 
L 465.224406 243.99891 
L 466.747748 255.169553 
L 467.763309 263.927585 
L 468.77887 274.085044 
L 469.794431 285.898928 
L 471.317772 306.825582 
L 473.856675 344.211527 
L 474.364455 349.97324 
L 474.872236 354.387501 
L 475.380016 357.181158 
L 475.887797 358.161661 
L 476.395577 357.272138 
L 476.903358 354.592781 
L 477.411138 350.348623 
L 478.426699 338.581897 
L 480.965602 304.984697 
L 481.981163 294.19399 
L 482.996724 285.815674 
L 484.012285 279.888041 
L 484.520066 277.826793 
L 485.027846 276.349028 
L 485.535627 275.442376 
L 486.043407 275.105444 
L 486.551188 275.340116 
L 487.058968 276.150635 
L 487.566749 277.543607 
L 488.074529 279.527996 
L 488.58231 282.115126 
L 489.597871 289.154711 
L 490.613432 298.755205 
L 491.628993 310.832405 
L 495.183456 357.267955 
L 495.691237 360.69 
L 496.199017 362.380327 
L 496.706798 362.137312 
L 497.214578 359.927723 
L 497.722359 355.899022 
L 498.73792 343.605785 
L 502.292383 291.726665 
L 503.307944 280.366826 
L 504.323505 271.050037 
L 505.339066 263.559916 
L 506.354627 257.641741 
L 507.370188 253.034838 
L 508.385749 249.553041 
L 509.40131 247.050041 
L 510.416871 245.405454 
L 510.924652 244.874533 
L 511.432432 244.525852 
L 511.940213 244.356987 
L 512.447993 244.365644 
L 512.955774 244.550326 
L 513.463554 244.910542 
L 513.971335 245.446807 
L 514.986896 247.054555 
L 516.002457 249.397377 
L 517.018018 252.510477 
L 518.033579 256.465488 
L 519.04914 261.314923 
L 520.064701 267.074482 
L 521.588043 277.356173 
L 525.650287 307.176112 
L 526.158067 309.60659 
L 526.665848 311.363046 
L 527.173628 312.355733 
L 527.681409 312.513863 
L 528.189189 311.787103 
L 528.69697 310.17324 
L 529.20475 307.712876 
L 530.220311 300.524257 
L 531.235872 290.979575 
L 533.266994 268.497456 
L 538.85258 205.205293 
L 541.899263 172.234962 
L 542.914824 162.898814 
L 543.930385 155.475501 
L 544.438165 152.739717 
L 544.945946 150.755552 
L 545.453726 149.581455 
L 545.961507 149.244117 
L 546.469287 149.738043 
L 546.977068 151.025546 
L 547.484848 153.040533 
L 548.50041 158.942192 
L 549.515971 166.727846 
L 551.547093 185.173141 
L 558.65602 252.554251 
L 559.671581 260.546488 
L 560.687142 266.743872 
L 561.194922 268.947134 
L 561.702703 270.450922 
L 562.210483 271.188391 
L 562.718264 271.106767 
L 563.226044 270.198799 
L 563.733825 268.487847 
L 564.241605 266.018267 
L 565.257166 259.085793 
L 566.272727 250.1668 
L 568.303849 229.327534 
L 573.889435 168.252855 
L 578.96724 110.313905 
L 579.982801 103.2573 
L 580.490581 101.118141 
L 580.998362 100.010492 
L 581.506143 99.960727 
L 582.013923 100.938927 
L 582.521704 102.868694 
L 583.029484 105.627354 
L 584.045045 112.954971 
L 587.599509 142.439076 
L 588.61507 148.958579 
L 589.630631 154.111881 
L 590.646192 157.86346 
L 591.153972 159.210458 
L 591.661753 160.204936 
L 592.169533 160.847952 
L 592.677314 161.142852 
L 593.185094 161.0877 
L 593.692875 160.67183 
L 594.200655 159.883451 
L 594.708436 158.709764 
L 595.216216 157.136959 
L 596.231777 152.733713 
L 597.247338 146.543054 
L 598.262899 138.418178 
L 599.27846 128.232248 
L 600.801802 109.432931 
L 602.832924 82.307986 
L 603.848485 72.03102 
L 604.356265 68.730778 
L 604.864046 67.002077 
L 605.371826 66.96 
L 605.879607 68.602845 
L 606.387387 71.792402 
L 607.402948 81.698655 
L 610.957412 123.412847 
L 611.972973 131.484029 
L 612.988534 137.010692 
L 613.496314 138.80956 
L 614.004095 139.976139 
L 614.511876 140.514375 
L 615.019656 140.420518 
L 615.527437 139.692234 
L 616.035217 138.328794 
L 616.542998 136.331076 
L 617.050778 133.701565 
L 618.066339 126.565128 
L 619.0819 117.002695 
L 620.605242 99.16651 
L 622.128583 80.905903 
L 622.636364 75.931888 
L 622.636364 75.931888 
" clip-path="url(#p4739eed068)" style="fill: none; stroke: #2ca02c; stroke-width: 1.5; stroke-linecap: square"/>
   </g>
   <g id="patch_3">
    <path d="M 90 384.48 
L 90 51.84 
" style="fill: none; stroke: #000000; stroke-width: 0.8; stroke-linejoin: miter; stroke-linecap: square"/>
   </g>
   <g id="patch_4">
    <path d="M 648 384.48 
L 648 51.84 
" style="fill: none; stroke: #000000; stroke-width: 0.8; stroke-linejoin: miter; stroke-linecap: square"/>
   </g>
   <g id="patch_5">
    <path d="M 90 384.48 
L 648 384.48 
" style="fill: none; stroke: #000000; stroke-width: 0.8; stroke-linejoin: miter; stroke-linecap: square"/>
   </g>
   <g id="patch_6">
    <path d="M 90 51.84 
L 648 51.84 
" style="fill: none; stroke: #000000; stroke-width: 0.8; stroke-linejoin: miter; stroke-linecap: square"/>
   </g>
   <g id="text_19">
    <!-- Simulation: A=10.0, $\omega$=6.4, l=2.8, $\theta_0$=3.266592653589793 -->
    <g transform="translate(189.72 45.84) scale(0.12 -0.12)">
     <defs>
      <path id="DejaVuSans-53" d="M 3425 4513 
L 3425 3897 
Q 3066 4069 2747 4153 
Q 2428 4238 2131 4238 
Q 1616 4238 1336 4038 
Q 1056 3838 1056 3469 
Q 1056 3159 1242 3001 
Q 1428 2844 1947 2747 
L 2328 2669 
Q 3034 2534 3370 2195 
Q 3706 1856 3706 1288 
Q 3706 609 3251 259 
Q 2797 -91 1919 -91 
Q 1588 -91 1214 -16 
Q 841 59 441 206 
L 441 856 
Q 825 641 1194 531 
Q 1563 422 1919 422 
Q 2459 422 2753 634 
Q 3047 847 3047 1241 
Q 3047 1584 2836 1778 
Q 2625 1972 2144 2069 
L 1759 2144 
Q 1053 2284 737 2584 
Q 422 2884 422 3419 
Q 422 4038 858 4394 
Q 1294 4750 2059 4750 
Q 2388 4750 2728 4690 
Q 3069 4631 3425 4513 
z
" transform="scale(0.015625)"/>
      <path id="DejaVuSans-75" d="M 544 1381 
L 544 3500 
L 1119 3500 
L 1119 1403 
Q 1119 906 1312 657 
Q 1506 409 1894 409 
Q 2359 409 2629 706 
Q 2900 1003 2900 1516 
L 2900 3500 
L 3475 3500 
L 3475 0 
L 2900 0 
L 2900 538 
Q 2691 219 2414 64 
Q 2138 -91 1772 -91 
Q 1169 -91 856 284 
Q 544 659 544 1381 
z
M 1991 3584 
L 1991 3584 
z
" transform="scale(0.015625)"/>
      <path id="DejaVuSans-6c" d="M 603 4863 
L 1178 4863 
L 1178 0 
L 603 0 
L 603 4863 
z
" transform="scale(0.015625)"/>
      <path id="DejaVuSans-61" d="M 2194 1759 
Q 1497 1759 1228 1600 
Q 959 1441 959 1056 
Q 959 750 1161 570 
Q 1363 391 1709 391 
Q 2188 391 2477 730 
Q 2766 1069 2766 1631 
L 2766 1759 
L 2194 1759 
z
M 3341 1997 
L 3341 0 
L 2766 0 
L 2766 531 
Q 2569 213 2275 61 
Q 1981 -91 1556 -91 
Q 1019 -91 701 211 
Q 384 513 384 1019 
Q 384 1609 779 1909 
Q 1175 2209 1959 2209 
L 2766 2209 
L 2766 2266 
Q 2766 2663 2505 2880 
Q 2244 3097 1772 3097 
Q 1472 3097 1187 3025 
Q 903 2953 641 2809 
L 641 3341 
Q 956 3463 1253 3523 
Q 1550 3584 1831 3584 
Q 2591 3584 2966 3190 
Q 3341 2797 3341 1997 
z
" transform="scale(0.015625)"/>
      <path id="DejaVuSans-6f" d="M 1959 3097 
Q 1497 3097 1228 2736 
Q 959 2375 959 1747 
Q 959 1119 1226 758 
Q 1494 397 1959 397 
Q 2419 397 2687 759 
Q 2956 1122 2956 1747 
Q 2956 2369 2687 2733 
Q 2419 3097 1959 3097 
z
M 1959 3584 
Q 2709 3584 3137 3096 
Q 3566 2609 3566 1747 
Q 3566 888 3137 398 
Q 2709 -91 1959 -91 
Q 1206 -91 779 398 
Q 353 888 353 1747 
Q 353 2609 779 3096 
Q 1206 3584 1959 3584 
z
" transform="scale(0.015625)"/>
      <path id="DejaVuSans-6e" d="M 3513 2113 
L 3513 0 
L 2938 0 
L 2938 2094 
Q 2938 2591 2744 2837 
Q 2550 3084 2163 3084 
Q 1697 3084 1428 2787 
Q 1159 2491 1159 1978 
L 1159 0 
L 581 0 
L 581 3500 
L 1159 3500 
L 1159 2956 
Q 1366 3272 1645 3428 
Q 1925 3584 2291 3584 
Q 2894 3584 3203 3211 
Q 3513 2838 3513 2113 
z
" transform="scale(0.015625)"/>
      <path id="DejaVuSans-3a" d="M 750 794 
L 1409 794 
L 1409 0 
L 750 0 
L 750 794 
z
M 750 3309 
L 1409 3309 
L 1409 2516 
L 750 2516 
L 750 3309 
z
" transform="scale(0.015625)"/>
      <path id="DejaVuSans-41" d="M 2188 4044 
L 1331 1722 
L 3047 1722 
L 2188 4044 
z
M 1831 4666 
L 2547 4666 
L 4325 0 
L 3669 0 
L 3244 1197 
L 1141 1197 
L 716 0 
L 50 0 
L 1831 4666 
z
" transform="scale(0.015625)"/>
      <path id="DejaVuSans-3d" d="M 678 2906 
L 4684 2906 
L 4684 2381 
L 678 2381 
L 678 2906 
z
M 678 1631 
L 4684 1631 
L 4684 1100 
L 678 1100 
L 678 1631 
z
" transform="scale(0.015625)"/>
      <path id="DejaVuSans-2c" d="M 750 794 
L 1409 794 
L 1409 256 
L 897 -744 
L 494 -744 
L 750 256 
L 750 794 
z
" transform="scale(0.015625)"/>
      <path id="DejaVuSans-Oblique-3c9" d="M 1369 -91 
Q 72 -91 434 1766 
Q 575 2500 1256 3500 
L 1875 3500 
Q 1231 2500 1088 1750 
Q 819 397 1519 397 
Q 2166 397 2478 2078 
L 3009 2078 
Q 2669 388 3316 397 
Q 4013 403 4275 1750 
Q 4419 2500 4169 3500 
L 4788 3500 
Q 5075 2500 4934 1766 
Q 4578 -94 3278 -91 
Q 2428 -88 2503 844 
Q 2194 -91 1369 -91 
z
" transform="scale(0.015625)"/>
      <path id="DejaVuSans-36" d="M 2113 2584 
Q 1688 2584 1439 2293 
Q 1191 2003 1191 1497 
Q 1191 994 1439 701 
Q 1688 409 2113 409 
Q 2538 409 2786 701 
Q 3034 994 3034 1497 
Q 3034 2003 2786 2293 
Q 2538 2584 2113 2584 
z
M 3366 4563 
L 3366 3988 
Q 3128 4100 2886 4159 
Q 2644 4219 2406 4219 
Q 1781 4219 1451 3797 
Q 1122 3375 1075 2522 
Q 1259 2794 1537 2939 
Q 1816 3084 2150 3084 
Q 2853 3084 3261 2657 
Q 3669 2231 3669 1497 
Q 3669 778 3244 343 
Q 2819 -91 2113 -91 
Q 1303 -91 875 529 
Q 447 1150 447 2328 
Q 447 3434 972 4092 
Q 1497 4750 2381 4750 
Q 2619 4750 2861 4703 
Q 3103 4656 3366 4563 
z
" transform="scale(0.015625)"/>
      <path id="DejaVuSans-34" d="M 2419 4116 
L 825 1625 
L 2419 1625 
L 2419 4116 
z
M 2253 4666 
L 3047 4666 
L 3047 1625 
L 3713 1625 
L 3713 1100 
L 3047 1100 
L 3047 0 
L 2419 0 
L 2419 1100 
L 313 1100 
L 313 1709 
L 2253 4666 
z
" transform="scale(0.015625)"/>
      <path id="DejaVuSans-38" d="M 2034 2216 
Q 1584 2216 1326 1975 
Q 1069 1734 1069 1313 
Q 1069 891 1326 650 
Q 1584 409 2034 409 
Q 2484 409 2743 651 
Q 3003 894 3003 1313 
Q 3003 1734 2745 1975 
Q 2488 2216 2034 2216 
z
M 1403 2484 
Q 997 2584 770 2862 
Q 544 3141 544 3541 
Q 544 4100 942 4425 
Q 1341 4750 2034 4750 
Q 2731 4750 3128 4425 
Q 3525 4100 3525 3541 
Q 3525 3141 3298 2862 
Q 3072 2584 2669 2484 
Q 3125 2378 3379 2068 
Q 3634 1759 3634 1313 
Q 3634 634 3220 271 
Q 2806 -91 2034 -91 
Q 1263 -91 848 271 
Q 434 634 434 1313 
Q 434 1759 690 2068 
Q 947 2378 1403 2484 
z
M 1172 3481 
Q 1172 3119 1398 2916 
Q 1625 2713 2034 2713 
Q 2441 2713 2670 2916 
Q 2900 3119 2900 3481 
Q 2900 3844 2670 4047 
Q 2441 4250 2034 4250 
Q 1625 4250 1398 4047 
Q 1172 3844 1172 3481 
z
" transform="scale(0.015625)"/>
      <path id="DejaVuSans-33" d="M 2597 2516 
Q 3050 2419 3304 2112 
Q 3559 1806 3559 1356 
Q 3559 666 3084 287 
Q 2609 -91 1734 -91 
Q 1441 -91 1130 -33 
Q 819 25 488 141 
L 488 750 
Q 750 597 1062 519 
Q 1375 441 1716 441 
Q 2309 441 2620 675 
Q 2931 909 2931 1356 
Q 2931 1769 2642 2001 
Q 2353 2234 1838 2234 
L 1294 2234 
L 1294 2753 
L 1863 2753 
Q 2328 2753 2575 2939 
Q 2822 3125 2822 3475 
Q 2822 3834 2567 4026 
Q 2313 4219 1838 4219 
Q 1578 4219 1281 4162 
Q 984 4106 628 3988 
L 628 4550 
Q 988 4650 1302 4700 
Q 1616 4750 1894 4750 
Q 2613 4750 3031 4423 
Q 3450 4097 3450 3541 
Q 3450 3153 3228 2886 
Q 3006 2619 2597 2516 
z
" transform="scale(0.015625)"/>
      <path id="DejaVuSans-39" d="M 703 97 
L 703 672 
Q 941 559 1184 500 
Q 1428 441 1663 441 
Q 2288 441 2617 861 
Q 2947 1281 2994 2138 
Q 2813 1869 2534 1725 
Q 2256 1581 1919 1581 
Q 1219 1581 811 2004 
Q 403 2428 403 3163 
Q 403 3881 828 4315 
Q 1253 4750 1959 4750 
Q 2769 4750 3195 4129 
Q 3622 3509 3622 2328 
Q 3622 1225 3098 567 
Q 2575 -91 1691 -91 
Q 1453 -91 1209 -44 
Q 966 3 703 97 
z
M 1959 2075 
Q 2384 2075 2632 2365 
Q 2881 2656 2881 3163 
Q 2881 3666 2632 3958 
Q 2384 4250 1959 4250 
Q 1534 4250 1286 3958 
Q 1038 3666 1038 3163 
Q 1038 2656 1286 2365 
Q 1534 2075 1959 2075 
z
" transform="scale(0.015625)"/>
     </defs>
     <use xlink:href="#DejaVuSans-53" transform="translate(0 0.234375)"/>
     <use xlink:href="#DejaVuSans-69" transform="translate(63.476562 0.234375)"/>
     <use xlink:href="#DejaVuSans-6d" transform="translate(91.259766 0.234375)"/>
     <use xlink:href="#DejaVuSans-75" transform="translate(188.671875 0.234375)"/>
     <use xlink:href="#DejaVuSans-6c" transform="translate(252.050781 0.234375)"/>
     <use xlink:href="#DejaVuSans-61" transform="translate(279.833984 0.234375)"/>
     <use xlink:href="#DejaVuSans-74" transform="translate(341.113281 0.234375)"/>
     <use xlink:href="#DejaVuSans-69" transform="translate(380.322266 0.234375)"/>
     <use xlink:href="#DejaVuSans-6f" transform="translate(408.105469 0.234375)"/>
     <use xlink:href="#DejaVuSans-6e" transform="translate(469.287109 0.234375)"/>
     <use xlink:href="#DejaVuSans-3a" transform="translate(532.666016 0.234375)"/>
     <use xlink:href="#DejaVuSans-20" transform="translate(566.357422 0.234375)"/>
     <use xlink:href="#DejaVuSans-41" transform="translate(598.144531 0.234375)"/>
     <use xlink:href="#DejaVuSans-3d" transform="translate(666.552734 0.234375)"/>
     <use xlink:href="#DejaVuSans-31" transform="translate(750.341797 0.234375)"/>
     <use xlink:href="#DejaVuSans-30" transform="translate(813.964844 0.234375)"/>
     <use xlink:href="#DejaVuSans-2e" transform="translate(877.587891 0.234375)"/>
     <use xlink:href="#DejaVuSans-30" transform="translate(909.375 0.234375)"/>
     <use xlink:href="#DejaVuSans-2c" transform="translate(972.998047 0.234375)"/>
     <use xlink:href="#DejaVuSans-20" transform="translate(1004.785156 0.234375)"/>
     <use xlink:href="#DejaVuSans-Oblique-3c9" transform="translate(1036.572266 0.234375)"/>
     <use xlink:href="#DejaVuSans-3d" transform="translate(1120.3125 0.234375)"/>
     <use xlink:href="#DejaVuSans-36" transform="translate(1204.101562 0.234375)"/>
     <use xlink:href="#DejaVuSans-2e" transform="translate(1267.724609 0.234375)"/>
     <use xlink:href="#DejaVuSans-34" transform="translate(1299.511719 0.234375)"/>
     <use xlink:href="#DejaVuSans-2c" transform="translate(1363.134766 0.234375)"/>
     <use xlink:href="#DejaVuSans-20" transform="translate(1394.921875 0.234375)"/>
     <use xlink:href="#DejaVuSans-6c" transform="translate(1426.708984 0.234375)"/>
     <use xlink:href="#DejaVuSans-3d" transform="translate(1454.492188 0.234375)"/>
     <use xlink:href="#DejaVuSans-32" transform="translate(1538.28125 0.234375)"/>
     <use xlink:href="#DejaVuSans-2e" transform="translate(1601.904297 0.234375)"/>
     <use xlink:href="#DejaVuSans-38" transform="translate(1631.066406 0.234375)"/>
     <use xlink:href="#DejaVuSans-2c" transform="translate(1694.689453 0.234375)"/>
     <use xlink:href="#DejaVuSans-20" transform="translate(1726.476562 0.234375)"/>
     <use xlink:href="#DejaVuSans-Oblique-3b8" transform="translate(1758.263672 0.234375)"/>
     <use xlink:href="#DejaVuSans-30" transform="translate(1819.445312 -16.171875) scale(0.7)"/>
     <use xlink:href="#DejaVuSans-3d" transform="translate(1866.71582 0.234375)"/>
     <use xlink:href="#DejaVuSans-33" transform="translate(1950.504883 0.234375)"/>
     <use xlink:href="#DejaVuSans-2e" transform="translate(2014.12793 0.234375)"/>
     <use xlink:href="#DejaVuSans-32" transform="translate(2040.415039 0.234375)"/>
     <use xlink:href="#DejaVuSans-36" transform="translate(2104.038086 0.234375)"/>
     <use xlink:href="#DejaVuSans-36" transform="translate(2167.661133 0.234375)"/>
     <use xlink:href="#DejaVuSans-35" transform="translate(2231.28418 0.234375)"/>
     <use xlink:href="#DejaVuSans-39" transform="translate(2289.407227 0.234375)"/>
     <use xlink:href="#DejaVuSans-32" transform="translate(2351.280273 0.234375)"/>
     <use xlink:href="#DejaVuSans-36" transform="translate(2414.90332 0.234375)"/>
     <use xlink:href="#DejaVuSans-35" transform="translate(2478.526367 0.234375)"/>
     <use xlink:href="#DejaVuSans-33" transform="translate(2542.149414 0.234375)"/>
     <use xlink:href="#DejaVuSans-35" transform="translate(2605.772461 0.234375)"/>
     <use xlink:href="#DejaVuSans-38" transform="translate(2669.395508 0.234375)"/>
     <use xlink:href="#DejaVuSans-39" transform="translate(2733.018555 0.234375)"/>
     <use xlink:href="#DejaVuSans-37" transform="translate(2796.641602 0.234375)"/>
     <use xlink:href="#DejaVuSans-39" transform="translate(2860.264648 0.234375)"/>
     <use xlink:href="#DejaVuSans-33" transform="translate(2923.887695 0.234375)"/>
    </g>
   </g>
   <g id="legend_1">
    <g id="patch_7">
     <path d="M 97 103.874375 
L 197.403125 103.874375 
Q 199.403125 103.874375 199.403125 101.874375 
L 199.403125 58.84 
Q 199.403125 56.84 197.403125 56.84 
L 97 56.84 
Q 95 56.84 95 58.84 
L 95 101.874375 
Q 95 103.874375 97 103.874375 
z
" style="fill: #ffffff; opacity: 0.8; stroke: #cccccc; stroke-linejoin: miter"/>
    </g>
    <g id="line2d_36">
     <path d="M 99 64.938437 
L 109 64.938437 
L 119 64.938437 
" style="fill: none; stroke: #1f77b4; stroke-width: 1.5; stroke-linecap: square"/>
    </g>
    <g id="text_20">
     <!-- Original -->
     <g transform="translate(127 68.438437) scale(0.1 -0.1)">
      <defs>
       <path id="DejaVuSans-4f" d="M 2522 4238 
Q 1834 4238 1429 3725 
Q 1025 3213 1025 2328 
Q 1025 1447 1429 934 
Q 1834 422 2522 422 
Q 3209 422 3611 934 
Q 4013 1447 4013 2328 
Q 4013 3213 3611 3725 
Q 3209 4238 2522 4238 
z
M 2522 4750 
Q 3503 4750 4090 4092 
Q 4678 3434 4678 2328 
Q 4678 1225 4090 567 
Q 3503 -91 2522 -91 
Q 1538 -91 948 565 
Q 359 1222 359 2328 
Q 359 3434 948 4092 
Q 1538 4750 2522 4750 
z
" transform="scale(0.015625)"/>
       <path id="DejaVuSans-72" d="M 2631 2963 
Q 2534 3019 2420 3045 
Q 2306 3072 2169 3072 
Q 1681 3072 1420 2755 
Q 1159 2438 1159 1844 
L 1159 0 
L 581 0 
L 581 3500 
L 1159 3500 
L 1159 2956 
Q 1341 3275 1631 3429 
Q 1922 3584 2338 3584 
Q 2397 3584 2469 3576 
Q 2541 3569 2628 3553 
L 2631 2963 
z
" transform="scale(0.015625)"/>
       <path id="DejaVuSans-67" d="M 2906 1791 
Q 2906 2416 2648 2759 
Q 2391 3103 1925 3103 
Q 1463 3103 1205 2759 
Q 947 2416 947 1791 
Q 947 1169 1205 825 
Q 1463 481 1925 481 
Q 2391 481 2648 825 
Q 2906 1169 2906 1791 
z
M 3481 434 
Q 3481 -459 3084 -895 
Q 2688 -1331 1869 -1331 
Q 1566 -1331 1297 -1286 
Q 1028 -1241 775 -1147 
L 775 -588 
Q 1028 -725 1275 -790 
Q 1522 -856 1778 -856 
Q 2344 -856 2625 -561 
Q 2906 -266 2906 331 
L 2906 616 
Q 2728 306 2450 153 
Q 2172 0 1784 0 
Q 1141 0 747 490 
Q 353 981 353 1791 
Q 353 2603 747 3093 
Q 1141 3584 1784 3584 
Q 2172 3584 2450 3431 
Q 2728 3278 2906 2969 
L 2906 3500 
L 3481 3500 
L 3481 434 
z
" transform="scale(0.015625)"/>
      </defs>
      <use xlink:href="#DejaVuSans-4f"/>
      <use xlink:href="#DejaVuSans-72" x="78.710938"/>
      <use xlink:href="#DejaVuSans-69" x="119.824219"/>
      <use xlink:href="#DejaVuSans-67" x="147.607422"/>
      <use xlink:href="#DejaVuSans-69" x="211.083984"/>
      <use xlink:href="#DejaVuSans-6e" x="238.867188"/>
      <use xlink:href="#DejaVuSans-61" x="302.246094"/>
      <use xlink:href="#DejaVuSans-6c" x="363.525391"/>
     </g>
    </g>
    <g id="line2d_37">
     <path d="M 99 79.616562 
L 109 79.616562 
L 119 79.616562 
" style="fill: none; stroke: #ff7f0e; stroke-width: 1.5; stroke-linecap: square"/>
    </g>
    <g id="text_21">
     <!-- First-Order -->
     <g transform="translate(127 83.116562) scale(0.1 -0.1)">
      <defs>
       <path id="DejaVuSans-46" d="M 628 4666 
L 3309 4666 
L 3309 4134 
L 1259 4134 
L 1259 2759 
L 3109 2759 
L 3109 2228 
L 1259 2228 
L 1259 0 
L 628 0 
L 628 4666 
z
" transform="scale(0.015625)"/>
       <path id="DejaVuSans-73" d="M 2834 3397 
L 2834 2853 
Q 2591 2978 2328 3040 
Q 2066 3103 1784 3103 
Q 1356 3103 1142 2972 
Q 928 2841 928 2578 
Q 928 2378 1081 2264 
Q 1234 2150 1697 2047 
L 1894 2003 
Q 2506 1872 2764 1633 
Q 3022 1394 3022 966 
Q 3022 478 2636 193 
Q 2250 -91 1575 -91 
Q 1294 -91 989 -36 
Q 684 19 347 128 
L 347 722 
Q 666 556 975 473 
Q 1284 391 1588 391 
Q 1994 391 2212 530 
Q 2431 669 2431 922 
Q 2431 1156 2273 1281 
Q 2116 1406 1581 1522 
L 1381 1569 
Q 847 1681 609 1914 
Q 372 2147 372 2553 
Q 372 3047 722 3315 
Q 1072 3584 1716 3584 
Q 2034 3584 2315 3537 
Q 2597 3491 2834 3397 
z
" transform="scale(0.015625)"/>
       <path id="DejaVuSans-2d" d="M 313 2009 
L 1997 2009 
L 1997 1497 
L 313 1497 
L 313 2009 
z
" transform="scale(0.015625)"/>
       <path id="DejaVuSans-64" d="M 2906 2969 
L 2906 4863 
L 3481 4863 
L 3481 0 
L 2906 0 
L 2906 525 
Q 2725 213 2448 61 
Q 2172 -91 1784 -91 
Q 1150 -91 751 415 
Q 353 922 353 1747 
Q 353 2572 751 3078 
Q 1150 3584 1784 3584 
Q 2172 3584 2448 3432 
Q 2725 3281 2906 2969 
z
M 947 1747 
Q 947 1113 1208 752 
Q 1469 391 1925 391 
Q 2381 391 2643 752 
Q 2906 1113 2906 1747 
Q 2906 2381 2643 2742 
Q 2381 3103 1925 3103 
Q 1469 3103 1208 2742 
Q 947 2381 947 1747 
z
" transform="scale(0.015625)"/>
      </defs>
      <use xlink:href="#DejaVuSans-46"/>
      <use xlink:href="#DejaVuSans-69" x="50.269531"/>
      <use xlink:href="#DejaVuSans-72" x="78.052734"/>
      <use xlink:href="#DejaVuSans-73" x="119.166016"/>
      <use xlink:href="#DejaVuSans-74" x="171.265625"/>
      <use xlink:href="#DejaVuSans-2d" x="210.474609"/>
      <use xlink:href="#DejaVuSans-4f" x="249.308594"/>
      <use xlink:href="#DejaVuSans-72" x="328.019531"/>
      <use xlink:href="#DejaVuSans-64" x="367.382812"/>
      <use xlink:href="#DejaVuSans-65" x="430.859375"/>
      <use xlink:href="#DejaVuSans-72" x="492.382812"/>
     </g>
    </g>
    <g id="line2d_38">
     <path d="M 99 94.294687 
L 109 94.294687 
L 119 94.294687 
" style="fill: none; stroke: #2ca02c; stroke-width: 1.5; stroke-linecap: square"/>
    </g>
    <g id="text_22">
     <!-- Second Order -->
     <g transform="translate(127 97.794687) scale(0.1 -0.1)">
      <defs>
       <path id="DejaVuSans-63" d="M 3122 3366 
L 3122 2828 
Q 2878 2963 2633 3030 
Q 2388 3097 2138 3097 
Q 1578 3097 1268 2742 
Q 959 2388 959 1747 
Q 959 1106 1268 751 
Q 1578 397 2138 397 
Q 2388 397 2633 464 
Q 2878 531 3122 666 
L 3122 134 
Q 2881 22 2623 -34 
Q 2366 -91 2075 -91 
Q 1284 -91 818 406 
Q 353 903 353 1747 
Q 353 2603 823 3093 
Q 1294 3584 2113 3584 
Q 2378 3584 2631 3529 
Q 2884 3475 3122 3366 
z
" transform="scale(0.015625)"/>
      </defs>
      <use xlink:href="#DejaVuSans-53"/>
      <use xlink:href="#DejaVuSans-65" x="63.476562"/>
      <use xlink:href="#DejaVuSans-63" x="125"/>
      <use xlink:href="#DejaVuSans-6f" x="179.980469"/>
      <use xlink:href="#DejaVuSans-6e" x="241.162109"/>
      <use xlink:href="#DejaVuSans-64" x="304.541016"/>
      <use xlink:href="#DejaVuSans-20" x="368.017578"/>
      <use xlink:href="#DejaVuSans-4f" x="399.804688"/>
      <use xlink:href="#DejaVuSans-72" x="478.515625"/>
      <use xlink:href="#DejaVuSans-64" x="517.878906"/>
      <use xlink:href="#DejaVuSans-65" x="581.355469"/>
      <use xlink:href="#DejaVuSans-72" x="642.878906"/>
     </g>
    </g>
   </g>
  </g>
 </g>
 <defs>
  <clipPath id="p4739eed068">
   <rect x="90" y="51.84" width="558" height="332.64"/>
  </clipPath>
 </defs>
</svg>
