<?xml version="1.0" encoding="utf-8" standalone="no"?>
<!DOCTYPE svg PUBLIC "-//W3C//DTD SVG 1.1//EN"
  "http://www.w3.org/Graphics/SVG/1.1/DTD/svg11.dtd">
<svg xmlns:xlink="http://www.w3.org/1999/xlink" width="720pt" height="432pt" viewBox="0 0 720 432" xmlns="http://www.w3.org/2000/svg" version="1.1">
 <metadata>
  <rdf:RDF xmlns:dc="http://purl.org/dc/elements/1.1/" xmlns:cc="http://creativecommons.org/ns#" xmlns:rdf="http://www.w3.org/1999/02/22-rdf-syntax-ns#">
   <cc:Work>
    <dc:type rdf:resource="http://purl.org/dc/dcmitype/StillImage"/>
    <dc:date>2024-12-31T23:34:15.266536</dc:date>
    <dc:format>image/svg+xml</dc:format>
    <dc:creator>
     <cc:Agent>
      <dc:title>Matplotlib v3.7.2, https://matplotlib.org/</dc:title>
     </cc:Agent>
    </dc:creator>
   </cc:Work>
  </rdf:RDF>
 </metadata>
 <defs>
  <style type="text/css">*{stroke-linejoin: round; stroke-linecap: butt}</style>
 </defs>
 <g id="figure_1">
  <g id="patch_1">
   <path d="M 0 432 
L 720 432 
L 720 0 
L 0 0 
z
" style="fill: #ffffff"/>
  </g>
  <g id="axes_1">
   <g id="patch_2">
    <path d="M 90 384.48 
L 648 384.48 
L 648 51.84 
L 90 51.84 
z
" style="fill: #ffffff"/>
   </g>
   <g id="matplotlib.axis_1">
    <g id="xtick_1">
     <g id="line2d_1">
      <path d="M 115.363636 384.48 
L 115.363636 51.84 
" clip-path="url(#pd266673432)" style="fill: none; stroke: #b0b0b0; stroke-width: 0.8; stroke-linecap: square"/>
     </g>
     <g id="line2d_2">
      <defs>
       <path id="m05d3f8b273" d="M 0 0 
L 0 3.5 
" style="stroke: #000000; stroke-width: 0.8"/>
      </defs>
      <g>
       <use xlink:href="#m05d3f8b273" x="115.363636" y="384.48" style="stroke: #000000; stroke-width: 0.8"/>
      </g>
     </g>
     <g id="text_1">
      <!-- 0.00 -->
      <g transform="translate(104.230824 399.078438) scale(0.1 -0.1)">
       <defs>
        <path id="DejaVuSans-30" d="M 2034 4250 
Q 1547 4250 1301 3770 
Q 1056 3291 1056 2328 
Q 1056 1369 1301 889 
Q 1547 409 2034 409 
Q 2525 409 2770 889 
Q 3016 1369 3016 2328 
Q 3016 3291 2770 3770 
Q 2525 4250 2034 4250 
z
M 2034 4750 
Q 2819 4750 3233 4129 
Q 3647 3509 3647 2328 
Q 3647 1150 3233 529 
Q 2819 -91 2034 -91 
Q 1250 -91 836 529 
Q 422 1150 422 2328 
Q 422 3509 836 4129 
Q 1250 4750 2034 4750 
z
" transform="scale(0.015625)"/>
        <path id="DejaVuSans-2e" d="M 684 794 
L 1344 794 
L 1344 0 
L 684 0 
L 684 794 
z
" transform="scale(0.015625)"/>
       </defs>
       <use xlink:href="#DejaVuSans-30"/>
       <use xlink:href="#DejaVuSans-2e" x="63.623047"/>
       <use xlink:href="#DejaVuSans-30" x="95.410156"/>
       <use xlink:href="#DejaVuSans-30" x="159.033203"/>
      </g>
     </g>
    </g>
    <g id="xtick_2">
     <g id="line2d_3">
      <path d="M 178.772727 384.48 
L 178.772727 51.84 
" clip-path="url(#pd266673432)" style="fill: none; stroke: #b0b0b0; stroke-width: 0.8; stroke-linecap: square"/>
     </g>
     <g id="line2d_4">
      <g>
       <use xlink:href="#m05d3f8b273" x="178.772727" y="384.48" style="stroke: #000000; stroke-width: 0.8"/>
      </g>
     </g>
     <g id="text_2">
      <!-- 0.25 -->
      <g transform="translate(167.639915 399.078438) scale(0.1 -0.1)">
       <defs>
        <path id="DejaVuSans-32" d="M 1228 531 
L 3431 531 
L 3431 0 
L 469 0 
L 469 531 
Q 828 903 1448 1529 
Q 2069 2156 2228 2338 
Q 2531 2678 2651 2914 
Q 2772 3150 2772 3378 
Q 2772 3750 2511 3984 
Q 2250 4219 1831 4219 
Q 1534 4219 1204 4116 
Q 875 4013 500 3803 
L 500 4441 
Q 881 4594 1212 4672 
Q 1544 4750 1819 4750 
Q 2544 4750 2975 4387 
Q 3406 4025 3406 3419 
Q 3406 3131 3298 2873 
Q 3191 2616 2906 2266 
Q 2828 2175 2409 1742 
Q 1991 1309 1228 531 
z
" transform="scale(0.015625)"/>
        <path id="DejaVuSans-35" d="M 691 4666 
L 3169 4666 
L 3169 4134 
L 1269 4134 
L 1269 2991 
Q 1406 3038 1543 3061 
Q 1681 3084 1819 3084 
Q 2600 3084 3056 2656 
Q 3513 2228 3513 1497 
Q 3513 744 3044 326 
Q 2575 -91 1722 -91 
Q 1428 -91 1123 -41 
Q 819 9 494 109 
L 494 744 
Q 775 591 1075 516 
Q 1375 441 1709 441 
Q 2250 441 2565 725 
Q 2881 1009 2881 1497 
Q 2881 1984 2565 2268 
Q 2250 2553 1709 2553 
Q 1456 2553 1204 2497 
Q 953 2441 691 2322 
L 691 4666 
z
" transform="scale(0.015625)"/>
       </defs>
       <use xlink:href="#DejaVuSans-30"/>
       <use xlink:href="#DejaVuSans-2e" x="63.623047"/>
       <use xlink:href="#DejaVuSans-32" x="95.410156"/>
       <use xlink:href="#DejaVuSans-35" x="159.033203"/>
      </g>
     </g>
    </g>
    <g id="xtick_3">
     <g id="line2d_5">
      <path d="M 242.181818 384.48 
L 242.181818 51.84 
" clip-path="url(#pd266673432)" style="fill: none; stroke: #b0b0b0; stroke-width: 0.8; stroke-linecap: square"/>
     </g>
     <g id="line2d_6">
      <g>
       <use xlink:href="#m05d3f8b273" x="242.181818" y="384.48" style="stroke: #000000; stroke-width: 0.8"/>
      </g>
     </g>
     <g id="text_3">
      <!-- 0.50 -->
      <g transform="translate(231.049006 399.078438) scale(0.1 -0.1)">
       <use xlink:href="#DejaVuSans-30"/>
       <use xlink:href="#DejaVuSans-2e" x="63.623047"/>
       <use xlink:href="#DejaVuSans-35" x="95.410156"/>
       <use xlink:href="#DejaVuSans-30" x="159.033203"/>
      </g>
     </g>
    </g>
    <g id="xtick_4">
     <g id="line2d_7">
      <path d="M 305.590909 384.48 
L 305.590909 51.84 
" clip-path="url(#pd266673432)" style="fill: none; stroke: #b0b0b0; stroke-width: 0.8; stroke-linecap: square"/>
     </g>
     <g id="line2d_8">
      <g>
       <use xlink:href="#m05d3f8b273" x="305.590909" y="384.48" style="stroke: #000000; stroke-width: 0.8"/>
      </g>
     </g>
     <g id="text_4">
      <!-- 0.75 -->
      <g transform="translate(294.458097 399.078438) scale(0.1 -0.1)">
       <defs>
        <path id="DejaVuSans-37" d="M 525 4666 
L 3525 4666 
L 3525 4397 
L 1831 0 
L 1172 0 
L 2766 4134 
L 525 4134 
L 525 4666 
z
" transform="scale(0.015625)"/>
       </defs>
       <use xlink:href="#DejaVuSans-30"/>
       <use xlink:href="#DejaVuSans-2e" x="63.623047"/>
       <use xlink:href="#DejaVuSans-37" x="95.410156"/>
       <use xlink:href="#DejaVuSans-35" x="159.033203"/>
      </g>
     </g>
    </g>
    <g id="xtick_5">
     <g id="line2d_9">
      <path d="M 369 384.48 
L 369 51.84 
" clip-path="url(#pd266673432)" style="fill: none; stroke: #b0b0b0; stroke-width: 0.8; stroke-linecap: square"/>
     </g>
     <g id="line2d_10">
      <g>
       <use xlink:href="#m05d3f8b273" x="369" y="384.48" style="stroke: #000000; stroke-width: 0.8"/>
      </g>
     </g>
     <g id="text_5">
      <!-- 1.00 -->
      <g transform="translate(357.867188 399.078438) scale(0.1 -0.1)">
       <defs>
        <path id="DejaVuSans-31" d="M 794 531 
L 1825 531 
L 1825 4091 
L 703 3866 
L 703 4441 
L 1819 4666 
L 2450 4666 
L 2450 531 
L 3481 531 
L 3481 0 
L 794 0 
L 794 531 
z
" transform="scale(0.015625)"/>
       </defs>
       <use xlink:href="#DejaVuSans-31"/>
       <use xlink:href="#DejaVuSans-2e" x="63.623047"/>
       <use xlink:href="#DejaVuSans-30" x="95.410156"/>
       <use xlink:href="#DejaVuSans-30" x="159.033203"/>
      </g>
     </g>
    </g>
    <g id="xtick_6">
     <g id="line2d_11">
      <path d="M 432.409091 384.48 
L 432.409091 51.84 
" clip-path="url(#pd266673432)" style="fill: none; stroke: #b0b0b0; stroke-width: 0.8; stroke-linecap: square"/>
     </g>
     <g id="line2d_12">
      <g>
       <use xlink:href="#m05d3f8b273" x="432.409091" y="384.48" style="stroke: #000000; stroke-width: 0.8"/>
      </g>
     </g>
     <g id="text_6">
      <!-- 1.25 -->
      <g transform="translate(421.276278 399.078438) scale(0.1 -0.1)">
       <use xlink:href="#DejaVuSans-31"/>
       <use xlink:href="#DejaVuSans-2e" x="63.623047"/>
       <use xlink:href="#DejaVuSans-32" x="95.410156"/>
       <use xlink:href="#DejaVuSans-35" x="159.033203"/>
      </g>
     </g>
    </g>
    <g id="xtick_7">
     <g id="line2d_13">
      <path d="M 495.818182 384.48 
L 495.818182 51.84 
" clip-path="url(#pd266673432)" style="fill: none; stroke: #b0b0b0; stroke-width: 0.8; stroke-linecap: square"/>
     </g>
     <g id="line2d_14">
      <g>
       <use xlink:href="#m05d3f8b273" x="495.818182" y="384.48" style="stroke: #000000; stroke-width: 0.8"/>
      </g>
     </g>
     <g id="text_7">
      <!-- 1.50 -->
      <g transform="translate(484.685369 399.078438) scale(0.1 -0.1)">
       <use xlink:href="#DejaVuSans-31"/>
       <use xlink:href="#DejaVuSans-2e" x="63.623047"/>
       <use xlink:href="#DejaVuSans-35" x="95.410156"/>
       <use xlink:href="#DejaVuSans-30" x="159.033203"/>
      </g>
     </g>
    </g>
    <g id="xtick_8">
     <g id="line2d_15">
      <path d="M 559.227273 384.48 
L 559.227273 51.84 
" clip-path="url(#pd266673432)" style="fill: none; stroke: #b0b0b0; stroke-width: 0.8; stroke-linecap: square"/>
     </g>
     <g id="line2d_16">
      <g>
       <use xlink:href="#m05d3f8b273" x="559.227273" y="384.48" style="stroke: #000000; stroke-width: 0.8"/>
      </g>
     </g>
     <g id="text_8">
      <!-- 1.75 -->
      <g transform="translate(548.09446 399.078438) scale(0.1 -0.1)">
       <use xlink:href="#DejaVuSans-31"/>
       <use xlink:href="#DejaVuSans-2e" x="63.623047"/>
       <use xlink:href="#DejaVuSans-37" x="95.410156"/>
       <use xlink:href="#DejaVuSans-35" x="159.033203"/>
      </g>
     </g>
    </g>
    <g id="xtick_9">
     <g id="line2d_17">
      <path d="M 622.636364 384.48 
L 622.636364 51.84 
" clip-path="url(#pd266673432)" style="fill: none; stroke: #b0b0b0; stroke-width: 0.8; stroke-linecap: square"/>
     </g>
     <g id="line2d_18">
      <g>
       <use xlink:href="#m05d3f8b273" x="622.636364" y="384.48" style="stroke: #000000; stroke-width: 0.8"/>
      </g>
     </g>
     <g id="text_9">
      <!-- 2.00 -->
      <g transform="translate(611.503551 399.078438) scale(0.1 -0.1)">
       <use xlink:href="#DejaVuSans-32"/>
       <use xlink:href="#DejaVuSans-2e" x="63.623047"/>
       <use xlink:href="#DejaVuSans-30" x="95.410156"/>
       <use xlink:href="#DejaVuSans-30" x="159.033203"/>
      </g>
     </g>
    </g>
    <g id="text_10">
     <!-- Time (t) -->
     <g transform="translate(349.315625 412.756563) scale(0.1 -0.1)">
      <defs>
       <path id="DejaVuSans-54" d="M -19 4666 
L 3928 4666 
L 3928 4134 
L 2272 4134 
L 2272 0 
L 1638 0 
L 1638 4134 
L -19 4134 
L -19 4666 
z
" transform="scale(0.015625)"/>
       <path id="DejaVuSans-69" d="M 603 3500 
L 1178 3500 
L 1178 0 
L 603 0 
L 603 3500 
z
M 603 4863 
L 1178 4863 
L 1178 4134 
L 603 4134 
L 603 4863 
z
" transform="scale(0.015625)"/>
       <path id="DejaVuSans-6d" d="M 3328 2828 
Q 3544 3216 3844 3400 
Q 4144 3584 4550 3584 
Q 5097 3584 5394 3201 
Q 5691 2819 5691 2113 
L 5691 0 
L 5113 0 
L 5113 2094 
Q 5113 2597 4934 2840 
Q 4756 3084 4391 3084 
Q 3944 3084 3684 2787 
Q 3425 2491 3425 1978 
L 3425 0 
L 2847 0 
L 2847 2094 
Q 2847 2600 2669 2842 
Q 2491 3084 2119 3084 
Q 1678 3084 1418 2786 
Q 1159 2488 1159 1978 
L 1159 0 
L 581 0 
L 581 3500 
L 1159 3500 
L 1159 2956 
Q 1356 3278 1631 3431 
Q 1906 3584 2284 3584 
Q 2666 3584 2933 3390 
Q 3200 3197 3328 2828 
z
" transform="scale(0.015625)"/>
       <path id="DejaVuSans-65" d="M 3597 1894 
L 3597 1613 
L 953 1613 
Q 991 1019 1311 708 
Q 1631 397 2203 397 
Q 2534 397 2845 478 
Q 3156 559 3463 722 
L 3463 178 
Q 3153 47 2828 -22 
Q 2503 -91 2169 -91 
Q 1331 -91 842 396 
Q 353 884 353 1716 
Q 353 2575 817 3079 
Q 1281 3584 2069 3584 
Q 2775 3584 3186 3129 
Q 3597 2675 3597 1894 
z
M 3022 2063 
Q 3016 2534 2758 2815 
Q 2500 3097 2075 3097 
Q 1594 3097 1305 2825 
Q 1016 2553 972 2059 
L 3022 2063 
z
" transform="scale(0.015625)"/>
       <path id="DejaVuSans-20" transform="scale(0.015625)"/>
       <path id="DejaVuSans-28" d="M 1984 4856 
Q 1566 4138 1362 3434 
Q 1159 2731 1159 2009 
Q 1159 1288 1364 580 
Q 1569 -128 1984 -844 
L 1484 -844 
Q 1016 -109 783 600 
Q 550 1309 550 2009 
Q 550 2706 781 3412 
Q 1013 4119 1484 4856 
L 1984 4856 
z
" transform="scale(0.015625)"/>
       <path id="DejaVuSans-74" d="M 1172 4494 
L 1172 3500 
L 2356 3500 
L 2356 3053 
L 1172 3053 
L 1172 1153 
Q 1172 725 1289 603 
Q 1406 481 1766 481 
L 2356 481 
L 2356 0 
L 1766 0 
Q 1100 0 847 248 
Q 594 497 594 1153 
L 594 3053 
L 172 3053 
L 172 3500 
L 594 3500 
L 594 4494 
L 1172 4494 
z
" transform="scale(0.015625)"/>
       <path id="DejaVuSans-29" d="M 513 4856 
L 1013 4856 
Q 1481 4119 1714 3412 
Q 1947 2706 1947 2009 
Q 1947 1309 1714 600 
Q 1481 -109 1013 -844 
L 513 -844 
Q 928 -128 1133 580 
Q 1338 1288 1338 2009 
Q 1338 2731 1133 3434 
Q 928 4138 513 4856 
z
" transform="scale(0.015625)"/>
      </defs>
      <use xlink:href="#DejaVuSans-54"/>
      <use xlink:href="#DejaVuSans-69" x="57.958984"/>
      <use xlink:href="#DejaVuSans-6d" x="85.742188"/>
      <use xlink:href="#DejaVuSans-65" x="183.154297"/>
      <use xlink:href="#DejaVuSans-20" x="244.677734"/>
      <use xlink:href="#DejaVuSans-28" x="276.464844"/>
      <use xlink:href="#DejaVuSans-74" x="315.478516"/>
      <use xlink:href="#DejaVuSans-29" x="354.6875"/>
     </g>
    </g>
   </g>
   <g id="matplotlib.axis_2">
    <g id="ytick_1">
     <g id="line2d_19">
      <path d="M 90 331.332183 
L 648 331.332183 
" clip-path="url(#pd266673432)" style="fill: none; stroke: #b0b0b0; stroke-width: 0.8; stroke-linecap: square"/>
     </g>
     <g id="line2d_20">
      <defs>
       <path id="m3bce2cbac9" d="M 0 0 
L -3.5 0 
" style="stroke: #000000; stroke-width: 0.8"/>
      </defs>
      <g>
       <use xlink:href="#m3bce2cbac9" x="90" y="331.332183" style="stroke: #000000; stroke-width: 0.8"/>
      </g>
     </g>
     <g id="text_11">
      <!-- −2000 -->
      <g transform="translate(49.170313 335.131402) scale(0.1 -0.1)">
       <defs>
        <path id="DejaVuSans-2212" d="M 678 2272 
L 4684 2272 
L 4684 1741 
L 678 1741 
L 678 2272 
z
" transform="scale(0.015625)"/>
       </defs>
       <use xlink:href="#DejaVuSans-2212"/>
       <use xlink:href="#DejaVuSans-32" x="83.789062"/>
       <use xlink:href="#DejaVuSans-30" x="147.412109"/>
       <use xlink:href="#DejaVuSans-30" x="211.035156"/>
       <use xlink:href="#DejaVuSans-30" x="274.658203"/>
      </g>
     </g>
    </g>
    <g id="ytick_2">
     <g id="line2d_21">
      <path d="M 90 276.389489 
L 648 276.389489 
" clip-path="url(#pd266673432)" style="fill: none; stroke: #b0b0b0; stroke-width: 0.8; stroke-linecap: square"/>
     </g>
     <g id="line2d_22">
      <g>
       <use xlink:href="#m3bce2cbac9" x="90" y="276.389489" style="stroke: #000000; stroke-width: 0.8"/>
      </g>
     </g>
     <g id="text_12">
      <!-- −1500 -->
      <g transform="translate(49.170313 280.188708) scale(0.1 -0.1)">
       <use xlink:href="#DejaVuSans-2212"/>
       <use xlink:href="#DejaVuSans-31" x="83.789062"/>
       <use xlink:href="#DejaVuSans-35" x="147.412109"/>
       <use xlink:href="#DejaVuSans-30" x="211.035156"/>
       <use xlink:href="#DejaVuSans-30" x="274.658203"/>
      </g>
     </g>
    </g>
    <g id="ytick_3">
     <g id="line2d_23">
      <path d="M 90 221.446796 
L 648 221.446796 
" clip-path="url(#pd266673432)" style="fill: none; stroke: #b0b0b0; stroke-width: 0.8; stroke-linecap: square"/>
     </g>
     <g id="line2d_24">
      <g>
       <use xlink:href="#m3bce2cbac9" x="90" y="221.446796" style="stroke: #000000; stroke-width: 0.8"/>
      </g>
     </g>
     <g id="text_13">
      <!-- −1000 -->
      <g transform="translate(49.170313 225.246015) scale(0.1 -0.1)">
       <use xlink:href="#DejaVuSans-2212"/>
       <use xlink:href="#DejaVuSans-31" x="83.789062"/>
       <use xlink:href="#DejaVuSans-30" x="147.412109"/>
       <use xlink:href="#DejaVuSans-30" x="211.035156"/>
       <use xlink:href="#DejaVuSans-30" x="274.658203"/>
      </g>
     </g>
    </g>
    <g id="ytick_4">
     <g id="line2d_25">
      <path d="M 90 166.504103 
L 648 166.504103 
" clip-path="url(#pd266673432)" style="fill: none; stroke: #b0b0b0; stroke-width: 0.8; stroke-linecap: square"/>
     </g>
     <g id="line2d_26">
      <g>
       <use xlink:href="#m3bce2cbac9" x="90" y="166.504103" style="stroke: #000000; stroke-width: 0.8"/>
      </g>
     </g>
     <g id="text_14">
      <!-- −500 -->
      <g transform="translate(55.532812 170.303321) scale(0.1 -0.1)">
       <use xlink:href="#DejaVuSans-2212"/>
       <use xlink:href="#DejaVuSans-35" x="83.789062"/>
       <use xlink:href="#DejaVuSans-30" x="147.412109"/>
       <use xlink:href="#DejaVuSans-30" x="211.035156"/>
      </g>
     </g>
    </g>
    <g id="ytick_5">
     <g id="line2d_27">
      <path d="M 90 111.561409 
L 648 111.561409 
" clip-path="url(#pd266673432)" style="fill: none; stroke: #b0b0b0; stroke-width: 0.8; stroke-linecap: square"/>
     </g>
     <g id="line2d_28">
      <g>
       <use xlink:href="#m3bce2cbac9" x="90" y="111.561409" style="stroke: #000000; stroke-width: 0.8"/>
      </g>
     </g>
     <g id="text_15">
      <!-- 0 -->
      <g transform="translate(76.6375 115.360628) scale(0.1 -0.1)">
       <use xlink:href="#DejaVuSans-30"/>
      </g>
     </g>
    </g>
    <g id="ytick_6">
     <g id="line2d_29">
      <path d="M 90 56.618716 
L 648 56.618716 
" clip-path="url(#pd266673432)" style="fill: none; stroke: #b0b0b0; stroke-width: 0.8; stroke-linecap: square"/>
     </g>
     <g id="line2d_30">
      <g>
       <use xlink:href="#m3bce2cbac9" x="90" y="56.618716" style="stroke: #000000; stroke-width: 0.8"/>
      </g>
     </g>
     <g id="text_16">
      <!-- 500 -->
      <g transform="translate(63.9125 60.417934) scale(0.1 -0.1)">
       <use xlink:href="#DejaVuSans-35"/>
       <use xlink:href="#DejaVuSans-30" x="63.623047"/>
       <use xlink:href="#DejaVuSans-30" x="127.246094"/>
      </g>
     </g>
    </g>
    <g id="text_17">
     <!-- $\theta(t)$ -->
     <g transform="translate(43.090625 227.11) rotate(-90) scale(0.1 -0.1)">
      <defs>
       <path id="DejaVuSans-Oblique-3b8" d="M 2913 2219 
L 925 2219 
Q 791 1284 928 888 
Q 1100 400 1566 400 
Q 2034 400 2391 891 
Q 2703 1322 2913 2219 
z
M 3009 2750 
Q 3094 3638 2984 3950 
Q 2813 4444 2353 4444 
Q 1875 4444 1525 3956 
Q 1250 3563 1034 2750 
L 3009 2750 
z
M 2444 4913 
Q 3194 4913 3494 4250 
Q 3794 3591 3566 2422 
Q 3341 1256 2781 594 
Q 2225 -72 1475 -72 
Q 722 -72 425 594 
Q 128 1256 353 2422 
Q 581 3591 1134 4250 
Q 1691 4913 2444 4913 
z
" transform="scale(0.015625)"/>
       <path id="DejaVuSans-Oblique-74" d="M 2706 3500 
L 2619 3053 
L 1472 3053 
L 1100 1153 
Q 1081 1047 1072 975 
Q 1063 903 1063 863 
Q 1063 663 1183 572 
Q 1303 481 1569 481 
L 2150 481 
L 2053 0 
L 1503 0 
Q 991 0 739 200 
Q 488 400 488 806 
Q 488 878 497 964 
Q 506 1050 525 1153 
L 897 3053 
L 409 3053 
L 500 3500 
L 978 3500 
L 1172 4494 
L 1747 4494 
L 1556 3500 
L 2706 3500 
z
" transform="scale(0.015625)"/>
      </defs>
      <use xlink:href="#DejaVuSans-Oblique-3b8" transform="translate(0 0.234375)"/>
      <use xlink:href="#DejaVuSans-28" transform="translate(61.181641 0.234375)"/>
      <use xlink:href="#DejaVuSans-Oblique-74" transform="translate(100.195312 0.234375)"/>
      <use xlink:href="#DejaVuSans-29" transform="translate(139.404297 0.234375)"/>
     </g>
    </g>
   </g>
   <g id="line2d_31">
    <path d="M 115.363636 111.202458 
L 127.042588 111.314551 
L 151.923833 111.658278 
L 185.945127 111.783027 
L 216.411957 111.707058 
L 262.112203 112.135372 
L 274.806716 112.247793 
L 286.485667 112.123952 
L 306.796888 111.864063 
L 358.082719 111.718168 
L 380.425061 111.792429 
L 412.923014 111.555117 
L 442.882064 111.197668 
L 456.084357 111.414796 
L 476.903358 111.736442 
L 497.722359 111.898437 
L 510.416871 111.75592 
L 526.665848 111.570356 
L 539.868141 111.678855 
L 587.091728 112.246645 
L 599.786241 112.063315 
L 614.004095 111.89247 
L 622.636364 111.90515 
L 622.636364 111.90515 
" clip-path="url(#pd266673432)" style="fill: none; stroke: #1f77b4; stroke-width: 1.5; stroke-linecap: square"/>
   </g>
   <g id="line2d_32">
    <path d="M 115.363636 111.202458 
L 127.042588 111.317005 
L 139.737101 111.675041 
L 157.509419 112.430596 
L 180.867322 113.39223 
L 194.069615 113.705747 
L 207.271908 113.795363 
L 223.013104 113.661712 
L 252.972154 113.35053 
L 264.651106 113.486785 
L 274.806716 113.817684 
L 284.962326 114.366124 
L 295.625717 115.160899 
L 307.304668 116.253015 
L 322.030303 117.869569 
L 378.90172 124.569371 
L 391.596233 126.267265 
L 401.244062 127.777904 
L 409.36855 129.265343 
L 416.985258 130.881348 
L 424.094185 132.613193 
L 430.695332 134.436444 
L 437.296478 136.484669 
L 443.897625 138.773202 
L 449.990991 141.110543 
L 456.084357 143.673135 
L 462.177723 146.461776 
L 468.77887 149.734937 
L 475.380016 153.27132 
L 481.981163 157.076362 
L 488.074529 160.835676 
L 494.167895 164.843533 
L 500.261261 169.114406 
L 506.354627 173.666033 
L 511.940213 178.10287 
L 517.525799 182.811814 
L 523.111384 187.813752 
L 528.69697 193.13188 
L 533.774775 198.26233 
L 538.85258 203.695977 
L 543.930385 209.465019 
L 548.50041 214.974235 
L 553.070434 220.808162 
L 557.640459 226.991209 
L 562.210483 233.54872 
L 566.780508 240.506971 
L 571.350532 247.893175 
L 575.920557 255.735474 
L 580.490581 264.062949 
L 585.060606 272.905609 
L 589.630631 282.294401 
L 593.692875 291.124225 
L 597.755119 300.433745 
L 601.817363 310.246553 
L 605.879607 320.586823 
L 609.941851 331.479313 
L 614.004095 342.949363 
L 618.066339 355.022897 
L 622.128583 367.726421 
L 622.636364 369.36 
L 622.636364 369.36 
" clip-path="url(#pd266673432)" style="fill: none; stroke: #ff7f0e; stroke-width: 1.5; stroke-linecap: square"/>
   </g>
   <g id="line2d_33">
    <path d="M 115.363636 111.202458 
L 127.042588 111.31452 
L 143.291564 111.508392 
L 160.048321 111.327773 
L 193.054054 111.018538 
L 208.79525 111.275463 
L 223.520885 111.243948 
L 249.41769 110.909515 
L 256.018837 110.658988 
L 259.06552 110.360141 
L 261.096642 109.96227 
L 262.619984 109.425667 
L 263.635545 108.832959 
L 264.651106 107.88498 
L 265.158886 107.184401 
L 265.666667 106.236967 
L 266.174447 104.927042 
L 266.682228 103.067278 
L 267.190008 100.32463 
L 267.697789 96.192155 
L 268.205569 89.9445 
L 269.22113 71.490952 
L 269.728911 67.609842 
L 270.236691 73.411334 
L 271.252252 90.9419 
L 271.760033 96.025642 
L 272.267813 98.819975 
L 272.775594 99.82039 
L 273.283374 99.243866 
L 273.791155 96.955478 
L 274.298935 92.523729 
L 274.806716 85.28053 
L 275.822277 67.73008 
L 276.330057 68.947459 
L 277.853399 94.071517 
L 278.361179 98.186724 
L 278.86896 100.414377 
L 279.37674 101.195591 
L 279.884521 100.707501 
L 280.392301 98.851277 
L 280.900082 95.289036 
L 281.407862 89.411176 
L 282.423423 71.9689 
L 282.931204 68.657943 
L 283.438984 74.449801 
L 284.454545 92.575771 
L 284.962326 98.714317 
L 285.977887 107.052079 
L 287.501229 117.324715 
L 288.009009 119.880503 
L 288.51679 120.941163 
L 289.02457 120.113771 
L 289.532351 117.71577 
L 291.055692 107.649813 
L 292.071253 99.855275 
L 292.579034 94.652987 
L 293.594595 81.315066 
L 294.102375 76.979606 
L 294.610156 78.484599 
L 295.625717 92.649471 
L 296.641278 106.108914 
L 298.164619 123.404298 
L 298.6724 125.992853 
L 299.18018 124.711031 
L 299.687961 120.321104 
L 301.719083 96.320195 
L 302.226863 89.943261 
L 302.734644 85.043903 
L 303.242424 84.076213 
L 303.750205 87.804102 
L 305.273546 108.790993 
L 306.289107 122.713338 
L 306.796888 127.829517 
L 307.304668 129.093822 
L 307.812449 125.904275 
L 308.82801 113.189283 
L 310.351351 93.191057 
L 310.859132 89.116171 
L 311.366912 89.32804 
L 311.874693 93.891624 
L 313.398034 115.514471 
L 314.413595 129.054689 
L 314.921376 132.238724 
L 315.429156 130.793096 
L 315.936937 125.714423 
L 318.475839 93.734613 
L 318.98362 92.299784 
L 319.4914 95.371837 
L 320.506962 108.502825 
L 322.030303 129.78456 
L 322.538084 134.959633 
L 323.045864 136.273866 
L 323.553645 133.10391 
L 325.076986 114.455374 
L 326.092547 102.057002 
L 326.600328 97.134697 
L 327.108108 95.301961 
L 327.615889 97.59968 
L 328.63145 109.158637 
L 330.154791 129.296202 
L 330.662572 136.458627 
L 331.170352 141.674827 
L 331.678133 142.165449 
L 332.185913 137.848088 
L 333.709255 120.030939 
L 335.232596 106.366277 
L 335.740377 102.343221 
L 336.248157 99.770544 
L 336.755938 99.711153 
L 337.263718 102.202996 
L 338.279279 110.793543 
L 339.29484 120.221562 
L 339.802621 125.900836 
L 340.818182 141.853692 
L 341.325962 149.361675 
L 341.833743 150.348963 
L 342.341523 144.083918 
L 343.357084 129.104665 
L 343.864865 124.526015 
L 344.372645 121.628076 
L 344.880426 119.96659 
L 345.388206 119.24632 
L 345.895987 119.359944 
L 346.403767 120.333745 
L 346.911548 122.355377 
L 347.419328 125.786567 
L 347.927109 131.331324 
L 349.45045 154.697221 
L 349.958231 150.753839 
L 350.973792 133.14367 
L 351.481572 127.669337 
L 351.989353 124.690348 
L 352.497133 123.706498 
L 353.004914 124.539182 
L 353.512695 127.347852 
L 354.020475 132.633514 
L 355.036036 150.468231 
L 355.543817 155.349814 
L 356.051597 150.431569 
L 357.067158 132.467784 
L 357.574939 127.051386 
L 358.082719 124.029367 
L 358.5905 122.860455 
L 359.09828 123.299549 
L 359.606061 125.427709 
L 360.113841 129.625912 
L 360.621622 136.42246 
L 361.637183 152.971175 
L 362.144963 152.424346 
L 363.668305 127.632749 
L 364.176085 122.605191 
L 365.191646 116.158833 
L 367.222768 106.446642 
L 367.730549 104.564662 
L 368.238329 103.525903 
L 368.74611 103.61513 
L 369.25389 104.805186 
L 370.269451 109.062529 
L 371.792793 116.373091 
L 372.300573 119.182016 
L 372.808354 122.626218 
L 373.316134 127.029024 
L 374.839476 143.204953 
L 375.347256 143.271494 
L 375.855037 138.542837 
L 377.378378 119.014637 
L 378.90172 102.728495 
L 379.4095 98.598777 
L 379.917281 97.068724 
L 380.425061 98.849272 
L 380.932842 103.019428 
L 382.963964 124.351748 
L 383.979525 134.558905 
L 384.487305 136.255028 
L 384.995086 133.970872 
L 386.010647 122.385988 
L 388.041769 97.562834 
L 388.54955 94.10948 
L 389.05733 94.363402 
L 389.565111 98.123757 
L 391.088452 115.914413 
L 392.104013 127.514704 
L 392.611794 131.064913 
L 393.119574 130.99752 
L 393.627355 127.238729 
L 394.642916 114.785531 
L 396.166257 95.488551 
L 396.674038 91.201559 
L 397.181818 90.414198 
L 397.689599 93.377774 
L 398.70516 104.574899 
L 400.228501 122.349428 
L 400.736282 126.744508 
L 401.244062 128.091461 
L 401.751843 125.63284 
L 402.767404 114.32579 
L 404.798526 89.33132 
L 405.306306 85.58053 
L 405.814087 85.689909 
L 406.321867 89.422802 
L 408.86077 115.792747 
L 409.36855 120.506009 
L 409.876331 123.860717 
L 410.384111 124.535772 
L 410.891892 122.167414 
L 411.907453 112.695711 
L 413.430794 96.224729 
L 414.446355 82.276244 
L 414.954136 77.422685 
L 415.461916 77.90208 
L 415.969697 83.119444 
L 416.985258 95.256432 
L 417.493038 99.489161 
L 418.000819 102.609061 
L 419.01638 106.885571 
L 421.047502 113.37582 
L 422.063063 116.136694 
L 422.570844 116.941572 
L 423.078624 117.126958 
L 423.586405 116.639383 
L 424.094185 115.579891 
L 425.109746 112.571603 
L 427.140868 105.701147 
L 427.648649 103.341158 
L 428.156429 100.127262 
L 428.66421 95.447822 
L 429.17199 88.480839 
L 430.187551 69.395969 
L 430.695332 67.487341 
L 431.203112 75.189945 
L 431.710893 85.181694 
L 432.218673 92.798716 
L 432.726454 97.689062 
L 433.234234 100.571265 
L 433.742015 102.010133 
L 434.249795 102.318101 
L 434.757576 101.54222 
L 435.265356 99.534275 
L 435.773137 95.877566 
L 436.280917 89.895578 
L 437.296478 71.123705 
L 437.804259 66.96364 
L 438.312039 72.999032 
L 439.3276 91.865815 
L 439.835381 97.803435 
L 440.343161 101.835366 
L 441.358722 107.042321 
L 443.389844 114.933042 
L 443.897625 116.55665 
L 444.405405 117.621582 
L 444.913186 117.874323 
L 445.420966 117.260624 
L 445.928747 115.940225 
L 447.452088 110.33752 
L 448.467649 106.293957 
L 448.97543 103.898166 
L 449.48321 100.888797 
L 449.990991 96.869973 
L 450.498771 91.44719 
L 451.514333 78.129346 
L 452.022113 75.666472 
L 452.529894 79.456959 
L 454.053235 100.798057 
L 455.576577 117.351797 
L 456.084357 122.086364 
L 456.592138 124.754055 
L 457.099918 124.153665 
L 457.607699 120.611472 
L 459.13104 104.950257 
L 460.654382 87.486853 
L 461.162162 83.792527 
L 461.669943 84.393994 
L 462.177723 89.152042 
L 464.716626 122.571709 
L 465.224406 127.24304 
L 465.732187 128.287887 
L 466.239967 125.184667 
L 467.255528 113.116253 
L 468.77887 93.955574 
L 469.28665 89.563148 
L 469.794431 88.969241 
L 470.302211 92.603281 
L 471.317772 105.80491 
L 472.841114 126.412773 
L 473.348894 130.773318 
L 473.856675 131.115256 
L 474.364455 127.36721 
L 475.887797 108.126045 
L 476.903358 95.751416 
L 477.411138 92.475626 
L 477.918919 93.416313 
L 478.426699 98.141446 
L 480.965602 131.794617 
L 481.473382 135.376648 
L 481.981163 134.687623 
L 482.488943 130.351293 
L 485.027846 100.539494 
L 485.535627 96.483061 
L 486.043407 95.781268 
L 486.551188 98.862179 
L 487.566749 110.440474 
L 489.09009 129.919833 
L 489.597871 136.684975 
L 490.105651 141.312907 
L 490.613432 141.297822 
L 491.121212 136.859018 
L 492.136773 124.844017 
L 493.152334 115.280814 
L 494.675676 102.779172 
L 495.183456 100.15554 
L 495.691237 99.819137 
L 496.199017 101.9673 
L 497.214578 110.068856 
L 498.230139 119.035472 
L 498.73792 124.267883 
L 499.2457 130.87463 
L 500.261261 147.329951 
L 500.769042 150.630792 
L 501.276822 146.256681 
L 502.292383 131.022933 
L 502.800164 125.940297 
L 503.307944 122.713421 
L 503.815725 120.883369 
L 504.323505 120.159061 
L 504.831286 120.413686 
L 505.339066 121.71283 
L 505.846847 124.296983 
L 506.354627 128.669354 
L 506.862408 135.43889 
L 507.877969 152.747975 
L 508.385749 153.379313 
L 509.909091 130.313977 
L 510.416871 126.448162 
L 510.924652 124.888849 
L 511.432432 125.363866 
L 511.940213 127.969993 
L 512.447993 133.139077 
L 513.463554 150.592441 
L 513.971335 155.125219 
L 514.479115 150.175211 
L 515.494676 132.775351 
L 516.002457 127.717977 
L 516.510238 125.185447 
L 517.018018 124.738039 
L 517.525799 126.301935 
L 518.033579 130.118367 
L 518.54136 136.675453 
L 519.556921 153.165673 
L 520.064701 152.782625 
L 521.588043 128.646032 
L 522.095823 124.136342 
L 522.603604 121.356736 
L 523.111384 119.798141 
L 523.619165 119.159247 
L 524.126945 119.32329 
L 524.634726 120.310189 
L 525.142506 122.273378 
L 525.650287 125.524545 
L 526.158067 130.517137 
L 527.173628 145.382771 
L 527.681409 149.92555 
L 528.189189 147.180598 
L 529.712531 124.297575 
L 530.728092 113.976286 
L 532.251433 100.851609 
L 532.759214 99.064724 
L 533.266994 100.069289 
L 533.774775 103.393898 
L 535.298116 117.113839 
L 536.313677 127.774484 
L 537.329238 139.593745 
L 537.837019 141.655692 
L 538.344799 138.674444 
L 539.868141 118.657403 
L 541.391482 99.916406 
L 541.899263 95.881068 
L 542.407043 95.509416 
L 542.914824 98.971903 
L 544.438165 116.936952 
L 545.453726 129.374838 
L 545.961507 134.078401 
L 546.469287 135.262033 
L 546.977068 132.124881 
L 547.992629 119.156425 
L 549.515971 98.43754 
L 550.023751 93.459771 
L 550.531532 92.181457 
L 551.039312 95.17485 
L 552.054873 107.398409 
L 553.578215 126.741615 
L 554.085995 130.756703 
L 554.593776 130.790942 
L 555.101556 126.692776 
L 556.624898 106.188614 
L 557.640459 92.842979 
L 558.148239 88.931865 
L 558.65602 89.191337 
L 559.1638 93.33105 
L 561.702703 124.347036 
L 562.210483 127.870948 
L 562.718264 127.423954 
L 563.226044 123.156485 
L 564.749386 103.613482 
L 565.764947 89.933636 
L 566.272727 84.633591 
L 566.780508 83.182974 
L 567.288288 86.278262 
L 570.334971 119.46233 
L 570.842752 123.415853 
L 571.350532 124.754902 
L 571.858313 122.787794 
L 572.873874 113.158909 
L 574.397215 95.968898 
L 575.412776 80.848746 
L 575.920557 75.608127 
L 576.428337 76.500142 
L 578.459459 99.912793 
L 578.96724 103.110631 
L 579.982801 107.665003 
L 582.013923 115.05145 
L 582.521704 116.541305 
L 583.029484 117.483966 
L 583.537265 117.655218 
L 584.045045 117.009663 
L 584.552826 115.695697 
L 586.076167 110.238179 
L 587.091728 106.274358 
L 587.599509 103.842731 
L 588.107289 100.645142 
L 588.61507 96.075017 
L 589.12285 89.276722 
L 590.138411 69.866867 
L 590.646192 66.96 
L 591.153972 74.006901 
L 592.169533 92.323467 
L 592.677314 97.628636 
L 593.185094 100.903509 
L 593.692875 102.81467 
L 594.200655 103.739525 
L 594.708436 103.866796 
L 595.216216 103.211141 
L 595.723997 101.655821 
L 596.231777 98.891006 
L 596.739558 94.383942 
L 597.247338 87.317204 
L 598.262899 68.780275 
L 598.77068 68.280677 
L 600.294021 94.783538 
L 600.801802 100.277741 
L 601.817363 107.791919 
L 603.340704 117.238346 
L 603.848485 119.499335 
L 604.356265 120.349114 
L 604.864046 119.473461 
L 605.371826 117.201733 
L 606.895168 107.853617 
L 607.910729 100.562293 
L 608.418509 95.533174 
L 609.941851 74.981852 
L 610.449631 75.018282 
L 610.957412 81.491618 
L 611.972973 97.595178 
L 613.496314 116.146919 
L 614.004095 121.629206 
L 614.511876 125.111168 
L 615.019656 124.950388 
L 615.527437 121.299281 
L 617.050778 104.062683 
L 618.57412 84.682806 
L 619.0819 81.36535 
L 619.589681 83.432233 
L 620.605242 97.381269 
L 622.128583 119.507485 
L 622.636364 125.782214 
L 622.636364 125.782214 
" clip-path="url(#pd266673432)" style="fill: none; stroke: #2ca02c; stroke-width: 1.5; stroke-linecap: square"/>
   </g>
   <g id="patch_3">
    <path d="M 90 384.48 
L 90 51.84 
" style="fill: none; stroke: #000000; stroke-width: 0.8; stroke-linejoin: miter; stroke-linecap: square"/>
   </g>
   <g id="patch_4">
    <path d="M 648 384.48 
L 648 51.84 
" style="fill: none; stroke: #000000; stroke-width: 0.8; stroke-linejoin: miter; stroke-linecap: square"/>
   </g>
   <g id="patch_5">
    <path d="M 90 384.48 
L 648 384.48 
" style="fill: none; stroke: #000000; stroke-width: 0.8; stroke-linejoin: miter; stroke-linecap: square"/>
   </g>
   <g id="patch_6">
    <path d="M 90 51.84 
L 648 51.84 
" style="fill: none; stroke: #000000; stroke-width: 0.8; stroke-linejoin: miter; stroke-linecap: square"/>
   </g>
   <g id="text_18">
    <!-- Simulation: A=10.0, $\omega$=10.0, l=1.0, $\theta_0$=3.266592653589793 -->
    <g transform="translate(185.76 45.84) scale(0.12 -0.12)">
     <defs>
      <path id="DejaVuSans-53" d="M 3425 4513 
L 3425 3897 
Q 3066 4069 2747 4153 
Q 2428 4238 2131 4238 
Q 1616 4238 1336 4038 
Q 1056 3838 1056 3469 
Q 1056 3159 1242 3001 
Q 1428 2844 1947 2747 
L 2328 2669 
Q 3034 2534 3370 2195 
Q 3706 1856 3706 1288 
Q 3706 609 3251 259 
Q 2797 -91 1919 -91 
Q 1588 -91 1214 -16 
Q 841 59 441 206 
L 441 856 
Q 825 641 1194 531 
Q 1563 422 1919 422 
Q 2459 422 2753 634 
Q 3047 847 3047 1241 
Q 3047 1584 2836 1778 
Q 2625 1972 2144 2069 
L 1759 2144 
Q 1053 2284 737 2584 
Q 422 2884 422 3419 
Q 422 4038 858 4394 
Q 1294 4750 2059 4750 
Q 2388 4750 2728 4690 
Q 3069 4631 3425 4513 
z
" transform="scale(0.015625)"/>
      <path id="DejaVuSans-75" d="M 544 1381 
L 544 3500 
L 1119 3500 
L 1119 1403 
Q 1119 906 1312 657 
Q 1506 409 1894 409 
Q 2359 409 2629 706 
Q 2900 1003 2900 1516 
L 2900 3500 
L 3475 3500 
L 3475 0 
L 2900 0 
L 2900 538 
Q 2691 219 2414 64 
Q 2138 -91 1772 -91 
Q 1169 -91 856 284 
Q 544 659 544 1381 
z
M 1991 3584 
L 1991 3584 
z
" transform="scale(0.015625)"/>
      <path id="DejaVuSans-6c" d="M 603 4863 
L 1178 4863 
L 1178 0 
L 603 0 
L 603 4863 
z
" transform="scale(0.015625)"/>
      <path id="DejaVuSans-61" d="M 2194 1759 
Q 1497 1759 1228 1600 
Q 959 1441 959 1056 
Q 959 750 1161 570 
Q 1363 391 1709 391 
Q 2188 391 2477 730 
Q 2766 1069 2766 1631 
L 2766 1759 
L 2194 1759 
z
M 3341 1997 
L 3341 0 
L 2766 0 
L 2766 531 
Q 2569 213 2275 61 
Q 1981 -91 1556 -91 
Q 1019 -91 701 211 
Q 384 513 384 1019 
Q 384 1609 779 1909 
Q 1175 2209 1959 2209 
L 2766 2209 
L 2766 2266 
Q 2766 2663 2505 2880 
Q 2244 3097 1772 3097 
Q 1472 3097 1187 3025 
Q 903 2953 641 2809 
L 641 3341 
Q 956 3463 1253 3523 
Q 1550 3584 1831 3584 
Q 2591 3584 2966 3190 
Q 3341 2797 3341 1997 
z
" transform="scale(0.015625)"/>
      <path id="DejaVuSans-6f" d="M 1959 3097 
Q 1497 3097 1228 2736 
Q 959 2375 959 1747 
Q 959 1119 1226 758 
Q 1494 397 1959 397 
Q 2419 397 2687 759 
Q 2956 1122 2956 1747 
Q 2956 2369 2687 2733 
Q 2419 3097 1959 3097 
z
M 1959 3584 
Q 2709 3584 3137 3096 
Q 3566 2609 3566 1747 
Q 3566 888 3137 398 
Q 2709 -91 1959 -91 
Q 1206 -91 779 398 
Q 353 888 353 1747 
Q 353 2609 779 3096 
Q 1206 3584 1959 3584 
z
" transform="scale(0.015625)"/>
      <path id="DejaVuSans-6e" d="M 3513 2113 
L 3513 0 
L 2938 0 
L 2938 2094 
Q 2938 2591 2744 2837 
Q 2550 3084 2163 3084 
Q 1697 3084 1428 2787 
Q 1159 2491 1159 1978 
L 1159 0 
L 581 0 
L 581 3500 
L 1159 3500 
L 1159 2956 
Q 1366 3272 1645 3428 
Q 1925 3584 2291 3584 
Q 2894 3584 3203 3211 
Q 3513 2838 3513 2113 
z
" transform="scale(0.015625)"/>
      <path id="DejaVuSans-3a" d="M 750 794 
L 1409 794 
L 1409 0 
L 750 0 
L 750 794 
z
M 750 3309 
L 1409 3309 
L 1409 2516 
L 750 2516 
L 750 3309 
z
" transform="scale(0.015625)"/>
      <path id="DejaVuSans-41" d="M 2188 4044 
L 1331 1722 
L 3047 1722 
L 2188 4044 
z
M 1831 4666 
L 2547 4666 
L 4325 0 
L 3669 0 
L 3244 1197 
L 1141 1197 
L 716 0 
L 50 0 
L 1831 4666 
z
" transform="scale(0.015625)"/>
      <path id="DejaVuSans-3d" d="M 678 2906 
L 4684 2906 
L 4684 2381 
L 678 2381 
L 678 2906 
z
M 678 1631 
L 4684 1631 
L 4684 1100 
L 678 1100 
L 678 1631 
z
" transform="scale(0.015625)"/>
      <path id="DejaVuSans-2c" d="M 750 794 
L 1409 794 
L 1409 256 
L 897 -744 
L 494 -744 
L 750 256 
L 750 794 
z
" transform="scale(0.015625)"/>
      <path id="DejaVuSans-Oblique-3c9" d="M 1369 -91 
Q 72 -91 434 1766 
Q 575 2500 1256 3500 
L 1875 3500 
Q 1231 2500 1088 1750 
Q 819 397 1519 397 
Q 2166 397 2478 2078 
L 3009 2078 
Q 2669 388 3316 397 
Q 4013 403 4275 1750 
Q 4419 2500 4169 3500 
L 4788 3500 
Q 5075 2500 4934 1766 
Q 4578 -94 3278 -91 
Q 2428 -88 2503 844 
Q 2194 -91 1369 -91 
z
" transform="scale(0.015625)"/>
      <path id="DejaVuSans-33" d="M 2597 2516 
Q 3050 2419 3304 2112 
Q 3559 1806 3559 1356 
Q 3559 666 3084 287 
Q 2609 -91 1734 -91 
Q 1441 -91 1130 -33 
Q 819 25 488 141 
L 488 750 
Q 750 597 1062 519 
Q 1375 441 1716 441 
Q 2309 441 2620 675 
Q 2931 909 2931 1356 
Q 2931 1769 2642 2001 
Q 2353 2234 1838 2234 
L 1294 2234 
L 1294 2753 
L 1863 2753 
Q 2328 2753 2575 2939 
Q 2822 3125 2822 3475 
Q 2822 3834 2567 4026 
Q 2313 4219 1838 4219 
Q 1578 4219 1281 4162 
Q 984 4106 628 3988 
L 628 4550 
Q 988 4650 1302 4700 
Q 1616 4750 1894 4750 
Q 2613 4750 3031 4423 
Q 3450 4097 3450 3541 
Q 3450 3153 3228 2886 
Q 3006 2619 2597 2516 
z
" transform="scale(0.015625)"/>
      <path id="DejaVuSans-36" d="M 2113 2584 
Q 1688 2584 1439 2293 
Q 1191 2003 1191 1497 
Q 1191 994 1439 701 
Q 1688 409 2113 409 
Q 2538 409 2786 701 
Q 3034 994 3034 1497 
Q 3034 2003 2786 2293 
Q 2538 2584 2113 2584 
z
M 3366 4563 
L 3366 3988 
Q 3128 4100 2886 4159 
Q 2644 4219 2406 4219 
Q 1781 4219 1451 3797 
Q 1122 3375 1075 2522 
Q 1259 2794 1537 2939 
Q 1816 3084 2150 3084 
Q 2853 3084 3261 2657 
Q 3669 2231 3669 1497 
Q 3669 778 3244 343 
Q 2819 -91 2113 -91 
Q 1303 -91 875 529 
Q 447 1150 447 2328 
Q 447 3434 972 4092 
Q 1497 4750 2381 4750 
Q 2619 4750 2861 4703 
Q 3103 4656 3366 4563 
z
" transform="scale(0.015625)"/>
      <path id="DejaVuSans-39" d="M 703 97 
L 703 672 
Q 941 559 1184 500 
Q 1428 441 1663 441 
Q 2288 441 2617 861 
Q 2947 1281 2994 2138 
Q 2813 1869 2534 1725 
Q 2256 1581 1919 1581 
Q 1219 1581 811 2004 
Q 403 2428 403 3163 
Q 403 3881 828 4315 
Q 1253 4750 1959 4750 
Q 2769 4750 3195 4129 
Q 3622 3509 3622 2328 
Q 3622 1225 3098 567 
Q 2575 -91 1691 -91 
Q 1453 -91 1209 -44 
Q 966 3 703 97 
z
M 1959 2075 
Q 2384 2075 2632 2365 
Q 2881 2656 2881 3163 
Q 2881 3666 2632 3958 
Q 2384 4250 1959 4250 
Q 1534 4250 1286 3958 
Q 1038 3666 1038 3163 
Q 1038 2656 1286 2365 
Q 1534 2075 1959 2075 
z
" transform="scale(0.015625)"/>
      <path id="DejaVuSans-38" d="M 2034 2216 
Q 1584 2216 1326 1975 
Q 1069 1734 1069 1313 
Q 1069 891 1326 650 
Q 1584 409 2034 409 
Q 2484 409 2743 651 
Q 3003 894 3003 1313 
Q 3003 1734 2745 1975 
Q 2488 2216 2034 2216 
z
M 1403 2484 
Q 997 2584 770 2862 
Q 544 3141 544 3541 
Q 544 4100 942 4425 
Q 1341 4750 2034 4750 
Q 2731 4750 3128 4425 
Q 3525 4100 3525 3541 
Q 3525 3141 3298 2862 
Q 3072 2584 2669 2484 
Q 3125 2378 3379 2068 
Q 3634 1759 3634 1313 
Q 3634 634 3220 271 
Q 2806 -91 2034 -91 
Q 1263 -91 848 271 
Q 434 634 434 1313 
Q 434 1759 690 2068 
Q 947 2378 1403 2484 
z
M 1172 3481 
Q 1172 3119 1398 2916 
Q 1625 2713 2034 2713 
Q 2441 2713 2670 2916 
Q 2900 3119 2900 3481 
Q 2900 3844 2670 4047 
Q 2441 4250 2034 4250 
Q 1625 4250 1398 4047 
Q 1172 3844 1172 3481 
z
" transform="scale(0.015625)"/>
     </defs>
     <use xlink:href="#DejaVuSans-53" transform="translate(0 0.234375)"/>
     <use xlink:href="#DejaVuSans-69" transform="translate(63.476562 0.234375)"/>
     <use xlink:href="#DejaVuSans-6d" transform="translate(91.259766 0.234375)"/>
     <use xlink:href="#DejaVuSans-75" transform="translate(188.671875 0.234375)"/>
     <use xlink:href="#DejaVuSans-6c" transform="translate(252.050781 0.234375)"/>
     <use xlink:href="#DejaVuSans-61" transform="translate(279.833984 0.234375)"/>
     <use xlink:href="#DejaVuSans-74" transform="translate(341.113281 0.234375)"/>
     <use xlink:href="#DejaVuSans-69" transform="translate(380.322266 0.234375)"/>
     <use xlink:href="#DejaVuSans-6f" transform="translate(408.105469 0.234375)"/>
     <use xlink:href="#DejaVuSans-6e" transform="translate(469.287109 0.234375)"/>
     <use xlink:href="#DejaVuSans-3a" transform="translate(532.666016 0.234375)"/>
     <use xlink:href="#DejaVuSans-20" transform="translate(566.357422 0.234375)"/>
     <use xlink:href="#DejaVuSans-41" transform="translate(598.144531 0.234375)"/>
     <use xlink:href="#DejaVuSans-3d" transform="translate(666.552734 0.234375)"/>
     <use xlink:href="#DejaVuSans-31" transform="translate(750.341797 0.234375)"/>
     <use xlink:href="#DejaVuSans-30" transform="translate(813.964844 0.234375)"/>
     <use xlink:href="#DejaVuSans-2e" transform="translate(877.587891 0.234375)"/>
     <use xlink:href="#DejaVuSans-30" transform="translate(909.375 0.234375)"/>
     <use xlink:href="#DejaVuSans-2c" transform="translate(972.998047 0.234375)"/>
     <use xlink:href="#DejaVuSans-20" transform="translate(1004.785156 0.234375)"/>
     <use xlink:href="#DejaVuSans-Oblique-3c9" transform="translate(1036.572266 0.234375)"/>
     <use xlink:href="#DejaVuSans-3d" transform="translate(1120.3125 0.234375)"/>
     <use xlink:href="#DejaVuSans-31" transform="translate(1204.101562 0.234375)"/>
     <use xlink:href="#DejaVuSans-30" transform="translate(1267.724609 0.234375)"/>
     <use xlink:href="#DejaVuSans-2e" transform="translate(1331.347656 0.234375)"/>
     <use xlink:href="#DejaVuSans-30" transform="translate(1363.134766 0.234375)"/>
     <use xlink:href="#DejaVuSans-2c" transform="translate(1426.757812 0.234375)"/>
     <use xlink:href="#DejaVuSans-20" transform="translate(1458.544922 0.234375)"/>
     <use xlink:href="#DejaVuSans-6c" transform="translate(1490.332031 0.234375)"/>
     <use xlink:href="#DejaVuSans-3d" transform="translate(1518.115234 0.234375)"/>
     <use xlink:href="#DejaVuSans-31" transform="translate(1601.904297 0.234375)"/>
     <use xlink:href="#DejaVuSans-2e" transform="translate(1665.527344 0.234375)"/>
     <use xlink:href="#DejaVuSans-30" transform="translate(1697.314453 0.234375)"/>
     <use xlink:href="#DejaVuSans-2c" transform="translate(1760.9375 0.234375)"/>
     <use xlink:href="#DejaVuSans-20" transform="translate(1792.724609 0.234375)"/>
     <use xlink:href="#DejaVuSans-Oblique-3b8" transform="translate(1824.511719 0.234375)"/>
     <use xlink:href="#DejaVuSans-30" transform="translate(1885.693359 -16.171875) scale(0.7)"/>
     <use xlink:href="#DejaVuSans-3d" transform="translate(1932.963867 0.234375)"/>
     <use xlink:href="#DejaVuSans-33" transform="translate(2016.75293 0.234375)"/>
     <use xlink:href="#DejaVuSans-2e" transform="translate(2080.375977 0.234375)"/>
     <use xlink:href="#DejaVuSans-32" transform="translate(2106.663086 0.234375)"/>
     <use xlink:href="#DejaVuSans-36" transform="translate(2170.286133 0.234375)"/>
     <use xlink:href="#DejaVuSans-36" transform="translate(2233.90918 0.234375)"/>
     <use xlink:href="#DejaVuSans-35" transform="translate(2297.532227 0.234375)"/>
     <use xlink:href="#DejaVuSans-39" transform="translate(2355.655273 0.234375)"/>
     <use xlink:href="#DejaVuSans-32" transform="translate(2417.52832 0.234375)"/>
     <use xlink:href="#DejaVuSans-36" transform="translate(2481.151367 0.234375)"/>
     <use xlink:href="#DejaVuSans-35" transform="translate(2544.774414 0.234375)"/>
     <use xlink:href="#DejaVuSans-33" transform="translate(2608.397461 0.234375)"/>
     <use xlink:href="#DejaVuSans-35" transform="translate(2672.020508 0.234375)"/>
     <use xlink:href="#DejaVuSans-38" transform="translate(2735.643555 0.234375)"/>
     <use xlink:href="#DejaVuSans-39" transform="translate(2799.266602 0.234375)"/>
     <use xlink:href="#DejaVuSans-37" transform="translate(2862.889648 0.234375)"/>
     <use xlink:href="#DejaVuSans-39" transform="translate(2926.512695 0.234375)"/>
     <use xlink:href="#DejaVuSans-33" transform="translate(2990.135742 0.234375)"/>
    </g>
   </g>
   <g id="legend_1">
    <g id="patch_7">
     <path d="M 97 103.874375 
L 197.403125 103.874375 
Q 199.403125 103.874375 199.403125 101.874375 
L 199.403125 58.84 
Q 199.403125 56.84 197.403125 56.84 
L 97 56.84 
Q 95 56.84 95 58.84 
L 95 101.874375 
Q 95 103.874375 97 103.874375 
z
" style="fill: #ffffff; opacity: 0.8; stroke: #cccccc; stroke-linejoin: miter"/>
    </g>
    <g id="line2d_34">
     <path d="M 99 64.938437 
L 109 64.938437 
L 119 64.938437 
" style="fill: none; stroke: #1f77b4; stroke-width: 1.5; stroke-linecap: square"/>
    </g>
    <g id="text_19">
     <!-- Original -->
     <g transform="translate(127 68.438437) scale(0.1 -0.1)">
      <defs>
       <path id="DejaVuSans-4f" d="M 2522 4238 
Q 1834 4238 1429 3725 
Q 1025 3213 1025 2328 
Q 1025 1447 1429 934 
Q 1834 422 2522 422 
Q 3209 422 3611 934 
Q 4013 1447 4013 2328 
Q 4013 3213 3611 3725 
Q 3209 4238 2522 4238 
z
M 2522 4750 
Q 3503 4750 4090 4092 
Q 4678 3434 4678 2328 
Q 4678 1225 4090 567 
Q 3503 -91 2522 -91 
Q 1538 -91 948 565 
Q 359 1222 359 2328 
Q 359 3434 948 4092 
Q 1538 4750 2522 4750 
z
" transform="scale(0.015625)"/>
       <path id="DejaVuSans-72" d="M 2631 2963 
Q 2534 3019 2420 3045 
Q 2306 3072 2169 3072 
Q 1681 3072 1420 2755 
Q 1159 2438 1159 1844 
L 1159 0 
L 581 0 
L 581 3500 
L 1159 3500 
L 1159 2956 
Q 1341 3275 1631 3429 
Q 1922 3584 2338 3584 
Q 2397 3584 2469 3576 
Q 2541 3569 2628 3553 
L 2631 2963 
z
" transform="scale(0.015625)"/>
       <path id="DejaVuSans-67" d="M 2906 1791 
Q 2906 2416 2648 2759 
Q 2391 3103 1925 3103 
Q 1463 3103 1205 2759 
Q 947 2416 947 1791 
Q 947 1169 1205 825 
Q 1463 481 1925 481 
Q 2391 481 2648 825 
Q 2906 1169 2906 1791 
z
M 3481 434 
Q 3481 -459 3084 -895 
Q 2688 -1331 1869 -1331 
Q 1566 -1331 1297 -1286 
Q 1028 -1241 775 -1147 
L 775 -588 
Q 1028 -725 1275 -790 
Q 1522 -856 1778 -856 
Q 2344 -856 2625 -561 
Q 2906 -266 2906 331 
L 2906 616 
Q 2728 306 2450 153 
Q 2172 0 1784 0 
Q 1141 0 747 490 
Q 353 981 353 1791 
Q 353 2603 747 3093 
Q 1141 3584 1784 3584 
Q 2172 3584 2450 3431 
Q 2728 3278 2906 2969 
L 2906 3500 
L 3481 3500 
L 3481 434 
z
" transform="scale(0.015625)"/>
      </defs>
      <use xlink:href="#DejaVuSans-4f"/>
      <use xlink:href="#DejaVuSans-72" x="78.710938"/>
      <use xlink:href="#DejaVuSans-69" x="119.824219"/>
      <use xlink:href="#DejaVuSans-67" x="147.607422"/>
      <use xlink:href="#DejaVuSans-69" x="211.083984"/>
      <use xlink:href="#DejaVuSans-6e" x="238.867188"/>
      <use xlink:href="#DejaVuSans-61" x="302.246094"/>
      <use xlink:href="#DejaVuSans-6c" x="363.525391"/>
     </g>
    </g>
    <g id="line2d_35">
     <path d="M 99 79.616562 
L 109 79.616562 
L 119 79.616562 
" style="fill: none; stroke: #ff7f0e; stroke-width: 1.5; stroke-linecap: square"/>
    </g>
    <g id="text_20">
     <!-- First-Order -->
     <g transform="translate(127 83.116562) scale(0.1 -0.1)">
      <defs>
       <path id="DejaVuSans-46" d="M 628 4666 
L 3309 4666 
L 3309 4134 
L 1259 4134 
L 1259 2759 
L 3109 2759 
L 3109 2228 
L 1259 2228 
L 1259 0 
L 628 0 
L 628 4666 
z
" transform="scale(0.015625)"/>
       <path id="DejaVuSans-73" d="M 2834 3397 
L 2834 2853 
Q 2591 2978 2328 3040 
Q 2066 3103 1784 3103 
Q 1356 3103 1142 2972 
Q 928 2841 928 2578 
Q 928 2378 1081 2264 
Q 1234 2150 1697 2047 
L 1894 2003 
Q 2506 1872 2764 1633 
Q 3022 1394 3022 966 
Q 3022 478 2636 193 
Q 2250 -91 1575 -91 
Q 1294 -91 989 -36 
Q 684 19 347 128 
L 347 722 
Q 666 556 975 473 
Q 1284 391 1588 391 
Q 1994 391 2212 530 
Q 2431 669 2431 922 
Q 2431 1156 2273 1281 
Q 2116 1406 1581 1522 
L 1381 1569 
Q 847 1681 609 1914 
Q 372 2147 372 2553 
Q 372 3047 722 3315 
Q 1072 3584 1716 3584 
Q 2034 3584 2315 3537 
Q 2597 3491 2834 3397 
z
" transform="scale(0.015625)"/>
       <path id="DejaVuSans-2d" d="M 313 2009 
L 1997 2009 
L 1997 1497 
L 313 1497 
L 313 2009 
z
" transform="scale(0.015625)"/>
       <path id="DejaVuSans-64" d="M 2906 2969 
L 2906 4863 
L 3481 4863 
L 3481 0 
L 2906 0 
L 2906 525 
Q 2725 213 2448 61 
Q 2172 -91 1784 -91 
Q 1150 -91 751 415 
Q 353 922 353 1747 
Q 353 2572 751 3078 
Q 1150 3584 1784 3584 
Q 2172 3584 2448 3432 
Q 2725 3281 2906 2969 
z
M 947 1747 
Q 947 1113 1208 752 
Q 1469 391 1925 391 
Q 2381 391 2643 752 
Q 2906 1113 2906 1747 
Q 2906 2381 2643 2742 
Q 2381 3103 1925 3103 
Q 1469 3103 1208 2742 
Q 947 2381 947 1747 
z
" transform="scale(0.015625)"/>
      </defs>
      <use xlink:href="#DejaVuSans-46"/>
      <use xlink:href="#DejaVuSans-69" x="50.269531"/>
      <use xlink:href="#DejaVuSans-72" x="78.052734"/>
      <use xlink:href="#DejaVuSans-73" x="119.166016"/>
      <use xlink:href="#DejaVuSans-74" x="171.265625"/>
      <use xlink:href="#DejaVuSans-2d" x="210.474609"/>
      <use xlink:href="#DejaVuSans-4f" x="249.308594"/>
      <use xlink:href="#DejaVuSans-72" x="328.019531"/>
      <use xlink:href="#DejaVuSans-64" x="367.382812"/>
      <use xlink:href="#DejaVuSans-65" x="430.859375"/>
      <use xlink:href="#DejaVuSans-72" x="492.382812"/>
     </g>
    </g>
    <g id="line2d_36">
     <path d="M 99 94.294687 
L 109 94.294687 
L 119 94.294687 
" style="fill: none; stroke: #2ca02c; stroke-width: 1.5; stroke-linecap: square"/>
    </g>
    <g id="text_21">
     <!-- Second Order -->
     <g transform="translate(127 97.794687) scale(0.1 -0.1)">
      <defs>
       <path id="DejaVuSans-63" d="M 3122 3366 
L 3122 2828 
Q 2878 2963 2633 3030 
Q 2388 3097 2138 3097 
Q 1578 3097 1268 2742 
Q 959 2388 959 1747 
Q 959 1106 1268 751 
Q 1578 397 2138 397 
Q 2388 397 2633 464 
Q 2878 531 3122 666 
L 3122 134 
Q 2881 22 2623 -34 
Q 2366 -91 2075 -91 
Q 1284 -91 818 406 
Q 353 903 353 1747 
Q 353 2603 823 3093 
Q 1294 3584 2113 3584 
Q 2378 3584 2631 3529 
Q 2884 3475 3122 3366 
z
" transform="scale(0.015625)"/>
      </defs>
      <use xlink:href="#DejaVuSans-53"/>
      <use xlink:href="#DejaVuSans-65" x="63.476562"/>
      <use xlink:href="#DejaVuSans-63" x="125"/>
      <use xlink:href="#DejaVuSans-6f" x="179.980469"/>
      <use xlink:href="#DejaVuSans-6e" x="241.162109"/>
      <use xlink:href="#DejaVuSans-64" x="304.541016"/>
      <use xlink:href="#DejaVuSans-20" x="368.017578"/>
      <use xlink:href="#DejaVuSans-4f" x="399.804688"/>
      <use xlink:href="#DejaVuSans-72" x="478.515625"/>
      <use xlink:href="#DejaVuSans-64" x="517.878906"/>
      <use xlink:href="#DejaVuSans-65" x="581.355469"/>
      <use xlink:href="#DejaVuSans-72" x="642.878906"/>
     </g>
    </g>
   </g>
  </g>
 </g>
 <defs>
  <clipPath id="pd266673432">
   <rect x="90" y="51.84" width="558" height="332.64"/>
  </clipPath>
 </defs>
</svg>
