<?xml version="1.0" encoding="utf-8" standalone="no"?>
<!DOCTYPE svg PUBLIC "-//W3C//DTD SVG 1.1//EN"
  "http://www.w3.org/Graphics/SVG/1.1/DTD/svg11.dtd">
<svg xmlns:xlink="http://www.w3.org/1999/xlink" width="720pt" height="432pt" viewBox="0 0 720 432" xmlns="http://www.w3.org/2000/svg" version="1.1">
 <metadata>
  <rdf:RDF xmlns:dc="http://purl.org/dc/elements/1.1/" xmlns:cc="http://creativecommons.org/ns#" xmlns:rdf="http://www.w3.org/1999/02/22-rdf-syntax-ns#">
   <cc:Work>
    <dc:type rdf:resource="http://purl.org/dc/dcmitype/StillImage"/>
    <dc:date>2024-12-31T23:33:51.283992</dc:date>
    <dc:format>image/svg+xml</dc:format>
    <dc:creator>
     <cc:Agent>
      <dc:title>Matplotlib v3.7.2, https://matplotlib.org/</dc:title>
     </cc:Agent>
    </dc:creator>
   </cc:Work>
  </rdf:RDF>
 </metadata>
 <defs>
  <style type="text/css">*{stroke-linejoin: round; stroke-linecap: butt}</style>
 </defs>
 <g id="figure_1">
  <g id="patch_1">
   <path d="M 0 432 
L 720 432 
L 720 0 
L 0 0 
z
" style="fill: #ffffff"/>
  </g>
  <g id="axes_1">
   <g id="patch_2">
    <path d="M 90 384.48 
L 648 384.48 
L 648 51.84 
L 90 51.84 
z
" style="fill: #ffffff"/>
   </g>
   <g id="matplotlib.axis_1">
    <g id="xtick_1">
     <g id="line2d_1">
      <path d="M 115.363636 384.48 
L 115.363636 51.84 
" clip-path="url(#pfabb21595a)" style="fill: none; stroke: #b0b0b0; stroke-width: 0.8; stroke-linecap: square"/>
     </g>
     <g id="line2d_2">
      <defs>
       <path id="m3dcade3bdd" d="M 0 0 
L 0 3.5 
" style="stroke: #000000; stroke-width: 0.8"/>
      </defs>
      <g>
       <use xlink:href="#m3dcade3bdd" x="115.363636" y="384.48" style="stroke: #000000; stroke-width: 0.8"/>
      </g>
     </g>
     <g id="text_1">
      <!-- 0.00 -->
      <g transform="translate(104.230824 399.078438) scale(0.1 -0.1)">
       <defs>
        <path id="DejaVuSans-30" d="M 2034 4250 
Q 1547 4250 1301 3770 
Q 1056 3291 1056 2328 
Q 1056 1369 1301 889 
Q 1547 409 2034 409 
Q 2525 409 2770 889 
Q 3016 1369 3016 2328 
Q 3016 3291 2770 3770 
Q 2525 4250 2034 4250 
z
M 2034 4750 
Q 2819 4750 3233 4129 
Q 3647 3509 3647 2328 
Q 3647 1150 3233 529 
Q 2819 -91 2034 -91 
Q 1250 -91 836 529 
Q 422 1150 422 2328 
Q 422 3509 836 4129 
Q 1250 4750 2034 4750 
z
" transform="scale(0.015625)"/>
        <path id="DejaVuSans-2e" d="M 684 794 
L 1344 794 
L 1344 0 
L 684 0 
L 684 794 
z
" transform="scale(0.015625)"/>
       </defs>
       <use xlink:href="#DejaVuSans-30"/>
       <use xlink:href="#DejaVuSans-2e" x="63.623047"/>
       <use xlink:href="#DejaVuSans-30" x="95.410156"/>
       <use xlink:href="#DejaVuSans-30" x="159.033203"/>
      </g>
     </g>
    </g>
    <g id="xtick_2">
     <g id="line2d_3">
      <path d="M 178.772727 384.48 
L 178.772727 51.84 
" clip-path="url(#pfabb21595a)" style="fill: none; stroke: #b0b0b0; stroke-width: 0.8; stroke-linecap: square"/>
     </g>
     <g id="line2d_4">
      <g>
       <use xlink:href="#m3dcade3bdd" x="178.772727" y="384.48" style="stroke: #000000; stroke-width: 0.8"/>
      </g>
     </g>
     <g id="text_2">
      <!-- 0.25 -->
      <g transform="translate(167.639915 399.078438) scale(0.1 -0.1)">
       <defs>
        <path id="DejaVuSans-32" d="M 1228 531 
L 3431 531 
L 3431 0 
L 469 0 
L 469 531 
Q 828 903 1448 1529 
Q 2069 2156 2228 2338 
Q 2531 2678 2651 2914 
Q 2772 3150 2772 3378 
Q 2772 3750 2511 3984 
Q 2250 4219 1831 4219 
Q 1534 4219 1204 4116 
Q 875 4013 500 3803 
L 500 4441 
Q 881 4594 1212 4672 
Q 1544 4750 1819 4750 
Q 2544 4750 2975 4387 
Q 3406 4025 3406 3419 
Q 3406 3131 3298 2873 
Q 3191 2616 2906 2266 
Q 2828 2175 2409 1742 
Q 1991 1309 1228 531 
z
" transform="scale(0.015625)"/>
        <path id="DejaVuSans-35" d="M 691 4666 
L 3169 4666 
L 3169 4134 
L 1269 4134 
L 1269 2991 
Q 1406 3038 1543 3061 
Q 1681 3084 1819 3084 
Q 2600 3084 3056 2656 
Q 3513 2228 3513 1497 
Q 3513 744 3044 326 
Q 2575 -91 1722 -91 
Q 1428 -91 1123 -41 
Q 819 9 494 109 
L 494 744 
Q 775 591 1075 516 
Q 1375 441 1709 441 
Q 2250 441 2565 725 
Q 2881 1009 2881 1497 
Q 2881 1984 2565 2268 
Q 2250 2553 1709 2553 
Q 1456 2553 1204 2497 
Q 953 2441 691 2322 
L 691 4666 
z
" transform="scale(0.015625)"/>
       </defs>
       <use xlink:href="#DejaVuSans-30"/>
       <use xlink:href="#DejaVuSans-2e" x="63.623047"/>
       <use xlink:href="#DejaVuSans-32" x="95.410156"/>
       <use xlink:href="#DejaVuSans-35" x="159.033203"/>
      </g>
     </g>
    </g>
    <g id="xtick_3">
     <g id="line2d_5">
      <path d="M 242.181818 384.48 
L 242.181818 51.84 
" clip-path="url(#pfabb21595a)" style="fill: none; stroke: #b0b0b0; stroke-width: 0.8; stroke-linecap: square"/>
     </g>
     <g id="line2d_6">
      <g>
       <use xlink:href="#m3dcade3bdd" x="242.181818" y="384.48" style="stroke: #000000; stroke-width: 0.8"/>
      </g>
     </g>
     <g id="text_3">
      <!-- 0.50 -->
      <g transform="translate(231.049006 399.078438) scale(0.1 -0.1)">
       <use xlink:href="#DejaVuSans-30"/>
       <use xlink:href="#DejaVuSans-2e" x="63.623047"/>
       <use xlink:href="#DejaVuSans-35" x="95.410156"/>
       <use xlink:href="#DejaVuSans-30" x="159.033203"/>
      </g>
     </g>
    </g>
    <g id="xtick_4">
     <g id="line2d_7">
      <path d="M 305.590909 384.48 
L 305.590909 51.84 
" clip-path="url(#pfabb21595a)" style="fill: none; stroke: #b0b0b0; stroke-width: 0.8; stroke-linecap: square"/>
     </g>
     <g id="line2d_8">
      <g>
       <use xlink:href="#m3dcade3bdd" x="305.590909" y="384.48" style="stroke: #000000; stroke-width: 0.8"/>
      </g>
     </g>
     <g id="text_4">
      <!-- 0.75 -->
      <g transform="translate(294.458097 399.078438) scale(0.1 -0.1)">
       <defs>
        <path id="DejaVuSans-37" d="M 525 4666 
L 3525 4666 
L 3525 4397 
L 1831 0 
L 1172 0 
L 2766 4134 
L 525 4134 
L 525 4666 
z
" transform="scale(0.015625)"/>
       </defs>
       <use xlink:href="#DejaVuSans-30"/>
       <use xlink:href="#DejaVuSans-2e" x="63.623047"/>
       <use xlink:href="#DejaVuSans-37" x="95.410156"/>
       <use xlink:href="#DejaVuSans-35" x="159.033203"/>
      </g>
     </g>
    </g>
    <g id="xtick_5">
     <g id="line2d_9">
      <path d="M 369 384.48 
L 369 51.84 
" clip-path="url(#pfabb21595a)" style="fill: none; stroke: #b0b0b0; stroke-width: 0.8; stroke-linecap: square"/>
     </g>
     <g id="line2d_10">
      <g>
       <use xlink:href="#m3dcade3bdd" x="369" y="384.48" style="stroke: #000000; stroke-width: 0.8"/>
      </g>
     </g>
     <g id="text_5">
      <!-- 1.00 -->
      <g transform="translate(357.867188 399.078438) scale(0.1 -0.1)">
       <defs>
        <path id="DejaVuSans-31" d="M 794 531 
L 1825 531 
L 1825 4091 
L 703 3866 
L 703 4441 
L 1819 4666 
L 2450 4666 
L 2450 531 
L 3481 531 
L 3481 0 
L 794 0 
L 794 531 
z
" transform="scale(0.015625)"/>
       </defs>
       <use xlink:href="#DejaVuSans-31"/>
       <use xlink:href="#DejaVuSans-2e" x="63.623047"/>
       <use xlink:href="#DejaVuSans-30" x="95.410156"/>
       <use xlink:href="#DejaVuSans-30" x="159.033203"/>
      </g>
     </g>
    </g>
    <g id="xtick_6">
     <g id="line2d_11">
      <path d="M 432.409091 384.48 
L 432.409091 51.84 
" clip-path="url(#pfabb21595a)" style="fill: none; stroke: #b0b0b0; stroke-width: 0.8; stroke-linecap: square"/>
     </g>
     <g id="line2d_12">
      <g>
       <use xlink:href="#m3dcade3bdd" x="432.409091" y="384.48" style="stroke: #000000; stroke-width: 0.8"/>
      </g>
     </g>
     <g id="text_6">
      <!-- 1.25 -->
      <g transform="translate(421.276278 399.078438) scale(0.1 -0.1)">
       <use xlink:href="#DejaVuSans-31"/>
       <use xlink:href="#DejaVuSans-2e" x="63.623047"/>
       <use xlink:href="#DejaVuSans-32" x="95.410156"/>
       <use xlink:href="#DejaVuSans-35" x="159.033203"/>
      </g>
     </g>
    </g>
    <g id="xtick_7">
     <g id="line2d_13">
      <path d="M 495.818182 384.48 
L 495.818182 51.84 
" clip-path="url(#pfabb21595a)" style="fill: none; stroke: #b0b0b0; stroke-width: 0.8; stroke-linecap: square"/>
     </g>
     <g id="line2d_14">
      <g>
       <use xlink:href="#m3dcade3bdd" x="495.818182" y="384.48" style="stroke: #000000; stroke-width: 0.8"/>
      </g>
     </g>
     <g id="text_7">
      <!-- 1.50 -->
      <g transform="translate(484.685369 399.078438) scale(0.1 -0.1)">
       <use xlink:href="#DejaVuSans-31"/>
       <use xlink:href="#DejaVuSans-2e" x="63.623047"/>
       <use xlink:href="#DejaVuSans-35" x="95.410156"/>
       <use xlink:href="#DejaVuSans-30" x="159.033203"/>
      </g>
     </g>
    </g>
    <g id="xtick_8">
     <g id="line2d_15">
      <path d="M 559.227273 384.48 
L 559.227273 51.84 
" clip-path="url(#pfabb21595a)" style="fill: none; stroke: #b0b0b0; stroke-width: 0.8; stroke-linecap: square"/>
     </g>
     <g id="line2d_16">
      <g>
       <use xlink:href="#m3dcade3bdd" x="559.227273" y="384.48" style="stroke: #000000; stroke-width: 0.8"/>
      </g>
     </g>
     <g id="text_8">
      <!-- 1.75 -->
      <g transform="translate(548.09446 399.078438) scale(0.1 -0.1)">
       <use xlink:href="#DejaVuSans-31"/>
       <use xlink:href="#DejaVuSans-2e" x="63.623047"/>
       <use xlink:href="#DejaVuSans-37" x="95.410156"/>
       <use xlink:href="#DejaVuSans-35" x="159.033203"/>
      </g>
     </g>
    </g>
    <g id="xtick_9">
     <g id="line2d_17">
      <path d="M 622.636364 384.48 
L 622.636364 51.84 
" clip-path="url(#pfabb21595a)" style="fill: none; stroke: #b0b0b0; stroke-width: 0.8; stroke-linecap: square"/>
     </g>
     <g id="line2d_18">
      <g>
       <use xlink:href="#m3dcade3bdd" x="622.636364" y="384.48" style="stroke: #000000; stroke-width: 0.8"/>
      </g>
     </g>
     <g id="text_9">
      <!-- 2.00 -->
      <g transform="translate(611.503551 399.078438) scale(0.1 -0.1)">
       <use xlink:href="#DejaVuSans-32"/>
       <use xlink:href="#DejaVuSans-2e" x="63.623047"/>
       <use xlink:href="#DejaVuSans-30" x="95.410156"/>
       <use xlink:href="#DejaVuSans-30" x="159.033203"/>
      </g>
     </g>
    </g>
    <g id="text_10">
     <!-- Time (t) -->
     <g transform="translate(349.315625 412.756563) scale(0.1 -0.1)">
      <defs>
       <path id="DejaVuSans-54" d="M -19 4666 
L 3928 4666 
L 3928 4134 
L 2272 4134 
L 2272 0 
L 1638 0 
L 1638 4134 
L -19 4134 
L -19 4666 
z
" transform="scale(0.015625)"/>
       <path id="DejaVuSans-69" d="M 603 3500 
L 1178 3500 
L 1178 0 
L 603 0 
L 603 3500 
z
M 603 4863 
L 1178 4863 
L 1178 4134 
L 603 4134 
L 603 4863 
z
" transform="scale(0.015625)"/>
       <path id="DejaVuSans-6d" d="M 3328 2828 
Q 3544 3216 3844 3400 
Q 4144 3584 4550 3584 
Q 5097 3584 5394 3201 
Q 5691 2819 5691 2113 
L 5691 0 
L 5113 0 
L 5113 2094 
Q 5113 2597 4934 2840 
Q 4756 3084 4391 3084 
Q 3944 3084 3684 2787 
Q 3425 2491 3425 1978 
L 3425 0 
L 2847 0 
L 2847 2094 
Q 2847 2600 2669 2842 
Q 2491 3084 2119 3084 
Q 1678 3084 1418 2786 
Q 1159 2488 1159 1978 
L 1159 0 
L 581 0 
L 581 3500 
L 1159 3500 
L 1159 2956 
Q 1356 3278 1631 3431 
Q 1906 3584 2284 3584 
Q 2666 3584 2933 3390 
Q 3200 3197 3328 2828 
z
" transform="scale(0.015625)"/>
       <path id="DejaVuSans-65" d="M 3597 1894 
L 3597 1613 
L 953 1613 
Q 991 1019 1311 708 
Q 1631 397 2203 397 
Q 2534 397 2845 478 
Q 3156 559 3463 722 
L 3463 178 
Q 3153 47 2828 -22 
Q 2503 -91 2169 -91 
Q 1331 -91 842 396 
Q 353 884 353 1716 
Q 353 2575 817 3079 
Q 1281 3584 2069 3584 
Q 2775 3584 3186 3129 
Q 3597 2675 3597 1894 
z
M 3022 2063 
Q 3016 2534 2758 2815 
Q 2500 3097 2075 3097 
Q 1594 3097 1305 2825 
Q 1016 2553 972 2059 
L 3022 2063 
z
" transform="scale(0.015625)"/>
       <path id="DejaVuSans-20" transform="scale(0.015625)"/>
       <path id="DejaVuSans-28" d="M 1984 4856 
Q 1566 4138 1362 3434 
Q 1159 2731 1159 2009 
Q 1159 1288 1364 580 
Q 1569 -128 1984 -844 
L 1484 -844 
Q 1016 -109 783 600 
Q 550 1309 550 2009 
Q 550 2706 781 3412 
Q 1013 4119 1484 4856 
L 1984 4856 
z
" transform="scale(0.015625)"/>
       <path id="DejaVuSans-74" d="M 1172 4494 
L 1172 3500 
L 2356 3500 
L 2356 3053 
L 1172 3053 
L 1172 1153 
Q 1172 725 1289 603 
Q 1406 481 1766 481 
L 2356 481 
L 2356 0 
L 1766 0 
Q 1100 0 847 248 
Q 594 497 594 1153 
L 594 3053 
L 172 3053 
L 172 3500 
L 594 3500 
L 594 4494 
L 1172 4494 
z
" transform="scale(0.015625)"/>
       <path id="DejaVuSans-29" d="M 513 4856 
L 1013 4856 
Q 1481 4119 1714 3412 
Q 1947 2706 1947 2009 
Q 1947 1309 1714 600 
Q 1481 -109 1013 -844 
L 513 -844 
Q 928 -128 1133 580 
Q 1338 1288 1338 2009 
Q 1338 2731 1133 3434 
Q 928 4138 513 4856 
z
" transform="scale(0.015625)"/>
      </defs>
      <use xlink:href="#DejaVuSans-54"/>
      <use xlink:href="#DejaVuSans-69" x="57.958984"/>
      <use xlink:href="#DejaVuSans-6d" x="85.742188"/>
      <use xlink:href="#DejaVuSans-65" x="183.154297"/>
      <use xlink:href="#DejaVuSans-20" x="244.677734"/>
      <use xlink:href="#DejaVuSans-28" x="276.464844"/>
      <use xlink:href="#DejaVuSans-74" x="315.478516"/>
      <use xlink:href="#DejaVuSans-29" x="354.6875"/>
     </g>
    </g>
   </g>
   <g id="matplotlib.axis_2">
    <g id="ytick_1">
     <g id="line2d_19">
      <path d="M 90 349.479523 
L 648 349.479523 
" clip-path="url(#pfabb21595a)" style="fill: none; stroke: #b0b0b0; stroke-width: 0.8; stroke-linecap: square"/>
     </g>
     <g id="line2d_20">
      <defs>
       <path id="m0da55c33bd" d="M 0 0 
L -3.5 0 
" style="stroke: #000000; stroke-width: 0.8"/>
      </defs>
      <g>
       <use xlink:href="#m0da55c33bd" x="90" y="349.479523" style="stroke: #000000; stroke-width: 0.8"/>
      </g>
     </g>
     <g id="text_11">
      <!-- −150 -->
      <g transform="translate(55.532812 353.278742) scale(0.1 -0.1)">
       <defs>
        <path id="DejaVuSans-2212" d="M 678 2272 
L 4684 2272 
L 4684 1741 
L 678 1741 
L 678 2272 
z
" transform="scale(0.015625)"/>
       </defs>
       <use xlink:href="#DejaVuSans-2212"/>
       <use xlink:href="#DejaVuSans-31" x="83.789062"/>
       <use xlink:href="#DejaVuSans-35" x="147.412109"/>
       <use xlink:href="#DejaVuSans-30" x="211.035156"/>
      </g>
     </g>
    </g>
    <g id="ytick_2">
     <g id="line2d_21">
      <path d="M 90 306.948382 
L 648 306.948382 
" clip-path="url(#pfabb21595a)" style="fill: none; stroke: #b0b0b0; stroke-width: 0.8; stroke-linecap: square"/>
     </g>
     <g id="line2d_22">
      <g>
       <use xlink:href="#m0da55c33bd" x="90" y="306.948382" style="stroke: #000000; stroke-width: 0.8"/>
      </g>
     </g>
     <g id="text_12">
      <!-- −100 -->
      <g transform="translate(55.532812 310.747601) scale(0.1 -0.1)">
       <use xlink:href="#DejaVuSans-2212"/>
       <use xlink:href="#DejaVuSans-31" x="83.789062"/>
       <use xlink:href="#DejaVuSans-30" x="147.412109"/>
       <use xlink:href="#DejaVuSans-30" x="211.035156"/>
      </g>
     </g>
    </g>
    <g id="ytick_3">
     <g id="line2d_23">
      <path d="M 90 264.417241 
L 648 264.417241 
" clip-path="url(#pfabb21595a)" style="fill: none; stroke: #b0b0b0; stroke-width: 0.8; stroke-linecap: square"/>
     </g>
     <g id="line2d_24">
      <g>
       <use xlink:href="#m0da55c33bd" x="90" y="264.417241" style="stroke: #000000; stroke-width: 0.8"/>
      </g>
     </g>
     <g id="text_13">
      <!-- −50 -->
      <g transform="translate(61.895313 268.21646) scale(0.1 -0.1)">
       <use xlink:href="#DejaVuSans-2212"/>
       <use xlink:href="#DejaVuSans-35" x="83.789062"/>
       <use xlink:href="#DejaVuSans-30" x="147.412109"/>
      </g>
     </g>
    </g>
    <g id="ytick_4">
     <g id="line2d_25">
      <path d="M 90 221.8861 
L 648 221.8861 
" clip-path="url(#pfabb21595a)" style="fill: none; stroke: #b0b0b0; stroke-width: 0.8; stroke-linecap: square"/>
     </g>
     <g id="line2d_26">
      <g>
       <use xlink:href="#m0da55c33bd" x="90" y="221.8861" style="stroke: #000000; stroke-width: 0.8"/>
      </g>
     </g>
     <g id="text_14">
      <!-- 0 -->
      <g transform="translate(76.6375 225.685319) scale(0.1 -0.1)">
       <use xlink:href="#DejaVuSans-30"/>
      </g>
     </g>
    </g>
    <g id="ytick_5">
     <g id="line2d_27">
      <path d="M 90 179.354959 
L 648 179.354959 
" clip-path="url(#pfabb21595a)" style="fill: none; stroke: #b0b0b0; stroke-width: 0.8; stroke-linecap: square"/>
     </g>
     <g id="line2d_28">
      <g>
       <use xlink:href="#m0da55c33bd" x="90" y="179.354959" style="stroke: #000000; stroke-width: 0.8"/>
      </g>
     </g>
     <g id="text_15">
      <!-- 50 -->
      <g transform="translate(70.275 183.154177) scale(0.1 -0.1)">
       <use xlink:href="#DejaVuSans-35"/>
       <use xlink:href="#DejaVuSans-30" x="63.623047"/>
      </g>
     </g>
    </g>
    <g id="ytick_6">
     <g id="line2d_29">
      <path d="M 90 136.823817 
L 648 136.823817 
" clip-path="url(#pfabb21595a)" style="fill: none; stroke: #b0b0b0; stroke-width: 0.8; stroke-linecap: square"/>
     </g>
     <g id="line2d_30">
      <g>
       <use xlink:href="#m0da55c33bd" x="90" y="136.823817" style="stroke: #000000; stroke-width: 0.8"/>
      </g>
     </g>
     <g id="text_16">
      <!-- 100 -->
      <g transform="translate(63.9125 140.623036) scale(0.1 -0.1)">
       <use xlink:href="#DejaVuSans-31"/>
       <use xlink:href="#DejaVuSans-30" x="63.623047"/>
       <use xlink:href="#DejaVuSans-30" x="127.246094"/>
      </g>
     </g>
    </g>
    <g id="ytick_7">
     <g id="line2d_31">
      <path d="M 90 94.292676 
L 648 94.292676 
" clip-path="url(#pfabb21595a)" style="fill: none; stroke: #b0b0b0; stroke-width: 0.8; stroke-linecap: square"/>
     </g>
     <g id="line2d_32">
      <g>
       <use xlink:href="#m0da55c33bd" x="90" y="94.292676" style="stroke: #000000; stroke-width: 0.8"/>
      </g>
     </g>
     <g id="text_17">
      <!-- 150 -->
      <g transform="translate(63.9125 98.091895) scale(0.1 -0.1)">
       <use xlink:href="#DejaVuSans-31"/>
       <use xlink:href="#DejaVuSans-35" x="63.623047"/>
       <use xlink:href="#DejaVuSans-30" x="127.246094"/>
      </g>
     </g>
    </g>
    <g id="text_18">
     <!-- $\theta(t)$ -->
     <g transform="translate(49.453125 227.11) rotate(-90) scale(0.1 -0.1)">
      <defs>
       <path id="DejaVuSans-Oblique-3b8" d="M 2913 2219 
L 925 2219 
Q 791 1284 928 888 
Q 1100 400 1566 400 
Q 2034 400 2391 891 
Q 2703 1322 2913 2219 
z
M 3009 2750 
Q 3094 3638 2984 3950 
Q 2813 4444 2353 4444 
Q 1875 4444 1525 3956 
Q 1250 3563 1034 2750 
L 3009 2750 
z
M 2444 4913 
Q 3194 4913 3494 4250 
Q 3794 3591 3566 2422 
Q 3341 1256 2781 594 
Q 2225 -72 1475 -72 
Q 722 -72 425 594 
Q 128 1256 353 2422 
Q 581 3591 1134 4250 
Q 1691 4913 2444 4913 
z
" transform="scale(0.015625)"/>
       <path id="DejaVuSans-Oblique-74" d="M 2706 3500 
L 2619 3053 
L 1472 3053 
L 1100 1153 
Q 1081 1047 1072 975 
Q 1063 903 1063 863 
Q 1063 663 1183 572 
Q 1303 481 1569 481 
L 2150 481 
L 2053 0 
L 1503 0 
Q 991 0 739 200 
Q 488 400 488 806 
Q 488 878 497 964 
Q 506 1050 525 1153 
L 897 3053 
L 409 3053 
L 500 3500 
L 978 3500 
L 1172 4494 
L 1747 4494 
L 1556 3500 
L 2706 3500 
z
" transform="scale(0.015625)"/>
      </defs>
      <use xlink:href="#DejaVuSans-Oblique-3b8" transform="translate(0 0.234375)"/>
      <use xlink:href="#DejaVuSans-28" transform="translate(61.181641 0.234375)"/>
      <use xlink:href="#DejaVuSans-Oblique-74" transform="translate(100.195312 0.234375)"/>
      <use xlink:href="#DejaVuSans-29" transform="translate(139.404297 0.234375)"/>
     </g>
    </g>
   </g>
   <g id="line2d_33">
    <path d="M 115.363636 219.149993 
L 125.519247 219.260214 
L 136.690418 219.613226 
L 153.954955 220.424863 
L 177.820639 221.746818 
L 188.99181 222.603595 
L 215.396396 224.783077 
L 231.137592 225.685092 
L 259.06552 227.082963 
L 269.728911 227.366059 
L 279.884521 227.415039 
L 290.547912 227.23703 
L 302.734644 226.798884 
L 333.709255 225.347471 
L 346.403767 224.601355 
L 357.067158 223.741235 
L 383.471744 221.473897 
L 409.876331 219.69595 
L 422.063063 219.052231 
L 432.726454 218.708969 
L 444.405405 218.561833 
L 457.607699 218.62453 
L 476.395577 218.967462 
L 494.167895 219.224113 
L 505.339066 219.160019 
L 515.494676 218.883796 
L 526.665848 218.34922 
L 572.873874 215.641138 
L 597.247338 214.116832 
L 607.402948 213.758263 
L 619.0819 213.574762 
L 622.636364 213.552984 
L 622.636364 213.552984 
" clip-path="url(#pfabb21595a)" style="fill: none; stroke: #1f77b4; stroke-width: 1.5; stroke-linecap: square"/>
   </g>
   <g id="line2d_34">
    <path d="M 115.363636 219.149993 
L 125.519247 219.260397 
L 136.690418 219.616424 
L 150.908272 220.318225 
L 177.820639 221.689194 
L 188.99181 222.007211 
L 199.655201 222.08563 
L 210.318591 221.942387 
L 223.013104 221.537675 
L 260.588862 220.167918 
L 271.252252 220.112547 
L 281.407862 220.290244 
L 292.071253 220.712362 
L 304.257985 221.431578 
L 346.403767 224.151003 
L 357.574939 224.503238 
L 368.74611 224.62403 
L 381.948403 224.532075 
L 415.461916 224.170328 
L 425.617527 224.351004 
L 435.265356 224.741427 
L 444.913186 225.358234 
L 455.068796 226.240985 
L 467.255528 227.544223 
L 513.463554 232.733094 
L 525.650287 233.720304 
L 542.914824 234.870467 
L 563.226044 236.259186 
L 573.889435 237.215 
L 583.029484 238.265079 
L 591.661753 239.488262 
L 599.786241 240.859743 
L 607.910729 242.445995 
L 616.542998 244.353859 
L 622.636364 245.823814 
L 622.636364 245.823814 
" clip-path="url(#pfabb21595a)" style="fill: none; stroke: #ff7f0e; stroke-width: 1.5; stroke-linecap: square"/>
   </g>
   <g id="line2d_35">
    <path d="M 115.363636 219.149993 
L 125.519247 219.260214 
L 136.690418 219.613442 
L 153.447174 220.40493 
L 173.758395 221.535235 
L 180.359541 222.137873 
L 184.929566 222.768214 
L 188.484029 223.470646 
L 191.530713 224.309997 
L 194.069615 225.257995 
L 196.100737 226.240535 
L 198.131859 227.505766 
L 199.655201 228.706491 
L 201.178542 230.190804 
L 202.701884 232.044635 
L 204.225225 234.374824 
L 205.240786 236.274602 
L 206.256347 238.528779 
L 207.271908 241.219205 
L 208.287469 244.441563 
L 209.30303 248.305362 
L 210.318591 252.954269 
L 211.334152 258.570484 
L 212.349713 265.319816 
L 213.365274 273.341745 
L 214.888616 287.84445 
L 217.935299 319.52418 
L 218.443079 323.225401 
L 218.95086 325.824556 
L 219.45864 327.110178 
L 219.966421 326.927234 
L 220.474201 325.208691 
L 220.981982 321.984828 
L 221.489762 317.387594 
L 222.505324 304.935565 
L 224.028665 281.457744 
L 230.629812 173.977374 
L 231.645373 159.862779 
L 232.660934 149.164627 
L 233.168714 145.577517 
L 233.676495 143.381616 
L 234.184275 142.691328 
L 234.692056 143.490986 
L 235.199836 145.690194 
L 235.707617 149.147918 
L 236.723178 159.021583 
L 238.246519 177.874781 
L 244.847666 264.389431 
L 245.863227 274.095863 
L 246.371007 277.534024 
L 246.878788 279.760545 
L 247.386568 280.631752 
L 247.894349 280.075021 
L 248.402129 278.103266 
L 248.90991 274.814938 
L 249.925471 264.975082 
L 250.941032 252.082767 
L 253.987715 207.939532 
L 256.526618 169.169388 
L 258.049959 142.626999 
L 261.096642 87.078223 
L 261.604423 80.900024 
L 262.112203 76.833885 
L 262.619984 75.171951 
L 263.127764 75.991098 
L 263.635545 79.14892 
L 264.143325 84.308223 
L 265.158886 98.569425 
L 267.190008 129.692047 
L 268.205569 142.20099 
L 269.22113 151.761791 
L 270.236691 158.424555 
L 270.744472 160.717095 
L 271.252252 162.345158 
L 271.760033 163.330919 
L 272.267813 163.685428 
L 272.775594 163.40434 
L 273.283374 162.477937 
L 273.791155 160.891595 
L 274.298935 158.625783 
L 274.806716 155.656064 
L 275.822277 147.482624 
L 276.837838 136.141745 
L 277.853399 121.582606 
L 280.900082 72.962419 
L 281.407862 68.699078 
L 281.915643 66.96 
L 282.423423 67.988966 
L 282.931204 71.710139 
L 283.438984 77.757835 
L 284.454545 94.786124 
L 286.993448 142.916322 
L 288.51679 166.533645 
L 290.040131 186.162627 
L 292.579034 215.04911 
L 295.625717 248.337238 
L 296.641278 257.853896 
L 297.656839 265.131994 
L 298.164619 267.608288 
L 298.6724 269.17392 
L 299.18018 269.77898 
L 299.687961 269.417268 
L 300.195741 268.122397 
L 300.703522 265.961957 
L 301.211302 263.036741 
L 302.226863 255.35818 
L 303.750205 241.161789 
L 309.33579 184.481464 
L 311.366912 164.747286 
L 312.382473 156.766202 
L 312.890254 153.681001 
L 313.398034 151.393574 
L 313.905815 150.02748 
L 314.413595 149.679368 
L 314.921376 150.396113 
L 315.429156 152.174508 
L 315.936937 154.961265 
L 316.952498 163.178822 
L 317.968059 174.110669 
L 319.999181 200.016992 
L 328.123669 307.166082 
L 329.13923 316.268576 
L 329.647011 319.471051 
L 330.154791 321.606904 
L 330.662572 322.621945 
L 331.170352 322.522381 
L 331.678133 321.373637 
L 332.185913 319.304019 
L 333.201474 313.099625 
L 336.755938 286.761638 
L 337.771499 281.430969 
L 338.78706 277.72599 
L 339.29484 276.521333 
L 339.802621 275.762265 
L 340.310401 275.454665 
L 340.818182 275.609115 
L 341.325962 276.243562 
L 341.833743 277.377521 
L 342.341523 279.031966 
L 342.849304 281.229323 
L 343.864865 287.349758 
L 344.880426 295.945609 
L 345.895987 307.165119 
L 346.911548 320.846219 
L 349.45045 357.668885 
L 349.958231 362.839636 
L 350.466011 366.312886 
L 350.973792 367.815262 
L 351.481572 367.219989 
L 351.989353 364.592304 
L 352.497133 360.170057 
L 353.512695 347.66008 
L 355.543817 319.684788 
L 356.559378 308.565683 
L 357.574939 300.512296 
L 358.082719 297.682709 
L 358.5905 295.650315 
L 359.09828 294.408734 
L 359.606061 293.947312 
L 360.113841 294.250348 
L 360.621622 295.307763 
L 361.129402 297.122238 
L 361.637183 299.683816 
L 362.652744 306.935423 
L 363.668305 316.690801 
L 366.207207 344.845467 
L 366.714988 348.996372 
L 367.222768 351.849195 
L 367.730549 353.138497 
L 368.238329 352.717212 
L 368.74611 350.553425 
L 369.25389 346.733928 
L 369.761671 341.46563 
L 370.777232 327.775292 
L 374.331695 274.470618 
L 376.362817 249.117541 
L 380.425061 203.178887 
L 382.456183 181.833265 
L 383.471744 173.218792 
L 383.979525 169.828725 
L 384.487305 167.199043 
L 384.995086 165.413576 
L 385.502867 164.526619 
L 386.010647 164.552046 
L 386.518428 165.463311 
L 387.026208 167.19346 
L 387.533989 169.656818 
L 388.54955 176.381012 
L 390.072891 189.356081 
L 393.627355 223.201059 
L 397.181818 256.656998 
L 398.197379 264.937248 
L 399.21294 271.478257 
L 399.720721 273.803765 
L 400.228501 275.369438 
L 400.736282 276.095823 
L 401.244062 275.920275 
L 401.751843 274.825198 
L 402.259623 272.836008 
L 402.767404 270.006529 
L 403.782965 262.182976 
L 404.798526 252.304133 
L 406.829648 229.729076 
L 411.399672 176.282501 
L 413.430794 149.070208 
L 416.477477 106.130197 
L 417.493038 96.21768 
L 418.000819 93.179636 
L 418.5086 91.650662 
L 419.01638 91.676933 
L 419.524161 93.176757 
L 420.031941 95.955304 
L 421.047502 104.347485 
L 423.586405 129.071988 
L 424.601966 136.404095 
L 425.109746 139.144822 
L 425.617527 141.216635 
L 426.125307 142.594357 
L 426.633088 143.264587 
L 427.140868 143.229722 
L 427.648649 142.462572 
L 428.156429 140.936672 
L 428.66421 138.637758 
L 429.17199 135.563772 
L 430.187551 127.143364 
L 431.203112 115.906376 
L 434.249795 77.463907 
L 434.757576 73.707613 
L 435.265356 71.683884 
L 435.773137 71.592385 
L 436.280917 73.466744 
L 436.788698 77.155089 
L 437.804259 88.565973 
L 440.850942 128.842081 
L 441.866503 138.371198 
L 442.882064 145.102948 
L 443.389844 147.431163 
L 443.897625 149.09424 
L 444.405405 150.109904 
L 444.913186 150.492286 
L 445.420966 150.256734 
L 445.928747 149.41975 
L 446.436527 147.998985 
L 446.944308 146.013248 
L 447.959869 140.431051 
L 448.97543 132.968188 
L 452.022113 107.798886 
L 452.529894 105.142409 
L 453.037674 103.488022 
L 453.545455 102.967232 
L 454.053235 103.659472 
L 454.561016 105.594109 
L 455.068796 108.772555 
L 455.576577 113.084785 
L 456.592138 124.449243 
L 458.115479 145.332886 
L 461.669943 194.728916 
L 466.239967 254.191123 
L 467.255528 265.841095 
L 468.271089 275.34457 
L 468.77887 278.904372 
L 469.28665 281.496432 
L 469.794431 283.040019 
L 470.302211 283.492827 
L 470.809992 282.865908 
L 471.317772 281.223671 
L 471.825553 278.678426 
L 472.841114 271.376183 
L 473.856675 262.031774 
L 476.395577 235.4043 
L 481.473382 181.959956 
L 482.488943 173.135109 
L 483.504505 166.677836 
L 484.012285 164.665665 
L 484.520066 163.602964 
L 485.027846 163.568517 
L 485.535627 164.588556 
L 486.043407 166.632864 
L 486.551188 169.634814 
L 487.566749 178.06596 
L 489.09009 194.53192 
L 493.152334 243.695391 
L 495.183456 270.342931 
L 496.706798 293.476092 
L 500.261261 350.648146 
L 500.769042 355.566754 
L 501.276822 358.573236 
L 501.784603 359.474434 
L 502.292383 358.278847 
L 502.800164 355.172176 
L 503.307944 350.456222 
L 504.323505 337.857055 
L 506.354627 311.05633 
L 507.370188 300.64345 
L 508.385749 293.166696 
L 508.89353 290.569744 
L 509.40131 288.731899 
L 509.909091 287.651122 
L 510.416871 287.328321 
L 510.924652 287.767349 
L 511.432432 288.975007 
L 511.940213 290.961003 
L 512.447993 293.736199 
L 512.955774 297.323914 
L 513.971335 306.967233 
L 514.986896 319.74205 
L 518.033579 363.427737 
L 518.54136 367.469274 
L 519.04914 369.36 
L 519.556921 368.90762 
L 520.064701 366.120486 
L 520.572482 361.216354 
L 521.588043 346.683237 
L 524.634726 296.9575 
L 525.650287 284.145796 
L 526.665848 273.604819 
L 527.681409 264.97946 
L 528.69697 257.897358 
L 529.712531 252.001458 
L 531.235872 244.767133 
L 532.759214 238.810358 
L 534.790336 231.924026 
L 538.344799 220.955458 
L 543.930385 204.314584 
L 545.453726 200.335906 
L 546.977068 196.941101 
L 547.992629 195.094512 
L 549.00819 193.622302 
L 550.023751 192.539888 
L 551.039312 191.845008 
L 552.054873 191.517718 
L 553.070434 191.520398 
L 554.085995 191.80422 
L 555.101556 192.32828 
L 556.624898 193.441666 
L 559.1638 195.71352 
L 561.702703 197.885873 
L 563.226044 198.932771 
L 564.749386 199.690827 
L 565.764947 200.006112 
L 566.780508 200.150874 
L 567.796069 200.106544 
L 568.81163 199.851765 
L 569.827191 199.362396 
L 570.842752 198.605708 
L 571.858313 197.548068 
L 572.873874 196.150414 
L 573.889435 194.34952 
L 574.904996 192.057852 
L 575.920557 189.16357 
L 576.936118 185.530523 
L 577.951679 180.996641 
L 578.96724 175.333183 
L 579.982801 168.241405 
L 580.998362 159.390417 
L 582.013923 148.463788 
L 583.029484 135.129697 
L 584.552826 111.017139 
L 586.076167 86.014678 
L 586.583948 79.177289 
L 587.091728 73.863916 
L 587.599509 70.526777 
L 588.107289 69.453909 
L 588.61507 70.731659 
L 589.12285 74.19687 
L 589.630631 79.454009 
L 590.646192 93.465987 
L 592.677314 123.103817 
L 593.692875 134.497665 
L 594.708436 142.676395 
L 595.216216 145.535344 
L 595.723997 147.591095 
L 596.231777 148.859923 
L 596.739558 149.348268 
L 597.247338 149.061158 
L 597.755119 148.002685 
L 598.262899 146.175999 
L 598.77068 143.583312 
L 599.27846 140.225896 
L 600.294021 131.249616 
L 601.309582 119.550454 
L 603.848485 87.182335 
L 604.356265 82.789615 
L 604.864046 79.986854 
L 605.371826 79.035331 
L 605.879607 80.112081 
L 606.387387 83.231242 
L 606.895168 88.189664 
L 607.910729 102.367484 
L 611.972973 167.942312 
L 614.004095 194.144339 
L 618.57412 247.986659 
L 619.589681 258.561693 
L 620.605242 267.123056 
L 621.113022 270.302589 
L 621.620803 272.585472 
L 622.128583 273.890089 
L 622.636364 274.18062 
L 622.636364 274.18062 
" clip-path="url(#pfabb21595a)" style="fill: none; stroke: #2ca02c; stroke-width: 1.5; stroke-linecap: square"/>
   </g>
   <g id="patch_3">
    <path d="M 90 384.48 
L 90 51.84 
" style="fill: none; stroke: #000000; stroke-width: 0.8; stroke-linejoin: miter; stroke-linecap: square"/>
   </g>
   <g id="patch_4">
    <path d="M 648 384.48 
L 648 51.84 
" style="fill: none; stroke: #000000; stroke-width: 0.8; stroke-linejoin: miter; stroke-linecap: square"/>
   </g>
   <g id="patch_5">
    <path d="M 90 384.48 
L 648 384.48 
" style="fill: none; stroke: #000000; stroke-width: 0.8; stroke-linejoin: miter; stroke-linecap: square"/>
   </g>
   <g id="patch_6">
    <path d="M 90 51.84 
L 648 51.84 
" style="fill: none; stroke: #000000; stroke-width: 0.8; stroke-linejoin: miter; stroke-linecap: square"/>
   </g>
   <g id="text_19">
    <!-- Simulation: A=4.6, $\omega$=10.0, l=2.8, $\theta_0$=3.2165926535897933 -->
    <g transform="translate(185.88 45.84) scale(0.12 -0.12)">
     <defs>
      <path id="DejaVuSans-53" d="M 3425 4513 
L 3425 3897 
Q 3066 4069 2747 4153 
Q 2428 4238 2131 4238 
Q 1616 4238 1336 4038 
Q 1056 3838 1056 3469 
Q 1056 3159 1242 3001 
Q 1428 2844 1947 2747 
L 2328 2669 
Q 3034 2534 3370 2195 
Q 3706 1856 3706 1288 
Q 3706 609 3251 259 
Q 2797 -91 1919 -91 
Q 1588 -91 1214 -16 
Q 841 59 441 206 
L 441 856 
Q 825 641 1194 531 
Q 1563 422 1919 422 
Q 2459 422 2753 634 
Q 3047 847 3047 1241 
Q 3047 1584 2836 1778 
Q 2625 1972 2144 2069 
L 1759 2144 
Q 1053 2284 737 2584 
Q 422 2884 422 3419 
Q 422 4038 858 4394 
Q 1294 4750 2059 4750 
Q 2388 4750 2728 4690 
Q 3069 4631 3425 4513 
z
" transform="scale(0.015625)"/>
      <path id="DejaVuSans-75" d="M 544 1381 
L 544 3500 
L 1119 3500 
L 1119 1403 
Q 1119 906 1312 657 
Q 1506 409 1894 409 
Q 2359 409 2629 706 
Q 2900 1003 2900 1516 
L 2900 3500 
L 3475 3500 
L 3475 0 
L 2900 0 
L 2900 538 
Q 2691 219 2414 64 
Q 2138 -91 1772 -91 
Q 1169 -91 856 284 
Q 544 659 544 1381 
z
M 1991 3584 
L 1991 3584 
z
" transform="scale(0.015625)"/>
      <path id="DejaVuSans-6c" d="M 603 4863 
L 1178 4863 
L 1178 0 
L 603 0 
L 603 4863 
z
" transform="scale(0.015625)"/>
      <path id="DejaVuSans-61" d="M 2194 1759 
Q 1497 1759 1228 1600 
Q 959 1441 959 1056 
Q 959 750 1161 570 
Q 1363 391 1709 391 
Q 2188 391 2477 730 
Q 2766 1069 2766 1631 
L 2766 1759 
L 2194 1759 
z
M 3341 1997 
L 3341 0 
L 2766 0 
L 2766 531 
Q 2569 213 2275 61 
Q 1981 -91 1556 -91 
Q 1019 -91 701 211 
Q 384 513 384 1019 
Q 384 1609 779 1909 
Q 1175 2209 1959 2209 
L 2766 2209 
L 2766 2266 
Q 2766 2663 2505 2880 
Q 2244 3097 1772 3097 
Q 1472 3097 1187 3025 
Q 903 2953 641 2809 
L 641 3341 
Q 956 3463 1253 3523 
Q 1550 3584 1831 3584 
Q 2591 3584 2966 3190 
Q 3341 2797 3341 1997 
z
" transform="scale(0.015625)"/>
      <path id="DejaVuSans-6f" d="M 1959 3097 
Q 1497 3097 1228 2736 
Q 959 2375 959 1747 
Q 959 1119 1226 758 
Q 1494 397 1959 397 
Q 2419 397 2687 759 
Q 2956 1122 2956 1747 
Q 2956 2369 2687 2733 
Q 2419 3097 1959 3097 
z
M 1959 3584 
Q 2709 3584 3137 3096 
Q 3566 2609 3566 1747 
Q 3566 888 3137 398 
Q 2709 -91 1959 -91 
Q 1206 -91 779 398 
Q 353 888 353 1747 
Q 353 2609 779 3096 
Q 1206 3584 1959 3584 
z
" transform="scale(0.015625)"/>
      <path id="DejaVuSans-6e" d="M 3513 2113 
L 3513 0 
L 2938 0 
L 2938 2094 
Q 2938 2591 2744 2837 
Q 2550 3084 2163 3084 
Q 1697 3084 1428 2787 
Q 1159 2491 1159 1978 
L 1159 0 
L 581 0 
L 581 3500 
L 1159 3500 
L 1159 2956 
Q 1366 3272 1645 3428 
Q 1925 3584 2291 3584 
Q 2894 3584 3203 3211 
Q 3513 2838 3513 2113 
z
" transform="scale(0.015625)"/>
      <path id="DejaVuSans-3a" d="M 750 794 
L 1409 794 
L 1409 0 
L 750 0 
L 750 794 
z
M 750 3309 
L 1409 3309 
L 1409 2516 
L 750 2516 
L 750 3309 
z
" transform="scale(0.015625)"/>
      <path id="DejaVuSans-41" d="M 2188 4044 
L 1331 1722 
L 3047 1722 
L 2188 4044 
z
M 1831 4666 
L 2547 4666 
L 4325 0 
L 3669 0 
L 3244 1197 
L 1141 1197 
L 716 0 
L 50 0 
L 1831 4666 
z
" transform="scale(0.015625)"/>
      <path id="DejaVuSans-3d" d="M 678 2906 
L 4684 2906 
L 4684 2381 
L 678 2381 
L 678 2906 
z
M 678 1631 
L 4684 1631 
L 4684 1100 
L 678 1100 
L 678 1631 
z
" transform="scale(0.015625)"/>
      <path id="DejaVuSans-34" d="M 2419 4116 
L 825 1625 
L 2419 1625 
L 2419 4116 
z
M 2253 4666 
L 3047 4666 
L 3047 1625 
L 3713 1625 
L 3713 1100 
L 3047 1100 
L 3047 0 
L 2419 0 
L 2419 1100 
L 313 1100 
L 313 1709 
L 2253 4666 
z
" transform="scale(0.015625)"/>
      <path id="DejaVuSans-36" d="M 2113 2584 
Q 1688 2584 1439 2293 
Q 1191 2003 1191 1497 
Q 1191 994 1439 701 
Q 1688 409 2113 409 
Q 2538 409 2786 701 
Q 3034 994 3034 1497 
Q 3034 2003 2786 2293 
Q 2538 2584 2113 2584 
z
M 3366 4563 
L 3366 3988 
Q 3128 4100 2886 4159 
Q 2644 4219 2406 4219 
Q 1781 4219 1451 3797 
Q 1122 3375 1075 2522 
Q 1259 2794 1537 2939 
Q 1816 3084 2150 3084 
Q 2853 3084 3261 2657 
Q 3669 2231 3669 1497 
Q 3669 778 3244 343 
Q 2819 -91 2113 -91 
Q 1303 -91 875 529 
Q 447 1150 447 2328 
Q 447 3434 972 4092 
Q 1497 4750 2381 4750 
Q 2619 4750 2861 4703 
Q 3103 4656 3366 4563 
z
" transform="scale(0.015625)"/>
      <path id="DejaVuSans-2c" d="M 750 794 
L 1409 794 
L 1409 256 
L 897 -744 
L 494 -744 
L 750 256 
L 750 794 
z
" transform="scale(0.015625)"/>
      <path id="DejaVuSans-Oblique-3c9" d="M 1369 -91 
Q 72 -91 434 1766 
Q 575 2500 1256 3500 
L 1875 3500 
Q 1231 2500 1088 1750 
Q 819 397 1519 397 
Q 2166 397 2478 2078 
L 3009 2078 
Q 2669 388 3316 397 
Q 4013 403 4275 1750 
Q 4419 2500 4169 3500 
L 4788 3500 
Q 5075 2500 4934 1766 
Q 4578 -94 3278 -91 
Q 2428 -88 2503 844 
Q 2194 -91 1369 -91 
z
" transform="scale(0.015625)"/>
      <path id="DejaVuSans-38" d="M 2034 2216 
Q 1584 2216 1326 1975 
Q 1069 1734 1069 1313 
Q 1069 891 1326 650 
Q 1584 409 2034 409 
Q 2484 409 2743 651 
Q 3003 894 3003 1313 
Q 3003 1734 2745 1975 
Q 2488 2216 2034 2216 
z
M 1403 2484 
Q 997 2584 770 2862 
Q 544 3141 544 3541 
Q 544 4100 942 4425 
Q 1341 4750 2034 4750 
Q 2731 4750 3128 4425 
Q 3525 4100 3525 3541 
Q 3525 3141 3298 2862 
Q 3072 2584 2669 2484 
Q 3125 2378 3379 2068 
Q 3634 1759 3634 1313 
Q 3634 634 3220 271 
Q 2806 -91 2034 -91 
Q 1263 -91 848 271 
Q 434 634 434 1313 
Q 434 1759 690 2068 
Q 947 2378 1403 2484 
z
M 1172 3481 
Q 1172 3119 1398 2916 
Q 1625 2713 2034 2713 
Q 2441 2713 2670 2916 
Q 2900 3119 2900 3481 
Q 2900 3844 2670 4047 
Q 2441 4250 2034 4250 
Q 1625 4250 1398 4047 
Q 1172 3844 1172 3481 
z
" transform="scale(0.015625)"/>
      <path id="DejaVuSans-33" d="M 2597 2516 
Q 3050 2419 3304 2112 
Q 3559 1806 3559 1356 
Q 3559 666 3084 287 
Q 2609 -91 1734 -91 
Q 1441 -91 1130 -33 
Q 819 25 488 141 
L 488 750 
Q 750 597 1062 519 
Q 1375 441 1716 441 
Q 2309 441 2620 675 
Q 2931 909 2931 1356 
Q 2931 1769 2642 2001 
Q 2353 2234 1838 2234 
L 1294 2234 
L 1294 2753 
L 1863 2753 
Q 2328 2753 2575 2939 
Q 2822 3125 2822 3475 
Q 2822 3834 2567 4026 
Q 2313 4219 1838 4219 
Q 1578 4219 1281 4162 
Q 984 4106 628 3988 
L 628 4550 
Q 988 4650 1302 4700 
Q 1616 4750 1894 4750 
Q 2613 4750 3031 4423 
Q 3450 4097 3450 3541 
Q 3450 3153 3228 2886 
Q 3006 2619 2597 2516 
z
" transform="scale(0.015625)"/>
      <path id="DejaVuSans-39" d="M 703 97 
L 703 672 
Q 941 559 1184 500 
Q 1428 441 1663 441 
Q 2288 441 2617 861 
Q 2947 1281 2994 2138 
Q 2813 1869 2534 1725 
Q 2256 1581 1919 1581 
Q 1219 1581 811 2004 
Q 403 2428 403 3163 
Q 403 3881 828 4315 
Q 1253 4750 1959 4750 
Q 2769 4750 3195 4129 
Q 3622 3509 3622 2328 
Q 3622 1225 3098 567 
Q 2575 -91 1691 -91 
Q 1453 -91 1209 -44 
Q 966 3 703 97 
z
M 1959 2075 
Q 2384 2075 2632 2365 
Q 2881 2656 2881 3163 
Q 2881 3666 2632 3958 
Q 2384 4250 1959 4250 
Q 1534 4250 1286 3958 
Q 1038 3666 1038 3163 
Q 1038 2656 1286 2365 
Q 1534 2075 1959 2075 
z
" transform="scale(0.015625)"/>
     </defs>
     <use xlink:href="#DejaVuSans-53" transform="translate(0 0.234375)"/>
     <use xlink:href="#DejaVuSans-69" transform="translate(63.476562 0.234375)"/>
     <use xlink:href="#DejaVuSans-6d" transform="translate(91.259766 0.234375)"/>
     <use xlink:href="#DejaVuSans-75" transform="translate(188.671875 0.234375)"/>
     <use xlink:href="#DejaVuSans-6c" transform="translate(252.050781 0.234375)"/>
     <use xlink:href="#DejaVuSans-61" transform="translate(279.833984 0.234375)"/>
     <use xlink:href="#DejaVuSans-74" transform="translate(341.113281 0.234375)"/>
     <use xlink:href="#DejaVuSans-69" transform="translate(380.322266 0.234375)"/>
     <use xlink:href="#DejaVuSans-6f" transform="translate(408.105469 0.234375)"/>
     <use xlink:href="#DejaVuSans-6e" transform="translate(469.287109 0.234375)"/>
     <use xlink:href="#DejaVuSans-3a" transform="translate(532.666016 0.234375)"/>
     <use xlink:href="#DejaVuSans-20" transform="translate(566.357422 0.234375)"/>
     <use xlink:href="#DejaVuSans-41" transform="translate(598.144531 0.234375)"/>
     <use xlink:href="#DejaVuSans-3d" transform="translate(666.552734 0.234375)"/>
     <use xlink:href="#DejaVuSans-34" transform="translate(750.341797 0.234375)"/>
     <use xlink:href="#DejaVuSans-2e" transform="translate(813.964844 0.234375)"/>
     <use xlink:href="#DejaVuSans-36" transform="translate(845.751953 0.234375)"/>
     <use xlink:href="#DejaVuSans-2c" transform="translate(909.375 0.234375)"/>
     <use xlink:href="#DejaVuSans-20" transform="translate(941.162109 0.234375)"/>
     <use xlink:href="#DejaVuSans-Oblique-3c9" transform="translate(972.949219 0.234375)"/>
     <use xlink:href="#DejaVuSans-3d" transform="translate(1056.689453 0.234375)"/>
     <use xlink:href="#DejaVuSans-31" transform="translate(1140.478516 0.234375)"/>
     <use xlink:href="#DejaVuSans-30" transform="translate(1204.101562 0.234375)"/>
     <use xlink:href="#DejaVuSans-2e" transform="translate(1267.724609 0.234375)"/>
     <use xlink:href="#DejaVuSans-30" transform="translate(1299.511719 0.234375)"/>
     <use xlink:href="#DejaVuSans-2c" transform="translate(1363.134766 0.234375)"/>
     <use xlink:href="#DejaVuSans-20" transform="translate(1394.921875 0.234375)"/>
     <use xlink:href="#DejaVuSans-6c" transform="translate(1426.708984 0.234375)"/>
     <use xlink:href="#DejaVuSans-3d" transform="translate(1454.492188 0.234375)"/>
     <use xlink:href="#DejaVuSans-32" transform="translate(1538.28125 0.234375)"/>
     <use xlink:href="#DejaVuSans-2e" transform="translate(1601.904297 0.234375)"/>
     <use xlink:href="#DejaVuSans-38" transform="translate(1631.066406 0.234375)"/>
     <use xlink:href="#DejaVuSans-2c" transform="translate(1694.689453 0.234375)"/>
     <use xlink:href="#DejaVuSans-20" transform="translate(1726.476562 0.234375)"/>
     <use xlink:href="#DejaVuSans-Oblique-3b8" transform="translate(1758.263672 0.234375)"/>
     <use xlink:href="#DejaVuSans-30" transform="translate(1819.445312 -16.171875) scale(0.7)"/>
     <use xlink:href="#DejaVuSans-3d" transform="translate(1866.71582 0.234375)"/>
     <use xlink:href="#DejaVuSans-33" transform="translate(1950.504883 0.234375)"/>
     <use xlink:href="#DejaVuSans-2e" transform="translate(2014.12793 0.234375)"/>
     <use xlink:href="#DejaVuSans-32" transform="translate(2040.415039 0.234375)"/>
     <use xlink:href="#DejaVuSans-31" transform="translate(2104.038086 0.234375)"/>
     <use xlink:href="#DejaVuSans-36" transform="translate(2167.661133 0.234375)"/>
     <use xlink:href="#DejaVuSans-35" transform="translate(2231.28418 0.234375)"/>
     <use xlink:href="#DejaVuSans-39" transform="translate(2289.407227 0.234375)"/>
     <use xlink:href="#DejaVuSans-32" transform="translate(2351.280273 0.234375)"/>
     <use xlink:href="#DejaVuSans-36" transform="translate(2414.90332 0.234375)"/>
     <use xlink:href="#DejaVuSans-35" transform="translate(2478.526367 0.234375)"/>
     <use xlink:href="#DejaVuSans-33" transform="translate(2542.149414 0.234375)"/>
     <use xlink:href="#DejaVuSans-35" transform="translate(2605.772461 0.234375)"/>
     <use xlink:href="#DejaVuSans-38" transform="translate(2669.395508 0.234375)"/>
     <use xlink:href="#DejaVuSans-39" transform="translate(2733.018555 0.234375)"/>
     <use xlink:href="#DejaVuSans-37" transform="translate(2796.641602 0.234375)"/>
     <use xlink:href="#DejaVuSans-39" transform="translate(2860.264648 0.234375)"/>
     <use xlink:href="#DejaVuSans-33" transform="translate(2923.887695 0.234375)"/>
     <use xlink:href="#DejaVuSans-33" transform="translate(2987.510742 0.234375)"/>
    </g>
   </g>
   <g id="legend_1">
    <g id="patch_7">
     <path d="M 97 103.874375 
L 197.403125 103.874375 
Q 199.403125 103.874375 199.403125 101.874375 
L 199.403125 58.84 
Q 199.403125 56.84 197.403125 56.84 
L 97 56.84 
Q 95 56.84 95 58.84 
L 95 101.874375 
Q 95 103.874375 97 103.874375 
z
" style="fill: #ffffff; opacity: 0.8; stroke: #cccccc; stroke-linejoin: miter"/>
    </g>
    <g id="line2d_36">
     <path d="M 99 64.938437 
L 109 64.938437 
L 119 64.938437 
" style="fill: none; stroke: #1f77b4; stroke-width: 1.5; stroke-linecap: square"/>
    </g>
    <g id="text_20">
     <!-- Original -->
     <g transform="translate(127 68.438437) scale(0.1 -0.1)">
      <defs>
       <path id="DejaVuSans-4f" d="M 2522 4238 
Q 1834 4238 1429 3725 
Q 1025 3213 1025 2328 
Q 1025 1447 1429 934 
Q 1834 422 2522 422 
Q 3209 422 3611 934 
Q 4013 1447 4013 2328 
Q 4013 3213 3611 3725 
Q 3209 4238 2522 4238 
z
M 2522 4750 
Q 3503 4750 4090 4092 
Q 4678 3434 4678 2328 
Q 4678 1225 4090 567 
Q 3503 -91 2522 -91 
Q 1538 -91 948 565 
Q 359 1222 359 2328 
Q 359 3434 948 4092 
Q 1538 4750 2522 4750 
z
" transform="scale(0.015625)"/>
       <path id="DejaVuSans-72" d="M 2631 2963 
Q 2534 3019 2420 3045 
Q 2306 3072 2169 3072 
Q 1681 3072 1420 2755 
Q 1159 2438 1159 1844 
L 1159 0 
L 581 0 
L 581 3500 
L 1159 3500 
L 1159 2956 
Q 1341 3275 1631 3429 
Q 1922 3584 2338 3584 
Q 2397 3584 2469 3576 
Q 2541 3569 2628 3553 
L 2631 2963 
z
" transform="scale(0.015625)"/>
       <path id="DejaVuSans-67" d="M 2906 1791 
Q 2906 2416 2648 2759 
Q 2391 3103 1925 3103 
Q 1463 3103 1205 2759 
Q 947 2416 947 1791 
Q 947 1169 1205 825 
Q 1463 481 1925 481 
Q 2391 481 2648 825 
Q 2906 1169 2906 1791 
z
M 3481 434 
Q 3481 -459 3084 -895 
Q 2688 -1331 1869 -1331 
Q 1566 -1331 1297 -1286 
Q 1028 -1241 775 -1147 
L 775 -588 
Q 1028 -725 1275 -790 
Q 1522 -856 1778 -856 
Q 2344 -856 2625 -561 
Q 2906 -266 2906 331 
L 2906 616 
Q 2728 306 2450 153 
Q 2172 0 1784 0 
Q 1141 0 747 490 
Q 353 981 353 1791 
Q 353 2603 747 3093 
Q 1141 3584 1784 3584 
Q 2172 3584 2450 3431 
Q 2728 3278 2906 2969 
L 2906 3500 
L 3481 3500 
L 3481 434 
z
" transform="scale(0.015625)"/>
      </defs>
      <use xlink:href="#DejaVuSans-4f"/>
      <use xlink:href="#DejaVuSans-72" x="78.710938"/>
      <use xlink:href="#DejaVuSans-69" x="119.824219"/>
      <use xlink:href="#DejaVuSans-67" x="147.607422"/>
      <use xlink:href="#DejaVuSans-69" x="211.083984"/>
      <use xlink:href="#DejaVuSans-6e" x="238.867188"/>
      <use xlink:href="#DejaVuSans-61" x="302.246094"/>
      <use xlink:href="#DejaVuSans-6c" x="363.525391"/>
     </g>
    </g>
    <g id="line2d_37">
     <path d="M 99 79.616562 
L 109 79.616562 
L 119 79.616562 
" style="fill: none; stroke: #ff7f0e; stroke-width: 1.5; stroke-linecap: square"/>
    </g>
    <g id="text_21">
     <!-- First-Order -->
     <g transform="translate(127 83.116562) scale(0.1 -0.1)">
      <defs>
       <path id="DejaVuSans-46" d="M 628 4666 
L 3309 4666 
L 3309 4134 
L 1259 4134 
L 1259 2759 
L 3109 2759 
L 3109 2228 
L 1259 2228 
L 1259 0 
L 628 0 
L 628 4666 
z
" transform="scale(0.015625)"/>
       <path id="DejaVuSans-73" d="M 2834 3397 
L 2834 2853 
Q 2591 2978 2328 3040 
Q 2066 3103 1784 3103 
Q 1356 3103 1142 2972 
Q 928 2841 928 2578 
Q 928 2378 1081 2264 
Q 1234 2150 1697 2047 
L 1894 2003 
Q 2506 1872 2764 1633 
Q 3022 1394 3022 966 
Q 3022 478 2636 193 
Q 2250 -91 1575 -91 
Q 1294 -91 989 -36 
Q 684 19 347 128 
L 347 722 
Q 666 556 975 473 
Q 1284 391 1588 391 
Q 1994 391 2212 530 
Q 2431 669 2431 922 
Q 2431 1156 2273 1281 
Q 2116 1406 1581 1522 
L 1381 1569 
Q 847 1681 609 1914 
Q 372 2147 372 2553 
Q 372 3047 722 3315 
Q 1072 3584 1716 3584 
Q 2034 3584 2315 3537 
Q 2597 3491 2834 3397 
z
" transform="scale(0.015625)"/>
       <path id="DejaVuSans-2d" d="M 313 2009 
L 1997 2009 
L 1997 1497 
L 313 1497 
L 313 2009 
z
" transform="scale(0.015625)"/>
       <path id="DejaVuSans-64" d="M 2906 2969 
L 2906 4863 
L 3481 4863 
L 3481 0 
L 2906 0 
L 2906 525 
Q 2725 213 2448 61 
Q 2172 -91 1784 -91 
Q 1150 -91 751 415 
Q 353 922 353 1747 
Q 353 2572 751 3078 
Q 1150 3584 1784 3584 
Q 2172 3584 2448 3432 
Q 2725 3281 2906 2969 
z
M 947 1747 
Q 947 1113 1208 752 
Q 1469 391 1925 391 
Q 2381 391 2643 752 
Q 2906 1113 2906 1747 
Q 2906 2381 2643 2742 
Q 2381 3103 1925 3103 
Q 1469 3103 1208 2742 
Q 947 2381 947 1747 
z
" transform="scale(0.015625)"/>
      </defs>
      <use xlink:href="#DejaVuSans-46"/>
      <use xlink:href="#DejaVuSans-69" x="50.269531"/>
      <use xlink:href="#DejaVuSans-72" x="78.052734"/>
      <use xlink:href="#DejaVuSans-73" x="119.166016"/>
      <use xlink:href="#DejaVuSans-74" x="171.265625"/>
      <use xlink:href="#DejaVuSans-2d" x="210.474609"/>
      <use xlink:href="#DejaVuSans-4f" x="249.308594"/>
      <use xlink:href="#DejaVuSans-72" x="328.019531"/>
      <use xlink:href="#DejaVuSans-64" x="367.382812"/>
      <use xlink:href="#DejaVuSans-65" x="430.859375"/>
      <use xlink:href="#DejaVuSans-72" x="492.382812"/>
     </g>
    </g>
    <g id="line2d_38">
     <path d="M 99 94.294687 
L 109 94.294687 
L 119 94.294687 
" style="fill: none; stroke: #2ca02c; stroke-width: 1.5; stroke-linecap: square"/>
    </g>
    <g id="text_22">
     <!-- Second Order -->
     <g transform="translate(127 97.794687) scale(0.1 -0.1)">
      <defs>
       <path id="DejaVuSans-63" d="M 3122 3366 
L 3122 2828 
Q 2878 2963 2633 3030 
Q 2388 3097 2138 3097 
Q 1578 3097 1268 2742 
Q 959 2388 959 1747 
Q 959 1106 1268 751 
Q 1578 397 2138 397 
Q 2388 397 2633 464 
Q 2878 531 3122 666 
L 3122 134 
Q 2881 22 2623 -34 
Q 2366 -91 2075 -91 
Q 1284 -91 818 406 
Q 353 903 353 1747 
Q 353 2603 823 3093 
Q 1294 3584 2113 3584 
Q 2378 3584 2631 3529 
Q 2884 3475 3122 3366 
z
" transform="scale(0.015625)"/>
      </defs>
      <use xlink:href="#DejaVuSans-53"/>
      <use xlink:href="#DejaVuSans-65" x="63.476562"/>
      <use xlink:href="#DejaVuSans-63" x="125"/>
      <use xlink:href="#DejaVuSans-6f" x="179.980469"/>
      <use xlink:href="#DejaVuSans-6e" x="241.162109"/>
      <use xlink:href="#DejaVuSans-64" x="304.541016"/>
      <use xlink:href="#DejaVuSans-20" x="368.017578"/>
      <use xlink:href="#DejaVuSans-4f" x="399.804688"/>
      <use xlink:href="#DejaVuSans-72" x="478.515625"/>
      <use xlink:href="#DejaVuSans-64" x="517.878906"/>
      <use xlink:href="#DejaVuSans-65" x="581.355469"/>
      <use xlink:href="#DejaVuSans-72" x="642.878906"/>
     </g>
    </g>
   </g>
  </g>
 </g>
 <defs>
  <clipPath id="pfabb21595a">
   <rect x="90" y="51.84" width="558" height="332.64"/>
  </clipPath>
 </defs>
</svg>
