<?xml version="1.0" encoding="utf-8" standalone="no"?>
<!DOCTYPE svg PUBLIC "-//W3C//DTD SVG 1.1//EN"
  "http://www.w3.org/Graphics/SVG/1.1/DTD/svg11.dtd">
<svg xmlns:xlink="http://www.w3.org/1999/xlink" width="720pt" height="432pt" viewBox="0 0 720 432" xmlns="http://www.w3.org/2000/svg" version="1.1">
 <metadata>
  <rdf:RDF xmlns:dc="http://purl.org/dc/elements/1.1/" xmlns:cc="http://creativecommons.org/ns#" xmlns:rdf="http://www.w3.org/1999/02/22-rdf-syntax-ns#">
   <cc:Work>
    <dc:type rdf:resource="http://purl.org/dc/dcmitype/StillImage"/>
    <dc:date>2024-12-31T23:32:40.762767</dc:date>
    <dc:format>image/svg+xml</dc:format>
    <dc:creator>
     <cc:Agent>
      <dc:title>Matplotlib v3.7.2, https://matplotlib.org/</dc:title>
     </cc:Agent>
    </dc:creator>
   </cc:Work>
  </rdf:RDF>
 </metadata>
 <defs>
  <style type="text/css">*{stroke-linejoin: round; stroke-linecap: butt}</style>
 </defs>
 <g id="figure_1">
  <g id="patch_1">
   <path d="M 0 432 
L 720 432 
L 720 0 
L 0 0 
z
" style="fill: #ffffff"/>
  </g>
  <g id="axes_1">
   <g id="patch_2">
    <path d="M 90 384.48 
L 648 384.48 
L 648 51.84 
L 90 51.84 
z
" style="fill: #ffffff"/>
   </g>
   <g id="matplotlib.axis_1">
    <g id="xtick_1">
     <g id="line2d_1">
      <path d="M 115.363636 384.48 
L 115.363636 51.84 
" clip-path="url(#p4058e6db58)" style="fill: none; stroke: #b0b0b0; stroke-width: 0.8; stroke-linecap: square"/>
     </g>
     <g id="line2d_2">
      <defs>
       <path id="mbab777db4a" d="M 0 0 
L 0 3.5 
" style="stroke: #000000; stroke-width: 0.8"/>
      </defs>
      <g>
       <use xlink:href="#mbab777db4a" x="115.363636" y="384.48" style="stroke: #000000; stroke-width: 0.8"/>
      </g>
     </g>
     <g id="text_1">
      <!-- 0.00 -->
      <g transform="translate(104.230824 399.078438) scale(0.1 -0.1)">
       <defs>
        <path id="DejaVuSans-30" d="M 2034 4250 
Q 1547 4250 1301 3770 
Q 1056 3291 1056 2328 
Q 1056 1369 1301 889 
Q 1547 409 2034 409 
Q 2525 409 2770 889 
Q 3016 1369 3016 2328 
Q 3016 3291 2770 3770 
Q 2525 4250 2034 4250 
z
M 2034 4750 
Q 2819 4750 3233 4129 
Q 3647 3509 3647 2328 
Q 3647 1150 3233 529 
Q 2819 -91 2034 -91 
Q 1250 -91 836 529 
Q 422 1150 422 2328 
Q 422 3509 836 4129 
Q 1250 4750 2034 4750 
z
" transform="scale(0.015625)"/>
        <path id="DejaVuSans-2e" d="M 684 794 
L 1344 794 
L 1344 0 
L 684 0 
L 684 794 
z
" transform="scale(0.015625)"/>
       </defs>
       <use xlink:href="#DejaVuSans-30"/>
       <use xlink:href="#DejaVuSans-2e" x="63.623047"/>
       <use xlink:href="#DejaVuSans-30" x="95.410156"/>
       <use xlink:href="#DejaVuSans-30" x="159.033203"/>
      </g>
     </g>
    </g>
    <g id="xtick_2">
     <g id="line2d_3">
      <path d="M 178.772727 384.48 
L 178.772727 51.84 
" clip-path="url(#p4058e6db58)" style="fill: none; stroke: #b0b0b0; stroke-width: 0.8; stroke-linecap: square"/>
     </g>
     <g id="line2d_4">
      <g>
       <use xlink:href="#mbab777db4a" x="178.772727" y="384.48" style="stroke: #000000; stroke-width: 0.8"/>
      </g>
     </g>
     <g id="text_2">
      <!-- 0.25 -->
      <g transform="translate(167.639915 399.078438) scale(0.1 -0.1)">
       <defs>
        <path id="DejaVuSans-32" d="M 1228 531 
L 3431 531 
L 3431 0 
L 469 0 
L 469 531 
Q 828 903 1448 1529 
Q 2069 2156 2228 2338 
Q 2531 2678 2651 2914 
Q 2772 3150 2772 3378 
Q 2772 3750 2511 3984 
Q 2250 4219 1831 4219 
Q 1534 4219 1204 4116 
Q 875 4013 500 3803 
L 500 4441 
Q 881 4594 1212 4672 
Q 1544 4750 1819 4750 
Q 2544 4750 2975 4387 
Q 3406 4025 3406 3419 
Q 3406 3131 3298 2873 
Q 3191 2616 2906 2266 
Q 2828 2175 2409 1742 
Q 1991 1309 1228 531 
z
" transform="scale(0.015625)"/>
        <path id="DejaVuSans-35" d="M 691 4666 
L 3169 4666 
L 3169 4134 
L 1269 4134 
L 1269 2991 
Q 1406 3038 1543 3061 
Q 1681 3084 1819 3084 
Q 2600 3084 3056 2656 
Q 3513 2228 3513 1497 
Q 3513 744 3044 326 
Q 2575 -91 1722 -91 
Q 1428 -91 1123 -41 
Q 819 9 494 109 
L 494 744 
Q 775 591 1075 516 
Q 1375 441 1709 441 
Q 2250 441 2565 725 
Q 2881 1009 2881 1497 
Q 2881 1984 2565 2268 
Q 2250 2553 1709 2553 
Q 1456 2553 1204 2497 
Q 953 2441 691 2322 
L 691 4666 
z
" transform="scale(0.015625)"/>
       </defs>
       <use xlink:href="#DejaVuSans-30"/>
       <use xlink:href="#DejaVuSans-2e" x="63.623047"/>
       <use xlink:href="#DejaVuSans-32" x="95.410156"/>
       <use xlink:href="#DejaVuSans-35" x="159.033203"/>
      </g>
     </g>
    </g>
    <g id="xtick_3">
     <g id="line2d_5">
      <path d="M 242.181818 384.48 
L 242.181818 51.84 
" clip-path="url(#p4058e6db58)" style="fill: none; stroke: #b0b0b0; stroke-width: 0.8; stroke-linecap: square"/>
     </g>
     <g id="line2d_6">
      <g>
       <use xlink:href="#mbab777db4a" x="242.181818" y="384.48" style="stroke: #000000; stroke-width: 0.8"/>
      </g>
     </g>
     <g id="text_3">
      <!-- 0.50 -->
      <g transform="translate(231.049006 399.078438) scale(0.1 -0.1)">
       <use xlink:href="#DejaVuSans-30"/>
       <use xlink:href="#DejaVuSans-2e" x="63.623047"/>
       <use xlink:href="#DejaVuSans-35" x="95.410156"/>
       <use xlink:href="#DejaVuSans-30" x="159.033203"/>
      </g>
     </g>
    </g>
    <g id="xtick_4">
     <g id="line2d_7">
      <path d="M 305.590909 384.48 
L 305.590909 51.84 
" clip-path="url(#p4058e6db58)" style="fill: none; stroke: #b0b0b0; stroke-width: 0.8; stroke-linecap: square"/>
     </g>
     <g id="line2d_8">
      <g>
       <use xlink:href="#mbab777db4a" x="305.590909" y="384.48" style="stroke: #000000; stroke-width: 0.8"/>
      </g>
     </g>
     <g id="text_4">
      <!-- 0.75 -->
      <g transform="translate(294.458097 399.078438) scale(0.1 -0.1)">
       <defs>
        <path id="DejaVuSans-37" d="M 525 4666 
L 3525 4666 
L 3525 4397 
L 1831 0 
L 1172 0 
L 2766 4134 
L 525 4134 
L 525 4666 
z
" transform="scale(0.015625)"/>
       </defs>
       <use xlink:href="#DejaVuSans-30"/>
       <use xlink:href="#DejaVuSans-2e" x="63.623047"/>
       <use xlink:href="#DejaVuSans-37" x="95.410156"/>
       <use xlink:href="#DejaVuSans-35" x="159.033203"/>
      </g>
     </g>
    </g>
    <g id="xtick_5">
     <g id="line2d_9">
      <path d="M 369 384.48 
L 369 51.84 
" clip-path="url(#p4058e6db58)" style="fill: none; stroke: #b0b0b0; stroke-width: 0.8; stroke-linecap: square"/>
     </g>
     <g id="line2d_10">
      <g>
       <use xlink:href="#mbab777db4a" x="369" y="384.48" style="stroke: #000000; stroke-width: 0.8"/>
      </g>
     </g>
     <g id="text_5">
      <!-- 1.00 -->
      <g transform="translate(357.867188 399.078438) scale(0.1 -0.1)">
       <defs>
        <path id="DejaVuSans-31" d="M 794 531 
L 1825 531 
L 1825 4091 
L 703 3866 
L 703 4441 
L 1819 4666 
L 2450 4666 
L 2450 531 
L 3481 531 
L 3481 0 
L 794 0 
L 794 531 
z
" transform="scale(0.015625)"/>
       </defs>
       <use xlink:href="#DejaVuSans-31"/>
       <use xlink:href="#DejaVuSans-2e" x="63.623047"/>
       <use xlink:href="#DejaVuSans-30" x="95.410156"/>
       <use xlink:href="#DejaVuSans-30" x="159.033203"/>
      </g>
     </g>
    </g>
    <g id="xtick_6">
     <g id="line2d_11">
      <path d="M 432.409091 384.48 
L 432.409091 51.84 
" clip-path="url(#p4058e6db58)" style="fill: none; stroke: #b0b0b0; stroke-width: 0.8; stroke-linecap: square"/>
     </g>
     <g id="line2d_12">
      <g>
       <use xlink:href="#mbab777db4a" x="432.409091" y="384.48" style="stroke: #000000; stroke-width: 0.8"/>
      </g>
     </g>
     <g id="text_6">
      <!-- 1.25 -->
      <g transform="translate(421.276278 399.078438) scale(0.1 -0.1)">
       <use xlink:href="#DejaVuSans-31"/>
       <use xlink:href="#DejaVuSans-2e" x="63.623047"/>
       <use xlink:href="#DejaVuSans-32" x="95.410156"/>
       <use xlink:href="#DejaVuSans-35" x="159.033203"/>
      </g>
     </g>
    </g>
    <g id="xtick_7">
     <g id="line2d_13">
      <path d="M 495.818182 384.48 
L 495.818182 51.84 
" clip-path="url(#p4058e6db58)" style="fill: none; stroke: #b0b0b0; stroke-width: 0.8; stroke-linecap: square"/>
     </g>
     <g id="line2d_14">
      <g>
       <use xlink:href="#mbab777db4a" x="495.818182" y="384.48" style="stroke: #000000; stroke-width: 0.8"/>
      </g>
     </g>
     <g id="text_7">
      <!-- 1.50 -->
      <g transform="translate(484.685369 399.078438) scale(0.1 -0.1)">
       <use xlink:href="#DejaVuSans-31"/>
       <use xlink:href="#DejaVuSans-2e" x="63.623047"/>
       <use xlink:href="#DejaVuSans-35" x="95.410156"/>
       <use xlink:href="#DejaVuSans-30" x="159.033203"/>
      </g>
     </g>
    </g>
    <g id="xtick_8">
     <g id="line2d_15">
      <path d="M 559.227273 384.48 
L 559.227273 51.84 
" clip-path="url(#p4058e6db58)" style="fill: none; stroke: #b0b0b0; stroke-width: 0.8; stroke-linecap: square"/>
     </g>
     <g id="line2d_16">
      <g>
       <use xlink:href="#mbab777db4a" x="559.227273" y="384.48" style="stroke: #000000; stroke-width: 0.8"/>
      </g>
     </g>
     <g id="text_8">
      <!-- 1.75 -->
      <g transform="translate(548.09446 399.078438) scale(0.1 -0.1)">
       <use xlink:href="#DejaVuSans-31"/>
       <use xlink:href="#DejaVuSans-2e" x="63.623047"/>
       <use xlink:href="#DejaVuSans-37" x="95.410156"/>
       <use xlink:href="#DejaVuSans-35" x="159.033203"/>
      </g>
     </g>
    </g>
    <g id="xtick_9">
     <g id="line2d_17">
      <path d="M 622.636364 384.48 
L 622.636364 51.84 
" clip-path="url(#p4058e6db58)" style="fill: none; stroke: #b0b0b0; stroke-width: 0.8; stroke-linecap: square"/>
     </g>
     <g id="line2d_18">
      <g>
       <use xlink:href="#mbab777db4a" x="622.636364" y="384.48" style="stroke: #000000; stroke-width: 0.8"/>
      </g>
     </g>
     <g id="text_9">
      <!-- 2.00 -->
      <g transform="translate(611.503551 399.078438) scale(0.1 -0.1)">
       <use xlink:href="#DejaVuSans-32"/>
       <use xlink:href="#DejaVuSans-2e" x="63.623047"/>
       <use xlink:href="#DejaVuSans-30" x="95.410156"/>
       <use xlink:href="#DejaVuSans-30" x="159.033203"/>
      </g>
     </g>
    </g>
    <g id="text_10">
     <!-- Time (t) -->
     <g transform="translate(349.315625 412.756563) scale(0.1 -0.1)">
      <defs>
       <path id="DejaVuSans-54" d="M -19 4666 
L 3928 4666 
L 3928 4134 
L 2272 4134 
L 2272 0 
L 1638 0 
L 1638 4134 
L -19 4134 
L -19 4666 
z
" transform="scale(0.015625)"/>
       <path id="DejaVuSans-69" d="M 603 3500 
L 1178 3500 
L 1178 0 
L 603 0 
L 603 3500 
z
M 603 4863 
L 1178 4863 
L 1178 4134 
L 603 4134 
L 603 4863 
z
" transform="scale(0.015625)"/>
       <path id="DejaVuSans-6d" d="M 3328 2828 
Q 3544 3216 3844 3400 
Q 4144 3584 4550 3584 
Q 5097 3584 5394 3201 
Q 5691 2819 5691 2113 
L 5691 0 
L 5113 0 
L 5113 2094 
Q 5113 2597 4934 2840 
Q 4756 3084 4391 3084 
Q 3944 3084 3684 2787 
Q 3425 2491 3425 1978 
L 3425 0 
L 2847 0 
L 2847 2094 
Q 2847 2600 2669 2842 
Q 2491 3084 2119 3084 
Q 1678 3084 1418 2786 
Q 1159 2488 1159 1978 
L 1159 0 
L 581 0 
L 581 3500 
L 1159 3500 
L 1159 2956 
Q 1356 3278 1631 3431 
Q 1906 3584 2284 3584 
Q 2666 3584 2933 3390 
Q 3200 3197 3328 2828 
z
" transform="scale(0.015625)"/>
       <path id="DejaVuSans-65" d="M 3597 1894 
L 3597 1613 
L 953 1613 
Q 991 1019 1311 708 
Q 1631 397 2203 397 
Q 2534 397 2845 478 
Q 3156 559 3463 722 
L 3463 178 
Q 3153 47 2828 -22 
Q 2503 -91 2169 -91 
Q 1331 -91 842 396 
Q 353 884 353 1716 
Q 353 2575 817 3079 
Q 1281 3584 2069 3584 
Q 2775 3584 3186 3129 
Q 3597 2675 3597 1894 
z
M 3022 2063 
Q 3016 2534 2758 2815 
Q 2500 3097 2075 3097 
Q 1594 3097 1305 2825 
Q 1016 2553 972 2059 
L 3022 2063 
z
" transform="scale(0.015625)"/>
       <path id="DejaVuSans-20" transform="scale(0.015625)"/>
       <path id="DejaVuSans-28" d="M 1984 4856 
Q 1566 4138 1362 3434 
Q 1159 2731 1159 2009 
Q 1159 1288 1364 580 
Q 1569 -128 1984 -844 
L 1484 -844 
Q 1016 -109 783 600 
Q 550 1309 550 2009 
Q 550 2706 781 3412 
Q 1013 4119 1484 4856 
L 1984 4856 
z
" transform="scale(0.015625)"/>
       <path id="DejaVuSans-74" d="M 1172 4494 
L 1172 3500 
L 2356 3500 
L 2356 3053 
L 1172 3053 
L 1172 1153 
Q 1172 725 1289 603 
Q 1406 481 1766 481 
L 2356 481 
L 2356 0 
L 1766 0 
Q 1100 0 847 248 
Q 594 497 594 1153 
L 594 3053 
L 172 3053 
L 172 3500 
L 594 3500 
L 594 4494 
L 1172 4494 
z
" transform="scale(0.015625)"/>
       <path id="DejaVuSans-29" d="M 513 4856 
L 1013 4856 
Q 1481 4119 1714 3412 
Q 1947 2706 1947 2009 
Q 1947 1309 1714 600 
Q 1481 -109 1013 -844 
L 513 -844 
Q 928 -128 1133 580 
Q 1338 1288 1338 2009 
Q 1338 2731 1133 3434 
Q 928 4138 513 4856 
z
" transform="scale(0.015625)"/>
      </defs>
      <use xlink:href="#DejaVuSans-54"/>
      <use xlink:href="#DejaVuSans-69" x="57.958984"/>
      <use xlink:href="#DejaVuSans-6d" x="85.742188"/>
      <use xlink:href="#DejaVuSans-65" x="183.154297"/>
      <use xlink:href="#DejaVuSans-20" x="244.677734"/>
      <use xlink:href="#DejaVuSans-28" x="276.464844"/>
      <use xlink:href="#DejaVuSans-74" x="315.478516"/>
      <use xlink:href="#DejaVuSans-29" x="354.6875"/>
     </g>
    </g>
   </g>
   <g id="matplotlib.axis_2">
    <g id="ytick_1">
     <g id="line2d_19">
      <path d="M 90 362.552643 
L 648 362.552643 
" clip-path="url(#p4058e6db58)" style="fill: none; stroke: #b0b0b0; stroke-width: 0.8; stroke-linecap: square"/>
     </g>
     <g id="line2d_20">
      <defs>
       <path id="m1c328dce15" d="M 0 0 
L -3.5 0 
" style="stroke: #000000; stroke-width: 0.8"/>
      </defs>
      <g>
       <use xlink:href="#m1c328dce15" x="90" y="362.552643" style="stroke: #000000; stroke-width: 0.8"/>
      </g>
     </g>
     <g id="text_11">
      <!-- −1500 -->
      <g transform="translate(49.170313 366.351862) scale(0.1 -0.1)">
       <defs>
        <path id="DejaVuSans-2212" d="M 678 2272 
L 4684 2272 
L 4684 1741 
L 678 1741 
L 678 2272 
z
" transform="scale(0.015625)"/>
       </defs>
       <use xlink:href="#DejaVuSans-2212"/>
       <use xlink:href="#DejaVuSans-31" x="83.789062"/>
       <use xlink:href="#DejaVuSans-35" x="147.412109"/>
       <use xlink:href="#DejaVuSans-30" x="211.035156"/>
       <use xlink:href="#DejaVuSans-30" x="274.658203"/>
      </g>
     </g>
    </g>
    <g id="ytick_2">
     <g id="line2d_21">
      <path d="M 90 320.657358 
L 648 320.657358 
" clip-path="url(#p4058e6db58)" style="fill: none; stroke: #b0b0b0; stroke-width: 0.8; stroke-linecap: square"/>
     </g>
     <g id="line2d_22">
      <g>
       <use xlink:href="#m1c328dce15" x="90" y="320.657358" style="stroke: #000000; stroke-width: 0.8"/>
      </g>
     </g>
     <g id="text_12">
      <!-- −1250 -->
      <g transform="translate(49.170313 324.456577) scale(0.1 -0.1)">
       <use xlink:href="#DejaVuSans-2212"/>
       <use xlink:href="#DejaVuSans-31" x="83.789062"/>
       <use xlink:href="#DejaVuSans-32" x="147.412109"/>
       <use xlink:href="#DejaVuSans-35" x="211.035156"/>
       <use xlink:href="#DejaVuSans-30" x="274.658203"/>
      </g>
     </g>
    </g>
    <g id="ytick_3">
     <g id="line2d_23">
      <path d="M 90 278.762074 
L 648 278.762074 
" clip-path="url(#p4058e6db58)" style="fill: none; stroke: #b0b0b0; stroke-width: 0.8; stroke-linecap: square"/>
     </g>
     <g id="line2d_24">
      <g>
       <use xlink:href="#m1c328dce15" x="90" y="278.762074" style="stroke: #000000; stroke-width: 0.8"/>
      </g>
     </g>
     <g id="text_13">
      <!-- −1000 -->
      <g transform="translate(49.170313 282.561292) scale(0.1 -0.1)">
       <use xlink:href="#DejaVuSans-2212"/>
       <use xlink:href="#DejaVuSans-31" x="83.789062"/>
       <use xlink:href="#DejaVuSans-30" x="147.412109"/>
       <use xlink:href="#DejaVuSans-30" x="211.035156"/>
       <use xlink:href="#DejaVuSans-30" x="274.658203"/>
      </g>
     </g>
    </g>
    <g id="ytick_4">
     <g id="line2d_25">
      <path d="M 90 236.866789 
L 648 236.866789 
" clip-path="url(#p4058e6db58)" style="fill: none; stroke: #b0b0b0; stroke-width: 0.8; stroke-linecap: square"/>
     </g>
     <g id="line2d_26">
      <g>
       <use xlink:href="#m1c328dce15" x="90" y="236.866789" style="stroke: #000000; stroke-width: 0.8"/>
      </g>
     </g>
     <g id="text_14">
      <!-- −750 -->
      <g transform="translate(55.532812 240.666008) scale(0.1 -0.1)">
       <use xlink:href="#DejaVuSans-2212"/>
       <use xlink:href="#DejaVuSans-37" x="83.789062"/>
       <use xlink:href="#DejaVuSans-35" x="147.412109"/>
       <use xlink:href="#DejaVuSans-30" x="211.035156"/>
      </g>
     </g>
    </g>
    <g id="ytick_5">
     <g id="line2d_27">
      <path d="M 90 194.971504 
L 648 194.971504 
" clip-path="url(#p4058e6db58)" style="fill: none; stroke: #b0b0b0; stroke-width: 0.8; stroke-linecap: square"/>
     </g>
     <g id="line2d_28">
      <g>
       <use xlink:href="#m1c328dce15" x="90" y="194.971504" style="stroke: #000000; stroke-width: 0.8"/>
      </g>
     </g>
     <g id="text_15">
      <!-- −500 -->
      <g transform="translate(55.532812 198.770723) scale(0.1 -0.1)">
       <use xlink:href="#DejaVuSans-2212"/>
       <use xlink:href="#DejaVuSans-35" x="83.789062"/>
       <use xlink:href="#DejaVuSans-30" x="147.412109"/>
       <use xlink:href="#DejaVuSans-30" x="211.035156"/>
      </g>
     </g>
    </g>
    <g id="ytick_6">
     <g id="line2d_29">
      <path d="M 90 153.07622 
L 648 153.07622 
" clip-path="url(#p4058e6db58)" style="fill: none; stroke: #b0b0b0; stroke-width: 0.8; stroke-linecap: square"/>
     </g>
     <g id="line2d_30">
      <g>
       <use xlink:href="#m1c328dce15" x="90" y="153.07622" style="stroke: #000000; stroke-width: 0.8"/>
      </g>
     </g>
     <g id="text_16">
      <!-- −250 -->
      <g transform="translate(55.532812 156.875438) scale(0.1 -0.1)">
       <use xlink:href="#DejaVuSans-2212"/>
       <use xlink:href="#DejaVuSans-32" x="83.789062"/>
       <use xlink:href="#DejaVuSans-35" x="147.412109"/>
       <use xlink:href="#DejaVuSans-30" x="211.035156"/>
      </g>
     </g>
    </g>
    <g id="ytick_7">
     <g id="line2d_31">
      <path d="M 90 111.180935 
L 648 111.180935 
" clip-path="url(#p4058e6db58)" style="fill: none; stroke: #b0b0b0; stroke-width: 0.8; stroke-linecap: square"/>
     </g>
     <g id="line2d_32">
      <g>
       <use xlink:href="#m1c328dce15" x="90" y="111.180935" style="stroke: #000000; stroke-width: 0.8"/>
      </g>
     </g>
     <g id="text_17">
      <!-- 0 -->
      <g transform="translate(76.6375 114.980154) scale(0.1 -0.1)">
       <use xlink:href="#DejaVuSans-30"/>
      </g>
     </g>
    </g>
    <g id="ytick_8">
     <g id="line2d_33">
      <path d="M 90 69.28565 
L 648 69.28565 
" clip-path="url(#p4058e6db58)" style="fill: none; stroke: #b0b0b0; stroke-width: 0.8; stroke-linecap: square"/>
     </g>
     <g id="line2d_34">
      <g>
       <use xlink:href="#m1c328dce15" x="90" y="69.28565" style="stroke: #000000; stroke-width: 0.8"/>
      </g>
     </g>
     <g id="text_18">
      <!-- 250 -->
      <g transform="translate(63.9125 73.084869) scale(0.1 -0.1)">
       <use xlink:href="#DejaVuSans-32"/>
       <use xlink:href="#DejaVuSans-35" x="63.623047"/>
       <use xlink:href="#DejaVuSans-30" x="127.246094"/>
      </g>
     </g>
    </g>
    <g id="text_19">
     <!-- $\theta(t)$ -->
     <g transform="translate(43.090625 227.11) rotate(-90) scale(0.1 -0.1)">
      <defs>
       <path id="DejaVuSans-Oblique-3b8" d="M 2913 2219 
L 925 2219 
Q 791 1284 928 888 
Q 1100 400 1566 400 
Q 2034 400 2391 891 
Q 2703 1322 2913 2219 
z
M 3009 2750 
Q 3094 3638 2984 3950 
Q 2813 4444 2353 4444 
Q 1875 4444 1525 3956 
Q 1250 3563 1034 2750 
L 3009 2750 
z
M 2444 4913 
Q 3194 4913 3494 4250 
Q 3794 3591 3566 2422 
Q 3341 1256 2781 594 
Q 2225 -72 1475 -72 
Q 722 -72 425 594 
Q 128 1256 353 2422 
Q 581 3591 1134 4250 
Q 1691 4913 2444 4913 
z
" transform="scale(0.015625)"/>
       <path id="DejaVuSans-Oblique-74" d="M 2706 3500 
L 2619 3053 
L 1472 3053 
L 1100 1153 
Q 1081 1047 1072 975 
Q 1063 903 1063 863 
Q 1063 663 1183 572 
Q 1303 481 1569 481 
L 2150 481 
L 2053 0 
L 1503 0 
Q 991 0 739 200 
Q 488 400 488 806 
Q 488 878 497 964 
Q 506 1050 525 1153 
L 897 3053 
L 409 3053 
L 500 3500 
L 978 3500 
L 1172 4494 
L 1747 4494 
L 1556 3500 
L 2706 3500 
z
" transform="scale(0.015625)"/>
      </defs>
      <use xlink:href="#DejaVuSans-Oblique-3b8" transform="translate(0 0.234375)"/>
      <use xlink:href="#DejaVuSans-28" transform="translate(61.181641 0.234375)"/>
      <use xlink:href="#DejaVuSans-Oblique-74" transform="translate(100.195312 0.234375)"/>
      <use xlink:href="#DejaVuSans-29" transform="translate(139.404297 0.234375)"/>
     </g>
    </g>
   </g>
   <g id="line2d_35">
    <path d="M 115.363636 110.667032 
L 127.042588 110.776422 
L 177.312858 111.571443 
L 191.022932 111.594984 
L 208.287469 111.353435 
L 224.028665 111.24051 
L 263.635545 111.12262 
L 295.117936 110.592298 
L 311.874693 110.727154 
L 348.434889 111.285153 
L 371.285012 111.870053 
L 411.907453 112.278608 
L 425.109746 112.20291 
L 440.343161 111.856354 
L 453.037674 111.670443 
L 468.77887 111.688518 
L 497.722359 111.762435 
L 510.416871 111.540255 
L 530.728092 111.116362 
L 545.961507 111.101295 
L 578.459459 111.135773 
L 594.200655 110.823403 
L 606.895168 110.666296 
L 620.097461 110.735663 
L 622.636364 110.768412 
L 622.636364 110.768412 
" clip-path="url(#p4058e6db58)" style="fill: none; stroke: #1f77b4; stroke-width: 1.5; stroke-linecap: square"/>
   </g>
   <g id="line2d_36">
    <path d="M 115.363636 110.667032 
L 127.042588 110.779469 
L 139.737101 111.129535 
L 157.509419 111.869468 
L 180.867322 112.812583 
L 194.577396 113.132119 
L 207.779689 113.216048 
L 224.028665 113.08134 
L 252.464373 112.808389 
L 264.143325 112.94484 
L 274.806716 113.28753 
L 284.962326 113.829807 
L 295.625717 114.624287 
L 307.812449 115.764453 
L 323.045864 117.429436 
L 373.823915 123.39106 
L 388.041769 125.230336 
L 398.197379 126.751842 
L 406.829648 128.261377 
L 414.446355 129.810092 
L 421.555283 131.47092 
L 428.66421 133.364791 
L 435.265356 135.350694 
L 441.866503 137.570461 
L 448.467649 140.03627 
L 454.561016 142.539291 
L 460.654382 145.266232 
L 466.747748 148.221271 
L 472.841114 151.406969 
L 479.44226 155.119995 
L 486.043407 159.109005 
L 492.136773 163.044118 
L 498.230139 167.234092 
L 504.323505 171.694977 
L 510.416871 176.447079 
L 516.002457 181.079904 
L 521.588043 186.000087 
L 527.173628 191.2327 
L 532.251433 196.284302 
L 537.329238 201.640523 
L 542.407043 207.326666 
L 547.484848 213.370124 
L 552.054873 219.14382 
L 556.624898 225.262513 
L 561.194922 231.751222 
L 565.764947 238.635912 
L 570.334971 245.943485 
L 574.904996 253.70179 
L 579.47502 261.939616 
L 584.045045 270.686694 
L 588.61507 279.973699 
L 592.677314 288.707623 
L 596.739558 297.915952 
L 600.801802 307.622106 
L 604.864046 317.850089 
L 608.92629 328.624497 
L 612.988534 339.970512 
L 617.050778 351.913906 
L 621.113022 364.481037 
L 622.636364 369.36 
L 622.636364 369.36 
" clip-path="url(#p4058e6db58)" style="fill: none; stroke: #ff7f0e; stroke-width: 1.5; stroke-linecap: square"/>
   </g>
   <g id="line2d_37">
    <path d="M 115.363636 110.667032 
L 127.042588 110.776273 
L 151.923833 111.114245 
L 170.711712 111.209418 
L 176.805078 111.468043 
L 180.359541 111.828945 
L 182.898444 112.326055 
L 184.421785 112.821904 
L 185.945127 113.596484 
L 186.960688 114.384538 
L 187.976249 115.531823 
L 188.99181 117.281695 
L 189.49959 118.520696 
L 190.007371 120.105587 
L 190.515152 122.167284 
L 191.022932 124.888644 
L 191.530713 128.471355 
L 192.038493 133.125707 
L 193.561835 151.340725 
L 194.069615 154.213775 
L 194.577396 152.597624 
L 195.085176 147.378609 
L 196.100737 134.811672 
L 196.608518 129.884837 
L 197.116298 126.110856 
L 197.624079 123.297361 
L 198.131859 121.238417 
L 198.63964 119.753184 
L 199.14742 118.725415 
L 199.655201 118.071306 
L 200.162981 117.733146 
L 200.670762 117.689308 
L 201.178542 117.936927 
L 201.686323 118.489368 
L 202.194103 119.384635 
L 202.701884 120.688438 
L 203.209664 122.491426 
L 203.717445 124.90451 
L 204.225225 128.147339 
L 205.240786 137.453472 
L 206.256347 148.05229 
L 206.764128 150.546568 
L 207.271908 149.361923 
L 207.779689 144.928319 
L 209.30303 127.563198 
L 210.318591 118.736893 
L 212.349713 103.727565 
L 212.857494 100.439789 
L 213.365274 98.003526 
L 213.873055 96.935811 
L 214.380835 97.474062 
L 214.888616 99.471365 
L 215.904177 105.985341 
L 218.443079 124.957991 
L 219.966421 137.479302 
L 220.474201 139.863454 
L 220.981982 140.035978 
L 221.489762 137.818575 
L 221.997543 133.794255 
L 226.059787 94.863202 
L 226.567568 92.474607 
L 227.075348 92.233239 
L 227.583129 94.168091 
L 228.090909 97.734829 
L 229.614251 111.662915 
L 231.645373 129.877741 
L 232.153153 132.614577 
L 232.660934 133.320644 
L 233.168714 131.731175 
L 233.676495 128.240371 
L 234.692056 118.421372 
L 237.230958 92.700317 
L 237.738739 89.137305 
L 238.246519 87.429216 
L 238.7543 88.010105 
L 239.26208 90.651519 
L 240.277641 99.220454 
L 242.816544 122.582603 
L 243.324324 126.276046 
L 243.832105 128.489196 
L 244.339885 128.593776 
L 244.847666 126.531368 
L 245.355446 122.845779 
L 246.878788 108.411558 
L 249.41769 83.648965 
L 249.925471 80.756161 
L 250.433251 80.197265 
L 250.941032 82.057081 
L 251.956593 89.937951 
L 253.479934 102.226262 
L 256.018837 119.358198 
L 256.526618 121.972001 
L 257.034398 123.522143 
L 257.542179 123.633406 
L 258.049959 122.273589 
L 258.55774 119.749291 
L 260.081081 109.482089 
L 261.604423 98.18535 
L 262.619984 88.18127 
L 264.143325 71.102569 
L 264.651106 69.719776 
L 265.158886 72.296933 
L 267.190008 93.047547 
L 267.697789 96.377272 
L 268.205569 98.882324 
L 268.71335 100.742803 
L 269.22113 102.091263 
L 269.728911 103.034976 
L 270.236691 103.653058 
L 270.744472 103.980214 
L 271.252252 104.036532 
L 271.760033 103.828428 
L 272.267813 103.340015 
L 272.775594 102.532668 
L 273.283374 101.344116 
L 273.791155 99.685184 
L 274.298935 97.400221 
L 274.806716 94.302022 
L 275.314496 90.186076 
L 276.330057 78.562206 
L 276.837838 72.183369 
L 277.345618 67.808374 
L 277.853399 67.590433 
L 278.361179 71.66116 
L 279.884521 90.224416 
L 280.900082 98.305417 
L 281.915643 103.572457 
L 283.438984 109.547192 
L 285.470106 116.812018 
L 285.977887 118.152451 
L 286.485667 119.012444 
L 286.993448 119.272805 
L 287.501229 118.893179 
L 288.009009 117.932328 
L 289.02457 114.863384 
L 291.563473 105.563338 
L 292.579034 101.250295 
L 293.594595 95.632275 
L 294.610156 88.270461 
L 295.625717 80.964087 
L 296.133497 79.066138 
L 296.641278 79.374753 
L 297.149058 81.882553 
L 298.164619 90.605086 
L 299.687961 104.231274 
L 301.719083 120.78718 
L 302.226863 124.098165 
L 302.734644 126.220294 
L 303.242424 126.661295 
L 303.750205 125.359716 
L 304.257985 122.683459 
L 305.273546 115.309833 
L 308.320229 91.871651 
L 308.82801 89.201355 
L 309.33579 88.021433 
L 309.843571 88.688151 
L 310.351351 91.096189 
L 311.366912 99.100417 
L 314.413595 126.22604 
L 314.921376 129.449712 
L 315.429156 131.182263 
L 315.936937 131.055606 
L 316.444717 129.183582 
L 316.952498 126.079249 
L 318.475839 114.095002 
L 320.506962 98.100743 
L 321.014742 95.12395 
L 321.522523 93.470671 
L 322.030303 93.571715 
L 322.538084 95.442571 
L 323.045864 98.665456 
L 324.569206 111.338072 
L 327.615889 136.718027 
L 328.123669 138.528583 
L 328.63145 138.377008 
L 329.13923 136.428464 
L 330.154791 129.688825 
L 331.678133 119.412703 
L 334.217035 105.190899 
L 335.232596 100.558761 
L 335.740377 99.278301 
L 336.248157 99.057915 
L 336.755938 99.953851 
L 337.263718 101.783206 
L 338.279279 107.028206 
L 340.310401 118.804335 
L 341.325962 126.076572 
L 342.341523 136.108384 
L 343.357084 147.441128 
L 343.864865 150.661494 
L 344.372645 150.337742 
L 344.880426 146.693369 
L 346.403767 131.426359 
L 346.911548 127.877377 
L 347.419328 125.305418 
L 347.927109 123.58154 
L 348.434889 122.596273 
L 348.94267 122.283993 
L 349.45045 122.616392 
L 349.958231 123.628351 
L 350.466011 125.406608 
L 350.973792 128.076521 
L 351.481572 131.820584 
L 352.497133 142.661825 
L 353.004914 148.660124 
L 353.512695 152.881867 
L 354.020475 153.384173 
L 354.528256 149.923695 
L 356.051597 132.954044 
L 356.559378 128.978303 
L 357.067158 126.120953 
L 357.574939 124.228158 
L 358.082719 123.15496 
L 358.5905 122.81359 
L 359.09828 123.178736 
L 359.606061 124.26801 
L 360.113841 126.161063 
L 360.621622 128.983154 
L 361.129402 132.852716 
L 363.160524 151.568083 
L 363.668305 150.821421 
L 364.176085 146.645705 
L 365.699427 129.671982 
L 366.714988 121.763569 
L 367.730549 115.942032 
L 370.269451 103.423778 
L 370.777232 101.526134 
L 371.285012 100.304282 
L 371.792793 99.963351 
L 372.300573 100.56367 
L 372.808354 101.990159 
L 373.823915 106.309951 
L 376.362817 118.883657 
L 377.378378 124.869828 
L 378.90172 135.142675 
L 379.4095 137.645983 
L 379.917281 138.672694 
L 380.425061 137.849075 
L 380.932842 135.331766 
L 381.948403 127.416504 
L 384.995086 102.266943 
L 386.010647 95.655018 
L 386.518428 94.067083 
L 387.026208 94.137077 
L 387.533989 95.797099 
L 388.041769 98.640793 
L 389.565111 109.862647 
L 391.596233 125.13505 
L 392.104013 128.240012 
L 392.611794 130.275425 
L 393.119574 130.787006 
L 393.627355 129.583993 
L 394.135135 126.885329 
L 395.150696 119.034823 
L 398.197379 93.497801 
L 398.70516 90.472504 
L 399.21294 88.801338 
L 399.720721 88.811552 
L 400.228501 90.416615 
L 400.736282 93.198009 
L 402.767404 107.75799 
L 404.798526 121.949827 
L 405.306306 124.469238 
L 405.814087 125.786287 
L 406.321867 125.564519 
L 406.829648 123.826744 
L 407.337428 120.942663 
L 408.86077 109.754207 
L 410.891892 93.497026 
L 411.907453 84.537532 
L 412.415233 80.931838 
L 412.923014 78.974108 
L 413.430794 79.185712 
L 413.938575 81.413463 
L 416.477477 98.204604 
L 417.493038 102.257434 
L 418.5086 105.135014 
L 420.031941 108.421037 
L 423.078624 114.228121 
L 424.094185 115.685251 
L 424.601966 116.13141 
L 425.109746 116.328292 
L 425.617527 116.254092 
L 426.125307 115.916338 
L 426.633088 115.348375 
L 427.648649 113.715133 
L 430.187551 108.744349 
L 431.710893 105.400662 
L 432.726454 102.358291 
L 433.234234 100.303403 
L 433.742015 97.679157 
L 434.249795 94.276058 
L 434.757576 89.848664 
L 435.773137 77.65673 
L 436.280917 71.253396 
L 436.788698 67.270269 
L 437.296478 67.748265 
L 437.804259 72.460417 
L 439.3276 91.349505 
L 440.343161 99.485162 
L 441.358722 105.162822 
L 443.897625 117.030185 
L 444.405405 118.899378 
L 444.913186 120.166091 
L 445.420966 120.621379 
L 445.928747 120.179494 
L 446.436527 118.924745 
L 447.452088 114.90598 
L 449.990991 102.911802 
L 451.006552 96.864188 
L 452.022113 88.826918 
L 453.037674 79.981745 
L 453.545455 77.130338 
L 454.053235 76.787758 
L 454.561016 79.195188 
L 455.576577 88.85303 
L 457.099918 103.935994 
L 459.13104 121.88826 
L 459.638821 125.22962 
L 460.146601 127.01063 
L 460.654382 126.768346 
L 461.162162 124.63264 
L 462.177723 117.09601 
L 465.732187 87.530216 
L 466.239967 85.686698 
L 466.747748 85.982354 
L 467.255528 88.415486 
L 468.271089 97.243725 
L 471.317772 127.117047 
L 471.825553 130.250462 
L 472.333333 131.42292 
L 472.841114 130.366241 
L 473.348894 127.433837 
L 474.364455 118.73744 
L 476.903358 95.622205 
L 477.411138 92.387629 
L 477.918919 90.895568 
L 478.426699 91.603075 
L 478.93448 94.331213 
L 479.950041 103.271944 
L 482.996724 132.903311 
L 483.504505 136.082718 
L 484.012285 137.313678 
L 484.520066 136.30868 
L 485.027846 133.435976 
L 486.551188 120.847812 
L 489.09009 100.570534 
L 489.597871 97.437435 
L 490.105651 95.603022 
L 490.613432 95.530125 
L 491.121212 97.281314 
L 491.628993 100.440915 
L 493.152334 112.805778 
L 494.675676 126.280399 
L 496.199017 142.351074 
L 496.706798 146.102127 
L 497.214578 147.101315 
L 497.722359 145.010783 
L 498.73792 135.854316 
L 499.753481 127.130128 
L 500.769042 121.108818 
L 501.784603 116.952016 
L 503.307944 112.112183 
L 505.339066 106.141176 
L 506.354627 103.921443 
L 506.862408 103.352011 
L 507.370188 103.26048 
L 507.877969 103.659726 
L 508.385749 104.491798 
L 509.40131 107.046428 
L 511.940213 114.766798 
L 512.955774 118.404522 
L 513.463554 120.681052 
L 513.971335 123.502582 
L 514.479115 127.105484 
L 514.986896 131.727528 
L 516.002457 144.248986 
L 516.510238 150.62266 
L 517.018018 154.306768 
L 517.525799 153.328381 
L 518.033579 148.232694 
L 519.556921 129.133105 
L 520.572482 120.849424 
L 522.095823 111.838698 
L 523.619165 103.568834 
L 524.126945 101.374734 
L 524.634726 99.968283 
L 525.142506 99.607578 
L 525.650287 100.370376 
L 526.158067 102.099788 
L 527.173628 107.15991 
L 529.20475 118.539921 
L 530.220311 125.459552 
L 531.235872 134.519188 
L 532.251433 143.624751 
L 532.759214 145.674228 
L 533.266994 144.751314 
L 533.774775 141.094361 
L 537.329238 104.939812 
L 538.344799 96.470956 
L 538.85258 94.129076 
L 539.36036 93.915834 
L 539.868141 95.875431 
L 540.375921 99.426261 
L 542.407043 117.828386 
L 543.930385 131.921971 
L 544.438165 135.470461 
L 544.945946 137.150722 
L 545.453726 136.380429 
L 545.961507 133.298065 
L 546.977068 123.357307 
L 549.515971 96.270805 
L 550.023751 92.128142 
L 550.531532 89.811177 
L 551.039312 89.926665 
L 551.547093 92.369786 
L 552.562654 101.321729 
L 555.101556 126.484909 
L 555.609337 130.105472 
L 556.117117 131.819123 
L 556.624898 131.066196 
L 557.132678 128.051852 
L 558.148239 118.324061 
L 560.687142 91.404387 
L 561.194922 87.180367 
L 561.702703 84.709448 
L 562.210483 84.626193 
L 562.718264 86.867849 
L 563.733825 95.312499 
L 566.272727 118.653471 
L 566.780508 122.849707 
L 567.288288 126.04673 
L 567.796069 127.508475 
L 568.303849 126.780967 
L 568.81163 124.030514 
L 569.827191 115.289414 
L 571.858313 95.566247 
L 573.381654 79.437296 
L 573.889435 76.26235 
L 574.397215 75.940037 
L 574.904996 78.518208 
L 577.443898 100.310327 
L 578.96724 109.3065 
L 580.490581 117.618197 
L 580.998362 119.877402 
L 581.506143 121.380427 
L 582.013923 121.841719 
L 582.521704 121.1465 
L 583.029484 119.428096 
L 584.045045 114.249507 
L 586.076167 102.455494 
L 587.091728 94.885003 
L 588.107289 83.744611 
L 589.12285 70.441725 
L 589.630631 66.96 
L 590.138411 68.170251 
L 590.646192 73.407346 
L 591.661753 86.587738 
L 592.677314 96.017497 
L 593.692875 101.839747 
L 594.708436 105.860249 
L 597.247338 114.205885 
L 598.262899 117.011773 
L 598.77068 117.942758 
L 599.27846 118.392861 
L 599.786241 118.298292 
L 600.294021 117.674455 
L 600.801802 116.617572 
L 601.817363 113.714146 
L 604.356265 105.41445 
L 605.371826 101.341758 
L 606.387387 95.629158 
L 607.402948 87.164697 
L 608.418509 77.120384 
L 608.92629 73.865617 
L 609.43407 73.60681 
L 609.941851 76.585205 
L 610.957412 87.463384 
L 611.972973 98.097134 
L 614.004095 115.780262 
L 615.019656 123.387145 
L 615.527437 125.58079 
L 616.035217 125.961893 
L 616.542998 124.432194 
L 617.050778 121.416513 
L 618.57412 109.221153 
L 621.620803 84.247322 
L 622.128583 82.895403 
L 622.636364 83.916156 
L 622.636364 83.916156 
" clip-path="url(#p4058e6db58)" style="fill: none; stroke: #2ca02c; stroke-width: 1.5; stroke-linecap: square"/>
   </g>
   <g id="patch_3">
    <path d="M 90 384.48 
L 90 51.84 
" style="fill: none; stroke: #000000; stroke-width: 0.8; stroke-linejoin: miter; stroke-linecap: square"/>
   </g>
   <g id="patch_4">
    <path d="M 648 384.48 
L 648 51.84 
" style="fill: none; stroke: #000000; stroke-width: 0.8; stroke-linejoin: miter; stroke-linecap: square"/>
   </g>
   <g id="patch_5">
    <path d="M 90 384.48 
L 648 384.48 
" style="fill: none; stroke: #000000; stroke-width: 0.8; stroke-linejoin: miter; stroke-linecap: square"/>
   </g>
   <g id="patch_6">
    <path d="M 90 51.84 
L 648 51.84 
" style="fill: none; stroke: #000000; stroke-width: 0.8; stroke-linejoin: miter; stroke-linecap: square"/>
   </g>
   <g id="text_20">
    <!-- Simulation: A=6.4, $\omega$=10.0, l=1.0, $\theta_0$=3.066592653589793 -->
    <g transform="translate(189.24 45.84) scale(0.12 -0.12)">
     <defs>
      <path id="DejaVuSans-53" d="M 3425 4513 
L 3425 3897 
Q 3066 4069 2747 4153 
Q 2428 4238 2131 4238 
Q 1616 4238 1336 4038 
Q 1056 3838 1056 3469 
Q 1056 3159 1242 3001 
Q 1428 2844 1947 2747 
L 2328 2669 
Q 3034 2534 3370 2195 
Q 3706 1856 3706 1288 
Q 3706 609 3251 259 
Q 2797 -91 1919 -91 
Q 1588 -91 1214 -16 
Q 841 59 441 206 
L 441 856 
Q 825 641 1194 531 
Q 1563 422 1919 422 
Q 2459 422 2753 634 
Q 3047 847 3047 1241 
Q 3047 1584 2836 1778 
Q 2625 1972 2144 2069 
L 1759 2144 
Q 1053 2284 737 2584 
Q 422 2884 422 3419 
Q 422 4038 858 4394 
Q 1294 4750 2059 4750 
Q 2388 4750 2728 4690 
Q 3069 4631 3425 4513 
z
" transform="scale(0.015625)"/>
      <path id="DejaVuSans-75" d="M 544 1381 
L 544 3500 
L 1119 3500 
L 1119 1403 
Q 1119 906 1312 657 
Q 1506 409 1894 409 
Q 2359 409 2629 706 
Q 2900 1003 2900 1516 
L 2900 3500 
L 3475 3500 
L 3475 0 
L 2900 0 
L 2900 538 
Q 2691 219 2414 64 
Q 2138 -91 1772 -91 
Q 1169 -91 856 284 
Q 544 659 544 1381 
z
M 1991 3584 
L 1991 3584 
z
" transform="scale(0.015625)"/>
      <path id="DejaVuSans-6c" d="M 603 4863 
L 1178 4863 
L 1178 0 
L 603 0 
L 603 4863 
z
" transform="scale(0.015625)"/>
      <path id="DejaVuSans-61" d="M 2194 1759 
Q 1497 1759 1228 1600 
Q 959 1441 959 1056 
Q 959 750 1161 570 
Q 1363 391 1709 391 
Q 2188 391 2477 730 
Q 2766 1069 2766 1631 
L 2766 1759 
L 2194 1759 
z
M 3341 1997 
L 3341 0 
L 2766 0 
L 2766 531 
Q 2569 213 2275 61 
Q 1981 -91 1556 -91 
Q 1019 -91 701 211 
Q 384 513 384 1019 
Q 384 1609 779 1909 
Q 1175 2209 1959 2209 
L 2766 2209 
L 2766 2266 
Q 2766 2663 2505 2880 
Q 2244 3097 1772 3097 
Q 1472 3097 1187 3025 
Q 903 2953 641 2809 
L 641 3341 
Q 956 3463 1253 3523 
Q 1550 3584 1831 3584 
Q 2591 3584 2966 3190 
Q 3341 2797 3341 1997 
z
" transform="scale(0.015625)"/>
      <path id="DejaVuSans-6f" d="M 1959 3097 
Q 1497 3097 1228 2736 
Q 959 2375 959 1747 
Q 959 1119 1226 758 
Q 1494 397 1959 397 
Q 2419 397 2687 759 
Q 2956 1122 2956 1747 
Q 2956 2369 2687 2733 
Q 2419 3097 1959 3097 
z
M 1959 3584 
Q 2709 3584 3137 3096 
Q 3566 2609 3566 1747 
Q 3566 888 3137 398 
Q 2709 -91 1959 -91 
Q 1206 -91 779 398 
Q 353 888 353 1747 
Q 353 2609 779 3096 
Q 1206 3584 1959 3584 
z
" transform="scale(0.015625)"/>
      <path id="DejaVuSans-6e" d="M 3513 2113 
L 3513 0 
L 2938 0 
L 2938 2094 
Q 2938 2591 2744 2837 
Q 2550 3084 2163 3084 
Q 1697 3084 1428 2787 
Q 1159 2491 1159 1978 
L 1159 0 
L 581 0 
L 581 3500 
L 1159 3500 
L 1159 2956 
Q 1366 3272 1645 3428 
Q 1925 3584 2291 3584 
Q 2894 3584 3203 3211 
Q 3513 2838 3513 2113 
z
" transform="scale(0.015625)"/>
      <path id="DejaVuSans-3a" d="M 750 794 
L 1409 794 
L 1409 0 
L 750 0 
L 750 794 
z
M 750 3309 
L 1409 3309 
L 1409 2516 
L 750 2516 
L 750 3309 
z
" transform="scale(0.015625)"/>
      <path id="DejaVuSans-41" d="M 2188 4044 
L 1331 1722 
L 3047 1722 
L 2188 4044 
z
M 1831 4666 
L 2547 4666 
L 4325 0 
L 3669 0 
L 3244 1197 
L 1141 1197 
L 716 0 
L 50 0 
L 1831 4666 
z
" transform="scale(0.015625)"/>
      <path id="DejaVuSans-3d" d="M 678 2906 
L 4684 2906 
L 4684 2381 
L 678 2381 
L 678 2906 
z
M 678 1631 
L 4684 1631 
L 4684 1100 
L 678 1100 
L 678 1631 
z
" transform="scale(0.015625)"/>
      <path id="DejaVuSans-36" d="M 2113 2584 
Q 1688 2584 1439 2293 
Q 1191 2003 1191 1497 
Q 1191 994 1439 701 
Q 1688 409 2113 409 
Q 2538 409 2786 701 
Q 3034 994 3034 1497 
Q 3034 2003 2786 2293 
Q 2538 2584 2113 2584 
z
M 3366 4563 
L 3366 3988 
Q 3128 4100 2886 4159 
Q 2644 4219 2406 4219 
Q 1781 4219 1451 3797 
Q 1122 3375 1075 2522 
Q 1259 2794 1537 2939 
Q 1816 3084 2150 3084 
Q 2853 3084 3261 2657 
Q 3669 2231 3669 1497 
Q 3669 778 3244 343 
Q 2819 -91 2113 -91 
Q 1303 -91 875 529 
Q 447 1150 447 2328 
Q 447 3434 972 4092 
Q 1497 4750 2381 4750 
Q 2619 4750 2861 4703 
Q 3103 4656 3366 4563 
z
" transform="scale(0.015625)"/>
      <path id="DejaVuSans-34" d="M 2419 4116 
L 825 1625 
L 2419 1625 
L 2419 4116 
z
M 2253 4666 
L 3047 4666 
L 3047 1625 
L 3713 1625 
L 3713 1100 
L 3047 1100 
L 3047 0 
L 2419 0 
L 2419 1100 
L 313 1100 
L 313 1709 
L 2253 4666 
z
" transform="scale(0.015625)"/>
      <path id="DejaVuSans-2c" d="M 750 794 
L 1409 794 
L 1409 256 
L 897 -744 
L 494 -744 
L 750 256 
L 750 794 
z
" transform="scale(0.015625)"/>
      <path id="DejaVuSans-Oblique-3c9" d="M 1369 -91 
Q 72 -91 434 1766 
Q 575 2500 1256 3500 
L 1875 3500 
Q 1231 2500 1088 1750 
Q 819 397 1519 397 
Q 2166 397 2478 2078 
L 3009 2078 
Q 2669 388 3316 397 
Q 4013 403 4275 1750 
Q 4419 2500 4169 3500 
L 4788 3500 
Q 5075 2500 4934 1766 
Q 4578 -94 3278 -91 
Q 2428 -88 2503 844 
Q 2194 -91 1369 -91 
z
" transform="scale(0.015625)"/>
      <path id="DejaVuSans-33" d="M 2597 2516 
Q 3050 2419 3304 2112 
Q 3559 1806 3559 1356 
Q 3559 666 3084 287 
Q 2609 -91 1734 -91 
Q 1441 -91 1130 -33 
Q 819 25 488 141 
L 488 750 
Q 750 597 1062 519 
Q 1375 441 1716 441 
Q 2309 441 2620 675 
Q 2931 909 2931 1356 
Q 2931 1769 2642 2001 
Q 2353 2234 1838 2234 
L 1294 2234 
L 1294 2753 
L 1863 2753 
Q 2328 2753 2575 2939 
Q 2822 3125 2822 3475 
Q 2822 3834 2567 4026 
Q 2313 4219 1838 4219 
Q 1578 4219 1281 4162 
Q 984 4106 628 3988 
L 628 4550 
Q 988 4650 1302 4700 
Q 1616 4750 1894 4750 
Q 2613 4750 3031 4423 
Q 3450 4097 3450 3541 
Q 3450 3153 3228 2886 
Q 3006 2619 2597 2516 
z
" transform="scale(0.015625)"/>
      <path id="DejaVuSans-39" d="M 703 97 
L 703 672 
Q 941 559 1184 500 
Q 1428 441 1663 441 
Q 2288 441 2617 861 
Q 2947 1281 2994 2138 
Q 2813 1869 2534 1725 
Q 2256 1581 1919 1581 
Q 1219 1581 811 2004 
Q 403 2428 403 3163 
Q 403 3881 828 4315 
Q 1253 4750 1959 4750 
Q 2769 4750 3195 4129 
Q 3622 3509 3622 2328 
Q 3622 1225 3098 567 
Q 2575 -91 1691 -91 
Q 1453 -91 1209 -44 
Q 966 3 703 97 
z
M 1959 2075 
Q 2384 2075 2632 2365 
Q 2881 2656 2881 3163 
Q 2881 3666 2632 3958 
Q 2384 4250 1959 4250 
Q 1534 4250 1286 3958 
Q 1038 3666 1038 3163 
Q 1038 2656 1286 2365 
Q 1534 2075 1959 2075 
z
" transform="scale(0.015625)"/>
      <path id="DejaVuSans-38" d="M 2034 2216 
Q 1584 2216 1326 1975 
Q 1069 1734 1069 1313 
Q 1069 891 1326 650 
Q 1584 409 2034 409 
Q 2484 409 2743 651 
Q 3003 894 3003 1313 
Q 3003 1734 2745 1975 
Q 2488 2216 2034 2216 
z
M 1403 2484 
Q 997 2584 770 2862 
Q 544 3141 544 3541 
Q 544 4100 942 4425 
Q 1341 4750 2034 4750 
Q 2731 4750 3128 4425 
Q 3525 4100 3525 3541 
Q 3525 3141 3298 2862 
Q 3072 2584 2669 2484 
Q 3125 2378 3379 2068 
Q 3634 1759 3634 1313 
Q 3634 634 3220 271 
Q 2806 -91 2034 -91 
Q 1263 -91 848 271 
Q 434 634 434 1313 
Q 434 1759 690 2068 
Q 947 2378 1403 2484 
z
M 1172 3481 
Q 1172 3119 1398 2916 
Q 1625 2713 2034 2713 
Q 2441 2713 2670 2916 
Q 2900 3119 2900 3481 
Q 2900 3844 2670 4047 
Q 2441 4250 2034 4250 
Q 1625 4250 1398 4047 
Q 1172 3844 1172 3481 
z
" transform="scale(0.015625)"/>
     </defs>
     <use xlink:href="#DejaVuSans-53" transform="translate(0 0.234375)"/>
     <use xlink:href="#DejaVuSans-69" transform="translate(63.476562 0.234375)"/>
     <use xlink:href="#DejaVuSans-6d" transform="translate(91.259766 0.234375)"/>
     <use xlink:href="#DejaVuSans-75" transform="translate(188.671875 0.234375)"/>
     <use xlink:href="#DejaVuSans-6c" transform="translate(252.050781 0.234375)"/>
     <use xlink:href="#DejaVuSans-61" transform="translate(279.833984 0.234375)"/>
     <use xlink:href="#DejaVuSans-74" transform="translate(341.113281 0.234375)"/>
     <use xlink:href="#DejaVuSans-69" transform="translate(380.322266 0.234375)"/>
     <use xlink:href="#DejaVuSans-6f" transform="translate(408.105469 0.234375)"/>
     <use xlink:href="#DejaVuSans-6e" transform="translate(469.287109 0.234375)"/>
     <use xlink:href="#DejaVuSans-3a" transform="translate(532.666016 0.234375)"/>
     <use xlink:href="#DejaVuSans-20" transform="translate(566.357422 0.234375)"/>
     <use xlink:href="#DejaVuSans-41" transform="translate(598.144531 0.234375)"/>
     <use xlink:href="#DejaVuSans-3d" transform="translate(666.552734 0.234375)"/>
     <use xlink:href="#DejaVuSans-36" transform="translate(750.341797 0.234375)"/>
     <use xlink:href="#DejaVuSans-2e" transform="translate(813.964844 0.234375)"/>
     <use xlink:href="#DejaVuSans-34" transform="translate(845.751953 0.234375)"/>
     <use xlink:href="#DejaVuSans-2c" transform="translate(909.375 0.234375)"/>
     <use xlink:href="#DejaVuSans-20" transform="translate(941.162109 0.234375)"/>
     <use xlink:href="#DejaVuSans-Oblique-3c9" transform="translate(972.949219 0.234375)"/>
     <use xlink:href="#DejaVuSans-3d" transform="translate(1056.689453 0.234375)"/>
     <use xlink:href="#DejaVuSans-31" transform="translate(1140.478516 0.234375)"/>
     <use xlink:href="#DejaVuSans-30" transform="translate(1204.101562 0.234375)"/>
     <use xlink:href="#DejaVuSans-2e" transform="translate(1267.724609 0.234375)"/>
     <use xlink:href="#DejaVuSans-30" transform="translate(1299.511719 0.234375)"/>
     <use xlink:href="#DejaVuSans-2c" transform="translate(1363.134766 0.234375)"/>
     <use xlink:href="#DejaVuSans-20" transform="translate(1394.921875 0.234375)"/>
     <use xlink:href="#DejaVuSans-6c" transform="translate(1426.708984 0.234375)"/>
     <use xlink:href="#DejaVuSans-3d" transform="translate(1454.492188 0.234375)"/>
     <use xlink:href="#DejaVuSans-31" transform="translate(1538.28125 0.234375)"/>
     <use xlink:href="#DejaVuSans-2e" transform="translate(1601.904297 0.234375)"/>
     <use xlink:href="#DejaVuSans-30" transform="translate(1633.691406 0.234375)"/>
     <use xlink:href="#DejaVuSans-2c" transform="translate(1697.314453 0.234375)"/>
     <use xlink:href="#DejaVuSans-20" transform="translate(1729.101562 0.234375)"/>
     <use xlink:href="#DejaVuSans-Oblique-3b8" transform="translate(1760.888672 0.234375)"/>
     <use xlink:href="#DejaVuSans-30" transform="translate(1822.070312 -16.171875) scale(0.7)"/>
     <use xlink:href="#DejaVuSans-3d" transform="translate(1869.34082 0.234375)"/>
     <use xlink:href="#DejaVuSans-33" transform="translate(1953.129883 0.234375)"/>
     <use xlink:href="#DejaVuSans-2e" transform="translate(2016.75293 0.234375)"/>
     <use xlink:href="#DejaVuSans-30" transform="translate(2048.540039 0.234375)"/>
     <use xlink:href="#DejaVuSans-36" transform="translate(2112.163086 0.234375)"/>
     <use xlink:href="#DejaVuSans-36" transform="translate(2175.786133 0.234375)"/>
     <use xlink:href="#DejaVuSans-35" transform="translate(2239.40918 0.234375)"/>
     <use xlink:href="#DejaVuSans-39" transform="translate(2297.532227 0.234375)"/>
     <use xlink:href="#DejaVuSans-32" transform="translate(2359.405273 0.234375)"/>
     <use xlink:href="#DejaVuSans-36" transform="translate(2423.02832 0.234375)"/>
     <use xlink:href="#DejaVuSans-35" transform="translate(2486.651367 0.234375)"/>
     <use xlink:href="#DejaVuSans-33" transform="translate(2550.274414 0.234375)"/>
     <use xlink:href="#DejaVuSans-35" transform="translate(2613.897461 0.234375)"/>
     <use xlink:href="#DejaVuSans-38" transform="translate(2677.520508 0.234375)"/>
     <use xlink:href="#DejaVuSans-39" transform="translate(2741.143555 0.234375)"/>
     <use xlink:href="#DejaVuSans-37" transform="translate(2804.766602 0.234375)"/>
     <use xlink:href="#DejaVuSans-39" transform="translate(2868.389648 0.234375)"/>
     <use xlink:href="#DejaVuSans-33" transform="translate(2932.012695 0.234375)"/>
    </g>
   </g>
   <g id="legend_1">
    <g id="patch_7">
     <path d="M 97 103.874375 
L 197.403125 103.874375 
Q 199.403125 103.874375 199.403125 101.874375 
L 199.403125 58.84 
Q 199.403125 56.84 197.403125 56.84 
L 97 56.84 
Q 95 56.84 95 58.84 
L 95 101.874375 
Q 95 103.874375 97 103.874375 
z
" style="fill: #ffffff; opacity: 0.8; stroke: #cccccc; stroke-linejoin: miter"/>
    </g>
    <g id="line2d_38">
     <path d="M 99 64.938437 
L 109 64.938437 
L 119 64.938437 
" style="fill: none; stroke: #1f77b4; stroke-width: 1.5; stroke-linecap: square"/>
    </g>
    <g id="text_21">
     <!-- Original -->
     <g transform="translate(127 68.438437) scale(0.1 -0.1)">
      <defs>
       <path id="DejaVuSans-4f" d="M 2522 4238 
Q 1834 4238 1429 3725 
Q 1025 3213 1025 2328 
Q 1025 1447 1429 934 
Q 1834 422 2522 422 
Q 3209 422 3611 934 
Q 4013 1447 4013 2328 
Q 4013 3213 3611 3725 
Q 3209 4238 2522 4238 
z
M 2522 4750 
Q 3503 4750 4090 4092 
Q 4678 3434 4678 2328 
Q 4678 1225 4090 567 
Q 3503 -91 2522 -91 
Q 1538 -91 948 565 
Q 359 1222 359 2328 
Q 359 3434 948 4092 
Q 1538 4750 2522 4750 
z
" transform="scale(0.015625)"/>
       <path id="DejaVuSans-72" d="M 2631 2963 
Q 2534 3019 2420 3045 
Q 2306 3072 2169 3072 
Q 1681 3072 1420 2755 
Q 1159 2438 1159 1844 
L 1159 0 
L 581 0 
L 581 3500 
L 1159 3500 
L 1159 2956 
Q 1341 3275 1631 3429 
Q 1922 3584 2338 3584 
Q 2397 3584 2469 3576 
Q 2541 3569 2628 3553 
L 2631 2963 
z
" transform="scale(0.015625)"/>
       <path id="DejaVuSans-67" d="M 2906 1791 
Q 2906 2416 2648 2759 
Q 2391 3103 1925 3103 
Q 1463 3103 1205 2759 
Q 947 2416 947 1791 
Q 947 1169 1205 825 
Q 1463 481 1925 481 
Q 2391 481 2648 825 
Q 2906 1169 2906 1791 
z
M 3481 434 
Q 3481 -459 3084 -895 
Q 2688 -1331 1869 -1331 
Q 1566 -1331 1297 -1286 
Q 1028 -1241 775 -1147 
L 775 -588 
Q 1028 -725 1275 -790 
Q 1522 -856 1778 -856 
Q 2344 -856 2625 -561 
Q 2906 -266 2906 331 
L 2906 616 
Q 2728 306 2450 153 
Q 2172 0 1784 0 
Q 1141 0 747 490 
Q 353 981 353 1791 
Q 353 2603 747 3093 
Q 1141 3584 1784 3584 
Q 2172 3584 2450 3431 
Q 2728 3278 2906 2969 
L 2906 3500 
L 3481 3500 
L 3481 434 
z
" transform="scale(0.015625)"/>
      </defs>
      <use xlink:href="#DejaVuSans-4f"/>
      <use xlink:href="#DejaVuSans-72" x="78.710938"/>
      <use xlink:href="#DejaVuSans-69" x="119.824219"/>
      <use xlink:href="#DejaVuSans-67" x="147.607422"/>
      <use xlink:href="#DejaVuSans-69" x="211.083984"/>
      <use xlink:href="#DejaVuSans-6e" x="238.867188"/>
      <use xlink:href="#DejaVuSans-61" x="302.246094"/>
      <use xlink:href="#DejaVuSans-6c" x="363.525391"/>
     </g>
    </g>
    <g id="line2d_39">
     <path d="M 99 79.616562 
L 109 79.616562 
L 119 79.616562 
" style="fill: none; stroke: #ff7f0e; stroke-width: 1.5; stroke-linecap: square"/>
    </g>
    <g id="text_22">
     <!-- First-Order -->
     <g transform="translate(127 83.116562) scale(0.1 -0.1)">
      <defs>
       <path id="DejaVuSans-46" d="M 628 4666 
L 3309 4666 
L 3309 4134 
L 1259 4134 
L 1259 2759 
L 3109 2759 
L 3109 2228 
L 1259 2228 
L 1259 0 
L 628 0 
L 628 4666 
z
" transform="scale(0.015625)"/>
       <path id="DejaVuSans-73" d="M 2834 3397 
L 2834 2853 
Q 2591 2978 2328 3040 
Q 2066 3103 1784 3103 
Q 1356 3103 1142 2972 
Q 928 2841 928 2578 
Q 928 2378 1081 2264 
Q 1234 2150 1697 2047 
L 1894 2003 
Q 2506 1872 2764 1633 
Q 3022 1394 3022 966 
Q 3022 478 2636 193 
Q 2250 -91 1575 -91 
Q 1294 -91 989 -36 
Q 684 19 347 128 
L 347 722 
Q 666 556 975 473 
Q 1284 391 1588 391 
Q 1994 391 2212 530 
Q 2431 669 2431 922 
Q 2431 1156 2273 1281 
Q 2116 1406 1581 1522 
L 1381 1569 
Q 847 1681 609 1914 
Q 372 2147 372 2553 
Q 372 3047 722 3315 
Q 1072 3584 1716 3584 
Q 2034 3584 2315 3537 
Q 2597 3491 2834 3397 
z
" transform="scale(0.015625)"/>
       <path id="DejaVuSans-2d" d="M 313 2009 
L 1997 2009 
L 1997 1497 
L 313 1497 
L 313 2009 
z
" transform="scale(0.015625)"/>
       <path id="DejaVuSans-64" d="M 2906 2969 
L 2906 4863 
L 3481 4863 
L 3481 0 
L 2906 0 
L 2906 525 
Q 2725 213 2448 61 
Q 2172 -91 1784 -91 
Q 1150 -91 751 415 
Q 353 922 353 1747 
Q 353 2572 751 3078 
Q 1150 3584 1784 3584 
Q 2172 3584 2448 3432 
Q 2725 3281 2906 2969 
z
M 947 1747 
Q 947 1113 1208 752 
Q 1469 391 1925 391 
Q 2381 391 2643 752 
Q 2906 1113 2906 1747 
Q 2906 2381 2643 2742 
Q 2381 3103 1925 3103 
Q 1469 3103 1208 2742 
Q 947 2381 947 1747 
z
" transform="scale(0.015625)"/>
      </defs>
      <use xlink:href="#DejaVuSans-46"/>
      <use xlink:href="#DejaVuSans-69" x="50.269531"/>
      <use xlink:href="#DejaVuSans-72" x="78.052734"/>
      <use xlink:href="#DejaVuSans-73" x="119.166016"/>
      <use xlink:href="#DejaVuSans-74" x="171.265625"/>
      <use xlink:href="#DejaVuSans-2d" x="210.474609"/>
      <use xlink:href="#DejaVuSans-4f" x="249.308594"/>
      <use xlink:href="#DejaVuSans-72" x="328.019531"/>
      <use xlink:href="#DejaVuSans-64" x="367.382812"/>
      <use xlink:href="#DejaVuSans-65" x="430.859375"/>
      <use xlink:href="#DejaVuSans-72" x="492.382812"/>
     </g>
    </g>
    <g id="line2d_40">
     <path d="M 99 94.294687 
L 109 94.294687 
L 119 94.294687 
" style="fill: none; stroke: #2ca02c; stroke-width: 1.5; stroke-linecap: square"/>
    </g>
    <g id="text_23">
     <!-- Second Order -->
     <g transform="translate(127 97.794687) scale(0.1 -0.1)">
      <defs>
       <path id="DejaVuSans-63" d="M 3122 3366 
L 3122 2828 
Q 2878 2963 2633 3030 
Q 2388 3097 2138 3097 
Q 1578 3097 1268 2742 
Q 959 2388 959 1747 
Q 959 1106 1268 751 
Q 1578 397 2138 397 
Q 2388 397 2633 464 
Q 2878 531 3122 666 
L 3122 134 
Q 2881 22 2623 -34 
Q 2366 -91 2075 -91 
Q 1284 -91 818 406 
Q 353 903 353 1747 
Q 353 2603 823 3093 
Q 1294 3584 2113 3584 
Q 2378 3584 2631 3529 
Q 2884 3475 3122 3366 
z
" transform="scale(0.015625)"/>
      </defs>
      <use xlink:href="#DejaVuSans-53"/>
      <use xlink:href="#DejaVuSans-65" x="63.476562"/>
      <use xlink:href="#DejaVuSans-63" x="125"/>
      <use xlink:href="#DejaVuSans-6f" x="179.980469"/>
      <use xlink:href="#DejaVuSans-6e" x="241.162109"/>
      <use xlink:href="#DejaVuSans-64" x="304.541016"/>
      <use xlink:href="#DejaVuSans-20" x="368.017578"/>
      <use xlink:href="#DejaVuSans-4f" x="399.804688"/>
      <use xlink:href="#DejaVuSans-72" x="478.515625"/>
      <use xlink:href="#DejaVuSans-64" x="517.878906"/>
      <use xlink:href="#DejaVuSans-65" x="581.355469"/>
      <use xlink:href="#DejaVuSans-72" x="642.878906"/>
     </g>
    </g>
   </g>
  </g>
 </g>
 <defs>
  <clipPath id="p4058e6db58">
   <rect x="90" y="51.84" width="558" height="332.64"/>
  </clipPath>
 </defs>
</svg>
