<?xml version="1.0" encoding="utf-8" standalone="no"?>
<!DOCTYPE svg PUBLIC "-//W3C//DTD SVG 1.1//EN"
  "http://www.w3.org/Graphics/SVG/1.1/DTD/svg11.dtd">
<svg xmlns:xlink="http://www.w3.org/1999/xlink" width="720pt" height="432pt" viewBox="0 0 720 432" xmlns="http://www.w3.org/2000/svg" version="1.1">
 <metadata>
  <rdf:RDF xmlns:dc="http://purl.org/dc/elements/1.1/" xmlns:cc="http://creativecommons.org/ns#" xmlns:rdf="http://www.w3.org/1999/02/22-rdf-syntax-ns#">
   <cc:Work>
    <dc:type rdf:resource="http://purl.org/dc/dcmitype/StillImage"/>
    <dc:date>2024-12-31T23:32:44.115597</dc:date>
    <dc:format>image/svg+xml</dc:format>
    <dc:creator>
     <cc:Agent>
      <dc:title>Matplotlib v3.7.2, https://matplotlib.org/</dc:title>
     </cc:Agent>
    </dc:creator>
   </cc:Work>
  </rdf:RDF>
 </metadata>
 <defs>
  <style type="text/css">*{stroke-linejoin: round; stroke-linecap: butt}</style>
 </defs>
 <g id="figure_1">
  <g id="patch_1">
   <path d="M 0 432 
L 720 432 
L 720 0 
L 0 0 
z
" style="fill: #ffffff"/>
  </g>
  <g id="axes_1">
   <g id="patch_2">
    <path d="M 90 384.48 
L 648 384.48 
L 648 51.84 
L 90 51.84 
z
" style="fill: #ffffff"/>
   </g>
   <g id="matplotlib.axis_1">
    <g id="xtick_1">
     <g id="line2d_1">
      <path d="M 115.363636 384.48 
L 115.363636 51.84 
" clip-path="url(#p885ce44807)" style="fill: none; stroke: #b0b0b0; stroke-width: 0.8; stroke-linecap: square"/>
     </g>
     <g id="line2d_2">
      <defs>
       <path id="m03635e95f2" d="M 0 0 
L 0 3.5 
" style="stroke: #000000; stroke-width: 0.8"/>
      </defs>
      <g>
       <use xlink:href="#m03635e95f2" x="115.363636" y="384.48" style="stroke: #000000; stroke-width: 0.8"/>
      </g>
     </g>
     <g id="text_1">
      <!-- 0.00 -->
      <g transform="translate(104.230824 399.078438) scale(0.1 -0.1)">
       <defs>
        <path id="DejaVuSans-30" d="M 2034 4250 
Q 1547 4250 1301 3770 
Q 1056 3291 1056 2328 
Q 1056 1369 1301 889 
Q 1547 409 2034 409 
Q 2525 409 2770 889 
Q 3016 1369 3016 2328 
Q 3016 3291 2770 3770 
Q 2525 4250 2034 4250 
z
M 2034 4750 
Q 2819 4750 3233 4129 
Q 3647 3509 3647 2328 
Q 3647 1150 3233 529 
Q 2819 -91 2034 -91 
Q 1250 -91 836 529 
Q 422 1150 422 2328 
Q 422 3509 836 4129 
Q 1250 4750 2034 4750 
z
" transform="scale(0.015625)"/>
        <path id="DejaVuSans-2e" d="M 684 794 
L 1344 794 
L 1344 0 
L 684 0 
L 684 794 
z
" transform="scale(0.015625)"/>
       </defs>
       <use xlink:href="#DejaVuSans-30"/>
       <use xlink:href="#DejaVuSans-2e" x="63.623047"/>
       <use xlink:href="#DejaVuSans-30" x="95.410156"/>
       <use xlink:href="#DejaVuSans-30" x="159.033203"/>
      </g>
     </g>
    </g>
    <g id="xtick_2">
     <g id="line2d_3">
      <path d="M 178.772727 384.48 
L 178.772727 51.84 
" clip-path="url(#p885ce44807)" style="fill: none; stroke: #b0b0b0; stroke-width: 0.8; stroke-linecap: square"/>
     </g>
     <g id="line2d_4">
      <g>
       <use xlink:href="#m03635e95f2" x="178.772727" y="384.48" style="stroke: #000000; stroke-width: 0.8"/>
      </g>
     </g>
     <g id="text_2">
      <!-- 0.25 -->
      <g transform="translate(167.639915 399.078438) scale(0.1 -0.1)">
       <defs>
        <path id="DejaVuSans-32" d="M 1228 531 
L 3431 531 
L 3431 0 
L 469 0 
L 469 531 
Q 828 903 1448 1529 
Q 2069 2156 2228 2338 
Q 2531 2678 2651 2914 
Q 2772 3150 2772 3378 
Q 2772 3750 2511 3984 
Q 2250 4219 1831 4219 
Q 1534 4219 1204 4116 
Q 875 4013 500 3803 
L 500 4441 
Q 881 4594 1212 4672 
Q 1544 4750 1819 4750 
Q 2544 4750 2975 4387 
Q 3406 4025 3406 3419 
Q 3406 3131 3298 2873 
Q 3191 2616 2906 2266 
Q 2828 2175 2409 1742 
Q 1991 1309 1228 531 
z
" transform="scale(0.015625)"/>
        <path id="DejaVuSans-35" d="M 691 4666 
L 3169 4666 
L 3169 4134 
L 1269 4134 
L 1269 2991 
Q 1406 3038 1543 3061 
Q 1681 3084 1819 3084 
Q 2600 3084 3056 2656 
Q 3513 2228 3513 1497 
Q 3513 744 3044 326 
Q 2575 -91 1722 -91 
Q 1428 -91 1123 -41 
Q 819 9 494 109 
L 494 744 
Q 775 591 1075 516 
Q 1375 441 1709 441 
Q 2250 441 2565 725 
Q 2881 1009 2881 1497 
Q 2881 1984 2565 2268 
Q 2250 2553 1709 2553 
Q 1456 2553 1204 2497 
Q 953 2441 691 2322 
L 691 4666 
z
" transform="scale(0.015625)"/>
       </defs>
       <use xlink:href="#DejaVuSans-30"/>
       <use xlink:href="#DejaVuSans-2e" x="63.623047"/>
       <use xlink:href="#DejaVuSans-32" x="95.410156"/>
       <use xlink:href="#DejaVuSans-35" x="159.033203"/>
      </g>
     </g>
    </g>
    <g id="xtick_3">
     <g id="line2d_5">
      <path d="M 242.181818 384.48 
L 242.181818 51.84 
" clip-path="url(#p885ce44807)" style="fill: none; stroke: #b0b0b0; stroke-width: 0.8; stroke-linecap: square"/>
     </g>
     <g id="line2d_6">
      <g>
       <use xlink:href="#m03635e95f2" x="242.181818" y="384.48" style="stroke: #000000; stroke-width: 0.8"/>
      </g>
     </g>
     <g id="text_3">
      <!-- 0.50 -->
      <g transform="translate(231.049006 399.078438) scale(0.1 -0.1)">
       <use xlink:href="#DejaVuSans-30"/>
       <use xlink:href="#DejaVuSans-2e" x="63.623047"/>
       <use xlink:href="#DejaVuSans-35" x="95.410156"/>
       <use xlink:href="#DejaVuSans-30" x="159.033203"/>
      </g>
     </g>
    </g>
    <g id="xtick_4">
     <g id="line2d_7">
      <path d="M 305.590909 384.48 
L 305.590909 51.84 
" clip-path="url(#p885ce44807)" style="fill: none; stroke: #b0b0b0; stroke-width: 0.8; stroke-linecap: square"/>
     </g>
     <g id="line2d_8">
      <g>
       <use xlink:href="#m03635e95f2" x="305.590909" y="384.48" style="stroke: #000000; stroke-width: 0.8"/>
      </g>
     </g>
     <g id="text_4">
      <!-- 0.75 -->
      <g transform="translate(294.458097 399.078438) scale(0.1 -0.1)">
       <defs>
        <path id="DejaVuSans-37" d="M 525 4666 
L 3525 4666 
L 3525 4397 
L 1831 0 
L 1172 0 
L 2766 4134 
L 525 4134 
L 525 4666 
z
" transform="scale(0.015625)"/>
       </defs>
       <use xlink:href="#DejaVuSans-30"/>
       <use xlink:href="#DejaVuSans-2e" x="63.623047"/>
       <use xlink:href="#DejaVuSans-37" x="95.410156"/>
       <use xlink:href="#DejaVuSans-35" x="159.033203"/>
      </g>
     </g>
    </g>
    <g id="xtick_5">
     <g id="line2d_9">
      <path d="M 369 384.48 
L 369 51.84 
" clip-path="url(#p885ce44807)" style="fill: none; stroke: #b0b0b0; stroke-width: 0.8; stroke-linecap: square"/>
     </g>
     <g id="line2d_10">
      <g>
       <use xlink:href="#m03635e95f2" x="369" y="384.48" style="stroke: #000000; stroke-width: 0.8"/>
      </g>
     </g>
     <g id="text_5">
      <!-- 1.00 -->
      <g transform="translate(357.867188 399.078438) scale(0.1 -0.1)">
       <defs>
        <path id="DejaVuSans-31" d="M 794 531 
L 1825 531 
L 1825 4091 
L 703 3866 
L 703 4441 
L 1819 4666 
L 2450 4666 
L 2450 531 
L 3481 531 
L 3481 0 
L 794 0 
L 794 531 
z
" transform="scale(0.015625)"/>
       </defs>
       <use xlink:href="#DejaVuSans-31"/>
       <use xlink:href="#DejaVuSans-2e" x="63.623047"/>
       <use xlink:href="#DejaVuSans-30" x="95.410156"/>
       <use xlink:href="#DejaVuSans-30" x="159.033203"/>
      </g>
     </g>
    </g>
    <g id="xtick_6">
     <g id="line2d_11">
      <path d="M 432.409091 384.48 
L 432.409091 51.84 
" clip-path="url(#p885ce44807)" style="fill: none; stroke: #b0b0b0; stroke-width: 0.8; stroke-linecap: square"/>
     </g>
     <g id="line2d_12">
      <g>
       <use xlink:href="#m03635e95f2" x="432.409091" y="384.48" style="stroke: #000000; stroke-width: 0.8"/>
      </g>
     </g>
     <g id="text_6">
      <!-- 1.25 -->
      <g transform="translate(421.276278 399.078438) scale(0.1 -0.1)">
       <use xlink:href="#DejaVuSans-31"/>
       <use xlink:href="#DejaVuSans-2e" x="63.623047"/>
       <use xlink:href="#DejaVuSans-32" x="95.410156"/>
       <use xlink:href="#DejaVuSans-35" x="159.033203"/>
      </g>
     </g>
    </g>
    <g id="xtick_7">
     <g id="line2d_13">
      <path d="M 495.818182 384.48 
L 495.818182 51.84 
" clip-path="url(#p885ce44807)" style="fill: none; stroke: #b0b0b0; stroke-width: 0.8; stroke-linecap: square"/>
     </g>
     <g id="line2d_14">
      <g>
       <use xlink:href="#m03635e95f2" x="495.818182" y="384.48" style="stroke: #000000; stroke-width: 0.8"/>
      </g>
     </g>
     <g id="text_7">
      <!-- 1.50 -->
      <g transform="translate(484.685369 399.078438) scale(0.1 -0.1)">
       <use xlink:href="#DejaVuSans-31"/>
       <use xlink:href="#DejaVuSans-2e" x="63.623047"/>
       <use xlink:href="#DejaVuSans-35" x="95.410156"/>
       <use xlink:href="#DejaVuSans-30" x="159.033203"/>
      </g>
     </g>
    </g>
    <g id="xtick_8">
     <g id="line2d_15">
      <path d="M 559.227273 384.48 
L 559.227273 51.84 
" clip-path="url(#p885ce44807)" style="fill: none; stroke: #b0b0b0; stroke-width: 0.8; stroke-linecap: square"/>
     </g>
     <g id="line2d_16">
      <g>
       <use xlink:href="#m03635e95f2" x="559.227273" y="384.48" style="stroke: #000000; stroke-width: 0.8"/>
      </g>
     </g>
     <g id="text_8">
      <!-- 1.75 -->
      <g transform="translate(548.09446 399.078438) scale(0.1 -0.1)">
       <use xlink:href="#DejaVuSans-31"/>
       <use xlink:href="#DejaVuSans-2e" x="63.623047"/>
       <use xlink:href="#DejaVuSans-37" x="95.410156"/>
       <use xlink:href="#DejaVuSans-35" x="159.033203"/>
      </g>
     </g>
    </g>
    <g id="xtick_9">
     <g id="line2d_17">
      <path d="M 622.636364 384.48 
L 622.636364 51.84 
" clip-path="url(#p885ce44807)" style="fill: none; stroke: #b0b0b0; stroke-width: 0.8; stroke-linecap: square"/>
     </g>
     <g id="line2d_18">
      <g>
       <use xlink:href="#m03635e95f2" x="622.636364" y="384.48" style="stroke: #000000; stroke-width: 0.8"/>
      </g>
     </g>
     <g id="text_9">
      <!-- 2.00 -->
      <g transform="translate(611.503551 399.078438) scale(0.1 -0.1)">
       <use xlink:href="#DejaVuSans-32"/>
       <use xlink:href="#DejaVuSans-2e" x="63.623047"/>
       <use xlink:href="#DejaVuSans-30" x="95.410156"/>
       <use xlink:href="#DejaVuSans-30" x="159.033203"/>
      </g>
     </g>
    </g>
    <g id="text_10">
     <!-- Time (t) -->
     <g transform="translate(349.315625 412.756563) scale(0.1 -0.1)">
      <defs>
       <path id="DejaVuSans-54" d="M -19 4666 
L 3928 4666 
L 3928 4134 
L 2272 4134 
L 2272 0 
L 1638 0 
L 1638 4134 
L -19 4134 
L -19 4666 
z
" transform="scale(0.015625)"/>
       <path id="DejaVuSans-69" d="M 603 3500 
L 1178 3500 
L 1178 0 
L 603 0 
L 603 3500 
z
M 603 4863 
L 1178 4863 
L 1178 4134 
L 603 4134 
L 603 4863 
z
" transform="scale(0.015625)"/>
       <path id="DejaVuSans-6d" d="M 3328 2828 
Q 3544 3216 3844 3400 
Q 4144 3584 4550 3584 
Q 5097 3584 5394 3201 
Q 5691 2819 5691 2113 
L 5691 0 
L 5113 0 
L 5113 2094 
Q 5113 2597 4934 2840 
Q 4756 3084 4391 3084 
Q 3944 3084 3684 2787 
Q 3425 2491 3425 1978 
L 3425 0 
L 2847 0 
L 2847 2094 
Q 2847 2600 2669 2842 
Q 2491 3084 2119 3084 
Q 1678 3084 1418 2786 
Q 1159 2488 1159 1978 
L 1159 0 
L 581 0 
L 581 3500 
L 1159 3500 
L 1159 2956 
Q 1356 3278 1631 3431 
Q 1906 3584 2284 3584 
Q 2666 3584 2933 3390 
Q 3200 3197 3328 2828 
z
" transform="scale(0.015625)"/>
       <path id="DejaVuSans-65" d="M 3597 1894 
L 3597 1613 
L 953 1613 
Q 991 1019 1311 708 
Q 1631 397 2203 397 
Q 2534 397 2845 478 
Q 3156 559 3463 722 
L 3463 178 
Q 3153 47 2828 -22 
Q 2503 -91 2169 -91 
Q 1331 -91 842 396 
Q 353 884 353 1716 
Q 353 2575 817 3079 
Q 1281 3584 2069 3584 
Q 2775 3584 3186 3129 
Q 3597 2675 3597 1894 
z
M 3022 2063 
Q 3016 2534 2758 2815 
Q 2500 3097 2075 3097 
Q 1594 3097 1305 2825 
Q 1016 2553 972 2059 
L 3022 2063 
z
" transform="scale(0.015625)"/>
       <path id="DejaVuSans-20" transform="scale(0.015625)"/>
       <path id="DejaVuSans-28" d="M 1984 4856 
Q 1566 4138 1362 3434 
Q 1159 2731 1159 2009 
Q 1159 1288 1364 580 
Q 1569 -128 1984 -844 
L 1484 -844 
Q 1016 -109 783 600 
Q 550 1309 550 2009 
Q 550 2706 781 3412 
Q 1013 4119 1484 4856 
L 1984 4856 
z
" transform="scale(0.015625)"/>
       <path id="DejaVuSans-74" d="M 1172 4494 
L 1172 3500 
L 2356 3500 
L 2356 3053 
L 1172 3053 
L 1172 1153 
Q 1172 725 1289 603 
Q 1406 481 1766 481 
L 2356 481 
L 2356 0 
L 1766 0 
Q 1100 0 847 248 
Q 594 497 594 1153 
L 594 3053 
L 172 3053 
L 172 3500 
L 594 3500 
L 594 4494 
L 1172 4494 
z
" transform="scale(0.015625)"/>
       <path id="DejaVuSans-29" d="M 513 4856 
L 1013 4856 
Q 1481 4119 1714 3412 
Q 1947 2706 1947 2009 
Q 1947 1309 1714 600 
Q 1481 -109 1013 -844 
L 513 -844 
Q 928 -128 1133 580 
Q 1338 1288 1338 2009 
Q 1338 2731 1133 3434 
Q 928 4138 513 4856 
z
" transform="scale(0.015625)"/>
      </defs>
      <use xlink:href="#DejaVuSans-54"/>
      <use xlink:href="#DejaVuSans-69" x="57.958984"/>
      <use xlink:href="#DejaVuSans-6d" x="85.742188"/>
      <use xlink:href="#DejaVuSans-65" x="183.154297"/>
      <use xlink:href="#DejaVuSans-20" x="244.677734"/>
      <use xlink:href="#DejaVuSans-28" x="276.464844"/>
      <use xlink:href="#DejaVuSans-74" x="315.478516"/>
      <use xlink:href="#DejaVuSans-29" x="354.6875"/>
     </g>
    </g>
   </g>
   <g id="matplotlib.axis_2">
    <g id="ytick_1">
     <g id="line2d_19">
      <path d="M 90 334.340982 
L 648 334.340982 
" clip-path="url(#p885ce44807)" style="fill: none; stroke: #b0b0b0; stroke-width: 0.8; stroke-linecap: square"/>
     </g>
     <g id="line2d_20">
      <defs>
       <path id="mf221bcc19a" d="M 0 0 
L -3.5 0 
" style="stroke: #000000; stroke-width: 0.8"/>
      </defs>
      <g>
       <use xlink:href="#mf221bcc19a" x="90" y="334.340982" style="stroke: #000000; stroke-width: 0.8"/>
      </g>
     </g>
     <g id="text_11">
      <!-- −200 -->
      <g transform="translate(55.532812 338.1402) scale(0.1 -0.1)">
       <defs>
        <path id="DejaVuSans-2212" d="M 678 2272 
L 4684 2272 
L 4684 1741 
L 678 1741 
L 678 2272 
z
" transform="scale(0.015625)"/>
       </defs>
       <use xlink:href="#DejaVuSans-2212"/>
       <use xlink:href="#DejaVuSans-32" x="83.789062"/>
       <use xlink:href="#DejaVuSans-30" x="147.412109"/>
       <use xlink:href="#DejaVuSans-30" x="211.035156"/>
      </g>
     </g>
    </g>
    <g id="ytick_2">
     <g id="line2d_21">
      <path d="M 90 276.514712 
L 648 276.514712 
" clip-path="url(#p885ce44807)" style="fill: none; stroke: #b0b0b0; stroke-width: 0.8; stroke-linecap: square"/>
     </g>
     <g id="line2d_22">
      <g>
       <use xlink:href="#mf221bcc19a" x="90" y="276.514712" style="stroke: #000000; stroke-width: 0.8"/>
      </g>
     </g>
     <g id="text_12">
      <!-- −100 -->
      <g transform="translate(55.532812 280.313931) scale(0.1 -0.1)">
       <use xlink:href="#DejaVuSans-2212"/>
       <use xlink:href="#DejaVuSans-31" x="83.789062"/>
       <use xlink:href="#DejaVuSans-30" x="147.412109"/>
       <use xlink:href="#DejaVuSans-30" x="211.035156"/>
      </g>
     </g>
    </g>
    <g id="ytick_3">
     <g id="line2d_23">
      <path d="M 90 218.688443 
L 648 218.688443 
" clip-path="url(#p885ce44807)" style="fill: none; stroke: #b0b0b0; stroke-width: 0.8; stroke-linecap: square"/>
     </g>
     <g id="line2d_24">
      <g>
       <use xlink:href="#mf221bcc19a" x="90" y="218.688443" style="stroke: #000000; stroke-width: 0.8"/>
      </g>
     </g>
     <g id="text_13">
      <!-- 0 -->
      <g transform="translate(76.6375 222.487661) scale(0.1 -0.1)">
       <use xlink:href="#DejaVuSans-30"/>
      </g>
     </g>
    </g>
    <g id="ytick_4">
     <g id="line2d_25">
      <path d="M 90 160.862173 
L 648 160.862173 
" clip-path="url(#p885ce44807)" style="fill: none; stroke: #b0b0b0; stroke-width: 0.8; stroke-linecap: square"/>
     </g>
     <g id="line2d_26">
      <g>
       <use xlink:href="#mf221bcc19a" x="90" y="160.862173" style="stroke: #000000; stroke-width: 0.8"/>
      </g>
     </g>
     <g id="text_14">
      <!-- 100 -->
      <g transform="translate(63.9125 164.661392) scale(0.1 -0.1)">
       <use xlink:href="#DejaVuSans-31"/>
       <use xlink:href="#DejaVuSans-30" x="63.623047"/>
       <use xlink:href="#DejaVuSans-30" x="127.246094"/>
      </g>
     </g>
    </g>
    <g id="ytick_5">
     <g id="line2d_27">
      <path d="M 90 103.035904 
L 648 103.035904 
" clip-path="url(#p885ce44807)" style="fill: none; stroke: #b0b0b0; stroke-width: 0.8; stroke-linecap: square"/>
     </g>
     <g id="line2d_28">
      <g>
       <use xlink:href="#mf221bcc19a" x="90" y="103.035904" style="stroke: #000000; stroke-width: 0.8"/>
      </g>
     </g>
     <g id="text_15">
      <!-- 200 -->
      <g transform="translate(63.9125 106.835122) scale(0.1 -0.1)">
       <use xlink:href="#DejaVuSans-32"/>
       <use xlink:href="#DejaVuSans-30" x="63.623047"/>
       <use xlink:href="#DejaVuSans-30" x="127.246094"/>
      </g>
     </g>
    </g>
    <g id="text_16">
     <!-- $\theta(t)$ -->
     <g transform="translate(49.453125 227.11) rotate(-90) scale(0.1 -0.1)">
      <defs>
       <path id="DejaVuSans-Oblique-3b8" d="M 2913 2219 
L 925 2219 
Q 791 1284 928 888 
Q 1100 400 1566 400 
Q 2034 400 2391 891 
Q 2703 1322 2913 2219 
z
M 3009 2750 
Q 3094 3638 2984 3950 
Q 2813 4444 2353 4444 
Q 1875 4444 1525 3956 
Q 1250 3563 1034 2750 
L 3009 2750 
z
M 2444 4913 
Q 3194 4913 3494 4250 
Q 3794 3591 3566 2422 
Q 3341 1256 2781 594 
Q 2225 -72 1475 -72 
Q 722 -72 425 594 
Q 128 1256 353 2422 
Q 581 3591 1134 4250 
Q 1691 4913 2444 4913 
z
" transform="scale(0.015625)"/>
       <path id="DejaVuSans-Oblique-74" d="M 2706 3500 
L 2619 3053 
L 1472 3053 
L 1100 1153 
Q 1081 1047 1072 975 
Q 1063 903 1063 863 
Q 1063 663 1183 572 
Q 1303 481 1569 481 
L 2150 481 
L 2053 0 
L 1503 0 
Q 991 0 739 200 
Q 488 400 488 806 
Q 488 878 497 964 
Q 506 1050 525 1153 
L 897 3053 
L 409 3053 
L 500 3500 
L 978 3500 
L 1172 4494 
L 1747 4494 
L 1556 3500 
L 2706 3500 
z
" transform="scale(0.015625)"/>
      </defs>
      <use xlink:href="#DejaVuSans-Oblique-3b8" transform="translate(0 0.234375)"/>
      <use xlink:href="#DejaVuSans-28" transform="translate(61.181641 0.234375)"/>
      <use xlink:href="#DejaVuSans-Oblique-74" transform="translate(100.195312 0.234375)"/>
      <use xlink:href="#DejaVuSans-29" transform="translate(139.404297 0.234375)"/>
     </g>
    </g>
   </g>
   <g id="line2d_29">
    <path d="M 115.363636 216.915146 
L 126.027027 217.029689 
L 138.213759 217.400628 
L 167.157248 218.603871 
L 181.375102 219.376679 
L 200.670762 220.462741 
L 211.841933 220.812504 
L 226.567568 221.020329 
L 271.252252 221.527394 
L 290.547912 221.686167 
L 311.366912 221.596494 
L 399.21294 220.847355 
L 415.969697 220.680654 
L 427.648649 220.789174 
L 439.3276 221.127218 
L 475.887797 222.374782 
L 495.691237 223.010323 
L 519.556921 223.845084 
L 530.728092 223.964703 
L 543.930385 223.86858 
L 594.708436 223.256639 
L 622.636364 223.068998 
L 622.636364 223.068998 
" clip-path="url(#p885ce44807)" style="fill: none; stroke: #1f77b4; stroke-width: 1.5; stroke-linecap: square"/>
   </g>
   <g id="line2d_30">
    <path d="M 115.363636 216.915146 
L 126.027027 217.030441 
L 137.198198 217.377872 
L 151.923833 218.075035 
L 177.820639 219.328621 
L 189.49959 219.640531 
L 200.162981 219.709624 
L 211.334152 219.559868 
L 224.536446 219.150545 
L 258.55774 217.973844 
L 269.22113 217.891453 
L 279.37674 218.027087 
L 290.040131 218.397879 
L 302.226863 219.062549 
L 321.522523 220.380888 
L 338.279279 221.44543 
L 349.958231 221.971444 
L 361.129402 222.257293 
L 373.316134 222.335391 
L 389.05733 222.188833 
L 410.384111 222.012427 
L 422.063063 222.152308 
L 432.218673 222.49767 
L 441.866503 223.054243 
L 452.022113 223.86932 
L 463.701065 225.042602 
L 479.44226 226.873263 
L 501.784603 229.46287 
L 515.494676 230.808058 
L 529.20475 231.925344 
L 571.350532 235.152185 
L 580.998362 236.260534 
L 589.630631 237.471354 
L 598.262899 238.909507 
L 606.895168 240.582493 
L 615.527437 242.486004 
L 622.636364 244.209565 
L 622.636364 244.209565 
" clip-path="url(#p885ce44807)" style="fill: none; stroke: #ff7f0e; stroke-width: 1.5; stroke-linecap: square"/>
   </g>
   <g id="line2d_31">
    <path d="M 115.363636 216.915146 
L 126.027027 217.029688 
L 138.213759 217.400488 
L 167.157248 218.595765 
L 174.266175 219.094661 
L 178.8362 219.636596 
L 182.390663 220.294508 
L 184.929566 220.98127 
L 186.960688 221.736243 
L 188.99181 222.758215 
L 190.515152 223.775093 
L 192.038493 225.108962 
L 193.054054 226.238087 
L 194.069615 227.628882 
L 195.085176 229.342295 
L 196.100737 231.485016 
L 197.116298 234.224504 
L 198.131859 237.788995 
L 199.14742 242.473489 
L 200.162981 248.752356 
L 201.178542 257.334529 
L 202.194103 269.121992 
L 203.209664 285.18614 
L 204.225225 306.194727 
L 205.748567 341.804748 
L 206.256347 350.818911 
L 206.764128 355.908255 
L 207.271908 356.028476 
L 207.779689 350.993701 
L 208.287469 341.612805 
L 209.30303 315.722394 
L 210.826372 275.757819 
L 212.349713 241.967476 
L 215.396396 180.990085 
L 216.411957 165.600137 
L 216.919738 161.046962 
L 217.427518 159.239529 
L 217.935299 160.390861 
L 218.443079 164.330567 
L 218.95086 170.620291 
L 219.966421 187.606786 
L 223.520885 256.745651 
L 225.552007 295.620839 
L 226.059787 302.77758 
L 226.567568 307.51295 
L 227.075348 309.16089 
L 227.583129 307.422187 
L 228.090909 302.391237 
L 228.59869 294.53292 
L 229.614251 273.235827 
L 234.692056 152.246299 
L 235.199836 143.813811 
L 235.707617 138.048566 
L 236.215397 135.515608 
L 236.723178 136.42623 
L 237.230958 140.538168 
L 237.738739 147.274784 
L 238.7543 165.828916 
L 243.832105 270.214728 
L 244.339885 277.130479 
L 244.847666 281.494766 
L 245.355446 282.785343 
L 245.863227 280.750868 
L 246.371007 275.580653 
L 246.878788 267.785518 
L 247.894349 247.383185 
L 251.448812 165.606486 
L 253.479934 116.390724 
L 253.987715 106.42398 
L 254.495495 99.234527 
L 255.003276 95.733045 
L 255.511057 96.291147 
L 256.018837 100.680371 
L 256.526618 108.12757 
L 258.049959 138.078568 
L 259.06552 157.095276 
L 260.081081 172.999745 
L 261.096642 186.199981 
L 262.619984 202.975646 
L 266.174447 238.603206 
L 267.190008 246.631509 
L 267.697789 249.470978 
L 268.205569 251.282023 
L 268.71335 251.923048 
L 269.22113 251.332112 
L 269.728911 249.549155 
L 270.236691 246.690444 
L 271.252252 238.564881 
L 272.775594 223.445188 
L 275.822277 191.174063 
L 276.837838 178.326571 
L 277.853399 162.321792 
L 278.86896 141.592331 
L 279.884521 115.355521 
L 280.900082 87.151633 
L 281.407862 75.682262 
L 281.915643 68.534368 
L 282.423423 67.336898 
L 282.931204 72.481955 
L 283.438984 82.901702 
L 284.454545 111.974786 
L 285.977887 155.241223 
L 287.501229 189.970221 
L 290.547912 251.11286 
L 291.563473 266.517252 
L 292.071253 271.02801 
L 292.579034 272.657189 
L 293.086814 271.246058 
L 293.594595 266.989735 
L 294.102375 260.425105 
L 295.117936 243.043809 
L 298.6724 172.898722 
L 301.211302 121.3635 
L 301.719083 115.086033 
L 302.226863 112.093321 
L 302.734644 112.993324 
L 303.242424 117.802239 
L 303.750205 126.027491 
L 304.765766 149.111276 
L 309.843571 279.153782 
L 310.351351 287.88093 
L 310.859132 293.463984 
L 311.366912 295.27495 
L 311.874693 293.172382 
L 312.382473 287.573365 
L 312.890254 279.207085 
L 313.905815 257.522655 
L 318.475839 152.931637 
L 318.98362 145.748482 
L 319.4914 141.735336 
L 319.999181 141.470792 
L 320.506962 145.093859 
L 321.014742 152.230773 
L 322.030303 173.721912 
L 324.569206 239.148348 
L 327.108108 304.232479 
L 327.615889 314.468757 
L 328.123669 321.944855 
L 328.63145 325.794733 
L 329.13923 325.654324 
L 329.647011 321.7005 
L 330.154791 314.596426 
L 331.170352 294.808677 
L 333.201474 252.701065 
L 336.248157 196.647224 
L 337.263718 179.61531 
L 337.771499 172.685564 
L 338.279279 167.56295 
L 338.78706 164.787499 
L 339.29484 164.719588 
L 339.802621 167.382491 
L 340.310401 172.498254 
L 341.325962 187.797643 
L 343.864865 234.854511 
L 345.388206 265.613214 
L 346.403767 290.473137 
L 348.94267 362.369451 
L 349.45045 369.071948 
L 349.958231 369.36 
L 350.466011 363.20891 
L 350.973792 351.932482 
L 353.512695 282.764738 
L 354.528256 263.067858 
L 355.543817 247.373566 
L 357.574939 221.196339 
L 360.113841 190.771755 
L 361.129402 181.752776 
L 361.637183 178.961601 
L 362.144963 177.619955 
L 362.652744 177.844468 
L 363.160524 179.612514 
L 363.668305 182.778713 
L 364.683866 192.205337 
L 366.207207 210.009237 
L 369.25389 248.025559 
L 370.269451 262.989162 
L 371.285012 280.590745 
L 373.823915 329.4518 
L 374.331695 335.040395 
L 374.839476 336.950139 
L 375.347256 334.733728 
L 375.855037 328.602113 
L 376.362817 319.288272 
L 377.378378 295.272241 
L 380.425061 220.0909 
L 382.456183 172.921172 
L 383.471744 155.242599 
L 383.979525 150.255008 
L 384.487305 148.650858 
L 384.995086 150.588639 
L 385.502867 155.772602 
L 386.010647 163.56009 
L 387.026208 183.661503 
L 391.596233 282.98686 
L 392.104013 291.083699 
L 392.611794 296.70829 
L 393.119574 299.121035 
L 393.627355 297.933353 
L 394.135135 293.218962 
L 394.642916 285.50871 
L 395.658477 263.971542 
L 398.70516 187.285814 
L 400.228501 150.039838 
L 401.244062 130.839453 
L 401.751843 125.10319 
L 402.259623 122.759418 
L 402.767404 124.004756 
L 403.275184 128.573497 
L 403.782965 135.808997 
L 404.798526 154.916263 
L 409.36855 247.784876 
L 410.384111 265.162753 
L 410.891892 271.380913 
L 411.399672 275.053925 
L 411.907453 275.75051 
L 412.415233 273.318422 
L 412.923014 268.006729 
L 413.938575 251.094585 
L 415.969697 208.750596 
L 418.000819 163.702502 
L 419.524161 123.428487 
L 420.539722 96.002278 
L 421.047502 85.16587 
L 421.555283 78.257352 
L 422.063063 76.474775 
L 422.570844 80.059608 
L 423.078624 88.117215 
L 424.094185 111.579084 
L 425.617527 146.501747 
L 426.633088 164.058785 
L 427.648649 177.306162 
L 428.66421 187.471304 
L 429.679771 195.666972 
L 431.203112 206.069643 
L 435.265356 231.251755 
L 436.280917 236.572346 
L 437.296478 240.464411 
L 437.804259 241.656757 
L 438.312039 242.266756 
L 438.81982 242.269413 
L 439.3276 241.666692 
L 439.835381 240.487706 
L 440.343161 238.790232 
L 441.358722 234.144549 
L 442.882064 225.391381 
L 446.944308 199.916158 
L 448.467649 188.589097 
L 449.48321 179.243292 
L 450.498771 167.704355 
L 451.514333 153.457044 
L 454.053235 111.787741 
L 454.561016 106.280074 
L 455.068796 103.451545 
L 455.576577 103.836329 
L 456.084357 107.548901 
L 456.592138 114.245982 
L 457.607699 133.682994 
L 462.177723 232.075612 
L 463.701065 262.073382 
L 464.208845 270.196404 
L 464.716626 276.407843 
L 465.224406 280.179681 
L 465.732187 281.185444 
L 466.239967 279.342307 
L 466.747748 274.902126 
L 467.255528 268.326565 
L 468.271089 251.246416 
L 473.348894 156.417553 
L 473.856675 149.773693 
L 474.364455 145.218963 
L 474.872236 143.284962 
L 475.380016 144.257061 
L 475.887797 148.085304 
L 476.395577 154.395222 
L 477.411138 172.363627 
L 479.950041 227.304965 
L 482.996724 292.213773 
L 483.504505 300.548611 
L 484.012285 306.82903 
L 484.520066 310.551823 
L 485.027846 311.392976 
L 485.535627 309.368891 
L 486.043407 304.805217 
L 487.058968 290.562398 
L 490.613432 232.818752 
L 493.660115 187.98529 
L 494.675676 176.137959 
L 495.183456 172.124781 
L 495.691237 169.914178 
L 496.199017 169.725305 
L 496.706798 171.593532 
L 497.214578 175.351114 
L 498.230139 187.075459 
L 499.753481 209.723751 
L 502.292383 249.751912 
L 503.307944 268.34887 
L 504.323505 290.755188 
L 505.846847 332.004376 
L 506.862408 356.982463 
L 507.370188 364.098827 
L 507.877969 365.645662 
L 508.385749 361.364716 
L 508.89353 352.19763 
L 511.940213 280.404068 
L 512.955774 265.48775 
L 513.971335 254.851158 
L 514.986896 247.285173 
L 516.002457 241.865172 
L 517.018018 237.893161 
L 518.033579 235.035747 
L 519.04914 233.05342 
L 520.064701 231.75989 
L 521.080262 231.054442 
L 521.588043 230.904956 
L 522.095823 230.885164 
L 522.603604 230.992928 
L 523.111384 231.228182 
L 524.126945 232.09731 
L 525.142506 233.545164 
L 526.158067 235.661158 
L 527.173628 238.578634 
L 528.189189 242.508512 
L 529.20475 247.73796 
L 530.220311 254.624716 
L 531.235872 263.589999 
L 532.251433 275.042305 
L 533.774775 296.418366 
L 534.790336 310.980181 
L 535.298116 316.936822 
L 535.805897 321.146412 
L 536.313677 323.005112 
L 536.821458 322.186144 
L 537.329238 318.67267 
L 537.837019 312.737584 
L 538.85258 295.690371 
L 544.945946 178.498191 
L 545.961507 163.286451 
L 546.469287 158.03349 
L 546.977068 154.956866 
L 547.484848 154.300321 
L 547.992629 156.058146 
L 548.50041 160.004898 
L 549.00819 165.75245 
L 550.023751 180.73357 
L 553.578215 241.352801 
L 555.101556 266.059984 
L 556.117117 278.258566 
L 556.624898 281.764372 
L 557.132678 282.928342 
L 557.640459 281.645633 
L 558.148239 278.033154 
L 558.65602 272.392347 
L 559.671581 256.962891 
L 561.702703 219.294672 
L 566.272727 133.865262 
L 566.780508 126.970872 
L 567.288288 121.970736 
L 567.796069 119.270003 
L 568.303849 119.037574 
L 568.81163 121.153342 
L 569.31941 125.27716 
L 570.334971 137.541572 
L 572.366093 165.057034 
L 573.381654 176.662728 
L 574.397215 186.510382 
L 575.920557 198.911688 
L 578.459459 216.988426 
L 580.998362 234.245999 
L 582.013923 239.921803 
L 582.521704 242.114395 
L 583.029484 243.741838 
L 583.537265 244.722577 
L 584.045045 244.993325 
L 584.552826 244.533018 
L 585.060606 243.361905 
L 585.568387 241.534279 
L 586.583948 236.295792 
L 588.107289 226.15974 
L 591.661753 200.304076 
L 592.677314 191.981598 
L 593.692875 182.070666 
L 594.708436 169.40212 
L 595.723997 152.619259 
L 596.739558 130.370334 
L 598.77068 77.539066 
L 599.27846 69.482869 
L 599.786241 66.96 
L 600.294021 70.571925 
L 600.801802 79.659349 
L 601.817363 107.167115 
L 603.340704 149.413578 
L 604.356265 172.245219 
L 605.879607 201.044468 
L 608.92629 253.366029 
L 609.43407 259.994734 
L 609.941851 264.906698 
L 610.449631 267.612352 
L 610.957412 267.838332 
L 611.465192 265.590075 
L 611.972973 261.131786 
L 612.988534 247.593074 
L 615.019656 213.675771 
L 617.558559 168.901005 
L 619.589681 130.729044 
L 620.097461 123.245154 
L 620.605242 117.992121 
L 621.113022 115.68708 
L 621.620803 116.828492 
L 622.128583 121.411088 
L 622.636364 128.988256 
L 622.636364 128.988256 
" clip-path="url(#p885ce44807)" style="fill: none; stroke: #2ca02c; stroke-width: 1.5; stroke-linecap: square"/>
   </g>
   <g id="patch_3">
    <path d="M 90 384.48 
L 90 51.84 
" style="fill: none; stroke: #000000; stroke-width: 0.8; stroke-linejoin: miter; stroke-linecap: square"/>
   </g>
   <g id="patch_4">
    <path d="M 648 384.48 
L 648 51.84 
" style="fill: none; stroke: #000000; stroke-width: 0.8; stroke-linejoin: miter; stroke-linecap: square"/>
   </g>
   <g id="patch_5">
    <path d="M 90 384.48 
L 648 384.48 
" style="fill: none; stroke: #000000; stroke-width: 0.8; stroke-linejoin: miter; stroke-linecap: square"/>
   </g>
   <g id="patch_6">
    <path d="M 90 51.84 
L 648 51.84 
" style="fill: none; stroke: #000000; stroke-width: 0.8; stroke-linejoin: miter; stroke-linecap: square"/>
   </g>
   <g id="text_17">
    <!-- Simulation: A=6.4, $\omega$=10.0, l=2.8, $\theta_0$=3.066592653589793 -->
    <g transform="translate(189.36 45.84) scale(0.12 -0.12)">
     <defs>
      <path id="DejaVuSans-53" d="M 3425 4513 
L 3425 3897 
Q 3066 4069 2747 4153 
Q 2428 4238 2131 4238 
Q 1616 4238 1336 4038 
Q 1056 3838 1056 3469 
Q 1056 3159 1242 3001 
Q 1428 2844 1947 2747 
L 2328 2669 
Q 3034 2534 3370 2195 
Q 3706 1856 3706 1288 
Q 3706 609 3251 259 
Q 2797 -91 1919 -91 
Q 1588 -91 1214 -16 
Q 841 59 441 206 
L 441 856 
Q 825 641 1194 531 
Q 1563 422 1919 422 
Q 2459 422 2753 634 
Q 3047 847 3047 1241 
Q 3047 1584 2836 1778 
Q 2625 1972 2144 2069 
L 1759 2144 
Q 1053 2284 737 2584 
Q 422 2884 422 3419 
Q 422 4038 858 4394 
Q 1294 4750 2059 4750 
Q 2388 4750 2728 4690 
Q 3069 4631 3425 4513 
z
" transform="scale(0.015625)"/>
      <path id="DejaVuSans-75" d="M 544 1381 
L 544 3500 
L 1119 3500 
L 1119 1403 
Q 1119 906 1312 657 
Q 1506 409 1894 409 
Q 2359 409 2629 706 
Q 2900 1003 2900 1516 
L 2900 3500 
L 3475 3500 
L 3475 0 
L 2900 0 
L 2900 538 
Q 2691 219 2414 64 
Q 2138 -91 1772 -91 
Q 1169 -91 856 284 
Q 544 659 544 1381 
z
M 1991 3584 
L 1991 3584 
z
" transform="scale(0.015625)"/>
      <path id="DejaVuSans-6c" d="M 603 4863 
L 1178 4863 
L 1178 0 
L 603 0 
L 603 4863 
z
" transform="scale(0.015625)"/>
      <path id="DejaVuSans-61" d="M 2194 1759 
Q 1497 1759 1228 1600 
Q 959 1441 959 1056 
Q 959 750 1161 570 
Q 1363 391 1709 391 
Q 2188 391 2477 730 
Q 2766 1069 2766 1631 
L 2766 1759 
L 2194 1759 
z
M 3341 1997 
L 3341 0 
L 2766 0 
L 2766 531 
Q 2569 213 2275 61 
Q 1981 -91 1556 -91 
Q 1019 -91 701 211 
Q 384 513 384 1019 
Q 384 1609 779 1909 
Q 1175 2209 1959 2209 
L 2766 2209 
L 2766 2266 
Q 2766 2663 2505 2880 
Q 2244 3097 1772 3097 
Q 1472 3097 1187 3025 
Q 903 2953 641 2809 
L 641 3341 
Q 956 3463 1253 3523 
Q 1550 3584 1831 3584 
Q 2591 3584 2966 3190 
Q 3341 2797 3341 1997 
z
" transform="scale(0.015625)"/>
      <path id="DejaVuSans-6f" d="M 1959 3097 
Q 1497 3097 1228 2736 
Q 959 2375 959 1747 
Q 959 1119 1226 758 
Q 1494 397 1959 397 
Q 2419 397 2687 759 
Q 2956 1122 2956 1747 
Q 2956 2369 2687 2733 
Q 2419 3097 1959 3097 
z
M 1959 3584 
Q 2709 3584 3137 3096 
Q 3566 2609 3566 1747 
Q 3566 888 3137 398 
Q 2709 -91 1959 -91 
Q 1206 -91 779 398 
Q 353 888 353 1747 
Q 353 2609 779 3096 
Q 1206 3584 1959 3584 
z
" transform="scale(0.015625)"/>
      <path id="DejaVuSans-6e" d="M 3513 2113 
L 3513 0 
L 2938 0 
L 2938 2094 
Q 2938 2591 2744 2837 
Q 2550 3084 2163 3084 
Q 1697 3084 1428 2787 
Q 1159 2491 1159 1978 
L 1159 0 
L 581 0 
L 581 3500 
L 1159 3500 
L 1159 2956 
Q 1366 3272 1645 3428 
Q 1925 3584 2291 3584 
Q 2894 3584 3203 3211 
Q 3513 2838 3513 2113 
z
" transform="scale(0.015625)"/>
      <path id="DejaVuSans-3a" d="M 750 794 
L 1409 794 
L 1409 0 
L 750 0 
L 750 794 
z
M 750 3309 
L 1409 3309 
L 1409 2516 
L 750 2516 
L 750 3309 
z
" transform="scale(0.015625)"/>
      <path id="DejaVuSans-41" d="M 2188 4044 
L 1331 1722 
L 3047 1722 
L 2188 4044 
z
M 1831 4666 
L 2547 4666 
L 4325 0 
L 3669 0 
L 3244 1197 
L 1141 1197 
L 716 0 
L 50 0 
L 1831 4666 
z
" transform="scale(0.015625)"/>
      <path id="DejaVuSans-3d" d="M 678 2906 
L 4684 2906 
L 4684 2381 
L 678 2381 
L 678 2906 
z
M 678 1631 
L 4684 1631 
L 4684 1100 
L 678 1100 
L 678 1631 
z
" transform="scale(0.015625)"/>
      <path id="DejaVuSans-36" d="M 2113 2584 
Q 1688 2584 1439 2293 
Q 1191 2003 1191 1497 
Q 1191 994 1439 701 
Q 1688 409 2113 409 
Q 2538 409 2786 701 
Q 3034 994 3034 1497 
Q 3034 2003 2786 2293 
Q 2538 2584 2113 2584 
z
M 3366 4563 
L 3366 3988 
Q 3128 4100 2886 4159 
Q 2644 4219 2406 4219 
Q 1781 4219 1451 3797 
Q 1122 3375 1075 2522 
Q 1259 2794 1537 2939 
Q 1816 3084 2150 3084 
Q 2853 3084 3261 2657 
Q 3669 2231 3669 1497 
Q 3669 778 3244 343 
Q 2819 -91 2113 -91 
Q 1303 -91 875 529 
Q 447 1150 447 2328 
Q 447 3434 972 4092 
Q 1497 4750 2381 4750 
Q 2619 4750 2861 4703 
Q 3103 4656 3366 4563 
z
" transform="scale(0.015625)"/>
      <path id="DejaVuSans-34" d="M 2419 4116 
L 825 1625 
L 2419 1625 
L 2419 4116 
z
M 2253 4666 
L 3047 4666 
L 3047 1625 
L 3713 1625 
L 3713 1100 
L 3047 1100 
L 3047 0 
L 2419 0 
L 2419 1100 
L 313 1100 
L 313 1709 
L 2253 4666 
z
" transform="scale(0.015625)"/>
      <path id="DejaVuSans-2c" d="M 750 794 
L 1409 794 
L 1409 256 
L 897 -744 
L 494 -744 
L 750 256 
L 750 794 
z
" transform="scale(0.015625)"/>
      <path id="DejaVuSans-Oblique-3c9" d="M 1369 -91 
Q 72 -91 434 1766 
Q 575 2500 1256 3500 
L 1875 3500 
Q 1231 2500 1088 1750 
Q 819 397 1519 397 
Q 2166 397 2478 2078 
L 3009 2078 
Q 2669 388 3316 397 
Q 4013 403 4275 1750 
Q 4419 2500 4169 3500 
L 4788 3500 
Q 5075 2500 4934 1766 
Q 4578 -94 3278 -91 
Q 2428 -88 2503 844 
Q 2194 -91 1369 -91 
z
" transform="scale(0.015625)"/>
      <path id="DejaVuSans-38" d="M 2034 2216 
Q 1584 2216 1326 1975 
Q 1069 1734 1069 1313 
Q 1069 891 1326 650 
Q 1584 409 2034 409 
Q 2484 409 2743 651 
Q 3003 894 3003 1313 
Q 3003 1734 2745 1975 
Q 2488 2216 2034 2216 
z
M 1403 2484 
Q 997 2584 770 2862 
Q 544 3141 544 3541 
Q 544 4100 942 4425 
Q 1341 4750 2034 4750 
Q 2731 4750 3128 4425 
Q 3525 4100 3525 3541 
Q 3525 3141 3298 2862 
Q 3072 2584 2669 2484 
Q 3125 2378 3379 2068 
Q 3634 1759 3634 1313 
Q 3634 634 3220 271 
Q 2806 -91 2034 -91 
Q 1263 -91 848 271 
Q 434 634 434 1313 
Q 434 1759 690 2068 
Q 947 2378 1403 2484 
z
M 1172 3481 
Q 1172 3119 1398 2916 
Q 1625 2713 2034 2713 
Q 2441 2713 2670 2916 
Q 2900 3119 2900 3481 
Q 2900 3844 2670 4047 
Q 2441 4250 2034 4250 
Q 1625 4250 1398 4047 
Q 1172 3844 1172 3481 
z
" transform="scale(0.015625)"/>
      <path id="DejaVuSans-33" d="M 2597 2516 
Q 3050 2419 3304 2112 
Q 3559 1806 3559 1356 
Q 3559 666 3084 287 
Q 2609 -91 1734 -91 
Q 1441 -91 1130 -33 
Q 819 25 488 141 
L 488 750 
Q 750 597 1062 519 
Q 1375 441 1716 441 
Q 2309 441 2620 675 
Q 2931 909 2931 1356 
Q 2931 1769 2642 2001 
Q 2353 2234 1838 2234 
L 1294 2234 
L 1294 2753 
L 1863 2753 
Q 2328 2753 2575 2939 
Q 2822 3125 2822 3475 
Q 2822 3834 2567 4026 
Q 2313 4219 1838 4219 
Q 1578 4219 1281 4162 
Q 984 4106 628 3988 
L 628 4550 
Q 988 4650 1302 4700 
Q 1616 4750 1894 4750 
Q 2613 4750 3031 4423 
Q 3450 4097 3450 3541 
Q 3450 3153 3228 2886 
Q 3006 2619 2597 2516 
z
" transform="scale(0.015625)"/>
      <path id="DejaVuSans-39" d="M 703 97 
L 703 672 
Q 941 559 1184 500 
Q 1428 441 1663 441 
Q 2288 441 2617 861 
Q 2947 1281 2994 2138 
Q 2813 1869 2534 1725 
Q 2256 1581 1919 1581 
Q 1219 1581 811 2004 
Q 403 2428 403 3163 
Q 403 3881 828 4315 
Q 1253 4750 1959 4750 
Q 2769 4750 3195 4129 
Q 3622 3509 3622 2328 
Q 3622 1225 3098 567 
Q 2575 -91 1691 -91 
Q 1453 -91 1209 -44 
Q 966 3 703 97 
z
M 1959 2075 
Q 2384 2075 2632 2365 
Q 2881 2656 2881 3163 
Q 2881 3666 2632 3958 
Q 2384 4250 1959 4250 
Q 1534 4250 1286 3958 
Q 1038 3666 1038 3163 
Q 1038 2656 1286 2365 
Q 1534 2075 1959 2075 
z
" transform="scale(0.015625)"/>
     </defs>
     <use xlink:href="#DejaVuSans-53" transform="translate(0 0.234375)"/>
     <use xlink:href="#DejaVuSans-69" transform="translate(63.476562 0.234375)"/>
     <use xlink:href="#DejaVuSans-6d" transform="translate(91.259766 0.234375)"/>
     <use xlink:href="#DejaVuSans-75" transform="translate(188.671875 0.234375)"/>
     <use xlink:href="#DejaVuSans-6c" transform="translate(252.050781 0.234375)"/>
     <use xlink:href="#DejaVuSans-61" transform="translate(279.833984 0.234375)"/>
     <use xlink:href="#DejaVuSans-74" transform="translate(341.113281 0.234375)"/>
     <use xlink:href="#DejaVuSans-69" transform="translate(380.322266 0.234375)"/>
     <use xlink:href="#DejaVuSans-6f" transform="translate(408.105469 0.234375)"/>
     <use xlink:href="#DejaVuSans-6e" transform="translate(469.287109 0.234375)"/>
     <use xlink:href="#DejaVuSans-3a" transform="translate(532.666016 0.234375)"/>
     <use xlink:href="#DejaVuSans-20" transform="translate(566.357422 0.234375)"/>
     <use xlink:href="#DejaVuSans-41" transform="translate(598.144531 0.234375)"/>
     <use xlink:href="#DejaVuSans-3d" transform="translate(666.552734 0.234375)"/>
     <use xlink:href="#DejaVuSans-36" transform="translate(750.341797 0.234375)"/>
     <use xlink:href="#DejaVuSans-2e" transform="translate(813.964844 0.234375)"/>
     <use xlink:href="#DejaVuSans-34" transform="translate(845.751953 0.234375)"/>
     <use xlink:href="#DejaVuSans-2c" transform="translate(909.375 0.234375)"/>
     <use xlink:href="#DejaVuSans-20" transform="translate(941.162109 0.234375)"/>
     <use xlink:href="#DejaVuSans-Oblique-3c9" transform="translate(972.949219 0.234375)"/>
     <use xlink:href="#DejaVuSans-3d" transform="translate(1056.689453 0.234375)"/>
     <use xlink:href="#DejaVuSans-31" transform="translate(1140.478516 0.234375)"/>
     <use xlink:href="#DejaVuSans-30" transform="translate(1204.101562 0.234375)"/>
     <use xlink:href="#DejaVuSans-2e" transform="translate(1267.724609 0.234375)"/>
     <use xlink:href="#DejaVuSans-30" transform="translate(1299.511719 0.234375)"/>
     <use xlink:href="#DejaVuSans-2c" transform="translate(1363.134766 0.234375)"/>
     <use xlink:href="#DejaVuSans-20" transform="translate(1394.921875 0.234375)"/>
     <use xlink:href="#DejaVuSans-6c" transform="translate(1426.708984 0.234375)"/>
     <use xlink:href="#DejaVuSans-3d" transform="translate(1454.492188 0.234375)"/>
     <use xlink:href="#DejaVuSans-32" transform="translate(1538.28125 0.234375)"/>
     <use xlink:href="#DejaVuSans-2e" transform="translate(1601.904297 0.234375)"/>
     <use xlink:href="#DejaVuSans-38" transform="translate(1631.066406 0.234375)"/>
     <use xlink:href="#DejaVuSans-2c" transform="translate(1694.689453 0.234375)"/>
     <use xlink:href="#DejaVuSans-20" transform="translate(1726.476562 0.234375)"/>
     <use xlink:href="#DejaVuSans-Oblique-3b8" transform="translate(1758.263672 0.234375)"/>
     <use xlink:href="#DejaVuSans-30" transform="translate(1819.445312 -16.171875) scale(0.7)"/>
     <use xlink:href="#DejaVuSans-3d" transform="translate(1866.71582 0.234375)"/>
     <use xlink:href="#DejaVuSans-33" transform="translate(1950.504883 0.234375)"/>
     <use xlink:href="#DejaVuSans-2e" transform="translate(2014.12793 0.234375)"/>
     <use xlink:href="#DejaVuSans-30" transform="translate(2045.915039 0.234375)"/>
     <use xlink:href="#DejaVuSans-36" transform="translate(2109.538086 0.234375)"/>
     <use xlink:href="#DejaVuSans-36" transform="translate(2173.161133 0.234375)"/>
     <use xlink:href="#DejaVuSans-35" transform="translate(2236.78418 0.234375)"/>
     <use xlink:href="#DejaVuSans-39" transform="translate(2294.907227 0.234375)"/>
     <use xlink:href="#DejaVuSans-32" transform="translate(2356.780273 0.234375)"/>
     <use xlink:href="#DejaVuSans-36" transform="translate(2420.40332 0.234375)"/>
     <use xlink:href="#DejaVuSans-35" transform="translate(2484.026367 0.234375)"/>
     <use xlink:href="#DejaVuSans-33" transform="translate(2547.649414 0.234375)"/>
     <use xlink:href="#DejaVuSans-35" transform="translate(2611.272461 0.234375)"/>
     <use xlink:href="#DejaVuSans-38" transform="translate(2674.895508 0.234375)"/>
     <use xlink:href="#DejaVuSans-39" transform="translate(2738.518555 0.234375)"/>
     <use xlink:href="#DejaVuSans-37" transform="translate(2802.141602 0.234375)"/>
     <use xlink:href="#DejaVuSans-39" transform="translate(2865.764648 0.234375)"/>
     <use xlink:href="#DejaVuSans-33" transform="translate(2929.387695 0.234375)"/>
    </g>
   </g>
   <g id="legend_1">
    <g id="patch_7">
     <path d="M 97 103.874375 
L 197.403125 103.874375 
Q 199.403125 103.874375 199.403125 101.874375 
L 199.403125 58.84 
Q 199.403125 56.84 197.403125 56.84 
L 97 56.84 
Q 95 56.84 95 58.84 
L 95 101.874375 
Q 95 103.874375 97 103.874375 
z
" style="fill: #ffffff; opacity: 0.8; stroke: #cccccc; stroke-linejoin: miter"/>
    </g>
    <g id="line2d_32">
     <path d="M 99 64.938437 
L 109 64.938437 
L 119 64.938437 
" style="fill: none; stroke: #1f77b4; stroke-width: 1.5; stroke-linecap: square"/>
    </g>
    <g id="text_18">
     <!-- Original -->
     <g transform="translate(127 68.438437) scale(0.1 -0.1)">
      <defs>
       <path id="DejaVuSans-4f" d="M 2522 4238 
Q 1834 4238 1429 3725 
Q 1025 3213 1025 2328 
Q 1025 1447 1429 934 
Q 1834 422 2522 422 
Q 3209 422 3611 934 
Q 4013 1447 4013 2328 
Q 4013 3213 3611 3725 
Q 3209 4238 2522 4238 
z
M 2522 4750 
Q 3503 4750 4090 4092 
Q 4678 3434 4678 2328 
Q 4678 1225 4090 567 
Q 3503 -91 2522 -91 
Q 1538 -91 948 565 
Q 359 1222 359 2328 
Q 359 3434 948 4092 
Q 1538 4750 2522 4750 
z
" transform="scale(0.015625)"/>
       <path id="DejaVuSans-72" d="M 2631 2963 
Q 2534 3019 2420 3045 
Q 2306 3072 2169 3072 
Q 1681 3072 1420 2755 
Q 1159 2438 1159 1844 
L 1159 0 
L 581 0 
L 581 3500 
L 1159 3500 
L 1159 2956 
Q 1341 3275 1631 3429 
Q 1922 3584 2338 3584 
Q 2397 3584 2469 3576 
Q 2541 3569 2628 3553 
L 2631 2963 
z
" transform="scale(0.015625)"/>
       <path id="DejaVuSans-67" d="M 2906 1791 
Q 2906 2416 2648 2759 
Q 2391 3103 1925 3103 
Q 1463 3103 1205 2759 
Q 947 2416 947 1791 
Q 947 1169 1205 825 
Q 1463 481 1925 481 
Q 2391 481 2648 825 
Q 2906 1169 2906 1791 
z
M 3481 434 
Q 3481 -459 3084 -895 
Q 2688 -1331 1869 -1331 
Q 1566 -1331 1297 -1286 
Q 1028 -1241 775 -1147 
L 775 -588 
Q 1028 -725 1275 -790 
Q 1522 -856 1778 -856 
Q 2344 -856 2625 -561 
Q 2906 -266 2906 331 
L 2906 616 
Q 2728 306 2450 153 
Q 2172 0 1784 0 
Q 1141 0 747 490 
Q 353 981 353 1791 
Q 353 2603 747 3093 
Q 1141 3584 1784 3584 
Q 2172 3584 2450 3431 
Q 2728 3278 2906 2969 
L 2906 3500 
L 3481 3500 
L 3481 434 
z
" transform="scale(0.015625)"/>
      </defs>
      <use xlink:href="#DejaVuSans-4f"/>
      <use xlink:href="#DejaVuSans-72" x="78.710938"/>
      <use xlink:href="#DejaVuSans-69" x="119.824219"/>
      <use xlink:href="#DejaVuSans-67" x="147.607422"/>
      <use xlink:href="#DejaVuSans-69" x="211.083984"/>
      <use xlink:href="#DejaVuSans-6e" x="238.867188"/>
      <use xlink:href="#DejaVuSans-61" x="302.246094"/>
      <use xlink:href="#DejaVuSans-6c" x="363.525391"/>
     </g>
    </g>
    <g id="line2d_33">
     <path d="M 99 79.616562 
L 109 79.616562 
L 119 79.616562 
" style="fill: none; stroke: #ff7f0e; stroke-width: 1.5; stroke-linecap: square"/>
    </g>
    <g id="text_19">
     <!-- First-Order -->
     <g transform="translate(127 83.116562) scale(0.1 -0.1)">
      <defs>
       <path id="DejaVuSans-46" d="M 628 4666 
L 3309 4666 
L 3309 4134 
L 1259 4134 
L 1259 2759 
L 3109 2759 
L 3109 2228 
L 1259 2228 
L 1259 0 
L 628 0 
L 628 4666 
z
" transform="scale(0.015625)"/>
       <path id="DejaVuSans-73" d="M 2834 3397 
L 2834 2853 
Q 2591 2978 2328 3040 
Q 2066 3103 1784 3103 
Q 1356 3103 1142 2972 
Q 928 2841 928 2578 
Q 928 2378 1081 2264 
Q 1234 2150 1697 2047 
L 1894 2003 
Q 2506 1872 2764 1633 
Q 3022 1394 3022 966 
Q 3022 478 2636 193 
Q 2250 -91 1575 -91 
Q 1294 -91 989 -36 
Q 684 19 347 128 
L 347 722 
Q 666 556 975 473 
Q 1284 391 1588 391 
Q 1994 391 2212 530 
Q 2431 669 2431 922 
Q 2431 1156 2273 1281 
Q 2116 1406 1581 1522 
L 1381 1569 
Q 847 1681 609 1914 
Q 372 2147 372 2553 
Q 372 3047 722 3315 
Q 1072 3584 1716 3584 
Q 2034 3584 2315 3537 
Q 2597 3491 2834 3397 
z
" transform="scale(0.015625)"/>
       <path id="DejaVuSans-2d" d="M 313 2009 
L 1997 2009 
L 1997 1497 
L 313 1497 
L 313 2009 
z
" transform="scale(0.015625)"/>
       <path id="DejaVuSans-64" d="M 2906 2969 
L 2906 4863 
L 3481 4863 
L 3481 0 
L 2906 0 
L 2906 525 
Q 2725 213 2448 61 
Q 2172 -91 1784 -91 
Q 1150 -91 751 415 
Q 353 922 353 1747 
Q 353 2572 751 3078 
Q 1150 3584 1784 3584 
Q 2172 3584 2448 3432 
Q 2725 3281 2906 2969 
z
M 947 1747 
Q 947 1113 1208 752 
Q 1469 391 1925 391 
Q 2381 391 2643 752 
Q 2906 1113 2906 1747 
Q 2906 2381 2643 2742 
Q 2381 3103 1925 3103 
Q 1469 3103 1208 2742 
Q 947 2381 947 1747 
z
" transform="scale(0.015625)"/>
      </defs>
      <use xlink:href="#DejaVuSans-46"/>
      <use xlink:href="#DejaVuSans-69" x="50.269531"/>
      <use xlink:href="#DejaVuSans-72" x="78.052734"/>
      <use xlink:href="#DejaVuSans-73" x="119.166016"/>
      <use xlink:href="#DejaVuSans-74" x="171.265625"/>
      <use xlink:href="#DejaVuSans-2d" x="210.474609"/>
      <use xlink:href="#DejaVuSans-4f" x="249.308594"/>
      <use xlink:href="#DejaVuSans-72" x="328.019531"/>
      <use xlink:href="#DejaVuSans-64" x="367.382812"/>
      <use xlink:href="#DejaVuSans-65" x="430.859375"/>
      <use xlink:href="#DejaVuSans-72" x="492.382812"/>
     </g>
    </g>
    <g id="line2d_34">
     <path d="M 99 94.294687 
L 109 94.294687 
L 119 94.294687 
" style="fill: none; stroke: #2ca02c; stroke-width: 1.5; stroke-linecap: square"/>
    </g>
    <g id="text_20">
     <!-- Second Order -->
     <g transform="translate(127 97.794687) scale(0.1 -0.1)">
      <defs>
       <path id="DejaVuSans-63" d="M 3122 3366 
L 3122 2828 
Q 2878 2963 2633 3030 
Q 2388 3097 2138 3097 
Q 1578 3097 1268 2742 
Q 959 2388 959 1747 
Q 959 1106 1268 751 
Q 1578 397 2138 397 
Q 2388 397 2633 464 
Q 2878 531 3122 666 
L 3122 134 
Q 2881 22 2623 -34 
Q 2366 -91 2075 -91 
Q 1284 -91 818 406 
Q 353 903 353 1747 
Q 353 2603 823 3093 
Q 1294 3584 2113 3584 
Q 2378 3584 2631 3529 
Q 2884 3475 3122 3366 
z
" transform="scale(0.015625)"/>
      </defs>
      <use xlink:href="#DejaVuSans-53"/>
      <use xlink:href="#DejaVuSans-65" x="63.476562"/>
      <use xlink:href="#DejaVuSans-63" x="125"/>
      <use xlink:href="#DejaVuSans-6f" x="179.980469"/>
      <use xlink:href="#DejaVuSans-6e" x="241.162109"/>
      <use xlink:href="#DejaVuSans-64" x="304.541016"/>
      <use xlink:href="#DejaVuSans-20" x="368.017578"/>
      <use xlink:href="#DejaVuSans-4f" x="399.804688"/>
      <use xlink:href="#DejaVuSans-72" x="478.515625"/>
      <use xlink:href="#DejaVuSans-64" x="517.878906"/>
      <use xlink:href="#DejaVuSans-65" x="581.355469"/>
      <use xlink:href="#DejaVuSans-72" x="642.878906"/>
     </g>
    </g>
   </g>
  </g>
 </g>
 <defs>
  <clipPath id="p885ce44807">
   <rect x="90" y="51.84" width="558" height="332.64"/>
  </clipPath>
 </defs>
</svg>
