<?xml version="1.0" encoding="utf-8" standalone="no"?>
<!DOCTYPE svg PUBLIC "-//W3C//DTD SVG 1.1//EN"
  "http://www.w3.org/Graphics/SVG/1.1/DTD/svg11.dtd">
<svg xmlns:xlink="http://www.w3.org/1999/xlink" width="720pt" height="432pt" viewBox="0 0 720 432" xmlns="http://www.w3.org/2000/svg" version="1.1">
 <metadata>
  <rdf:RDF xmlns:dc="http://purl.org/dc/elements/1.1/" xmlns:cc="http://creativecommons.org/ns#" xmlns:rdf="http://www.w3.org/1999/02/22-rdf-syntax-ns#">
   <cc:Work>
    <dc:type rdf:resource="http://purl.org/dc/dcmitype/StillImage"/>
    <dc:date>2024-12-31T23:33:47.252548</dc:date>
    <dc:format>image/svg+xml</dc:format>
    <dc:creator>
     <cc:Agent>
      <dc:title>Matplotlib v3.7.2, https://matplotlib.org/</dc:title>
     </cc:Agent>
    </dc:creator>
   </cc:Work>
  </rdf:RDF>
 </metadata>
 <defs>
  <style type="text/css">*{stroke-linejoin: round; stroke-linecap: butt}</style>
 </defs>
 <g id="figure_1">
  <g id="patch_1">
   <path d="M 0 432 
L 720 432 
L 720 0 
L 0 0 
z
" style="fill: #ffffff"/>
  </g>
  <g id="axes_1">
   <g id="patch_2">
    <path d="M 90 384.48 
L 648 384.48 
L 648 51.84 
L 90 51.84 
z
" style="fill: #ffffff"/>
   </g>
   <g id="matplotlib.axis_1">
    <g id="xtick_1">
     <g id="line2d_1">
      <path d="M 115.363636 384.48 
L 115.363636 51.84 
" clip-path="url(#pdbf0caa351)" style="fill: none; stroke: #b0b0b0; stroke-width: 0.8; stroke-linecap: square"/>
     </g>
     <g id="line2d_2">
      <defs>
       <path id="mae9740dda4" d="M 0 0 
L 0 3.5 
" style="stroke: #000000; stroke-width: 0.8"/>
      </defs>
      <g>
       <use xlink:href="#mae9740dda4" x="115.363636" y="384.48" style="stroke: #000000; stroke-width: 0.8"/>
      </g>
     </g>
     <g id="text_1">
      <!-- 0.00 -->
      <g transform="translate(104.230824 399.078438) scale(0.1 -0.1)">
       <defs>
        <path id="DejaVuSans-30" d="M 2034 4250 
Q 1547 4250 1301 3770 
Q 1056 3291 1056 2328 
Q 1056 1369 1301 889 
Q 1547 409 2034 409 
Q 2525 409 2770 889 
Q 3016 1369 3016 2328 
Q 3016 3291 2770 3770 
Q 2525 4250 2034 4250 
z
M 2034 4750 
Q 2819 4750 3233 4129 
Q 3647 3509 3647 2328 
Q 3647 1150 3233 529 
Q 2819 -91 2034 -91 
Q 1250 -91 836 529 
Q 422 1150 422 2328 
Q 422 3509 836 4129 
Q 1250 4750 2034 4750 
z
" transform="scale(0.015625)"/>
        <path id="DejaVuSans-2e" d="M 684 794 
L 1344 794 
L 1344 0 
L 684 0 
L 684 794 
z
" transform="scale(0.015625)"/>
       </defs>
       <use xlink:href="#DejaVuSans-30"/>
       <use xlink:href="#DejaVuSans-2e" x="63.623047"/>
       <use xlink:href="#DejaVuSans-30" x="95.410156"/>
       <use xlink:href="#DejaVuSans-30" x="159.033203"/>
      </g>
     </g>
    </g>
    <g id="xtick_2">
     <g id="line2d_3">
      <path d="M 178.772727 384.48 
L 178.772727 51.84 
" clip-path="url(#pdbf0caa351)" style="fill: none; stroke: #b0b0b0; stroke-width: 0.8; stroke-linecap: square"/>
     </g>
     <g id="line2d_4">
      <g>
       <use xlink:href="#mae9740dda4" x="178.772727" y="384.48" style="stroke: #000000; stroke-width: 0.8"/>
      </g>
     </g>
     <g id="text_2">
      <!-- 0.25 -->
      <g transform="translate(167.639915 399.078438) scale(0.1 -0.1)">
       <defs>
        <path id="DejaVuSans-32" d="M 1228 531 
L 3431 531 
L 3431 0 
L 469 0 
L 469 531 
Q 828 903 1448 1529 
Q 2069 2156 2228 2338 
Q 2531 2678 2651 2914 
Q 2772 3150 2772 3378 
Q 2772 3750 2511 3984 
Q 2250 4219 1831 4219 
Q 1534 4219 1204 4116 
Q 875 4013 500 3803 
L 500 4441 
Q 881 4594 1212 4672 
Q 1544 4750 1819 4750 
Q 2544 4750 2975 4387 
Q 3406 4025 3406 3419 
Q 3406 3131 3298 2873 
Q 3191 2616 2906 2266 
Q 2828 2175 2409 1742 
Q 1991 1309 1228 531 
z
" transform="scale(0.015625)"/>
        <path id="DejaVuSans-35" d="M 691 4666 
L 3169 4666 
L 3169 4134 
L 1269 4134 
L 1269 2991 
Q 1406 3038 1543 3061 
Q 1681 3084 1819 3084 
Q 2600 3084 3056 2656 
Q 3513 2228 3513 1497 
Q 3513 744 3044 326 
Q 2575 -91 1722 -91 
Q 1428 -91 1123 -41 
Q 819 9 494 109 
L 494 744 
Q 775 591 1075 516 
Q 1375 441 1709 441 
Q 2250 441 2565 725 
Q 2881 1009 2881 1497 
Q 2881 1984 2565 2268 
Q 2250 2553 1709 2553 
Q 1456 2553 1204 2497 
Q 953 2441 691 2322 
L 691 4666 
z
" transform="scale(0.015625)"/>
       </defs>
       <use xlink:href="#DejaVuSans-30"/>
       <use xlink:href="#DejaVuSans-2e" x="63.623047"/>
       <use xlink:href="#DejaVuSans-32" x="95.410156"/>
       <use xlink:href="#DejaVuSans-35" x="159.033203"/>
      </g>
     </g>
    </g>
    <g id="xtick_3">
     <g id="line2d_5">
      <path d="M 242.181818 384.48 
L 242.181818 51.84 
" clip-path="url(#pdbf0caa351)" style="fill: none; stroke: #b0b0b0; stroke-width: 0.8; stroke-linecap: square"/>
     </g>
     <g id="line2d_6">
      <g>
       <use xlink:href="#mae9740dda4" x="242.181818" y="384.48" style="stroke: #000000; stroke-width: 0.8"/>
      </g>
     </g>
     <g id="text_3">
      <!-- 0.50 -->
      <g transform="translate(231.049006 399.078438) scale(0.1 -0.1)">
       <use xlink:href="#DejaVuSans-30"/>
       <use xlink:href="#DejaVuSans-2e" x="63.623047"/>
       <use xlink:href="#DejaVuSans-35" x="95.410156"/>
       <use xlink:href="#DejaVuSans-30" x="159.033203"/>
      </g>
     </g>
    </g>
    <g id="xtick_4">
     <g id="line2d_7">
      <path d="M 305.590909 384.48 
L 305.590909 51.84 
" clip-path="url(#pdbf0caa351)" style="fill: none; stroke: #b0b0b0; stroke-width: 0.8; stroke-linecap: square"/>
     </g>
     <g id="line2d_8">
      <g>
       <use xlink:href="#mae9740dda4" x="305.590909" y="384.48" style="stroke: #000000; stroke-width: 0.8"/>
      </g>
     </g>
     <g id="text_4">
      <!-- 0.75 -->
      <g transform="translate(294.458097 399.078438) scale(0.1 -0.1)">
       <defs>
        <path id="DejaVuSans-37" d="M 525 4666 
L 3525 4666 
L 3525 4397 
L 1831 0 
L 1172 0 
L 2766 4134 
L 525 4134 
L 525 4666 
z
" transform="scale(0.015625)"/>
       </defs>
       <use xlink:href="#DejaVuSans-30"/>
       <use xlink:href="#DejaVuSans-2e" x="63.623047"/>
       <use xlink:href="#DejaVuSans-37" x="95.410156"/>
       <use xlink:href="#DejaVuSans-35" x="159.033203"/>
      </g>
     </g>
    </g>
    <g id="xtick_5">
     <g id="line2d_9">
      <path d="M 369 384.48 
L 369 51.84 
" clip-path="url(#pdbf0caa351)" style="fill: none; stroke: #b0b0b0; stroke-width: 0.8; stroke-linecap: square"/>
     </g>
     <g id="line2d_10">
      <g>
       <use xlink:href="#mae9740dda4" x="369" y="384.48" style="stroke: #000000; stroke-width: 0.8"/>
      </g>
     </g>
     <g id="text_5">
      <!-- 1.00 -->
      <g transform="translate(357.867188 399.078438) scale(0.1 -0.1)">
       <defs>
        <path id="DejaVuSans-31" d="M 794 531 
L 1825 531 
L 1825 4091 
L 703 3866 
L 703 4441 
L 1819 4666 
L 2450 4666 
L 2450 531 
L 3481 531 
L 3481 0 
L 794 0 
L 794 531 
z
" transform="scale(0.015625)"/>
       </defs>
       <use xlink:href="#DejaVuSans-31"/>
       <use xlink:href="#DejaVuSans-2e" x="63.623047"/>
       <use xlink:href="#DejaVuSans-30" x="95.410156"/>
       <use xlink:href="#DejaVuSans-30" x="159.033203"/>
      </g>
     </g>
    </g>
    <g id="xtick_6">
     <g id="line2d_11">
      <path d="M 432.409091 384.48 
L 432.409091 51.84 
" clip-path="url(#pdbf0caa351)" style="fill: none; stroke: #b0b0b0; stroke-width: 0.8; stroke-linecap: square"/>
     </g>
     <g id="line2d_12">
      <g>
       <use xlink:href="#mae9740dda4" x="432.409091" y="384.48" style="stroke: #000000; stroke-width: 0.8"/>
      </g>
     </g>
     <g id="text_6">
      <!-- 1.25 -->
      <g transform="translate(421.276278 399.078438) scale(0.1 -0.1)">
       <use xlink:href="#DejaVuSans-31"/>
       <use xlink:href="#DejaVuSans-2e" x="63.623047"/>
       <use xlink:href="#DejaVuSans-32" x="95.410156"/>
       <use xlink:href="#DejaVuSans-35" x="159.033203"/>
      </g>
     </g>
    </g>
    <g id="xtick_7">
     <g id="line2d_13">
      <path d="M 495.818182 384.48 
L 495.818182 51.84 
" clip-path="url(#pdbf0caa351)" style="fill: none; stroke: #b0b0b0; stroke-width: 0.8; stroke-linecap: square"/>
     </g>
     <g id="line2d_14">
      <g>
       <use xlink:href="#mae9740dda4" x="495.818182" y="384.48" style="stroke: #000000; stroke-width: 0.8"/>
      </g>
     </g>
     <g id="text_7">
      <!-- 1.50 -->
      <g transform="translate(484.685369 399.078438) scale(0.1 -0.1)">
       <use xlink:href="#DejaVuSans-31"/>
       <use xlink:href="#DejaVuSans-2e" x="63.623047"/>
       <use xlink:href="#DejaVuSans-35" x="95.410156"/>
       <use xlink:href="#DejaVuSans-30" x="159.033203"/>
      </g>
     </g>
    </g>
    <g id="xtick_8">
     <g id="line2d_15">
      <path d="M 559.227273 384.48 
L 559.227273 51.84 
" clip-path="url(#pdbf0caa351)" style="fill: none; stroke: #b0b0b0; stroke-width: 0.8; stroke-linecap: square"/>
     </g>
     <g id="line2d_16">
      <g>
       <use xlink:href="#mae9740dda4" x="559.227273" y="384.48" style="stroke: #000000; stroke-width: 0.8"/>
      </g>
     </g>
     <g id="text_8">
      <!-- 1.75 -->
      <g transform="translate(548.09446 399.078438) scale(0.1 -0.1)">
       <use xlink:href="#DejaVuSans-31"/>
       <use xlink:href="#DejaVuSans-2e" x="63.623047"/>
       <use xlink:href="#DejaVuSans-37" x="95.410156"/>
       <use xlink:href="#DejaVuSans-35" x="159.033203"/>
      </g>
     </g>
    </g>
    <g id="xtick_9">
     <g id="line2d_17">
      <path d="M 622.636364 384.48 
L 622.636364 51.84 
" clip-path="url(#pdbf0caa351)" style="fill: none; stroke: #b0b0b0; stroke-width: 0.8; stroke-linecap: square"/>
     </g>
     <g id="line2d_18">
      <g>
       <use xlink:href="#mae9740dda4" x="622.636364" y="384.48" style="stroke: #000000; stroke-width: 0.8"/>
      </g>
     </g>
     <g id="text_9">
      <!-- 2.00 -->
      <g transform="translate(611.503551 399.078438) scale(0.1 -0.1)">
       <use xlink:href="#DejaVuSans-32"/>
       <use xlink:href="#DejaVuSans-2e" x="63.623047"/>
       <use xlink:href="#DejaVuSans-30" x="95.410156"/>
       <use xlink:href="#DejaVuSans-30" x="159.033203"/>
      </g>
     </g>
    </g>
    <g id="text_10">
     <!-- Time (t) -->
     <g transform="translate(349.315625 412.756563) scale(0.1 -0.1)">
      <defs>
       <path id="DejaVuSans-54" d="M -19 4666 
L 3928 4666 
L 3928 4134 
L 2272 4134 
L 2272 0 
L 1638 0 
L 1638 4134 
L -19 4134 
L -19 4666 
z
" transform="scale(0.015625)"/>
       <path id="DejaVuSans-69" d="M 603 3500 
L 1178 3500 
L 1178 0 
L 603 0 
L 603 3500 
z
M 603 4863 
L 1178 4863 
L 1178 4134 
L 603 4134 
L 603 4863 
z
" transform="scale(0.015625)"/>
       <path id="DejaVuSans-6d" d="M 3328 2828 
Q 3544 3216 3844 3400 
Q 4144 3584 4550 3584 
Q 5097 3584 5394 3201 
Q 5691 2819 5691 2113 
L 5691 0 
L 5113 0 
L 5113 2094 
Q 5113 2597 4934 2840 
Q 4756 3084 4391 3084 
Q 3944 3084 3684 2787 
Q 3425 2491 3425 1978 
L 3425 0 
L 2847 0 
L 2847 2094 
Q 2847 2600 2669 2842 
Q 2491 3084 2119 3084 
Q 1678 3084 1418 2786 
Q 1159 2488 1159 1978 
L 1159 0 
L 581 0 
L 581 3500 
L 1159 3500 
L 1159 2956 
Q 1356 3278 1631 3431 
Q 1906 3584 2284 3584 
Q 2666 3584 2933 3390 
Q 3200 3197 3328 2828 
z
" transform="scale(0.015625)"/>
       <path id="DejaVuSans-65" d="M 3597 1894 
L 3597 1613 
L 953 1613 
Q 991 1019 1311 708 
Q 1631 397 2203 397 
Q 2534 397 2845 478 
Q 3156 559 3463 722 
L 3463 178 
Q 3153 47 2828 -22 
Q 2503 -91 2169 -91 
Q 1331 -91 842 396 
Q 353 884 353 1716 
Q 353 2575 817 3079 
Q 1281 3584 2069 3584 
Q 2775 3584 3186 3129 
Q 3597 2675 3597 1894 
z
M 3022 2063 
Q 3016 2534 2758 2815 
Q 2500 3097 2075 3097 
Q 1594 3097 1305 2825 
Q 1016 2553 972 2059 
L 3022 2063 
z
" transform="scale(0.015625)"/>
       <path id="DejaVuSans-20" transform="scale(0.015625)"/>
       <path id="DejaVuSans-28" d="M 1984 4856 
Q 1566 4138 1362 3434 
Q 1159 2731 1159 2009 
Q 1159 1288 1364 580 
Q 1569 -128 1984 -844 
L 1484 -844 
Q 1016 -109 783 600 
Q 550 1309 550 2009 
Q 550 2706 781 3412 
Q 1013 4119 1484 4856 
L 1984 4856 
z
" transform="scale(0.015625)"/>
       <path id="DejaVuSans-74" d="M 1172 4494 
L 1172 3500 
L 2356 3500 
L 2356 3053 
L 1172 3053 
L 1172 1153 
Q 1172 725 1289 603 
Q 1406 481 1766 481 
L 2356 481 
L 2356 0 
L 1766 0 
Q 1100 0 847 248 
Q 594 497 594 1153 
L 594 3053 
L 172 3053 
L 172 3500 
L 594 3500 
L 594 4494 
L 1172 4494 
z
" transform="scale(0.015625)"/>
       <path id="DejaVuSans-29" d="M 513 4856 
L 1013 4856 
Q 1481 4119 1714 3412 
Q 1947 2706 1947 2009 
Q 1947 1309 1714 600 
Q 1481 -109 1013 -844 
L 513 -844 
Q 928 -128 1133 580 
Q 1338 1288 1338 2009 
Q 1338 2731 1133 3434 
Q 928 4138 513 4856 
z
" transform="scale(0.015625)"/>
      </defs>
      <use xlink:href="#DejaVuSans-54"/>
      <use xlink:href="#DejaVuSans-69" x="57.958984"/>
      <use xlink:href="#DejaVuSans-6d" x="85.742188"/>
      <use xlink:href="#DejaVuSans-65" x="183.154297"/>
      <use xlink:href="#DejaVuSans-20" x="244.677734"/>
      <use xlink:href="#DejaVuSans-28" x="276.464844"/>
      <use xlink:href="#DejaVuSans-74" x="315.478516"/>
      <use xlink:href="#DejaVuSans-29" x="354.6875"/>
     </g>
    </g>
   </g>
   <g id="matplotlib.axis_2">
    <g id="ytick_1">
     <g id="line2d_19">
      <path d="M 90 378.723076 
L 648 378.723076 
" clip-path="url(#pdbf0caa351)" style="fill: none; stroke: #b0b0b0; stroke-width: 0.8; stroke-linecap: square"/>
     </g>
     <g id="line2d_20">
      <defs>
       <path id="mcf5b65f006" d="M 0 0 
L -3.5 0 
" style="stroke: #000000; stroke-width: 0.8"/>
      </defs>
      <g>
       <use xlink:href="#mcf5b65f006" x="90" y="378.723076" style="stroke: #000000; stroke-width: 0.8"/>
      </g>
     </g>
     <g id="text_11">
      <!-- −2000 -->
      <g transform="translate(49.170313 382.522295) scale(0.1 -0.1)">
       <defs>
        <path id="DejaVuSans-2212" d="M 678 2272 
L 4684 2272 
L 4684 1741 
L 678 1741 
L 678 2272 
z
" transform="scale(0.015625)"/>
       </defs>
       <use xlink:href="#DejaVuSans-2212"/>
       <use xlink:href="#DejaVuSans-32" x="83.789062"/>
       <use xlink:href="#DejaVuSans-30" x="147.412109"/>
       <use xlink:href="#DejaVuSans-30" x="211.035156"/>
       <use xlink:href="#DejaVuSans-30" x="274.658203"/>
      </g>
     </g>
    </g>
    <g id="ytick_2">
     <g id="line2d_21">
      <path d="M 90 311.6811 
L 648 311.6811 
" clip-path="url(#pdbf0caa351)" style="fill: none; stroke: #b0b0b0; stroke-width: 0.8; stroke-linecap: square"/>
     </g>
     <g id="line2d_22">
      <g>
       <use xlink:href="#mcf5b65f006" x="90" y="311.6811" style="stroke: #000000; stroke-width: 0.8"/>
      </g>
     </g>
     <g id="text_12">
      <!-- −1500 -->
      <g transform="translate(49.170313 315.480319) scale(0.1 -0.1)">
       <use xlink:href="#DejaVuSans-2212"/>
       <use xlink:href="#DejaVuSans-31" x="83.789062"/>
       <use xlink:href="#DejaVuSans-35" x="147.412109"/>
       <use xlink:href="#DejaVuSans-30" x="211.035156"/>
       <use xlink:href="#DejaVuSans-30" x="274.658203"/>
      </g>
     </g>
    </g>
    <g id="ytick_3">
     <g id="line2d_23">
      <path d="M 90 244.639123 
L 648 244.639123 
" clip-path="url(#pdbf0caa351)" style="fill: none; stroke: #b0b0b0; stroke-width: 0.8; stroke-linecap: square"/>
     </g>
     <g id="line2d_24">
      <g>
       <use xlink:href="#mcf5b65f006" x="90" y="244.639123" style="stroke: #000000; stroke-width: 0.8"/>
      </g>
     </g>
     <g id="text_13">
      <!-- −1000 -->
      <g transform="translate(49.170313 248.438342) scale(0.1 -0.1)">
       <use xlink:href="#DejaVuSans-2212"/>
       <use xlink:href="#DejaVuSans-31" x="83.789062"/>
       <use xlink:href="#DejaVuSans-30" x="147.412109"/>
       <use xlink:href="#DejaVuSans-30" x="211.035156"/>
       <use xlink:href="#DejaVuSans-30" x="274.658203"/>
      </g>
     </g>
    </g>
    <g id="ytick_4">
     <g id="line2d_25">
      <path d="M 90 177.597147 
L 648 177.597147 
" clip-path="url(#pdbf0caa351)" style="fill: none; stroke: #b0b0b0; stroke-width: 0.8; stroke-linecap: square"/>
     </g>
     <g id="line2d_26">
      <g>
       <use xlink:href="#mcf5b65f006" x="90" y="177.597147" style="stroke: #000000; stroke-width: 0.8"/>
      </g>
     </g>
     <g id="text_14">
      <!-- −500 -->
      <g transform="translate(55.532812 181.396365) scale(0.1 -0.1)">
       <use xlink:href="#DejaVuSans-2212"/>
       <use xlink:href="#DejaVuSans-35" x="83.789062"/>
       <use xlink:href="#DejaVuSans-30" x="147.412109"/>
       <use xlink:href="#DejaVuSans-30" x="211.035156"/>
      </g>
     </g>
    </g>
    <g id="ytick_5">
     <g id="line2d_27">
      <path d="M 90 110.55517 
L 648 110.55517 
" clip-path="url(#pdbf0caa351)" style="fill: none; stroke: #b0b0b0; stroke-width: 0.8; stroke-linecap: square"/>
     </g>
     <g id="line2d_28">
      <g>
       <use xlink:href="#mcf5b65f006" x="90" y="110.55517" style="stroke: #000000; stroke-width: 0.8"/>
      </g>
     </g>
     <g id="text_15">
      <!-- 0 -->
      <g transform="translate(76.6375 114.354389) scale(0.1 -0.1)">
       <use xlink:href="#DejaVuSans-30"/>
      </g>
     </g>
    </g>
    <g id="text_16">
     <!-- $\theta(t)$ -->
     <g transform="translate(43.090625 227.11) rotate(-90) scale(0.1 -0.1)">
      <defs>
       <path id="DejaVuSans-Oblique-3b8" d="M 2913 2219 
L 925 2219 
Q 791 1284 928 888 
Q 1100 400 1566 400 
Q 2034 400 2391 891 
Q 2703 1322 2913 2219 
z
M 3009 2750 
Q 3094 3638 2984 3950 
Q 2813 4444 2353 4444 
Q 1875 4444 1525 3956 
Q 1250 3563 1034 2750 
L 3009 2750 
z
M 2444 4913 
Q 3194 4913 3494 4250 
Q 3794 3591 3566 2422 
Q 3341 1256 2781 594 
Q 2225 -72 1475 -72 
Q 722 -72 425 594 
Q 128 1256 353 2422 
Q 581 3591 1134 4250 
Q 1691 4913 2444 4913 
z
" transform="scale(0.015625)"/>
       <path id="DejaVuSans-Oblique-74" d="M 2706 3500 
L 2619 3053 
L 1472 3053 
L 1100 1153 
Q 1081 1047 1072 975 
Q 1063 903 1063 863 
Q 1063 663 1183 572 
Q 1303 481 1569 481 
L 2150 481 
L 2053 0 
L 1503 0 
Q 991 0 739 200 
Q 488 400 488 806 
Q 488 878 497 964 
Q 506 1050 525 1153 
L 897 3053 
L 409 3053 
L 500 3500 
L 978 3500 
L 1172 4494 
L 1747 4494 
L 1556 3500 
L 2706 3500 
z
" transform="scale(0.015625)"/>
      </defs>
      <use xlink:href="#DejaVuSans-Oblique-3b8" transform="translate(0 0.234375)"/>
      <use xlink:href="#DejaVuSans-28" transform="translate(61.181641 0.234375)"/>
      <use xlink:href="#DejaVuSans-Oblique-74" transform="translate(100.195312 0.234375)"/>
      <use xlink:href="#DejaVuSans-29" transform="translate(139.404297 0.234375)"/>
     </g>
    </g>
   </g>
   <g id="line2d_29">
    <path d="M 115.363636 110.123877 
L 127.042588 110.236831 
L 159.03276 110.720547 
L 184.929566 110.871375 
L 228.090909 110.750163 
L 258.049959 111.137781 
L 275.314496 111.43002 
L 286.993448 111.36891 
L 345.895987 110.591114 
L 360.113841 110.829898 
L 373.316134 110.969393 
L 388.54955 110.880455 
L 418.000819 110.453001 
L 437.804259 110.056851 
L 451.006552 110.084037 
L 465.732187 110.345672 
L 502.800164 111.057536 
L 516.002457 111.019883 
L 528.189189 110.760992 
L 544.945946 110.4171 
L 574.397215 110.107058 
L 587.091728 110.216103 
L 612.988534 110.583963 
L 622.636364 110.52033 
L 622.636364 110.52033 
" clip-path="url(#pdbf0caa351)" style="fill: none; stroke: #1f77b4; stroke-width: 1.5; stroke-linecap: square"/>
   </g>
   <g id="line2d_30">
    <path d="M 115.363636 110.123877 
L 127.042588 110.238624 
L 139.737101 110.596818 
L 157.509419 111.353463 
L 180.359541 112.299482 
L 193.561835 112.623106 
L 206.764128 112.721449 
L 221.997543 112.602375 
L 253.987715 112.282927 
L 265.666667 112.442169 
L 275.822277 112.79366 
L 285.977887 113.364907 
L 296.641278 114.183686 
L 308.82801 115.350667 
L 324.061425 117.051189 
L 382.963964 124.060963 
L 394.642916 125.701709 
L 403.782965 127.209215 
L 411.907453 128.77585 
L 419.524161 130.479072 
L 426.633088 132.302653 
L 433.234234 134.219094 
L 439.835381 136.367263 
L 446.436527 138.761464 
L 452.529894 141.200452 
L 458.62326 143.867172 
L 465.224406 147.011787 
L 471.825553 150.420469 
L 478.426699 154.095842 
L 485.027846 158.045127 
L 491.121212 161.943874 
L 497.214578 166.098794 
L 503.307944 170.525984 
L 509.40131 175.244878 
L 514.986896 179.84617 
L 520.572482 184.731666 
L 526.158067 189.923719 
L 531.235872 194.930534 
L 536.313677 200.231344 
L 541.391482 205.851158 
L 546.469287 211.827925 
L 551.039312 217.53912 
L 555.609337 223.589873 
L 560.179361 230.005196 
L 564.749386 236.811038 
L 569.31941 244.034291 
L 573.889435 251.702786 
L 578.459459 259.845295 
L 583.029484 268.49153 
L 587.599509 277.672146 
L 591.661753 286.306827 
L 595.723997 295.411497 
L 599.786241 305.009555 
L 603.848485 315.12499 
L 607.910729 325.782374 
L 611.972973 337.006871 
L 616.035217 348.824228 
L 620.097461 361.26078 
L 622.636364 369.36 
L 622.636364 369.36 
" clip-path="url(#pdbf0caa351)" style="fill: none; stroke: #ff7f0e; stroke-width: 1.5; stroke-linecap: square"/>
   </g>
   <g id="line2d_31">
    <path d="M 115.363636 110.123877 
L 127.042588 110.236693 
L 146.846028 110.496264 
L 190.007371 110.2439 
L 202.194103 110.011397 
L 215.396396 109.735956 
L 224.028665 109.850016 
L 259.06552 110.512911 
L 268.205569 110.292852 
L 280.900082 110.030368 
L 323.553645 109.665449 
L 331.678133 109.772506 
L 362.652744 110.73926 
L 365.699427 111.058738 
L 367.730549 111.43943 
L 369.25389 111.89926 
L 370.777232 112.636868 
L 371.792793 113.388132 
L 372.808354 114.502177 
L 373.823915 116.204431 
L 374.331695 117.397158 
L 374.839476 118.915174 
L 375.347256 120.842242 
L 375.855037 123.268498 
L 376.870598 129.778689 
L 377.886159 136.657038 
L 378.393939 138.242427 
L 378.90172 137.504084 
L 379.4095 134.603786 
L 383.471744 101.463325 
L 383.979525 98.328103 
L 384.487305 96.442974 
L 384.995086 96.303582 
L 385.502867 97.906869 
L 386.010647 100.754846 
L 388.041769 115.500367 
L 389.565111 126.325685 
L 390.072891 128.694528 
L 390.580672 129.458912 
L 391.088452 128.324775 
L 391.596233 125.531924 
L 392.611794 117.43546 
L 395.150696 96.040942 
L 395.658477 93.071572 
L 396.166257 91.68613 
L 396.674038 92.21317 
L 397.181818 94.403135 
L 398.197379 101.397816 
L 400.736282 120.293685 
L 401.244062 123.132139 
L 401.751843 124.629346 
L 402.259623 124.337566 
L 402.767404 122.28346 
L 403.782965 115.08686 
L 407.337428 86.17002 
L 407.845209 84.017091 
L 408.352989 84.005236 
L 408.86077 86.005423 
L 411.399672 101.689199 
L 412.415233 105.912586 
L 414.954136 115.00132 
L 415.461916 116.455345 
L 415.969697 117.456525 
L 416.477477 117.828381 
L 416.985258 117.497204 
L 417.493038 116.514298 
L 418.5086 113.28315 
L 420.539722 105.642545 
L 421.555283 100.966713 
L 422.063063 97.804597 
L 422.570844 93.667634 
L 423.078624 88.185126 
L 424.094185 73.957147 
L 424.601966 69.122658 
L 425.109746 69.797618 
L 425.617527 75.352842 
L 426.633088 88.338241 
L 427.140868 92.569928 
L 427.648649 95.14243 
L 428.156429 96.260411 
L 428.66421 96.050474 
L 429.17199 94.460788 
L 429.679771 91.30639 
L 430.187551 86.316998 
L 431.710893 66.96 
L 432.218673 68.078118 
L 434.249795 92.00173 
L 434.757576 94.229846 
L 435.265356 94.806221 
L 435.773137 93.807155 
L 436.280917 91.11321 
L 436.788698 86.518579 
L 438.312039 67.459509 
L 438.81982 68.162234 
L 439.3276 74.197448 
L 440.343161 88.280875 
L 440.850942 92.943808 
L 441.358722 95.970979 
L 441.866503 97.657479 
L 442.374283 98.222519 
L 442.882064 97.747778 
L 443.389844 96.181219 
L 443.897625 93.386884 
L 444.405405 89.101204 
L 445.928747 71.332243 
L 446.436527 70.592169 
L 446.944308 75.018572 
L 448.467649 94.67945 
L 449.48321 103.220695 
L 451.514333 116.837984 
L 452.022113 119.540188 
L 452.529894 121.13163 
L 453.037674 121.173502 
L 453.545455 119.682795 
L 454.561016 113.930842 
L 456.592138 100.25424 
L 457.607699 91.760915 
L 458.62326 83.156417 
L 459.13104 81.230255 
L 459.638821 82.303591 
L 460.146601 86.046644 
L 463.701065 121.767198 
L 464.208845 125.157021 
L 464.716626 126.335364 
L 465.224406 124.934244 
L 465.732187 121.480441 
L 467.255528 107.249413 
L 468.77887 92.93946 
L 469.28665 89.552438 
L 469.794431 88.355188 
L 470.302211 89.862376 
L 470.809992 93.581567 
L 472.333333 109.427378 
L 473.856675 125.233396 
L 474.364455 128.894751 
L 474.872236 130.279315 
L 475.380016 128.981273 
L 475.887797 125.528842 
L 477.411138 111.0106 
L 478.93448 96.701694 
L 479.44226 93.615802 
L 479.950041 92.833526 
L 480.457821 94.689238 
L 480.965602 98.577888 
L 482.996724 119.324299 
L 484.012285 129.84719 
L 484.520066 134.019945 
L 485.027846 136.115252 
L 485.535627 135.442264 
L 486.043407 132.429878 
L 489.597871 103.247772 
L 490.105651 99.841704 
L 490.613432 97.601913 
L 491.121212 97.207162 
L 491.628993 98.800844 
L 492.136773 101.903242 
L 494.167895 118.224289 
L 495.183456 128.148037 
L 496.706798 145.200739 
L 497.214578 146.169829 
L 497.722359 143.007167 
L 499.2457 127.562749 
L 499.753481 124.215142 
L 500.261261 121.91413 
L 500.769042 120.492951 
L 501.276822 119.818871 
L 501.784603 119.828 
L 502.292383 120.542394 
L 502.800164 122.045412 
L 503.307944 124.516833 
L 503.815725 128.240767 
L 504.323505 133.488812 
L 505.339066 147.298789 
L 505.846847 151.677178 
L 506.354627 150.519377 
L 508.385749 128.460207 
L 508.89353 126.435052 
L 509.40131 126.033281 
L 509.909091 127.248188 
L 510.416871 130.204266 
L 510.924652 135.095914 
L 511.940213 148.997731 
L 512.447993 153.256164 
L 512.955774 151.58556 
L 514.479115 132.38579 
L 514.986896 128.697463 
L 515.494676 126.89993 
L 516.002457 126.837045 
L 516.510238 128.499797 
L 517.018018 132.018096 
L 517.525799 137.492523 
L 518.54136 150.771923 
L 519.04914 152.782977 
L 519.556921 148.840173 
L 520.572482 134.714783 
L 521.080262 129.376134 
L 521.588043 125.769508 
L 522.095823 123.632981 
L 522.603604 122.725037 
L 523.111384 122.933227 
L 523.619165 124.255364 
L 524.126945 126.82569 
L 524.634726 130.827305 
L 526.158067 148.03864 
L 526.665848 149.25232 
L 527.173628 145.430301 
L 528.69697 126.280584 
L 529.712531 117.797281 
L 531.743653 104.658473 
L 532.251433 101.828392 
L 532.759214 99.83836 
L 533.266994 99.154761 
L 533.774775 99.968385 
L 534.282555 102.034553 
L 535.298116 107.953611 
L 537.329238 121.147602 
L 539.36036 136.875792 
L 539.868141 137.848396 
L 540.375921 136.05381 
L 540.883702 132.098324 
L 544.438165 97.85465 
L 544.945946 94.877649 
L 545.453726 94.090603 
L 545.961507 95.703015 
L 546.469287 99.130918 
L 548.50041 117.482263 
L 549.515971 126.434905 
L 550.023751 129.661906 
L 550.531532 130.900715 
L 551.039312 129.617781 
L 551.547093 126.180126 
L 552.562654 116.380763 
L 554.593776 95.906348 
L 555.101556 92.028 
L 555.609337 90.038304 
L 556.117117 90.525202 
L 556.624898 93.203221 
L 557.640459 101.792379 
L 559.671581 120.22892 
L 560.179361 123.994153 
L 560.687142 126.201375 
L 561.194922 126.109884 
L 561.702703 123.688915 
L 562.718264 114.918935 
L 565.764947 85.769048 
L 566.272727 83.457808 
L 566.780508 83.771696 
L 567.288288 86.463351 
L 569.827191 106.056812 
L 571.858313 119.004667 
L 572.366093 121.030077 
L 572.873874 121.631875 
L 573.381654 120.616968 
L 573.889435 118.269897 
L 575.412776 108.23662 
L 576.428337 100.97819 
L 577.443898 91.568419 
L 578.96724 73.394338 
L 579.47502 72.008605 
L 579.982801 75.32305 
L 581.506143 91.703586 
L 582.013923 94.963333 
L 582.521704 96.956086 
L 583.029484 97.839028 
L 583.537265 97.686949 
L 584.045045 96.477413 
L 584.552826 94.051128 
L 585.060606 90.164476 
L 585.568387 84.58475 
L 586.583948 70.884709 
L 587.091728 67.909219 
L 587.599509 70.687013 
L 589.12285 88.931842 
L 589.630631 92.098541 
L 590.138411 93.455444 
L 590.646192 93.109261 
L 591.153972 91.01513 
L 591.661753 87.00023 
L 593.185094 68.022229 
L 593.692875 67.341035 
L 594.200655 72.327826 
L 595.216216 85.946436 
L 595.723997 90.41056 
L 596.231777 92.929856 
L 596.739558 93.694534 
L 597.247338 92.769983 
L 597.755119 90.077207 
L 598.262899 85.463755 
L 599.27846 72.215486 
L 599.786241 68.052603 
L 600.294021 69.541659 
L 602.325143 93.361333 
L 602.832924 96.2334 
L 603.340704 97.867665 
L 603.848485 98.450472 
L 604.356265 98.077388 
L 604.864046 96.712063 
L 605.371826 94.234359 
L 605.879607 90.46478 
L 607.402948 73.931146 
L 607.910729 72.073227 
L 608.418509 74.949428 
L 610.449631 98.431473 
L 611.972973 110.047383 
L 612.988534 117.199373 
L 613.496314 120.113206 
L 614.004095 121.818156 
L 614.511876 121.841061 
L 615.019656 120.200111 
L 616.035217 113.973092 
L 618.066339 99.360434 
L 619.589681 86.474688 
L 620.097461 83.553639 
L 620.605242 83.058088 
L 621.113022 85.354886 
L 622.128583 94.871697 
L 622.636364 100.180867 
L 622.636364 100.180867 
" clip-path="url(#pdbf0caa351)" style="fill: none; stroke: #2ca02c; stroke-width: 1.5; stroke-linecap: square"/>
   </g>
   <g id="patch_3">
    <path d="M 90 384.48 
L 90 51.84 
" style="fill: none; stroke: #000000; stroke-width: 0.8; stroke-linejoin: miter; stroke-linecap: square"/>
   </g>
   <g id="patch_4">
    <path d="M 648 384.48 
L 648 51.84 
" style="fill: none; stroke: #000000; stroke-width: 0.8; stroke-linejoin: miter; stroke-linecap: square"/>
   </g>
   <g id="patch_5">
    <path d="M 90 384.48 
L 648 384.48 
" style="fill: none; stroke: #000000; stroke-width: 0.8; stroke-linejoin: miter; stroke-linecap: square"/>
   </g>
   <g id="patch_6">
    <path d="M 90 51.84 
L 648 51.84 
" style="fill: none; stroke: #000000; stroke-width: 0.8; stroke-linejoin: miter; stroke-linecap: square"/>
   </g>
   <g id="text_17">
    <!-- Simulation: A=8.2, $\omega$=10.0, l=1.0, $\theta_0$=3.2165926535897933 -->
    <g transform="translate(186.06 45.84) scale(0.12 -0.12)">
     <defs>
      <path id="DejaVuSans-53" d="M 3425 4513 
L 3425 3897 
Q 3066 4069 2747 4153 
Q 2428 4238 2131 4238 
Q 1616 4238 1336 4038 
Q 1056 3838 1056 3469 
Q 1056 3159 1242 3001 
Q 1428 2844 1947 2747 
L 2328 2669 
Q 3034 2534 3370 2195 
Q 3706 1856 3706 1288 
Q 3706 609 3251 259 
Q 2797 -91 1919 -91 
Q 1588 -91 1214 -16 
Q 841 59 441 206 
L 441 856 
Q 825 641 1194 531 
Q 1563 422 1919 422 
Q 2459 422 2753 634 
Q 3047 847 3047 1241 
Q 3047 1584 2836 1778 
Q 2625 1972 2144 2069 
L 1759 2144 
Q 1053 2284 737 2584 
Q 422 2884 422 3419 
Q 422 4038 858 4394 
Q 1294 4750 2059 4750 
Q 2388 4750 2728 4690 
Q 3069 4631 3425 4513 
z
" transform="scale(0.015625)"/>
      <path id="DejaVuSans-75" d="M 544 1381 
L 544 3500 
L 1119 3500 
L 1119 1403 
Q 1119 906 1312 657 
Q 1506 409 1894 409 
Q 2359 409 2629 706 
Q 2900 1003 2900 1516 
L 2900 3500 
L 3475 3500 
L 3475 0 
L 2900 0 
L 2900 538 
Q 2691 219 2414 64 
Q 2138 -91 1772 -91 
Q 1169 -91 856 284 
Q 544 659 544 1381 
z
M 1991 3584 
L 1991 3584 
z
" transform="scale(0.015625)"/>
      <path id="DejaVuSans-6c" d="M 603 4863 
L 1178 4863 
L 1178 0 
L 603 0 
L 603 4863 
z
" transform="scale(0.015625)"/>
      <path id="DejaVuSans-61" d="M 2194 1759 
Q 1497 1759 1228 1600 
Q 959 1441 959 1056 
Q 959 750 1161 570 
Q 1363 391 1709 391 
Q 2188 391 2477 730 
Q 2766 1069 2766 1631 
L 2766 1759 
L 2194 1759 
z
M 3341 1997 
L 3341 0 
L 2766 0 
L 2766 531 
Q 2569 213 2275 61 
Q 1981 -91 1556 -91 
Q 1019 -91 701 211 
Q 384 513 384 1019 
Q 384 1609 779 1909 
Q 1175 2209 1959 2209 
L 2766 2209 
L 2766 2266 
Q 2766 2663 2505 2880 
Q 2244 3097 1772 3097 
Q 1472 3097 1187 3025 
Q 903 2953 641 2809 
L 641 3341 
Q 956 3463 1253 3523 
Q 1550 3584 1831 3584 
Q 2591 3584 2966 3190 
Q 3341 2797 3341 1997 
z
" transform="scale(0.015625)"/>
      <path id="DejaVuSans-6f" d="M 1959 3097 
Q 1497 3097 1228 2736 
Q 959 2375 959 1747 
Q 959 1119 1226 758 
Q 1494 397 1959 397 
Q 2419 397 2687 759 
Q 2956 1122 2956 1747 
Q 2956 2369 2687 2733 
Q 2419 3097 1959 3097 
z
M 1959 3584 
Q 2709 3584 3137 3096 
Q 3566 2609 3566 1747 
Q 3566 888 3137 398 
Q 2709 -91 1959 -91 
Q 1206 -91 779 398 
Q 353 888 353 1747 
Q 353 2609 779 3096 
Q 1206 3584 1959 3584 
z
" transform="scale(0.015625)"/>
      <path id="DejaVuSans-6e" d="M 3513 2113 
L 3513 0 
L 2938 0 
L 2938 2094 
Q 2938 2591 2744 2837 
Q 2550 3084 2163 3084 
Q 1697 3084 1428 2787 
Q 1159 2491 1159 1978 
L 1159 0 
L 581 0 
L 581 3500 
L 1159 3500 
L 1159 2956 
Q 1366 3272 1645 3428 
Q 1925 3584 2291 3584 
Q 2894 3584 3203 3211 
Q 3513 2838 3513 2113 
z
" transform="scale(0.015625)"/>
      <path id="DejaVuSans-3a" d="M 750 794 
L 1409 794 
L 1409 0 
L 750 0 
L 750 794 
z
M 750 3309 
L 1409 3309 
L 1409 2516 
L 750 2516 
L 750 3309 
z
" transform="scale(0.015625)"/>
      <path id="DejaVuSans-41" d="M 2188 4044 
L 1331 1722 
L 3047 1722 
L 2188 4044 
z
M 1831 4666 
L 2547 4666 
L 4325 0 
L 3669 0 
L 3244 1197 
L 1141 1197 
L 716 0 
L 50 0 
L 1831 4666 
z
" transform="scale(0.015625)"/>
      <path id="DejaVuSans-3d" d="M 678 2906 
L 4684 2906 
L 4684 2381 
L 678 2381 
L 678 2906 
z
M 678 1631 
L 4684 1631 
L 4684 1100 
L 678 1100 
L 678 1631 
z
" transform="scale(0.015625)"/>
      <path id="DejaVuSans-38" d="M 2034 2216 
Q 1584 2216 1326 1975 
Q 1069 1734 1069 1313 
Q 1069 891 1326 650 
Q 1584 409 2034 409 
Q 2484 409 2743 651 
Q 3003 894 3003 1313 
Q 3003 1734 2745 1975 
Q 2488 2216 2034 2216 
z
M 1403 2484 
Q 997 2584 770 2862 
Q 544 3141 544 3541 
Q 544 4100 942 4425 
Q 1341 4750 2034 4750 
Q 2731 4750 3128 4425 
Q 3525 4100 3525 3541 
Q 3525 3141 3298 2862 
Q 3072 2584 2669 2484 
Q 3125 2378 3379 2068 
Q 3634 1759 3634 1313 
Q 3634 634 3220 271 
Q 2806 -91 2034 -91 
Q 1263 -91 848 271 
Q 434 634 434 1313 
Q 434 1759 690 2068 
Q 947 2378 1403 2484 
z
M 1172 3481 
Q 1172 3119 1398 2916 
Q 1625 2713 2034 2713 
Q 2441 2713 2670 2916 
Q 2900 3119 2900 3481 
Q 2900 3844 2670 4047 
Q 2441 4250 2034 4250 
Q 1625 4250 1398 4047 
Q 1172 3844 1172 3481 
z
" transform="scale(0.015625)"/>
      <path id="DejaVuSans-2c" d="M 750 794 
L 1409 794 
L 1409 256 
L 897 -744 
L 494 -744 
L 750 256 
L 750 794 
z
" transform="scale(0.015625)"/>
      <path id="DejaVuSans-Oblique-3c9" d="M 1369 -91 
Q 72 -91 434 1766 
Q 575 2500 1256 3500 
L 1875 3500 
Q 1231 2500 1088 1750 
Q 819 397 1519 397 
Q 2166 397 2478 2078 
L 3009 2078 
Q 2669 388 3316 397 
Q 4013 403 4275 1750 
Q 4419 2500 4169 3500 
L 4788 3500 
Q 5075 2500 4934 1766 
Q 4578 -94 3278 -91 
Q 2428 -88 2503 844 
Q 2194 -91 1369 -91 
z
" transform="scale(0.015625)"/>
      <path id="DejaVuSans-33" d="M 2597 2516 
Q 3050 2419 3304 2112 
Q 3559 1806 3559 1356 
Q 3559 666 3084 287 
Q 2609 -91 1734 -91 
Q 1441 -91 1130 -33 
Q 819 25 488 141 
L 488 750 
Q 750 597 1062 519 
Q 1375 441 1716 441 
Q 2309 441 2620 675 
Q 2931 909 2931 1356 
Q 2931 1769 2642 2001 
Q 2353 2234 1838 2234 
L 1294 2234 
L 1294 2753 
L 1863 2753 
Q 2328 2753 2575 2939 
Q 2822 3125 2822 3475 
Q 2822 3834 2567 4026 
Q 2313 4219 1838 4219 
Q 1578 4219 1281 4162 
Q 984 4106 628 3988 
L 628 4550 
Q 988 4650 1302 4700 
Q 1616 4750 1894 4750 
Q 2613 4750 3031 4423 
Q 3450 4097 3450 3541 
Q 3450 3153 3228 2886 
Q 3006 2619 2597 2516 
z
" transform="scale(0.015625)"/>
      <path id="DejaVuSans-36" d="M 2113 2584 
Q 1688 2584 1439 2293 
Q 1191 2003 1191 1497 
Q 1191 994 1439 701 
Q 1688 409 2113 409 
Q 2538 409 2786 701 
Q 3034 994 3034 1497 
Q 3034 2003 2786 2293 
Q 2538 2584 2113 2584 
z
M 3366 4563 
L 3366 3988 
Q 3128 4100 2886 4159 
Q 2644 4219 2406 4219 
Q 1781 4219 1451 3797 
Q 1122 3375 1075 2522 
Q 1259 2794 1537 2939 
Q 1816 3084 2150 3084 
Q 2853 3084 3261 2657 
Q 3669 2231 3669 1497 
Q 3669 778 3244 343 
Q 2819 -91 2113 -91 
Q 1303 -91 875 529 
Q 447 1150 447 2328 
Q 447 3434 972 4092 
Q 1497 4750 2381 4750 
Q 2619 4750 2861 4703 
Q 3103 4656 3366 4563 
z
" transform="scale(0.015625)"/>
      <path id="DejaVuSans-39" d="M 703 97 
L 703 672 
Q 941 559 1184 500 
Q 1428 441 1663 441 
Q 2288 441 2617 861 
Q 2947 1281 2994 2138 
Q 2813 1869 2534 1725 
Q 2256 1581 1919 1581 
Q 1219 1581 811 2004 
Q 403 2428 403 3163 
Q 403 3881 828 4315 
Q 1253 4750 1959 4750 
Q 2769 4750 3195 4129 
Q 3622 3509 3622 2328 
Q 3622 1225 3098 567 
Q 2575 -91 1691 -91 
Q 1453 -91 1209 -44 
Q 966 3 703 97 
z
M 1959 2075 
Q 2384 2075 2632 2365 
Q 2881 2656 2881 3163 
Q 2881 3666 2632 3958 
Q 2384 4250 1959 4250 
Q 1534 4250 1286 3958 
Q 1038 3666 1038 3163 
Q 1038 2656 1286 2365 
Q 1534 2075 1959 2075 
z
" transform="scale(0.015625)"/>
     </defs>
     <use xlink:href="#DejaVuSans-53" transform="translate(0 0.234375)"/>
     <use xlink:href="#DejaVuSans-69" transform="translate(63.476562 0.234375)"/>
     <use xlink:href="#DejaVuSans-6d" transform="translate(91.259766 0.234375)"/>
     <use xlink:href="#DejaVuSans-75" transform="translate(188.671875 0.234375)"/>
     <use xlink:href="#DejaVuSans-6c" transform="translate(252.050781 0.234375)"/>
     <use xlink:href="#DejaVuSans-61" transform="translate(279.833984 0.234375)"/>
     <use xlink:href="#DejaVuSans-74" transform="translate(341.113281 0.234375)"/>
     <use xlink:href="#DejaVuSans-69" transform="translate(380.322266 0.234375)"/>
     <use xlink:href="#DejaVuSans-6f" transform="translate(408.105469 0.234375)"/>
     <use xlink:href="#DejaVuSans-6e" transform="translate(469.287109 0.234375)"/>
     <use xlink:href="#DejaVuSans-3a" transform="translate(532.666016 0.234375)"/>
     <use xlink:href="#DejaVuSans-20" transform="translate(566.357422 0.234375)"/>
     <use xlink:href="#DejaVuSans-41" transform="translate(598.144531 0.234375)"/>
     <use xlink:href="#DejaVuSans-3d" transform="translate(666.552734 0.234375)"/>
     <use xlink:href="#DejaVuSans-38" transform="translate(750.341797 0.234375)"/>
     <use xlink:href="#DejaVuSans-2e" transform="translate(813.964844 0.234375)"/>
     <use xlink:href="#DejaVuSans-32" transform="translate(840.251953 0.234375)"/>
     <use xlink:href="#DejaVuSans-2c" transform="translate(903.875 0.234375)"/>
     <use xlink:href="#DejaVuSans-20" transform="translate(935.662109 0.234375)"/>
     <use xlink:href="#DejaVuSans-Oblique-3c9" transform="translate(967.449219 0.234375)"/>
     <use xlink:href="#DejaVuSans-3d" transform="translate(1051.189453 0.234375)"/>
     <use xlink:href="#DejaVuSans-31" transform="translate(1134.978516 0.234375)"/>
     <use xlink:href="#DejaVuSans-30" transform="translate(1198.601562 0.234375)"/>
     <use xlink:href="#DejaVuSans-2e" transform="translate(1262.224609 0.234375)"/>
     <use xlink:href="#DejaVuSans-30" transform="translate(1294.011719 0.234375)"/>
     <use xlink:href="#DejaVuSans-2c" transform="translate(1357.634766 0.234375)"/>
     <use xlink:href="#DejaVuSans-20" transform="translate(1389.421875 0.234375)"/>
     <use xlink:href="#DejaVuSans-6c" transform="translate(1421.208984 0.234375)"/>
     <use xlink:href="#DejaVuSans-3d" transform="translate(1448.992188 0.234375)"/>
     <use xlink:href="#DejaVuSans-31" transform="translate(1532.78125 0.234375)"/>
     <use xlink:href="#DejaVuSans-2e" transform="translate(1596.404297 0.234375)"/>
     <use xlink:href="#DejaVuSans-30" transform="translate(1628.191406 0.234375)"/>
     <use xlink:href="#DejaVuSans-2c" transform="translate(1691.814453 0.234375)"/>
     <use xlink:href="#DejaVuSans-20" transform="translate(1723.601562 0.234375)"/>
     <use xlink:href="#DejaVuSans-Oblique-3b8" transform="translate(1755.388672 0.234375)"/>
     <use xlink:href="#DejaVuSans-30" transform="translate(1816.570312 -16.171875) scale(0.7)"/>
     <use xlink:href="#DejaVuSans-3d" transform="translate(1863.84082 0.234375)"/>
     <use xlink:href="#DejaVuSans-33" transform="translate(1947.629883 0.234375)"/>
     <use xlink:href="#DejaVuSans-2e" transform="translate(2011.25293 0.234375)"/>
     <use xlink:href="#DejaVuSans-32" transform="translate(2037.540039 0.234375)"/>
     <use xlink:href="#DejaVuSans-31" transform="translate(2101.163086 0.234375)"/>
     <use xlink:href="#DejaVuSans-36" transform="translate(2164.786133 0.234375)"/>
     <use xlink:href="#DejaVuSans-35" transform="translate(2228.40918 0.234375)"/>
     <use xlink:href="#DejaVuSans-39" transform="translate(2286.532227 0.234375)"/>
     <use xlink:href="#DejaVuSans-32" transform="translate(2348.405273 0.234375)"/>
     <use xlink:href="#DejaVuSans-36" transform="translate(2412.02832 0.234375)"/>
     <use xlink:href="#DejaVuSans-35" transform="translate(2475.651367 0.234375)"/>
     <use xlink:href="#DejaVuSans-33" transform="translate(2539.274414 0.234375)"/>
     <use xlink:href="#DejaVuSans-35" transform="translate(2602.897461 0.234375)"/>
     <use xlink:href="#DejaVuSans-38" transform="translate(2666.520508 0.234375)"/>
     <use xlink:href="#DejaVuSans-39" transform="translate(2730.143555 0.234375)"/>
     <use xlink:href="#DejaVuSans-37" transform="translate(2793.766602 0.234375)"/>
     <use xlink:href="#DejaVuSans-39" transform="translate(2857.389648 0.234375)"/>
     <use xlink:href="#DejaVuSans-33" transform="translate(2921.012695 0.234375)"/>
     <use xlink:href="#DejaVuSans-33" transform="translate(2984.635742 0.234375)"/>
    </g>
   </g>
   <g id="legend_1">
    <g id="patch_7">
     <path d="M 97 103.874375 
L 197.403125 103.874375 
Q 199.403125 103.874375 199.403125 101.874375 
L 199.403125 58.84 
Q 199.403125 56.84 197.403125 56.84 
L 97 56.84 
Q 95 56.84 95 58.84 
L 95 101.874375 
Q 95 103.874375 97 103.874375 
z
" style="fill: #ffffff; opacity: 0.8; stroke: #cccccc; stroke-linejoin: miter"/>
    </g>
    <g id="line2d_32">
     <path d="M 99 64.938437 
L 109 64.938437 
L 119 64.938437 
" style="fill: none; stroke: #1f77b4; stroke-width: 1.5; stroke-linecap: square"/>
    </g>
    <g id="text_18">
     <!-- Original -->
     <g transform="translate(127 68.438437) scale(0.1 -0.1)">
      <defs>
       <path id="DejaVuSans-4f" d="M 2522 4238 
Q 1834 4238 1429 3725 
Q 1025 3213 1025 2328 
Q 1025 1447 1429 934 
Q 1834 422 2522 422 
Q 3209 422 3611 934 
Q 4013 1447 4013 2328 
Q 4013 3213 3611 3725 
Q 3209 4238 2522 4238 
z
M 2522 4750 
Q 3503 4750 4090 4092 
Q 4678 3434 4678 2328 
Q 4678 1225 4090 567 
Q 3503 -91 2522 -91 
Q 1538 -91 948 565 
Q 359 1222 359 2328 
Q 359 3434 948 4092 
Q 1538 4750 2522 4750 
z
" transform="scale(0.015625)"/>
       <path id="DejaVuSans-72" d="M 2631 2963 
Q 2534 3019 2420 3045 
Q 2306 3072 2169 3072 
Q 1681 3072 1420 2755 
Q 1159 2438 1159 1844 
L 1159 0 
L 581 0 
L 581 3500 
L 1159 3500 
L 1159 2956 
Q 1341 3275 1631 3429 
Q 1922 3584 2338 3584 
Q 2397 3584 2469 3576 
Q 2541 3569 2628 3553 
L 2631 2963 
z
" transform="scale(0.015625)"/>
       <path id="DejaVuSans-67" d="M 2906 1791 
Q 2906 2416 2648 2759 
Q 2391 3103 1925 3103 
Q 1463 3103 1205 2759 
Q 947 2416 947 1791 
Q 947 1169 1205 825 
Q 1463 481 1925 481 
Q 2391 481 2648 825 
Q 2906 1169 2906 1791 
z
M 3481 434 
Q 3481 -459 3084 -895 
Q 2688 -1331 1869 -1331 
Q 1566 -1331 1297 -1286 
Q 1028 -1241 775 -1147 
L 775 -588 
Q 1028 -725 1275 -790 
Q 1522 -856 1778 -856 
Q 2344 -856 2625 -561 
Q 2906 -266 2906 331 
L 2906 616 
Q 2728 306 2450 153 
Q 2172 0 1784 0 
Q 1141 0 747 490 
Q 353 981 353 1791 
Q 353 2603 747 3093 
Q 1141 3584 1784 3584 
Q 2172 3584 2450 3431 
Q 2728 3278 2906 2969 
L 2906 3500 
L 3481 3500 
L 3481 434 
z
" transform="scale(0.015625)"/>
      </defs>
      <use xlink:href="#DejaVuSans-4f"/>
      <use xlink:href="#DejaVuSans-72" x="78.710938"/>
      <use xlink:href="#DejaVuSans-69" x="119.824219"/>
      <use xlink:href="#DejaVuSans-67" x="147.607422"/>
      <use xlink:href="#DejaVuSans-69" x="211.083984"/>
      <use xlink:href="#DejaVuSans-6e" x="238.867188"/>
      <use xlink:href="#DejaVuSans-61" x="302.246094"/>
      <use xlink:href="#DejaVuSans-6c" x="363.525391"/>
     </g>
    </g>
    <g id="line2d_33">
     <path d="M 99 79.616562 
L 109 79.616562 
L 119 79.616562 
" style="fill: none; stroke: #ff7f0e; stroke-width: 1.5; stroke-linecap: square"/>
    </g>
    <g id="text_19">
     <!-- First-Order -->
     <g transform="translate(127 83.116562) scale(0.1 -0.1)">
      <defs>
       <path id="DejaVuSans-46" d="M 628 4666 
L 3309 4666 
L 3309 4134 
L 1259 4134 
L 1259 2759 
L 3109 2759 
L 3109 2228 
L 1259 2228 
L 1259 0 
L 628 0 
L 628 4666 
z
" transform="scale(0.015625)"/>
       <path id="DejaVuSans-73" d="M 2834 3397 
L 2834 2853 
Q 2591 2978 2328 3040 
Q 2066 3103 1784 3103 
Q 1356 3103 1142 2972 
Q 928 2841 928 2578 
Q 928 2378 1081 2264 
Q 1234 2150 1697 2047 
L 1894 2003 
Q 2506 1872 2764 1633 
Q 3022 1394 3022 966 
Q 3022 478 2636 193 
Q 2250 -91 1575 -91 
Q 1294 -91 989 -36 
Q 684 19 347 128 
L 347 722 
Q 666 556 975 473 
Q 1284 391 1588 391 
Q 1994 391 2212 530 
Q 2431 669 2431 922 
Q 2431 1156 2273 1281 
Q 2116 1406 1581 1522 
L 1381 1569 
Q 847 1681 609 1914 
Q 372 2147 372 2553 
Q 372 3047 722 3315 
Q 1072 3584 1716 3584 
Q 2034 3584 2315 3537 
Q 2597 3491 2834 3397 
z
" transform="scale(0.015625)"/>
       <path id="DejaVuSans-2d" d="M 313 2009 
L 1997 2009 
L 1997 1497 
L 313 1497 
L 313 2009 
z
" transform="scale(0.015625)"/>
       <path id="DejaVuSans-64" d="M 2906 2969 
L 2906 4863 
L 3481 4863 
L 3481 0 
L 2906 0 
L 2906 525 
Q 2725 213 2448 61 
Q 2172 -91 1784 -91 
Q 1150 -91 751 415 
Q 353 922 353 1747 
Q 353 2572 751 3078 
Q 1150 3584 1784 3584 
Q 2172 3584 2448 3432 
Q 2725 3281 2906 2969 
z
M 947 1747 
Q 947 1113 1208 752 
Q 1469 391 1925 391 
Q 2381 391 2643 752 
Q 2906 1113 2906 1747 
Q 2906 2381 2643 2742 
Q 2381 3103 1925 3103 
Q 1469 3103 1208 2742 
Q 947 2381 947 1747 
z
" transform="scale(0.015625)"/>
      </defs>
      <use xlink:href="#DejaVuSans-46"/>
      <use xlink:href="#DejaVuSans-69" x="50.269531"/>
      <use xlink:href="#DejaVuSans-72" x="78.052734"/>
      <use xlink:href="#DejaVuSans-73" x="119.166016"/>
      <use xlink:href="#DejaVuSans-74" x="171.265625"/>
      <use xlink:href="#DejaVuSans-2d" x="210.474609"/>
      <use xlink:href="#DejaVuSans-4f" x="249.308594"/>
      <use xlink:href="#DejaVuSans-72" x="328.019531"/>
      <use xlink:href="#DejaVuSans-64" x="367.382812"/>
      <use xlink:href="#DejaVuSans-65" x="430.859375"/>
      <use xlink:href="#DejaVuSans-72" x="492.382812"/>
     </g>
    </g>
    <g id="line2d_34">
     <path d="M 99 94.294687 
L 109 94.294687 
L 119 94.294687 
" style="fill: none; stroke: #2ca02c; stroke-width: 1.5; stroke-linecap: square"/>
    </g>
    <g id="text_20">
     <!-- Second Order -->
     <g transform="translate(127 97.794687) scale(0.1 -0.1)">
      <defs>
       <path id="DejaVuSans-63" d="M 3122 3366 
L 3122 2828 
Q 2878 2963 2633 3030 
Q 2388 3097 2138 3097 
Q 1578 3097 1268 2742 
Q 959 2388 959 1747 
Q 959 1106 1268 751 
Q 1578 397 2138 397 
Q 2388 397 2633 464 
Q 2878 531 3122 666 
L 3122 134 
Q 2881 22 2623 -34 
Q 2366 -91 2075 -91 
Q 1284 -91 818 406 
Q 353 903 353 1747 
Q 353 2603 823 3093 
Q 1294 3584 2113 3584 
Q 2378 3584 2631 3529 
Q 2884 3475 3122 3366 
z
" transform="scale(0.015625)"/>
      </defs>
      <use xlink:href="#DejaVuSans-53"/>
      <use xlink:href="#DejaVuSans-65" x="63.476562"/>
      <use xlink:href="#DejaVuSans-63" x="125"/>
      <use xlink:href="#DejaVuSans-6f" x="179.980469"/>
      <use xlink:href="#DejaVuSans-6e" x="241.162109"/>
      <use xlink:href="#DejaVuSans-64" x="304.541016"/>
      <use xlink:href="#DejaVuSans-20" x="368.017578"/>
      <use xlink:href="#DejaVuSans-4f" x="399.804688"/>
      <use xlink:href="#DejaVuSans-72" x="478.515625"/>
      <use xlink:href="#DejaVuSans-64" x="517.878906"/>
      <use xlink:href="#DejaVuSans-65" x="581.355469"/>
      <use xlink:href="#DejaVuSans-72" x="642.878906"/>
     </g>
    </g>
   </g>
  </g>
 </g>
 <defs>
  <clipPath id="pdbf0caa351">
   <rect x="90" y="51.84" width="558" height="332.64"/>
  </clipPath>
 </defs>
</svg>
