<?xml version="1.0" encoding="utf-8" standalone="no"?>
<!DOCTYPE svg PUBLIC "-//W3C//DTD SVG 1.1//EN"
  "http://www.w3.org/Graphics/SVG/1.1/DTD/svg11.dtd">
<svg xmlns:xlink="http://www.w3.org/1999/xlink" width="720pt" height="432pt" viewBox="0 0 720 432" xmlns="http://www.w3.org/2000/svg" version="1.1">
 <metadata>
  <rdf:RDF xmlns:dc="http://purl.org/dc/elements/1.1/" xmlns:cc="http://creativecommons.org/ns#" xmlns:rdf="http://www.w3.org/1999/02/22-rdf-syntax-ns#">
   <cc:Work>
    <dc:type rdf:resource="http://purl.org/dc/dcmitype/StillImage"/>
    <dc:date>2024-12-31T23:33:52.621818</dc:date>
    <dc:format>image/svg+xml</dc:format>
    <dc:creator>
     <cc:Agent>
      <dc:title>Matplotlib v3.7.2, https://matplotlib.org/</dc:title>
     </cc:Agent>
    </dc:creator>
   </cc:Work>
  </rdf:RDF>
 </metadata>
 <defs>
  <style type="text/css">*{stroke-linejoin: round; stroke-linecap: butt}</style>
 </defs>
 <g id="figure_1">
  <g id="patch_1">
   <path d="M 0 432 
L 720 432 
L 720 0 
L 0 0 
z
" style="fill: #ffffff"/>
  </g>
  <g id="axes_1">
   <g id="patch_2">
    <path d="M 90 384.48 
L 648 384.48 
L 648 51.84 
L 90 51.84 
z
" style="fill: #ffffff"/>
   </g>
   <g id="matplotlib.axis_1">
    <g id="xtick_1">
     <g id="line2d_1">
      <path d="M 115.363636 384.48 
L 115.363636 51.84 
" clip-path="url(#pd67a6cdb5a)" style="fill: none; stroke: #b0b0b0; stroke-width: 0.8; stroke-linecap: square"/>
     </g>
     <g id="line2d_2">
      <defs>
       <path id="m71200d81ea" d="M 0 0 
L 0 3.5 
" style="stroke: #000000; stroke-width: 0.8"/>
      </defs>
      <g>
       <use xlink:href="#m71200d81ea" x="115.363636" y="384.48" style="stroke: #000000; stroke-width: 0.8"/>
      </g>
     </g>
     <g id="text_1">
      <!-- 0.00 -->
      <g transform="translate(104.230824 399.078438) scale(0.1 -0.1)">
       <defs>
        <path id="DejaVuSans-30" d="M 2034 4250 
Q 1547 4250 1301 3770 
Q 1056 3291 1056 2328 
Q 1056 1369 1301 889 
Q 1547 409 2034 409 
Q 2525 409 2770 889 
Q 3016 1369 3016 2328 
Q 3016 3291 2770 3770 
Q 2525 4250 2034 4250 
z
M 2034 4750 
Q 2819 4750 3233 4129 
Q 3647 3509 3647 2328 
Q 3647 1150 3233 529 
Q 2819 -91 2034 -91 
Q 1250 -91 836 529 
Q 422 1150 422 2328 
Q 422 3509 836 4129 
Q 1250 4750 2034 4750 
z
" transform="scale(0.015625)"/>
        <path id="DejaVuSans-2e" d="M 684 794 
L 1344 794 
L 1344 0 
L 684 0 
L 684 794 
z
" transform="scale(0.015625)"/>
       </defs>
       <use xlink:href="#DejaVuSans-30"/>
       <use xlink:href="#DejaVuSans-2e" x="63.623047"/>
       <use xlink:href="#DejaVuSans-30" x="95.410156"/>
       <use xlink:href="#DejaVuSans-30" x="159.033203"/>
      </g>
     </g>
    </g>
    <g id="xtick_2">
     <g id="line2d_3">
      <path d="M 178.772727 384.48 
L 178.772727 51.84 
" clip-path="url(#pd67a6cdb5a)" style="fill: none; stroke: #b0b0b0; stroke-width: 0.8; stroke-linecap: square"/>
     </g>
     <g id="line2d_4">
      <g>
       <use xlink:href="#m71200d81ea" x="178.772727" y="384.48" style="stroke: #000000; stroke-width: 0.8"/>
      </g>
     </g>
     <g id="text_2">
      <!-- 0.25 -->
      <g transform="translate(167.639915 399.078438) scale(0.1 -0.1)">
       <defs>
        <path id="DejaVuSans-32" d="M 1228 531 
L 3431 531 
L 3431 0 
L 469 0 
L 469 531 
Q 828 903 1448 1529 
Q 2069 2156 2228 2338 
Q 2531 2678 2651 2914 
Q 2772 3150 2772 3378 
Q 2772 3750 2511 3984 
Q 2250 4219 1831 4219 
Q 1534 4219 1204 4116 
Q 875 4013 500 3803 
L 500 4441 
Q 881 4594 1212 4672 
Q 1544 4750 1819 4750 
Q 2544 4750 2975 4387 
Q 3406 4025 3406 3419 
Q 3406 3131 3298 2873 
Q 3191 2616 2906 2266 
Q 2828 2175 2409 1742 
Q 1991 1309 1228 531 
z
" transform="scale(0.015625)"/>
        <path id="DejaVuSans-35" d="M 691 4666 
L 3169 4666 
L 3169 4134 
L 1269 4134 
L 1269 2991 
Q 1406 3038 1543 3061 
Q 1681 3084 1819 3084 
Q 2600 3084 3056 2656 
Q 3513 2228 3513 1497 
Q 3513 744 3044 326 
Q 2575 -91 1722 -91 
Q 1428 -91 1123 -41 
Q 819 9 494 109 
L 494 744 
Q 775 591 1075 516 
Q 1375 441 1709 441 
Q 2250 441 2565 725 
Q 2881 1009 2881 1497 
Q 2881 1984 2565 2268 
Q 2250 2553 1709 2553 
Q 1456 2553 1204 2497 
Q 953 2441 691 2322 
L 691 4666 
z
" transform="scale(0.015625)"/>
       </defs>
       <use xlink:href="#DejaVuSans-30"/>
       <use xlink:href="#DejaVuSans-2e" x="63.623047"/>
       <use xlink:href="#DejaVuSans-32" x="95.410156"/>
       <use xlink:href="#DejaVuSans-35" x="159.033203"/>
      </g>
     </g>
    </g>
    <g id="xtick_3">
     <g id="line2d_5">
      <path d="M 242.181818 384.48 
L 242.181818 51.84 
" clip-path="url(#pd67a6cdb5a)" style="fill: none; stroke: #b0b0b0; stroke-width: 0.8; stroke-linecap: square"/>
     </g>
     <g id="line2d_6">
      <g>
       <use xlink:href="#m71200d81ea" x="242.181818" y="384.48" style="stroke: #000000; stroke-width: 0.8"/>
      </g>
     </g>
     <g id="text_3">
      <!-- 0.50 -->
      <g transform="translate(231.049006 399.078438) scale(0.1 -0.1)">
       <use xlink:href="#DejaVuSans-30"/>
       <use xlink:href="#DejaVuSans-2e" x="63.623047"/>
       <use xlink:href="#DejaVuSans-35" x="95.410156"/>
       <use xlink:href="#DejaVuSans-30" x="159.033203"/>
      </g>
     </g>
    </g>
    <g id="xtick_4">
     <g id="line2d_7">
      <path d="M 305.590909 384.48 
L 305.590909 51.84 
" clip-path="url(#pd67a6cdb5a)" style="fill: none; stroke: #b0b0b0; stroke-width: 0.8; stroke-linecap: square"/>
     </g>
     <g id="line2d_8">
      <g>
       <use xlink:href="#m71200d81ea" x="305.590909" y="384.48" style="stroke: #000000; stroke-width: 0.8"/>
      </g>
     </g>
     <g id="text_4">
      <!-- 0.75 -->
      <g transform="translate(294.458097 399.078438) scale(0.1 -0.1)">
       <defs>
        <path id="DejaVuSans-37" d="M 525 4666 
L 3525 4666 
L 3525 4397 
L 1831 0 
L 1172 0 
L 2766 4134 
L 525 4134 
L 525 4666 
z
" transform="scale(0.015625)"/>
       </defs>
       <use xlink:href="#DejaVuSans-30"/>
       <use xlink:href="#DejaVuSans-2e" x="63.623047"/>
       <use xlink:href="#DejaVuSans-37" x="95.410156"/>
       <use xlink:href="#DejaVuSans-35" x="159.033203"/>
      </g>
     </g>
    </g>
    <g id="xtick_5">
     <g id="line2d_9">
      <path d="M 369 384.48 
L 369 51.84 
" clip-path="url(#pd67a6cdb5a)" style="fill: none; stroke: #b0b0b0; stroke-width: 0.8; stroke-linecap: square"/>
     </g>
     <g id="line2d_10">
      <g>
       <use xlink:href="#m71200d81ea" x="369" y="384.48" style="stroke: #000000; stroke-width: 0.8"/>
      </g>
     </g>
     <g id="text_5">
      <!-- 1.00 -->
      <g transform="translate(357.867188 399.078438) scale(0.1 -0.1)">
       <defs>
        <path id="DejaVuSans-31" d="M 794 531 
L 1825 531 
L 1825 4091 
L 703 3866 
L 703 4441 
L 1819 4666 
L 2450 4666 
L 2450 531 
L 3481 531 
L 3481 0 
L 794 0 
L 794 531 
z
" transform="scale(0.015625)"/>
       </defs>
       <use xlink:href="#DejaVuSans-31"/>
       <use xlink:href="#DejaVuSans-2e" x="63.623047"/>
       <use xlink:href="#DejaVuSans-30" x="95.410156"/>
       <use xlink:href="#DejaVuSans-30" x="159.033203"/>
      </g>
     </g>
    </g>
    <g id="xtick_6">
     <g id="line2d_11">
      <path d="M 432.409091 384.48 
L 432.409091 51.84 
" clip-path="url(#pd67a6cdb5a)" style="fill: none; stroke: #b0b0b0; stroke-width: 0.8; stroke-linecap: square"/>
     </g>
     <g id="line2d_12">
      <g>
       <use xlink:href="#m71200d81ea" x="432.409091" y="384.48" style="stroke: #000000; stroke-width: 0.8"/>
      </g>
     </g>
     <g id="text_6">
      <!-- 1.25 -->
      <g transform="translate(421.276278 399.078438) scale(0.1 -0.1)">
       <use xlink:href="#DejaVuSans-31"/>
       <use xlink:href="#DejaVuSans-2e" x="63.623047"/>
       <use xlink:href="#DejaVuSans-32" x="95.410156"/>
       <use xlink:href="#DejaVuSans-35" x="159.033203"/>
      </g>
     </g>
    </g>
    <g id="xtick_7">
     <g id="line2d_13">
      <path d="M 495.818182 384.48 
L 495.818182 51.84 
" clip-path="url(#pd67a6cdb5a)" style="fill: none; stroke: #b0b0b0; stroke-width: 0.8; stroke-linecap: square"/>
     </g>
     <g id="line2d_14">
      <g>
       <use xlink:href="#m71200d81ea" x="495.818182" y="384.48" style="stroke: #000000; stroke-width: 0.8"/>
      </g>
     </g>
     <g id="text_7">
      <!-- 1.50 -->
      <g transform="translate(484.685369 399.078438) scale(0.1 -0.1)">
       <use xlink:href="#DejaVuSans-31"/>
       <use xlink:href="#DejaVuSans-2e" x="63.623047"/>
       <use xlink:href="#DejaVuSans-35" x="95.410156"/>
       <use xlink:href="#DejaVuSans-30" x="159.033203"/>
      </g>
     </g>
    </g>
    <g id="xtick_8">
     <g id="line2d_15">
      <path d="M 559.227273 384.48 
L 559.227273 51.84 
" clip-path="url(#pd67a6cdb5a)" style="fill: none; stroke: #b0b0b0; stroke-width: 0.8; stroke-linecap: square"/>
     </g>
     <g id="line2d_16">
      <g>
       <use xlink:href="#m71200d81ea" x="559.227273" y="384.48" style="stroke: #000000; stroke-width: 0.8"/>
      </g>
     </g>
     <g id="text_8">
      <!-- 1.75 -->
      <g transform="translate(548.09446 399.078438) scale(0.1 -0.1)">
       <use xlink:href="#DejaVuSans-31"/>
       <use xlink:href="#DejaVuSans-2e" x="63.623047"/>
       <use xlink:href="#DejaVuSans-37" x="95.410156"/>
       <use xlink:href="#DejaVuSans-35" x="159.033203"/>
      </g>
     </g>
    </g>
    <g id="xtick_9">
     <g id="line2d_17">
      <path d="M 622.636364 384.48 
L 622.636364 51.84 
" clip-path="url(#pd67a6cdb5a)" style="fill: none; stroke: #b0b0b0; stroke-width: 0.8; stroke-linecap: square"/>
     </g>
     <g id="line2d_18">
      <g>
       <use xlink:href="#m71200d81ea" x="622.636364" y="384.48" style="stroke: #000000; stroke-width: 0.8"/>
      </g>
     </g>
     <g id="text_9">
      <!-- 2.00 -->
      <g transform="translate(611.503551 399.078438) scale(0.1 -0.1)">
       <use xlink:href="#DejaVuSans-32"/>
       <use xlink:href="#DejaVuSans-2e" x="63.623047"/>
       <use xlink:href="#DejaVuSans-30" x="95.410156"/>
       <use xlink:href="#DejaVuSans-30" x="159.033203"/>
      </g>
     </g>
    </g>
    <g id="text_10">
     <!-- Time (t) -->
     <g transform="translate(349.315625 412.756563) scale(0.1 -0.1)">
      <defs>
       <path id="DejaVuSans-54" d="M -19 4666 
L 3928 4666 
L 3928 4134 
L 2272 4134 
L 2272 0 
L 1638 0 
L 1638 4134 
L -19 4134 
L -19 4666 
z
" transform="scale(0.015625)"/>
       <path id="DejaVuSans-69" d="M 603 3500 
L 1178 3500 
L 1178 0 
L 603 0 
L 603 3500 
z
M 603 4863 
L 1178 4863 
L 1178 4134 
L 603 4134 
L 603 4863 
z
" transform="scale(0.015625)"/>
       <path id="DejaVuSans-6d" d="M 3328 2828 
Q 3544 3216 3844 3400 
Q 4144 3584 4550 3584 
Q 5097 3584 5394 3201 
Q 5691 2819 5691 2113 
L 5691 0 
L 5113 0 
L 5113 2094 
Q 5113 2597 4934 2840 
Q 4756 3084 4391 3084 
Q 3944 3084 3684 2787 
Q 3425 2491 3425 1978 
L 3425 0 
L 2847 0 
L 2847 2094 
Q 2847 2600 2669 2842 
Q 2491 3084 2119 3084 
Q 1678 3084 1418 2786 
Q 1159 2488 1159 1978 
L 1159 0 
L 581 0 
L 581 3500 
L 1159 3500 
L 1159 2956 
Q 1356 3278 1631 3431 
Q 1906 3584 2284 3584 
Q 2666 3584 2933 3390 
Q 3200 3197 3328 2828 
z
" transform="scale(0.015625)"/>
       <path id="DejaVuSans-65" d="M 3597 1894 
L 3597 1613 
L 953 1613 
Q 991 1019 1311 708 
Q 1631 397 2203 397 
Q 2534 397 2845 478 
Q 3156 559 3463 722 
L 3463 178 
Q 3153 47 2828 -22 
Q 2503 -91 2169 -91 
Q 1331 -91 842 396 
Q 353 884 353 1716 
Q 353 2575 817 3079 
Q 1281 3584 2069 3584 
Q 2775 3584 3186 3129 
Q 3597 2675 3597 1894 
z
M 3022 2063 
Q 3016 2534 2758 2815 
Q 2500 3097 2075 3097 
Q 1594 3097 1305 2825 
Q 1016 2553 972 2059 
L 3022 2063 
z
" transform="scale(0.015625)"/>
       <path id="DejaVuSans-20" transform="scale(0.015625)"/>
       <path id="DejaVuSans-28" d="M 1984 4856 
Q 1566 4138 1362 3434 
Q 1159 2731 1159 2009 
Q 1159 1288 1364 580 
Q 1569 -128 1984 -844 
L 1484 -844 
Q 1016 -109 783 600 
Q 550 1309 550 2009 
Q 550 2706 781 3412 
Q 1013 4119 1484 4856 
L 1984 4856 
z
" transform="scale(0.015625)"/>
       <path id="DejaVuSans-74" d="M 1172 4494 
L 1172 3500 
L 2356 3500 
L 2356 3053 
L 1172 3053 
L 1172 1153 
Q 1172 725 1289 603 
Q 1406 481 1766 481 
L 2356 481 
L 2356 0 
L 1766 0 
Q 1100 0 847 248 
Q 594 497 594 1153 
L 594 3053 
L 172 3053 
L 172 3500 
L 594 3500 
L 594 4494 
L 1172 4494 
z
" transform="scale(0.015625)"/>
       <path id="DejaVuSans-29" d="M 513 4856 
L 1013 4856 
Q 1481 4119 1714 3412 
Q 1947 2706 1947 2009 
Q 1947 1309 1714 600 
Q 1481 -109 1013 -844 
L 513 -844 
Q 928 -128 1133 580 
Q 1338 1288 1338 2009 
Q 1338 2731 1133 3434 
Q 928 4138 513 4856 
z
" transform="scale(0.015625)"/>
      </defs>
      <use xlink:href="#DejaVuSans-54"/>
      <use xlink:href="#DejaVuSans-69" x="57.958984"/>
      <use xlink:href="#DejaVuSans-6d" x="85.742188"/>
      <use xlink:href="#DejaVuSans-65" x="183.154297"/>
      <use xlink:href="#DejaVuSans-20" x="244.677734"/>
      <use xlink:href="#DejaVuSans-28" x="276.464844"/>
      <use xlink:href="#DejaVuSans-74" x="315.478516"/>
      <use xlink:href="#DejaVuSans-29" x="354.6875"/>
     </g>
    </g>
   </g>
   <g id="matplotlib.axis_2">
    <g id="ytick_1">
     <g id="line2d_19">
      <path d="M 90 356.742263 
L 648 356.742263 
" clip-path="url(#pd67a6cdb5a)" style="fill: none; stroke: #b0b0b0; stroke-width: 0.8; stroke-linecap: square"/>
     </g>
     <g id="line2d_20">
      <defs>
       <path id="m29c3d7871b" d="M 0 0 
L -3.5 0 
" style="stroke: #000000; stroke-width: 0.8"/>
      </defs>
      <g>
       <use xlink:href="#m29c3d7871b" x="90" y="356.742263" style="stroke: #000000; stroke-width: 0.8"/>
      </g>
     </g>
     <g id="text_11">
      <!-- −300 -->
      <g transform="translate(55.532812 360.541482) scale(0.1 -0.1)">
       <defs>
        <path id="DejaVuSans-2212" d="M 678 2272 
L 4684 2272 
L 4684 1741 
L 678 1741 
L 678 2272 
z
" transform="scale(0.015625)"/>
        <path id="DejaVuSans-33" d="M 2597 2516 
Q 3050 2419 3304 2112 
Q 3559 1806 3559 1356 
Q 3559 666 3084 287 
Q 2609 -91 1734 -91 
Q 1441 -91 1130 -33 
Q 819 25 488 141 
L 488 750 
Q 750 597 1062 519 
Q 1375 441 1716 441 
Q 2309 441 2620 675 
Q 2931 909 2931 1356 
Q 2931 1769 2642 2001 
Q 2353 2234 1838 2234 
L 1294 2234 
L 1294 2753 
L 1863 2753 
Q 2328 2753 2575 2939 
Q 2822 3125 2822 3475 
Q 2822 3834 2567 4026 
Q 2313 4219 1838 4219 
Q 1578 4219 1281 4162 
Q 984 4106 628 3988 
L 628 4550 
Q 988 4650 1302 4700 
Q 1616 4750 1894 4750 
Q 2613 4750 3031 4423 
Q 3450 4097 3450 3541 
Q 3450 3153 3228 2886 
Q 3006 2619 2597 2516 
z
" transform="scale(0.015625)"/>
       </defs>
       <use xlink:href="#DejaVuSans-2212"/>
       <use xlink:href="#DejaVuSans-33" x="83.789062"/>
       <use xlink:href="#DejaVuSans-30" x="147.412109"/>
       <use xlink:href="#DejaVuSans-30" x="211.035156"/>
      </g>
     </g>
    </g>
    <g id="ytick_2">
     <g id="line2d_21">
      <path d="M 90 311.120373 
L 648 311.120373 
" clip-path="url(#pd67a6cdb5a)" style="fill: none; stroke: #b0b0b0; stroke-width: 0.8; stroke-linecap: square"/>
     </g>
     <g id="line2d_22">
      <g>
       <use xlink:href="#m29c3d7871b" x="90" y="311.120373" style="stroke: #000000; stroke-width: 0.8"/>
      </g>
     </g>
     <g id="text_12">
      <!-- −200 -->
      <g transform="translate(55.532812 314.919591) scale(0.1 -0.1)">
       <use xlink:href="#DejaVuSans-2212"/>
       <use xlink:href="#DejaVuSans-32" x="83.789062"/>
       <use xlink:href="#DejaVuSans-30" x="147.412109"/>
       <use xlink:href="#DejaVuSans-30" x="211.035156"/>
      </g>
     </g>
    </g>
    <g id="ytick_3">
     <g id="line2d_23">
      <path d="M 90 265.498482 
L 648 265.498482 
" clip-path="url(#pd67a6cdb5a)" style="fill: none; stroke: #b0b0b0; stroke-width: 0.8; stroke-linecap: square"/>
     </g>
     <g id="line2d_24">
      <g>
       <use xlink:href="#m29c3d7871b" x="90" y="265.498482" style="stroke: #000000; stroke-width: 0.8"/>
      </g>
     </g>
     <g id="text_13">
      <!-- −100 -->
      <g transform="translate(55.532812 269.2977) scale(0.1 -0.1)">
       <use xlink:href="#DejaVuSans-2212"/>
       <use xlink:href="#DejaVuSans-31" x="83.789062"/>
       <use xlink:href="#DejaVuSans-30" x="147.412109"/>
       <use xlink:href="#DejaVuSans-30" x="211.035156"/>
      </g>
     </g>
    </g>
    <g id="ytick_4">
     <g id="line2d_25">
      <path d="M 90 219.876591 
L 648 219.876591 
" clip-path="url(#pd67a6cdb5a)" style="fill: none; stroke: #b0b0b0; stroke-width: 0.8; stroke-linecap: square"/>
     </g>
     <g id="line2d_26">
      <g>
       <use xlink:href="#m29c3d7871b" x="90" y="219.876591" style="stroke: #000000; stroke-width: 0.8"/>
      </g>
     </g>
     <g id="text_14">
      <!-- 0 -->
      <g transform="translate(76.6375 223.67581) scale(0.1 -0.1)">
       <use xlink:href="#DejaVuSans-30"/>
      </g>
     </g>
    </g>
    <g id="ytick_5">
     <g id="line2d_27">
      <path d="M 90 174.2547 
L 648 174.2547 
" clip-path="url(#pd67a6cdb5a)" style="fill: none; stroke: #b0b0b0; stroke-width: 0.8; stroke-linecap: square"/>
     </g>
     <g id="line2d_28">
      <g>
       <use xlink:href="#m29c3d7871b" x="90" y="174.2547" style="stroke: #000000; stroke-width: 0.8"/>
      </g>
     </g>
     <g id="text_15">
      <!-- 100 -->
      <g transform="translate(63.9125 178.053919) scale(0.1 -0.1)">
       <use xlink:href="#DejaVuSans-31"/>
       <use xlink:href="#DejaVuSans-30" x="63.623047"/>
       <use xlink:href="#DejaVuSans-30" x="127.246094"/>
      </g>
     </g>
    </g>
    <g id="ytick_6">
     <g id="line2d_29">
      <path d="M 90 128.632809 
L 648 128.632809 
" clip-path="url(#pd67a6cdb5a)" style="fill: none; stroke: #b0b0b0; stroke-width: 0.8; stroke-linecap: square"/>
     </g>
     <g id="line2d_30">
      <g>
       <use xlink:href="#m29c3d7871b" x="90" y="128.632809" style="stroke: #000000; stroke-width: 0.8"/>
      </g>
     </g>
     <g id="text_16">
      <!-- 200 -->
      <g transform="translate(63.9125 132.432028) scale(0.1 -0.1)">
       <use xlink:href="#DejaVuSans-32"/>
       <use xlink:href="#DejaVuSans-30" x="63.623047"/>
       <use xlink:href="#DejaVuSans-30" x="127.246094"/>
      </g>
     </g>
    </g>
    <g id="ytick_7">
     <g id="line2d_31">
      <path d="M 90 83.010918 
L 648 83.010918 
" clip-path="url(#pd67a6cdb5a)" style="fill: none; stroke: #b0b0b0; stroke-width: 0.8; stroke-linecap: square"/>
     </g>
     <g id="line2d_32">
      <g>
       <use xlink:href="#m29c3d7871b" x="90" y="83.010918" style="stroke: #000000; stroke-width: 0.8"/>
      </g>
     </g>
     <g id="text_17">
      <!-- 300 -->
      <g transform="translate(63.9125 86.810137) scale(0.1 -0.1)">
       <use xlink:href="#DejaVuSans-33"/>
       <use xlink:href="#DejaVuSans-30" x="63.623047"/>
       <use xlink:href="#DejaVuSans-30" x="127.246094"/>
      </g>
     </g>
    </g>
    <g id="text_18">
     <!-- $\theta(t)$ -->
     <g transform="translate(49.453125 227.11) rotate(-90) scale(0.1 -0.1)">
      <defs>
       <path id="DejaVuSans-Oblique-3b8" d="M 2913 2219 
L 925 2219 
Q 791 1284 928 888 
Q 1100 400 1566 400 
Q 2034 400 2391 891 
Q 2703 1322 2913 2219 
z
M 3009 2750 
Q 3094 3638 2984 3950 
Q 2813 4444 2353 4444 
Q 1875 4444 1525 3956 
Q 1250 3563 1034 2750 
L 3009 2750 
z
M 2444 4913 
Q 3194 4913 3494 4250 
Q 3794 3591 3566 2422 
Q 3341 1256 2781 594 
Q 2225 -72 1475 -72 
Q 722 -72 425 594 
Q 128 1256 353 2422 
Q 581 3591 1134 4250 
Q 1691 4913 2444 4913 
z
" transform="scale(0.015625)"/>
       <path id="DejaVuSans-Oblique-74" d="M 2706 3500 
L 2619 3053 
L 1472 3053 
L 1100 1153 
Q 1081 1047 1072 975 
Q 1063 903 1063 863 
Q 1063 663 1183 572 
Q 1303 481 1569 481 
L 2150 481 
L 2053 0 
L 1503 0 
Q 991 0 739 200 
Q 488 400 488 806 
Q 488 878 497 964 
Q 506 1050 525 1153 
L 897 3053 
L 409 3053 
L 500 3500 
L 978 3500 
L 1172 4494 
L 1747 4494 
L 1556 3500 
L 2706 3500 
z
" transform="scale(0.015625)"/>
      </defs>
      <use xlink:href="#DejaVuSans-Oblique-3b8" transform="translate(0 0.234375)"/>
      <use xlink:href="#DejaVuSans-28" transform="translate(61.181641 0.234375)"/>
      <use xlink:href="#DejaVuSans-Oblique-74" transform="translate(100.195312 0.234375)"/>
      <use xlink:href="#DejaVuSans-29" transform="translate(139.404297 0.234375)"/>
     </g>
    </g>
   </g>
   <g id="line2d_33">
    <path d="M 115.363636 218.40912 
L 126.027027 218.525251 
L 138.213759 218.903328 
L 172.742834 220.337543 
L 194.577396 221.314563 
L 205.240786 221.502571 
L 217.427518 221.476677 
L 233.168714 221.195422 
L 259.06552 220.73015 
L 313.905815 220.017072 
L 334.724816 219.621702 
L 347.419328 219.617563 
L 358.5905 219.838749 
L 369.25389 220.274825 
L 415.969697 222.477937 
L 427.648649 222.834892 
L 438.312039 222.929734 
L 449.48321 222.79609 
L 462.177723 222.401819 
L 490.613432 221.214797 
L 506.354627 220.317377 
L 517.525799 219.778668 
L 528.69697 219.473071 
L 546.977068 219.235401 
L 584.045045 218.983448 
L 602.325143 219.121484 
L 622.636364 219.341921 
L 622.636364 219.341921 
" clip-path="url(#pd67a6cdb5a)" style="fill: none; stroke: #1f77b4; stroke-width: 1.5; stroke-linecap: square"/>
   </g>
   <g id="line2d_34">
    <path d="M 115.363636 218.40912 
L 126.027027 218.525449 
L 137.198198 218.875727 
L 151.923833 219.578658 
L 177.312858 220.821566 
L 188.99181 221.143452 
L 199.655201 221.22024 
L 210.826372 221.073415 
L 224.028665 220.661741 
L 259.573301 219.413765 
L 270.236691 219.34347 
L 280.392301 219.493476 
L 291.055692 219.879832 
L 303.242424 220.556132 
L 325.584767 222.081984 
L 340.310401 222.961693 
L 351.989353 223.436388 
L 363.160524 223.667107 
L 375.347256 223.687585 
L 393.119574 223.455942 
L 410.891892 223.289912 
L 422.063063 223.39761 
L 431.710893 223.699673 
L 441.358722 224.222734 
L 451.514333 224.999528 
L 462.685504 226.080902 
L 477.918919 227.801538 
L 501.784603 230.49145 
L 514.986896 231.737439 
L 528.69697 232.797131 
L 548.50041 234.060782 
L 563.733825 235.129613 
L 574.397215 236.102187 
L 583.537265 237.149555 
L 592.169533 238.352906 
L 600.801802 239.784258 
L 608.92629 241.349155 
L 618.066339 243.346709 
L 622.636364 244.42703 
L 622.636364 244.42703 
" clip-path="url(#pd67a6cdb5a)" style="fill: none; stroke: #ff7f0e; stroke-width: 1.5; stroke-linecap: square"/>
   </g>
   <g id="line2d_35">
    <path d="M 115.363636 218.40912 
L 126.027027 218.525241 
L 138.213759 218.903049 
L 169.18837 220.193667 
L 174.266175 220.66603 
L 177.820639 221.218615 
L 180.359541 221.821704 
L 182.390663 222.503793 
L 183.914005 223.195915 
L 185.437346 224.116342 
L 186.960688 225.365093 
L 187.976249 226.454096 
L 188.99181 227.84107 
L 190.007371 229.639905 
L 191.022932 232.026669 
L 192.038493 235.222263 
L 193.054054 239.656898 
L 194.069615 246.034117 
L 194.577396 250.245738 
L 195.085176 255.401002 
L 195.592957 261.779027 
L 196.100737 269.683964 
L 196.608518 279.444985 
L 197.624079 305.804111 
L 199.14742 356.238395 
L 199.655201 367.162542 
L 200.162981 369.36 
L 200.670762 362.03673 
L 201.178542 347.425149 
L 202.701884 294.644666 
L 203.717445 267.645215 
L 204.733006 246.946497 
L 207.271908 203.601742 
L 208.287469 187.993026 
L 208.79525 181.912942 
L 209.30303 177.833033 
L 209.810811 176.275419 
L 210.318591 177.408557 
L 210.826372 181.044334 
L 211.334152 186.715093 
L 212.349713 201.685917 
L 215.396396 252.53706 
L 216.411957 272.412823 
L 218.443079 315.748842 
L 218.95086 322.494193 
L 219.45864 324.850229 
L 219.966421 322.123503 
L 220.474201 314.685611 
L 221.489762 290.86623 
L 225.552007 182.448888 
L 226.567568 161.038811 
L 227.075348 154.90573 
L 227.583129 153.126845 
L 228.090909 155.923893 
L 228.59869 162.752242 
L 229.614251 184.003698 
L 233.676495 281.267938 
L 234.184275 289.142996 
L 234.692056 293.245816 
L 235.199836 292.781296 
L 235.707617 287.728687 
L 236.215397 278.882161 
L 237.230958 254.228079 
L 241.293202 145.55487 
L 241.800983 136.475069 
L 242.308763 131.220579 
L 242.816544 130.492373 
L 243.324324 134.264599 
L 243.832105 141.75395 
L 244.847666 162.895839 
L 248.402129 242.568899 
L 249.41769 262.375913 
L 249.925471 269.323902 
L 250.433251 273.00883 
L 250.941032 272.763825 
L 251.448812 268.551961 
L 251.956593 260.970049 
L 252.972154 239.940773 
L 256.018837 167.248719 
L 257.542179 122.500268 
L 258.55774 95.658585 
L 259.06552 88.728534 
L 259.573301 88.504379 
L 260.081081 94.816493 
L 261.096642 119.027459 
L 262.112203 144.778796 
L 263.127764 164.531571 
L 264.143325 178.010873 
L 265.158886 186.733124 
L 265.666667 189.738509 
L 266.174447 192.03022 
L 266.682228 193.686056 
L 267.190008 194.756318 
L 267.697789 195.278553 
L 268.205569 195.276344 
L 268.71335 194.752722 
L 269.22113 193.676236 
L 269.728911 191.996376 
L 270.236691 189.636691 
L 270.744472 186.495789 
L 271.252252 182.4324 
L 271.760033 177.224867 
L 272.267813 170.609862 
L 272.775594 162.288095 
L 273.283374 151.927154 
L 274.298935 124.045214 
L 275.822277 74.958188 
L 276.330057 66.96 
L 276.837838 68.210928 
L 277.345618 78.324862 
L 279.884521 156.731013 
L 280.900082 175.985632 
L 281.915643 189.601008 
L 282.931204 200.124899 
L 284.962326 218.084765 
L 286.993448 235.164277 
L 288.009009 241.971021 
L 288.51679 244.342821 
L 289.02457 245.788333 
L 289.532351 246.201309 
L 290.040131 245.554018 
L 290.547912 243.911518 
L 291.055692 241.42339 
L 292.071253 234.614086 
L 294.102375 218.102853 
L 296.641278 196.282068 
L 297.656839 186.072742 
L 298.6724 174.088433 
L 301.719083 134.556288 
L 302.226863 131.935 
L 302.734644 132.047034 
L 303.242424 135.027858 
L 303.750205 140.58808 
L 304.765766 157.108078 
L 310.351351 264.420472 
L 310.859132 271.236693 
L 311.366912 275.889499 
L 311.874693 277.949514 
L 312.382473 277.216746 
L 312.890254 273.861833 
L 313.398034 268.319447 
L 314.413595 253.203031 
L 318.98362 176.318325 
L 319.4914 169.967966 
L 319.999181 165.463299 
L 320.506962 163.377577 
L 321.014742 164.033343 
L 321.522523 167.398601 
L 322.030303 173.085829 
L 323.045864 189.236279 
L 326.092547 247.056801 
L 329.13923 305.930061 
L 329.647011 312.077347 
L 330.154791 315.359555 
L 330.662572 315.426438 
L 331.170352 312.472925 
L 331.678133 307.160778 
L 334.724816 266.692201 
L 335.740377 258.474029 
L 336.248157 255.59618 
L 336.755938 253.479669 
L 337.263718 252.096074 
L 337.771499 251.428348 
L 338.279279 251.470857 
L 338.78706 252.232604 
L 339.29484 253.758541 
L 339.802621 256.12192 
L 340.310401 259.423597 
L 340.818182 263.792681 
L 341.325962 269.381719 
L 341.833743 276.380785 
L 342.849304 295.394683 
L 343.864865 320.794154 
L 344.880426 346.311129 
L 345.388206 354.388426 
L 345.895987 356.794914 
L 346.403767 353.116188 
L 346.911548 344.299648 
L 348.94267 299.326102 
L 349.45045 292.101387 
L 349.958231 287.227694 
L 350.466011 284.687598 
L 350.973792 284.466979 
L 351.481572 286.576857 
L 351.989353 291.060663 
L 352.497133 298.002235 
L 353.004914 307.381245 
L 354.020475 332.109902 
L 355.036036 356.195763 
L 355.543817 362.224695 
L 356.051597 361.695686 
L 356.559378 354.692296 
L 357.574939 329.588122 
L 358.5905 304.729758 
L 359.09828 295.303239 
L 359.606061 288.232831 
L 360.113841 283.470575 
L 360.621622 280.931561 
L 361.129402 280.525317 
L 361.637183 282.221313 
L 362.144963 286.034076 
L 362.652744 291.972319 
L 363.160524 300.021266 
L 364.176085 321.419926 
L 365.191646 343.427195 
L 365.699427 350.123205 
L 366.207207 351.436217 
L 366.714988 346.841205 
L 367.222768 337.280085 
L 369.761671 275.954076 
L 370.777232 258.906624 
L 371.792793 245.631344 
L 373.316134 229.202286 
L 376.362817 199.036835 
L 377.378378 190.922454 
L 377.886159 187.990178 
L 378.393939 186.068467 
L 378.90172 185.309842 
L 379.4095 185.74595 
L 379.917281 187.323046 
L 380.425061 189.906677 
L 381.440622 197.228621 
L 383.471744 215.521826 
L 387.533989 254.205808 
L 389.05733 267.981493 
L 389.565111 271.470323 
L 390.072891 273.944522 
L 390.580672 275.165855 
L 391.088452 274.956114 
L 391.596233 273.248393 
L 392.104013 270.104843 
L 392.611794 265.698024 
L 393.627355 254.189257 
L 395.658477 226.663645 
L 399.720721 171.159146 
L 400.736282 160.299618 
L 401.244062 156.388487 
L 401.751843 153.808239 
L 402.259623 152.679105 
L 402.767404 153.001232 
L 403.275184 154.649828 
L 403.782965 157.389377 
L 404.798526 164.949917 
L 406.829648 181.643819 
L 407.845209 188.736603 
L 408.86077 194.709277 
L 409.876331 199.704824 
L 411.399672 205.862598 
L 413.430794 212.709096 
L 418.000819 226.850014 
L 419.01638 229.557971 
L 420.031941 231.673324 
L 420.539722 232.425796 
L 421.047502 232.935124 
L 421.555283 233.177213 
L 422.063063 233.140559 
L 422.570844 232.823379 
L 423.078624 232.234654 
L 423.586405 231.394161 
L 424.601966 229.089235 
L 426.125307 224.618326 
L 430.187551 211.244456 
L 431.710893 205.542096 
L 432.726454 200.879597 
L 433.742015 194.844934 
L 434.757576 186.49677 
L 435.265356 180.995632 
L 435.773137 174.258924 
L 436.280917 165.976785 
L 436.788698 155.804535 
L 437.804259 128.569358 
L 439.3276 78.774695 
L 439.835381 69.355759 
L 440.343161 69.011671 
L 440.850942 77.938059 
L 441.866503 111.757625 
L 442.882064 146.241141 
L 443.897625 173.153362 
L 445.420966 204.19673 
L 447.959869 250.013425 
L 448.467649 256.928567 
L 448.97543 261.622064 
L 449.48321 263.451348 
L 449.990991 262.161708 
L 450.498771 258.007955 
L 451.006552 251.589427 
L 452.022113 234.851744 
L 455.068796 178.398418 
L 456.592138 144.288568 
L 457.607699 122.035857 
L 458.115479 114.416217 
L 458.62326 111.256669 
L 459.13104 113.40506 
L 459.638821 120.663941 
L 460.654382 145.323196 
L 464.716626 258.988501 
L 465.224406 270.90747 
L 465.732187 279.985206 
L 466.239967 285.011278 
L 466.747748 285.154687 
L 467.255528 280.464993 
L 467.763309 271.803413 
L 468.77887 247.973733 
L 472.333333 157.273479 
L 472.841114 147.895297 
L 473.348894 142.137565 
L 473.856675 141.175117 
L 474.364455 145.219347 
L 474.872236 153.637389 
L 475.887797 178.519026 
L 479.950041 291.75522 
L 480.457821 301.172776 
L 480.965602 306.510459 
L 481.473382 306.982181 
L 481.981163 302.72222 
L 482.488943 294.646752 
L 483.504505 272.167411 
L 487.058968 188.055316 
L 488.074529 168.634288 
L 488.58231 162.9259 
L 489.09009 161.250525 
L 489.597871 163.946433 
L 490.105651 170.556178 
L 491.121212 191.537712 
L 493.660115 254.235004 
L 495.183456 297.504098 
L 496.199017 327.838398 
L 496.706798 339.830397 
L 497.214578 346.711381 
L 497.722359 346.84837 
L 498.230139 340.485477 
L 499.2457 316.094205 
L 500.261261 290.022602 
L 501.276822 269.605485 
L 502.292383 254.928158 
L 503.307944 244.271212 
L 504.323505 236.033394 
L 505.846847 225.698188 
L 509.40131 203.566778 
L 510.416871 198.87877 
L 510.924652 197.322241 
L 511.432432 196.421272 
L 511.940213 196.248017 
L 512.447993 196.820013 
L 512.955774 198.098515 
L 513.463554 200.00623 
L 514.479115 205.216397 
L 516.510238 217.967407 
L 519.04914 234.892287 
L 520.064701 243.136989 
L 521.080262 253.804038 
L 522.095823 268.698056 
L 523.111384 290.1611 
L 524.126945 319.16146 
L 525.142506 348.641333 
L 525.650287 357.3227 
L 526.158067 358.316051 
L 526.665848 351.180851 
L 527.173628 337.657655 
L 529.20475 271.445141 
L 530.728092 231.868758 
L 532.759214 183.39227 
L 533.266994 173.569291 
L 533.774775 166.60626 
L 534.282555 163.595897 
L 534.790336 165.014962 
L 535.298116 170.521263 
L 535.805897 179.197235 
L 537.329238 213.422178 
L 539.868141 275.033755 
L 540.883702 300.176122 
L 541.391482 310.358385 
L 541.899263 316.881599 
L 542.407043 318.320637 
L 542.914824 314.207915 
L 543.422604 305.161593 
L 544.438165 277.969928 
L 547.992629 171.020296 
L 548.50041 158.458013 
L 549.00819 149.224154 
L 549.515971 144.769847 
L 550.023751 145.817808 
L 550.531532 151.971944 
L 551.039312 162.050297 
L 552.054873 188.345677 
L 555.101556 272.116895 
L 555.609337 283.212581 
L 556.117117 290.819053 
L 556.624898 293.621393 
L 557.132678 290.924889 
L 557.640459 283.094318 
L 558.65602 257.369242 
L 562.718264 136.829951 
L 563.226044 126.742597 
L 563.733825 121.26927 
L 564.241605 121.289593 
L 564.749386 126.543233 
L 565.257166 135.848134 
L 566.780508 173.478977 
L 569.827191 247.30742 
L 570.842752 267.223947 
L 571.350532 273.009248 
L 571.858313 274.557813 
L 572.366093 271.539447 
L 572.873874 264.482315 
L 573.889435 242.696804 
L 576.428337 178.641369 
L 577.443898 149.0035 
L 578.96724 99.052623 
L 579.47502 86.612194 
L 579.982801 80.653152 
L 580.490581 82.797992 
L 580.998362 92.171365 
L 583.537265 160.872318 
L 584.552826 178.485442 
L 585.568387 191.210422 
L 586.583948 201.215355 
L 589.12285 222.695119 
L 590.646192 234.836737 
L 591.661753 241.180707 
L 592.169533 243.26951 
L 592.677314 244.397962 
L 593.185094 244.47503 
L 593.692875 243.503322 
L 594.200655 241.563626 
L 594.708436 238.804361 
L 595.723997 231.58672 
L 598.77068 206.338388 
L 599.786241 197.081957 
L 600.801802 185.950293 
L 601.817363 171.052972 
L 602.832924 150.056209 
L 603.848485 121.468825 
L 604.864046 90.944723 
L 605.371826 80.769914 
L 605.879607 77.965339 
L 606.387387 83.64662 
L 606.895168 96.206879 
L 609.43407 177.375348 
L 611.465192 228.876522 
L 612.480753 253.178072 
L 612.988534 263.342875 
L 613.496314 270.670968 
L 614.004095 273.982022 
L 614.511876 272.737153 
L 615.019656 267.240768 
L 615.527437 258.547495 
L 616.542998 236.047683 
L 619.589681 161.627072 
L 620.605242 136.21638 
L 621.113022 125.977798 
L 621.620803 119.480916 
L 622.128583 118.057274 
L 622.636364 122.346382 
L 622.636364 122.346382 
" clip-path="url(#pd67a6cdb5a)" style="fill: none; stroke: #2ca02c; stroke-width: 1.5; stroke-linecap: square"/>
   </g>
   <g id="patch_3">
    <path d="M 90 384.48 
L 90 51.84 
" style="fill: none; stroke: #000000; stroke-width: 0.8; stroke-linejoin: miter; stroke-linecap: square"/>
   </g>
   <g id="patch_4">
    <path d="M 648 384.48 
L 648 51.84 
" style="fill: none; stroke: #000000; stroke-width: 0.8; stroke-linejoin: miter; stroke-linecap: square"/>
   </g>
   <g id="patch_5">
    <path d="M 90 384.48 
L 648 384.48 
" style="fill: none; stroke: #000000; stroke-width: 0.8; stroke-linejoin: miter; stroke-linecap: square"/>
   </g>
   <g id="patch_6">
    <path d="M 90 51.84 
L 648 51.84 
" style="fill: none; stroke: #000000; stroke-width: 0.8; stroke-linejoin: miter; stroke-linecap: square"/>
   </g>
   <g id="text_19">
    <!-- Simulation: A=8.2, $\omega$=10.0, l=2.8, $\theta_0$=3.2165926535897933 -->
    <g transform="translate(186.24 45.84) scale(0.12 -0.12)">
     <defs>
      <path id="DejaVuSans-53" d="M 3425 4513 
L 3425 3897 
Q 3066 4069 2747 4153 
Q 2428 4238 2131 4238 
Q 1616 4238 1336 4038 
Q 1056 3838 1056 3469 
Q 1056 3159 1242 3001 
Q 1428 2844 1947 2747 
L 2328 2669 
Q 3034 2534 3370 2195 
Q 3706 1856 3706 1288 
Q 3706 609 3251 259 
Q 2797 -91 1919 -91 
Q 1588 -91 1214 -16 
Q 841 59 441 206 
L 441 856 
Q 825 641 1194 531 
Q 1563 422 1919 422 
Q 2459 422 2753 634 
Q 3047 847 3047 1241 
Q 3047 1584 2836 1778 
Q 2625 1972 2144 2069 
L 1759 2144 
Q 1053 2284 737 2584 
Q 422 2884 422 3419 
Q 422 4038 858 4394 
Q 1294 4750 2059 4750 
Q 2388 4750 2728 4690 
Q 3069 4631 3425 4513 
z
" transform="scale(0.015625)"/>
      <path id="DejaVuSans-75" d="M 544 1381 
L 544 3500 
L 1119 3500 
L 1119 1403 
Q 1119 906 1312 657 
Q 1506 409 1894 409 
Q 2359 409 2629 706 
Q 2900 1003 2900 1516 
L 2900 3500 
L 3475 3500 
L 3475 0 
L 2900 0 
L 2900 538 
Q 2691 219 2414 64 
Q 2138 -91 1772 -91 
Q 1169 -91 856 284 
Q 544 659 544 1381 
z
M 1991 3584 
L 1991 3584 
z
" transform="scale(0.015625)"/>
      <path id="DejaVuSans-6c" d="M 603 4863 
L 1178 4863 
L 1178 0 
L 603 0 
L 603 4863 
z
" transform="scale(0.015625)"/>
      <path id="DejaVuSans-61" d="M 2194 1759 
Q 1497 1759 1228 1600 
Q 959 1441 959 1056 
Q 959 750 1161 570 
Q 1363 391 1709 391 
Q 2188 391 2477 730 
Q 2766 1069 2766 1631 
L 2766 1759 
L 2194 1759 
z
M 3341 1997 
L 3341 0 
L 2766 0 
L 2766 531 
Q 2569 213 2275 61 
Q 1981 -91 1556 -91 
Q 1019 -91 701 211 
Q 384 513 384 1019 
Q 384 1609 779 1909 
Q 1175 2209 1959 2209 
L 2766 2209 
L 2766 2266 
Q 2766 2663 2505 2880 
Q 2244 3097 1772 3097 
Q 1472 3097 1187 3025 
Q 903 2953 641 2809 
L 641 3341 
Q 956 3463 1253 3523 
Q 1550 3584 1831 3584 
Q 2591 3584 2966 3190 
Q 3341 2797 3341 1997 
z
" transform="scale(0.015625)"/>
      <path id="DejaVuSans-6f" d="M 1959 3097 
Q 1497 3097 1228 2736 
Q 959 2375 959 1747 
Q 959 1119 1226 758 
Q 1494 397 1959 397 
Q 2419 397 2687 759 
Q 2956 1122 2956 1747 
Q 2956 2369 2687 2733 
Q 2419 3097 1959 3097 
z
M 1959 3584 
Q 2709 3584 3137 3096 
Q 3566 2609 3566 1747 
Q 3566 888 3137 398 
Q 2709 -91 1959 -91 
Q 1206 -91 779 398 
Q 353 888 353 1747 
Q 353 2609 779 3096 
Q 1206 3584 1959 3584 
z
" transform="scale(0.015625)"/>
      <path id="DejaVuSans-6e" d="M 3513 2113 
L 3513 0 
L 2938 0 
L 2938 2094 
Q 2938 2591 2744 2837 
Q 2550 3084 2163 3084 
Q 1697 3084 1428 2787 
Q 1159 2491 1159 1978 
L 1159 0 
L 581 0 
L 581 3500 
L 1159 3500 
L 1159 2956 
Q 1366 3272 1645 3428 
Q 1925 3584 2291 3584 
Q 2894 3584 3203 3211 
Q 3513 2838 3513 2113 
z
" transform="scale(0.015625)"/>
      <path id="DejaVuSans-3a" d="M 750 794 
L 1409 794 
L 1409 0 
L 750 0 
L 750 794 
z
M 750 3309 
L 1409 3309 
L 1409 2516 
L 750 2516 
L 750 3309 
z
" transform="scale(0.015625)"/>
      <path id="DejaVuSans-41" d="M 2188 4044 
L 1331 1722 
L 3047 1722 
L 2188 4044 
z
M 1831 4666 
L 2547 4666 
L 4325 0 
L 3669 0 
L 3244 1197 
L 1141 1197 
L 716 0 
L 50 0 
L 1831 4666 
z
" transform="scale(0.015625)"/>
      <path id="DejaVuSans-3d" d="M 678 2906 
L 4684 2906 
L 4684 2381 
L 678 2381 
L 678 2906 
z
M 678 1631 
L 4684 1631 
L 4684 1100 
L 678 1100 
L 678 1631 
z
" transform="scale(0.015625)"/>
      <path id="DejaVuSans-38" d="M 2034 2216 
Q 1584 2216 1326 1975 
Q 1069 1734 1069 1313 
Q 1069 891 1326 650 
Q 1584 409 2034 409 
Q 2484 409 2743 651 
Q 3003 894 3003 1313 
Q 3003 1734 2745 1975 
Q 2488 2216 2034 2216 
z
M 1403 2484 
Q 997 2584 770 2862 
Q 544 3141 544 3541 
Q 544 4100 942 4425 
Q 1341 4750 2034 4750 
Q 2731 4750 3128 4425 
Q 3525 4100 3525 3541 
Q 3525 3141 3298 2862 
Q 3072 2584 2669 2484 
Q 3125 2378 3379 2068 
Q 3634 1759 3634 1313 
Q 3634 634 3220 271 
Q 2806 -91 2034 -91 
Q 1263 -91 848 271 
Q 434 634 434 1313 
Q 434 1759 690 2068 
Q 947 2378 1403 2484 
z
M 1172 3481 
Q 1172 3119 1398 2916 
Q 1625 2713 2034 2713 
Q 2441 2713 2670 2916 
Q 2900 3119 2900 3481 
Q 2900 3844 2670 4047 
Q 2441 4250 2034 4250 
Q 1625 4250 1398 4047 
Q 1172 3844 1172 3481 
z
" transform="scale(0.015625)"/>
      <path id="DejaVuSans-2c" d="M 750 794 
L 1409 794 
L 1409 256 
L 897 -744 
L 494 -744 
L 750 256 
L 750 794 
z
" transform="scale(0.015625)"/>
      <path id="DejaVuSans-Oblique-3c9" d="M 1369 -91 
Q 72 -91 434 1766 
Q 575 2500 1256 3500 
L 1875 3500 
Q 1231 2500 1088 1750 
Q 819 397 1519 397 
Q 2166 397 2478 2078 
L 3009 2078 
Q 2669 388 3316 397 
Q 4013 403 4275 1750 
Q 4419 2500 4169 3500 
L 4788 3500 
Q 5075 2500 4934 1766 
Q 4578 -94 3278 -91 
Q 2428 -88 2503 844 
Q 2194 -91 1369 -91 
z
" transform="scale(0.015625)"/>
      <path id="DejaVuSans-36" d="M 2113 2584 
Q 1688 2584 1439 2293 
Q 1191 2003 1191 1497 
Q 1191 994 1439 701 
Q 1688 409 2113 409 
Q 2538 409 2786 701 
Q 3034 994 3034 1497 
Q 3034 2003 2786 2293 
Q 2538 2584 2113 2584 
z
M 3366 4563 
L 3366 3988 
Q 3128 4100 2886 4159 
Q 2644 4219 2406 4219 
Q 1781 4219 1451 3797 
Q 1122 3375 1075 2522 
Q 1259 2794 1537 2939 
Q 1816 3084 2150 3084 
Q 2853 3084 3261 2657 
Q 3669 2231 3669 1497 
Q 3669 778 3244 343 
Q 2819 -91 2113 -91 
Q 1303 -91 875 529 
Q 447 1150 447 2328 
Q 447 3434 972 4092 
Q 1497 4750 2381 4750 
Q 2619 4750 2861 4703 
Q 3103 4656 3366 4563 
z
" transform="scale(0.015625)"/>
      <path id="DejaVuSans-39" d="M 703 97 
L 703 672 
Q 941 559 1184 500 
Q 1428 441 1663 441 
Q 2288 441 2617 861 
Q 2947 1281 2994 2138 
Q 2813 1869 2534 1725 
Q 2256 1581 1919 1581 
Q 1219 1581 811 2004 
Q 403 2428 403 3163 
Q 403 3881 828 4315 
Q 1253 4750 1959 4750 
Q 2769 4750 3195 4129 
Q 3622 3509 3622 2328 
Q 3622 1225 3098 567 
Q 2575 -91 1691 -91 
Q 1453 -91 1209 -44 
Q 966 3 703 97 
z
M 1959 2075 
Q 2384 2075 2632 2365 
Q 2881 2656 2881 3163 
Q 2881 3666 2632 3958 
Q 2384 4250 1959 4250 
Q 1534 4250 1286 3958 
Q 1038 3666 1038 3163 
Q 1038 2656 1286 2365 
Q 1534 2075 1959 2075 
z
" transform="scale(0.015625)"/>
     </defs>
     <use xlink:href="#DejaVuSans-53" transform="translate(0 0.234375)"/>
     <use xlink:href="#DejaVuSans-69" transform="translate(63.476562 0.234375)"/>
     <use xlink:href="#DejaVuSans-6d" transform="translate(91.259766 0.234375)"/>
     <use xlink:href="#DejaVuSans-75" transform="translate(188.671875 0.234375)"/>
     <use xlink:href="#DejaVuSans-6c" transform="translate(252.050781 0.234375)"/>
     <use xlink:href="#DejaVuSans-61" transform="translate(279.833984 0.234375)"/>
     <use xlink:href="#DejaVuSans-74" transform="translate(341.113281 0.234375)"/>
     <use xlink:href="#DejaVuSans-69" transform="translate(380.322266 0.234375)"/>
     <use xlink:href="#DejaVuSans-6f" transform="translate(408.105469 0.234375)"/>
     <use xlink:href="#DejaVuSans-6e" transform="translate(469.287109 0.234375)"/>
     <use xlink:href="#DejaVuSans-3a" transform="translate(532.666016 0.234375)"/>
     <use xlink:href="#DejaVuSans-20" transform="translate(566.357422 0.234375)"/>
     <use xlink:href="#DejaVuSans-41" transform="translate(598.144531 0.234375)"/>
     <use xlink:href="#DejaVuSans-3d" transform="translate(666.552734 0.234375)"/>
     <use xlink:href="#DejaVuSans-38" transform="translate(750.341797 0.234375)"/>
     <use xlink:href="#DejaVuSans-2e" transform="translate(813.964844 0.234375)"/>
     <use xlink:href="#DejaVuSans-32" transform="translate(840.251953 0.234375)"/>
     <use xlink:href="#DejaVuSans-2c" transform="translate(903.875 0.234375)"/>
     <use xlink:href="#DejaVuSans-20" transform="translate(935.662109 0.234375)"/>
     <use xlink:href="#DejaVuSans-Oblique-3c9" transform="translate(967.449219 0.234375)"/>
     <use xlink:href="#DejaVuSans-3d" transform="translate(1051.189453 0.234375)"/>
     <use xlink:href="#DejaVuSans-31" transform="translate(1134.978516 0.234375)"/>
     <use xlink:href="#DejaVuSans-30" transform="translate(1198.601562 0.234375)"/>
     <use xlink:href="#DejaVuSans-2e" transform="translate(1262.224609 0.234375)"/>
     <use xlink:href="#DejaVuSans-30" transform="translate(1294.011719 0.234375)"/>
     <use xlink:href="#DejaVuSans-2c" transform="translate(1357.634766 0.234375)"/>
     <use xlink:href="#DejaVuSans-20" transform="translate(1389.421875 0.234375)"/>
     <use xlink:href="#DejaVuSans-6c" transform="translate(1421.208984 0.234375)"/>
     <use xlink:href="#DejaVuSans-3d" transform="translate(1448.992188 0.234375)"/>
     <use xlink:href="#DejaVuSans-32" transform="translate(1532.78125 0.234375)"/>
     <use xlink:href="#DejaVuSans-2e" transform="translate(1596.404297 0.234375)"/>
     <use xlink:href="#DejaVuSans-38" transform="translate(1625.566406 0.234375)"/>
     <use xlink:href="#DejaVuSans-2c" transform="translate(1689.189453 0.234375)"/>
     <use xlink:href="#DejaVuSans-20" transform="translate(1720.976562 0.234375)"/>
     <use xlink:href="#DejaVuSans-Oblique-3b8" transform="translate(1752.763672 0.234375)"/>
     <use xlink:href="#DejaVuSans-30" transform="translate(1813.945312 -16.171875) scale(0.7)"/>
     <use xlink:href="#DejaVuSans-3d" transform="translate(1861.21582 0.234375)"/>
     <use xlink:href="#DejaVuSans-33" transform="translate(1945.004883 0.234375)"/>
     <use xlink:href="#DejaVuSans-2e" transform="translate(2008.62793 0.234375)"/>
     <use xlink:href="#DejaVuSans-32" transform="translate(2034.915039 0.234375)"/>
     <use xlink:href="#DejaVuSans-31" transform="translate(2098.538086 0.234375)"/>
     <use xlink:href="#DejaVuSans-36" transform="translate(2162.161133 0.234375)"/>
     <use xlink:href="#DejaVuSans-35" transform="translate(2225.78418 0.234375)"/>
     <use xlink:href="#DejaVuSans-39" transform="translate(2283.907227 0.234375)"/>
     <use xlink:href="#DejaVuSans-32" transform="translate(2345.780273 0.234375)"/>
     <use xlink:href="#DejaVuSans-36" transform="translate(2409.40332 0.234375)"/>
     <use xlink:href="#DejaVuSans-35" transform="translate(2473.026367 0.234375)"/>
     <use xlink:href="#DejaVuSans-33" transform="translate(2536.649414 0.234375)"/>
     <use xlink:href="#DejaVuSans-35" transform="translate(2600.272461 0.234375)"/>
     <use xlink:href="#DejaVuSans-38" transform="translate(2663.895508 0.234375)"/>
     <use xlink:href="#DejaVuSans-39" transform="translate(2727.518555 0.234375)"/>
     <use xlink:href="#DejaVuSans-37" transform="translate(2791.141602 0.234375)"/>
     <use xlink:href="#DejaVuSans-39" transform="translate(2854.764648 0.234375)"/>
     <use xlink:href="#DejaVuSans-33" transform="translate(2918.387695 0.234375)"/>
     <use xlink:href="#DejaVuSans-33" transform="translate(2982.010742 0.234375)"/>
    </g>
   </g>
   <g id="legend_1">
    <g id="patch_7">
     <path d="M 97 103.874375 
L 197.403125 103.874375 
Q 199.403125 103.874375 199.403125 101.874375 
L 199.403125 58.84 
Q 199.403125 56.84 197.403125 56.84 
L 97 56.84 
Q 95 56.84 95 58.84 
L 95 101.874375 
Q 95 103.874375 97 103.874375 
z
" style="fill: #ffffff; opacity: 0.8; stroke: #cccccc; stroke-linejoin: miter"/>
    </g>
    <g id="line2d_36">
     <path d="M 99 64.938437 
L 109 64.938437 
L 119 64.938437 
" style="fill: none; stroke: #1f77b4; stroke-width: 1.5; stroke-linecap: square"/>
    </g>
    <g id="text_20">
     <!-- Original -->
     <g transform="translate(127 68.438437) scale(0.1 -0.1)">
      <defs>
       <path id="DejaVuSans-4f" d="M 2522 4238 
Q 1834 4238 1429 3725 
Q 1025 3213 1025 2328 
Q 1025 1447 1429 934 
Q 1834 422 2522 422 
Q 3209 422 3611 934 
Q 4013 1447 4013 2328 
Q 4013 3213 3611 3725 
Q 3209 4238 2522 4238 
z
M 2522 4750 
Q 3503 4750 4090 4092 
Q 4678 3434 4678 2328 
Q 4678 1225 4090 567 
Q 3503 -91 2522 -91 
Q 1538 -91 948 565 
Q 359 1222 359 2328 
Q 359 3434 948 4092 
Q 1538 4750 2522 4750 
z
" transform="scale(0.015625)"/>
       <path id="DejaVuSans-72" d="M 2631 2963 
Q 2534 3019 2420 3045 
Q 2306 3072 2169 3072 
Q 1681 3072 1420 2755 
Q 1159 2438 1159 1844 
L 1159 0 
L 581 0 
L 581 3500 
L 1159 3500 
L 1159 2956 
Q 1341 3275 1631 3429 
Q 1922 3584 2338 3584 
Q 2397 3584 2469 3576 
Q 2541 3569 2628 3553 
L 2631 2963 
z
" transform="scale(0.015625)"/>
       <path id="DejaVuSans-67" d="M 2906 1791 
Q 2906 2416 2648 2759 
Q 2391 3103 1925 3103 
Q 1463 3103 1205 2759 
Q 947 2416 947 1791 
Q 947 1169 1205 825 
Q 1463 481 1925 481 
Q 2391 481 2648 825 
Q 2906 1169 2906 1791 
z
M 3481 434 
Q 3481 -459 3084 -895 
Q 2688 -1331 1869 -1331 
Q 1566 -1331 1297 -1286 
Q 1028 -1241 775 -1147 
L 775 -588 
Q 1028 -725 1275 -790 
Q 1522 -856 1778 -856 
Q 2344 -856 2625 -561 
Q 2906 -266 2906 331 
L 2906 616 
Q 2728 306 2450 153 
Q 2172 0 1784 0 
Q 1141 0 747 490 
Q 353 981 353 1791 
Q 353 2603 747 3093 
Q 1141 3584 1784 3584 
Q 2172 3584 2450 3431 
Q 2728 3278 2906 2969 
L 2906 3500 
L 3481 3500 
L 3481 434 
z
" transform="scale(0.015625)"/>
      </defs>
      <use xlink:href="#DejaVuSans-4f"/>
      <use xlink:href="#DejaVuSans-72" x="78.710938"/>
      <use xlink:href="#DejaVuSans-69" x="119.824219"/>
      <use xlink:href="#DejaVuSans-67" x="147.607422"/>
      <use xlink:href="#DejaVuSans-69" x="211.083984"/>
      <use xlink:href="#DejaVuSans-6e" x="238.867188"/>
      <use xlink:href="#DejaVuSans-61" x="302.246094"/>
      <use xlink:href="#DejaVuSans-6c" x="363.525391"/>
     </g>
    </g>
    <g id="line2d_37">
     <path d="M 99 79.616562 
L 109 79.616562 
L 119 79.616562 
" style="fill: none; stroke: #ff7f0e; stroke-width: 1.5; stroke-linecap: square"/>
    </g>
    <g id="text_21">
     <!-- First-Order -->
     <g transform="translate(127 83.116562) scale(0.1 -0.1)">
      <defs>
       <path id="DejaVuSans-46" d="M 628 4666 
L 3309 4666 
L 3309 4134 
L 1259 4134 
L 1259 2759 
L 3109 2759 
L 3109 2228 
L 1259 2228 
L 1259 0 
L 628 0 
L 628 4666 
z
" transform="scale(0.015625)"/>
       <path id="DejaVuSans-73" d="M 2834 3397 
L 2834 2853 
Q 2591 2978 2328 3040 
Q 2066 3103 1784 3103 
Q 1356 3103 1142 2972 
Q 928 2841 928 2578 
Q 928 2378 1081 2264 
Q 1234 2150 1697 2047 
L 1894 2003 
Q 2506 1872 2764 1633 
Q 3022 1394 3022 966 
Q 3022 478 2636 193 
Q 2250 -91 1575 -91 
Q 1294 -91 989 -36 
Q 684 19 347 128 
L 347 722 
Q 666 556 975 473 
Q 1284 391 1588 391 
Q 1994 391 2212 530 
Q 2431 669 2431 922 
Q 2431 1156 2273 1281 
Q 2116 1406 1581 1522 
L 1381 1569 
Q 847 1681 609 1914 
Q 372 2147 372 2553 
Q 372 3047 722 3315 
Q 1072 3584 1716 3584 
Q 2034 3584 2315 3537 
Q 2597 3491 2834 3397 
z
" transform="scale(0.015625)"/>
       <path id="DejaVuSans-2d" d="M 313 2009 
L 1997 2009 
L 1997 1497 
L 313 1497 
L 313 2009 
z
" transform="scale(0.015625)"/>
       <path id="DejaVuSans-64" d="M 2906 2969 
L 2906 4863 
L 3481 4863 
L 3481 0 
L 2906 0 
L 2906 525 
Q 2725 213 2448 61 
Q 2172 -91 1784 -91 
Q 1150 -91 751 415 
Q 353 922 353 1747 
Q 353 2572 751 3078 
Q 1150 3584 1784 3584 
Q 2172 3584 2448 3432 
Q 2725 3281 2906 2969 
z
M 947 1747 
Q 947 1113 1208 752 
Q 1469 391 1925 391 
Q 2381 391 2643 752 
Q 2906 1113 2906 1747 
Q 2906 2381 2643 2742 
Q 2381 3103 1925 3103 
Q 1469 3103 1208 2742 
Q 947 2381 947 1747 
z
" transform="scale(0.015625)"/>
      </defs>
      <use xlink:href="#DejaVuSans-46"/>
      <use xlink:href="#DejaVuSans-69" x="50.269531"/>
      <use xlink:href="#DejaVuSans-72" x="78.052734"/>
      <use xlink:href="#DejaVuSans-73" x="119.166016"/>
      <use xlink:href="#DejaVuSans-74" x="171.265625"/>
      <use xlink:href="#DejaVuSans-2d" x="210.474609"/>
      <use xlink:href="#DejaVuSans-4f" x="249.308594"/>
      <use xlink:href="#DejaVuSans-72" x="328.019531"/>
      <use xlink:href="#DejaVuSans-64" x="367.382812"/>
      <use xlink:href="#DejaVuSans-65" x="430.859375"/>
      <use xlink:href="#DejaVuSans-72" x="492.382812"/>
     </g>
    </g>
    <g id="line2d_38">
     <path d="M 99 94.294687 
L 109 94.294687 
L 119 94.294687 
" style="fill: none; stroke: #2ca02c; stroke-width: 1.5; stroke-linecap: square"/>
    </g>
    <g id="text_22">
     <!-- Second Order -->
     <g transform="translate(127 97.794687) scale(0.1 -0.1)">
      <defs>
       <path id="DejaVuSans-63" d="M 3122 3366 
L 3122 2828 
Q 2878 2963 2633 3030 
Q 2388 3097 2138 3097 
Q 1578 3097 1268 2742 
Q 959 2388 959 1747 
Q 959 1106 1268 751 
Q 1578 397 2138 397 
Q 2388 397 2633 464 
Q 2878 531 3122 666 
L 3122 134 
Q 2881 22 2623 -34 
Q 2366 -91 2075 -91 
Q 1284 -91 818 406 
Q 353 903 353 1747 
Q 353 2603 823 3093 
Q 1294 3584 2113 3584 
Q 2378 3584 2631 3529 
Q 2884 3475 3122 3366 
z
" transform="scale(0.015625)"/>
      </defs>
      <use xlink:href="#DejaVuSans-53"/>
      <use xlink:href="#DejaVuSans-65" x="63.476562"/>
      <use xlink:href="#DejaVuSans-63" x="125"/>
      <use xlink:href="#DejaVuSans-6f" x="179.980469"/>
      <use xlink:href="#DejaVuSans-6e" x="241.162109"/>
      <use xlink:href="#DejaVuSans-64" x="304.541016"/>
      <use xlink:href="#DejaVuSans-20" x="368.017578"/>
      <use xlink:href="#DejaVuSans-4f" x="399.804688"/>
      <use xlink:href="#DejaVuSans-72" x="478.515625"/>
      <use xlink:href="#DejaVuSans-64" x="517.878906"/>
      <use xlink:href="#DejaVuSans-65" x="581.355469"/>
      <use xlink:href="#DejaVuSans-72" x="642.878906"/>
     </g>
    </g>
   </g>
  </g>
 </g>
 <defs>
  <clipPath id="pd67a6cdb5a">
   <rect x="90" y="51.84" width="558" height="332.64"/>
  </clipPath>
 </defs>
</svg>
