<?xml version="1.0" encoding="utf-8" standalone="no"?>
<!DOCTYPE svg PUBLIC "-//W3C//DTD SVG 1.1//EN"
  "http://www.w3.org/Graphics/SVG/1.1/DTD/svg11.dtd">
<svg xmlns:xlink="http://www.w3.org/1999/xlink" width="720pt" height="432pt" viewBox="0 0 720 432" xmlns="http://www.w3.org/2000/svg" version="1.1">
 <metadata>
  <rdf:RDF xmlns:dc="http://purl.org/dc/elements/1.1/" xmlns:cc="http://creativecommons.org/ns#" xmlns:rdf="http://www.w3.org/1999/02/22-rdf-syntax-ns#">
   <cc:Work>
    <dc:type rdf:resource="http://purl.org/dc/dcmitype/StillImage"/>
    <dc:date>2025-05-05T10:48:38.602154</dc:date>
    <dc:format>image/svg+xml</dc:format>
    <dc:creator>
     <cc:Agent>
      <dc:title>Matplotlib v3.7.2, https://matplotlib.org/</dc:title>
     </cc:Agent>
    </dc:creator>
   </cc:Work>
  </rdf:RDF>
 </metadata>
 <defs>
  <style type="text/css">*{stroke-linejoin: round; stroke-linecap: butt}</style>
 </defs>
 <g id="figure_1">
  <g id="patch_1">
   <path d="M 0 432 
L 720 432 
L 720 0 
L 0 0 
z
" style="fill: #ffffff"/>
  </g>
  <g id="axes_1">
   <g id="patch_2">
    <path d="M 90 384.48 
L 648 384.48 
L 648 51.84 
L 90 51.84 
z
" style="fill: #ffffff"/>
   </g>
   <g id="matplotlib.axis_1">
    <g id="xtick_1">
     <g id="line2d_1">
      <path d="M 90 384.48 
L 90 51.84 
" clip-path="url(#pbcd6b3282f)" style="fill: none; stroke: #b0b0b0; stroke-width: 0.8; stroke-linecap: square"/>
     </g>
     <g id="line2d_2">
      <defs>
       <path id="m2dc7537e81" d="M 0 0 
L 0 3.5 
" style="stroke: #000000; stroke-width: 0.8"/>
      </defs>
      <g>
       <use xlink:href="#m2dc7537e81" x="90" y="384.48" style="stroke: #000000; stroke-width: 0.8"/>
      </g>
     </g>
     <g id="text_1">
      <!-- 0 -->
      <g transform="translate(86.81875 399.078438) scale(0.1 -0.1)">
       <defs>
        <path id="DejaVuSans-30" d="M 2034 4250 
Q 1547 4250 1301 3770 
Q 1056 3291 1056 2328 
Q 1056 1369 1301 889 
Q 1547 409 2034 409 
Q 2525 409 2770 889 
Q 3016 1369 3016 2328 
Q 3016 3291 2770 3770 
Q 2525 4250 2034 4250 
z
M 2034 4750 
Q 2819 4750 3233 4129 
Q 3647 3509 3647 2328 
Q 3647 1150 3233 529 
Q 2819 -91 2034 -91 
Q 1250 -91 836 529 
Q 422 1150 422 2328 
Q 422 3509 836 4129 
Q 1250 4750 2034 4750 
z
" transform="scale(0.015625)"/>
       </defs>
       <use xlink:href="#DejaVuSans-30"/>
      </g>
     </g>
    </g>
    <g id="xtick_2">
     <g id="line2d_3">
      <path d="M 159.75 384.48 
L 159.75 51.84 
" clip-path="url(#pbcd6b3282f)" style="fill: none; stroke: #b0b0b0; stroke-width: 0.8; stroke-linecap: square"/>
     </g>
     <g id="line2d_4">
      <g>
       <use xlink:href="#m2dc7537e81" x="159.75" y="384.48" style="stroke: #000000; stroke-width: 0.8"/>
      </g>
     </g>
     <g id="text_2">
      <!-- 2 -->
      <g transform="translate(156.56875 399.078438) scale(0.1 -0.1)">
       <defs>
        <path id="DejaVuSans-32" d="M 1228 531 
L 3431 531 
L 3431 0 
L 469 0 
L 469 531 
Q 828 903 1448 1529 
Q 2069 2156 2228 2338 
Q 2531 2678 2651 2914 
Q 2772 3150 2772 3378 
Q 2772 3750 2511 3984 
Q 2250 4219 1831 4219 
Q 1534 4219 1204 4116 
Q 875 4013 500 3803 
L 500 4441 
Q 881 4594 1212 4672 
Q 1544 4750 1819 4750 
Q 2544 4750 2975 4387 
Q 3406 4025 3406 3419 
Q 3406 3131 3298 2873 
Q 3191 2616 2906 2266 
Q 2828 2175 2409 1742 
Q 1991 1309 1228 531 
z
" transform="scale(0.015625)"/>
       </defs>
       <use xlink:href="#DejaVuSans-32"/>
      </g>
     </g>
    </g>
    <g id="xtick_3">
     <g id="line2d_5">
      <path d="M 229.5 384.48 
L 229.5 51.84 
" clip-path="url(#pbcd6b3282f)" style="fill: none; stroke: #b0b0b0; stroke-width: 0.8; stroke-linecap: square"/>
     </g>
     <g id="line2d_6">
      <g>
       <use xlink:href="#m2dc7537e81" x="229.5" y="384.48" style="stroke: #000000; stroke-width: 0.8"/>
      </g>
     </g>
     <g id="text_3">
      <!-- 4 -->
      <g transform="translate(226.31875 399.078438) scale(0.1 -0.1)">
       <defs>
        <path id="DejaVuSans-34" d="M 2419 4116 
L 825 1625 
L 2419 1625 
L 2419 4116 
z
M 2253 4666 
L 3047 4666 
L 3047 1625 
L 3713 1625 
L 3713 1100 
L 3047 1100 
L 3047 0 
L 2419 0 
L 2419 1100 
L 313 1100 
L 313 1709 
L 2253 4666 
z
" transform="scale(0.015625)"/>
       </defs>
       <use xlink:href="#DejaVuSans-34"/>
      </g>
     </g>
    </g>
    <g id="xtick_4">
     <g id="line2d_7">
      <path d="M 299.25 384.48 
L 299.25 51.84 
" clip-path="url(#pbcd6b3282f)" style="fill: none; stroke: #b0b0b0; stroke-width: 0.8; stroke-linecap: square"/>
     </g>
     <g id="line2d_8">
      <g>
       <use xlink:href="#m2dc7537e81" x="299.25" y="384.48" style="stroke: #000000; stroke-width: 0.8"/>
      </g>
     </g>
     <g id="text_4">
      <!-- 6 -->
      <g transform="translate(296.06875 399.078438) scale(0.1 -0.1)">
       <defs>
        <path id="DejaVuSans-36" d="M 2113 2584 
Q 1688 2584 1439 2293 
Q 1191 2003 1191 1497 
Q 1191 994 1439 701 
Q 1688 409 2113 409 
Q 2538 409 2786 701 
Q 3034 994 3034 1497 
Q 3034 2003 2786 2293 
Q 2538 2584 2113 2584 
z
M 3366 4563 
L 3366 3988 
Q 3128 4100 2886 4159 
Q 2644 4219 2406 4219 
Q 1781 4219 1451 3797 
Q 1122 3375 1075 2522 
Q 1259 2794 1537 2939 
Q 1816 3084 2150 3084 
Q 2853 3084 3261 2657 
Q 3669 2231 3669 1497 
Q 3669 778 3244 343 
Q 2819 -91 2113 -91 
Q 1303 -91 875 529 
Q 447 1150 447 2328 
Q 447 3434 972 4092 
Q 1497 4750 2381 4750 
Q 2619 4750 2861 4703 
Q 3103 4656 3366 4563 
z
" transform="scale(0.015625)"/>
       </defs>
       <use xlink:href="#DejaVuSans-36"/>
      </g>
     </g>
    </g>
    <g id="xtick_5">
     <g id="line2d_9">
      <path d="M 369 384.48 
L 369 51.84 
" clip-path="url(#pbcd6b3282f)" style="fill: none; stroke: #b0b0b0; stroke-width: 0.8; stroke-linecap: square"/>
     </g>
     <g id="line2d_10">
      <g>
       <use xlink:href="#m2dc7537e81" x="369" y="384.48" style="stroke: #000000; stroke-width: 0.8"/>
      </g>
     </g>
     <g id="text_5">
      <!-- 8 -->
      <g transform="translate(365.81875 399.078438) scale(0.1 -0.1)">
       <defs>
        <path id="DejaVuSans-38" d="M 2034 2216 
Q 1584 2216 1326 1975 
Q 1069 1734 1069 1313 
Q 1069 891 1326 650 
Q 1584 409 2034 409 
Q 2484 409 2743 651 
Q 3003 894 3003 1313 
Q 3003 1734 2745 1975 
Q 2488 2216 2034 2216 
z
M 1403 2484 
Q 997 2584 770 2862 
Q 544 3141 544 3541 
Q 544 4100 942 4425 
Q 1341 4750 2034 4750 
Q 2731 4750 3128 4425 
Q 3525 4100 3525 3541 
Q 3525 3141 3298 2862 
Q 3072 2584 2669 2484 
Q 3125 2378 3379 2068 
Q 3634 1759 3634 1313 
Q 3634 634 3220 271 
Q 2806 -91 2034 -91 
Q 1263 -91 848 271 
Q 434 634 434 1313 
Q 434 1759 690 2068 
Q 947 2378 1403 2484 
z
M 1172 3481 
Q 1172 3119 1398 2916 
Q 1625 2713 2034 2713 
Q 2441 2713 2670 2916 
Q 2900 3119 2900 3481 
Q 2900 3844 2670 4047 
Q 2441 4250 2034 4250 
Q 1625 4250 1398 4047 
Q 1172 3844 1172 3481 
z
" transform="scale(0.015625)"/>
       </defs>
       <use xlink:href="#DejaVuSans-38"/>
      </g>
     </g>
    </g>
    <g id="xtick_6">
     <g id="line2d_11">
      <path d="M 438.75 384.48 
L 438.75 51.84 
" clip-path="url(#pbcd6b3282f)" style="fill: none; stroke: #b0b0b0; stroke-width: 0.8; stroke-linecap: square"/>
     </g>
     <g id="line2d_12">
      <g>
       <use xlink:href="#m2dc7537e81" x="438.75" y="384.48" style="stroke: #000000; stroke-width: 0.8"/>
      </g>
     </g>
     <g id="text_6">
      <!-- 10 -->
      <g transform="translate(432.3875 399.078438) scale(0.1 -0.1)">
       <defs>
        <path id="DejaVuSans-31" d="M 794 531 
L 1825 531 
L 1825 4091 
L 703 3866 
L 703 4441 
L 1819 4666 
L 2450 4666 
L 2450 531 
L 3481 531 
L 3481 0 
L 794 0 
L 794 531 
z
" transform="scale(0.015625)"/>
       </defs>
       <use xlink:href="#DejaVuSans-31"/>
       <use xlink:href="#DejaVuSans-30" x="63.623047"/>
      </g>
     </g>
    </g>
    <g id="xtick_7">
     <g id="line2d_13">
      <path d="M 508.5 384.48 
L 508.5 51.84 
" clip-path="url(#pbcd6b3282f)" style="fill: none; stroke: #b0b0b0; stroke-width: 0.8; stroke-linecap: square"/>
     </g>
     <g id="line2d_14">
      <g>
       <use xlink:href="#m2dc7537e81" x="508.5" y="384.48" style="stroke: #000000; stroke-width: 0.8"/>
      </g>
     </g>
     <g id="text_7">
      <!-- 12 -->
      <g transform="translate(502.1375 399.078438) scale(0.1 -0.1)">
       <use xlink:href="#DejaVuSans-31"/>
       <use xlink:href="#DejaVuSans-32" x="63.623047"/>
      </g>
     </g>
    </g>
    <g id="xtick_8">
     <g id="line2d_15">
      <path d="M 578.25 384.48 
L 578.25 51.84 
" clip-path="url(#pbcd6b3282f)" style="fill: none; stroke: #b0b0b0; stroke-width: 0.8; stroke-linecap: square"/>
     </g>
     <g id="line2d_16">
      <g>
       <use xlink:href="#m2dc7537e81" x="578.25" y="384.48" style="stroke: #000000; stroke-width: 0.8"/>
      </g>
     </g>
     <g id="text_8">
      <!-- 14 -->
      <g transform="translate(571.8875 399.078438) scale(0.1 -0.1)">
       <use xlink:href="#DejaVuSans-31"/>
       <use xlink:href="#DejaVuSans-34" x="63.623047"/>
      </g>
     </g>
    </g>
    <g id="xtick_9">
     <g id="line2d_17">
      <path d="M 648 384.48 
L 648 51.84 
" clip-path="url(#pbcd6b3282f)" style="fill: none; stroke: #b0b0b0; stroke-width: 0.8; stroke-linecap: square"/>
     </g>
     <g id="line2d_18">
      <g>
       <use xlink:href="#m2dc7537e81" x="648" y="384.48" style="stroke: #000000; stroke-width: 0.8"/>
      </g>
     </g>
     <g id="text_9">
      <!-- 16$T_{\mathrm{pivot}}$ -->
      <g transform="translate(629.65 398.98) scale(0.1 -0.1)">
       <defs>
        <path id="DejaVuSans-Oblique-54" d="M 378 4666 
L 4325 4666 
L 4225 4134 
L 2559 4134 
L 1759 0 
L 1125 0 
L 1925 4134 
L 275 4134 
L 378 4666 
z
" transform="scale(0.015625)"/>
        <path id="DejaVuSans-70" d="M 1159 525 
L 1159 -1331 
L 581 -1331 
L 581 3500 
L 1159 3500 
L 1159 2969 
Q 1341 3281 1617 3432 
Q 1894 3584 2278 3584 
Q 2916 3584 3314 3078 
Q 3713 2572 3713 1747 
Q 3713 922 3314 415 
Q 2916 -91 2278 -91 
Q 1894 -91 1617 61 
Q 1341 213 1159 525 
z
M 3116 1747 
Q 3116 2381 2855 2742 
Q 2594 3103 2138 3103 
Q 1681 3103 1420 2742 
Q 1159 2381 1159 1747 
Q 1159 1113 1420 752 
Q 1681 391 2138 391 
Q 2594 391 2855 752 
Q 3116 1113 3116 1747 
z
" transform="scale(0.015625)"/>
        <path id="DejaVuSans-69" d="M 603 3500 
L 1178 3500 
L 1178 0 
L 603 0 
L 603 3500 
z
M 603 4863 
L 1178 4863 
L 1178 4134 
L 603 4134 
L 603 4863 
z
" transform="scale(0.015625)"/>
        <path id="DejaVuSans-76" d="M 191 3500 
L 800 3500 
L 1894 563 
L 2988 3500 
L 3597 3500 
L 2284 0 
L 1503 0 
L 191 3500 
z
" transform="scale(0.015625)"/>
        <path id="DejaVuSans-6f" d="M 1959 3097 
Q 1497 3097 1228 2736 
Q 959 2375 959 1747 
Q 959 1119 1226 758 
Q 1494 397 1959 397 
Q 2419 397 2687 759 
Q 2956 1122 2956 1747 
Q 2956 2369 2687 2733 
Q 2419 3097 1959 3097 
z
M 1959 3584 
Q 2709 3584 3137 3096 
Q 3566 2609 3566 1747 
Q 3566 888 3137 398 
Q 2709 -91 1959 -91 
Q 1206 -91 779 398 
Q 353 888 353 1747 
Q 353 2609 779 3096 
Q 1206 3584 1959 3584 
z
" transform="scale(0.015625)"/>
        <path id="DejaVuSans-74" d="M 1172 4494 
L 1172 3500 
L 2356 3500 
L 2356 3053 
L 1172 3053 
L 1172 1153 
Q 1172 725 1289 603 
Q 1406 481 1766 481 
L 2356 481 
L 2356 0 
L 1766 0 
Q 1100 0 847 248 
Q 594 497 594 1153 
L 594 3053 
L 172 3053 
L 172 3500 
L 594 3500 
L 594 4494 
L 1172 4494 
z
" transform="scale(0.015625)"/>
       </defs>
       <use xlink:href="#DejaVuSans-31" transform="translate(0 0.78125)"/>
       <use xlink:href="#DejaVuSans-36" transform="translate(63.623047 0.78125)"/>
       <use xlink:href="#DejaVuSans-Oblique-54" transform="translate(127.246094 0.78125)"/>
       <use xlink:href="#DejaVuSans-70" transform="translate(188.330078 -15.625) scale(0.7)"/>
       <use xlink:href="#DejaVuSans-69" transform="translate(232.763672 -15.625) scale(0.7)"/>
       <use xlink:href="#DejaVuSans-76" transform="translate(252.211914 -15.625) scale(0.7)"/>
       <use xlink:href="#DejaVuSans-6f" transform="translate(293.637695 -15.625) scale(0.7)"/>
       <use xlink:href="#DejaVuSans-74" transform="translate(336.464844 -15.625) scale(0.7)"/>
      </g>
     </g>
    </g>
    <g id="xtick_10">
     <g id="line2d_19">
      <path d="M 107.4375 384.48 
L 107.4375 51.84 
" clip-path="url(#pbcd6b3282f)" style="fill: none; stroke: #b0b0b0; stroke-linecap: square"/>
     </g>
     <g id="line2d_20">
      <defs>
       <path id="m6a68885124" d="M 0 0 
L 0 2 
" style="stroke: #000000; stroke-width: 0.6"/>
      </defs>
      <g>
       <use xlink:href="#m6a68885124" x="107.4375" y="384.48" style="stroke: #000000; stroke-width: 0.6"/>
      </g>
     </g>
    </g>
    <g id="xtick_11">
     <g id="line2d_21">
      <path d="M 124.875 384.48 
L 124.875 51.84 
" clip-path="url(#pbcd6b3282f)" style="fill: none; stroke: #b0b0b0; stroke-linecap: square"/>
     </g>
     <g id="line2d_22">
      <g>
       <use xlink:href="#m6a68885124" x="124.875" y="384.48" style="stroke: #000000; stroke-width: 0.6"/>
      </g>
     </g>
    </g>
    <g id="xtick_12">
     <g id="line2d_23">
      <path d="M 142.3125 384.48 
L 142.3125 51.84 
" clip-path="url(#pbcd6b3282f)" style="fill: none; stroke: #b0b0b0; stroke-linecap: square"/>
     </g>
     <g id="line2d_24">
      <g>
       <use xlink:href="#m6a68885124" x="142.3125" y="384.48" style="stroke: #000000; stroke-width: 0.6"/>
      </g>
     </g>
    </g>
    <g id="xtick_13">
     <g id="line2d_25">
      <path d="M 177.1875 384.48 
L 177.1875 51.84 
" clip-path="url(#pbcd6b3282f)" style="fill: none; stroke: #b0b0b0; stroke-linecap: square"/>
     </g>
     <g id="line2d_26">
      <g>
       <use xlink:href="#m6a68885124" x="177.1875" y="384.48" style="stroke: #000000; stroke-width: 0.6"/>
      </g>
     </g>
    </g>
    <g id="xtick_14">
     <g id="line2d_27">
      <path d="M 194.625 384.48 
L 194.625 51.84 
" clip-path="url(#pbcd6b3282f)" style="fill: none; stroke: #b0b0b0; stroke-linecap: square"/>
     </g>
     <g id="line2d_28">
      <g>
       <use xlink:href="#m6a68885124" x="194.625" y="384.48" style="stroke: #000000; stroke-width: 0.6"/>
      </g>
     </g>
    </g>
    <g id="xtick_15">
     <g id="line2d_29">
      <path d="M 212.0625 384.48 
L 212.0625 51.84 
" clip-path="url(#pbcd6b3282f)" style="fill: none; stroke: #b0b0b0; stroke-linecap: square"/>
     </g>
     <g id="line2d_30">
      <g>
       <use xlink:href="#m6a68885124" x="212.0625" y="384.48" style="stroke: #000000; stroke-width: 0.6"/>
      </g>
     </g>
    </g>
    <g id="xtick_16">
     <g id="line2d_31">
      <path d="M 246.9375 384.48 
L 246.9375 51.84 
" clip-path="url(#pbcd6b3282f)" style="fill: none; stroke: #b0b0b0; stroke-linecap: square"/>
     </g>
     <g id="line2d_32">
      <g>
       <use xlink:href="#m6a68885124" x="246.9375" y="384.48" style="stroke: #000000; stroke-width: 0.6"/>
      </g>
     </g>
    </g>
    <g id="xtick_17">
     <g id="line2d_33">
      <path d="M 264.375 384.48 
L 264.375 51.84 
" clip-path="url(#pbcd6b3282f)" style="fill: none; stroke: #b0b0b0; stroke-linecap: square"/>
     </g>
     <g id="line2d_34">
      <g>
       <use xlink:href="#m6a68885124" x="264.375" y="384.48" style="stroke: #000000; stroke-width: 0.6"/>
      </g>
     </g>
    </g>
    <g id="xtick_18">
     <g id="line2d_35">
      <path d="M 281.8125 384.48 
L 281.8125 51.84 
" clip-path="url(#pbcd6b3282f)" style="fill: none; stroke: #b0b0b0; stroke-linecap: square"/>
     </g>
     <g id="line2d_36">
      <g>
       <use xlink:href="#m6a68885124" x="281.8125" y="384.48" style="stroke: #000000; stroke-width: 0.6"/>
      </g>
     </g>
    </g>
    <g id="xtick_19">
     <g id="line2d_37">
      <path d="M 316.6875 384.48 
L 316.6875 51.84 
" clip-path="url(#pbcd6b3282f)" style="fill: none; stroke: #b0b0b0; stroke-linecap: square"/>
     </g>
     <g id="line2d_38">
      <g>
       <use xlink:href="#m6a68885124" x="316.6875" y="384.48" style="stroke: #000000; stroke-width: 0.6"/>
      </g>
     </g>
    </g>
    <g id="xtick_20">
     <g id="line2d_39">
      <path d="M 334.125 384.48 
L 334.125 51.84 
" clip-path="url(#pbcd6b3282f)" style="fill: none; stroke: #b0b0b0; stroke-linecap: square"/>
     </g>
     <g id="line2d_40">
      <g>
       <use xlink:href="#m6a68885124" x="334.125" y="384.48" style="stroke: #000000; stroke-width: 0.6"/>
      </g>
     </g>
    </g>
    <g id="xtick_21">
     <g id="line2d_41">
      <path d="M 351.5625 384.48 
L 351.5625 51.84 
" clip-path="url(#pbcd6b3282f)" style="fill: none; stroke: #b0b0b0; stroke-linecap: square"/>
     </g>
     <g id="line2d_42">
      <g>
       <use xlink:href="#m6a68885124" x="351.5625" y="384.48" style="stroke: #000000; stroke-width: 0.6"/>
      </g>
     </g>
    </g>
    <g id="xtick_22">
     <g id="line2d_43">
      <path d="M 386.4375 384.48 
L 386.4375 51.84 
" clip-path="url(#pbcd6b3282f)" style="fill: none; stroke: #b0b0b0; stroke-linecap: square"/>
     </g>
     <g id="line2d_44">
      <g>
       <use xlink:href="#m6a68885124" x="386.4375" y="384.48" style="stroke: #000000; stroke-width: 0.6"/>
      </g>
     </g>
    </g>
    <g id="xtick_23">
     <g id="line2d_45">
      <path d="M 403.875 384.48 
L 403.875 51.84 
" clip-path="url(#pbcd6b3282f)" style="fill: none; stroke: #b0b0b0; stroke-linecap: square"/>
     </g>
     <g id="line2d_46">
      <g>
       <use xlink:href="#m6a68885124" x="403.875" y="384.48" style="stroke: #000000; stroke-width: 0.6"/>
      </g>
     </g>
    </g>
    <g id="xtick_24">
     <g id="line2d_47">
      <path d="M 421.3125 384.48 
L 421.3125 51.84 
" clip-path="url(#pbcd6b3282f)" style="fill: none; stroke: #b0b0b0; stroke-linecap: square"/>
     </g>
     <g id="line2d_48">
      <g>
       <use xlink:href="#m6a68885124" x="421.3125" y="384.48" style="stroke: #000000; stroke-width: 0.6"/>
      </g>
     </g>
    </g>
    <g id="xtick_25">
     <g id="line2d_49">
      <path d="M 456.1875 384.48 
L 456.1875 51.84 
" clip-path="url(#pbcd6b3282f)" style="fill: none; stroke: #b0b0b0; stroke-linecap: square"/>
     </g>
     <g id="line2d_50">
      <g>
       <use xlink:href="#m6a68885124" x="456.1875" y="384.48" style="stroke: #000000; stroke-width: 0.6"/>
      </g>
     </g>
    </g>
    <g id="xtick_26">
     <g id="line2d_51">
      <path d="M 473.625 384.48 
L 473.625 51.84 
" clip-path="url(#pbcd6b3282f)" style="fill: none; stroke: #b0b0b0; stroke-linecap: square"/>
     </g>
     <g id="line2d_52">
      <g>
       <use xlink:href="#m6a68885124" x="473.625" y="384.48" style="stroke: #000000; stroke-width: 0.6"/>
      </g>
     </g>
    </g>
    <g id="xtick_27">
     <g id="line2d_53">
      <path d="M 491.0625 384.48 
L 491.0625 51.84 
" clip-path="url(#pbcd6b3282f)" style="fill: none; stroke: #b0b0b0; stroke-linecap: square"/>
     </g>
     <g id="line2d_54">
      <g>
       <use xlink:href="#m6a68885124" x="491.0625" y="384.48" style="stroke: #000000; stroke-width: 0.6"/>
      </g>
     </g>
    </g>
    <g id="xtick_28">
     <g id="line2d_55">
      <path d="M 525.9375 384.48 
L 525.9375 51.84 
" clip-path="url(#pbcd6b3282f)" style="fill: none; stroke: #b0b0b0; stroke-linecap: square"/>
     </g>
     <g id="line2d_56">
      <g>
       <use xlink:href="#m6a68885124" x="525.9375" y="384.48" style="stroke: #000000; stroke-width: 0.6"/>
      </g>
     </g>
    </g>
    <g id="xtick_29">
     <g id="line2d_57">
      <path d="M 543.375 384.48 
L 543.375 51.84 
" clip-path="url(#pbcd6b3282f)" style="fill: none; stroke: #b0b0b0; stroke-linecap: square"/>
     </g>
     <g id="line2d_58">
      <g>
       <use xlink:href="#m6a68885124" x="543.375" y="384.48" style="stroke: #000000; stroke-width: 0.6"/>
      </g>
     </g>
    </g>
    <g id="xtick_30">
     <g id="line2d_59">
      <path d="M 560.8125 384.48 
L 560.8125 51.84 
" clip-path="url(#pbcd6b3282f)" style="fill: none; stroke: #b0b0b0; stroke-linecap: square"/>
     </g>
     <g id="line2d_60">
      <g>
       <use xlink:href="#m6a68885124" x="560.8125" y="384.48" style="stroke: #000000; stroke-width: 0.6"/>
      </g>
     </g>
    </g>
    <g id="xtick_31">
     <g id="line2d_61">
      <path d="M 595.6875 384.48 
L 595.6875 51.84 
" clip-path="url(#pbcd6b3282f)" style="fill: none; stroke: #b0b0b0; stroke-linecap: square"/>
     </g>
     <g id="line2d_62">
      <g>
       <use xlink:href="#m6a68885124" x="595.6875" y="384.48" style="stroke: #000000; stroke-width: 0.6"/>
      </g>
     </g>
    </g>
    <g id="xtick_32">
     <g id="line2d_63">
      <path d="M 613.125 384.48 
L 613.125 51.84 
" clip-path="url(#pbcd6b3282f)" style="fill: none; stroke: #b0b0b0; stroke-linecap: square"/>
     </g>
     <g id="line2d_64">
      <g>
       <use xlink:href="#m6a68885124" x="613.125" y="384.48" style="stroke: #000000; stroke-width: 0.6"/>
      </g>
     </g>
    </g>
    <g id="xtick_33">
     <g id="line2d_65">
      <path d="M 630.5625 384.48 
L 630.5625 51.84 
" clip-path="url(#pbcd6b3282f)" style="fill: none; stroke: #b0b0b0; stroke-linecap: square"/>
     </g>
     <g id="line2d_66">
      <g>
       <use xlink:href="#m6a68885124" x="630.5625" y="384.48" style="stroke: #000000; stroke-width: 0.6"/>
      </g>
     </g>
    </g>
   </g>
   <g id="matplotlib.axis_2">
    <g id="ytick_1">
     <g id="line2d_67">
      <path d="M 90 384.48 
L 648 384.48 
" clip-path="url(#pbcd6b3282f)" style="fill: none; stroke: #b0b0b0; stroke-width: 0.8; stroke-linecap: square"/>
     </g>
     <g id="line2d_68">
      <defs>
       <path id="m8fdc2b389a" d="M 0 0 
L -3.5 0 
" style="stroke: #000000; stroke-width: 0.8"/>
      </defs>
      <g>
       <use xlink:href="#m8fdc2b389a" x="90" y="384.48" style="stroke: #000000; stroke-width: 0.8"/>
      </g>
     </g>
     <g id="text_10">
      <!-- 152.0$^\circ$ -->
      <g transform="translate(46.8 388.279219) scale(0.1 -0.1)">
       <defs>
        <path id="DejaVuSans-35" d="M 691 4666 
L 3169 4666 
L 3169 4134 
L 1269 4134 
L 1269 2991 
Q 1406 3038 1543 3061 
Q 1681 3084 1819 3084 
Q 2600 3084 3056 2656 
Q 3513 2228 3513 1497 
Q 3513 744 3044 326 
Q 2575 -91 1722 -91 
Q 1428 -91 1123 -41 
Q 819 9 494 109 
L 494 744 
Q 775 591 1075 516 
Q 1375 441 1709 441 
Q 2250 441 2565 725 
Q 2881 1009 2881 1497 
Q 2881 1984 2565 2268 
Q 2250 2553 1709 2553 
Q 1456 2553 1204 2497 
Q 953 2441 691 2322 
L 691 4666 
z
" transform="scale(0.015625)"/>
        <path id="DejaVuSans-2e" d="M 684 794 
L 1344 794 
L 1344 0 
L 684 0 
L 684 794 
z
" transform="scale(0.015625)"/>
        <path id="DejaVuSans-2218" d="M 2000 2619 
Q 1750 2619 1578 2445 
Q 1406 2272 1406 2022 
Q 1406 1775 1578 1605 
Q 1750 1435 2000 1435 
Q 2250 1435 2422 1605 
Q 2594 1775 2594 2022 
Q 2594 2269 2420 2444 
Q 2247 2619 2000 2619 
z
M 2000 3022 
Q 2200 3022 2384 2945 
Q 2569 2869 2703 2725 
Q 2847 2585 2919 2406 
Q 2991 2228 2991 2022 
Q 2991 1610 2702 1324 
Q 2413 1038 1994 1038 
Q 1572 1038 1290 1319 
Q 1009 1600 1009 2022 
Q 1009 2441 1296 2731 
Q 1584 3022 2000 3022 
z
" transform="scale(0.015625)"/>
       </defs>
       <use xlink:href="#DejaVuSans-31" transform="translate(0 0.78125)"/>
       <use xlink:href="#DejaVuSans-35" transform="translate(63.623047 0.78125)"/>
       <use xlink:href="#DejaVuSans-32" transform="translate(127.246094 0.78125)"/>
       <use xlink:href="#DejaVuSans-2e" transform="translate(190.869141 0.78125)"/>
       <use xlink:href="#DejaVuSans-30" transform="translate(222.65625 0.78125)"/>
       <use xlink:href="#DejaVuSans-2218" transform="translate(300.874023 39.0625) scale(0.7)"/>
      </g>
     </g>
    </g>
    <g id="ytick_2">
     <g id="line2d_69">
      <path d="M 90 51.84 
L 648 51.84 
" clip-path="url(#pbcd6b3282f)" style="fill: none; stroke: #b0b0b0; stroke-width: 0.8; stroke-linecap: square"/>
     </g>
     <g id="line2d_70">
      <g>
       <use xlink:href="#m8fdc2b389a" x="90" y="51.84" style="stroke: #000000; stroke-width: 0.8"/>
      </g>
     </g>
     <g id="text_11">
      <!-- 208.0$^\circ$ -->
      <g transform="translate(46.8 55.639219) scale(0.1 -0.1)">
       <use xlink:href="#DejaVuSans-32" transform="translate(0 0.78125)"/>
       <use xlink:href="#DejaVuSans-30" transform="translate(63.623047 0.78125)"/>
       <use xlink:href="#DejaVuSans-38" transform="translate(127.246094 0.78125)"/>
       <use xlink:href="#DejaVuSans-2e" transform="translate(190.869141 0.78125)"/>
       <use xlink:href="#DejaVuSans-30" transform="translate(222.65625 0.78125)"/>
       <use xlink:href="#DejaVuSans-2218" transform="translate(300.874023 39.0625) scale(0.7)"/>
      </g>
     </g>
    </g>
    <g id="ytick_3">
     <g id="line2d_71">
      <path d="M 90 218.16 
L 648 218.16 
" clip-path="url(#pbcd6b3282f)" style="fill: none; stroke: #b0b0b0; stroke-width: 0.8; stroke-linecap: square"/>
     </g>
     <g id="line2d_72">
      <g>
       <use xlink:href="#m8fdc2b389a" x="90" y="218.16" style="stroke: #000000; stroke-width: 0.8"/>
      </g>
     </g>
     <g id="text_12">
      <!-- 180.0$^\circ$ -->
      <g transform="translate(46.8 221.959219) scale(0.1 -0.1)">
       <use xlink:href="#DejaVuSans-31" transform="translate(0 0.78125)"/>
       <use xlink:href="#DejaVuSans-38" transform="translate(63.623047 0.78125)"/>
       <use xlink:href="#DejaVuSans-30" transform="translate(127.246094 0.78125)"/>
       <use xlink:href="#DejaVuSans-2e" transform="translate(190.869141 0.78125)"/>
       <use xlink:href="#DejaVuSans-30" transform="translate(222.65625 0.78125)"/>
       <use xlink:href="#DejaVuSans-2218" transform="translate(300.874023 39.0625) scale(0.7)"/>
      </g>
     </g>
    </g>
    <g id="ytick_4">
     <g id="line2d_73">
      <path d="M 90 301.32 
L 648 301.32 
" clip-path="url(#pbcd6b3282f)" style="fill: none; stroke: #b0b0b0; stroke-linecap: square"/>
     </g>
     <g id="line2d_74">
      <defs>
       <path id="m5d87a0010c" d="M 0 0 
L -2 0 
" style="stroke: #000000; stroke-width: 0.6"/>
      </defs>
      <g>
       <use xlink:href="#m5d87a0010c" x="90" y="301.32" style="stroke: #000000; stroke-width: 0.6"/>
      </g>
     </g>
    </g>
    <g id="ytick_5">
     <g id="line2d_75">
      <path d="M 90 135 
L 648 135 
" clip-path="url(#pbcd6b3282f)" style="fill: none; stroke: #b0b0b0; stroke-linecap: square"/>
     </g>
     <g id="line2d_76">
      <g>
       <use xlink:href="#m5d87a0010c" x="90" y="135" style="stroke: #000000; stroke-width: 0.6"/>
      </g>
     </g>
    </g>
   </g>
   <g id="line2d_77">
    <path d="M 90 99.36 
L 90.558559 99.475409 
L 91.117117 99.820039 
L 91.675676 100.389417 
L 92.234234 101.176372 
L 93.351351 103.361979 
L 94.468468 106.272019 
L 95.585586 109.771371 
L 97.261261 115.783518 
L 101.72973 132.439519 
L 103.405405 137.566659 
L 104.522523 140.371905 
L 105.63964 142.620323 
L 106.756757 144.278061 
L 107.873874 145.334758 
L 108.432432 145.638714 
L 108.990991 145.795728 
L 109.54955 145.809284 
L 110.108108 145.684133 
L 110.666667 145.426303 
L 111.783784 144.543076 
L 112.900901 143.232616 
L 114.018018 141.585663 
L 116.252252 137.714865 
L 118.486486 133.879885 
L 119.603604 132.287401 
L 120.720721 131.072313 
L 121.837838 130.34675 
L 122.396396 130.200295 
L 122.954955 130.214413 
L 123.513514 130.393323 
L 124.072072 130.738715 
L 124.630631 131.253434 
L 125.747748 132.790537 
L 126.864865 134.982479 
L 127.981982 137.776236 
L 129.099099 141.093587 
L 130.774775 146.835326 
L 133.567568 157.513115 
L 136.36036 168.120477 
L 138.594595 175.72583 
L 140.27027 180.704844 
L 141.945946 185.021581 
L 143.621622 188.710753 
L 145.297297 191.86044 
L 146.972973 194.587971 
L 149.207207 197.776586 
L 156.468468 207.573681 
L 159.261261 211.895738 
L 163.72973 219.308348 
L 168.756757 227.508227 
L 172.666667 233.934575 
L 174.900901 238.004077 
L 176.576577 241.423047 
L 178.252252 245.25518 
L 179.927928 249.560847 
L 182.162162 256.060016 
L 184.396396 263.296371 
L 189.423423 279.99601 
L 191.099099 284.663325 
L 192.216216 287.270146 
L 193.333333 289.388193 
L 194.45045 290.960351 
L 195.567568 291.950151 
L 196.126126 292.222409 
L 196.684685 292.34776 
L 197.243243 292.329927 
L 197.801802 292.174784 
L 198.918919 291.486823 
L 200.036036 290.372754 
L 201.711712 288.164091 
L 205.063063 283.421989 
L 206.738739 281.43602 
L 207.855856 280.446263 
L 208.972973 279.831136 
L 210.09009 279.648175 
L 210.648649 279.732491 
L 211.207207 279.939238 
L 212.324324 280.729365 
L 213.441441 282.026926 
L 214.558559 283.824324 
L 215.675676 286.09851 
L 216.792793 288.81057 
L 218.468468 293.569305 
L 221.261261 302.546112 
L 223.495495 309.560619 
L 225.171171 313.999054 
L 226.288288 316.315778 
L 227.405405 317.988571 
L 227.963964 318.556618 
L 228.522523 318.935383 
L 229.081081 319.119841 
L 229.63964 319.107314 
L 230.198198 318.897542 
L 230.756757 318.492704 
L 231.315315 317.897384 
L 232.432432 316.165042 
L 233.54955 313.780165 
L 234.666667 310.848838 
L 236.342342 305.70816 
L 241.927928 287.663098 
L 243.603604 283.467497 
L 244.720721 281.222951 
L 245.837838 279.460809 
L 246.954955 278.193618 
L 248.072072 277.420707 
L 249.189189 277.124954 
L 250.306306 277.274608 
L 251.423423 277.82319 
L 252.540541 278.710061 
L 253.657658 279.861679 
L 255.891892 282.61143 
L 258.126126 285.299568 
L 259.243243 286.359024 
L 260.36036 287.097758 
L 261.477477 287.429984 
L 262.036036 287.423144 
L 262.594595 287.292805 
L 263.153153 287.03449 
L 264.27027 286.122892 
L 265.387387 284.680622 
L 266.504505 282.724013 
L 267.621622 280.294369 
L 269.297297 275.911846 
L 271.531532 269.171223 
L 276.558559 253.521061 
L 278.792793 247.449213 
L 280.468468 243.452756 
L 282.144144 239.918629 
L 284.378378 235.817287 
L 286.612613 232.248805 
L 289.405405 228.266622 
L 303.369369 209.183559 
L 306.162162 205.940283 
L 311.747748 199.732235 
L 313.423423 197.570425 
L 315.099099 195.096908 
L 316.774775 192.223558 
L 318.45045 188.886652 
L 320.126126 185.056789 
L 321.801802 180.74908 
L 324.036036 174.395889 
L 328.504505 161.288383 
L 330.18018 157.070236 
L 331.297297 154.700492 
L 332.414414 152.7694 
L 333.531532 151.332634 
L 334.648649 150.424696 
L 335.207207 150.172831 
L 335.765766 150.05418 
L 336.324324 150.065298 
L 336.882883 150.200913 
L 338 150.816015 
L 339.117117 151.825961 
L 340.234234 153.141679 
L 341.90991 155.49709 
L 345.261261 160.382198 
L 346.378378 161.709816 
L 347.495495 162.756097 
L 348.612613 163.460811 
L 349.72973 163.776728 
L 350.846847 163.669756 
L 351.963964 163.119417 
L 353.081081 162.120168 
L 354.198198 160.682182 
L 355.315315 158.82844 
L 356.432432 156.598892 
L 358.108108 152.678502 
L 360.900901 145.298861 
L 363.135135 139.595833 
L 364.252252 137.141729 
L 365.369369 135.10448 
L 366.486486 133.585291 
L 367.045045 133.046051 
L 367.603604 132.663923 
L 368.162162 132.444284 
L 368.720721 132.390676 
L 369.279279 132.504778 
L 369.837838 132.78637 
L 370.396396 133.233299 
L 371.513514 134.60482 
L 372.630631 136.563506 
L 373.747748 139.024849 
L 375.423423 143.420003 
L 378.774775 153.28963 
L 381.009009 159.488673 
L 382.684685 163.440921 
L 383.801802 165.638984 
L 384.918919 167.44929 
L 386.036036 168.855606 
L 387.153153 169.854843 
L 388.27027 170.45659 
L 389.387387 170.684409 
L 390.504505 170.577035 
L 391.621622 170.178377 
L 392.738739 169.543785 
L 394.414414 168.294929 
L 397.765766 165.674646 
L 398.882883 165.061627 
L 400 164.708394 
L 401.117117 164.678848 
L 402.234234 165.017646 
L 403.351351 165.753668 
L 404.468468 166.898737 
L 405.585586 168.441894 
L 406.702703 170.353111 
L 408.378378 173.807281 
L 410.612613 179.190374 
L 416.756757 194.66246 
L 418.990991 199.514869 
L 421.225225 203.788835 
L 423.459459 207.572706 
L 426.252252 211.851101 
L 431.279279 219.047711 
L 436.306306 225.977529 
L 438.540541 228.747852 
L 440.774775 231.176162 
L 443.009009 233.217416 
L 445.243243 234.913515 
L 451.387387 239.184088 
L 453.063063 240.714154 
L 454.738739 242.592679 
L 456.414414 244.898693 
L 458.09009 247.684886 
L 459.765766 250.969593 
L 461.441441 254.726661 
L 463.675676 260.313633 
L 468.144144 271.756966 
L 469.81982 275.35709 
L 470.936937 277.331905 
L 472.054054 278.891047 
L 473.171171 279.988415 
L 474.288288 280.598723 
L 474.846847 280.719675 
L 475.405405 280.720032 
L 476.522523 280.374611 
L 477.63964 279.607724 
L 478.756757 278.483962 
L 480.432432 276.302242 
L 485.459459 269.020125 
L 486.576577 267.790652 
L 487.693694 266.847404 
L 488.810811 266.236067 
L 489.927928 265.989801 
L 491.045045 266.128451 
L 492.162162 266.659575 
L 493.279279 267.579333 
L 494.396396 268.870601 
L 495.513514 270.502793 
L 497.189189 273.488753 
L 499.423423 278.129355 
L 502.216216 284.015871 
L 503.891892 286.993517 
L 505.009009 288.539859 
L 506.126126 289.63739 
L 506.684685 289.998016 
L 507.243243 290.225212 
L 507.801802 290.314687 
L 508.36036 290.26361 
L 508.918919 290.070708 
L 509.477477 289.736345 
L 510.594595 288.653301 
L 511.711712 287.052208 
L 512.828829 284.998156 
L 514.504505 281.265677 
L 517.297297 274.147184 
L 520.09009 267.120994 
L 521.765766 263.460197 
L 523.441441 260.430765 
L 524.558559 258.805617 
L 525.675676 257.504894 
L 526.792793 256.522972 
L 527.90991 255.845867 
L 529.027027 255.453805 
L 530.144144 255.322533 
L 531.261261 255.422624 
L 532.378378 255.716058 
L 534.612613 256.643731 
L 536.846847 257.575897 
L 537.963964 257.895261 
L 539.081081 258.041808 
L 540.198198 257.96765 
L 541.315315 257.632993 
L 542.432432 257.008692 
L 543.54955 256.079137 
L 544.666667 254.844775 
L 545.783784 253.323498 
L 547.459459 250.58393 
L 549.693694 246.351596 
L 557.513514 230.894109 
L 560.306306 226.217876 
L 563.657658 221.134505 
L 571.477477 209.903801 
L 574.828829 205.356934 
L 577.063063 202.723117 
L 578.738739 201.057414 
L 580.414414 199.694797 
L 582.09009 198.637132 
L 583.765766 197.851346 
L 586 197.098752 
L 589.90991 195.860427 
L 591.585586 195.064835 
L 593.261261 193.953483 
L 594.378378 192.994096 
L 596.054054 191.179699 
L 597.72973 188.881447 
L 599.405405 186.092591 
L 601.081081 182.847761 
L 603.315315 177.9775 
L 607.225225 169.209223 
L 608.900901 165.974282 
L 610.018018 164.178971 
L 611.135135 162.746914 
L 612.252252 161.725999 
L 613.369369 161.145909 
L 614.486486 161.015436 
L 615.603604 161.321278 
L 616.720721 162.028679 
L 617.837838 163.084263 
L 618.954955 164.420761 
L 620.630631 166.780361 
L 624.540541 172.49925 
L 626.216216 174.442784 
L 627.333333 175.424809 
L 628.45045 176.109515 
L 629.567568 176.469898 
L 630.684685 176.491265 
L 631.801802 176.172071 
L 632.918919 175.51817 
L 634.036036 174.546512 
L 635.153153 173.286193 
L 636.828829 170.946624 
L 639.063063 167.291925 
L 641.855856 162.704785 
L 643.531532 160.452485 
L 644.648649 159.328778 
L 645.765766 158.587168 
L 646.882883 158.277607 
L 647.441441 158.294996 
L 648 158.429824 
L 648 158.429824 
" clip-path="url(#pbcd6b3282f)" style="fill: none; stroke: #1f77b4; stroke-width: 1.5; stroke-linecap: square"/>
   </g>
   <g id="line2d_78">
    <path d="M 90 236.794018 
L 90.558559 236.688839 
L 91.117117 236.374368 
L 91.675676 235.853784 
L 92.234234 235.132357 
L 93.351351 233.118128 
L 94.468468 230.412994 
L 95.585586 227.126163 
L 97.261261 221.400614 
L 101.72973 205.271091 
L 102.846847 201.928312 
L 103.963964 199.153772 
L 105.081081 197.05948 
L 105.63964 196.295022 
L 106.198198 195.729982 
L 106.756757 195.370079 
L 107.315315 195.218952 
L 107.873874 195.278132 
L 108.432432 195.54702 
L 108.990991 196.022895 
L 109.54955 196.700941 
L 110.666667 198.634132 
L 111.783784 201.268549 
L 112.900901 204.497839 
L 114.576577 210.166695 
L 119.603604 228.10208 
L 120.720721 231.237799 
L 121.837838 233.758522 
L 122.954955 235.562489 
L 123.513514 236.171711 
L 124.072072 236.576872 
L 124.630631 236.773873 
L 125.189189 236.76072 
L 125.747748 236.537546 
L 126.306306 236.106611 
L 126.864865 235.472273 
L 127.981982 233.621058 
L 129.099099 231.058635 
L 130.216216 227.888451 
L 131.891892 222.279034 
L 136.918919 204.280941 
L 138.036036 201.085236 
L 139.153153 198.491804 
L 140.27027 196.605345 
L 140.828829 195.952236 
L 141.387387 195.502013 
L 141.945946 195.259234 
L 142.504505 195.226353 
L 143.063063 195.403704 
L 143.621622 195.789491 
L 144.18018 196.379813 
L 145.297297 198.148155 
L 146.414414 200.637343 
L 147.531532 203.746886 
L 149.207207 209.294145 
L 154.792793 229.039243 
L 155.90991 232.013804 
L 157.027027 234.342044 
L 158.144144 235.929969 
L 158.702703 236.425034 
L 159.261261 236.713475 
L 159.81982 236.792373 
L 160.378378 236.660931 
L 160.936937 236.320478 
L 161.495495 235.774459 
L 162.054054 235.028399 
L 163.171171 232.968297 
L 164.288288 230.22334 
L 165.405405 226.904342 
L 167.081081 221.147641 
L 171.54955 205.047973 
L 172.666667 201.736968 
L 173.783784 199.001926 
L 174.900901 196.953262 
L 175.459459 196.213349 
L 176.018018 195.673681 
L 176.576577 195.339719 
L 177.135135 195.214841 
L 177.693694 195.30031 
L 178.252252 195.595264 
L 178.810811 196.096716 
L 179.369369 196.799593 
L 180.486486 198.779209 
L 181.603604 201.454193 
L 182.720721 204.716557 
L 184.396396 210.418148 
L 188.864865 226.568388 
L 189.981982 229.93465 
L 191.099099 232.738526 
L 192.216216 234.866823 
L 192.774775 235.64961 
L 193.333333 236.23362 
L 193.891892 236.612942 
L 194.45045 236.783739 
L 195.009009 236.744283 
L 195.567568 236.494972 
L 196.126126 236.03833 
L 196.684685 235.378977 
L 197.801802 233.480806 
L 198.918919 230.87709 
L 200.036036 227.672941 
L 201.711712 222.029224 
L 206.738739 204.065898 
L 207.855856 200.904283 
L 208.972973 198.352247 
L 210.09009 196.512817 
L 210.648649 195.884749 
L 211.207207 195.460251 
L 211.765766 195.243618 
L 212.324324 195.237041 
L 212.882883 195.440588 
L 213.441441 195.852199 
L 214 196.467709 
L 215.117117 198.283515 
L 216.234234 200.814701 
L 217.351351 203.959083 
L 219.027027 209.542191 
L 224.054054 227.564491 
L 225.171171 230.785433 
L 226.288288 233.409642 
L 227.405405 235.331178 
L 227.963964 236.003 
L 228.522523 236.472469 
L 229.081081 236.734833 
L 229.63964 236.787439 
L 230.198198 236.629754 
L 230.756757 236.263374 
L 231.315315 235.692006 
L 231.873874 234.92143 
L 232.990991 232.815782 
L 234.108108 230.031436 
L 235.225225 226.680796 
L 236.900901 220.893854 
L 241.369369 204.826589 
L 242.486486 201.547881 
L 243.603604 198.85277 
L 244.720721 196.850059 
L 245.279279 196.134808 
L 245.837838 195.620597 
L 246.396396 195.312628 
L 246.954955 195.214018 
L 247.513514 195.325764 
L 248.072072 195.646736 
L 248.630631 196.173686 
L 249.189189 196.901283 
L 250.306306 198.92701 
L 251.423423 201.64214 
L 252.540541 204.937062 
L 254.216216 210.670484 
L 258.684685 226.792783 
L 259.801802 230.127667 
L 260.918919 232.892374 
L 262.036036 234.97529 
L 262.594595 235.733623 
L 263.153153 236.292328 
L 263.711712 236.645751 
L 264.27027 236.790317 
L 264.828829 236.724564 
L 265.387387 236.449156 
L 265.945946 235.966879 
L 266.504505 235.282615 
L 267.621622 233.337789 
L 268.738739 230.693191 
L 269.855856 227.455584 
L 271.531532 221.77846 
L 276.558559 203.852744 
L 277.675676 200.72572 
L 278.792793 198.215483 
L 279.90991 196.423373 
L 280.468468 195.820446 
L 281.027027 195.421739 
L 281.585586 195.231286 
L 282.144144 195.251015 
L 282.702703 195.480726 
L 283.261261 195.918095 
L 283.81982 196.558696 
L 284.936937 198.421678 
L 286.054054 200.994462 
L 287.171171 204.173185 
L 288.846847 209.791261 
L 293.873874 227.780928 
L 294.990991 230.968158 
L 296.108108 233.551279 
L 297.225225 235.426009 
L 297.783784 236.072867 
L 298.342342 236.516665 
L 298.900901 236.752912 
L 299.459459 236.779217 
L 300.018018 236.595314 
L 300.576577 236.203065 
L 301.135135 235.606437 
L 302.252252 233.826202 
L 303.369369 231.326478 
L 304.486486 228.208179 
L 306.162162 222.651875 
L 311.747748 202.917823 
L 312.864865 199.952499 
L 313.981982 197.635178 
L 315.099099 196.059411 
L 315.657658 195.570738 
L 316.216216 195.288812 
L 316.774775 195.216485 
L 317.333333 195.35449 
L 317.891892 195.70143 
L 318.45045 196.253795 
L 319.009009 197.005995 
L 320.126126 199.077514 
L 321.243243 201.83236 
L 322.36036 205.159317 
L 324.036036 210.923664 
L 328.504505 227.01547 
L 329.621622 230.31845 
L 330.738739 233.04355 
L 331.855856 235.080755 
L 332.414414 235.814514 
L 332.972973 236.347825 
L 333.531532 236.675294 
L 334.09009 236.793607 
L 334.648649 236.701566 
L 335.207207 236.400104 
L 335.765766 235.89227 
L 336.324324 235.183203 
L 337.441441 233.192029 
L 338.558559 230.506968 
L 339.675676 227.236416 
L 341.351351 221.526783 
L 345.81982 205.383289 
L 346.936937 202.024821 
L 348.054054 199.230696 
L 349.171171 197.113713 
L 349.72973 196.337028 
L 350.288288 195.759336 
L 350.846847 195.386483 
L 351.405405 195.222242 
L 351.963964 195.268273 
L 352.522523 195.524112 
L 353.081081 195.987169 
L 353.63964 196.65276 
L 354.756757 198.562623 
L 355.873874 201.176599 
L 356.990991 204.38916 
L 358.666667 210.041313 
L 363.693694 227.995502 
L 364.810811 231.148516 
L 365.927928 233.69014 
L 367.045045 235.517767 
L 367.603604 236.139559 
L 368.162162 236.557616 
L 368.720721 236.767707 
L 369.279279 236.767707 
L 369.837838 236.557616 
L 370.396396 236.139559 
L 370.954955 235.517767 
L 372.072072 233.69014 
L 373.189189 231.148516 
L 374.306306 227.995502 
L 375.981982 222.403569 
L 381.009009 204.38916 
L 382.126126 201.176599 
L 383.243243 198.562623 
L 384.36036 196.65276 
L 384.918919 195.987169 
L 385.477477 195.524112 
L 386.036036 195.268273 
L 386.594595 195.222242 
L 387.153153 195.386483 
L 387.711712 195.759336 
L 388.27027 196.337028 
L 388.828829 197.113713 
L 389.945946 199.230696 
L 391.063063 202.024821 
L 392.18018 205.383289 
L 393.855856 211.177648 
L 398.324324 227.236416 
L 399.441441 230.506968 
L 400.558559 233.192029 
L 401.675676 235.183203 
L 402.234234 235.89227 
L 402.792793 236.400104 
L 403.351351 236.701566 
L 403.90991 236.793607 
L 404.468468 236.675294 
L 405.027027 236.347825 
L 405.585586 235.814514 
L 406.144144 235.080755 
L 407.261261 233.04355 
L 408.378378 230.31845 
L 409.495495 227.01547 
L 411.171171 221.274232 
L 415.63964 205.159317 
L 416.756757 201.83236 
L 417.873874 199.077514 
L 418.990991 197.005995 
L 419.54955 196.253795 
L 420.108108 195.70143 
L 420.666667 195.35449 
L 421.225225 195.216485 
L 421.783784 195.288812 
L 422.342342 195.570738 
L 422.900901 196.059411 
L 423.459459 196.749886 
L 424.576577 198.706328 
L 425.693694 201.361081 
L 426.810811 204.606973 
L 428.486486 210.292308 
L 433.513514 228.208179 
L 434.630631 231.326478 
L 435.747748 233.826202 
L 436.864865 235.606437 
L 437.423423 236.203065 
L 437.981982 236.595314 
L 438.540541 236.779217 
L 439.099099 236.752912 
L 439.657658 236.516665 
L 440.216216 236.072867 
L 440.774775 235.426009 
L 441.891892 233.551279 
L 443.009009 230.968158 
L 444.126126 227.780928 
L 445.801802 222.15425 
L 450.828829 204.173185 
L 451.945946 200.994462 
L 453.063063 198.421678 
L 454.18018 196.558696 
L 454.738739 195.918095 
L 455.297297 195.480726 
L 455.855856 195.251015 
L 456.414414 195.231286 
L 456.972973 195.421739 
L 457.531532 195.820446 
L 458.09009 196.423373 
L 459.207207 198.215483 
L 460.324324 200.72572 
L 461.441441 203.852744 
L 463.117117 209.418038 
L 468.144144 227.455584 
L 469.261261 230.693191 
L 470.378378 233.337789 
L 471.495495 235.282615 
L 472.054054 235.966879 
L 472.612613 236.449156 
L 473.171171 236.724564 
L 473.72973 236.790317 
L 474.288288 236.645751 
L 474.846847 236.292328 
L 475.405405 235.733623 
L 475.963964 234.97529 
L 477.081081 232.892374 
L 478.198198 230.127667 
L 479.315315 226.792783 
L 480.990991 221.020847 
L 485.459459 204.937062 
L 486.576577 201.64214 
L 487.693694 198.92701 
L 488.810811 196.901283 
L 489.369369 196.173686 
L 489.927928 195.646736 
L 490.486486 195.325764 
L 491.045045 195.214018 
L 491.603604 195.312628 
L 492.162162 195.620597 
L 492.720721 196.134808 
L 493.279279 196.850059 
L 494.396396 198.85277 
L 495.513514 201.547881 
L 496.630631 204.826589 
L 498.306306 210.544208 
L 502.774775 226.680796 
L 503.891892 230.031436 
L 505.009009 232.815782 
L 506.126126 234.92143 
L 506.684685 235.692006 
L 507.243243 236.263374 
L 507.801802 236.629754 
L 508.36036 236.787439 
L 508.918919 236.734833 
L 509.477477 236.472469 
L 510.036036 236.003 
L 510.594595 235.331178 
L 511.711712 233.409642 
L 512.828829 230.785433 
L 513.945946 227.564491 
L 515.621622 221.903959 
L 520.648649 203.959083 
L 521.765766 200.814701 
L 522.882883 198.283515 
L 524 196.467709 
L 524.558559 195.852199 
L 525.117117 195.440588 
L 525.675676 195.237041 
L 526.234234 195.243618 
L 526.792793 195.460251 
L 527.351351 195.884749 
L 527.90991 196.512817 
L 529.027027 198.352247 
L 530.144144 200.904283 
L 531.261261 204.065898 
L 532.936937 209.666601 
L 537.963964 227.672941 
L 539.081081 230.87709 
L 540.198198 233.480806 
L 541.315315 235.378977 
L 541.873874 236.03833 
L 542.432432 236.494972 
L 542.990991 236.744283 
L 543.54955 236.783739 
L 544.108108 236.612942 
L 544.666667 236.23362 
L 545.225225 235.64961 
L 546.342342 233.893177 
L 547.459459 231.414551 
L 548.576577 228.313795 
L 550.252252 222.775636 
L 555.837838 203.019687 
L 556.954955 200.035917 
L 558.072072 197.696783 
L 559.189189 196.096716 
L 559.747748 195.595264 
L 560.306306 195.30031 
L 560.864865 195.214841 
L 561.423423 195.339719 
L 561.981982 195.673681 
L 562.540541 196.213349 
L 563.099099 196.953262 
L 564.216216 199.001926 
L 565.333333 201.736968 
L 566.45045 205.047973 
L 568.126126 210.796971 
L 572.594595 226.904342 
L 573.711712 230.22334 
L 574.828829 232.968297 
L 575.945946 235.028399 
L 576.504505 235.774459 
L 577.063063 236.320478 
L 577.621622 236.660931 
L 578.18018 236.792373 
L 578.738739 236.713475 
L 579.297297 236.425034 
L 579.855856 235.929969 
L 580.414414 235.233289 
L 581.531532 233.26525 
L 582.648649 230.600368 
L 583.765766 227.346224 
L 585.441441 221.652733 
L 589.90991 205.495907 
L 591.027027 202.121884 
L 592.144144 199.308284 
L 593.261261 197.168695 
L 593.81982 196.379813 
L 594.378378 195.789491 
L 594.936937 195.403704 
L 595.495495 195.226353 
L 596.054054 195.259234 
L 596.612613 195.502013 
L 597.171171 195.952236 
L 597.72973 196.605345 
L 598.846847 198.491804 
L 599.963964 201.085236 
L 601.081081 204.280941 
L 602.756757 209.916166 
L 607.783784 227.888451 
L 608.900901 231.058635 
L 610.018018 233.621058 
L 611.135135 235.472273 
L 611.693694 236.106611 
L 612.252252 236.537546 
L 612.810811 236.76072 
L 613.369369 236.773873 
L 613.927928 236.576872 
L 614.486486 236.171711 
L 615.045045 235.562489 
L 616.162162 233.758522 
L 617.279279 231.237799 
L 618.396396 228.10208 
L 620.072072 222.527851 
L 625.099099 204.497839 
L 626.216216 201.268549 
L 627.333333 198.634132 
L 628.45045 196.700941 
L 629.009009 196.022895 
L 629.567568 195.54702 
L 630.126126 195.278132 
L 630.684685 195.218952 
L 631.243243 195.370079 
L 631.801802 195.729982 
L 632.36036 196.295022 
L 632.918919 197.05948 
L 634.036036 199.153772 
L 635.153153 201.928312 
L 636.27027 205.271091 
L 637.945946 211.050558 
L 642.414414 227.126163 
L 643.531532 230.412994 
L 644.648649 233.118128 
L 645.765766 235.132357 
L 646.324324 235.853784 
L 646.882883 236.374368 
L 647.441441 236.688839 
L 648 236.794018 
L 648 236.794018 
" clip-path="url(#pbcd6b3282f)" style="fill: none; stroke: #ff7f0e; stroke-width: 1.5; stroke-linecap: square"/>
   </g>
   <g id="patch_3">
    <path d="M 90 384.48 
L 90 51.84 
" style="fill: none; stroke: #000000; stroke-width: 0.8; stroke-linejoin: miter; stroke-linecap: square"/>
   </g>
   <g id="patch_4">
    <path d="M 648 384.48 
L 648 51.84 
" style="fill: none; stroke: #000000; stroke-width: 0.8; stroke-linejoin: miter; stroke-linecap: square"/>
   </g>
   <g id="patch_5">
    <path d="M 90 384.48 
L 648 384.48 
" style="fill: none; stroke: #000000; stroke-width: 0.8; stroke-linejoin: miter; stroke-linecap: square"/>
   </g>
   <g id="patch_6">
    <path d="M 90 51.84 
L 648 51.84 
" style="fill: none; stroke: #000000; stroke-width: 0.8; stroke-linejoin: miter; stroke-linecap: square"/>
   </g>
   <g id="text_13">
    <!-- Parametrically Driven Pendulum -->
    <g transform="translate(272.51625 45.84) scale(0.12 -0.12)">
     <defs>
      <path id="DejaVuSans-50" d="M 1259 4147 
L 1259 2394 
L 2053 2394 
Q 2494 2394 2734 2622 
Q 2975 2850 2975 3272 
Q 2975 3691 2734 3919 
Q 2494 4147 2053 4147 
L 1259 4147 
z
M 628 4666 
L 2053 4666 
Q 2838 4666 3239 4311 
Q 3641 3956 3641 3272 
Q 3641 2581 3239 2228 
Q 2838 1875 2053 1875 
L 1259 1875 
L 1259 0 
L 628 0 
L 628 4666 
z
" transform="scale(0.015625)"/>
      <path id="DejaVuSans-61" d="M 2194 1759 
Q 1497 1759 1228 1600 
Q 959 1441 959 1056 
Q 959 750 1161 570 
Q 1363 391 1709 391 
Q 2188 391 2477 730 
Q 2766 1069 2766 1631 
L 2766 1759 
L 2194 1759 
z
M 3341 1997 
L 3341 0 
L 2766 0 
L 2766 531 
Q 2569 213 2275 61 
Q 1981 -91 1556 -91 
Q 1019 -91 701 211 
Q 384 513 384 1019 
Q 384 1609 779 1909 
Q 1175 2209 1959 2209 
L 2766 2209 
L 2766 2266 
Q 2766 2663 2505 2880 
Q 2244 3097 1772 3097 
Q 1472 3097 1187 3025 
Q 903 2953 641 2809 
L 641 3341 
Q 956 3463 1253 3523 
Q 1550 3584 1831 3584 
Q 2591 3584 2966 3190 
Q 3341 2797 3341 1997 
z
" transform="scale(0.015625)"/>
      <path id="DejaVuSans-72" d="M 2631 2963 
Q 2534 3019 2420 3045 
Q 2306 3072 2169 3072 
Q 1681 3072 1420 2755 
Q 1159 2438 1159 1844 
L 1159 0 
L 581 0 
L 581 3500 
L 1159 3500 
L 1159 2956 
Q 1341 3275 1631 3429 
Q 1922 3584 2338 3584 
Q 2397 3584 2469 3576 
Q 2541 3569 2628 3553 
L 2631 2963 
z
" transform="scale(0.015625)"/>
      <path id="DejaVuSans-6d" d="M 3328 2828 
Q 3544 3216 3844 3400 
Q 4144 3584 4550 3584 
Q 5097 3584 5394 3201 
Q 5691 2819 5691 2113 
L 5691 0 
L 5113 0 
L 5113 2094 
Q 5113 2597 4934 2840 
Q 4756 3084 4391 3084 
Q 3944 3084 3684 2787 
Q 3425 2491 3425 1978 
L 3425 0 
L 2847 0 
L 2847 2094 
Q 2847 2600 2669 2842 
Q 2491 3084 2119 3084 
Q 1678 3084 1418 2786 
Q 1159 2488 1159 1978 
L 1159 0 
L 581 0 
L 581 3500 
L 1159 3500 
L 1159 2956 
Q 1356 3278 1631 3431 
Q 1906 3584 2284 3584 
Q 2666 3584 2933 3390 
Q 3200 3197 3328 2828 
z
" transform="scale(0.015625)"/>
      <path id="DejaVuSans-65" d="M 3597 1894 
L 3597 1613 
L 953 1613 
Q 991 1019 1311 708 
Q 1631 397 2203 397 
Q 2534 397 2845 478 
Q 3156 559 3463 722 
L 3463 178 
Q 3153 47 2828 -22 
Q 2503 -91 2169 -91 
Q 1331 -91 842 396 
Q 353 884 353 1716 
Q 353 2575 817 3079 
Q 1281 3584 2069 3584 
Q 2775 3584 3186 3129 
Q 3597 2675 3597 1894 
z
M 3022 2063 
Q 3016 2534 2758 2815 
Q 2500 3097 2075 3097 
Q 1594 3097 1305 2825 
Q 1016 2553 972 2059 
L 3022 2063 
z
" transform="scale(0.015625)"/>
      <path id="DejaVuSans-63" d="M 3122 3366 
L 3122 2828 
Q 2878 2963 2633 3030 
Q 2388 3097 2138 3097 
Q 1578 3097 1268 2742 
Q 959 2388 959 1747 
Q 959 1106 1268 751 
Q 1578 397 2138 397 
Q 2388 397 2633 464 
Q 2878 531 3122 666 
L 3122 134 
Q 2881 22 2623 -34 
Q 2366 -91 2075 -91 
Q 1284 -91 818 406 
Q 353 903 353 1747 
Q 353 2603 823 3093 
Q 1294 3584 2113 3584 
Q 2378 3584 2631 3529 
Q 2884 3475 3122 3366 
z
" transform="scale(0.015625)"/>
      <path id="DejaVuSans-6c" d="M 603 4863 
L 1178 4863 
L 1178 0 
L 603 0 
L 603 4863 
z
" transform="scale(0.015625)"/>
      <path id="DejaVuSans-79" d="M 2059 -325 
Q 1816 -950 1584 -1140 
Q 1353 -1331 966 -1331 
L 506 -1331 
L 506 -850 
L 844 -850 
Q 1081 -850 1212 -737 
Q 1344 -625 1503 -206 
L 1606 56 
L 191 3500 
L 800 3500 
L 1894 763 
L 2988 3500 
L 3597 3500 
L 2059 -325 
z
" transform="scale(0.015625)"/>
      <path id="DejaVuSans-20" transform="scale(0.015625)"/>
      <path id="DejaVuSans-44" d="M 1259 4147 
L 1259 519 
L 2022 519 
Q 2988 519 3436 956 
Q 3884 1394 3884 2338 
Q 3884 3275 3436 3711 
Q 2988 4147 2022 4147 
L 1259 4147 
z
M 628 4666 
L 1925 4666 
Q 3281 4666 3915 4102 
Q 4550 3538 4550 2338 
Q 4550 1131 3912 565 
Q 3275 0 1925 0 
L 628 0 
L 628 4666 
z
" transform="scale(0.015625)"/>
      <path id="DejaVuSans-6e" d="M 3513 2113 
L 3513 0 
L 2938 0 
L 2938 2094 
Q 2938 2591 2744 2837 
Q 2550 3084 2163 3084 
Q 1697 3084 1428 2787 
Q 1159 2491 1159 1978 
L 1159 0 
L 581 0 
L 581 3500 
L 1159 3500 
L 1159 2956 
Q 1366 3272 1645 3428 
Q 1925 3584 2291 3584 
Q 2894 3584 3203 3211 
Q 3513 2838 3513 2113 
z
" transform="scale(0.015625)"/>
      <path id="DejaVuSans-64" d="M 2906 2969 
L 2906 4863 
L 3481 4863 
L 3481 0 
L 2906 0 
L 2906 525 
Q 2725 213 2448 61 
Q 2172 -91 1784 -91 
Q 1150 -91 751 415 
Q 353 922 353 1747 
Q 353 2572 751 3078 
Q 1150 3584 1784 3584 
Q 2172 3584 2448 3432 
Q 2725 3281 2906 2969 
z
M 947 1747 
Q 947 1113 1208 752 
Q 1469 391 1925 391 
Q 2381 391 2643 752 
Q 2906 1113 2906 1747 
Q 2906 2381 2643 2742 
Q 2381 3103 1925 3103 
Q 1469 3103 1208 2742 
Q 947 2381 947 1747 
z
" transform="scale(0.015625)"/>
      <path id="DejaVuSans-75" d="M 544 1381 
L 544 3500 
L 1119 3500 
L 1119 1403 
Q 1119 906 1312 657 
Q 1506 409 1894 409 
Q 2359 409 2629 706 
Q 2900 1003 2900 1516 
L 2900 3500 
L 3475 3500 
L 3475 0 
L 2900 0 
L 2900 538 
Q 2691 219 2414 64 
Q 2138 -91 1772 -91 
Q 1169 -91 856 284 
Q 544 659 544 1381 
z
M 1991 3584 
L 1991 3584 
z
" transform="scale(0.015625)"/>
     </defs>
     <use xlink:href="#DejaVuSans-50"/>
     <use xlink:href="#DejaVuSans-61" x="55.802734"/>
     <use xlink:href="#DejaVuSans-72" x="117.082031"/>
     <use xlink:href="#DejaVuSans-61" x="158.195312"/>
     <use xlink:href="#DejaVuSans-6d" x="219.474609"/>
     <use xlink:href="#DejaVuSans-65" x="316.886719"/>
     <use xlink:href="#DejaVuSans-74" x="378.410156"/>
     <use xlink:href="#DejaVuSans-72" x="417.619141"/>
     <use xlink:href="#DejaVuSans-69" x="458.732422"/>
     <use xlink:href="#DejaVuSans-63" x="486.515625"/>
     <use xlink:href="#DejaVuSans-61" x="541.496094"/>
     <use xlink:href="#DejaVuSans-6c" x="602.775391"/>
     <use xlink:href="#DejaVuSans-6c" x="630.558594"/>
     <use xlink:href="#DejaVuSans-79" x="658.341797"/>
     <use xlink:href="#DejaVuSans-20" x="717.521484"/>
     <use xlink:href="#DejaVuSans-44" x="749.308594"/>
     <use xlink:href="#DejaVuSans-72" x="826.310547"/>
     <use xlink:href="#DejaVuSans-69" x="867.423828"/>
     <use xlink:href="#DejaVuSans-76" x="895.207031"/>
     <use xlink:href="#DejaVuSans-65" x="954.386719"/>
     <use xlink:href="#DejaVuSans-6e" x="1015.910156"/>
     <use xlink:href="#DejaVuSans-20" x="1079.289062"/>
     <use xlink:href="#DejaVuSans-50" x="1111.076172"/>
     <use xlink:href="#DejaVuSans-65" x="1167.753906"/>
     <use xlink:href="#DejaVuSans-6e" x="1229.277344"/>
     <use xlink:href="#DejaVuSans-64" x="1292.65625"/>
     <use xlink:href="#DejaVuSans-75" x="1356.132812"/>
     <use xlink:href="#DejaVuSans-6c" x="1419.511719"/>
     <use xlink:href="#DejaVuSans-75" x="1447.294922"/>
     <use xlink:href="#DejaVuSans-6d" x="1510.673828"/>
    </g>
   </g>
   <g id="legend_1">
    <g id="patch_7">
     <path d="M 481.5 89.24 
L 641 89.24 
Q 643 89.24 643 87.24 
L 643 58.84 
Q 643 56.84 641 56.84 
L 481.5 56.84 
Q 479.5 56.84 479.5 58.84 
L 479.5 87.24 
Q 479.5 89.24 481.5 89.24 
z
" style="fill: #ffffff; opacity: 0.8; stroke: #cccccc; stroke-linejoin: miter"/>
    </g>
    <g id="line2d_79">
     <path d="M 483.5 64.94 
L 493.5 64.94 
L 503.5 64.94 
" style="fill: none; stroke: #1f77b4; stroke-width: 1.5; stroke-linecap: square"/>
    </g>
    <g id="text_14">
     <!-- $\phi(t)$ (degrees) -->
     <g transform="translate(511.5 68.44) scale(0.1 -0.1)">
      <defs>
       <path id="DejaVuSans-Oblique-3d5" d="M 2991 4863 
L 2738 3572 
Q 3363 3572 3684 3094 
Q 4016 2606 3850 1747 
Q 3681 888 3159 400 
Q 2653 -78 2028 -78 
L 1784 -1331 
L 1213 -1331 
L 1456 -78 
Q 834 -78 509 400 
Q 178 888 347 1747 
Q 513 2606 1034 3094 
Q 1544 3572 2166 3572 
L 2419 4863 
L 2991 4863 
z
M 2128 434 
Q 2481 434 2784 756 
Q 3116 1116 3244 1747 
Q 3369 2372 3169 2738 
Q 2991 3059 2638 3059 
L 2128 434 
z
M 1556 434 
L 2066 3059 
Q 1716 3059 1413 2738 
Q 1072 2372 953 1747 
Q 834 1116 1028 756 
Q 1203 434 1556 434 
z
" transform="scale(0.015625)"/>
       <path id="DejaVuSans-28" d="M 1984 4856 
Q 1566 4138 1362 3434 
Q 1159 2731 1159 2009 
Q 1159 1288 1364 580 
Q 1569 -128 1984 -844 
L 1484 -844 
Q 1016 -109 783 600 
Q 550 1309 550 2009 
Q 550 2706 781 3412 
Q 1013 4119 1484 4856 
L 1984 4856 
z
" transform="scale(0.015625)"/>
       <path id="DejaVuSans-Oblique-74" d="M 2706 3500 
L 2619 3053 
L 1472 3053 
L 1100 1153 
Q 1081 1047 1072 975 
Q 1063 903 1063 863 
Q 1063 663 1183 572 
Q 1303 481 1569 481 
L 2150 481 
L 2053 0 
L 1503 0 
Q 991 0 739 200 
Q 488 400 488 806 
Q 488 878 497 964 
Q 506 1050 525 1153 
L 897 3053 
L 409 3053 
L 500 3500 
L 978 3500 
L 1172 4494 
L 1747 4494 
L 1556 3500 
L 2706 3500 
z
" transform="scale(0.015625)"/>
       <path id="DejaVuSans-29" d="M 513 4856 
L 1013 4856 
Q 1481 4119 1714 3412 
Q 1947 2706 1947 2009 
Q 1947 1309 1714 600 
Q 1481 -109 1013 -844 
L 513 -844 
Q 928 -128 1133 580 
Q 1338 1288 1338 2009 
Q 1338 2731 1133 3434 
Q 928 4138 513 4856 
z
" transform="scale(0.015625)"/>
       <path id="DejaVuSans-67" d="M 2906 1791 
Q 2906 2416 2648 2759 
Q 2391 3103 1925 3103 
Q 1463 3103 1205 2759 
Q 947 2416 947 1791 
Q 947 1169 1205 825 
Q 1463 481 1925 481 
Q 2391 481 2648 825 
Q 2906 1169 2906 1791 
z
M 3481 434 
Q 3481 -459 3084 -895 
Q 2688 -1331 1869 -1331 
Q 1566 -1331 1297 -1286 
Q 1028 -1241 775 -1147 
L 775 -588 
Q 1028 -725 1275 -790 
Q 1522 -856 1778 -856 
Q 2344 -856 2625 -561 
Q 2906 -266 2906 331 
L 2906 616 
Q 2728 306 2450 153 
Q 2172 0 1784 0 
Q 1141 0 747 490 
Q 353 981 353 1791 
Q 353 2603 747 3093 
Q 1141 3584 1784 3584 
Q 2172 3584 2450 3431 
Q 2728 3278 2906 2969 
L 2906 3500 
L 3481 3500 
L 3481 434 
z
" transform="scale(0.015625)"/>
       <path id="DejaVuSans-73" d="M 2834 3397 
L 2834 2853 
Q 2591 2978 2328 3040 
Q 2066 3103 1784 3103 
Q 1356 3103 1142 2972 
Q 928 2841 928 2578 
Q 928 2378 1081 2264 
Q 1234 2150 1697 2047 
L 1894 2003 
Q 2506 1872 2764 1633 
Q 3022 1394 3022 966 
Q 3022 478 2636 193 
Q 2250 -91 1575 -91 
Q 1294 -91 989 -36 
Q 684 19 347 128 
L 347 722 
Q 666 556 975 473 
Q 1284 391 1588 391 
Q 1994 391 2212 530 
Q 2431 669 2431 922 
Q 2431 1156 2273 1281 
Q 2116 1406 1581 1522 
L 1381 1569 
Q 847 1681 609 1914 
Q 372 2147 372 2553 
Q 372 3047 722 3315 
Q 1072 3584 1716 3584 
Q 2034 3584 2315 3537 
Q 2597 3491 2834 3397 
z
" transform="scale(0.015625)"/>
      </defs>
      <use xlink:href="#DejaVuSans-Oblique-3d5" transform="translate(0 0.015625)"/>
      <use xlink:href="#DejaVuSans-28" transform="translate(65.966797 0.015625)"/>
      <use xlink:href="#DejaVuSans-Oblique-74" transform="translate(104.980469 0.015625)"/>
      <use xlink:href="#DejaVuSans-29" transform="translate(144.189453 0.015625)"/>
      <use xlink:href="#DejaVuSans-20" transform="translate(183.203125 0.015625)"/>
      <use xlink:href="#DejaVuSans-28" transform="translate(214.990234 0.015625)"/>
      <use xlink:href="#DejaVuSans-64" transform="translate(254.003906 0.015625)"/>
      <use xlink:href="#DejaVuSans-65" transform="translate(317.480469 0.015625)"/>
      <use xlink:href="#DejaVuSans-67" transform="translate(379.003906 0.015625)"/>
      <use xlink:href="#DejaVuSans-72" transform="translate(442.480469 0.015625)"/>
      <use xlink:href="#DejaVuSans-65" transform="translate(483.59375 0.015625)"/>
      <use xlink:href="#DejaVuSans-65" transform="translate(545.117188 0.015625)"/>
      <use xlink:href="#DejaVuSans-73" transform="translate(606.640625 0.015625)"/>
      <use xlink:href="#DejaVuSans-29" transform="translate(658.740234 0.015625)"/>
     </g>
    </g>
    <g id="line2d_80">
     <path d="M 483.5 79.64 
L 493.5 79.64 
L 503.5 79.64 
" style="fill: none; stroke: #ff7f0e; stroke-width: 1.5; stroke-linecap: square"/>
    </g>
    <g id="text_15">
     <!-- $z(t)$ (scaled to height 7.0) -->
     <g transform="translate(511.5 83.14) scale(0.1 -0.1)">
      <defs>
       <path id="DejaVuSans-Oblique-7a" d="M 744 3500 
L 3475 3500 
L 3372 2975 
L 738 459 
L 2913 459 
L 2822 0 
L -19 0 
L 84 525 
L 2719 3041 
L 653 3041 
L 744 3500 
z
" transform="scale(0.015625)"/>
       <path id="DejaVuSans-68" d="M 3513 2113 
L 3513 0 
L 2938 0 
L 2938 2094 
Q 2938 2591 2744 2837 
Q 2550 3084 2163 3084 
Q 1697 3084 1428 2787 
Q 1159 2491 1159 1978 
L 1159 0 
L 581 0 
L 581 4863 
L 1159 4863 
L 1159 2956 
Q 1366 3272 1645 3428 
Q 1925 3584 2291 3584 
Q 2894 3584 3203 3211 
Q 3513 2838 3513 2113 
z
" transform="scale(0.015625)"/>
       <path id="DejaVuSans-37" d="M 525 4666 
L 3525 4666 
L 3525 4397 
L 1831 0 
L 1172 0 
L 2766 4134 
L 525 4134 
L 525 4666 
z
" transform="scale(0.015625)"/>
      </defs>
      <use xlink:href="#DejaVuSans-Oblique-7a" transform="translate(0 0.015625)"/>
      <use xlink:href="#DejaVuSans-28" transform="translate(52.490234 0.015625)"/>
      <use xlink:href="#DejaVuSans-Oblique-74" transform="translate(91.503906 0.015625)"/>
      <use xlink:href="#DejaVuSans-29" transform="translate(130.712891 0.015625)"/>
      <use xlink:href="#DejaVuSans-20" transform="translate(169.726562 0.015625)"/>
      <use xlink:href="#DejaVuSans-28" transform="translate(201.513672 0.015625)"/>
      <use xlink:href="#DejaVuSans-73" transform="translate(240.527344 0.015625)"/>
      <use xlink:href="#DejaVuSans-63" transform="translate(292.626953 0.015625)"/>
      <use xlink:href="#DejaVuSans-61" transform="translate(347.607422 0.015625)"/>
      <use xlink:href="#DejaVuSans-6c" transform="translate(408.886719 0.015625)"/>
      <use xlink:href="#DejaVuSans-65" transform="translate(436.669922 0.015625)"/>
      <use xlink:href="#DejaVuSans-64" transform="translate(498.193359 0.015625)"/>
      <use xlink:href="#DejaVuSans-20" transform="translate(561.669922 0.015625)"/>
      <use xlink:href="#DejaVuSans-74" transform="translate(593.457031 0.015625)"/>
      <use xlink:href="#DejaVuSans-6f" transform="translate(632.666016 0.015625)"/>
      <use xlink:href="#DejaVuSans-20" transform="translate(693.847656 0.015625)"/>
      <use xlink:href="#DejaVuSans-68" transform="translate(725.634766 0.015625)"/>
      <use xlink:href="#DejaVuSans-65" transform="translate(789.013672 0.015625)"/>
      <use xlink:href="#DejaVuSans-69" transform="translate(850.537109 0.015625)"/>
      <use xlink:href="#DejaVuSans-67" transform="translate(878.320312 0.015625)"/>
      <use xlink:href="#DejaVuSans-68" transform="translate(941.796875 0.015625)"/>
      <use xlink:href="#DejaVuSans-74" transform="translate(1005.175781 0.015625)"/>
      <use xlink:href="#DejaVuSans-20" transform="translate(1044.384766 0.015625)"/>
      <use xlink:href="#DejaVuSans-37" transform="translate(1076.171875 0.015625)"/>
      <use xlink:href="#DejaVuSans-2e" transform="translate(1139.794922 0.015625)"/>
      <use xlink:href="#DejaVuSans-30" transform="translate(1171.582031 0.015625)"/>
      <use xlink:href="#DejaVuSans-29" transform="translate(1235.205078 0.015625)"/>
     </g>
    </g>
   </g>
  </g>
 </g>
 <defs>
  <clipPath id="pbcd6b3282f">
   <rect x="90" y="51.84" width="558" height="332.64"/>
  </clipPath>
 </defs>
</svg>
